<?xml version="1.0" standalone="no"?>
<!DOCTYPE svg PUBLIC "-//W3C//DTD SVG 1.1//EN" "http://www.w3.org/Graphics/SVG/1.1/DTD/svg11.dtd" >
<svg xmlns="http://www.w3.org/2000/svg">
<metadata></metadata>
<defs>
<font id="fs_rufusitalic" horiz-adv-x="1386" >
<font-face units-per-em="2048" ascent="1536" descent="-512" />
<missing-glyph horiz-adv-x="389" />
<glyph unicode="&#xfb00;" horiz-adv-x="1523" d="M59 -420l246 1266h-149q-31 0 -36.5 13.5t3.5 60.5q10 51 21 64t42 13h148l10 47q38 188 133 291q64 69 165 104.5t218 35.5q204 0 359 -82q109 106 303 106q72 0 147.5 -17t126.5 -42q24 -11 26.5 -28t-18.5 -62q-20 -41 -33 -48.5t-42 3.5q-106 38 -197 38 q-121 0 -186 -65q-56 -56 -84 -191l-19 -90h248q31 0 37 -13t-4 -64q-9 -47 -21 -60.5t-43 -13.5h-246l-243 -1241q-6 -31 -25.5 -41t-79.5 -10q-59 0 -75.5 10.5t-10.5 40.5l242 1241h-524l-248 -1266q-6 -31 -25.5 -41t-79.5 -10q-59 0 -75.5 10.5t-10.5 40.5zM526 997 h525l20 95q22 102 55 170q-125 57 -266 57q-143 0 -220 -65.5t-105 -213.5z" />
<glyph unicode="&#xfb01;" horiz-adv-x="1374" d="M59 -420l246 1266h-149q-31 0 -36.5 13.5t3.5 60.5q10 51 21 64t42 13h148l8 37q56 250 175 357.5t351 107.5q175 0 318 -53q72 -27 90 -60t6 -104l-12 -70q-6 -32 -31 -45.5t-86 -13.5q-58 0 -78 12t-14 43l18 97q-101 38 -221 38q-138 0 -213 -68.5t-106 -217.5 l-13 -60h240q32 0 38.5 -13t-3.5 -64q-9 -46 -22 -60t-44 -14h-237l-248 -1266q-6 -30 -25.5 -40.5t-79.5 -10.5q-58 0 -75 10.5t-11 40.5zM897 127q0 29 6 59l119 619q4 22 -3 29.5t-30 7.5h-53q-27 0 -35 14t0 51q12 52 35.5 71t73.5 19h139q58 0 76 -20t8 -76l-135 -694 q-6 -31 3.5 -41t47.5 -10h39q27 0 34.5 -15.5t-1.5 -62.5q-10 -49 -22.5 -63.5t-43.5 -14.5h-86q-92 0 -132 31t-40 96z" />
<glyph unicode="&#xfb02;" horiz-adv-x="1374" d="M59 -420l246 1266h-149q-31 0 -36.5 13.5t3.5 60.5q10 51 21 64t42 13h148l8 37q56 252 175.5 358.5t350.5 106.5q83 0 180.5 -18t157.5 -43q59 -27 77.5 -61t6.5 -99l-207 -1071q-6 -31 4 -41t48 -10h39q27 0 34 -15.5t-2 -62.5q-10 -49 -22 -63.5t-43 -14.5h-86 q-92 0 -132 31t-40 96q0 29 6 59l215 1114q-115 43 -246 43q-140 0 -214.5 -70.5t-104.5 -215.5l-13 -60h246q32 0 38.5 -13t-3.5 -64q-9 -46 -22 -60t-44 -14h-243l-248 -1266q-6 -32 -28 -41.5t-77 -9.5t-73.5 9.5t-12.5 41.5z" />
<glyph unicode="&#xfb03;" horiz-adv-x="2091" d="M59 -420l246 1266h-149q-31 0 -36.5 13.5t3.5 60.5q10 51 21 64t42 13h148l10 47q38 188 133 291q64 69 165 104.5t218 35.5q215 0 371 -89q125 113 354 113q175 0 318 -53q72 -27 90 -60t6 -104l-12 -70q-6 -32 -31 -45.5t-86 -13.5q-58 0 -78 12t-14 43l18 97 q-101 38 -221 38q-138 0 -213.5 -68.5t-106.5 -217.5l-12 -60h240q32 0 38.5 -13t-3.5 -64q-9 -46 -22 -60t-44 -14h-238l-243 -1241q-6 -31 -25.5 -41t-79.5 -10q-59 0 -75.5 10.5t-10.5 40.5l242 1241h-524l-248 -1266q-6 -31 -25.5 -41t-79.5 -10q-59 0 -75.5 10.5 t-10.5 40.5zM526 997h525l8 37q25 123 76 223q-136 62 -275 62q-143 0 -220 -65.5t-105 -213.5zM1614 127q0 29 6 59l119 619q4 22 -3 29.5t-30 7.5h-53q-27 0 -35 14t0 51q12 52 35 71t73 19h140q58 0 76 -20t8 -76l-135 -694q-6 -31 3.5 -41t47.5 -10h39q27 0 34 -15.5 t-2 -62.5q-10 -49 -22 -63.5t-43 -14.5h-86q-92 0 -132 31t-40 96z" />
<glyph unicode="&#xfb04;" horiz-adv-x="2091" d="M59 -420l246 1266h-149q-31 0 -36.5 13.5t3.5 60.5q10 51 21 64t42 13h148l10 47q38 188 133 291q64 69 165 104.5t218 35.5q218 0 369 -89q122 113 356 113q83 0 180.5 -18t157.5 -43q59 -27 77.5 -61t6.5 -99l-207 -1071q-6 -31 3.5 -41t47.5 -10h39q27 0 34.5 -15.5 t-1.5 -62.5q-10 -49 -22 -63.5t-43 -14.5h-86q-92 0 -132.5 31t-40.5 96q0 24 7 59l215 1114q-115 43 -246 43q-140 0 -215 -70.5t-105 -215.5l-12 -60h246q32 0 38.5 -13t-3.5 -64q-9 -46 -22 -60t-44 -14h-244l-243 -1241q-6 -31 -25.5 -41t-79.5 -10q-59 0 -75.5 10.5 t-10.5 40.5l242 1241h-524l-248 -1266q-6 -31 -25.5 -41t-79.5 -10q-59 0 -75.5 10.5t-10.5 40.5zM526 997h525l8 37q34 147 76 226q-135 59 -275 59q-143 0 -220 -65.5t-105 -213.5z" />
<glyph horiz-adv-x="2048" />
<glyph horiz-adv-x="2048" />
<glyph unicode="&#xd;" horiz-adv-x="2048" />
<glyph unicode=" "  horiz-adv-x="389" />
<glyph unicode="&#x09;" horiz-adv-x="389" />
<glyph unicode="&#xa0;" horiz-adv-x="389" />
<glyph unicode="!" horiz-adv-x="794" d="M143 74q0 82 38 126t104 44h30q111 0 111 -101q0 -80 -28.5 -116.5t-88.5 -36.5h-80q-46 0 -66 19.5t-20 64.5zM262 481l158 949q5 32 30.5 44.5t96.5 12.5q66 0 87.5 -14t14.5 -43l-209 -949q-6 -28 -24.5 -37.5t-73.5 -9.5q-50 0 -67.5 11t-12.5 36z" />
<glyph unicode="&#x22;" horiz-adv-x="1071" d="M219 926l84 516q5 30 25.5 40.5t83.5 10.5q61 0 77.5 -11t10.5 -40l-115 -516q-5 -23 -23.5 -33t-68.5 -10q-48 0 -62.5 9.5t-11.5 33.5zM713 926l84 516q5 30 25 40.5t83 10.5q61 0 77.5 -11t10.5 -40l-114 -516q-5 -23 -24 -33t-69 -10q-48 0 -62 9.5t-11 33.5z" />
<glyph unicode="#" horiz-adv-x="1554" d="M53 373.5q-6 15.5 4 58.5q9 47 20 61.5t40 14.5h170l166 446h-156q-29 0 -34.5 15t3.5 59q9 46 20.5 61t39.5 15h184l129 344q8 20 28.5 28.5t73.5 8.5q46 0 60.5 -10t5.5 -35l-125 -336h459l129 344q6 20 27 28.5t73 8.5q46 0 60.5 -10t5.5 -35l-123 -336h162 q28 0 34 -16t-2 -60t-20 -59t-41 -15h-193l-161 -446h174q29 0 34.5 -15t-2.5 -61q-8 -43 -20 -58.5t-41 -15.5h-201l-125 -338q-6 -18 -28.5 -26t-75.5 -8q-48 0 -61.5 8.5t-4.5 34.5l123 329h-461l-124 -338q-6 -18 -27 -26t-74 -8q-48 0 -63 8.5t-6 34.5l122 329h-143 q-29 0 -35 15.5zM459 508h463l165 446h-464z" />
<glyph unicode="$" d="M94 227l23 109q8 36 27.5 46.5t84.5 10.5q57 0 73.5 -11t10.5 -40l-30 -158q137 -39 317 -39q200 0 291.5 72t91.5 219q0 67 -22 108t-87 73t-186 53l-82 14q-190 33 -265 115.5t-75 240.5q0 189 122.5 304.5t369.5 136.5l24 121q6 32 27.5 42.5t73.5 10.5q51 0 67 -11.5 t11 -39.5l-25 -121q135 -10 254 -49q71 -24 96 -65.5t10 -119.5l-14 -75q-8 -38 -28 -49t-85 -11q-55 0 -70 10t-9 43l20 115q-129 47 -283 47q-182 0 -272 -69.5t-90 -194.5q0 -65 20 -100t77 -60t173 -47l78 -14q208 -37 292.5 -125t84.5 -252q0 -217 -125.5 -337 t-400.5 -140l-29 -140q-6 -31 -27 -41t-73 -10q-49 0 -66.5 10.5t-11.5 43.5l26 133q-141 6 -270 37q-80 19 -109 66.5t-10 137.5z" />
<glyph unicode="%" horiz-adv-x="1982" d="M135 1014q0 213 119.5 343t318.5 130q158 0 241 -84t83 -250q0 -212 -119 -342.5t-319 -130.5q-324 0 -324 334zM286 0.5q-12 12.5 11 38.5l1214 1419q19 21 44.5 28t82.5 7q28 0 45 -3t23.5 -9.5t3.5 -16t-14 -22.5l-1215 -1419q-19 -21 -44.5 -28t-82.5 -7 q-56 0 -68 12.5zM299 1018q0 -111 44.5 -162t133.5 -51q117 0 186.5 94t69.5 248q0 215 -178 215q-112 0 -184 -93.5t-72 -250.5zM1085 322q0 213 120 343t319 130q158 0 240.5 -84t82.5 -250q0 -212 -119 -342.5t-319 -130.5q-324 0 -324 334zM1249 326q0 -111 44.5 -162 t133.5 -51q117 0 186.5 94t69.5 248q0 215 -178 215q-112 0 -184 -93.5t-72 -250.5z" />
<glyph unicode="&#x26;" horiz-adv-x="1738" d="M78 348q0 159 83 264t245 148l4 24q-144 72 -144 267q0 214 153.5 331t454.5 117q174 0 312 -53q74 -28 97.5 -66.5t10.5 -107.5l-22 -111q-7 -38 -26.5 -48.5t-80.5 -10.5q-50 0 -67 10.5t-11 42.5l29 148q-131 45 -276 45q-373 0 -373 -295q0 -217 182 -217 q24 0 30 -14t-1 -64q-7 -44 -18.5 -57t-41.5 -13q-153 0 -244 -85.5t-91 -229.5q0 -120 78 -181t260 -61q213 0 313 79t100 236t-141 226q-26 13 -33 30t0 62q9 43 21 56.5t39 13.5h340q145 0 204.5 42.5t59.5 133.5q0 32 21.5 47.5t80.5 15.5q54 1 73 -10.5t19 -38.5 q0 -346 -456 -346h-123l-4 -25q94 -68 94 -219q0 -216 -168.5 -337.5t-474.5 -121.5q-263 0 -385.5 94.5t-122.5 278.5z" />
<glyph unicode="'" horiz-adv-x="577" d="M219 926l84 516q5 30 25.5 40.5t83.5 10.5q61 0 77.5 -11t10.5 -40l-115 -516q-5 -23 -23.5 -33t-68.5 -10q-48 0 -62.5 9.5t-11.5 33.5z" />
<glyph unicode="(" horiz-adv-x="796" d="M119 131q0 223 61 516l19 94q44 218 96 381.5t111 276t130 182t149.5 100.5t172.5 31h21q28 0 35 -14t-1 -58q-7 -44 -19 -57.5t-40 -13.5h-25q-54 0 -102 -25.5t-97 -87t-93 -158.5t-87 -245t-81 -342l-15 -74q-61 -318 -61 -506q0 -358 209 -358h12q29 0 35 -14t-2 -58 q-9 -45 -21.5 -58.5t-42.5 -13.5h-26q-338 0 -338 502z" />
<glyph unicode=")" horiz-adv-x="806" d="M-119 -299q10 48 21 61t37 13h26q67 0 125.5 39t118 131t115.5 260.5t106 410.5l14 74q70 350 70 555q0 170 -48.5 247t-143.5 77h-21q-28 0 -34.5 13.5t1.5 59.5q9 44 19.5 57t38.5 13h30q168 0 250 -107t82 -348q0 -218 -67 -575l-19 -90q-57 -273 -123.5 -459 t-149 -297t-177 -159t-215.5 -48h-21q-28 0 -35 14t0 58z" />
<glyph unicode="*" horiz-adv-x="954" d="M175.5 937.5q-3.5 13.5 0.5 24t17 17.5l110 59q55 34 141 45l5 17q-54 14 -111 49l-92 63q-28 22 12 76q24 34 38.5 41.5t35.5 -4.5l92 -63q52 -34 82 -86l14 8q-10 77 0 133l25 131q6 22 21.5 28.5t56.5 6.5q37 0 50 -6.5t9 -28.5l-25 -131q-12 -64 -51 -131l15 -10 q60 67 112 94l107 55q11 6 18.5 7t14.5 -6t12.5 -16t15.5 -28q18 -32 18.5 -48t-18.5 -28l-113 -61q-54 -31 -143 -45l-4 -19q68 -13 111 -45l94 -67q19 -14 16 -30.5t-26 -45.5q-25 -33 -39.5 -41t-36.5 4l-92 70q-44 29 -78 84l-17 -11q12 -64 0 -131l-24 -129 q-4 -23 -19.5 -30t-52.5 -7q-40 0 -54.5 7t-8.5 30l24 131q10 56 49 129l-14 11q-59 -63 -111 -92l-108 -60q-20 -10 -32 -1t-32 44q-11 23 -14.5 36.5z" />
<glyph unicode="+" d="M139.5 667.5q-6.5 14.5 1.5 65.5q9 49 21.5 64.5t42.5 15.5h411l84 434q6 31 26.5 42t78.5 11q57 0 75.5 -11.5t12.5 -41.5l-84 -434h412q26 0 32 -14.5t-2 -65.5q-9 -49 -21.5 -64.5t-41.5 -15.5h-412l-84 -432q-6 -31 -26 -42t-80 -11q-59 0 -75.5 11t-10.5 42l84 432 h-412q-26 0 -32.5 14.5z" />
<glyph unicode="," horiz-adv-x="589" d="M45 -268q69 138 105 262q-34 9 -50 29.5t-16 56.5q0 77 42 119.5t112 42.5h18q100 0 100 -97q0 -76 -43 -196.5t-110 -224.5q-25 -41 -76 -41h-53q-54 0 -29 49z" />
<glyph unicode="-" horiz-adv-x="665" d="M24 461q-7 17 3 61q11 48 22 63t41 15h393q28 0 35 -16t-2 -62q-8 -45 -20.5 -61.5t-42.5 -16.5h-392q-30 0 -37 17z" />
<glyph unicode="." horiz-adv-x="587" d="M70 74q0 82 38.5 126t104.5 44h31q57 0 83.5 -24.5t26.5 -76.5q0 -81 -28.5 -117t-89.5 -36h-78q-46 0 -67 19.5t-21 64.5z" />
<glyph unicode="/" horiz-adv-x="1298" d="M-143.5 -327q0.5 8 8.5 20l1259 1833q24 35 119 35q27 0 44 -2.5t24.5 -7.5t7.5 -13t-8 -20l-1260 -1833q-24 -35 -119 -35q-27 0 -43.5 2.5t-24.5 7.5t-7.5 13z" />
<glyph unicode="0" horiz-adv-x="1423" d="M115 561q0 281 89.5 495t247.5 328.5t361 114.5q496 0 496 -584q0 -157 -28.5 -298t-87 -258.5t-141 -203t-196.5 -133t-248 -47.5q-251 0 -372 142.5t-121 443.5zM322 567q0 -222 75 -326t236 -104q202 0 335.5 208.5t133.5 557.5q0 224 -79.5 329t-236.5 105 q-75 0 -144 -32.5t-127.5 -98t-101.5 -157t-67 -215.5t-24 -267z" />
<glyph unicode="1" horiz-adv-x="1316" d="M148 18q-6 18 4 62q10 50 22.5 65t40.5 15h317l175 895q21 115 73 256h-30l-408 -322q-17 -16 -37.5 -8.5t-50.5 49.5q-31 41 -33 61t21 37l362 279q86 68 187 68h88q62 0 82.5 -20.5t11.5 -72.5l-238 -1222h283q28 0 34 -15t-3 -65q-10 -50 -23 -65t-41 -15h-803 q-28 0 -34 18z" />
<glyph unicode="2" horiz-adv-x="1392" d="M61 74l13 69q18 87 123 160l567 406q130 93 197 161t90.5 125t23.5 135q0 106 -71 155.5t-246 49.5q-136 0 -258 -39l-37 -184q-6 -31 -27 -42t-80 -11q-58 0 -75 11t-11 42l27 152q13 79 58.5 126t129.5 70q142 39 312 39q258 0 371.5 -82.5t113.5 -269.5 q0 -148 -84 -274.5t-303 -288.5l-320 -236q-118 -88 -266 -145l-4 -27h785q30 0 36 -16.5t-4 -73.5q-9 -51 -22 -68.5t-45 -17.5h-897q-64 0 -84.5 16.5t-12.5 57.5z" />
<glyph unicode="3" horiz-adv-x="1419" d="M88 205l21 119q5 31 27.5 43t82.5 12q61 0 78 -11.5t12 -43.5l-26 -156q120 -27 262 -27q227 0 332.5 79t105.5 231q0 117 -76.5 174t-242.5 57h-168q-29 0 -35 17t4 63q8 46 19.5 61t41.5 15h146q185 0 288 78.5t103 224.5q0 101 -71 148.5t-222 47.5q-139 0 -250 -30 l-24 -127q-6 -33 -25.5 -44.5t-75.5 -11.5q-63 0 -81 12t-11 50l16 90q13 76 55 121t118 65q142 37 329 37q229 0 342 -89t113 -253q0 -139 -82 -240.5t-219 -130.5l-6 -28q114 -32 168.5 -105.5t54.5 -193.5q0 -229 -172 -356.5t-514 -127.5q-185 0 -291 27q-84 21 -114 66 t-13 137z" />
<glyph unicode="4" d="M84 514l10 53q7 37 30.5 77.5t92.5 121.5l582 676q22 25 50.5 35t92.5 10q99 0 95 -36q-1 -11 -13 -24l-532 -626q-88 -101 -187 -164l-4 -23h565l52 275q6 31 27 42t83 11q56 0 74.5 -12t13.5 -41l-51 -275h166q29 0 36 -15t-3 -69q-12 -51 -24 -65t-42 -14h-168 l-57 -291h143q28 0 34 -15t-3 -65q-10 -50 -23 -65t-41 -15h-559q-28 0 -34 18t4 62q10 50 22.5 65t40.5 15h219l58 291h-658q-61 0 -79.5 14t-12.5 49z" />
<glyph unicode="5" horiz-adv-x="1404" d="M82 209l20 98q8 37 29 49.5t90 12.5q59 0 77.5 -11.5t12.5 -44.5l-28 -147q100 -25 252 -25q226 0 336 84t110 254q0 130 -78.5 190t-247.5 60q-107 0 -210 -17.5t-121 -17.5q-66 0 -84 19t-9 71l115 594q11 55 39 76t96 21h772q63 0 84 -23t11 -80l-37 -194 q-6 -32 -32 -44t-83 -12q-54 0 -74 11.5t-14 44.5l27 137h-603l-86 -451q129 27 256 27q255 0 375.5 -96t120.5 -293q0 -250 -179 -388.5t-532 -138.5q-158 0 -284 29q-82 20 -111 69.5t-10 135.5z" />
<glyph unicode="6" horiz-adv-x="1398" d="M152 459q0 153 31.5 300.5t99.5 281.5t164 236t234.5 162t301.5 60q112 0 203 -26q82 -24 116.5 -70.5t22.5 -126.5l-10 -66q-6 -37 -27.5 -49t-83.5 -12q-59 0 -79.5 11t-14.5 44l18 111q-74 24 -178 24q-203 0 -351.5 -148.5t-207.5 -426.5h29q144 129 383 129 q424 0 424 -387q0 -236 -154 -383.5t-422 -147.5q-258 0 -378.5 120t-120.5 364zM360 473q0 -186 76.5 -261t227.5 -75q165 0 257.5 95.5t92.5 254.5q0 123 -68 180.5t-211 57.5q-212 0 -366 -102q-9 -77 -9 -150z" />
<glyph unicode="7" horiz-adv-x="1359" d="M178 1092l58 292q11 53 35.5 72t86.5 19h893q60 0 78 -16t12 -58l-6 -37q-15 -88 -100 -201l-608 -792q-65 -85 -89 -132.5t-34 -97.5l-21 -96q-6 -32 -27 -43.5t-85 -11.5q-65 0 -84 12t-13 43l23 102q18 79 52.5 149t105.5 161l456 600q87 116 230 233l6 25h-739 l-43 -223q-5 -29 -27 -41.5t-76 -12.5q-56 0 -73 12.5t-11 41.5z" />
<glyph unicode="8" horiz-adv-x="1409" d="M102 346q0 152 86 263t254 149l7 28q-168 51 -168 275q0 208 145.5 323t421.5 115q459 0 459 -325q0 -147 -78.5 -252t-212.5 -136l-6 -28q223 -64 223 -314q0 -220 -156 -344.5t-456 -124.5q-519 0 -519 371zM315 369q0 -122 74.5 -178t249.5 -56q387 0 387 307 q0 122 -71.5 182t-231.5 60q-200 0 -304 -83.5t-104 -231.5zM487 1059q0 -112 61 -168.5t191 -56.5q170 0 263.5 84.5t93.5 222.5q0 104 -64 152t-207 48q-173 0 -255.5 -75.5t-82.5 -206.5z" />
<glyph unicode="9" d="M76 197l16 90q6 36 27.5 48.5t83.5 12.5q63 0 81.5 -12t12.5 -43l-25 -127q88 -27 213 -27q200 0 343 152.5t198 435.5h-29q-138 -129 -374 -129q-418 0 -418 389q0 110 37.5 203.5t108 162.5t178.5 107.5t243 38.5q496 0 496 -483q0 -152 -29.5 -298t-93.5 -281.5 t-156.5 -237.5t-228 -163t-297.5 -61q-148 0 -266 33q-76 22 -105.5 68t-15.5 121zM418 1008q0 -124 65 -184t209 -60q210 0 357 104q10 61 10 140q0 171 -76 250t-225 79q-160 0 -250 -90.5t-90 -238.5z" />
<glyph unicode=":" horiz-adv-x="641" d="M70 74q0 82 37.5 126t103.5 44h31q56 0 83 -23.5t27 -77.5q0 -81 -28.5 -117t-87.5 -36h-80q-46 0 -66 19.5t-20 64.5zM213 848q0 80 37.5 123t101.5 43h29q56 0 82 -22.5t26 -73.5q0 -79 -28 -115.5t-86 -36.5h-78q-84 0 -84 82z" />
<glyph unicode=";" horiz-adv-x="628" d="M42 -305.5q-9 11.5 3 37.5q74 147 107 262q-68 17 -68 86q0 76 42.5 119t111.5 43h18q100 0 100 -97q0 -87 -48 -211.5t-105 -209.5q-16 -25 -32.5 -33t-41.5 -8h-53q-25 0 -34 11.5zM223 848q0 80 37.5 123t101.5 43h29q51 0 79 -20.5t28 -75.5q0 -79 -28 -115.5 t-87 -36.5h-76q-84 0 -84 82z" />
<glyph unicode="&#x3c;" d="M221 705l15 61q11 67 88 113l823 495q25 19 46.5 10t45.5 -55q21 -44 18.5 -66.5t-30.5 -39.5l-836 -492l666 -508q20 -12 15.5 -32.5t-40.5 -63.5q-34 -41 -51.5 -48.5t-40.5 9.5l-674 506q-56 44 -45 111z" />
<glyph unicode="=" d="M94.5 406.5q-6.5 13.5 1.5 64.5q9 48 21.5 63t42.5 15h1016q26 0 32 -13.5t-2 -64.5q-9 -49 -21 -63.5t-42 -14.5h-1016q-26 0 -32.5 13.5zM199 935q-6 13 2 64q9 49 21 63.5t42 14.5h1016q26 0 32.5 -13.5t-1.5 -64.5q-9 -48 -21.5 -62.5t-42.5 -14.5h-1016 q-26 0 -32 13z" />
<glyph unicode="&#x3e;" d="M176 206q2 24 33 42l846 497l-656 500q-20 12 -15.5 32.5t40.5 63.5q34 41 51.5 48.5t40.5 -9.5l664 -499q56 -44 45 -111l-15 -61q-8 -38 -26.5 -63t-61.5 -50l-833 -500q-31 -19 -50.5 -9.5t-41.5 54.5q-23 41 -21 65z" />
<glyph unicode="?" horiz-adv-x="1308" d="M188 1114l31 152q27 131 160 178q160 55 393 55q262 0 381 -76.5t119 -242.5q0 -132 -64.5 -227t-216.5 -171l-141 -71q-107 -54 -139.5 -87t-46.5 -94l-11 -43q-6 -31 -28 -42t-80 -11q-59 0 -77.5 11.5t-12.5 41.5l8 43q23 104 72 169.5t153 117.5l152 76 q135 68 179 122.5t44 147.5q0 87 -73.5 129.5t-256.5 42.5q-172 0 -319 -45l-31 -170q-7 -37 -30 -49t-83 -12q-55 0 -72 10.5t-10 44.5zM350 72q0 82 39 127t105 45h30q109 0 109 -101q0 -81 -28 -117t-89 -36h-78q-46 0 -67 19t-21 63z" />
<glyph unicode="@" horiz-adv-x="2105" d="M70 369q0 263 75.5 471.5t222 355t371 225t514.5 78.5q775 0 775 -653q0 -155 -30.5 -288.5t-90.5 -239t-159 -166t-226 -60.5q-198 0 -248 125h-31q-104 -125 -315 -125q-174 0 -265.5 92.5t-91.5 255.5q0 272 150 442.5t383 170.5q99 0 167.5 -30.5t96.5 -82.5h25 q10 57 33 79.5t69 22.5q43 0 56.5 -9t9.5 -36l-109 -569q-18 -76 -8 -118.5t36.5 -57t80.5 -14.5q122 0 209.5 166t87.5 434q0 526 -639 526q-246 0 -433.5 -68.5t-306.5 -197t-179 -307t-60 -404.5q0 -293 155 -441.5t482 -148.5q162 0 319 41q25 6 35.5 -3t19.5 -46 q10 -35 6 -51t-28 -23q-75 -24 -184.5 -39.5t-206.5 -15.5q-178 0 -317 41t-241 125.5t-156 221.5t-54 321zM764 461q0 -105 53.5 -162t157.5 -57q262 0 325 325l13 70q24 127 -33 198.5t-176 71.5q-157 0 -248.5 -126.5t-91.5 -319.5z" />
<glyph unicode="A" horiz-adv-x="1742" d="M-67 18q-2 7 -2 17q0 17 6 45q10 50 22.5 65t40.5 15h84l743 1231q34 57 63 76.5t81 19.5h82q53 0 77.5 -21t36.5 -77l281 -1229h94q28 0 34 -15q2 -6 2 -18q0 -17 -5 -47q-10 -50 -23 -65t-41 -15h-467q-28 0 -34 18t4 62q10 50 22.5 65t40.5 15h154l-66 317h-669 l-189 -317h170q28 0 34 -15q2 -6 2 -18q0 -17 -5 -47q-10 -50 -23 -65t-41 -15h-475q-28 0 -34 18zM586 639h547l-84 418q-31 157 -41 278h-29q-63 -137 -145 -280z" />
<glyph unicode="B" horiz-adv-x="1454" d="M-20 18q-2 7 -2 17q0 17 6 45q10 50 22.5 65t40.5 15h92l226 1155h-93q-28 -1 -34 15q-2 6 -2 17q0 18 6 48q10 50 22.5 65t40.5 15h559q255 0 381.5 -90.5t126.5 -249.5q0 -134 -77 -233.5t-203 -117.5l-7 -28q222 -56 222 -305q0 -218 -157 -347t-452 -129 q-232 0 -344 101h-30q-9 -41 -41 -58.5t-101 -17.5h-168q-28 0 -34 18zM348 207q133 -70 328 -70q222 0 323 80t101 236q0 119 -80 174t-279 55h-301zM469 831h283q212 0 312.5 74t100.5 205q0 107 -78 156t-270 49h-254z" />
<glyph unicode="C" horiz-adv-x="1437" d="M98 571q0 203 58 373t167.5 293.5t276.5 192.5t375 69q70 0 166.5 -13t156.5 -32q84 -28 112 -70q17 -26 17 -68q0 -25 -6 -56l-28 -138q-6 -38 -29 -49.5t-86 -11.5q-56 0 -72 11t-10 44l35 178q-125 41 -291 41q-153 0 -274.5 -58t-199 -160t-118.5 -238t-41 -297 q0 -233 104 -335t353 -102q171 0 350 50q27 6 42 -6.5t26 -59.5q9 -41 4 -59t-31 -27q-88 -32 -204.5 -50t-223.5 -18q-327 0 -478 145.5t-151 450.5z" />
<glyph unicode="D" horiz-adv-x="1554" d="M-20 18q-2 7 -2 17q0 17 6 45q9 48 21 64t42 16h92l223 1155h-92q-28 -1 -34 15q-2 6 -2 17q0 18 6 48q10 50 22.5 65t40.5 15h490q333 0 498 -145.5t165 -428.5q0 -158 -36.5 -295.5t-109.5 -249t-178.5 -191t-248.5 -122.5t-314 -43h-555q-28 0 -34 18zM340 160h238 q164 0 293 54.5t210 152t122.5 228t41.5 286.5q0 225 -117.5 329.5t-359.5 104.5h-205z" />
<glyph unicode="E" horiz-adv-x="1447" d="M-20 18q-2 7 -2 17q0 17 6 45q10 50 22.5 65t40.5 15h92l223 1155h-92q-28 -1 -34 15q-2 6 -2 17q0 18 6 48q10 50 22.5 65t40.5 15h1063q64 0 82 -19q11 -12 10 -38q0 -17 -4 -40l-45 -233q-6 -31 -27 -43t-77 -12q-55 0 -70.5 11.5t-9.5 43.5l30 170h-692l-94 -484h467 l14 78q5 30 26 43t77 13q51 0 68.5 -11.5t11.5 -44.5l-62 -327q-5 -29 -26 -41.5t-76 -12.5q-54 0 -69.5 12.5t-10.5 43.5l16 88h-465l-98 -512h705l30 172q5 30 26.5 42.5t78.5 12.5q55 0 71.5 -12t10.5 -43l-45 -236q-12 -58 -37 -77t-90 -19h-1078q-28 0 -34 18z" />
<glyph unicode="F" horiz-adv-x="1411" d="M-20 18q-2 7 -2 17q0 17 6 45q10 50 22.5 65t40.5 15h90l225 1155h-90q-29 0 -35.5 18t3.5 62q11 49 22.5 64.5t40.5 15.5h1067q62 -1 80 -21q12 -13 12 -39q0 -16 -4 -37l-47 -248q-7 -31 -30 -42t-74 -11q-54 0 -71.5 10.5t-10.5 42.5l35 185h-697l-100 -522h469l14 77 q5 30 27 43t78 13q51 0 68 -11.5t11 -44.5l-61 -327q-5 -29 -26 -41.5t-76 -12.5q-54 0 -69.5 12.5t-10.5 43.5l16 88h-471l-94 -473h158q28 0 34 -15q2 -6 2 -16q0 -18 -6 -49q-10 -50 -22.5 -65t-40.5 -15h-449q-28 0 -34 18z" />
<glyph unicode="G" horiz-adv-x="1579" d="M98 567q0 204 61.5 374.5t177 295t292 193.5t397.5 69q191 0 338 -45q89 -27 118 -72q18 -30 18 -76q0 -24 -5 -53l-22 -118q-6 -36 -29 -49t-88 -13q-60 0 -77 11.5t-11 43.5l30 166q-141 41 -309 41q-162 0 -292 -56.5t-215 -157t-130 -238t-45 -301.5 q0 -232 105 -334.5t346 -102.5q174 0 348 58l82 424h-391q-27 0 -33 13q-3 6 -3 19q0 17 5 48q10 50 22.5 64.5t40.5 14.5h476q64 0 83 -21q13 -13 13 -41q0 -16 -4 -36l-125 -647q-6 -29 -29 -41t-76 -12q-49 0 -67 16t-15 57h-26q-63 -40 -158 -63t-199 -23 q-300 0 -452 149t-152 443z" />
<glyph unicode="H" horiz-adv-x="1683" d="M-20 18q-2 7 -2 17q0 17 6 45q10 50 22.5 65t40.5 15h92l223 1155h-94q-28 -1 -34 15q-2 6 -2 17q0 18 6 48q10 50 22.5 65t40.5 15h385q28 0 34.5 -18t-3.5 -62q-10 -50 -23 -65t-41 -15h-90l-90 -475h799l94 475h-94q-28 -1 -34 15q-2 6 -2 18q0 17 5 47q10 50 23 65 t41 15h385q28 0 34 -18q2 -7 2 -17q0 -17 -6 -45q-10 -50 -22.5 -65t-40.5 -15h-90l-226 -1155h95q28 0 34 -15q2 -6 2 -16q0 -18 -6 -49q-10 -50 -22.5 -65t-40.5 -15h-385q-28 0 -34.5 18t3.5 62q10 50 23 65t41 15h90l100 520h-799l-102 -520h92q28 0 34 -15q2 -6 2 -18 q0 -17 -5 -47q-10 -50 -23 -65t-41 -15h-385q-28 0 -34 18z" />
<glyph unicode="I" horiz-adv-x="681" d="M-20 18q-2 7 -2 17q0 17 6 45q10 50 22.5 65t40.5 15h92l223 1155h-92q-28 -1 -34 15q-2 6 -2 17q0 18 6 48q10 50 22.5 65t40.5 15h385q28 0 34 -18q3 -7 3 -18q0 -17 -6 -44q-10 -50 -23 -65t-41 -15h-92l-223 -1155h92q28 0 34 -15q2 -6 2 -18q0 -17 -5 -47 q-10 -50 -23 -65t-41 -15h-385q-28 0 -34 18z" />
<glyph unicode="J" horiz-adv-x="989" d="M-68 58q-1 3 -1 6q0 19 16 57q22 45 37.5 55.5t46.5 -0.5q101 -37 198 -37q125 0 197.5 73.5t101.5 227.5l170 875h-170q-28 0 -34 15q-2 6 -2 17q0 18 6 48q10 50 22.5 65t40.5 15h455q28 0 34 -18q3 -7 3 -18q0 -17 -6 -44q-10 -50 -23 -65t-41 -15h-84l-164 -850 q-50 -258 -170 -374t-344 -116q-70 0 -144 14.5t-118 37.5q-25 12 -27 31z" />
<glyph unicode="K" horiz-adv-x="1495" d="M-20 18q-2 7 -2 17q0 17 6 45q10 50 22.5 65t40.5 15h92l223 1155h-92q-28 -1 -34 15q-2 6 -2 17q0 18 6 48q10 50 22.5 65t40.5 15h385q28 0 34.5 -18t-3.5 -62q-10 -50 -23 -65t-41 -15h-90l-98 -498h258l442 498h-129q-28 -1 -34 15q-2 6 -2 17q0 18 6 48 q10 50 22.5 65t40.5 15h463q28 0 34 -18q3 -7 3 -18q0 -17 -6 -44q-10 -50 -23 -65t-41 -15h-104l-490 -547l291 -608h96q28 0 34 -15q2 -6 2 -18q0 -17 -5 -47q-10 -50 -22.5 -65t-40.5 -15h-121q-61 0 -91.5 21t-56.5 75l-258 561h-299l-96 -497h96q28 0 34 -15 q2 -6 2 -18q0 -17 -5 -47q-10 -50 -23 -65t-41 -15h-389q-28 0 -34 18z" />
<glyph unicode="L" horiz-adv-x="1327" d="M-20 18q-2 7 -2 17q0 17 6 45q10 50 22.5 65t40.5 15h92l221 1155h-88q-28 -1 -34 15q-2 6 -2 17q0 18 6 48q10 50 22.5 65t40.5 15h426q28 0 34.5 -18t-3.5 -62q-10 -50 -23 -65t-41 -15h-135l-221 -1155h639l39 200q6 33 28.5 44.5t75.5 11.5q52 0 70 -12q14 -9 14 -29 q0 -7 -2 -15l-51 -264q-12 -59 -36.5 -77.5t-90.5 -18.5h-1014q-28 0 -34 18z" />
<glyph unicode="M" horiz-adv-x="2027" d="M-40 18q-3 7 -3 18q0 17 6 44q10 50 23 65t41 15h90l319 1155h-94q-28 -1 -34 15q-2 6 -2 18q0 17 5 47q10 50 23 65t41 15h289q66 0 91.5 -17t30.5 -57l119 -852q19 -142 19 -277h30q42 146 109 277l436 852q21 41 54 57.5t100 16.5h313q28 1 34 -15q2 -6 2 -18 q0 -17 -5 -47q-10 -50 -23 -65t-41 -15h-90l-135 -1155h100q28 0 34 -15q2 -6 2 -18q0 -17 -5 -47q-10 -50 -22.5 -65t-40.5 -15h-447q-28 0 -34.5 18t3.5 62q10 50 23 65t41 15h139l150 1159h-29q-36 -124 -111 -270l-430 -840q-23 -45 -50.5 -64.5t-76.5 -19.5h-80 q-52 0 -75 18.5t-29 65.5l-121 838q-10 66 -10 152q0 56 4 120h-29l-297 -1159h148q28 0 34 -15q2 -6 2 -18q0 -17 -5 -47q-10 -50 -23 -65t-41 -15h-438q-28 0 -34 18z" />
<glyph unicode="N" horiz-adv-x="1662" d="M-20 18q-2 7 -2 17q0 17 6 45q10 50 22.5 65t40.5 15h92l226 1155h-95q-28 -1 -34 15q-2 6 -2 17q0 18 6 48q10 50 22.5 65t40.5 15h305q51 0 78.5 -15.5t40.5 -54.5l311 -881q63 -178 101 -370h28l226 1161h-142q-27 -1 -33 15q-2 6 -3 17q0 18 6 48q10 50 22.5 65 t40.5 15h414q28 0 34 -18q3 -7 3 -18q0 -17 -6 -44q-10 -50 -23 -65t-41 -15h-90l-248 -1264q-8 -33 -29 -47t-65 -14h-129q-102 0 -125 71l-322 924q-56 168 -82 334h-28l-228 -1159h142q28 0 34 -15q2 -6 2 -18q0 -17 -5 -47q-10 -50 -23 -65t-41 -15h-414q-28 0 -34 18z " />
<glyph unicode="O" horiz-adv-x="1591" d="M98 561q0 147 32 283.5t98.5 256t162 208t230 139.5t294.5 51q578 0 578 -584q0 -120 -21 -233.5t-63.5 -219.5t-110.5 -194t-156.5 -154t-208 -102.5t-259.5 -36.5q-293 0 -434.5 142.5t-141.5 443.5zM307 567q0 -222 93 -326t296 -104q113 0 209.5 41.5t165 114 t117.5 169.5t72.5 209t23.5 232q0 219 -97.5 326.5t-295.5 107.5q-111 0 -206 -41t-163.5 -113t-117.5 -169.5t-73 -210.5t-24 -236z" />
<glyph unicode="P" horiz-adv-x="1409" d="M-20 18q-2 7 -2 17q0 17 6 45q10 50 22.5 65t40.5 15h92l223 1155h-92q-28 -1 -34 15q-2 6 -2 17q0 18 6 48q10 50 22.5 65t40.5 15h488q291 0 432 -97.5t141 -292.5q0 -257 -160.5 -400.5t-445.5 -143.5q-102 0 -169 14.5t-132 50.5h-31l-86 -446h168q28 0 34 -15 q2 -6 2 -18q0 -17 -5 -47q-10 -50 -23 -65t-41 -15h-461q-28 0 -34 18zM451 737q113 -37 272 -37q432 0 432 365q0 127 -96.5 188.5t-308.5 61.5h-187z" />
<glyph unicode="Q" horiz-adv-x="1589" d="M98 561q0 147 32 283.5t98.5 256t162 208t230 139.5t294.5 51q578 0 578 -584q0 -132 -26 -257t-77 -237.5t-135 -204.5t-192 -150l59 -103q42 -72 88 -100.5t123 -28.5q52 0 127 23q29 11 45 0t29 -58q8 -27 8 -44q0 -7 -2 -13q-5 -16 -31 -27q-40 -17 -102 -29 t-113 -12q-122 0 -201.5 44t-136.5 141l-82 139q-100 -23 -200 -23q-293 0 -434.5 142.5t-141.5 443.5zM307 567q0 -222 93 -326t296 -104q113 0 209.5 41.5t165 114t117.5 169.5t72.5 209t23.5 232q0 219 -97.5 326.5t-295.5 107.5q-111 0 -206 -41t-163.5 -113 t-117.5 -169.5t-73 -210.5t-24 -236z" />
<glyph unicode="R" horiz-adv-x="1431" d="M-20 18q-2 7 -2 17q0 17 6 45q10 50 22.5 65t40.5 15h94l221 1155h-92q-28 -1 -34 15q-2 6 -2 17q0 18 6 48q10 50 22.5 65t40.5 15h494q565 0 565 -377q0 -190 -102 -317.5t-302 -172.5l164 -448h101q27 0 33 -15q2 -6 3 -16q0 -18 -6 -49q-10 -50 -22.5 -65t-40.5 -15 h-100q-77 0 -115 24t-60 87l-155 473h-336l-82 -424h154q28 0 34 -15q2 -6 2 -16q0 -18 -6 -49q-10 -50 -22.5 -65t-40.5 -15h-449q-28 0 -34 18zM453 737h270q221 0 325.5 87t104.5 257q0 115 -92 174.5t-301 59.5h-195z" />
<glyph unicode="S" horiz-adv-x="1406" d="M37 221l22 109q9 38 32.5 49.5t86.5 11.5q53 0 70 -10.5t10 -44.5l-35 -160q157 -39 363 -39q237 0 340.5 78.5t103.5 222.5q0 70 -26.5 111t-97.5 70t-206 51l-90 14q-206 32 -295.5 114.5t-89.5 237.5q0 217 170.5 340t491.5 123q94 0 196 -15t170 -38q76 -26 103 -68 q17 -25 17 -66q0 -25 -7 -55l-16 -73q-8 -39 -28 -50.5t-85 -11.5q-57 0 -72.5 10.5t-9.5 45.5l23 114q-148 49 -324 49q-206 0 -315 -74t-109 -202q0 -63 22 -99t85 -62t186 -44l84 -12q236 -34 336 -126.5t100 -256.5q0 -50 -6.5 -94.5t-26.5 -95.5t-52 -92.5t-87 -81 t-127 -66.5t-176.5 -43.5t-232.5 -16.5q-211 0 -375 37q-78 16 -111 64q-20 30 -20 78q0 30 8 67z" />
<glyph unicode="T" horiz-adv-x="1449" d="M129 1145l45 233q12 59 36.5 78t88.5 19h1135q64 0 82 -19q11 -12 10 -38q0 -17 -4 -40l-45 -233q-6 -32 -29.5 -43.5t-75.5 -11.5q-54 0 -72 11t-12 44l31 170h-383l-225 -1155h190q28 0 34 -15q2 -6 2 -18q0 -17 -5 -47q-10 -50 -23 -65t-41 -15h-575q-28 0 -34.5 18 t3.5 62q10 50 23 65t41 15h184l225 1155h-385l-31 -170q-7 -33 -29.5 -44t-76.5 -11q-52 0 -71 11q-14 8 -14 29q0 7 1 15z" />
<glyph unicode="U" horiz-adv-x="1558" d="M152 385q0 89 18 188l145 742h-82q-27 -1 -33 15q-2 6 -3 17q0 18 6 48q10 50 22.5 65t40.5 15h414q28 0 34.5 -18t-3.5 -62q-10 -50 -23 -65t-41 -15h-129l-143 -742q-19 -97 -19 -165q0 -135 77.5 -203t240.5 -68q199 0 317.5 104t163.5 330l148 744h-129 q-28 -1 -34 15q-2 6 -2 18q0 17 5 47q10 50 22.5 65t40.5 15h404q28 0 34 -18q2 -7 2 -17q0 -17 -6 -45q-10 -50 -22.5 -65t-40.5 -15h-82l-147 -740q-62 -311 -237.5 -455.5t-469.5 -144.5q-489 0 -489 410z" />
<glyph unicode="V" horiz-adv-x="1607" d="M154 1330q-2 6 -2 17q0 18 6 48q10 50 22.5 65t40.5 15h502q28 0 34.5 -18t-3.5 -62q-10 -50 -23 -65t-41 -15h-192l157 -815q31 -160 41 -359h29q85 194 182 361l469 813h-215q-28 -1 -34 15q-2 6 -2 18q0 17 5 47q10 50 23 65t41 15h518q28 0 34 -18q3 -7 3 -18 q0 -17 -6 -44q-10 -50 -23 -65t-41 -15h-94l-713 -1239q-30 -53 -58 -70.5t-75 -17.5h-104q-49 0 -71 18t-32 72l-247 1237h-97q-28 -1 -34 15z" />
<glyph unicode="W" horiz-adv-x="2390" d="M175 1330q-2 6 -2 18q0 17 5 47q10 50 23 65t41 15h518q28 0 34.5 -18t-3.5 -62q-10 -50 -23 -65t-41 -15h-207l64 -803q12 -150 12 -373h29q62 185 151 375l357 764q25 52 54 71t85 19h98q58 0 82.5 -19.5t28.5 -78.5l51 -756q11 -162 11 -308q0 -34 -1 -67h27 q61 180 153 375l371 801h-199q-28 -1 -34 15q-2 6 -2 17q0 18 6 48q10 50 22.5 65t40.5 15h506q29 0 35 -18q3 -7 2 -18q0 -17 -6 -44q-10 -50 -23 -65t-41 -15h-110l-572 -1229q-28 -60 -57.5 -79t-83.5 -19h-102q-56 0 -81 20.5t-28 75.5l-55 819q-6 101 -6 196 q0 57 2 111h-29q-56 -167 -123 -309l-377 -817q-24 -54 -55 -75t-80 -21h-125q-53 0 -76.5 20t-27.5 76l-99 1231h-106q-28 -1 -34 15z" />
<glyph unicode="X" horiz-adv-x="1677" d="M-48 18q-3 7 -3 18q0 17 6 44q10 50 22.5 65t40.5 15h101l573 600l-305 555h-90q-28 -1 -34 15q-2 6 -2 18q0 17 5 47q10 50 23 65t41 15h448q28 0 34.5 -18t-3.5 -62q-10 -50 -23 -65t-41 -15h-133l254 -475h29l438 475h-129q-28 -1 -34 15q-2 6 -2 17q0 18 6 48 q10 50 22.5 65t40.5 15h451q28 0 34 -18q2 -7 2 -17q0 -17 -6 -45q-10 -50 -22.5 -65t-40.5 -15h-96l-527 -559l344 -596h113q28 0 34 -15q2 -6 2 -18q0 -17 -5 -47q-10 -50 -23 -65t-41 -15h-498q-28 0 -34 18t4 62q10 50 22.5 65t40.5 15h160l-289 512h-31l-483 -512h154 q28 0 34 -15q2 -6 2 -16q0 -18 -6 -49q-10 -50 -22.5 -65t-40.5 -15h-483q-28 0 -34 18z" />
<glyph unicode="Y" horiz-adv-x="1492" d="M159 1330q-2 7 -2 18q0 18 5 47q10 50 22.5 65t40.5 15h467q28 0 34.5 -18t-3.5 -62q-10 -50 -23 -65t-41 -15h-163l168 -406q47 -116 67 -235h29q60 117 155 233l334 408h-182q-28 0 -34 15q-2 7 -2 18q0 18 5 47q10 50 23 65t41 15h481q28 0 35 -18q2 -7 2 -18 q0 -17 -6 -44q-10 -50 -23 -65t-41 -15h-84l-647 -793l-69 -362h182q28 0 34 -15q2 -6 2 -18q0 -17 -5 -47q-10 -50 -23 -65t-41 -15h-565q-28 0 -34.5 18t3.5 62q10 50 23 65t41 15h180l69 366l-335 789h-86q-28 0 -34 15z" />
<glyph unicode="Z" horiz-adv-x="1292" d="M-37 68l12 77q8 40 29.5 73.5t77.5 88.5l829 830q83 83 209 159l4 25h-725l-30 -150q-6 -30 -28 -41.5t-77 -11.5q-56 0 -72.5 12t-11.5 41l43 215q9 52 35.5 70.5t89.5 18.5h891q65 1 83 -13q13 -10 13 -34q0 -9 -2 -21l-12 -80q-8 -42 -29 -74t-80 -90l-817 -817 q-96 -100 -205 -168l-4 -24h764l35 182q5 28 26 39.5t79 11.5q57 0 74 -11.5t12 -39.5l-50 -248q-10 -53 -36 -70.5t-91 -17.5h-942q-63 0 -83 14q-14 9 -14 32q0 9 3 22z" />
<glyph unicode="[" horiz-adv-x="890" d="M94 -279l369 1899q11 55 39 73.5t104 18.5h320q26 0 31.5 -14t-3.5 -58q-7 -41 -18.5 -55t-36.5 -14h-274l-349 -1800h275q26 0 31 -14.5t-4 -57.5q-7 -43 -18.5 -56.5t-37.5 -13.5h-321q-74 0 -95.5 18t-11.5 74z" />
<glyph unicode="\" horiz-adv-x="1204" d="M242 1516q-8 24 8.5 34.5t64.5 10.5q52 0 71 -8.5t26 -28.5l551 -1831q8 -25 -7.5 -34t-66.5 -9q-55 0 -75.5 8t-25.5 27z" />
<glyph unicode="]" horiz-adv-x="892" d="M-66 -356.5q-5 14.5 3 57.5q9 44 19 57t36 13h272l348 1800h-270q-25 0 -30.5 14t3.5 57t20 56.5t36 13.5h319q77 0 98 -17.5t11 -74.5l-369 -1899q-10 -56 -39 -74t-106 -18h-322q-24 0 -29 14.5z" />
<glyph unicode="^" d="M159.5 830q-5.5 21 12.5 40l498 549q35 40 62 54t65 14h65q33 0 54.5 -15.5t39.5 -50.5l289 -565q13 -20 3 -39.5t-52 -44.5q-38 -23 -64.5 -22.5t-37.5 22.5l-289 559l-506 -575q-36 -41 -100 20q-34 33 -39.5 54z" />
<glyph unicode="_" horiz-adv-x="1251" d="M23.5 -444q-5.5 15 3.5 59q9 46 19.5 59t37.5 13h985q26 0 33 -13t0 -59q-9 -45 -21 -59.5t-41 -14.5h-983q-28 0 -33.5 15z" />
<glyph unicode="`" horiz-adv-x="1024" d="M379 1411q-27 34 32 45q22 4 56 4q109 0 143 -49l183 -258q22 -31 -34 -40l-42 -3q-80 0 -117 43z" />
<glyph unicode="a" horiz-adv-x="1275" d="M82 377q0 101 25.5 196.5t75.5 176.5t118 142t159.5 95.5t194.5 34.5t179.5 -32.5t111.5 -92.5h27l16 66q6 27 24.5 36t67.5 9q47 0 61 -10q10 -7 10 -24q0 -6 -1 -13l-143 -756q-6 -29 3.5 -39t41.5 -10h43q27 0 34 -15.5t-2 -62.5q-10 -49 -22 -63.5t-43 -14.5h-68 q-87 0 -124.5 26t-43.5 85h-26q-111 -136 -336 -136q-190 0 -286.5 102t-96.5 300zM285 391q0 -258 237 -258q134 0 230.5 90.5t130.5 274.5l14 77q8 40 8 75q0 84 -45 138q-63 76 -194 76q-115 0 -203 -65t-133 -172t-45 -236z" />
<glyph unicode="b" horiz-adv-x="1267" d="M104 37l242 1243q4 23 -2.5 31t-30.5 8h-59q-27 0 -35 14t0 51q12 52 35.5 71.5t73.5 19.5h143q57 0 75 -21q12 -14 13 -42q0 -15 -4 -34l-43 -227q-26 -134 -96 -291h24q125 162 367 162q183 0 281 -101t98 -274q0 -296 -161 -484t-413 -188q-117 0 -195 37t-104 94h-26 l-19 -69q-8 -29 -26 -39t-68 -10q-46 0 -60 10q-11 8 -11 26q0 6 1 13zM358 418q-6 -36 -6 -68q0 -87 47 -142q65 -75 197 -75q169 0 278 133t109 357q0 117 -60.5 179t-174.5 62q-142 0 -244.5 -95.5t-132.5 -270.5z" />
<glyph unicode="c" horiz-adv-x="1114" d="M82 395q0 130 37.5 241t112.5 198.5t198.5 137.5t284.5 50q111 0 229 -27q72 -19 96 -55q16 -24 16 -64q0 -21 -5 -47l-15 -75q-6 -37 -26 -50.5t-74 -13.5t-70.5 11t-11.5 40l18 105q-90 22 -180 22q-189 0 -300 -124t-111 -328q0 -147 71 -216t234 -69q123 0 268 47 q27 8 44 -2t30 -53q14 -43 9.5 -59.5t-34.5 -28.5q-65 -26 -166.5 -43t-197.5 -17q-238 0 -347.5 101t-109.5 319z" />
<glyph unicode="d" horiz-adv-x="1288" d="M82 377q0 178 73.5 325t205.5 233.5t296 86.5q102 0 179 -32.5t112 -92.5h27q0 83 24 201l35 182q4 23 -2.5 31t-30.5 8h-59q-27 0 -35 14t0 51q12 52 35.5 71.5t73.5 19.5h143q57 0 75 -21q12 -14 13 -42q0 -15 -4 -34l-225 -1173q-6 -29 3.5 -39t41.5 -10h43 q27 0 34.5 -15.5t-1.5 -62.5q-10 -49 -22.5 -63.5t-43.5 -14.5h-67q-87 0 -124.5 26t-43.5 85h-25q-119 -136 -344 -136q-190 0 -288.5 100t-98.5 302zM285 391q0 -258 239 -258q144 0 240.5 93.5t126.5 269.5l14 77q7 37 7 70q0 87 -47 143q-64 78 -195 78 q-119 0 -208.5 -67.5t-133 -173.5t-43.5 -232z" />
<glyph unicode="e" horiz-adv-x="1130" d="M82 365q0 312 156.5 484.5t431.5 172.5q188 0 289.5 -79t101.5 -214q0 -153 -119.5 -238t-368.5 -85h-292v-41q0 -119 73.5 -176.5t235.5 -57.5q125 0 270 47q27 8 44 -2t30 -53q14 -43 9.5 -59.5t-34.5 -28.5q-65 -26 -166.5 -43t-197.5 -17q-463 0 -463 390zM297 549 h301q140 0 206 46t66 126q0 67 -57.5 107t-167.5 40q-143 0 -231.5 -84t-116.5 -235z" />
<glyph unicode="f" horiz-adv-x="806" d="M59 -420l246 1266h-149q-31 0 -36.5 13.5t3.5 60.5q10 51 21 64t42 13h148l20 95q49 225 144.5 316t277.5 91q63 0 134.5 -16t121.5 -41q27 -12 27 -33q0 -19 -19 -59q-20 -41 -33 -48.5t-42 3.5q-106 38 -199 38q-94 0 -142 -52.5t-77 -192.5l-21 -101h248q31 0 37 -13 q2 -5 2 -15q0 -17 -6 -49q-9 -47 -21 -60.5t-43 -13.5h-245l-248 -1266q-6 -31 -25.5 -41t-79.5 -10q-59 0 -75 11q-13 7 -13 25q0 7 2 15z" />
<glyph unicode="g" horiz-adv-x="1271" d="M13 -370v5q0 21 20 60q22 44 40.5 53.5t43.5 -4.5q151 -72 319 -72q154 0 240.5 67.5t118.5 219.5l6 29q17 89 45 159h-27q-63 -72 -143.5 -105.5t-190.5 -33.5q-192 0 -291.5 98.5t-99.5 290.5q0 168 74.5 311.5t207 228.5t292.5 85q118 0 191.5 -30t115.5 -93h26l17 64 q6 25 24 35t68 10q47 0 62 -9q10 -6 10 -23q0 -7 -2 -15l-185 -971q-47 -248 -183.5 -360.5t-393.5 -112.5q-217 0 -371 77q-31 15 -34 36zM297 414q0 -248 240 -248q144 0 244 94t130 264l11 60q6 35 6 66q0 86 -47 140q-64 74 -195 74q-169 0 -279 -126.5t-110 -323.5z " />
<glyph unicode="h" horiz-adv-x="1325" d="M129 39l242 1241q4 23 -2.5 31t-30.5 8h-59q-27 0 -35 14t0 51q12 52 35 71.5t73 19.5h144q58 0 76 -21q12 -14 12 -42q0 -15 -4 -34l-43 -227q-32 -175 -86 -295h28q63 88 155.5 127t223.5 39q167 0 242.5 -77.5t75.5 -223.5q0 -67 -21 -170l-68 -346q-6 -30 4 -39.5 t48 -9.5h37q27 0 34 -16q3 -7 3 -19q0 -16 -5 -43q-10 -49 -22 -63.5t-43 -14.5h-86q-92 0 -132 31t-40 96q0 29 6 59l63 326q23 127 23 174q0 182 -180 182q-146 0 -252.5 -110t-143.5 -301l-79 -418q-6 -32 -29 -41.5t-78 -9.5t-73 10q-14 7 -14 27q0 6 1 14z" />
<glyph unicode="i" horiz-adv-x="610" d="M133 127q0 29 6 59l119 619q4 22 -3 29.5t-30 7.5h-53q-27 0 -35 14q-4 7 -4 19.5t4 31.5q12 52 35.5 71t73.5 19h139q58 0 76 -20q12 -13 12 -41q0 -15 -4 -35l-135 -694q-6 -31 3.5 -41t47.5 -10h39q27 0 34.5 -15.5t-1.5 -62.5q-10 -49 -22.5 -63.5t-43.5 -14.5h-86 q-92 0 -132 31t-40 96zM289 1307q0 76 33.5 116.5t93.5 40.5h28q54 0 79.5 -22.5t25.5 -69.5q0 -74 -26 -108.5t-81 -34.5h-73q-43 0 -61.5 18.5t-18.5 59.5z" />
<glyph unicode="j" horiz-adv-x="618" d="M-268 -424v6q0 17 16 56q21 44 35.5 53.5t44.5 1.5q66 -17 104 -17q72 0 110.5 41t59.5 148l181 940q4 22 -3 29.5t-30 7.5h-53q-27 0 -35 14t0 51q12 52 35 71t73 19h140q58 0 76 -20q12 -13 12 -41q0 -15 -4 -35l-197 -1022q-37 -196 -127.5 -279t-243.5 -83 q-88 0 -164 32q-27 11 -30 27zM313 1307q0 76 33.5 116.5t93.5 40.5h29q54 0 79 -22.5t25 -69.5q0 -74 -26 -108.5t-80 -34.5h-74q-43 0 -61.5 18.5t-18.5 59.5z" />
<glyph unicode="k" horiz-adv-x="1183" d="M129 41l238 1241q4 22 -3 29.5t-30 7.5h-60q-27 0 -34.5 14t0.5 51q12 52 35 71.5t73 19.5h146q58 -1 76 -21q12 -13 12 -41q0 -15 -4 -35l-146 -760h213l250 340q23 29 51.5 40.5t89.5 11.5q41 0 60 -6q21 -6 21 -19q0 -11 -13 -27l-324 -438l150 -299q22 -43 44 -57 t68 -14q26 0 33 -14q3 -6 3 -19q0 -17 -5 -45q-9 -46 -20.5 -61t-40.5 -15h-35q-90 0 -137.5 31t-89.5 120l-156 328h-188l-84 -436q-6 -31 -26 -41t-79 -10q-60 0 -77 12q-13 8 -13 27q0 6 2 14z" />
<glyph unicode="l" horiz-adv-x="622" d="M131 127q0 29 6 59l209 1096q4 22 -3 29.5t-30 7.5h-59q-27 0 -35 14t0 51q12 52 35.5 71.5t73.5 19.5h145q58 -1 76 -21q12 -13 12 -41q0 -15 -4 -35l-225 -1171q-6 -31 3.5 -41t47.5 -10h39q27 0 34.5 -15.5t-1.5 -62.5q-10 -49 -22.5 -63.5t-43.5 -14.5h-86 q-92 0 -132 31t-40 96z" />
<glyph unicode="m" horiz-adv-x="2019" d="M129 39l150 766q4 22 -3 29.5t-30 7.5h-60q-27 0 -34.5 14t0.5 51q12 52 35 71t73 19h113q46 0 64 -19q15 -16 15 -51q0 -8 -1 -16l-7 -63h27q120 174 369 174t303 -184h28q127 184 381 184q156 0 237 -70t81 -211q0 -77 -17 -170l-71 -364q-6 -31 3.5 -41t47.5 -10h37 q26 0 34 -16q3 -7 4 -20q0 -16 -5 -42q-10 -49 -22.5 -63.5t-43.5 -14.5h-86q-92 0 -132 31t-40 96q0 29 6 59l68 346q18 103 18 173q0 83 -43 123t-141 40q-130 0 -233.5 -112.5t-137.5 -288.5l-82 -428q-6 -30 -26 -40.5t-78 -10.5t-74.5 11t-11.5 40l94 493 q23 121 23 175q0 84 -46 122.5t-145 38.5q-128 0 -229.5 -111t-137.5 -296l-81 -422q-5 -29 -26.5 -40t-80.5 -11q-58 0 -75 11q-13 8 -13 26q0 6 2 14z" />
<glyph unicode="n" horiz-adv-x="1316" d="M129 39l150 766q4 22 -3 29.5t-30 7.5h-60q-27 0 -34.5 14t0.5 51q12 52 35 71t73 19h113q46 0 64 -19q15 -16 15 -51q0 -8 -1 -16l-7 -63h27q119 174 381 174q159 0 237 -73.5t78 -227.5q0 -72 -20 -170l-68 -344q-6 -31 3.5 -41t47.5 -10h37q27 0 35 -16q3 -7 3 -20 q0 -16 -5 -42q-10 -49 -22 -63.5t-43 -14.5h-86q-92 0 -132 31t-40 96q0 29 6 59l63 326q23 127 23 174q0 182 -178 182q-141 0 -247 -107t-143 -304l-79 -418q-5 -29 -26.5 -40t-80.5 -11q-58 0 -75 11q-13 8 -13 26q0 6 2 14z" />
<glyph unicode="o" horiz-adv-x="1175" d="M82 367q0 147 37.5 266.5t110 206.5t185 134.5t255.5 47.5q203 0 313.5 -101.5t110.5 -293.5q0 -303 -154 -477.5t-434 -174.5q-209 0 -316.5 102.5t-107.5 289.5zM281 381q0 -256 249 -256q164 0 264.5 128.5t100.5 356.5q0 258 -250 258q-176 0 -270 -130t-94 -357z " />
<glyph unicode="p" horiz-adv-x="1306" d="M55 -420l238 1223q4 23 -2.5 31t-30.5 8h-59q-27 0 -35 14t0 51q12 52 35 71t73 19h111q48 0 65 -19q14 -14 14 -49q0 -9 -1 -18l-4 -49h26q126 160 365 160q173 0 274 -98t101 -277q0 -192 -71.5 -345t-202 -240t-296.5 -87q-232 0 -301 131h-26q-3 -133 -29 -262 l-51 -264q-6 -30 -26.5 -40.5t-80.5 -10.5q-58 0 -75 11q-13 7 -13 26q0 6 2 14zM399 418q-7 -37 -7 -69q0 -87 48 -141q64 -75 197 -75q176 0 280.5 138t104.5 352q0 117 -60.5 179t-175.5 62q-139 0 -242 -98t-132 -268z" />
<glyph unicode="q" horiz-adv-x="1251" d="M82 379q0 132 44 250.5t120 205t185 137t233 50.5q101 0 180.5 -34t113.5 -91h27l19 66q8 28 24 36.5t68 8.5q47 0 61 -10q10 -6 10 -22q0 -7 -2 -15l-235 -1215q-6 -30 3.5 -39.5t47.5 -9.5h37q27 0 34.5 -15.5t-1.5 -62.5q-10 -49 -22.5 -63.5t-43.5 -14.5h-86 q-92 0 -132 31t-40 96q0 30 6 60l27 135q26 132 65 241h-24q-113 -129 -334 -129q-187 0 -286 102t-99 302zM287 391q0 -258 239 -258q148 0 243 96t128 269l14 77q7 37 7 70q0 88 -47 143q-64 76 -197 76q-172 0 -279.5 -137.5t-107.5 -335.5z" />
<glyph unicode="r" horiz-adv-x="925" d="M129 39l145 766q4 22 -2.5 29.5t-29.5 7.5h-54q-27 0 -34.5 14t0.5 51q12 52 35 71t73 19h107q51 0 68 -18q13 -14 13 -47q0 -10 -1 -21l-9 -77h29q98 188 319 188q71 0 132 -21q18 -7 24 -16q5 -6 4 -19v-11q-2 -21 -18 -58q-21 -50 -37.5 -62t-44.5 -4q-69 19 -109 19 q-119 0 -212 -114t-136 -335l-69 -362q-6 -31 -26.5 -41t-80.5 -10q-59 0 -75 11q-12 8 -12 27q0 6 1 13z" />
<glyph unicode="s" horiz-adv-x="1105" d="M55 154l13 67q6 33 28 46.5t78 13.5q52 0 68.5 -10.5t11.5 -37.5l-14 -86q120 -30 260 -30q155 0 216.5 41.5t61.5 130.5q0 40 -16.5 63t-71.5 43t-164 37l-63 10q-160 25 -225.5 86.5t-65.5 165.5q0 154 121 241t354 87q141 0 275 -35q66 -17 90 -49q18 -23 18 -62 q0 -14 -2 -30l-10 -60q-6 -34 -27 -45.5t-78 -11.5q-53 0 -66.5 9.5t-8.5 37.5l12 76q-111 31 -232 31q-251 0 -251 -156q0 -39 15.5 -58.5t64.5 -36t159 -36.5l58 -10q173 -31 241 -94t68 -173q0 -171 -120 -257.5t-390 -86.5q-172 0 -311 33q-68 18 -88 50q-13 21 -13 55 q0 18 4 41z" />
<glyph unicode="t" horiz-adv-x="841" d="M88 860q-2 5 -2 15q0 16 6 45q10 50 22.5 63.5t43.5 13.5h149l49 254q8 37 28 48.5t79 11.5q57 0 74.5 -13.5t11.5 -46.5l-49 -254h284q31 0 37 -13q2 -5 2 -15q0 -17 -6 -49q-9 -47 -20.5 -60.5t-42.5 -13.5h-285l-104 -529q-11 -64 -11 -84q0 -55 26 -73.5t93 -18.5 q51 0 137 19q30 6 42.5 -5.5t21.5 -54.5q10 -44 4.5 -60.5t-33.5 -27.5q-98 -37 -235 -37q-135 0 -194.5 50t-59.5 151q0 55 14 123l106 547h-151q-31 0 -37 14z" />
<glyph unicode="u" horiz-adv-x="1323" d="M129 856q-4 7 -4 19.5t4 31.5q12 52 35.5 71t73.5 19h139q58 0 76 -20q12 -13 12 -41q0 -15 -4 -35l-84 -438q-21 -115 -21 -160q0 -88 42 -129t134 -41q153 0 253.5 111.5t140.5 328.5l71 385q5 30 26.5 41t78.5 11q58 0 76 -11q14 -8 14 -27q0 -6 -2 -14l-146 -753 q-6 -29 3.5 -39t42.5 -10h43q27 0 34 -15.5t-2 -62.5q-11 -49 -22.5 -63.5t-42.5 -14.5h-74q-90 0 -128 33q-31 27 -32 78q0 12 2 26h-26q-120 -162 -377 -162q-305 0 -305 297q0 70 16 152l74 381q4 22 -3 29.5t-30 7.5h-53q-27 0 -35 14z" />
<glyph unicode="v" horiz-adv-x="1077" d="M46 858q-3 7 -4 20q0 16 5 42q10 49 22.5 63t43.5 14h82q84 0 123.5 -31t56.5 -116l94 -492q20 -107 20 -204v-25h27q40 134 90 238l297 594q14 30 38.5 39.5t86.5 9.5q57 0 71 -12q7 -6 7 -14q0 -10 -8 -23l-455 -900q-22 -42 -47 -57.5t-70 -15.5h-94q-51 0 -69 13.5 t-27 57.5l-154 738q-6 28 -18.5 36.5t-46.5 8.5h-37q-26 0 -34 16z" />
<glyph unicode="w" horiz-adv-x="1648" d="M46 858q-3 7 -4 20q0 16 5 42q10 49 22.5 63t43.5 14h82q90 0 129 -34.5t45 -114.5l37 -500q5 -79 5 -148q0 -29 -1 -57h28q23 88 72 207l252 590q18 42 40.5 56t78.5 14h96q51 0 72 -14t22 -54l33 -594q4 -69 4 -128q0 -42 -2 -77h27q39 119 79 209l267 613q11 29 35 37 t79 8q57 0 73 -10q9 -6 10 -17q0 -8 -5 -18l-411 -910q-17 -38 -44 -52.5t-77 -14.5h-99q-51 0 -73 14.5t-23 54.5l-31 621q-2 27 -2 56q0 58 7 126h-29q-24 -91 -62 -184l-262 -619q-17 -40 -43.5 -54.5t-77.5 -14.5h-104q-50 0 -70.5 14.5t-23.5 52.5l-64 742 q-3 27 -16.5 36t-48.5 9h-37q-26 0 -34 16z" />
<glyph unicode="x" horiz-adv-x="1214" d="M34 16q-3 7 -4 20q0 16 5 42q11 50 22.5 64t42.5 14h29q58 0 82 34l260 340l-131 277q-11 22 -23.5 28.5t-44.5 6.5h-28q-27 0 -34.5 15.5t1.5 62.5q10 49 22 63t43 14h37q82 0 127 -27.5t76 -97.5l127 -288h27l272 377q22 30 47 39.5t84 9.5q37 0 57 -6q22 -7 22 -22 q0 -10 -9 -24l-344 -466l153 -302q10 -22 23 -28t45 -6h27q27 0 34 -15.5t-2 -62.5q-10 -49 -22 -63.5t-43 -14.5h-37q-75 0 -119 27.5t-76 93.5l-153 319h-25l-239 -317q-48 -65 -102.5 -94t-133.5 -29h-61q-26 0 -34 16z" />
<glyph unicode="y" horiz-adv-x="1062" d="M-123 -417q0 18 17 57q18 42 33 51.5t44 -0.5q72 -21 133 -21q60 0 101 17.5t84.5 70t93.5 152.5l39 78q-35 2 -51.5 13.5t-22.5 41.5l-162 752q-6 29 -19.5 38t-47.5 9h-37q-27 0 -34.5 15.5t1.5 62.5q10 49 22.5 63t43.5 14h82q84 0 124 -32t58 -119l100 -494 q23 -138 23 -227h26q39 137 84 229l281 604q13 29 37 39.5t86 10.5q55 0 70 -11q8 -6 8 -16q0 -9 -7 -23l-485 -1011q-64 -134 -121.5 -219t-120 -131.5t-124 -63t-146.5 -16.5q-104 0 -182 32q-31 13 -31 34z" />
<glyph unicode="z" horiz-adv-x="1169" d="M57 76l13 74q5 36 22.5 62.5t69.5 66.5l534 415q93 72 215 140v24h-526l-18 -90q-6 -31 -26 -41t-75 -10q-58 0 -72 9.5t-8 41.5l29 150q9 49 33 64t90 15h684q62 1 80 -13q12 -10 12 -37q0 -11 -2 -25l-10 -70q-6 -38 -27 -66t-69 -67l-543 -428q-71 -55 -197 -125v-27 h545l20 115q6 32 28 41.5t77 9.5q54 0 71 -9.5t11 -41.5l-33 -174q-9 -49 -34 -64.5t-89 -15.5h-715q-63 0 -81 15q-12 10 -12 35q0 12 3 26z" />
<glyph unicode="{" horiz-adv-x="905" d="M134 614q-6 14 5 64q10 49 21 62.5t37 13.5h8q60 0 109 61.5t75 194.5l47 241q51 259 155.5 360t326.5 101h38q27 0 33.5 -13.5t-0.5 -56.5t-19 -57t-38 -14h-31q-68 0 -112.5 -14t-80 -52t-58.5 -100.5t-42 -163.5l-39 -199q-31 -149 -80 -230t-135 -122l-6 -24 q71 -44 89.5 -121t-11.5 -240l-39 -199q-17 -87 -21 -143t3 -95.5t32 -59.5t61.5 -28.5t96.5 -8.5h33q24 0 30 -13t-1 -59q-7 -42 -19 -56t-39 -14h-51q-210 0 -278 108.5t-21 362.5l41 215q55 285 -80 285h-8q-26 0 -32 14z" />
<glyph unicode="|" horiz-adv-x="897" d="M166 -336l391 2013q5 25 23.5 34t72.5 9q51 0 67 -9.5t11 -33.5l-391 -2013q-5 -25 -23.5 -34t-72.5 -9q-51 0 -66.5 8.5t-11.5 34.5z" />
<glyph unicode="}" horiz-adv-x="913" d="M-86 -299q9 42 20 56t35 14h31q72 0 117.5 13.5t82 52t60.5 104t45 174.5l37 190q30 151 78 233t139 128l4 24q-45 26 -68.5 64.5t-29 108.5t17.5 173l41 209q17 86 20.5 142t-3.5 94t-32 56.5t-60 26t-93 7.5h-28q-25 0 -30.5 12.5t3.5 58.5q9 45 19 57.5t38 12.5h37 q216 0 284.5 -108.5t16.5 -374.5l-41 -213q-50 -262 82 -262h8q26 0 32.5 -13t-1.5 -63q-9 -47 -21 -62.5t-40 -15.5h-8q-131 0 -187 -285l-43 -219q-51 -260 -157.5 -363.5t-327.5 -103.5h-41q-27 0 -35.5 14.5t-1.5 57.5z" />
<glyph unicode="~" d="M133.5 679.5q-4.5 19.5 13.5 45.5q134 201 363 201q63 0 114 -18t84.5 -44t63.5 -52t65.5 -44t75.5 -18q123 0 207 118q18 24 39 24.5t64 -26.5q31 -23 36.5 -41.5t-10.5 -42.5q-65 -105 -155.5 -160t-198.5 -55q-60 0 -110 17.5t-84.5 43t-66 51t-69.5 43t-80 17.5 q-71 0 -116 -24.5t-103 -96.5q-19 -22 -40 -19t-58 34q-30 27 -34.5 46.5z" />
<glyph unicode="&#xa1;" horiz-adv-x="788" d="M57 -422l209 948q5 26 24 36.5t75 10.5q52 0 67 -10.5t12 -36.5l-157 -948q-5 -30 -33.5 -42.5t-93.5 -12.5q-71 0 -90.5 12.5t-12.5 42.5zM270 852q0 82 39 126t105 44h30q56 0 83.5 -23.5t27.5 -76.5q0 -81 -29 -117.5t-90 -36.5h-78q-46 0 -67 20t-21 64z" />
<glyph unicode="&#xa2;" d="M193 395q0 97 20.5 184.5t65 165t109.5 135t159.5 95t210.5 45.5l24 121q6 31 28 42t71 11t66 -10.5t11 -40.5l-26 -127q91 -7 149 -21q71 -17 95.5 -54.5t11.5 -111.5l-14 -75q-6 -36 -26.5 -50t-74.5 -14t-70.5 11t-11.5 40l19 105q-90 22 -207 22q-189 0 -300.5 -124 t-111.5 -328q0 -147 71 -216t234 -69q150 0 295 47q27 8 44 -2t30 -53q14 -43 9.5 -59.5t-34.5 -28.5q-95 -40 -301 -55l-22 -119q-6 -30 -28 -40.5t-71 -10.5q-50 0 -66.5 10.5t-10.5 42.5l22 117q-193 17 -281.5 117.5t-88.5 297.5z" />
<glyph unicode="&#xa3;" d="M17.5 16q-6.5 16 2.5 66q10 52 22 67t42 15q73 0 113.5 42.5t60.5 141.5l64 322h-105q-27 0 -33 13.5t2 57.5q9 44 20 58t40 14h102l25 119q62 299 205.5 433t406.5 134q203 0 326 -67q53 -29 68.5 -70.5t2.5 -114.5l-22 -112q-7 -38 -27.5 -49t-85.5 -11q-57 0 -75 11.5 t-13 41.5l33 164q-104 39 -229 39q-163 0 -249 -90t-130 -313l-23 -115h412q28 0 34.5 -14.5t-1.5 -57.5q-9 -45 -20 -58t-40 -13h-411l-58 -291q-15 -78 -44 -122t-81 -71l-4 -22h639l33 170q6 33 27 45t81 12q58 0 76 -13.5t13 -43.5l-46 -236q-10 -58 -38 -78t-93 -20 h-987q-29 0 -35.5 16z" />
<glyph unicode="&#xa5;" d="M147 477.5q-5 12.5 3 50.5q9 40 18.5 52t34.5 12h336l-80 211h-219q-26 0 -31.5 13t2.5 50q9 39 19 51.5t34 12.5h148l-144 385h-73q-28 0 -34 15.5t3 64.5q10 50 22.5 65t40.5 15h447q28 0 34.5 -18t-3.5 -62q-10 -50 -23 -65t-41 -15h-158l138 -389q37 -105 61 -252h29 q67 140 149 246l303 395h-157q-28 0 -34 15.5t3 64.5q10 50 22.5 65t40.5 15h430q28 0 34.5 -18t-3.5 -62q-10 -50 -22.5 -65t-40.5 -15h-58l-297 -385h144q26 0 31.5 -13t-3.5 -51q-9 -40 -18.5 -51.5t-34.5 -11.5h-217l-162 -211h342q25 0 30.5 -13t-1.5 -51 q-9 -39 -19 -51t-34 -12h-383l-60 -305h160q28 0 34 -15t-3 -65q-10 -50 -23 -65t-41 -15h-520q-28 0 -34.5 18t3.5 62q10 50 23 65t41 15h158l57 305h-373q-26 0 -31 12.5z" />
<glyph unicode="&#xa8;" horiz-adv-x="1024" d="M233 1268q6 135 123 135h17q54 0 76 -23.5t20 -74.5q-1 -68 -25.5 -96.5t-76.5 -28.5h-58q-45 0 -62.5 19.5t-13.5 68.5zM735 1268q8 135 123 135h16q49 0 74.5 -22t24.5 -76q-1 -67 -27 -96t-78 -29h-57q-44 0 -61.5 19.5t-14.5 68.5z" />
<glyph unicode="&#xa9;" horiz-adv-x="1728" d="M98 565q0 273 105 484t304.5 330.5t465.5 119.5q657 0 657 -588q0 -204 -59.5 -375.5t-170 -296t-277 -194.5t-371.5 -70q-342 0 -498 149.5t-156 440.5zM268 571q0 -225 116.5 -341.5t383.5 -116.5q205 0 363 103t242.5 281.5t84.5 403.5q0 461 -502 461 q-203 0 -360.5 -103.5t-242.5 -283t-85 -404.5zM467 657q0 223 129 353.5t362 130.5q43 0 100 -10t83 -21q112 -46 96 -129l-14 -76q-8 -37 -25.5 -48t-71.5 -11q-53 0 -69 11t-10 42l14 76q-59 16 -125 16q-136 0 -207.5 -81t-71.5 -234q0 -96 53 -139t171 -43q79 0 178 26 q27 8 40 -3t25 -52q12 -40 7 -56.5t-31 -27.5q-47 -20 -122 -32.5t-147 -12.5q-364 0 -364 321z" />
<glyph unicode="&#xab;" horiz-adv-x="1228" d="M129 516l8 37q13 68 74 129l246 254q25 25 54 34t83 9q115 0 55 -66l-379 -399l232 -397q22 -34 5.5 -51t-77.5 -17q-52 0 -75 9.5t-40 37.5l-161 273q-39 65 -25 147zM573 516l9 37q9 64 71 129l248 254q25 25 54 34t83 9q57 0 71 -17t-17 -49l-377 -399l229 -397 q22 -34 6 -51t-76 -17q-53 0 -75.5 9.5t-40.5 37.5l-162 273q-40 66 -23 147z" />
<glyph unicode="&#xad;" horiz-adv-x="665" d="M24 461q-7 17 3 61q11 48 22 63t41 15h393q28 0 35 -16t-2 -62q-8 -45 -20.5 -61.5t-42.5 -16.5h-392q-30 0 -37 17z" />
<glyph unicode="&#xae;" horiz-adv-x="1728" d="M98 565q0 273 105 484t304.5 330.5t465.5 119.5q657 0 657 -588q0 -204 -59.5 -375.5t-170 -296t-277 -194.5t-371.5 -70q-342 0 -498 149.5t-156 440.5zM268 571q0 -225 116.5 -341.5t383.5 -116.5q205 0 363 103t242.5 281.5t84.5 403.5q0 461 -502 461 q-203 0 -360.5 -103.5t-242.5 -283t-85 -404.5zM428 361q-5 13 4 57q9 41 18.5 53t32.5 12h54l98 510h-47q-24 0 -29.5 12.5t4.5 55.5q10 44 19 55.5t32 11.5h332q154 0 228.5 -57.5t74.5 -163.5q0 -78 -45.5 -142t-132.5 -97l70 -185h35q20 0 25 -11.5t-1 -55.5 q-7 -41 -17.5 -54.5t-33.5 -13.5h-66q-60 0 -86 19t-45 79l-61 189h-143l-29 -152h55q21 0 26 -11t-1 -54q-9 -43 -19 -56.5t-32 -13.5h-291q-24 0 -29 13zM774 770h123q75 0 119.5 33t44.5 90q0 51 -36.5 71.5t-137.5 20.5h-72z" />
<glyph unicode="&#xb4;" horiz-adv-x="1024" d="M335 1137q1 8 9 16l277 258q52 49 172 49q88 0 89 -28q0 -10 -14 -21l-313 -258q-49 -43 -141 -43q-83 0 -79 27z" />
<glyph unicode="&#xb8;" horiz-adv-x="1024" d="M160 -378.5q-1 12.5 12 46.5q13 31 24 38.5t29 2.5q55 -14 99 -14q111 0 114 67q2 28 -25 44t-83 16q-28 0 -36.5 7.5t-4.5 27.5l28 145q3 19 18.5 26t63.5 7q44 0 57.5 -8t10.5 -25l-16 -86q67 -7 104 -45t35 -96q-3 -95 -72.5 -147t-198.5 -52q-85 0 -145 27 q-13 6 -14 18.5z" />
<glyph unicode="&#xbb;" horiz-adv-x="1228" d="M117 115l377 399l-230 397q-22 34 -6 51t76 17q53 0 76.5 -9.5t40.5 -37.5l161 -273q40 -66 23 -147l-8 -37q-13 -67 -72 -129l-248 -254q-25 -25 -54 -34t-83 -9q-116 0 -53 66zM559 115l379 399l-231 397q-22 34 -6 51t77 17q52 0 75 -9.5t40 -37.5l162 -273 q40 -67 24 -147l-8 -37q-13 -68 -74 -129l-245 -254q-25 -25 -54.5 -34t-83.5 -9q-115 0 -55 66z" />
<glyph unicode="&#xbf;" horiz-adv-x="1306" d="M-25 -168q0 130 64 222.5t217 172.5l141 74q110 58 143 88.5t46 91.5l8 41q6 32 29.5 42.5t81.5 10.5q55 0 76 -10.5t14 -42.5l-11 -41q-24 -112 -75.5 -176.5t-147.5 -111.5l-153 -76q-136 -67 -179 -121.5t-43 -149.5q0 -91 75 -131.5t255 -40.5q170 0 318 47l32 170 q8 37 29 48.5t82 11.5q57 0 72 -11t10 -42l-29 -152q-28 -133 -162 -180q-167 -55 -393 -55q-182 0 -293.5 36.5t-159 106t-47.5 178.5zM610 850q0 82 39 127t105 45h30q109 0 109 -100q0 -81 -28 -117.5t-89 -36.5h-78q-46 0 -67 19t-21 63z" />
<glyph unicode="&#xc0;" horiz-adv-x="1742" d="M-67 18q-6 18 4 62q10 50 22.5 65t40.5 15h84l743 1231q34 57 63 76.5t81 19.5h82q53 0 77.5 -21t36.5 -77l281 -1229h94q28 0 34 -15t-3 -65q-10 -50 -23 -65t-41 -15h-467q-28 0 -34 18t4 62q10 50 22.5 65t40.5 15h154l-66 317h-669l-189 -317h170q28 0 34 -15t-3 -65 q-10 -50 -23 -65t-41 -15h-475q-28 0 -34 18zM586 639h547l-84 418q-31 157 -41 278h-29q-63 -137 -145 -280zM715 1870q-26 23 0 41q27 18 90 18q112 0 164 -49l225 -223q26 -26 -4 -44q-25 -14 -76 -14q-84 0 -133 43z" />
<glyph unicode="&#xc1;" horiz-adv-x="1742" d="M-67 18q-6 18 4 62q10 50 22.5 65t40.5 15h84l743 1231q34 57 63 76.5t81 19.5h82q53 0 77.5 -21t36.5 -77l281 -1229h94q28 0 34 -15t-3 -65q-10 -50 -23 -65t-41 -15h-467q-28 0 -34 18t4 62q10 50 22.5 65t40.5 15h154l-66 317h-669l-189 -317h170q28 0 34 -15t-3 -65 q-10 -50 -23 -65t-41 -15h-475q-28 0 -34 18zM586 639h547l-84 418q-31 157 -41 278h-29q-63 -137 -145 -280zM769 1626q-3 12 13 25l293 229q61 49 185 49q72 0 84 -32q6 -18 -15 -33l-321 -222q-59 -43 -158 -43q-74 0 -81 27z" />
<glyph unicode="&#xc2;" horiz-adv-x="1742" d="M-67 18q-6 18 4 62q10 50 22.5 65t40.5 15h84l743 1231q34 57 63 76.5t81 19.5h82q53 0 77.5 -21t36.5 -77l281 -1229h94q28 0 34 -15t-3 -65q-10 -50 -23 -65t-41 -15h-467q-28 0 -34 18t4 62q10 50 22.5 65t40.5 15h154l-66 317h-669l-189 -317h170q28 0 34 -15t-3 -65 q-10 -50 -23 -65t-41 -15h-475q-28 0 -34 18zM574 1627q1 12 16 24l299 231q61 45 141 45h23q44 0 71 -10t54 -37l227 -227q34 -34 -19 -47q-27 -7 -71 -7q-57 0 -84.5 8t-46.5 27l-162 162l-209 -164q-44 -33 -151 -33q-86 0 -88 28zM586 639h547l-84 418q-31 157 -41 278 h-29q-63 -137 -145 -280z" />
<glyph unicode="&#xc3;" horiz-adv-x="1742" d="M-67 18q-6 18 4 62q10 50 22.5 65t40.5 15h84l743 1231q34 57 63 76.5t81 19.5h82q53 0 77.5 -21t36.5 -77l281 -1229h94q28 0 34 -15t-3 -65q-10 -50 -23 -65t-41 -15h-467q-28 0 -34 18t4 62q10 50 22.5 65t40.5 15h154l-66 317h-669l-189 -317h170q28 0 34 -15t-3 -65 q-10 -50 -23 -65t-41 -15h-475q-28 0 -34 18zM586 639h547l-84 418q-31 157 -41 278h-29q-63 -137 -145 -280zM601 1734.5q-7 16.5 3 32.5q93 166 273 166q54 0 105 -20.5t83 -45t71 -45t72 -20.5q35 0 61.5 18.5t49.5 61.5q22 39 92 4q60 -26 41 -69q-82 -177 -260 -177 q-44 0 -83.5 13.5t-69 32t-57 37.5t-58 32.5t-60.5 13.5q-81 0 -137 -83q-10 -20 -31.5 -19t-56.5 27q-31 24 -38 40.5z" />
<glyph unicode="&#xc4;" horiz-adv-x="1742" d="M-67 18q-6 18 4 62q10 50 22.5 65t40.5 15h84l743 1231q34 57 63 76.5t81 19.5h82q53 0 77.5 -21t36.5 -77l281 -1229h94q28 0 34 -15t-3 -65q-10 -50 -23 -65t-41 -15h-467q-28 0 -34 18t4 62q10 50 22.5 65t40.5 15h154l-66 317h-669l-189 -317h170q28 0 34 -15t-3 -65 q-10 -50 -23 -65t-41 -15h-475q-28 0 -34 18zM586 639h547l-84 418q-31 157 -41 278h-29q-63 -137 -145 -280zM602 1757q9 139 127 139h23q56 0 80.5 -24t21.5 -78q-4 -71 -29 -100t-77 -29h-68q-47 0 -64.5 20t-13.5 72zM1190 1757q9 139 127 139h22q57 0 81.5 -25.5 t21.5 -76.5q-4 -71 -29.5 -100t-79.5 -29h-65q-46 0 -64 20.5t-14 71.5z" />
<glyph unicode="&#xc5;" horiz-adv-x="1742" d="M-67 18q-6 18 4 62q10 50 22.5 65t40.5 15h84l743 1231q34 57 63 76.5t81 19.5h82q53 0 77.5 -21t36.5 -77l281 -1229h94q28 0 34 -15t-3 -65q-10 -50 -23 -65t-41 -15h-467q-28 0 -34 18t4 62q10 50 22.5 65t40.5 15h154l-66 317h-669l-189 -317h170q28 0 34 -15t-3 -65 q-10 -50 -23 -65t-41 -15h-475q-28 0 -34 18zM586 639h547l-84 418q-31 157 -41 278h-29q-63 -137 -145 -280zM793 1782q7 119 84.5 186.5t197.5 67.5q103 0 156 -48.5t47 -148.5q-8 -120 -81 -189t-202 -69q-104 0 -156 48t-46 153zM922 1790q-5 -98 94 -98q59 0 93.5 36.5 t37.5 100.5q6 96 -90 96q-59 0 -95.5 -38t-39.5 -97z" />
<glyph unicode="&#xc6;" horiz-adv-x="2365" d="M-102 18q-6 18 4 62q10 50 22.5 65t40.5 15h82l1112 1229q44 51 90 68.5t137 17.5h898q64 0 81.5 -19t6.5 -78l-45 -233q-6 -31 -27.5 -43t-77.5 -12q-55 0 -70.5 11.5t-9.5 43.5l31 170h-664l-94 -484h438l15 78q5 30 26 43t76 13q51 0 68.5 -11.5t11.5 -44.5l-61 -327 q-5 -29 -26.5 -41.5t-76.5 -12.5q-54 0 -69.5 12.5t-10.5 43.5l17 88h-437l-98 -512h676l31 172q5 30 26 42.5t78 12.5q55 0 71.5 -12t10.5 -43l-45 -236q-10 -58 -36 -77t-91 -19h-1048q-28 0 -34.5 18t3.5 62q10 50 22.5 65t40.5 15h92l56 286h-594l-260 -286h168 q28 0 33.5 -15t-3.5 -65q-10 -50 -22.5 -65t-40.5 -15h-490q-28 0 -34 18zM684 604h485l142 719h-21q-117 -177 -243 -317z" />
<glyph unicode="&#xc7;" horiz-adv-x="1437" d="M98 571q0 203 58 373t167.5 293.5t276.5 192.5t375 69q70 0 166.5 -13t156.5 -32q85 -28 112.5 -70.5t10.5 -123.5l-28 -138q-6 -38 -29 -49.5t-86 -11.5q-56 0 -72 11t-10 44l35 178q-125 41 -291 41q-153 0 -274.5 -58t-199 -160t-118.5 -238t-41 -297q0 -233 104 -335 t353 -102q171 0 350 50q27 6 42 -6.5t26 -59.5q9 -41 4 -59t-31 -27q-154 -56 -364 -66l-11 -61q67 -7 104.5 -45.5t35.5 -95.5q-3 -95 -72.5 -147t-198.5 -52q-85 0 -145 27q-13 6 -14 18.5t12 46.5q13 31 24 38.5t29 2.5q55 -14 98 -14q112 0 115 67q2 28 -25.5 44 t-83.5 16q-28 0 -36.5 7.5t-4.5 27.5l23 120q-282 17 -412.5 162.5t-130.5 431.5z" />
<glyph unicode="&#xc8;" horiz-adv-x="1447" d="M-20 18q-6 18 4 62q10 50 22.5 65t40.5 15h92l223 1155h-92q-28 0 -33.5 15.5t3.5 64.5q10 50 22.5 65t40.5 15h1063q64 0 81.5 -19t6.5 -78l-45 -233q-6 -31 -27 -43t-77 -12q-55 0 -70.5 11.5t-9.5 43.5l30 170h-692l-94 -484h467l14 78q5 30 26 43t77 13 q51 0 68.5 -11.5t11.5 -44.5l-62 -327q-5 -29 -26 -41.5t-76 -12.5q-54 0 -69.5 12.5t-10.5 43.5l16 88h-465l-98 -512h705l30 172q5 30 26.5 42.5t78.5 12.5q55 0 71.5 -12t10.5 -43l-45 -236q-12 -58 -37 -77t-90 -19h-1078q-28 0 -34 18zM586 1870q-26 23 0 41 q27 18 90 18q112 0 164 -49l225 -223q26 -26 -4 -44q-24 -14 -76 -14q-84 0 -133 43z" />
<glyph unicode="&#xc9;" horiz-adv-x="1447" d="M-20 18q-6 18 4 62q10 50 22.5 65t40.5 15h92l223 1155h-92q-28 0 -33.5 15.5t3.5 64.5q10 50 22.5 65t40.5 15h1063q64 0 81.5 -19t6.5 -78l-45 -233q-6 -31 -27 -43t-77 -12q-55 0 -70.5 11.5t-9.5 43.5l30 170h-692l-94 -484h467l14 78q5 30 26 43t77 13 q51 0 68.5 -11.5t11.5 -44.5l-62 -327q-5 -29 -26 -41.5t-76 -12.5q-54 0 -69.5 12.5t-10.5 43.5l16 88h-465l-98 -512h705l30 172q5 30 26.5 42.5t78.5 12.5q55 0 71.5 -12t10.5 -43l-45 -236q-12 -58 -37 -77t-90 -19h-1078q-28 0 -34 18zM702 1627q-2 12 13 24l293 229 q61 49 184 49q71 0 84 -31q8 -19 -14 -34l-322 -222q-59 -43 -158 -43q-75 0 -80 28z" />
<glyph unicode="&#xca;" horiz-adv-x="1447" d="M-20 18q-6 18 4 62q10 50 22.5 65t40.5 15h92l223 1155h-92q-28 0 -33.5 15.5t3.5 64.5q10 50 22.5 65t40.5 15h1063q64 0 81.5 -19t6.5 -78l-45 -233q-6 -31 -27 -43t-77 -12q-55 0 -70.5 11.5t-9.5 43.5l30 170h-692l-94 -484h467l14 78q5 30 26 43t77 13 q51 0 68.5 -11.5t11.5 -44.5l-62 -327q-5 -29 -26 -41.5t-76 -12.5q-54 0 -69.5 12.5t-10.5 43.5l16 88h-465l-98 -512h705l30 172q5 30 26.5 42.5t78.5 12.5q55 0 71.5 -12t10.5 -43l-45 -236q-12 -58 -37 -77t-90 -19h-1078q-28 0 -34 18zM473 1627q1 12 16 24l299 231 q61 45 142 45h22q44 0 71 -10t54 -37l228 -227q33 -33 -19 -47q-27 -7 -72 -7q-57 0 -84.5 8t-46.5 27l-161 162l-209 -164q-44 -33 -152 -33q-86 0 -88 28z" />
<glyph unicode="&#xcb;" horiz-adv-x="1447" d="M-20 18q-6 18 4 62q10 50 22.5 65t40.5 15h92l223 1155h-92q-28 0 -33.5 15.5t3.5 64.5q10 50 22.5 65t40.5 15h1063q64 0 81.5 -19t6.5 -78l-45 -233q-6 -31 -27 -43t-77 -12q-55 0 -70.5 11.5t-9.5 43.5l30 170h-692l-94 -484h467l14 78q5 30 26 43t77 13 q51 0 68.5 -11.5t11.5 -44.5l-62 -327q-5 -29 -26 -41.5t-76 -12.5q-54 0 -69.5 12.5t-10.5 43.5l16 88h-465l-98 -512h705l30 172q5 30 26.5 42.5t78.5 12.5q55 0 71.5 -12t10.5 -43l-45 -236q-12 -58 -37 -77t-90 -19h-1078q-28 0 -34 18zM502 1757q9 139 127 139h22 q56 0 81 -24t22 -78q-4 -71 -29.5 -100t-77.5 -29h-67q-47 0 -64.5 20t-13.5 72zM1090 1757q9 139 127 139h22q57 0 81 -25.5t21 -76.5q-4 -71 -29.5 -100t-78.5 -29h-66q-45 0 -63 20.5t-14 71.5z" />
<glyph unicode="&#xcc;" horiz-adv-x="681" d="M-20 18q-6 18 4 62q10 50 22.5 65t40.5 15h92l223 1155h-92q-28 0 -33.5 15.5t3.5 64.5q10 50 22.5 65t40.5 15h385q28 0 34.5 -18t-3.5 -62q-10 -50 -23 -65t-41 -15h-92l-223 -1155h92q28 0 34 -15t-3 -65q-10 -50 -23 -65t-41 -15h-385q-28 0 -34 18zM199 1870 q-26 23 0 41q27 18 90 18q112 0 164 -49l225 -223q26 -26 -4 -44q-24 -14 -76 -14q-84 0 -133 43z" />
<glyph unicode="&#xcd;" horiz-adv-x="681" d="M-20 18q-6 18 4 62q10 50 22.5 65t40.5 15h92l223 1155h-92q-28 0 -33.5 15.5t3.5 64.5q10 50 22.5 65t40.5 15h385q28 0 34.5 -18t-3.5 -62q-10 -50 -23 -65t-41 -15h-92l-223 -1155h92q28 0 34 -15t-3 -65q-10 -50 -23 -65t-41 -15h-385q-28 0 -34 18zM284 1626 q-3 12 13 25l293 229q61 49 184 49q71 0 84 -31q8 -19 -14 -34l-322 -222q-59 -43 -157 -43q-74 0 -81 27z" />
<glyph unicode="&#xce;" horiz-adv-x="681" d="M-20 18q-6 18 4 62q10 50 22.5 65t40.5 15h92l223 1155h-92q-28 0 -33.5 15.5t3.5 64.5q10 50 22.5 65t40.5 15h385q28 0 34.5 -18t-3.5 -62q-10 -50 -23 -65t-41 -15h-92l-223 -1155h92q28 0 34 -15t-3 -65q-10 -50 -23 -65t-41 -15h-385q-28 0 -34 18zM80 1627 q1 12 16 24l299 231q61 45 142 45h22q44 0 71 -10t54 -37l227 -227q34 -34 -19 -47q-27 -7 -71 -7q-57 0 -84.5 8t-46.5 27l-162 162l-209 -164q-44 -33 -151 -33q-86 0 -88 28z" />
<glyph unicode="&#xcf;" horiz-adv-x="681" d="M-20 18q-6 18 4 62q10 50 22.5 65t40.5 15h92l223 1155h-92q-28 0 -33.5 15.5t3.5 64.5q10 50 22.5 65t40.5 15h385q28 0 34.5 -18t-3.5 -62q-10 -50 -23 -65t-41 -15h-92l-223 -1155h92q28 0 34 -15t-3 -65q-10 -50 -23 -65t-41 -15h-385q-28 0 -34 18zM121 1757 q9 139 127 139h22q56 0 81 -24t22 -78q-4 -71 -29.5 -100t-77.5 -29h-67q-47 0 -64.5 20t-13.5 72zM709 1757q9 139 127 139h22q57 0 81.5 -25.5t21.5 -76.5q-4 -71 -29.5 -100t-79.5 -29h-66q-45 0 -63 20.5t-14 71.5z" />
<glyph unicode="&#xd0;" horiz-adv-x="1554" d="M-20 18q-6 18 4 62q9 48 21 64t42 16h92l94 487h-186q-30 0 -37 16t2 60q11 47 22.5 61.5t41.5 14.5h186l100 516h-92q-28 0 -33.5 15.5t3.5 64.5q10 50 22.5 65t40.5 15h490q333 0 498 -145.5t165 -428.5q0 -158 -36.5 -295.5t-109.5 -249t-178.5 -191t-248.5 -122.5 t-314 -43h-555q-28 0 -34 18zM340 160h238q164 0 293 54.5t210 152t122.5 228t41.5 286.5q0 225 -117.5 329.5t-359.5 104.5h-205l-100 -516h184q29 0 35.5 -15t-2.5 -61q-8 -45 -20 -60.5t-42 -15.5h-184z" />
<glyph unicode="&#xd1;" horiz-adv-x="1662" d="M-20 18q-6 18 4 62q10 50 22.5 65t40.5 15h92l226 1155h-95q-28 0 -33.5 15.5t3.5 64.5q10 50 22.5 65t40.5 15h305q51 0 78.5 -15.5t40.5 -54.5l311 -881q63 -178 101 -370h28l226 1161h-142q-28 0 -33.5 15.5t3.5 64.5q10 50 22.5 65t40.5 15h414q28 0 34.5 -18 t-3.5 -62q-10 -50 -23 -65t-41 -15h-90l-248 -1264q-8 -33 -29 -47t-65 -14h-129q-102 0 -125 71l-322 924q-56 168 -82 334h-28l-228 -1159h142q28 0 34 -15t-3 -65q-10 -50 -23 -65t-41 -15h-414q-28 0 -34 18zM613 1734.5q-7 16.5 3 32.5q93 166 273 166q54 0 105 -20.5 t83.5 -45t71.5 -45t72 -20.5q35 0 61 18.5t49 61.5q22 39 92 4q60 -26 41 -69q-82 -177 -260 -177q-53 0 -102 20t-79.5 44.5t-69.5 44.5t-76 20q-82 0 -138 -83q-10 -20 -31.5 -19t-56.5 27q-31 24 -38 40.5z" />
<glyph unicode="&#xd2;" horiz-adv-x="1591" d="M98 561q0 147 32 283.5t98.5 256t162 208t230 139.5t294.5 51q578 0 578 -584q0 -120 -21 -233.5t-63.5 -219.5t-110.5 -194t-156.5 -154t-208 -102.5t-259.5 -36.5q-293 0 -434.5 142.5t-141.5 443.5zM307 567q0 -222 93 -326t296 -104q113 0 209.5 41.5t165 114 t117.5 169.5t72.5 209t23.5 232q0 219 -97.5 326.5t-295.5 107.5q-111 0 -206 -41t-163.5 -113t-117.5 -169.5t-73 -210.5t-24 -236zM653 1870q-26 23 0 41q27 18 90 18q112 0 164 -49l226 -223q26 -26 -4 -44q-25 -14 -76 -14q-84 0 -133 43z" />
<glyph unicode="&#xd3;" horiz-adv-x="1591" d="M98 561q0 147 32 283.5t98.5 256t162 208t230 139.5t294.5 51q578 0 578 -584q0 -120 -21 -233.5t-63.5 -219.5t-110.5 -194t-156.5 -154t-208 -102.5t-259.5 -36.5q-293 0 -434.5 142.5t-141.5 443.5zM307 567q0 -222 93 -326t296 -104q113 0 209.5 41.5t165 114 t117.5 169.5t72.5 209t23.5 232q0 219 -97.5 326.5t-295.5 107.5q-111 0 -206 -41t-163.5 -113t-117.5 -169.5t-73 -210.5t-24 -236zM667 1626q-3 12 13 25l293 229q61 49 184 49q71 0 84 -31q8 -19 -14 -34l-322 -222q-59 -43 -157 -43q-74 0 -81 27z" />
<glyph unicode="&#xd4;" horiz-adv-x="1591" d="M98 561q0 147 32 283.5t98.5 256t162 208t230 139.5t294.5 51q578 0 578 -584q0 -120 -21 -233.5t-63.5 -219.5t-110.5 -194t-156.5 -154t-208 -102.5t-259.5 -36.5q-293 0 -434.5 142.5t-141.5 443.5zM307 567q0 -222 93 -326t296 -104q113 0 209.5 41.5t165 114 t117.5 169.5t72.5 209t23.5 232q0 219 -97.5 326.5t-295.5 107.5q-111 0 -206 -41t-163.5 -113t-117.5 -169.5t-73 -210.5t-24 -236zM510 1627q1 12 16 24l299 231q61 45 142 45h22q44 0 71 -10t54 -37l227 -227q34 -34 -19 -47q-27 -7 -71 -7q-57 0 -84.5 8t-46.5 27 l-162 162l-208 -164q-44 -33 -152 -33q-86 0 -88 28z" />
<glyph unicode="&#xd5;" horiz-adv-x="1591" d="M98 561q0 147 32 283.5t98.5 256t162 208t230 139.5t294.5 51q578 0 578 -584q0 -120 -21 -233.5t-63.5 -219.5t-110.5 -194t-156.5 -154t-208 -102.5t-259.5 -36.5q-293 0 -434.5 142.5t-141.5 443.5zM307 567q0 -222 93 -326t296 -104q113 0 209.5 41.5t165 114 t117.5 169.5t72.5 209t23.5 232q0 219 -97.5 326.5t-295.5 107.5q-111 0 -206 -41t-163.5 -113t-117.5 -169.5t-73 -210.5t-24 -236zM537.5 1734.5q-6.5 16.5 3.5 32.5q93 166 272 166q54 0 105 -20.5t83.5 -45t71.5 -45t72 -20.5q35 0 61 18.5t49 61.5q22 39 93 4 q60 -26 41 -69q-82 -177 -261 -177q-53 0 -102 20t-79.5 44.5t-69.5 44.5t-76 20q-81 0 -137 -83q-26 -40 -89 8q-31 24 -37.5 40.5z" />
<glyph unicode="&#xd6;" horiz-adv-x="1591" d="M98 561q0 147 32 283.5t98.5 256t162 208t230 139.5t294.5 51q578 0 578 -584q0 -120 -21 -233.5t-63.5 -219.5t-110.5 -194t-156.5 -154t-208 -102.5t-259.5 -36.5q-293 0 -434.5 142.5t-141.5 443.5zM307 567q0 -222 93 -326t296 -104q113 0 209.5 41.5t165 114 t117.5 169.5t72.5 209t23.5 232q0 219 -97.5 326.5t-295.5 107.5q-111 0 -206 -41t-163.5 -113t-117.5 -169.5t-73 -210.5t-24 -236zM532 1757q9 139 127 139h23q56 0 80.5 -24t21.5 -78q-4 -71 -29 -100t-77 -29h-68q-47 0 -64.5 20t-13.5 72zM1120 1757q9 139 127 139h23 q57 0 81 -25.5t21 -76.5q-4 -71 -29.5 -100t-78.5 -29h-66q-46 0 -64 20.5t-14 71.5z" />
<glyph unicode="&#xd8;" horiz-adv-x="1591" d="M69 -218q-13 11 3 34l190 280q-164 139 -164 465q0 147 32 283.5t98.5 256t162 208t230 139.5t294.5 51q159 0 277 -47l131 190q14 23 36.5 31t76.5 8q33 0 50 -5t18 -13.5t-5 -20.5l-180 -262q174 -145 174 -465q0 -120 -21 -233.5t-63.5 -219.5t-110.5 -194 t-156.5 -154t-208 -102.5t-259.5 -36.5q-168 0 -289 48l-143 -209q-17 -26 -39 -34.5t-74 -8.5q-47 0 -60 11zM307 567q0 -198 72 -301l708 1034q-78 37 -196 37q-111 0 -206 -41t-163.5 -113t-117.5 -169.5t-73 -210.5t-24 -236zM489 174q81 -37 207 -37q113 0 209.5 41.5 t165 114t117.5 169.5t72.5 209t23.5 232q0 196 -82 307z" />
<glyph unicode="&#xd9;" horiz-adv-x="1558" d="M152 385q0 89 18 188l145 742h-82q-28 0 -33.5 15.5t3.5 64.5q10 50 22.5 65t40.5 15h414q28 0 34.5 -18t-3.5 -62q-10 -50 -23 -65t-41 -15h-129l-143 -742q-19 -97 -19 -165q0 -135 77.5 -203t240.5 -68q199 0 317.5 104t163.5 330l148 744h-129q-28 0 -34 15.5t3 64.5 q10 50 22.5 65t40.5 15h404q28 0 34 -18t-4 -62q-10 -50 -22.5 -65t-40.5 -15h-82l-147 -740q-62 -311 -237.5 -455.5t-469.5 -144.5q-489 0 -489 410zM600 1870q-26 23 0 41q27 18 90 18q112 0 164 -49l225 -223q26 -26 -4 -44q-25 -14 -76 -14q-84 0 -133 43z" />
<glyph unicode="&#xda;" horiz-adv-x="1558" d="M152 385q0 89 18 188l145 742h-82q-28 0 -33.5 15.5t3.5 64.5q10 50 22.5 65t40.5 15h414q28 0 34.5 -18t-3.5 -62q-10 -50 -23 -65t-41 -15h-129l-143 -742q-19 -97 -19 -165q0 -135 77.5 -203t240.5 -68q199 0 317.5 104t163.5 330l148 744h-129q-28 0 -34 15.5t3 64.5 q10 50 22.5 65t40.5 15h404q28 0 34 -18t-4 -62q-10 -50 -22.5 -65t-40.5 -15h-82l-147 -740q-62 -311 -237.5 -455.5t-469.5 -144.5q-489 0 -489 410zM741 1627q-2 12 13 24l293 229q61 49 184 49q72 0 84 -32q6 -18 -15 -33l-321 -222q-59 -43 -158 -43q-75 0 -80 28z" />
<glyph unicode="&#xdb;" horiz-adv-x="1558" d="M152 385q0 89 18 188l145 742h-82q-28 0 -33.5 15.5t3.5 64.5q10 50 22.5 65t40.5 15h414q28 0 34.5 -18t-3.5 -62q-10 -50 -23 -65t-41 -15h-129l-143 -742q-19 -97 -19 -165q0 -135 77.5 -203t240.5 -68q199 0 317.5 104t163.5 330l148 744h-129q-28 0 -34 15.5t3 64.5 q10 50 22.5 65t40.5 15h404q28 0 34 -18t-4 -62q-10 -50 -22.5 -65t-40.5 -15h-82l-147 -740q-62 -311 -237.5 -455.5t-469.5 -144.5q-489 0 -489 410zM527 1628q0 11 16 23l299 231q61 45 141 45h23q43 0 70 -10t54 -37l228 -227q34 -34 -19 -47q-27 -7 -71 -7 q-57 0 -84.5 8t-46.5 27l-162 162l-209 -164q-44 -33 -152 -33q-87 0 -87 29z" />
<glyph unicode="&#xdc;" horiz-adv-x="1558" d="M152 385q0 89 18 188l145 742h-82q-28 0 -33.5 15.5t3.5 64.5q10 50 22.5 65t40.5 15h414q28 0 34.5 -18t-3.5 -62q-10 -50 -23 -65t-41 -15h-129l-143 -742q-19 -97 -19 -165q0 -135 77.5 -203t240.5 -68q199 0 317.5 104t163.5 330l148 744h-129q-28 0 -34 15.5t3 64.5 q10 50 22.5 65t40.5 15h404q28 0 34 -18t-4 -62q-10 -50 -22.5 -65t-40.5 -15h-82l-147 -740q-62 -311 -237.5 -455.5t-469.5 -144.5q-489 0 -489 410zM571 1757q9 139 127 139h23q56 0 80.5 -24t21.5 -78q-4 -71 -29 -100t-77 -29h-68q-47 0 -64.5 20t-13.5 72zM1159 1757 q9 139 127 139h23q57 0 81 -25.5t21 -76.5q-4 -71 -29.5 -100t-78.5 -29h-66q-46 0 -64 20.5t-14 71.5z" />
<glyph unicode="&#xdd;" horiz-adv-x="1492" d="M159 1330.5q-6 15.5 3 64.5q10 50 22.5 65t40.5 15h467q28 0 34.5 -18t-3.5 -62q-10 -50 -23 -65t-41 -15h-163l168 -406q47 -116 67 -235h29q60 117 155 233l334 408h-182q-28 0 -34 15.5t3 64.5q10 50 23 65t41 15h481q28 0 34.5 -18t-3.5 -62q-10 -50 -23 -65t-41 -15 h-84l-647 -793l-69 -362h182q28 0 34 -15t-3 -65q-10 -50 -23 -65t-41 -15h-565q-28 0 -34.5 18t3.5 62q10 50 23 65t41 15h180l69 366l-335 789h-86q-28 0 -34 15.5zM720 1626q-3 12 13 25l293 229q61 49 184 49q71 0 84 -31q8 -19 -14 -34l-322 -222q-59 -43 -157 -43 q-74 0 -81 27z" />
<glyph unicode="&#xde;" horiz-adv-x="1312" d="M-20 18q-6 18 4 62q10 50 22.5 65t40.5 15h90l228 1155h-93q-28 0 -33.5 15.5t3.5 64.5q10 50 22.5 65t40.5 15h436q28 0 34.5 -18t-3.5 -62q-10 -50 -22.5 -65t-40.5 -15h-142l-28 -139h192q278 0 407.5 -93.5t129.5 -283.5q0 -100 -34.5 -185.5t-102.5 -151t-178 -103 t-251 -37.5q-100 0 -164 13.5t-126 47.5h-29l-43 -223h158q28 0 33.5 -15t-3.5 -65q-10 -50 -22.5 -65t-40.5 -15h-451q-28 0 -34 18zM410 514q107 -37 254 -37q200 0 297.5 81.5t97.5 219.5q0 125 -85 183.5t-286 58.5h-180z" />
<glyph unicode="&#xdf;" horiz-adv-x="1470" d="M59 -420l246 1266h-149q-31 0 -36.5 13.5t3.5 60.5q10 51 21 64t42 13h150l6 37q37 225 178 345t373 120q186 0 291.5 -75t105.5 -205q0 -68 -21 -122t-54 -88.5t-73 -62t-80.5 -50.5t-73.5 -46.5t-54 -57t-21 -75.5q0 -33 12 -50.5t50 -33.5t121 -37l41 -10 q135 -34 197.5 -101.5t62.5 -177.5q0 -155 -116 -243.5t-368 -88.5q-150 0 -260 29q-123 33 -102 158l10 59q5 32 28 46t79 14q52 0 68.5 -10.5t11.5 -37.5l-15 -86q89 -30 221 -30t190 43.5t58 128.5q0 54 -44.5 87t-160.5 62l-41 11q-132 33 -185.5 87t-53.5 148 q0 69 21 123t54.5 88.5t74.5 62.5t81.5 51.5t74 48.5t54.5 61t21 81q0 148 -215 148q-143 0 -230.5 -76.5t-120.5 -243.5l-282 -1448q-6 -31 -25.5 -41t-79.5 -10q-59 0 -75.5 10.5t-10.5 40.5z" />
<glyph unicode="&#xe0;" horiz-adv-x="1275" d="M82 377q0 101 25.5 196.5t75.5 176.5t118 142t159.5 95.5t194.5 34.5t179.5 -32.5t111.5 -92.5h27l16 66q6 27 24.5 36t67.5 9q47 0 61 -9.5t9 -37.5l-143 -756q-6 -29 3.5 -39t41.5 -10h43q27 0 34 -15.5t-2 -62.5q-10 -49 -22 -63.5t-43 -14.5h-68q-87 0 -124.5 26 t-43.5 85h-26q-111 -136 -336 -136q-190 0 -286.5 102t-96.5 300zM285 391q0 -258 237 -258q134 0 230.5 90.5t130.5 274.5l14 77q26 137 -37 213t-194 76q-115 0 -203 -65t-133 -172t-45 -236zM446 1411q-26 33 29 44q24 5 60 5q109 0 143 -49l182 -258q22 -31 -34 -40 l-42 -3q-79 0 -116 43z" />
<glyph unicode="&#xe1;" horiz-adv-x="1275" d="M82 377q0 101 25.5 196.5t75.5 176.5t118 142t159.5 95.5t194.5 34.5t179.5 -32.5t111.5 -92.5h27l16 66q6 27 24.5 36t67.5 9q47 0 61 -9.5t9 -37.5l-143 -756q-6 -29 3.5 -39t41.5 -10h43q27 0 34 -15.5t-2 -62.5q-10 -49 -22 -63.5t-43 -14.5h-68q-87 0 -124.5 26 t-43.5 85h-26q-111 -136 -336 -136q-190 0 -286.5 102t-96.5 300zM285 391q0 -258 237 -258q134 0 230.5 90.5t130.5 274.5l14 77q26 137 -37 213t-194 76q-115 0 -203 -65t-133 -172t-45 -236zM446 1137q2 8 9 16l276 258q52 49 172 49q89 0 90 -28q-2 -11 -14 -21 l-313 -258q-49 -43 -142 -43q-82 0 -78 27z" />
<glyph unicode="&#xe2;" horiz-adv-x="1275" d="M82 377q0 101 25.5 196.5t75.5 176.5t118 142t159.5 95.5t194.5 34.5t179.5 -32.5t111.5 -92.5h27l16 66q6 27 24.5 36t67.5 9q47 0 61 -9.5t9 -37.5l-143 -756q-6 -29 3.5 -39t41.5 -10h43q27 0 34 -15.5t-2 -62.5q-10 -49 -22 -63.5t-43 -14.5h-68q-87 0 -124.5 26 t-43.5 85h-26q-111 -136 -336 -136q-190 0 -286.5 102t-96.5 300zM285 391q0 -258 237 -258q134 0 230.5 90.5t130.5 274.5l14 77q26 137 -37 213t-194 76q-115 0 -203 -65t-133 -172t-45 -236zM355 1141q3 7 12 16l247 254q24 26 53.5 36.5t84.5 10.5q53 0 79.5 -11 t40.5 -36l154 -250q8 -16 6.5 -27t-21.5 -17.5t-59 -6.5q-51 0 -76 9t-40 34l-105 178l-156 -178q-21 -24 -49 -33.5t-84 -9.5q-97 0 -87 31z" />
<glyph unicode="&#xe3;" horiz-adv-x="1275" d="M82 377q0 101 25.5 196.5t75.5 176.5t118 142t159.5 95.5t194.5 34.5t179.5 -32.5t111.5 -92.5h27l16 66q6 27 24.5 36t67.5 9q47 0 61 -9.5t9 -37.5l-143 -756q-6 -29 3.5 -39t41.5 -10h43q27 0 34 -15.5t-2 -62.5q-10 -49 -22 -63.5t-43 -14.5h-68q-87 0 -124.5 26 t-43.5 85h-26q-111 -136 -336 -136q-190 0 -286.5 102t-96.5 300zM285 391q0 -258 237 -258q134 0 230.5 90.5t130.5 274.5l14 77q26 137 -37 213t-194 76q-115 0 -203 -65t-133 -172t-45 -236zM346.5 1244.5q-6.5 15.5 3.5 31.5q44 79 103.5 114t146.5 35q48 0 91.5 -18.5 t70.5 -40.5t60 -40.5t61 -18.5q36 0 61 15.5t49 57.5q19 37 82 2q32 -19 39 -32t-2 -33q-71 -158 -238 -158q-45 0 -87.5 18.5t-69.5 40t-60 40t-63 18.5q-39 0 -66.5 -14.5t-64.5 -63.5q-24 -31 -80 10q-30 21 -36.5 36.5z" />
<glyph unicode="&#xe4;" horiz-adv-x="1275" d="M82 377q0 101 25.5 196.5t75.5 176.5t118 142t159.5 95.5t194.5 34.5t179.5 -32.5t111.5 -92.5h27l16 66q6 27 24.5 36t67.5 9q47 0 61 -9.5t9 -37.5l-143 -756q-6 -29 3.5 -39t41.5 -10h43q27 0 34 -15.5t-2 -62.5q-10 -49 -22 -63.5t-43 -14.5h-68q-87 0 -124.5 26 t-43.5 85h-26q-111 -136 -336 -136q-190 0 -286.5 102t-96.5 300zM285 391q0 -258 237 -258q134 0 230.5 90.5t130.5 274.5l14 77q26 137 -37 213t-194 76q-115 0 -203 -65t-133 -172t-45 -236zM356 1268q6 135 123 135h17q54 0 76 -23.5t20 -74.5q-1 -68 -26 -96.5 t-77 -28.5h-57q-45 0 -62.5 19.5t-13.5 68.5zM858 1268q8 135 123 135h16q49 0 74.5 -22t24.5 -76q-1 -67 -27 -96t-78 -29h-57q-44 0 -61.5 19.5t-14.5 68.5z" />
<glyph unicode="&#xe5;" horiz-adv-x="1275" d="M82 377q0 101 25.5 196.5t75.5 176.5t118 142t159.5 95.5t194.5 34.5t179.5 -32.5t111.5 -92.5h27l16 66q6 27 24.5 36t67.5 9q47 0 61 -9.5t9 -37.5l-143 -756q-6 -29 3.5 -39t41.5 -10h43q27 0 34 -15.5t-2 -62.5q-10 -49 -22 -63.5t-43 -14.5h-68q-87 0 -124.5 26 t-43.5 85h-26q-111 -136 -336 -136q-190 0 -286.5 102t-96.5 300zM285 391q0 -258 237 -258q134 0 230.5 90.5t130.5 274.5l14 77q26 137 -37 213t-194 76q-115 0 -203 -65t-133 -172t-45 -236zM524 1311q6 110 79.5 179t191.5 69q101 0 150.5 -51t43.5 -142 q-6 -116 -76 -183t-194 -67q-104 0 -153.5 49.5t-41.5 145.5zM645 1319q-6 -102 90 -102q60 0 95 37t38 104q3 49 -21.5 74.5t-70.5 25.5q-56 0 -92 -39.5t-39 -99.5z" />
<glyph unicode="&#xe6;" horiz-adv-x="1886" d="M82 258q0 157 127.5 255.5t347.5 98.5q193 0 283 -90h26l17 86q26 140 -28.5 197t-215.5 57q-158 0 -309 -49q-28 -8 -41 1t-27 54q-13 41 -8 58t33 28q78 31 185.5 49.5t205.5 18.5q268 0 354 -127h19q145 127 374 127q188 0 290 -79t102 -214q0 -153 -119.5 -238 t-368.5 -85h-289v-41q0 -119 72.5 -176.5t233.5 -57.5q125 0 270 47q27 8 44 -2t30 -53q14 -43 9.5 -59.5t-34.5 -28.5q-65 -26 -167 -43t-198 -17q-293 0 -397 162h-26q-72 -85 -173 -123.5t-241 -38.5q-193 0 -287 73.5t-94 209.5zM285 274q0 -78 52 -115.5t171 -37.5 q153 0 238 55.5t85 147.5q0 68 -60.5 107.5t-188.5 39.5q-145 0 -221 -52t-76 -145zM1057 549h297q140 0 206 46t66 126q0 67 -57.5 107t-167.5 40q-143 0 -229 -83.5t-115 -235.5z" />
<glyph unicode="&#xe7;" horiz-adv-x="1114" d="M82 395q0 130 37.5 241t112.5 198.5t198.5 137.5t284.5 50q111 0 229 -27q72 -19 96 -55.5t11 -110.5l-15 -75q-6 -37 -26 -50.5t-74 -13.5t-70.5 11t-11.5 40l18 105q-90 22 -180 22q-189 0 -300 -124t-111 -328q0 -147 71 -216t234 -69q123 0 268 47q27 8 44 -2t30 -53 q14 -43 9.5 -59.5t-34.5 -28.5q-96 -41 -280 -55l-13 -64q67 -7 104.5 -45.5t35.5 -95.5q-3 -95 -72.5 -147t-198.5 -52q-85 0 -145 27q-13 6 -14 18.5t12 46.5q13 31 24 38.5t29 2.5q55 -14 98 -14q112 0 115 67q2 28 -25.5 44t-83.5 16q-28 0 -36.5 7.5t-3.5 27.5l22 120 q-203 13 -296 114.5t-93 303.5z" />
<glyph unicode="&#xe8;" horiz-adv-x="1130" d="M82 365q0 312 156.5 484.5t431.5 172.5q188 0 289.5 -79t101.5 -214q0 -153 -119.5 -238t-368.5 -85h-292v-41q0 -119 73.5 -176.5t235.5 -57.5q125 0 270 47q27 8 44 -2t30 -53q14 -43 9.5 -59.5t-34.5 -28.5q-65 -26 -166.5 -43t-197.5 -17q-463 0 -463 390zM297 549 h301q140 0 206 46t66 126q0 67 -57.5 107t-167.5 40q-143 0 -231.5 -84t-116.5 -235zM430 1411q-27 34 32 45q22 4 56 4q110 0 144 -49l182 -258q22 -31 -34 -40l-42 -3q-80 0 -117 43z" />
<glyph unicode="&#xe9;" horiz-adv-x="1130" d="M82 365q0 312 156.5 484.5t431.5 172.5q188 0 289.5 -79t101.5 -214q0 -153 -119.5 -238t-368.5 -85h-292v-41q0 -119 73.5 -176.5t235.5 -57.5q125 0 270 47q27 8 44 -2t30 -53q14 -43 9.5 -59.5t-34.5 -28.5q-65 -26 -166.5 -43t-197.5 -17q-463 0 -463 390zM297 549 h301q140 0 206 46t66 126q0 67 -57.5 107t-167.5 40q-143 0 -231.5 -84t-116.5 -235zM470 1137q1 8 9 16l277 258q52 49 172 49q89 0 90 -28q-2 -11 -14 -21l-314 -258q-49 -43 -141 -43q-83 0 -79 27z" />
<glyph unicode="&#xea;" horiz-adv-x="1130" d="M82 365q0 312 156.5 484.5t431.5 172.5q188 0 289.5 -79t101.5 -214q0 -153 -119.5 -238t-368.5 -85h-292v-41q0 -119 73.5 -176.5t235.5 -57.5q125 0 270 47q27 8 44 -2t30 -53q14 -43 9.5 -59.5t-34.5 -28.5q-65 -26 -166.5 -43t-197.5 -17q-463 0 -463 390zM297 549 h301q140 0 206 46t66 126q0 67 -57.5 107t-167.5 40q-143 0 -231.5 -84t-116.5 -235zM327 1141q2 7 11 16l248 254q24 26 53 36.5t84 10.5q53 0 80 -11t41 -36l153 -250q7 -12 7.5 -21t-7 -16t-26 -10.5t-47.5 -3.5q-51 0 -76.5 9t-40.5 34l-105 178l-155 -178 q-21 -24 -49 -33.5t-84 -9.5q-98 0 -87 31z" />
<glyph unicode="&#xeb;" horiz-adv-x="1130" d="M82 365q0 312 156.5 484.5t431.5 172.5q188 0 289.5 -79t101.5 -214q0 -153 -119.5 -238t-368.5 -85h-292v-41q0 -119 73.5 -176.5t235.5 -57.5q125 0 270 47q27 8 44 -2t30 -53q14 -43 9.5 -59.5t-34.5 -28.5q-65 -26 -166.5 -43t-197.5 -17q-463 0 -463 390zM297 549 h301q140 0 206 46t66 126q0 67 -57.5 107t-167.5 40q-143 0 -231.5 -84t-116.5 -235zM322 1268q6 135 122 135h17q54 0 76 -23.5t20 -74.5q-1 -68 -25.5 -96.5t-76.5 -28.5h-58q-45 0 -62 19.5t-13 68.5zM823 1268q8 135 123 135h17q49 0 74 -22t24 -76q-1 -67 -27 -96 t-78 -29h-57q-44 0 -61.5 19.5t-14.5 68.5z" />
<glyph unicode="&#xec;" horiz-adv-x="610" d="M121 1411q-27 34 32 45q22 4 56 4q109 0 143 -49l183 -258q22 -31 -34 -40q-17 -3 -42 -3q-80 0 -117 43zM133 127q0 29 6 59l119 619q4 22 -3 29.5t-30 7.5h-53q-27 0 -35 14t0 51q12 52 35.5 71t73.5 19h139q58 0 76 -20t8 -76l-135 -694q-6 -31 3.5 -41t47.5 -10h39 q27 0 34.5 -15.5t-1.5 -62.5q-10 -49 -22.5 -63.5t-43.5 -14.5h-86q-92 0 -132 31t-40 96z" />
<glyph unicode="&#xed;" horiz-adv-x="610" d="M133 127q0 29 6 59l119 619q4 22 -3 29.5t-30 7.5h-53q-27 0 -35 14t0 51q12 52 35.5 71t73.5 19h139q58 0 76 -20t8 -76l-135 -694q-6 -31 3.5 -41t47.5 -10h39q27 0 34.5 -15.5t-1.5 -62.5q-10 -49 -22.5 -63.5t-43.5 -14.5h-86q-92 0 -132 31t-40 96zM173 1137 q1 8 9 16l277 258q52 49 172 49q89 0 90 -28q-2 -11 -14 -21l-314 -258q-49 -43 -141 -43q-83 0 -79 27z" />
<glyph unicode="&#xee;" horiz-adv-x="610" d="M26 1141q2 7 11 16l248 254q24 26 53 36.5t84 10.5q53 0 80 -11t41 -36l153 -250q7 -12 7.5 -21t-7 -16t-26 -10.5t-47.5 -3.5q-51 0 -76.5 9t-40.5 34l-105 178l-155 -178q-21 -24 -49 -33.5t-84 -9.5q-98 0 -87 31zM133 127q0 29 6 59l119 619q4 22 -3 29.5t-30 7.5 h-53q-27 0 -35 14t0 51q12 52 35.5 71t73.5 19h139q58 0 76 -20t8 -76l-135 -694q-6 -31 3.5 -41t47.5 -10h39q27 0 34.5 -15.5t-1.5 -62.5q-10 -49 -22.5 -63.5t-43.5 -14.5h-86q-92 0 -132 31t-40 96z" />
<glyph unicode="&#xef;" horiz-adv-x="610" d="M4 1268q6 135 123 135h16q54 0 76.5 -23.5t20.5 -74.5q-1 -68 -26 -96.5t-77 -28.5h-57q-45 0 -62.5 19.5t-13.5 68.5zM133 127q0 29 6 59l119 619q4 22 -3 29.5t-30 7.5h-53q-27 0 -35 14t0 51q12 52 35.5 71t73.5 19h139q58 0 76 -20t8 -76l-135 -694q-6 -31 3.5 -41 t47.5 -10h39q27 0 34.5 -15.5t-1.5 -62.5q-10 -49 -22.5 -63.5t-43.5 -14.5h-86q-92 0 -132 31t-40 96zM506 1268q8 135 123 135h16q49 0 74 -22t24 -76q-1 -67 -26.5 -96t-77.5 -29h-57q-44 0 -61.5 19.5t-14.5 68.5z" />
<glyph unicode="&#xf0;" horiz-adv-x="1222" d="M59 348q0 233 149 376.5t394 143.5q188 0 275 -96h26q2 18 2 57q0 155 -57 297l-365 -65q-22 -4 -27 8.5t3 50.5q11 47 19.5 60.5t33.5 17.5l268 49q-52 77 -176 185q-35 31 0 46q22 9 66 9q57 0 86.5 -7.5t52.5 -27.5q98 -82 156 -176l229 41q21 3 27.5 -8.5t-0.5 -51.5 q-9 -41 -20.5 -56.5t-33.5 -20.5l-137 -25q60 -155 60 -344q0 -126 -29 -281q-57 -288 -196.5 -421.5t-381.5 -133.5q-197 0 -310.5 90.5t-113.5 282.5zM262 365q0 -120 62 -178t186 -58q143 0 231.5 97t128.5 323l11 57q-103 103 -269 103t-258 -91.5t-92 -252.5z" />
<glyph unicode="&#xf1;" horiz-adv-x="1316" d="M129 39l150 766q4 22 -3 29.5t-30 7.5h-60q-27 0 -34.5 14t0.5 51q12 52 35 71t73 19h113q46 0 64 -19t14 -67l-7 -63h27q119 174 381 174q159 0 237 -73.5t78 -227.5q0 -72 -20 -170l-68 -344q-6 -31 3.5 -41t47.5 -10h37q27 0 34.5 -15.5t-1.5 -62.5q-10 -49 -22 -63.5 t-43 -14.5h-86q-92 0 -132 31t-40 96q0 29 6 59l63 326q23 127 23 174q0 182 -178 182q-141 0 -247 -107t-143 -304l-79 -418q-5 -29 -26.5 -40t-80.5 -11q-58 0 -75 11t-11 40zM442.5 1244.5q-6.5 15.5 3.5 31.5q44 79 103.5 114t146.5 35q48 0 91.5 -18.5t70.5 -40.5 t60 -40.5t61 -18.5q37 0 62 16t49 57q19 36 81 2q32 -19 39 -32t-2 -33q-71 -158 -237 -158q-45 0 -88 18.5t-69.5 40t-60 40t-63.5 18.5q-39 0 -66.5 -14.5t-64.5 -63.5q-24 -31 -80 10q-30 21 -36.5 36.5z" />
<glyph unicode="&#xf2;" horiz-adv-x="1175" d="M82 367q0 147 37.5 266.5t110 206.5t185 134.5t255.5 47.5q203 0 313.5 -101.5t110.5 -293.5q0 -303 -154 -477.5t-434 -174.5q-209 0 -316.5 102.5t-107.5 289.5zM281 381q0 -256 249 -256q164 0 264.5 128.5t100.5 356.5q0 258 -250 258q-176 0 -270 -130t-94 -357z M451 1411q-27 34 32 45q22 4 56 4q109 0 143 -49l182 -258q22 -31 -34 -40l-42 -3q-79 0 -116 43z" />
<glyph unicode="&#xf3;" horiz-adv-x="1175" d="M82 367q0 147 37.5 266.5t110 206.5t185 134.5t255.5 47.5q203 0 313.5 -101.5t110.5 -293.5q0 -303 -154 -477.5t-434 -174.5q-209 0 -316.5 102.5t-107.5 289.5zM281 381q0 -256 249 -256q164 0 264.5 128.5t100.5 356.5q0 258 -250 258q-176 0 -270 -130t-94 -357z M480 1137q1 8 9 16l277 258q52 49 172 49q89 0 90 -28q-2 -11 -14 -21l-314 -258q-49 -43 -141 -43q-83 0 -79 27z" />
<glyph unicode="&#xf4;" horiz-adv-x="1175" d="M82 367q0 147 37.5 266.5t110 206.5t185 134.5t255.5 47.5q203 0 313.5 -101.5t110.5 -293.5q0 -303 -154 -477.5t-434 -174.5q-209 0 -316.5 102.5t-107.5 289.5zM281 381q0 -256 249 -256q164 0 264.5 128.5t100.5 356.5q0 258 -250 258q-176 0 -270 -130t-94 -357z M325 1141q2 7 11 16l248 254q24 26 53 36.5t84 10.5q53 0 80 -11t41 -36l153 -250q7 -12 7.5 -21t-7 -16t-26 -10.5t-47.5 -3.5q-51 0 -76.5 9t-40.5 34l-105 178l-155 -178q-21 -24 -49 -33.5t-84 -9.5q-98 0 -87 31z" />
<glyph unicode="&#xf5;" horiz-adv-x="1175" d="M82 367q0 147 37.5 266.5t110 206.5t185 134.5t255.5 47.5q203 0 313.5 -101.5t110.5 -293.5q0 -303 -154 -477.5t-434 -174.5q-209 0 -316.5 102.5t-107.5 289.5zM281 381q0 -256 249 -256q164 0 264.5 128.5t100.5 356.5q0 258 -250 258q-176 0 -270 -130t-94 -357z M324.5 1244.5q-6.5 15.5 3.5 31.5q44 79 103.5 114t146.5 35q48 0 91.5 -18.5t70.5 -40.5t59.5 -40.5t60.5 -18.5q37 0 62 16t49 57q19 37 82 2q32 -19 39 -32t-2 -33q-71 -158 -238 -158q-45 0 -88 18.5t-69.5 40t-60 40t-63.5 18.5q-39 0 -66.5 -14.5t-64.5 -63.5 q-24 -31 -80 10q-29 21 -35.5 36.5z" />
<glyph unicode="&#xf6;" horiz-adv-x="1175" d="M82 367q0 147 37.5 266.5t110 206.5t185 134.5t255.5 47.5q203 0 313.5 -101.5t110.5 -293.5q0 -303 -154 -477.5t-434 -174.5q-209 0 -316.5 102.5t-107.5 289.5zM281 381q0 -256 249 -256q164 0 264.5 128.5t100.5 356.5q0 258 -250 258q-176 0 -270 -130t-94 -357z M307 1268q6 135 123 135h16q54 0 76.5 -23.5t20.5 -74.5q-1 -68 -26 -96.5t-77 -28.5h-57q-45 0 -62.5 19.5t-13.5 68.5zM809 1268q8 135 123 135h16q49 0 74.5 -22t24.5 -76q-1 -67 -27 -96t-78 -29h-57q-44 0 -61.5 19.5t-14.5 68.5z" />
<glyph unicode="&#xf8;" horiz-adv-x="1175" d="M37 -188q1 6 6 14l160 237q-121 103 -121 304q0 147 37.5 266.5t110 206.5t185 134.5t255.5 47.5q88 0 168 -23l120 179q18 26 42 36.5t77 10.5q19 0 31.5 -1.5t19.5 -4.5t9.5 -8t1 -10.5t-5.5 -12.5l-170 -252q131 -103 131 -309q0 -303 -154 -477.5t-434 -174.5 q-100 0 -180 25l-117 -174q-21 -35 -105 -35q-67 0 -67 21zM281 381q0 -97 32 -154l426 629q-40 12 -94 12q-176 0 -270 -130t-94 -357zM422 141q50 -16 108 -16q164 0 264.5 128.5t100.5 356.5q0 104 -41 166z" />
<glyph unicode="&#xf9;" horiz-adv-x="1323" d="M129 856q-8 14 0 51q12 52 35.5 71t73.5 19h139q58 0 76 -20t8 -76l-84 -438q-21 -115 -21 -160q0 -88 42 -129t134 -41q153 0 253.5 111.5t140.5 328.5l71 385q5 30 26.5 41t78.5 11q58 0 76 -11t12 -41l-146 -753q-6 -29 3.5 -39t42.5 -10h43q27 0 34 -15.5t-2 -62.5 q-11 -49 -22.5 -63.5t-42.5 -14.5h-74q-90 0 -128.5 33t-29.5 104h-26q-120 -162 -377 -162q-305 0 -305 297q0 70 16 152l74 381q4 22 -3 29.5t-30 7.5h-53q-27 0 -35 14zM469 1411q-27 34 32 45q22 4 56 4q109 0 143 -49l183 -258q22 -31 -34 -40l-42 -3q-80 0 -117 43z " />
<glyph unicode="&#xfa;" horiz-adv-x="1323" d="M129 856q-8 14 0 51q12 52 35.5 71t73.5 19h139q58 0 76 -20t8 -76l-84 -438q-21 -115 -21 -160q0 -88 42 -129t134 -41q153 0 253.5 111.5t140.5 328.5l71 385q5 30 26.5 41t78.5 11q58 0 76 -11t12 -41l-146 -753q-6 -29 3.5 -39t42.5 -10h43q27 0 34 -15.5t-2 -62.5 q-11 -49 -22.5 -63.5t-42.5 -14.5h-74q-90 0 -128.5 33t-29.5 104h-26q-120 -162 -377 -162q-305 0 -305 297q0 70 16 152l74 381q4 22 -3 29.5t-30 7.5h-53q-27 0 -35 14zM569 1137q2 8 9 16l276 258q52 49 172 49q89 0 90 -28q-2 -11 -14 -21l-314 -258q-49 -43 -141 -43 q-82 0 -78 27z" />
<glyph unicode="&#xfb;" horiz-adv-x="1323" d="M129 856q-8 14 0 51q12 52 35.5 71t73.5 19h139q58 0 76 -20t8 -76l-84 -438q-21 -115 -21 -160q0 -88 42 -129t134 -41q153 0 253.5 111.5t140.5 328.5l71 385q5 30 26.5 41t78.5 11q58 0 76 -11t12 -41l-146 -753q-6 -29 3.5 -39t42.5 -10h43q27 0 34 -15.5t-2 -62.5 q-11 -49 -22.5 -63.5t-42.5 -14.5h-74q-90 0 -128.5 33t-29.5 104h-26q-120 -162 -377 -162q-305 0 -305 297q0 70 16 152l74 381q4 22 -3 29.5t-30 7.5h-53q-27 0 -35 14zM402 1141q3 7 12 16l248 254q24 26 53 36.5t84 10.5q53 0 80 -11t41 -36l153 -250q8 -16 6.5 -27 t-21.5 -17.5t-59 -6.5q-51 0 -76 9t-40 34l-105 178l-155 -178q-21 -24 -49.5 -33.5t-84.5 -9.5q-97 0 -87 31z" />
<glyph unicode="&#xfc;" horiz-adv-x="1323" d="M129 856q-8 14 0 51q12 52 35.5 71t73.5 19h139q58 0 76 -20t8 -76l-84 -438q-21 -115 -21 -160q0 -88 42 -129t134 -41q153 0 253.5 111.5t140.5 328.5l71 385q5 30 26.5 41t78.5 11q58 0 76 -11t12 -41l-146 -753q-6 -29 3.5 -39t42.5 -10h43q27 0 34 -15.5t-2 -62.5 q-11 -49 -22.5 -63.5t-42.5 -14.5h-74q-90 0 -128.5 33t-29.5 104h-26q-120 -162 -377 -162q-305 0 -305 297q0 70 16 152l74 381q4 22 -3 29.5t-30 7.5h-53q-27 0 -35 14zM377 1268q6 135 123 135h16q54 0 76 -23.5t20 -74.5q-1 -68 -25.5 -96.5t-76.5 -28.5h-57 q-45 0 -62.5 19.5t-13.5 68.5zM879 1268q8 135 122 135h17q49 0 74 -22t24 -76q-1 -67 -26.5 -96t-77.5 -29h-58q-43 0 -60.5 19.5t-14.5 68.5z" />
<glyph unicode="&#xfd;" horiz-adv-x="1062" d="M-122.5 -421.5q-2.5 17.5 16.5 61.5q18 42 33 51.5t44 -0.5q72 -21 133 -21q60 0 101 17.5t84.5 70t93.5 152.5l39 78q-35 2 -51.5 13.5t-22.5 41.5l-162 752q-6 29 -19.5 38t-47.5 9h-37q-27 0 -34.5 15.5t1.5 62.5q10 49 22.5 63t43.5 14h82q84 0 124 -32t58 -119 l100 -494q23 -138 23 -227h26q39 137 84 229l281 604q13 29 37 39.5t86 10.5q55 0 70 -11t1 -39l-485 -1011q-64 -134 -121.5 -219t-120 -131.5t-124 -63t-146.5 -16.5q-104 0 -182 32q-28 12 -30.5 29.5zM485 1137q2 8 9 16l276 258q52 49 172 49q89 0 90 -28 q-2 -11 -14 -21l-313 -258q-49 -43 -142 -43q-82 0 -78 27z" />
<glyph unicode="&#xfe;" horiz-adv-x="1306" d="M55 -420l328 1700q4 23 -2.5 31t-30.5 8h-59q-27 0 -35 14t0 51q12 52 35.5 71.5t73.5 19.5h143q57 0 75.5 -21t8.5 -76l-43 -227q-26 -142 -92 -289h28q126 160 365 160q173 0 274 -98t101 -277q0 -192 -71.5 -345t-202 -240t-296.5 -87q-232 0 -301 131h-26 q-3 -133 -29 -262l-51 -264q-6 -30 -26.5 -40.5t-80.5 -10.5q-58 0 -75 10.5t-11 40.5zM399 418q-22 -136 42 -210.5t196 -74.5q176 0 280.5 138t104.5 352q0 117 -60.5 179t-175.5 62q-139 0 -242 -98t-132 -268z" />
<glyph unicode="&#xff;" horiz-adv-x="1062" d="M-122.5 -421.5q-2.5 17.5 16.5 61.5q18 42 33 51.5t44 -0.5q72 -21 133 -21q60 0 101 17.5t84.5 70t93.5 152.5l39 78q-35 2 -51.5 13.5t-22.5 41.5l-162 752q-6 29 -19.5 38t-47.5 9h-37q-27 0 -34.5 15.5t1.5 62.5q10 49 22.5 63t43.5 14h82q84 0 124 -32t58 -119 l100 -494q23 -138 23 -227h26q39 137 84 229l281 604q13 29 37 39.5t86 10.5q55 0 70 -11t1 -39l-485 -1011q-64 -134 -121.5 -219t-120 -131.5t-124 -63t-146.5 -16.5q-104 0 -182 32q-28 12 -30.5 29.5zM281 1268q6 135 122 135h17q54 0 76 -23.5t20 -74.5 q-1 -68 -25.5 -96.5t-76.5 -28.5h-58q-45 0 -62 19.5t-13 68.5zM782 1268q8 135 123 135h17q49 0 74 -22t24 -76q-1 -67 -27 -96t-78 -29h-57q-44 0 -61.5 19.5t-14.5 68.5z" />
<glyph unicode="&#x100;" horiz-adv-x="1742" d="M-67 18q-6 18 4 62q10 50 22.5 65t40.5 15h84l743 1231q34 57 63 76.5t81 19.5h82q53 0 77.5 -21t36.5 -77l281 -1229h94q28 0 34 -15t-3 -65q-10 -50 -23 -65t-41 -15h-467q-28 0 -34 18t4 62q10 50 22.5 65t40.5 15h154l-66 317h-669l-189 -317h170q28 0 34 -15t-3 -65 q-10 -50 -23 -65t-41 -15h-475q-28 0 -34 18zM586 639h547l-84 418q-31 157 -41 278h-29q-63 -137 -145 -280zM649 1726.5q-7 14.5 2 61.5q10 49 21.5 63.5t38.5 14.5h659q25 0 31.5 -14t-0.5 -64q-10 -48 -22.5 -62t-37.5 -14h-659q-26 0 -33 14.5z" />
<glyph unicode="&#x101;" horiz-adv-x="1275" d="M82 377q0 101 25.5 196.5t75.5 176.5t118 142t159.5 95.5t194.5 34.5t179.5 -32.5t111.5 -92.5h27l16 66q6 27 24.5 36t67.5 9q47 0 61 -9.5t9 -37.5l-143 -756q-6 -29 3.5 -39t41.5 -10h43q27 0 34 -15.5t-2 -62.5q-10 -49 -22 -63.5t-43 -14.5h-68q-87 0 -124.5 26 t-43.5 85h-26q-111 -136 -336 -136q-190 0 -286.5 102t-96.5 300zM285 391q0 -258 237 -258q134 0 230.5 90.5t130.5 274.5l14 77q26 137 -37 213t-194 76q-115 0 -203 -65t-133 -172t-45 -236zM431 1193.5q-6 13.5 1 59.5q7 44 20 59t42 15h532q25 0 31.5 -13.5t-0.5 -60.5 q-7 -44 -20 -58.5t-40 -14.5h-534q-26 0 -32 13.5z" />
<glyph unicode="&#x102;" horiz-adv-x="1742" d="M-67 18q-6 18 4 62q10 50 22.5 65t40.5 15h84l743 1231q34 57 63 76.5t81 19.5h82q53 0 77.5 -21t36.5 -77l281 -1229h94q28 0 34 -15t-3 -65q-10 -50 -23 -65t-41 -15h-467q-28 0 -34 18t4 62q10 50 22.5 65t40.5 15h154l-66 317h-669l-189 -317h170q28 0 34 -15t-3 -65 q-10 -50 -23 -65t-41 -15h-475q-28 0 -34 18zM586 639h547l-84 418q-31 157 -41 278h-29q-63 -137 -145 -280zM637 1837q0 36 4 59q5 26 22.5 36t67.5 10q47 0 60.5 -6.5t11.5 -26.5q-4 -36 -4 -51q0 -50 40 -75.5t138 -25.5q113 0 170 35.5t76 112.5q6 24 21 30.5t65 6.5 q47 0 61.5 -9.5t11.5 -31.5q-22 -136 -131 -208.5t-299 -72.5q-156 0 -235.5 58.5t-79.5 158.5z" />
<glyph unicode="&#x103;" horiz-adv-x="1275" d="M82 377q0 101 25.5 196.5t75.5 176.5t118 142t159.5 95.5t194.5 34.5t179.5 -32.5t111.5 -92.5h27l16 66q6 27 24.5 36t67.5 9q47 0 61 -9.5t9 -37.5l-143 -756q-6 -29 3.5 -39t41.5 -10h43q27 0 34 -15.5t-2 -62.5q-10 -49 -22 -63.5t-43 -14.5h-68q-87 0 -124.5 26 t-43.5 85h-26q-111 -136 -336 -136q-190 0 -286.5 102t-96.5 300zM285 391q0 -258 237 -258q134 0 230.5 90.5t130.5 274.5l14 77q26 137 -37 213t-194 76q-115 0 -203 -65t-133 -172t-45 -236zM449 1370q0 19 4 39q6 29 20 37t66 8q40 0 52.5 -7.5t10.5 -25.5 q-4 -40 -4 -55q0 -49 32.5 -71.5t102.5 -22.5q134 0 174 104l13 37q8 24 24 32.5t55 8.5q42 0 56.5 -8.5t11.5 -30.5q-6 -40 -20 -78q-35 -94 -122 -146t-212 -52q-134 0 -199 57.5t-65 173.5z" />
<glyph unicode="&#x104;" horiz-adv-x="1742" d="M-67 18q-6 18 4 62q10 50 22.5 65t40.5 15h84l743 1231q34 57 63 76.5t81 19.5h82q53 0 77.5 -21t36.5 -77l281 -1229h94q28 0 34.5 -15t-3.5 -65q-9 -41 -16.5 -54t-26.5 -24q-230 -133 -230 -248q0 -56 60 -59q30 0 70 12q17 6 25 -2t15 -41q7 -31 4 -42.5t-20 -20.5 q-52 -27 -127 -27q-87 0 -133.5 41.5t-46.5 114.5q0 75 54.5 146.5t152.5 123.5h-312q-28 0 -34 18t4 62q10 50 22.5 65t40.5 15h154l-66 317h-669l-189 -317h170q28 0 34 -15t-3 -65q-10 -50 -23 -65t-41 -15h-475q-28 0 -34 18zM586 639h547l-84 418q-31 157 -41 278h-29 q-63 -137 -145 -280z" />
<glyph unicode="&#x105;" horiz-adv-x="1275" d="M82 377q0 101 25.5 196.5t75.5 176.5t118 142t159.5 95.5t194.5 34.5t179.5 -32.5t111.5 -92.5h27l16 66q6 27 24.5 36t67.5 9q47 0 61 -9.5t9 -37.5l-143 -756q-6 -29 3.5 -39t41.5 -10h43q27 0 34 -15.5t-2 -62.5q-7 -37 -14.5 -51.5t-21.5 -22.5 q-117 -64 -175.5 -128.5t-58.5 -121.5q0 -56 60 -59q28 0 69 12q18 6 26 -2t15 -41q7 -31 4 -42.5t-20 -20.5q-52 -27 -127 -27q-87 0 -133.5 41.5t-46.5 114.5q0 76 57 150t160 124v2q-48 10 -69 35t-26 70h-26q-111 -136 -336 -136q-190 0 -286.5 102t-96.5 300zM285 391 q0 -258 237 -258q134 0 230.5 90.5t130.5 274.5l14 77q26 137 -37 213t-194 76q-115 0 -203 -65t-133 -172t-45 -236z" />
<glyph unicode="&#x106;" horiz-adv-x="1437" d="M98 571q0 203 58 373t167.5 293.5t276.5 192.5t375 69q70 0 166.5 -13t156.5 -32q85 -28 112.5 -70.5t10.5 -123.5l-28 -138q-6 -38 -29 -49.5t-86 -11.5q-56 0 -72 11t-10 44l35 178q-125 41 -291 41q-153 0 -274.5 -58t-199 -160t-118.5 -238t-41 -297q0 -233 104 -335 t353 -102q171 0 350 50q27 6 42 -6.5t26 -59.5q9 -41 4 -59t-31 -27q-88 -32 -204.5 -50t-223.5 -18q-327 0 -478 145.5t-151 450.5zM616 1627q-2 12 13 24l293 229q61 49 184 49q71 0 84 -31q8 -19 -14 -34l-322 -222q-59 -43 -158 -43q-75 0 -80 28z" />
<glyph unicode="&#x107;" horiz-adv-x="1114" d="M82 395q0 130 37.5 241t112.5 198.5t198.5 137.5t284.5 50q111 0 229 -27q72 -19 96 -55.5t11 -110.5l-15 -75q-6 -37 -26 -50.5t-74 -13.5t-70.5 11t-11.5 40l18 105q-90 22 -180 22q-189 0 -300 -124t-111 -328q0 -147 71 -216t234 -69q123 0 268 47q27 8 44 -2t30 -53 q14 -43 9.5 -59.5t-34.5 -28.5q-65 -26 -166.5 -43t-197.5 -17q-238 0 -347.5 101t-109.5 319zM386 1137q1 8 9 16l277 258q52 49 172 49q89 0 90 -28q-2 -11 -14 -21l-314 -258q-49 -43 -141 -43q-83 0 -79 27z" />
<glyph unicode="&#x108;" horiz-adv-x="1437" d="M98 571q0 203 58 373t167.5 293.5t276.5 192.5t375 69q70 0 166.5 -13t156.5 -32q85 -28 112.5 -70.5t10.5 -123.5l-28 -138q-6 -38 -29 -49.5t-86 -11.5q-56 0 -72 11t-10 44l35 178q-125 41 -291 41q-153 0 -274.5 -58t-199 -160t-118.5 -238t-41 -297q0 -233 104 -335 t353 -102q171 0 350 50q27 6 42 -6.5t26 -59.5q9 -41 4 -59t-31 -27q-88 -32 -204.5 -50t-223.5 -18q-327 0 -478 145.5t-151 450.5zM512 1627q1 12 16 24l299 231q61 45 142 45h22q44 0 71 -10t54 -37l227 -227q34 -34 -19 -47q-27 -7 -71 -7q-57 0 -84.5 8t-46.5 27 l-161 162l-209 -164q-44 -33 -152 -33q-86 0 -88 28z" />
<glyph unicode="&#x109;" horiz-adv-x="1114" d="M82 395q0 130 37.5 241t112.5 198.5t198.5 137.5t284.5 50q111 0 229 -27q72 -19 96 -55.5t11 -110.5l-15 -75q-6 -37 -26 -50.5t-74 -13.5t-70.5 11t-11.5 40l18 105q-90 22 -180 22q-189 0 -300 -124t-111 -328q0 -147 71 -216t234 -69q123 0 268 47q27 8 44 -2t30 -53 q14 -43 9.5 -59.5t-34.5 -28.5q-65 -26 -166.5 -43t-197.5 -17q-238 0 -347.5 101t-109.5 319zM341 1141q2 7 11 16l248 254q24 26 53 36.5t84 10.5q53 0 80 -11t41 -36l154 -250q8 -16 6.5 -27t-21.5 -17.5t-59 -6.5q-51 0 -76.5 9t-40.5 34l-104 178l-156 -178 q-21 -24 -49 -33.5t-84 -9.5q-98 0 -87 31z" />
<glyph unicode="&#x10a;" horiz-adv-x="1437" d="M98 571q0 203 58 373t167.5 293.5t276.5 192.5t375 69q70 0 166.5 -13t156.5 -32q85 -28 112.5 -70.5t10.5 -123.5l-28 -138q-6 -38 -29 -49.5t-86 -11.5q-56 0 -72 11t-10 44l35 178q-125 41 -291 41q-153 0 -274.5 -58t-199 -160t-118.5 -238t-41 -297q0 -233 104 -335 t353 -102q171 0 350 50q27 6 42 -6.5t26 -59.5q9 -41 4 -59t-31 -27q-88 -32 -204.5 -50t-223.5 -18q-327 0 -478 145.5t-151 450.5zM852 1767q6 150 137 150h29q58 0 84.5 -25t23.5 -84q-3 -77 -30 -109t-86 -32h-76q-50 0 -68 22t-14 78z" />
<glyph unicode="&#x10b;" horiz-adv-x="1114" d="M82 395q0 130 37.5 241t112.5 198.5t198.5 137.5t284.5 50q111 0 229 -27q72 -19 96 -55.5t11 -110.5l-15 -75q-6 -37 -26 -50.5t-74 -13.5t-70.5 11t-11.5 40l18 105q-90 22 -180 22q-189 0 -300 -124t-111 -328q0 -147 71 -216t234 -69q123 0 268 47q27 8 44 -2t30 -53 q14 -43 9.5 -59.5t-34.5 -28.5q-65 -26 -166.5 -43t-197.5 -17q-238 0 -347.5 101t-109.5 319zM621 1278q8 147 135 147h20q57 0 82.5 -23t24.5 -83q-1 -74 -29 -106.5t-86 -32.5h-63q-51 0 -69 21t-15 77z" />
<glyph unicode="&#x10c;" horiz-adv-x="1439" d="M98 571q0 203 58 373t167.5 293.5t276.5 192.5t375 69q70 0 166.5 -13t156.5 -32q85 -28 112.5 -70.5t10.5 -123.5l-28 -138q-6 -38 -29 -49.5t-86 -11.5q-56 0 -72 11t-10 44l35 178q-125 41 -291 41q-153 0 -274.5 -58t-199 -160t-118.5 -238t-41 -297q0 -233 104 -335 t353 -102q171 0 350 50q27 6 42 -6.5t26 -59.5q9 -41 4 -59t-31 -27q-88 -32 -204.5 -50t-223.5 -18q-327 0 -478 145.5t-151 450.5zM600 1874q-29 29 12 43q25 8 72 8q66 0 94 -7t47 -26l156 -166l211 166q41 33 154 33q84 0 85 -28q0 -11 -16 -23l-301 -229 q-60 -46 -137 -46h-25q-45 0 -72.5 10.5t-52.5 35.5z" />
<glyph unicode="&#x10d;" horiz-adv-x="1114" d="M82 395q0 130 37.5 241t112.5 198.5t198.5 137.5t284.5 50q111 0 229 -27q72 -19 96 -55.5t11 -110.5l-15 -75q-6 -37 -26 -50.5t-74 -13.5t-70.5 11t-11.5 40l18 105q-90 22 -180 22q-189 0 -300 -124t-111 -328q0 -147 71 -216t234 -69q123 0 268 47q27 8 44 -2t30 -53 q14 -43 9.5 -59.5t-34.5 -28.5q-65 -26 -166.5 -43t-197.5 -17q-238 0 -347.5 101t-109.5 319zM396.5 1432.5q2.5 11.5 24.5 18.5t62 7q58 0 81.5 -9t35.5 -34l96 -182l162 182q21 24 49.5 33.5t87.5 9.5q89 0 84 -30q-2 -9 -12 -19l-252 -252q-27 -27 -55.5 -37t-79.5 -10 q-55 0 -79.5 9.5t-41.5 37.5l-156 248q-9 16 -6.5 27.5z" />
<glyph unicode="&#x10e;" horiz-adv-x="1554" d="M-20 18q-6 18 4 62q9 48 21 64t42 16h92l223 1155h-92q-28 0 -33.5 15.5t3.5 64.5q10 50 22.5 65t40.5 15h490q333 0 498 -145.5t165 -428.5q0 -158 -36.5 -295.5t-109.5 -249t-178.5 -191t-248.5 -122.5t-314 -43h-555q-28 0 -34 18zM340 160h238q164 0 293 54.5 t210 152t122.5 228t41.5 286.5q0 225 -117.5 329.5t-359.5 104.5h-205zM467 1874q-29 29 12 43q25 8 72 8q66 0 94 -7t47 -26l156 -166l211 166q41 33 153 33q85 0 86 -28q0 -11 -16 -23l-301 -229q-60 -46 -137 -46h-25q-45 0 -72.5 10.5t-52.5 35.5z" />
<glyph unicode="&#x10f;" horiz-adv-x="1601" d="M82 377q0 178 73.5 325t205.5 233.5t296 86.5q102 0 179 -32.5t112 -92.5h27q0 83 24 201l35 182q4 23 -2.5 31t-30.5 8h-59q-27 0 -35 14t0 51q12 52 35.5 71.5t73.5 19.5h143q57 0 75.5 -21t8.5 -76l-225 -1173q-6 -29 3.5 -39t41.5 -10h43q27 0 34.5 -15.5t-1.5 -62.5 q-10 -49 -22.5 -63.5t-43.5 -14.5h-67q-87 0 -124.5 26t-43.5 85h-25q-119 -136 -344 -136q-190 0 -288.5 100t-98.5 302zM285 391q0 -258 239 -258q144 0 240.5 93.5t126.5 269.5l14 77q24 136 -40 213.5t-195 77.5q-119 0 -208.5 -67.5t-133 -173.5t-43.5 -232zM1350 1069 q55 108 75 191q-51 13 -51 63q0 60 32.5 94.5t86.5 34.5h14q78 0 78 -76q0 -59 -31.5 -149t-80.5 -164q-20 -31 -60 -31h-43q-39 0 -20 37z" />
<glyph unicode="&#x110;" horiz-adv-x="1554" d="M-20 18q-6 18 4 62q9 48 21 64t42 16h92l94 487h-186q-30 0 -37 16t2 60q11 47 22.5 61.5t41.5 14.5h186l100 516h-92q-28 0 -33.5 15.5t3.5 64.5q10 50 22.5 65t40.5 15h490q333 0 498 -145.5t165 -428.5q0 -158 -36.5 -295.5t-109.5 -249t-178.5 -191t-248.5 -122.5 t-314 -43h-555q-28 0 -34 18zM340 160h238q164 0 293 54.5t210 152t122.5 228t41.5 286.5q0 225 -117.5 329.5t-359.5 104.5h-205l-100 -516h184q29 0 35.5 -15t-2.5 -61q-8 -45 -20 -60.5t-42 -15.5h-184z" />
<glyph unicode="&#x111;" horiz-adv-x="1288" d="M82 377q0 178 73.5 325t205.5 233.5t296 86.5q102 0 179 -32.5t112 -92.5h27q0 83 24 201l2 8h-266q-27 0 -32 12t2 58q7 43 19 56t42 13h262l6 35q4 23 -2.5 31t-30.5 8h-59q-27 0 -35 14t0 51q12 52 35.5 71.5t73.5 19.5h143q57 0 75.5 -21t8.5 -76l-26 -133h133 q26 0 31 -11t-1 -58q-7 -44 -19 -57t-40 -13h-131l-172 -901q-6 -29 3.5 -39t41.5 -10h43q27 0 34.5 -15.5t-1.5 -62.5q-10 -49 -22.5 -63.5t-43.5 -14.5h-67q-87 0 -124.5 26t-43.5 85h-25q-119 -136 -344 -136q-190 0 -288.5 100t-98.5 302zM285 391q0 -258 239 -258 q144 0 240.5 93.5t126.5 269.5l14 77q24 136 -40 213.5t-195 77.5q-119 0 -208.5 -67.5t-133 -173.5t-43.5 -232z" />
<glyph unicode="&#x112;" horiz-adv-x="1447" d="M-20 18q-6 18 4 62q10 50 22.5 65t40.5 15h92l223 1155h-92q-28 0 -33.5 15.5t3.5 64.5q10 50 22.5 65t40.5 15h1063q64 0 81.5 -19t6.5 -78l-45 -233q-6 -31 -27 -43t-77 -12q-55 0 -70.5 11.5t-9.5 43.5l30 170h-692l-94 -484h467l14 78q5 30 26 43t77 13 q51 0 68.5 -11.5t11.5 -44.5l-62 -327q-5 -29 -26 -41.5t-76 -12.5q-54 0 -69.5 12.5t-10.5 43.5l16 88h-465l-98 -512h705l30 172q5 30 26.5 42.5t78.5 12.5q55 0 71.5 -12t10.5 -43l-45 -236q-12 -58 -37 -77t-90 -19h-1078q-28 0 -34 18zM545 1726.5q-7 14.5 2 61.5 q10 49 21.5 63.5t37.5 14.5h660q25 0 31.5 -14t-1.5 -64q-10 -48 -22 -62t-37 -14h-659q-26 0 -33 14.5z" />
<glyph unicode="&#x113;" horiz-adv-x="1130" d="M82 365q0 312 156.5 484.5t431.5 172.5q188 0 289.5 -79t101.5 -214q0 -153 -119.5 -238t-368.5 -85h-292v-41q0 -119 73.5 -176.5t235.5 -57.5q125 0 270 47q27 8 44 -2t30 -53q14 -43 9.5 -59.5t-34.5 -28.5q-65 -26 -166.5 -43t-197.5 -17q-463 0 -463 390zM297 549 h301q140 0 206 46t66 126q0 67 -57.5 107t-167.5 40q-143 0 -231.5 -84t-116.5 -235zM376 1193.5q-6 13.5 1 59.5q8 44 20 59t41 15h533q25 0 31 -13.5t-1 -60.5q-7 -44 -19.5 -58.5t-39.5 -14.5h-534q-26 0 -32 13.5z" />
<glyph unicode="&#x114;" horiz-adv-x="1447" d="M-20 18q-6 18 4 62q10 50 22.5 65t40.5 15h92l223 1155h-92q-28 0 -33.5 15.5t3.5 64.5q10 50 22.5 65t40.5 15h1063q64 0 81.5 -19t6.5 -78l-45 -233q-6 -31 -27 -43t-77 -12q-55 0 -70.5 11.5t-9.5 43.5l30 170h-692l-94 -484h467l14 78q5 30 26 43t77 13 q51 0 68.5 -11.5t11.5 -44.5l-62 -327q-5 -29 -26 -41.5t-76 -12.5q-54 0 -69.5 12.5t-10.5 43.5l16 88h-465l-98 -512h705l30 172q5 30 26.5 42.5t78.5 12.5q55 0 71.5 -12t10.5 -43l-45 -236q-12 -58 -37 -77t-90 -19h-1078q-28 0 -34 18zM571 1837q0 36 4 59q5 26 23 36 t68 10q47 0 60 -6t11 -27q-4 -36 -4 -51q0 -50 40 -75.5t138 -25.5q113 0 170 35.5t76 112.5q6 24 21 30.5t65 6.5q47 0 62 -9.5t12 -31.5q-22 -136 -131 -208.5t-299 -72.5q-156 0 -236 58.5t-80 158.5z" />
<glyph unicode="&#x115;" horiz-adv-x="1130" d="M82 365q0 312 156.5 484.5t431.5 172.5q188 0 289.5 -79t101.5 -214q0 -153 -119.5 -238t-368.5 -85h-292v-41q0 -119 73.5 -176.5t235.5 -57.5q125 0 270 47q27 8 44 -2t30 -53q14 -43 9.5 -59.5t-34.5 -28.5q-65 -26 -166.5 -43t-197.5 -17q-463 0 -463 390zM297 549 h301q140 0 206 46t66 126q0 67 -57.5 107t-167.5 40q-143 0 -231.5 -84t-116.5 -235zM399 1370q0 19 4 39q6 29 20 37t66 8q40 0 53 -7.5t11 -25.5q-4 -40 -4 -55q0 -49 32.5 -71.5t102.5 -22.5q134 0 174 104l12 37q8 24 24.5 32.5t55.5 8.5q42 0 56.5 -8.5t11.5 -30.5 q-5 -35 -21 -78q-36 -94 -122 -146t-211 -52q-265 0 -265 231z" />
<glyph unicode="&#x116;" horiz-adv-x="1447" d="M-20 18q-6 18 4 62q10 50 22.5 65t40.5 15h92l223 1155h-92q-28 0 -33.5 15.5t3.5 64.5q10 50 22.5 65t40.5 15h1063q64 0 81.5 -19t6.5 -78l-45 -233q-6 -31 -27 -43t-77 -12q-55 0 -70.5 11.5t-9.5 43.5l30 170h-692l-94 -484h467l14 78q5 30 26 43t77 13 q51 0 68.5 -11.5t11.5 -44.5l-62 -327q-5 -29 -26 -41.5t-76 -12.5q-54 0 -69.5 12.5t-10.5 43.5l16 88h-465l-98 -512h705l30 172q5 30 26.5 42.5t78.5 12.5q55 0 71.5 -12t10.5 -43l-45 -236q-12 -58 -37 -77t-90 -19h-1078q-28 0 -34 18zM811 1767q6 150 137 150h29 q58 0 84.5 -25t23.5 -84q-3 -77 -30 -109t-86 -32h-76q-50 0 -68 22t-14 78z" />
<glyph unicode="&#x117;" horiz-adv-x="1130" d="M82 365q0 312 156.5 484.5t431.5 172.5q188 0 289.5 -79t101.5 -214q0 -153 -119.5 -238t-368.5 -85h-292v-41q0 -119 73.5 -176.5t235.5 -57.5q125 0 270 47q27 8 44 -2t30 -53q14 -43 9.5 -59.5t-34.5 -28.5q-65 -26 -166.5 -43t-197.5 -17q-463 0 -463 390zM297 549 h301q140 0 206 46t66 126q0 67 -57.5 107t-167.5 40q-143 0 -231.5 -84t-116.5 -235zM567 1278q8 147 135 147h21q57 0 82 -23t24 -83q-1 -74 -28.5 -106.5t-85.5 -32.5h-64q-51 0 -69 21t-15 77z" />
<glyph unicode="&#x118;" horiz-adv-x="1447" d="M-20 18q-6 18 4 62q10 50 22.5 65t40.5 15h92l223 1155h-92q-28 0 -33.5 15.5t3.5 64.5q10 50 22.5 65t40.5 15h1063q64 0 81.5 -19t6.5 -78l-45 -233q-6 -31 -27 -43t-77 -12q-55 0 -70.5 11.5t-9.5 43.5l30 170h-692l-94 -484h467l14 78q5 30 26 43t77 13 q51 0 68.5 -11.5t11.5 -44.5l-62 -327q-5 -29 -26 -41.5t-76 -12.5q-54 0 -69.5 12.5t-10.5 43.5l16 88h-465l-98 -512h705l30 172q5 30 26.5 42.5t78.5 12.5q55 0 71.5 -12t10.5 -43l-45 -236q-7 -38 -17.5 -55t-32.5 -29q-83 -47 -114 -69q-135 -100 -135 -189 q0 -56 59 -59q29 0 70 12q18 6 26 -2t15 -41q7 -31 4 -42.5t-21 -20.5q-52 -27 -127 -27q-87 0 -133.5 41.5t-46.5 114.5q0 75 54.5 146.5t152.5 123.5h-959q-28 0 -34 18z" />
<glyph unicode="&#x119;" horiz-adv-x="1130" d="M82 365q0 312 156.5 484.5t431.5 172.5q188 0 289.5 -79t101.5 -214q0 -153 -119.5 -238t-368.5 -85h-292v-41q0 -119 73.5 -176.5t235.5 -57.5q125 0 270 47q27 8 44 -2t30 -53q14 -43 9 -59.5t-34 -28.5q-18 -8 -49 -25q-112 -61 -169.5 -130t-57.5 -126q0 -56 59 -59 q30 0 70 12q18 6 26 -2t15 -41q7 -31 4 -42.5t-21 -20.5q-52 -27 -127 -27q-87 0 -133.5 41.5t-46.5 114.5q0 69 44 134.5t128 117.5q-65 -7 -106 -7q-463 0 -463 390zM297 549h301q140 0 206 46t66 126q0 67 -57.5 107t-167.5 40q-143 0 -231.5 -84t-116.5 -235z" />
<glyph unicode="&#x11a;" horiz-adv-x="1447" d="M-20 18q-6 18 4 62q10 50 22.5 65t40.5 15h92l223 1155h-92q-28 0 -33.5 15.5t3.5 64.5q10 50 22.5 65t40.5 15h1063q64 0 81.5 -19t6.5 -78l-45 -233q-6 -31 -27 -43t-77 -12q-55 0 -70.5 11.5t-9.5 43.5l30 170h-692l-94 -484h467l14 78q5 30 26 43t77 13 q51 0 68.5 -11.5t11.5 -44.5l-62 -327q-5 -29 -26 -41.5t-76 -12.5q-54 0 -69.5 12.5t-10.5 43.5l16 88h-465l-98 -512h705l30 172q5 30 26.5 42.5t78.5 12.5q55 0 71.5 -12t10.5 -43l-45 -236q-12 -58 -37 -77t-90 -19h-1078q-28 0 -34 18zM537 1874q-29 29 12 43 q25 8 72 8q66 0 94 -7t47 -26l156 -166l210 166q41 33 154 33q85 0 86 -28q0 -11 -16 -23l-301 -229q-60 -46 -138 -46h-24q-45 0 -72.5 10.5t-52.5 35.5z" />
<glyph unicode="&#x11b;" horiz-adv-x="1130" d="M82 365q0 312 156.5 484.5t431.5 172.5q188 0 289.5 -79t101.5 -214q0 -153 -119.5 -238t-368.5 -85h-292v-41q0 -119 73.5 -176.5t235.5 -57.5q125 0 270 47q27 8 44 -2t30 -53q14 -43 9.5 -59.5t-34.5 -28.5q-65 -26 -166.5 -43t-197.5 -17q-463 0 -463 390zM297 549 h301q140 0 206 46t66 126q0 67 -57.5 107t-167.5 40q-143 0 -231.5 -84t-116.5 -235zM419.5 1432.5q2.5 11.5 24.5 18.5t62 7q58 0 81.5 -9t35.5 -34l96 -182l162 182q21 24 49 33.5t88 9.5q89 0 84 -30q-2 -9 -12 -19l-252 -252q-26 -26 -55.5 -36.5t-80.5 -10.5 q-55 0 -79 9.5t-41 37.5l-156 248q-9 16 -6.5 27.5z" />
<glyph unicode="&#x11c;" horiz-adv-x="1579" d="M98 567q0 204 61.5 374.5t177 295t292 193.5t397.5 69q191 0 338 -45q89 -27 117.5 -72.5t13.5 -128.5l-22 -118q-6 -36 -29 -49t-88 -13q-60 0 -77 11.5t-11 43.5l30 166q-141 41 -309 41q-162 0 -292 -56.5t-215 -157t-130 -238t-45 -301.5q0 -232 105 -334.5 t346 -102.5q174 0 348 58l82 424h-391q-27 0 -33 13t2 67q10 50 22.5 64.5t40.5 14.5h476q64 0 83.5 -21t8.5 -77l-125 -647q-6 -29 -29 -41t-76 -12q-49 0 -67 16t-15 57h-26q-63 -40 -158 -63t-199 -23q-300 0 -452 149t-152 443zM580 1627q1 12 16 24l299 231 q61 45 141 45h23q44 0 71 -10t54 -37l227 -227q34 -34 -19 -47q-27 -7 -71 -7q-57 0 -84.5 8t-46.5 27l-162 162l-209 -164q-44 -33 -151 -33q-86 0 -88 28z" />
<glyph unicode="&#x11d;" horiz-adv-x="1271" d="M13 -370q-3 21 20 65q22 44 40.5 53.5t43.5 -4.5q151 -72 319 -72q154 0 240.5 67.5t118.5 219.5l6 29q17 89 45 159h-27q-63 -72 -143.5 -105.5t-190.5 -33.5q-192 0 -291.5 98.5t-99.5 290.5q0 168 74.5 311.5t207 228.5t292.5 85q118 0 191.5 -30t115.5 -93h26l17 64 q6 25 24 35t68 10q47 0 61.5 -9t8.5 -38l-185 -971q-47 -248 -183.5 -360.5t-393.5 -112.5q-217 0 -371 77q-31 15 -34 36zM297 414q0 -248 240 -248q144 0 244 94t130 264l11 60q23 132 -41 206t-195 74q-169 0 -279 -126.5t-110 -323.5zM394 1141q3 7 12 16l247 254 q24 26 53.5 36.5t84.5 10.5q53 0 79.5 -11t40.5 -36l154 -250q8 -16 6.5 -27t-21.5 -17.5t-59 -6.5q-51 0 -76.5 9t-40.5 34l-104 178l-156 -178q-21 -24 -49 -33.5t-84 -9.5q-97 0 -87 31z" />
<glyph unicode="&#x11e;" horiz-adv-x="1579" d="M98 567q0 204 61.5 374.5t177 295t292 193.5t397.5 69q191 0 338 -45q89 -27 117.5 -72.5t13.5 -128.5l-22 -118q-6 -36 -29 -49t-88 -13q-60 0 -77 11.5t-11 43.5l30 166q-141 41 -309 41q-162 0 -292 -56.5t-215 -157t-130 -238t-45 -301.5q0 -232 105 -334.5 t346 -102.5q174 0 348 58l82 424h-391q-27 0 -33 13t2 67q10 50 22.5 64.5t40.5 14.5h476q64 0 83.5 -21t8.5 -77l-125 -647q-6 -29 -29 -41t-76 -12q-49 0 -67 16t-15 57h-26q-63 -40 -158 -63t-199 -23q-300 0 -452 149t-152 443zM659 1837q0 30 5 59q5 26 22.5 36 t67.5 10q47 0 60 -6t11 -27q-4 -36 -4 -51q0 -50 40 -75.5t138 -25.5q113 0 170 35.5t76 112.5q6 24 21 30.5t65 6.5q47 0 62 -9.5t12 -31.5q-22 -136 -131 -208.5t-299 -72.5q-156 0 -236 58.5t-80 158.5z" />
<glyph unicode="&#x11f;" horiz-adv-x="1271" d="M13 -370q-3 21 20 65q22 44 40.5 53.5t43.5 -4.5q151 -72 319 -72q154 0 240.5 67.5t118.5 219.5l6 29q17 89 45 159h-27q-63 -72 -143.5 -105.5t-190.5 -33.5q-192 0 -291.5 98.5t-99.5 290.5q0 168 74.5 311.5t207 228.5t292.5 85q118 0 191.5 -30t115.5 -93h26l17 64 q6 25 24 35t68 10q47 0 61.5 -9t8.5 -38l-185 -971q-47 -248 -183.5 -360.5t-393.5 -112.5q-217 0 -371 77q-31 15 -34 36zM297 414q0 -248 240 -248q144 0 244 94t130 264l11 60q23 132 -41 206t-195 74q-169 0 -279 -126.5t-110 -323.5zM444 1370q0 14 5 39q6 29 20 37 t66 8q40 0 52.5 -7.5t10.5 -25.5q-4 -40 -4 -55q0 -49 32.5 -71.5t102.5 -22.5q134 0 174 104l12 37q8 24 24.5 32.5t55.5 8.5q42 0 56.5 -8.5t11.5 -30.5q-5 -35 -21 -78q-36 -94 -122 -146t-211 -52q-265 0 -265 231z" />
<glyph unicode="&#x120;" horiz-adv-x="1579" d="M98 567q0 204 61.5 374.5t177 295t292 193.5t397.5 69q191 0 338 -45q89 -27 117.5 -72.5t13.5 -128.5l-22 -118q-6 -36 -29 -49t-88 -13q-60 0 -77 11.5t-11 43.5l30 166q-141 41 -309 41q-162 0 -292 -56.5t-215 -157t-130 -238t-45 -301.5q0 -232 105 -334.5 t346 -102.5q174 0 348 58l82 424h-391q-27 0 -33 13t2 67q10 50 22.5 64.5t40.5 14.5h476q64 0 83.5 -21t8.5 -77l-125 -647q-6 -29 -29 -41t-76 -12q-49 0 -67 16t-15 57h-26q-63 -40 -158 -63t-199 -23q-300 0 -452 149t-152 443zM915 1767q6 150 138 150h28 q59 0 85.5 -25t23.5 -84q-3 -77 -30.5 -109t-86.5 -32h-76q-50 0 -68 22t-14 78z" />
<glyph unicode="&#x121;" horiz-adv-x="1271" d="M13 -370q-3 21 20 65q22 44 40.5 53.5t43.5 -4.5q151 -72 319 -72q154 0 240.5 67.5t118.5 219.5l6 29q17 89 45 159h-27q-63 -72 -143.5 -105.5t-190.5 -33.5q-192 0 -291.5 98.5t-99.5 290.5q0 168 74.5 311.5t207 228.5t292.5 85q118 0 191.5 -30t115.5 -93h26l17 64 q6 25 24 35t68 10q47 0 61.5 -9t8.5 -38l-185 -971q-47 -248 -183.5 -360.5t-393.5 -112.5q-217 0 -371 77q-31 15 -34 36zM297 414q0 -248 240 -248q144 0 244 94t130 264l11 60q23 132 -41 206t-195 74q-169 0 -279 -126.5t-110 -323.5zM649 1278q8 147 135 147h21 q57 0 82 -23t24 -83q-1 -74 -28.5 -106.5t-85.5 -32.5h-64q-51 0 -69 21t-15 77z" />
<glyph unicode="&#x122;" horiz-adv-x="1579" d="M98 567q0 204 61.5 374.5t177 295t292 193.5t397.5 69q191 0 338 -45q89 -27 117.5 -72.5t13.5 -128.5l-22 -118q-6 -36 -29 -49t-88 -13q-60 0 -77 11.5t-11 43.5l30 166q-141 41 -309 41q-162 0 -292 -56.5t-215 -157t-130 -238t-45 -301.5q0 -232 105 -334.5 t346 -102.5q174 0 348 58l82 424h-391q-27 0 -33 13t2 67q10 50 22.5 64.5t40.5 14.5h476q64 0 83.5 -21t8.5 -77l-125 -647q-6 -29 -29 -41t-76 -12q-49 0 -67 16t-15 57h-26q-63 -40 -158 -63t-199 -23q-300 0 -452 149t-152 443zM575 -530q58 112 76 190q-51 13 -51 64 q0 60 32.5 94.5t86.5 34.5h14q78 0 78 -76q0 -59 -31.5 -149.5t-81.5 -164.5q-19 -30 -59 -30h-43q-40 0 -21 37z" />
<glyph unicode="&#x123;" horiz-adv-x="1271" d="M13 -370q-3 21 20 65q22 44 40.5 53.5t43.5 -4.5q151 -72 319 -72q154 0 240.5 67.5t118.5 219.5l6 29q17 89 45 159h-27q-63 -72 -143.5 -105.5t-190.5 -33.5q-192 0 -291.5 98.5t-99.5 290.5q0 168 74.5 311.5t207 228.5t292.5 85q118 0 191.5 -30t115.5 -93h26l17 64 q6 25 24 35t68 10q47 0 61.5 -9t8.5 -38l-185 -971q-47 -248 -183.5 -360.5t-393.5 -112.5q-217 0 -371 77q-31 15 -34 36zM297 414q0 -248 240 -248q144 0 244 94t130 264l11 60q23 132 -41 206t-195 74q-169 0 -279 -126.5t-110 -323.5zM639 1255q0 59 31.5 149.5 t81.5 164.5q19 30 59 30h43q39 0 20 -36q-55 -108 -75 -191q51 -13 51 -63q0 -60 -32.5 -94.5t-86.5 -34.5h-14q-78 0 -78 75z" />
<glyph unicode="&#x124;" horiz-adv-x="1683" d="M-20 18q-6 18 4 62q10 50 22.5 65t40.5 15h92l223 1155h-94q-28 0 -33.5 15.5t3.5 64.5q10 50 22.5 65t40.5 15h385q28 0 34.5 -18t-3.5 -62q-10 -50 -23 -65t-41 -15h-90l-90 -475h799l94 475h-94q-28 0 -34 15.5t3 64.5q10 50 23 65t41 15h385q28 0 34 -18t-4 -62 q-10 -50 -22.5 -65t-40.5 -15h-90l-226 -1155h95q28 0 33.5 -15t-3.5 -65q-10 -50 -22.5 -65t-40.5 -15h-385q-28 0 -34.5 18t3.5 62q10 50 23 65t41 15h90l100 520h-799l-102 -520h92q28 0 34 -15t-3 -65q-10 -50 -23 -65t-41 -15h-385q-28 0 -34 18zM574 1627q1 12 16 24 l299 231q61 45 141 45h23q44 0 71 -10t54 -37l227 -227q34 -34 -19 -47q-27 -7 -71 -7q-57 0 -84.5 8t-46.5 27l-162 162l-209 -164q-44 -33 -151 -33q-86 0 -88 28z" />
<glyph unicode="&#x125;" horiz-adv-x="1325" d="M83 1618q2 7 11 16l248 254q24 26 53 36.5t84 10.5q53 0 80 -11t41 -36l154 -250q8 -16 6.5 -27t-21.5 -17.5t-59 -6.5q-51 0 -76.5 9t-40.5 34l-104 178l-156 -178q-21 -24 -49 -33.5t-84 -9.5q-98 0 -87 31zM129 39l242 1241q4 23 -2.5 31t-30.5 8h-59q-27 0 -35 14 t0 51q12 52 35 71.5t73 19.5h144q57 0 75.5 -21t8.5 -76l-43 -227q-32 -175 -86 -295h28q63 88 155.5 127t223.5 39q167 0 242.5 -77.5t75.5 -223.5q0 -67 -21 -170l-68 -346q-6 -30 4 -39.5t48 -9.5h37q27 0 34 -15.5t-2 -62.5q-10 -49 -22 -63.5t-43 -14.5h-86 q-92 0 -132 31t-40 96q0 29 6 59l63 326q23 127 23 174q0 182 -180 182q-146 0 -252.5 -110t-143.5 -301l-79 -418q-6 -32 -29 -41.5t-78 -9.5t-73.5 9.5t-12.5 41.5z" />
<glyph unicode="&#x126;" horiz-adv-x="1683" d="M-20 18q-6 18 4 62q10 50 22.5 65t40.5 15h92l164 854h-141q-30 0 -37 16t2 60q11 47 22 61t41 14h144l28 150h-94q-28 0 -33.5 15.5t3.5 64.5q10 50 22.5 65t40.5 15h385q28 0 34.5 -18t-3.5 -62q-10 -50 -23 -65t-41 -15h-90l-28 -150h800l31 150h-94q-28 0 -34 15.5 t3 64.5q10 50 23 65t41 15h385q28 0 34 -18t-4 -62q-10 -50 -22.5 -65t-40.5 -15h-90l-29 -150h139q29 0 35.5 -14.5t-2.5 -60.5q-8 -46 -19.5 -61t-41.5 -15h-142l-166 -854h95q28 0 33.5 -15t-3.5 -65q-10 -50 -22.5 -65t-40.5 -15h-385q-28 0 -34.5 18t3.5 62 q10 50 23 65t41 15h90l100 520h-799l-102 -520h92q28 0 34 -15t-3 -65q-10 -50 -23 -65t-41 -15h-385q-28 0 -34 18zM473 840h799l35 174h-801z" />
<glyph unicode="&#x127;" horiz-adv-x="1327" d="M131 39l203 1046h-115q-27 0 -32.5 12t1.5 58q7 43 19.5 56.5t42.5 13.5h110l13 55q4 23 -2.5 31t-30.5 8h-59q-27 0 -35 14t0 51q12 52 35 71.5t73 19.5h144q57 0 75.5 -21t8.5 -76l-29 -153h307q26 0 31.5 -11.5t-0.5 -58.5q-7 -44 -19.5 -57t-40.5 -13h-307 q-27 -129 -71 -229h28q63 88 155.5 127t223.5 39q167 0 242.5 -77.5t75.5 -223.5q0 -67 -21 -170l-67 -346q-6 -30 3.5 -39.5t47.5 -9.5h37q27 0 34 -15.5t-2 -62.5q-10 -49 -22 -63.5t-43 -14.5h-86q-92 0 -132 31t-40 96q0 29 6 59l63 326q23 127 23 174q0 182 -180 182 q-146 0 -252.5 -110t-143.5 -301l-79 -418q-6 -32 -29 -41.5t-78 -9.5t-73.5 9.5t-12.5 41.5z" />
<glyph unicode="&#x128;" horiz-adv-x="681" d="M-20 18q-6 18 4 62q10 50 22.5 65t40.5 15h92l223 1155h-92q-28 0 -33.5 15.5t3.5 64.5q10 50 22.5 65t40.5 15h385q28 0 34.5 -18t-3.5 -62q-10 -50 -23 -65t-41 -15h-92l-223 -1155h92q28 0 34 -15t-3 -65q-10 -50 -23 -65t-41 -15h-385q-28 0 -34 18zM58 1734.5 q-7 16.5 3 32.5q93 166 273 166q54 0 105 -20.5t83.5 -45t71.5 -45t72 -20.5q35 0 61 18.5t49 61.5q22 39 92 4q60 -26 41 -69q-82 -177 -260 -177q-53 0 -102 20t-79.5 44.5t-69.5 44.5t-76 20q-82 0 -138 -83q-10 -20 -31.5 -19t-56.5 27q-31 24 -38 40.5z" />
<glyph unicode="&#x129;" horiz-adv-x="610" d="M-54.5 1244.5q-6.5 15.5 3.5 31.5q44 79 103.5 114t146.5 35q48 0 91.5 -18.5t70.5 -40.5t59.5 -40.5t60.5 -18.5q37 0 62 16t49 57q19 37 82 2q32 -19 39 -32t-2 -33q-71 -158 -238 -158q-45 0 -87.5 18.5t-69.5 40t-60 40t-63 18.5q-39 0 -67 -14.5t-65 -63.5 q-23 -30 -79 10q-30 21 -36.5 36.5zM133 127q0 29 6 59l119 619q4 22 -3 29.5t-30 7.5h-53q-27 0 -35 14t0 51q12 52 35.5 71t73.5 19h139q58 0 76 -20t8 -76l-135 -694q-6 -31 3.5 -41t47.5 -10h39q27 0 34.5 -15.5t-1.5 -62.5q-10 -49 -22.5 -63.5t-43.5 -14.5h-86 q-92 0 -132 31t-40 96z" />
<glyph unicode="&#x12a;" horiz-adv-x="681" d="M-20 18q-6 18 4 62q10 50 22.5 65t40.5 15h92l223 1155h-92q-28 0 -33.5 15.5t3.5 64.5q10 50 22.5 65t40.5 15h385q28 0 34.5 -18t-3.5 -62q-10 -50 -23 -65t-41 -15h-92l-223 -1155h92q28 0 34 -15t-3 -65q-10 -50 -23 -65t-41 -15h-385q-28 0 -34 18zM129 1726.5 q-7 14.5 2 61.5q10 49 21.5 63.5t37.5 14.5h660q25 0 31.5 -14t-0.5 -64q-10 -48 -22.5 -62t-37.5 -14h-659q-26 0 -33 14.5z" />
<glyph unicode="&#x12b;" horiz-adv-x="610" d="M36 1193.5q-6 13.5 1 59.5q8 44 20 59t41 15h533q25 0 31.5 -13.5t-0.5 -60.5q-7 -44 -20 -58.5t-40 -14.5h-534q-26 0 -32 13.5zM133 127q0 29 6 59l119 619q4 22 -3 29.5t-30 7.5h-53q-27 0 -35 14t0 51q12 52 35.5 71t73.5 19h139q58 0 76 -20t8 -76l-135 -694 q-6 -31 3.5 -41t47.5 -10h39q27 0 34.5 -15.5t-1.5 -62.5q-10 -49 -22.5 -63.5t-43.5 -14.5h-86q-92 0 -132 31t-40 96z" />
<glyph unicode="&#x12c;" horiz-adv-x="681" d="M-20 18q-6 18 4 62q10 50 22.5 65t40.5 15h92l223 1155h-92q-28 0 -33.5 15.5t3.5 64.5q10 50 22.5 65t40.5 15h385q28 0 34.5 -18t-3.5 -62q-10 -50 -23 -65t-41 -15h-92l-223 -1155h92q28 0 34 -15t-3 -65q-10 -50 -23 -65t-41 -15h-385q-28 0 -34 18zM139 1837 q0 36 4 59q5 26 22.5 36t67.5 10q47 0 60.5 -6.5t11.5 -26.5q-4 -36 -4 -51q0 -50 40 -75.5t138 -25.5q113 0 170 35.5t76 112.5q6 24 21 30.5t65 6.5q47 0 62 -9.5t12 -31.5q-22 -136 -131 -208.5t-299 -72.5q-156 0 -236 58.5t-80 158.5z" />
<glyph unicode="&#x12d;" horiz-adv-x="610" d="M53 1370q0 19 4 39q6 29 20 37t66 8q40 0 53 -7.5t11 -25.5q-4 -40 -4 -55q0 -49 32.5 -71.5t102.5 -22.5q134 0 174 104l12 37q8 24 24.5 32.5t55.5 8.5q42 0 56.5 -8.5t11.5 -30.5q-5 -35 -21 -78q-35 -94 -122 -146t-212 -52q-134 0 -199 57.5t-65 173.5zM133 127 q0 29 6 59l119 619q4 22 -3 29.5t-30 7.5h-53q-27 0 -35 14t0 51q12 52 35.5 71t73.5 19h139q58 0 76 -20t8 -76l-135 -694q-6 -31 3.5 -41t47.5 -10h39q27 0 34.5 -15.5t-1.5 -62.5q-10 -49 -22.5 -63.5t-43.5 -14.5h-86q-92 0 -132 31t-40 96z" />
<glyph unicode="&#x12e;" horiz-adv-x="681" d="M-20 18q-6 18 4 62q10 50 22.5 65t40.5 15h92l223 1155h-92q-28 0 -33.5 15.5t3.5 64.5q10 50 22.5 65t40.5 15h385q28 0 34.5 -18t-3.5 -62q-10 -50 -23 -65t-41 -15h-92l-223 -1155h92q28 0 34.5 -15t-3.5 -65q-9 -41 -16.5 -54t-26.5 -24q-230 -133 -230 -248 q0 -56 60 -59q28 0 69 12q18 6 26 -2t15 -41q7 -31 4 -42.5t-20 -20.5q-52 -27 -127 -27q-87 0 -133.5 41.5t-46.5 114.5q0 75 54.5 146.5t152.5 123.5h-230q-28 0 -34 18z" />
<glyph unicode="&#x12f;" horiz-adv-x="610" d="M33 -270q0 76 57 149t160 123v2q-62 7 -89.5 37.5t-27.5 85.5q0 29 6 59l119 619q4 22 -3 29.5t-30 7.5h-53q-27 0 -35 14t0 51q12 52 35.5 71t73.5 19h139q58 0 76 -20t8 -76l-135 -694q-6 -31 3.5 -41t47.5 -10h39q27 0 34.5 -15.5t-1.5 -62.5q-7 -37 -15 -51.5 t-22 -22.5q-117 -64 -175.5 -128.5t-58.5 -121.5q0 -56 60 -59q28 0 69 12q18 6 26 -2t15 -41q7 -31 4 -42.5t-20 -20.5q-52 -27 -127 -27q-87 0 -133.5 41.5t-46.5 114.5zM289 1307q0 76 33.5 116.5t93.5 40.5h28q54 0 79.5 -22.5t25.5 -69.5q0 -74 -26 -108.5t-81 -34.5 h-73q-43 0 -61.5 18.5t-18.5 59.5z" />
<glyph unicode="&#x130;" horiz-adv-x="681" d="M-20 18q-6 18 4 62q10 50 22.5 65t40.5 15h92l223 1155h-92q-28 0 -33.5 15.5t3.5 64.5q10 50 22.5 65t40.5 15h385q28 0 34.5 -18t-3.5 -62q-10 -50 -23 -65t-41 -15h-92l-223 -1155h92q28 0 34 -15t-3 -65q-10 -50 -23 -65t-41 -15h-385q-28 0 -34 18zM389 1767 q6 150 137 150h29q59 0 85.5 -25t23.5 -84q-3 -77 -30.5 -109t-86.5 -32h-76q-50 0 -68 22t-14 78z" />
<glyph unicode="&#x131;" horiz-adv-x="610" d="M133 127q0 29 6 59l119 619q4 22 -3 29.5t-30 7.5h-53q-27 0 -35 14t0 51q12 52 35.5 71t73.5 19h139q58 0 76 -20t8 -76l-135 -694q-6 -31 3.5 -41t47.5 -10h39q27 0 34.5 -15.5t-1.5 -62.5q-10 -49 -22.5 -63.5t-43.5 -14.5h-86q-92 0 -132 31t-40 96z" />
<glyph unicode="&#x132;" horiz-adv-x="1650" d="M-20 18q-6 18 4 62q10 50 22.5 65t40.5 15h92l223 1155h-92q-28 0 -33.5 15.5t3.5 64.5q10 50 22.5 65t40.5 15h385q28 0 34.5 -18t-3.5 -62q-10 -50 -23 -65t-41 -15h-92l-223 -1155h92q28 0 34 -15t-3 -65q-10 -50 -23 -65t-41 -15h-385q-28 0 -34 18zM593 58.5 q-3 19.5 15 62.5q22 45 37.5 55.5t46.5 -0.5q101 -37 199 -37q125 0 197.5 73.5t101.5 227.5l170 875h-170q-28 0 -34 15.5t3 64.5q10 50 23 65t41 15h454q28 0 34.5 -18t-3.5 -62q-10 -50 -22.5 -65t-40.5 -15h-84l-164 -850q-50 -258 -170 -374t-344 -116q-70 0 -144 14.5 t-118 37.5q-25 12 -28 31.5z" />
<glyph unicode="&#x133;" horiz-adv-x="1212" d="M133 127q0 29 6 59l119 619q4 22 -3 29.5t-30 7.5h-53q-27 0 -35 14t0 51q12 52 35.5 71t73.5 19h139q58 0 76 -20t8 -76l-135 -694q-6 -31 3.5 -41t47.5 -10h39q27 0 34.5 -15.5t-1.5 -62.5q-10 -49 -22.5 -63.5t-43.5 -14.5h-86q-92 0 -132 31t-40 96zM289 1307 q0 76 33.5 116.5t93.5 40.5h28q54 0 79.5 -22.5t25.5 -69.5q0 -74 -26 -108.5t-81 -34.5h-73q-43 0 -61.5 18.5t-18.5 59.5zM326 -423.5q-3 16.5 16 61.5q21 44 35.5 53.5t44.5 1.5q66 -17 104 -17q72 0 110.5 41t59.5 148l181 940q4 22 -3 29.5t-30 7.5h-53q-27 0 -35 14 t0 51q12 52 35 71t73 19h140q58 0 75.5 -20t7.5 -76l-196 -1022q-37 -196 -127.5 -279t-243.5 -83q-88 0 -164 32q-27 11 -30 27.5zM907 1307q0 76 33.5 116.5t93.5 40.5h29q54 0 79 -22.5t25 -69.5q0 -74 -26 -108.5t-80 -34.5h-74q-43 0 -61.5 18.5t-18.5 59.5z" />
<glyph unicode="&#x134;" horiz-adv-x="989" d="M-68.5 58.5q-2.5 19.5 15.5 62.5q22 45 37.5 55.5t46.5 -0.5q101 -37 198 -37q125 0 197.5 73.5t101.5 227.5l170 875h-170q-28 0 -33.5 15.5t3.5 64.5q10 50 22.5 65t40.5 15h455q28 0 34.5 -18t-3.5 -62q-10 -50 -23 -65t-41 -15h-84l-164 -850q-50 -258 -170 -374 t-344 -116q-70 0 -144 14.5t-118 37.5q-25 12 -27.5 31.5zM371 1627q1 12 16 24l299 231q61 45 141 45h23q44 0 71 -10t54 -37l227 -227q34 -34 -19 -47q-27 -7 -71 -7q-57 0 -84.5 8t-46.5 27l-162 162l-209 -164q-44 -33 -151 -33q-86 0 -88 28z" />
<glyph unicode="&#x135;" horiz-adv-x="618" d="M-268 -423.5q-3 16.5 16 61.5q21 44 35.5 53.5t44.5 1.5q66 -17 104 -17q72 0 110.5 41t59.5 148l181 940q4 22 -3 29.5t-30 7.5h-53q-27 0 -35 14t0 51q12 52 35 71t73 19h140q58 0 76 -20t8 -76l-197 -1022q-37 -196 -127.5 -279t-243.5 -83q-88 0 -164 32 q-27 11 -30 27.5zM34 1141q2 7 11 16l248 254q24 26 53 36.5t84 10.5q53 0 80 -11t41 -36l154 -250q8 -16 6.5 -27t-21.5 -17.5t-59 -6.5q-51 0 -76.5 9t-40.5 34l-104 178l-156 -178q-21 -24 -49 -33.5t-84 -9.5q-98 0 -87 31z" />
<glyph unicode="&#x136;" horiz-adv-x="1495" d="M-20 18q-6 18 4 62q10 50 22.5 65t40.5 15h92l223 1155h-92q-28 0 -33.5 15.5t3.5 64.5q10 50 22.5 65t40.5 15h385q28 0 34.5 -18t-3.5 -62q-10 -50 -23 -65t-41 -15h-90l-98 -498h258l442 498h-129q-28 0 -33.5 15.5t3.5 64.5q10 50 22.5 65t40.5 15h463q28 0 34.5 -18 t-3.5 -62q-10 -50 -23 -65t-41 -15h-104l-490 -547l291 -608h96q28 0 34 -15t-3 -65q-10 -50 -22.5 -65t-40.5 -15h-121q-61 0 -91.5 21t-56.5 75l-258 561h-299l-96 -497h96q28 0 34 -15t-3 -65q-10 -50 -23 -65t-41 -15h-389q-28 0 -34 18zM565 -530q58 112 76 190 q-51 13 -51 64q0 60 32.5 94.5t86.5 34.5h14q78 0 78 -76q0 -59 -31.5 -149.5t-81.5 -164.5q-19 -30 -59 -30h-43q-40 0 -21 37z" />
<glyph unicode="&#x137;" horiz-adv-x="1183" d="M129 41l238 1241q4 22 -3 29.5t-30 7.5h-60q-27 0 -34.5 14t0.5 51q12 52 35 71.5t73 19.5h146q58 0 76 -20.5t8 -76.5l-146 -760h213l250 340q23 29 51.5 40.5t89.5 11.5q41 0 60 -5.5t20.5 -17t-12.5 -29.5l-324 -438l150 -299q22 -43 44 -57t68 -14q26 0 33 -14 t-2 -64q-9 -46 -20.5 -61t-40.5 -15h-35q-90 0 -137.5 31t-89.5 120l-156 328h-188l-84 -436q-6 -31 -26 -41t-79 -10q-60 0 -77 11.5t-11 41.5zM379 -530q58 112 76 190q-52 13 -52 64q0 60 32.5 94.5t86.5 34.5h15q77 0 77 -76q0 -59 -31.5 -149.5t-80.5 -164.5 q-19 -30 -60 -30h-43q-39 0 -20 37z" />
<glyph unicode="&#x138;" horiz-adv-x="1183" d="M129 41l150 764q4 22 -3 29.5t-30 7.5h-60q-27 0 -34.5 14t0.5 51q12 52 35 71t73 19h146q58 0 75.5 -20t7.5 -76l-57 -283h213l250 340q23 29 51.5 40.5t89.5 11.5q41 0 60 -5.5t20.5 -17t-12.5 -29.5l-324 -438l150 -299q22 -43 44 -57t68 -14q26 0 33 -14t-2 -64 q-9 -46 -20.5 -61t-40.5 -15h-35q-90 0 -137.5 31t-89.5 120l-156 328h-188l-84 -436q-6 -31 -26 -41t-79 -10q-60 0 -77 11.5t-11 41.5z" />
<glyph unicode="&#x139;" horiz-adv-x="1327" d="M-20 18q-6 18 4 62q10 50 22.5 65t40.5 15h92l221 1155h-88q-28 0 -33.5 15.5t3.5 64.5q10 50 22.5 65t40.5 15h426q28 0 34.5 -18t-3.5 -62q-10 -50 -23 -65t-41 -15h-135l-221 -1155h639l39 200q6 33 28.5 44.5t75.5 11.5q52 0 70 -11.5t12 -44.5l-51 -264 q-12 -59 -36.5 -77.5t-90.5 -18.5h-1014q-28 0 -34 18zM362 1627q-2 12 13 24l293 229q61 49 184 49q71 0 84 -31q8 -19 -14 -34l-322 -222q-59 -43 -158 -43q-75 0 -80 28z" />
<glyph unicode="&#x13a;" horiz-adv-x="622" d="M131 127q0 29 6 59l209 1096q4 22 -3 29.5t-30 7.5h-59q-27 0 -35 14t0 51q12 52 35.5 71.5t73.5 19.5h145q58 0 76 -20.5t8 -76.5l-225 -1171q-6 -31 3.5 -41t47.5 -10h39q27 0 34.5 -15.5t-1.5 -62.5q-10 -49 -22.5 -63.5t-43.5 -14.5h-86q-92 0 -132 31t-40 96z M216 1665q1 8 9 16l277 258q53 50 172 50q87 0 89 -28q1 -10 -13 -22l-314 -258q-49 -43 -141 -43q-83 0 -79 27z" />
<glyph unicode="&#x13b;" horiz-adv-x="1327" d="M-20 18q-6 18 4 62q10 50 22.5 65t40.5 15h92l221 1155h-88q-28 0 -33.5 15.5t3.5 64.5q10 50 22.5 65t40.5 15h426q28 0 34.5 -18t-3.5 -62q-10 -50 -23 -65t-41 -15h-135l-221 -1155h639l39 200q6 33 28.5 44.5t75.5 11.5q52 0 70 -11.5t12 -44.5l-51 -264 q-12 -59 -36.5 -77.5t-90.5 -18.5h-1014q-28 0 -34 18zM481 -530q58 112 76 190q-51 13 -51 64q0 60 32.5 94.5t86.5 34.5h14q78 0 78 -76q0 -59 -31.5 -149.5t-81.5 -164.5q-19 -30 -59 -30h-43q-40 0 -21 37z" />
<glyph unicode="&#x13c;" horiz-adv-x="622" d="M129 -530q58 112 76 190q-51 13 -51 64q0 61 32.5 95t85.5 34h15q78 0 78 -76q0 -59 -31.5 -149.5t-81.5 -164.5q-19 -30 -59 -30h-43q-40 0 -21 37zM131 127q0 29 6 59l209 1096q4 22 -3 29.5t-30 7.5h-59q-27 0 -35 14t0 51q12 52 35.5 71.5t73.5 19.5h145 q58 0 76 -20.5t8 -76.5l-225 -1171q-6 -31 3.5 -41t47.5 -10h39q27 0 34.5 -15.5t-1.5 -62.5q-10 -49 -22.5 -63.5t-43.5 -14.5h-86q-92 0 -132 31t-40 96z" />
<glyph unicode="&#x13d;" horiz-adv-x="1327" d="M-20 18q-6 18 4 62q10 50 22.5 65t40.5 15h92l221 1155h-88q-28 0 -33.5 15.5t3.5 64.5q10 50 22.5 65t40.5 15h426q28 0 34.5 -18t-3.5 -62q-10 -50 -23 -65t-41 -15h-135l-221 -1155h639l39 200q6 33 28.5 44.5t75.5 11.5q52 0 70 -11.5t12 -44.5l-51 -264 q-12 -59 -36.5 -77.5t-90.5 -18.5h-1014q-28 0 -34 18zM850 1069q57 111 76 191q-52 13 -52 63q0 60 32.5 94.5t86.5 34.5h15q77 0 77 -76q0 -59 -31.5 -149t-80.5 -164q-20 -31 -60 -31h-43q-39 0 -20 37z" />
<glyph unicode="&#x13e;" horiz-adv-x="915" d="M131 127q0 29 6 59l209 1096q4 22 -3 29.5t-30 7.5h-59q-27 0 -35 14t0 51q12 52 35.5 71.5t73.5 19.5h145q58 0 76 -20.5t8 -76.5l-225 -1171q-6 -31 3.5 -41t47.5 -10h39q27 0 34.5 -15.5t-1.5 -62.5q-10 -49 -22.5 -63.5t-43.5 -14.5h-86q-92 0 -132 31t-40 96z M664 1069q55 108 75 191q-51 13 -51 63q0 60 32.5 94.5t86.5 34.5h14q78 0 78 -76q0 -59 -31.5 -149t-81.5 -164q-20 -31 -59 -31h-43q-39 0 -20 37z" />
<glyph unicode="&#x13f;" horiz-adv-x="1327" d="M-20 18q-6 18 4 62q10 50 22.5 65t40.5 15h92l221 1155h-88q-28 0 -33.5 15.5t3.5 64.5q10 50 22.5 65t40.5 15h426q28 0 34.5 -18t-3.5 -62q-10 -50 -23 -65t-41 -15h-135l-221 -1155h639l39 200q6 33 28.5 44.5t75.5 11.5q52 0 70 -11.5t12 -44.5l-51 -264 q-12 -59 -36.5 -77.5t-90.5 -18.5h-1014q-28 0 -34 18zM682 809q8 147 135 147h21q57 0 82 -23t24 -83q-1 -74 -29 -106.5t-86 -32.5h-63q-51 0 -69 21t-15 77z" />
<glyph unicode="&#x140;" horiz-adv-x="946" d="M131 127q0 29 6 59l209 1096q4 22 -3 29.5t-30 7.5h-59q-27 0 -35 14t0 51q12 52 35.5 71.5t73.5 19.5h145q58 0 76 -20.5t8 -76.5l-225 -1171q-6 -31 3.5 -41t47.5 -10h39q27 0 34.5 -15.5t-1.5 -62.5q-10 -49 -22.5 -63.5t-43.5 -14.5h-86q-92 0 -132 31t-40 96z M647 618q0 82 38.5 126t105.5 44h30q56 0 82.5 -24t26.5 -76q0 -81 -28 -117t-89 -36h-78q-46 0 -67 19.5t-21 63.5z" />
<glyph unicode="&#x141;" horiz-adv-x="1327" d="M-20 18q-6 18 4 62q10 50 22.5 65t40.5 15h92l80 415l-131 -40q-30 -10 -41 2.5t-16 58.5q-5 50 1.5 67.5t35.5 26.5l184 60l108 565h-88q-28 0 -33.5 15.5t3.5 64.5q10 50 22.5 65t40.5 15h426q28 0 34.5 -18t-3.5 -62q-10 -50 -23 -65t-41 -15h-135l-96 -496l248 80 q27 9 38 -4t17 -59q6 -44 -1 -64t-34 -29l-301 -98l-92 -485h639l39 200q6 33 28.5 44.5t75.5 11.5q52 0 70 -11.5t12 -44.5l-51 -264q-12 -59 -36.5 -77.5t-90.5 -18.5h-1014q-28 0 -34 18z" />
<glyph unicode="&#x142;" horiz-adv-x="622" d="M-8 713q-5 50 1 67.5t34 26.5l243 78l76 397q4 22 -3 29.5t-30 7.5h-59q-27 0 -35 14t0 51q12 52 35.5 71.5t73.5 19.5h145q58 0 76 -20.5t8 -76.5l-82 -426l170 56q29 9 40 -4.5t17 -61.5q6 -44 -1 -63.5t-35 -28.5l-226 -72l-108 -571q-6 -31 3.5 -41t47.5 -10h39 q27 0 34.5 -15.5t-1.5 -62.5q-10 -49 -22.5 -63.5t-43.5 -14.5h-86q-92 0 -132 31t-40 96q0 29 6 59l101 527l-191 -62q-29 -9 -40.5 4t-14.5 58z" />
<glyph unicode="&#x143;" horiz-adv-x="1662" d="M-20 18q-6 18 4 62q10 50 22.5 65t40.5 15h92l226 1155h-95q-28 0 -33.5 15.5t3.5 64.5q10 50 22.5 65t40.5 15h305q51 0 78.5 -15.5t40.5 -54.5l311 -881q63 -178 101 -370h28l226 1161h-142q-28 0 -33.5 15.5t3.5 64.5q10 50 22.5 65t40.5 15h414q28 0 34.5 -18 t-3.5 -62q-10 -50 -23 -65t-41 -15h-90l-248 -1264q-8 -33 -29 -47t-65 -14h-129q-102 0 -125 71l-322 924q-56 168 -82 334h-28l-228 -1159h142q28 0 34 -15t-3 -65q-10 -50 -23 -65t-41 -15h-414q-28 0 -34 18zM849 1626q-3 12 13 25l293 229q61 49 184 49q71 0 84 -31 q8 -19 -14 -34l-322 -222q-59 -43 -157 -43q-74 0 -81 27z" />
<glyph unicode="&#x144;" horiz-adv-x="1316" d="M129 39l150 766q4 22 -3 29.5t-30 7.5h-60q-27 0 -34.5 14t0.5 51q12 52 35 71t73 19h113q46 0 64 -19t14 -67l-7 -63h27q119 174 381 174q159 0 237 -73.5t78 -227.5q0 -72 -20 -170l-68 -344q-6 -31 3.5 -41t47.5 -10h37q27 0 34.5 -15.5t-1.5 -62.5q-10 -49 -22 -63.5 t-43 -14.5h-86q-92 0 -132 31t-40 96q0 29 6 59l63 326q23 127 23 174q0 182 -178 182q-141 0 -247 -107t-143 -304l-79 -418q-5 -29 -26.5 -40t-80.5 -11q-58 0 -75 11t-11 40zM505 1137q1 8 9 16l277 258q52 49 172 49q88 0 89 -28q0 -10 -14 -21l-313 -258 q-49 -43 -141 -43q-83 0 -79 27z" />
<glyph unicode="&#x145;" horiz-adv-x="1662" d="M-20 18q-6 18 4 62q10 50 22.5 65t40.5 15h92l226 1155h-95q-28 0 -33.5 15.5t3.5 64.5q10 50 22.5 65t40.5 15h305q51 0 78.5 -15.5t40.5 -54.5l311 -881q63 -178 101 -370h28l226 1161h-142q-28 0 -33.5 15.5t3.5 64.5q10 50 22.5 65t40.5 15h414q28 0 34.5 -18 t-3.5 -62q-10 -50 -23 -65t-41 -15h-90l-248 -1264q-8 -33 -29 -47t-65 -14h-129q-102 0 -125 71l-322 924q-56 168 -82 334h-28l-228 -1159h142q28 0 34 -15t-3 -65q-10 -50 -23 -65t-41 -15h-414q-28 0 -34 18zM557 -530q58 112 76 190q-51 13 -51 64q0 61 32.5 95 t85.5 34h15q78 0 78 -76q0 -59 -31.5 -149.5t-81.5 -164.5q-19 -30 -59 -30h-43q-40 0 -21 37z" />
<glyph unicode="&#x146;" horiz-adv-x="1316" d="M129 39l150 764q4 21 -3.5 29t-29.5 8h-60q-27 0 -34.5 15.5t0.5 49.5q12 52 36.5 72t71.5 20h113q48 0 64.5 -19.5t13.5 -66.5l-7 -63h27q119 174 381 174q167 0 241 -77.5t74 -223.5q0 -72 -20 -170l-68 -346q-6 -32 5.5 -41.5t45.5 -9.5h37q30 0 36.5 -16.5 t-3.5 -59.5q-9 -48 -21 -63t-42 -15h-86q-87 0 -130.5 27.5t-43.5 99.5q0 29 6 59l63 326q23 127 23 174q0 182 -178 182q-143 0 -247.5 -109t-142.5 -302l-79 -418q-6 -32 -29 -41.5t-78 -9.5t-73.5 9.5t-12.5 41.5zM475 -530q58 112 76 190q-51 13 -51 64q0 61 32.5 95 t85.5 34h15q78 0 78 -76q0 -59 -31.5 -149.5t-81.5 -164.5q-19 -30 -59 -30h-43q-40 0 -21 37z" />
<glyph unicode="&#x147;" horiz-adv-x="1662" d="M-20 18q-6 18 4 62q10 50 22.5 65t40.5 15h92l226 1155h-95q-28 0 -33.5 15.5t3.5 64.5q10 50 22.5 65t40.5 15h305q51 0 78.5 -15.5t40.5 -54.5l311 -881q63 -178 101 -370h28l226 1161h-142q-28 0 -33.5 15.5t3.5 64.5q10 50 22.5 65t40.5 15h414q28 0 34.5 -18 t-3.5 -62q-10 -50 -23 -65t-41 -15h-90l-248 -1264q-8 -33 -29 -47t-65 -14h-129q-102 0 -125 71l-322 924q-56 168 -82 334h-28l-228 -1159h142q28 0 34 -15t-3 -65q-10 -50 -23 -65t-41 -15h-414q-28 0 -34 18zM600 1874q-29 29 12 43q25 8 72 8q66 0 94 -7t47 -26 l156 -166l211 166q41 33 154 33q84 0 85 -28q0 -11 -16 -23l-301 -229q-60 -46 -137 -46h-25q-45 0 -72.5 10.5t-52.5 35.5z" />
<glyph unicode="&#x148;" horiz-adv-x="1316" d="M129 39l150 766q4 22 -3 29.5t-30 7.5h-60q-27 0 -34.5 14t0.5 51q12 52 35 71t73 19h113q46 0 64 -19t14 -67l-7 -63h27q119 174 381 174q159 0 237 -73.5t78 -227.5q0 -72 -20 -170l-68 -344q-6 -31 3.5 -41t47.5 -10h37q27 0 34.5 -15.5t-1.5 -62.5q-10 -49 -22 -63.5 t-43 -14.5h-86q-92 0 -132 31t-40 96q0 29 6 59l63 326q23 127 23 174q0 182 -178 182q-141 0 -247 -107t-143 -304l-79 -418q-5 -29 -26.5 -40t-80.5 -11q-58 0 -75 11t-11 40zM495.5 1432.5q2.5 11.5 24.5 18.5t62 7q57 0 80.5 -9t35.5 -34l97 -182l161 182 q21 24 49.5 33.5t88.5 9.5q89 0 83 -30q-1 -8 -12 -19l-252 -252q-27 -27 -55.5 -37t-79.5 -10q-55 0 -79.5 9.5t-41.5 37.5l-155 248q-9 16 -6.5 27.5z" />
<glyph unicode="&#x149;" horiz-adv-x="1316" d="M-90 1090q58 112 76 190q-52 13 -52 63q0 61 33 95.5t86 34.5h15q77 0 77 -76q0 -59 -31.5 -149.5t-80.5 -164.5q-19 -30 -60 -30h-43q-39 0 -20 37zM129 39l150 766q4 22 -3 29.5t-30 7.5h-60q-27 0 -34.5 14t0.5 51q12 52 35 71t73 19h113q46 0 64 -19t14 -67l-7 -63 h27q119 174 381 174q159 0 237 -73.5t78 -227.5q0 -72 -20 -170l-68 -344q-6 -31 3.5 -41t47.5 -10h37q27 0 34.5 -15.5t-1.5 -62.5q-10 -49 -22 -63.5t-43 -14.5h-86q-92 0 -132 31t-40 96q0 29 6 59l63 326q23 127 23 174q0 182 -178 182q-141 0 -247 -107t-143 -304 l-79 -418q-5 -29 -26.5 -40t-80.5 -11q-58 0 -75 11t-11 40z" />
<glyph unicode="&#x14a;" horiz-adv-x="1662" d="M-20 18q-6 18 4 62q10 50 22.5 65t40.5 15h92l226 1155h-95q-28 0 -33.5 15.5t3.5 64.5q10 50 22.5 65t40.5 15h305q51 0 78.5 -15.5t40.5 -54.5l311 -881q63 -178 101 -370h26l228 1161h-142q-28 0 -33.5 15.5t3.5 64.5q10 50 22.5 65t40.5 15h414q28 0 34.5 -18 t-3.5 -62q-10 -50 -23 -65t-41 -15h-90l-256 -1309q-52 -260 -166.5 -374.5t-337.5 -114.5q-70 0 -144.5 14t-117.5 37q-25 12 -27.5 31.5t15.5 62.5q22 45 37.5 55.5t46.5 -0.5q99 -36 198 -36q125 0 198.5 71.5t111.5 229.5l2 8h-31q-102 0 -125 71l-322 924 q-54 153 -82 334h-28l-228 -1159h142q28 0 34 -15t-3 -65q-10 -50 -23 -65t-41 -15h-414q-28 0 -34 18z" />
<glyph unicode="&#x14b;" horiz-adv-x="1339" d="M129 39l150 766q4 22 -3 29.5t-30 7.5h-60q-27 0 -34.5 14t0.5 51q12 52 35 71t73 19h113q46 0 64 -19t14 -67l-7 -63h27q119 174 381 174q159 0 237 -73.5t78 -227.5q0 -72 -20 -170l-131 -672q-39 -196 -128.5 -279t-242.5 -83q-88 0 -164 32q-27 11 -30 27.5t16 61.5 q21 44 35.5 53.5t44.5 1.5q66 -17 104 -17q72 0 110.5 41t59.5 148l125 647q23 127 23 174q0 182 -178 182q-141 0 -247 -107t-143 -304l-79 -418q-5 -29 -26.5 -40t-80.5 -11q-58 0 -75 11t-11 40z" />
<glyph unicode="&#x14c;" horiz-adv-x="1591" d="M98 561q0 147 32 283.5t98.5 256t162 208t230 139.5t294.5 51q578 0 578 -584q0 -120 -21 -233.5t-63.5 -219.5t-110.5 -194t-156.5 -154t-208 -102.5t-259.5 -36.5q-293 0 -434.5 142.5t-141.5 443.5zM307 567q0 -222 93 -326t296 -104q113 0 209.5 41.5t165 114 t117.5 169.5t72.5 209t23.5 232q0 219 -97.5 326.5t-295.5 107.5q-111 0 -206 -41t-163.5 -113t-117.5 -169.5t-73 -210.5t-24 -236zM604 1726.5q-7 14.5 2 61.5q10 49 21.5 63.5t38.5 14.5h659q25 0 31.5 -14t-0.5 -64q-10 -48 -22.5 -62t-37.5 -14h-659q-26 0 -33 14.5z " />
<glyph unicode="&#x14d;" horiz-adv-x="1175" d="M82 367q0 147 37.5 266.5t110 206.5t185 134.5t255.5 47.5q203 0 313.5 -101.5t110.5 -293.5q0 -303 -154 -477.5t-434 -174.5q-209 0 -316.5 102.5t-107.5 289.5zM281 381q0 -256 249 -256q164 0 264.5 128.5t100.5 356.5q0 258 -250 258q-176 0 -270 -130t-94 -357z M384 1193.5q-6 13.5 1 59.5q8 44 20 59t41 15h533q25 0 31.5 -13.5t-0.5 -60.5q-7 -44 -20 -58.5t-40 -14.5h-534q-26 0 -32 13.5z" />
<glyph unicode="&#x14e;" horiz-adv-x="1591" d="M98 561q0 147 32 283.5t98.5 256t162 208t230 139.5t294.5 51q578 0 578 -584q0 -120 -21 -233.5t-63.5 -219.5t-110.5 -194t-156.5 -154t-208 -102.5t-259.5 -36.5q-293 0 -434.5 142.5t-141.5 443.5zM307 567q0 -222 93 -326t296 -104q113 0 209.5 41.5t165 114 t117.5 169.5t72.5 209t23.5 232q0 219 -97.5 326.5t-295.5 107.5q-111 0 -206 -41t-163.5 -113t-117.5 -169.5t-73 -210.5t-24 -236zM645 1837q0 36 4 59q5 26 22.5 36t67.5 10q47 0 60.5 -6.5t11.5 -26.5q-4 -36 -4 -51q0 -50 40 -75.5t138 -25.5q113 0 170 35.5t76 112.5 q6 24 21 30.5t65 6.5q47 0 62 -9.5t12 -31.5q-22 -136 -131 -208.5t-299 -72.5q-156 0 -236 58.5t-80 158.5z" />
<glyph unicode="&#x14f;" horiz-adv-x="1175" d="M82 367q0 147 37.5 266.5t110 206.5t185 134.5t255.5 47.5q203 0 313.5 -101.5t110.5 -293.5q0 -303 -154 -477.5t-434 -174.5q-209 0 -316.5 102.5t-107.5 289.5zM281 381q0 -256 249 -256q164 0 264.5 128.5t100.5 356.5q0 258 -250 258q-176 0 -270 -130t-94 -357z M416 1370q0 19 4 39q6 29 20 37t66 8q40 0 52.5 -7.5t10.5 -25.5q-4 -40 -4 -55q0 -49 32.5 -71.5t102.5 -22.5q134 0 174 104l13 37q8 24 24.5 32.5t55.5 8.5q42 0 56 -8.5t11 -30.5q-6 -40 -20 -78q-35 -94 -122 -146t-212 -52q-134 0 -199 57.5t-65 173.5z" />
<glyph unicode="&#x150;" horiz-adv-x="1591" d="M98 561q0 147 32 283.5t98.5 256t162 208t230 139.5t294.5 51q578 0 578 -584q0 -120 -21 -233.5t-63.5 -219.5t-110.5 -194t-156.5 -154t-208 -102.5t-259.5 -36.5q-293 0 -434.5 142.5t-141.5 443.5zM307 567q0 -222 93 -326t296 -104q113 0 209.5 41.5t165 114 t117.5 169.5t72.5 209t23.5 232q0 219 -97.5 326.5t-295.5 107.5q-111 0 -206 -41t-163.5 -113t-117.5 -169.5t-73 -210.5t-24 -236zM528 1627q1 7 9 15l225 238q27 27 57.5 38t93.5 11q94 0 90 -31q-1 -11 -16 -24l-250 -232q-46 -43 -131 -43q-84 0 -78 28zM989 1627 q2 7 8 15l228 238q25 27 59 38t94 11q88 0 87 -31q-1 -12 -13 -24l-254 -232q-49 -43 -131 -43q-83 0 -78 28z" />
<glyph unicode="&#x151;" horiz-adv-x="1175" d="M82 367q0 147 37.5 266.5t110 206.5t185 134.5t255.5 47.5q203 0 313.5 -101.5t110.5 -293.5q0 -303 -154 -477.5t-434 -174.5q-209 0 -316.5 102.5t-107.5 289.5zM281 381q0 -256 249 -256q164 0 264.5 128.5t100.5 356.5q0 258 -250 258q-176 0 -270 -130t-94 -357z M302 1133q0 9 9 20l201 258q22 27 54 38t93 11q109 -1 66 -49l-229 -258q-22 -24 -48.5 -33.5t-74.5 -9.5q-72 0 -71 23zM716 1133q1 9 9 20l203 258q21 27 52.5 38t94.5 11q78 0 77 -25q-1 -10 -13 -24l-228 -258q-21 -24 -48 -33.5t-72 -9.5q-75 0 -75 23z" />
<glyph unicode="&#x152;" horiz-adv-x="2377" d="M98 549q0 203 56 377.5t159 301.5t256.5 199t339.5 72q284 0 400 -164h20l21 78q8 31 37.5 46.5t101.5 15.5h807q64 0 81.5 -19t6.5 -78l-45 -233q-6 -31 -27.5 -43t-77.5 -12q-55 0 -70.5 11.5t-9.5 43.5l31 170h-663l-95 -484h439l14 78q5 30 26 43t76 13 q51 0 68.5 -11.5t11.5 -44.5l-61 -327q-5 -29 -26.5 -41.5t-76.5 -12.5q-54 0 -69 12.5t-10 43.5l16 88h-436l-99 -512h676l31 172q5 30 26 42.5t78 12.5q55 0 71.5 -12t10.5 -43l-45 -236q-10 -58 -36 -77t-91 -19h-823q-68 0 -92 13t-21 48l5 52h-21q-166 -138 -416 -138 q-555 0 -555 574zM307 565q0 -220 92.5 -324t290.5 -104q244 6 395.5 217.5t151.5 554.5q0 416 -352 428q-112 0 -208 -44t-163 -119t-114.5 -174.5t-70 -209.5t-22.5 -225z" />
<glyph unicode="&#x153;" horiz-adv-x="1900" d="M82 367q0 197 65 343t198 229t321 83q279 0 344 -178h24q128 178 410 178q186 0 286.5 -79t100.5 -214q0 -153 -119.5 -238t-368.5 -85h-288v-41q0 -119 72 -176.5t233 -57.5q125 0 270 47q27 8 44 -2t30 -53q14 -43 9.5 -59.5t-34.5 -28.5q-65 -26 -165.5 -43 t-194.5 -17q-315 0 -383 172h-29q-135 -172 -403 -172q-210 0 -316 102t-106 290zM281 381q0 -256 249 -256q95 0 166.5 43t111.5 115.5t59.5 156.5t19.5 178q0 124 -58 187t-188 63q-172 0 -266 -130.5t-94 -356.5zM1071 549h297q140 0 206 46t66 126q0 67 -57.5 107 t-167.5 40q-143 0 -229 -83.5t-115 -235.5z" />
<glyph unicode="&#x154;" horiz-adv-x="1431" d="M-20 18q-6 18 4 62q10 50 22.5 65t40.5 15h94l221 1155h-92q-28 0 -33.5 15.5t3.5 64.5q10 50 22.5 65t40.5 15h494q565 0 565 -377q0 -190 -102 -317.5t-302 -172.5l164 -448h101q28 0 33.5 -15t-3.5 -65q-10 -50 -22.5 -65t-40.5 -15h-100q-77 0 -115 24t-60 87 l-155 473h-336l-82 -424h154q28 0 33.5 -15t-3.5 -65q-10 -50 -22.5 -65t-40.5 -15h-449q-28 0 -34 18zM453 737h270q221 0 325.5 87t104.5 257q0 115 -92 174.5t-301 59.5h-195zM591 1626q-3 12 13 25l293 229q61 49 184 49q71 0 84 -31q8 -19 -14 -34l-322 -222 q-59 -43 -157 -43q-74 0 -81 27z" />
<glyph unicode="&#x155;" horiz-adv-x="925" d="M129 39l145 766q4 22 -2.5 29.5t-29.5 7.5h-54q-27 0 -34.5 14t0.5 51q12 52 35 71t73 19h107q51 0 68 -18t12 -68l-9 -77h29q98 188 319 188q71 0 132 -21q17 -7 23.5 -16t4 -30t-17.5 -58q-21 -50 -37.5 -62t-44.5 -4q-69 19 -109 19q-119 0 -212 -114t-136 -335 l-69 -362q-6 -31 -26.5 -41t-80.5 -10q-59 0 -75 11t-11 40zM327 1137q1 8 9 16l276 258q52 49 172 49q89 0 90 -28q-2 -11 -14 -21l-313 -258q-49 -43 -141 -43q-83 0 -79 27z" />
<glyph unicode="&#x156;" horiz-adv-x="1431" d="M-20 18q-6 18 4 62q10 50 22.5 65t40.5 15h94l221 1155h-92q-28 0 -33.5 15.5t3.5 64.5q10 50 22.5 65t40.5 15h494q565 0 565 -377q0 -190 -102 -317.5t-302 -172.5l164 -448h101q28 0 33.5 -15t-3.5 -65q-10 -50 -22.5 -65t-40.5 -15h-100q-77 0 -115 24t-60 87 l-155 473h-336l-82 -424h154q28 0 33.5 -15t-3.5 -65q-10 -50 -22.5 -65t-40.5 -15h-449q-28 0 -34 18zM453 737h270q221 0 325.5 87t104.5 257q0 115 -92 174.5t-301 59.5h-195zM563 -530q58 112 76 190q-51 13 -51 64q0 60 32.5 94.5t86.5 34.5h14q78 0 78 -76 q0 -59 -31.5 -149.5t-81.5 -164.5q-19 -30 -59 -30h-43q-40 0 -21 37z" />
<glyph unicode="&#x157;" horiz-adv-x="925" d="M70 -530q56 108 75 190q-51 13 -51 64q0 60 32.5 94.5t86.5 34.5h14q78 0 78 -76q0 -59 -31.5 -149.5t-80.5 -164.5q-19 -30 -60 -30h-43q-39 0 -20 37zM129 39l145 766q4 22 -2.5 29.5t-29.5 7.5h-54q-27 0 -34.5 14t0.5 51q12 52 35 71t73 19h107q51 0 68 -18t12 -68 l-9 -77h29q98 188 319 188q71 0 132 -21q17 -7 23.5 -16t4 -30t-17.5 -58q-21 -50 -37.5 -62t-44.5 -4q-69 19 -109 19q-119 0 -212 -114t-136 -335l-69 -362q-6 -31 -26.5 -41t-80.5 -10q-59 0 -75 11t-11 40z" />
<glyph unicode="&#x158;" horiz-adv-x="1431" d="M-20 18q-6 18 4 62q10 50 22.5 65t40.5 15h94l221 1155h-92q-28 0 -33.5 15.5t3.5 64.5q10 50 22.5 65t40.5 15h494q565 0 565 -377q0 -190 -102 -317.5t-302 -172.5l164 -448h101q28 0 33.5 -15t-3.5 -65q-10 -50 -22.5 -65t-40.5 -15h-100q-77 0 -115 24t-60 87 l-155 473h-336l-82 -424h154q28 0 33.5 -15t-3.5 -65q-10 -50 -22.5 -65t-40.5 -15h-449q-28 0 -34 18zM453 737h270q221 0 325.5 87t104.5 257q0 115 -92 174.5t-301 59.5h-195zM485 1874q-29 29 12 43q25 8 72 8q66 0 94.5 -7t47.5 -26l155 -166l211 166q41 33 154 33 q84 0 85 -28q0 -11 -16 -23l-301 -229q-60 -46 -137 -46h-24q-45 0 -72.5 10.5t-52.5 35.5z" />
<glyph unicode="&#x159;" horiz-adv-x="925" d="M129 39l145 766q4 22 -2.5 29.5t-29.5 7.5h-54q-27 0 -34.5 14t0.5 51q12 52 35 71t73 19h107q51 0 68 -18t12 -68l-9 -77h29q98 188 319 188q71 0 132 -21q17 -7 23.5 -16t4 -30t-17.5 -58q-21 -50 -37.5 -62t-44.5 -4q-69 19 -109 19q-119 0 -212 -114t-136 -335 l-69 -362q-6 -31 -26.5 -41t-80.5 -10q-59 0 -75 11t-11 40zM298.5 1432.5q2.5 11.5 24.5 18.5t62 7q58 0 81.5 -9t35.5 -34l96 -182l162 182q21 24 49 33.5t88 9.5q89 0 84 -30q-2 -9 -12 -19l-252 -252q-27 -27 -55.5 -37t-79.5 -10q-55 0 -79.5 9.5t-41.5 37.5l-156 248 q-9 16 -6.5 27.5z" />
<glyph unicode="&#x15a;" horiz-adv-x="1406" d="M37 221l22 109q9 38 32.5 49.5t86.5 11.5q53 0 70 -10.5t10 -44.5l-35 -160q157 -39 363 -39q237 0 340.5 78.5t103.5 222.5q0 70 -26.5 111t-97.5 70t-206 51l-90 14q-206 32 -295.5 114.5t-89.5 237.5q0 217 170.5 340t491.5 123q94 0 196 -15t170 -38 q76 -27 103 -68.5t10 -120.5l-16 -73q-8 -39 -28 -50.5t-85 -11.5q-57 0 -72.5 10.5t-9.5 45.5l23 114q-148 49 -324 49q-206 0 -315 -74t-109 -202q0 -63 22 -99t85 -62t186 -44l84 -12q236 -34 336 -126.5t100 -256.5q0 -50 -6.5 -94.5t-26.5 -95.5t-52 -92.5t-87 -81 t-127 -66.5t-176.5 -43.5t-232.5 -16.5q-211 0 -375 37q-78 16 -111 64.5t-12 144.5zM579 1627q-2 12 13 24l293 229q61 49 184 49q71 0 84 -31q8 -19 -14 -34l-322 -222q-59 -43 -158 -43q-75 0 -80 28z" />
<glyph unicode="&#x15b;" horiz-adv-x="1105" d="M55 154l13 67q6 33 28 46.5t78 13.5q52 0 68.5 -10.5t11.5 -37.5l-14 -86q120 -30 260 -30q155 0 216.5 41.5t61.5 130.5q0 40 -16.5 63t-71.5 43t-164 37l-63 10q-160 25 -225.5 86.5t-65.5 165.5q0 154 121 241t354 87q141 0 275 -35q66 -17 90.5 -49t15.5 -92l-10 -60 q-6 -34 -27 -45.5t-78 -11.5q-53 0 -66.5 9.5t-8.5 37.5l12 76q-111 31 -232 31q-251 0 -251 -156q0 -39 15.5 -58.5t64.5 -36t159 -36.5l58 -10q173 -31 241 -94t68 -173q0 -171 -120 -257.5t-390 -86.5q-172 0 -311 33q-68 17 -88 49.5t-9 96.5zM392 1137q1 8 9 16 l277 258q52 49 172 49q89 0 90 -28q-2 -11 -14 -21l-314 -258q-49 -43 -141 -43q-83 0 -79 27z" />
<glyph unicode="&#x15c;" horiz-adv-x="1406" d="M37 221l22 109q9 38 32.5 49.5t86.5 11.5q53 0 70 -10.5t10 -44.5l-35 -160q157 -39 363 -39q237 0 340.5 78.5t103.5 222.5q0 70 -26.5 111t-97.5 70t-206 51l-90 14q-206 32 -295.5 114.5t-89.5 237.5q0 217 170.5 340t491.5 123q94 0 196 -15t170 -38 q76 -27 103 -68.5t10 -120.5l-16 -73q-8 -39 -28 -50.5t-85 -11.5q-57 0 -72.5 10.5t-9.5 45.5l23 114q-148 49 -324 49q-206 0 -315 -74t-109 -202q0 -63 22 -99t85 -62t186 -44l84 -12q236 -34 336 -126.5t100 -256.5q0 -50 -6.5 -94.5t-26.5 -95.5t-52 -92.5t-87 -81 t-127 -66.5t-176.5 -43.5t-232.5 -16.5q-211 0 -375 37q-78 16 -111 64.5t-12 144.5zM451 1627q1 12 16 24l299 231q61 45 141 45h23q44 0 71 -10t54 -37l227 -227q34 -34 -19 -47q-27 -7 -71 -7q-57 0 -84.5 8t-46.5 27l-162 162l-209 -164q-44 -33 -151 -33q-86 0 -88 28z " />
<glyph unicode="&#x15d;" horiz-adv-x="1105" d="M55 154l13 67q6 33 28 46.5t78 13.5q52 0 68.5 -10.5t11.5 -37.5l-14 -86q120 -30 260 -30q155 0 216.5 41.5t61.5 130.5q0 40 -16.5 63t-71.5 43t-164 37l-63 10q-160 25 -225.5 86.5t-65.5 165.5q0 154 121 241t354 87q141 0 275 -35q66 -17 90.5 -49t15.5 -92l-10 -60 q-6 -34 -27 -45.5t-78 -11.5q-53 0 -66.5 9.5t-8.5 37.5l12 76q-111 31 -232 31q-251 0 -251 -156q0 -39 15.5 -58.5t64.5 -36t159 -36.5l58 -10q173 -31 241 -94t68 -173q0 -171 -120 -257.5t-390 -86.5q-172 0 -311 33q-68 17 -88 49.5t-9 96.5zM314 1141q3 7 12 16 l247 254q24 26 53.5 36.5t84.5 10.5q53 0 79.5 -11t40.5 -36l154 -250q8 -16 6.5 -27t-21.5 -17.5t-59 -6.5q-51 0 -76 9t-40 34l-105 178l-155 -178q-21 -24 -49.5 -33.5t-84.5 -9.5q-97 0 -87 31z" />
<glyph unicode="&#x15e;" horiz-adv-x="1406" d="M37 221l22 109q9 38 32.5 49.5t86.5 11.5q53 0 70 -10.5t10 -44.5l-35 -160q157 -39 363 -39q237 0 340.5 78.5t103.5 222.5q0 70 -26.5 111t-97.5 70t-206 51l-90 14q-206 32 -295.5 114.5t-89.5 237.5q0 217 170.5 340t491.5 123q94 0 196 -15t170 -38 q76 -27 103 -68.5t10 -120.5l-16 -73q-8 -39 -28 -50.5t-85 -11.5q-57 0 -72.5 10.5t-9.5 45.5l23 114q-148 49 -324 49q-206 0 -315 -74t-109 -202q0 -63 22 -99t85 -62t186 -44l84 -12q236 -34 336 -126.5t100 -256.5q0 -49 -6.5 -92t-24.5 -92.5t-47.5 -90t-79.5 -79.5 t-116.5 -66.5t-162 -46t-212.5 -21.5l-10 -61q67 -7 104 -45t35 -96q-3 -95 -72 -147t-198 -52q-86 0 -146 27q-13 6 -14 18.5t12 46.5q13 31 24 38.5t29 2.5q55 -14 99 -14q111 0 114 67q2 28 -25 44t-83 16q-28 0 -36.5 7.5t-4.5 27.5l22 120q-138 5 -284 35 q-78 16 -111 64.5t-12 144.5z" />
<glyph unicode="&#x15f;" horiz-adv-x="1105" d="M55 154l13 67q6 33 28 46.5t78 13.5q52 0 68.5 -10.5t11.5 -37.5l-14 -86q120 -30 260 -30q155 0 216.5 41.5t61.5 130.5q0 40 -16.5 63t-71.5 43t-164 37l-63 10q-160 25 -225.5 86.5t-65.5 165.5q0 154 121 241t354 87q141 0 275 -35q66 -17 90.5 -49t15.5 -92l-10 -60 q-6 -34 -27 -45.5t-78 -11.5q-53 0 -66.5 9.5t-8.5 37.5l12 76q-111 31 -232 31q-251 0 -251 -156q0 -39 15.5 -58.5t64.5 -36t159 -36.5l58 -10q173 -31 241 -94t68 -173q0 -160 -104 -245t-337 -97l-10 -61q67 -7 104.5 -45.5t35.5 -95.5q-3 -95 -72.5 -147t-198.5 -52 q-85 0 -145 27q-13 6 -14 18.5t12 46.5q13 31 24 38.5t29 2.5q55 -14 98 -14q112 0 115 67q2 28 -25.5 44t-83.5 16q-28 0 -36.5 7.5t-4.5 27.5l23 120q-115 5 -231 31q-68 17 -88 49.5t-9 96.5z" />
<glyph unicode="&#x160;" horiz-adv-x="1406" d="M37 221l22 109q9 38 32.5 49.5t86.5 11.5q53 0 70 -10.5t10 -44.5l-35 -160q157 -39 363 -39q237 0 340.5 78.5t103.5 222.5q0 70 -26.5 111t-97.5 70t-206 51l-90 14q-206 32 -295.5 114.5t-89.5 237.5q0 217 170.5 340t491.5 123q94 0 196 -15t170 -38 q76 -27 103 -68.5t10 -120.5l-16 -73q-8 -39 -28 -50.5t-85 -11.5q-57 0 -72.5 10.5t-9.5 45.5l23 114q-148 49 -324 49q-206 0 -315 -74t-109 -202q0 -63 22 -99t85 -62t186 -44l84 -12q236 -34 336 -126.5t100 -256.5q0 -50 -6.5 -94.5t-26.5 -95.5t-52 -92.5t-87 -81 t-127 -66.5t-176.5 -43.5t-232.5 -16.5q-211 0 -375 37q-78 16 -111 64.5t-12 144.5zM526 1874q-29 29 12 43q25 8 72 8q66 0 94.5 -7t47.5 -26l155 -166l211 166q41 33 154 33q84 0 85 -28q0 -11 -16 -23l-301 -229q-60 -46 -137 -46h-24q-45 0 -72.5 10.5t-52.5 35.5z" />
<glyph unicode="&#x161;" horiz-adv-x="1112" d="M55 154l13 67q6 33 28 46.5t78 13.5q52 0 68.5 -10.5t11.5 -37.5l-14 -86q120 -30 260 -30q155 0 216.5 41.5t61.5 130.5q0 40 -16.5 63t-71.5 43t-164 37l-63 10q-160 25 -225.5 86.5t-65.5 165.5q0 154 121 241t354 87q141 0 275 -35q66 -17 90.5 -49t15.5 -92l-10 -60 q-6 -34 -27 -45.5t-78 -11.5q-53 0 -66.5 9.5t-8.5 37.5l12 76q-111 31 -232 31q-251 0 -251 -156q0 -39 15.5 -58.5t64.5 -36t159 -36.5l58 -10q173 -31 241 -94t68 -173q0 -171 -120 -257.5t-390 -86.5q-172 0 -311 33q-68 17 -88 49.5t-9 96.5zM355.5 1432.5 q2.5 11.5 24.5 18.5t62 7q58 0 81.5 -9t35.5 -34l96 -182l162 182q21 24 49 33.5t88 9.5q89 0 84 -30q-2 -9 -12 -19l-252 -252q-27 -27 -55.5 -37t-79.5 -10q-55 0 -79.5 9.5t-41.5 37.5l-156 248q-9 16 -6.5 27.5z" />
<glyph unicode="&#x162;" horiz-adv-x="1449" d="M129 1145l45 233q12 59 36.5 78t88.5 19h1135q64 0 81.5 -19t6.5 -78l-45 -233q-6 -32 -29.5 -43.5t-75.5 -11.5q-54 0 -72 11t-12 44l31 170h-383l-225 -1155h190q28 0 34 -15t-3 -65q-10 -50 -23 -65t-41 -15h-575q-28 0 -34.5 18t3.5 62q10 50 23 65t41 15h184 l225 1155h-385l-31 -170q-7 -33 -29.5 -44t-76.5 -11q-52 0 -71 11t-13 44zM434 -530q58 112 76 190q-51 13 -51 64q0 60 32.5 94.5t86.5 34.5h14q78 0 78 -76q0 -59 -31.5 -149.5t-81.5 -164.5q-19 -30 -59 -30h-43q-40 0 -21 37z" />
<glyph unicode="&#x163;" horiz-adv-x="841" d="M88.5 859.5q-5.5 13.5 3.5 60.5q10 50 22.5 63.5t43.5 13.5h149l49 254q8 37 28 48.5t79 11.5q57 0 74.5 -13.5t11.5 -46.5l-49 -254h284q31 0 37 -13t-4 -64q-9 -47 -20.5 -60.5t-42.5 -13.5h-285l-104 -529q-11 -64 -11 -84q0 -55 26 -73.5t93 -18.5q51 0 137 19 q30 6 42.5 -5.5t21.5 -54.5q10 -44 4.5 -60.5t-33.5 -27.5q-98 -37 -235 -37q-135 0 -194.5 50t-59.5 151q0 55 14 123l106 547h-151q-31 0 -36.5 13.5zM209 -530q58 112 76 190q-52 13 -52 64q0 60 32.5 94.5t86.5 34.5h15q77 0 77 -76q0 -59 -31.5 -149.5t-80.5 -164.5 q-19 -30 -60 -30h-43q-39 0 -20 37z" />
<glyph unicode="&#x164;" horiz-adv-x="1449" d="M129 1145l45 233q12 59 36.5 78t88.5 19h1135q64 0 81.5 -19t6.5 -78l-45 -233q-6 -32 -29.5 -43.5t-75.5 -11.5q-54 0 -72 11t-12 44l31 170h-383l-225 -1155h190q28 0 34 -15t-3 -65q-10 -50 -23 -65t-41 -15h-575q-28 0 -34.5 18t3.5 62q10 50 23 65t41 15h184 l225 1155h-385l-31 -170q-7 -33 -29.5 -44t-76.5 -11q-52 0 -71 11t-13 44zM496 1874q-29 29 12 43q25 8 72 8q66 0 94 -7t47 -26l156 -166l210 166q41 33 154 33q85 0 86 -28q0 -11 -16 -23l-301 -229q-60 -46 -138 -46h-24q-45 0 -72.5 10.5t-52.5 35.5z" />
<glyph unicode="&#x165;" horiz-adv-x="841" d="M88.5 859.5q-5.5 13.5 3.5 60.5q10 50 22.5 63.5t43.5 13.5h149l49 254q8 37 28 48.5t79 11.5q57 0 74.5 -13.5t11.5 -46.5l-49 -254h284q31 0 37 -13t-4 -64q-9 -47 -20.5 -60.5t-42.5 -13.5h-285l-104 -529q-11 -64 -11 -84q0 -55 26 -73.5t93 -18.5q51 0 137 19 q30 6 42.5 -5.5t21.5 -54.5q10 -44 4.5 -60.5t-33.5 -27.5q-98 -37 -235 -37q-135 0 -194.5 50t-59.5 151q0 55 14 123l106 547h-151q-31 0 -36.5 13.5zM692 1122q57 111 76 191q-51 13 -51 63q0 60 32.5 94.5t86.5 34.5h14q78 0 78 -75q0 -59 -31.5 -149.5t-81.5 -164.5 q-20 -31 -59 -31h-43q-40 0 -21 37z" />
<glyph unicode="&#x166;" horiz-adv-x="1449" d="M129 1145l45 233q12 59 36.5 78t88.5 19h1135q64 0 81.5 -19t6.5 -78l-45 -233q-6 -32 -29.5 -43.5t-75.5 -11.5q-54 0 -72 11t-12 44l31 170h-383l-94 -479h252q29 0 35 -15t-3 -61q-8 -46 -19.5 -61t-41.5 -15h-252l-102 -524h190q28 0 34 -15t-3 -65q-10 -50 -23 -65 t-41 -15h-575q-28 0 -34.5 18t3.5 62q10 50 23 65t41 15h184l102 524h-266q-30 0 -37 16t2 60q11 47 22.5 61.5t41.5 14.5h266l94 479h-385l-31 -170q-7 -33 -29.5 -44t-76.5 -11q-52 0 -71 11t-13 44z" />
<glyph unicode="&#x167;" horiz-adv-x="841" d="M59.5 470.5q-5.5 11.5 1.5 57.5q7 43 19.5 56.5t42.5 13.5h104l49 248h-151q-31 0 -36.5 13.5t3.5 60.5q10 50 22.5 63.5t43.5 13.5h149l49 254q8 37 28 48.5t79 11.5q57 0 74.5 -13.5t11.5 -46.5l-49 -254h284q31 0 37 -13t-4 -64q-9 -47 -20.5 -60.5t-42.5 -13.5h-285 l-49 -248h229q26 0 31.5 -11.5t-0.5 -58.5q-7 -44 -19 -56.5t-40 -12.5h-230l-26 -142q-21 -108 1 -142t107 -34q51 0 137 19q30 6 42.5 -5.5t21.5 -54.5q10 -44 4.5 -60.5t-33.5 -27.5q-98 -37 -235 -37q-135 0 -194.5 50t-59.5 151q0 55 14 123l31 160h-109 q-27 0 -32.5 11.5z" />
<glyph unicode="&#x168;" horiz-adv-x="1558" d="M152 385q0 89 18 188l145 742h-82q-28 0 -33.5 15.5t3.5 64.5q10 50 22.5 65t40.5 15h414q28 0 34.5 -18t-3.5 -62q-10 -50 -23 -65t-41 -15h-129l-143 -742q-19 -97 -19 -165q0 -135 77.5 -203t240.5 -68q199 0 317.5 104t163.5 330l148 744h-129q-28 0 -34 15.5t3 64.5 q10 50 22.5 65t40.5 15h404q28 0 34 -18t-4 -62q-10 -50 -22.5 -65t-40.5 -15h-82l-147 -740q-62 -311 -237.5 -455.5t-469.5 -144.5q-489 0 -489 410zM517 1734.5q-7 16.5 3 32.5q93 166 273 166q54 0 105 -20.5t83 -45t71 -45t72 -20.5q35 0 61.5 18.5t49.5 61.5 q22 39 92 4q60 -26 41 -69q-82 -177 -260 -177q-44 0 -83.5 13.5t-69 32t-57 37.5t-58 32.5t-60.5 13.5q-81 0 -137 -83q-10 -20 -31.5 -19t-56.5 27q-31 24 -38 40.5z" />
<glyph unicode="&#x169;" horiz-adv-x="1323" d="M129 856q-8 14 0 51q12 52 35.5 71t73.5 19h139q58 0 76 -20t8 -76l-84 -438q-21 -115 -21 -160q0 -88 42 -129t134 -41q153 0 253.5 111.5t140.5 328.5l71 385q5 30 26.5 41t78.5 11q58 0 76 -11t12 -41l-146 -753q-6 -29 3.5 -39t42.5 -10h43q27 0 34 -15.5t-2 -62.5 q-11 -49 -22.5 -63.5t-42.5 -14.5h-74q-90 0 -128.5 33t-29.5 104h-26q-120 -162 -377 -162q-305 0 -305 297q0 70 16 152l74 381q4 22 -3 29.5t-30 7.5h-53q-27 0 -35 14zM334.5 1244.5q-6.5 15.5 3.5 31.5q44 79 103.5 114t146.5 35q48 0 91.5 -18.5t70.5 -40.5 t59.5 -40.5t60.5 -18.5q37 0 62 16t49 57q19 37 82 2q32 -19 39 -32t-2 -33q-71 -158 -238 -158q-45 0 -87.5 18.5t-69.5 40t-60 40t-63 18.5q-39 0 -66.5 -14.5t-64.5 -63.5q-24 -31 -80 10q-30 21 -36.5 36.5z" />
<glyph unicode="&#x16a;" horiz-adv-x="1558" d="M152 385q0 89 18 188l145 742h-82q-28 0 -33.5 15.5t3.5 64.5q10 50 22.5 65t40.5 15h414q28 0 34.5 -18t-3.5 -62q-10 -50 -23 -65t-41 -15h-129l-143 -742q-19 -97 -19 -165q0 -135 77.5 -203t240.5 -68q199 0 317.5 104t163.5 330l148 744h-129q-28 0 -34 15.5t3 64.5 q10 50 22.5 65t40.5 15h404q28 0 34 -18t-4 -62q-10 -50 -22.5 -65t-40.5 -15h-82l-147 -740q-62 -311 -237.5 -455.5t-469.5 -144.5q-489 0 -489 410zM588 1726.5q-7 14.5 2 61.5q10 49 21.5 63.5t37.5 14.5h660q25 0 31.5 -14t-1.5 -64q-10 -48 -22 -62t-37 -14h-659 q-26 0 -33 14.5z" />
<glyph unicode="&#x16b;" horiz-adv-x="1323" d="M129 856q-8 14 0 51q12 52 35.5 71t73.5 19h139q58 0 76 -20t8 -76l-84 -438q-21 -115 -21 -160q0 -88 42 -129t134 -41q153 0 253.5 111.5t140.5 328.5l71 385q5 30 26.5 41t78.5 11q58 0 76 -11t12 -41l-146 -753q-6 -29 3.5 -39t42.5 -10h43q27 0 34 -15.5t-2 -62.5 q-11 -49 -22.5 -63.5t-42.5 -14.5h-74q-90 0 -128.5 33t-29.5 104h-26q-120 -162 -377 -162q-305 0 -305 297q0 70 16 152l74 381q4 22 -3 29.5t-30 7.5h-53q-27 0 -35 14zM447.5 1193.5q-5.5 13.5 1.5 59.5q8 44 20 59t41 15h532q25 0 31.5 -13.5t-0.5 -60.5 q-7 -44 -19.5 -58.5t-39.5 -14.5h-535q-26 0 -31.5 13.5z" />
<glyph unicode="&#x16c;" horiz-adv-x="1558" d="M152 385q0 89 18 188l145 742h-82q-28 0 -33.5 15.5t3.5 64.5q10 50 22.5 65t40.5 15h414q28 0 34.5 -18t-3.5 -62q-10 -50 -23 -65t-41 -15h-129l-143 -742q-19 -97 -19 -165q0 -135 77.5 -203t240.5 -68q199 0 317.5 104t163.5 330l148 744h-129q-28 0 -34 15.5t3 64.5 q10 50 22.5 65t40.5 15h404q28 0 34 -18t-4 -62q-10 -50 -22.5 -65t-40.5 -15h-82l-147 -740q-62 -311 -237.5 -455.5t-469.5 -144.5q-489 0 -489 410zM602 1837q0 36 4 59q5 26 22.5 36t67.5 10q47 0 60.5 -6.5t11.5 -26.5q-4 -36 -4 -51q0 -50 40 -75.5t138 -25.5 q113 0 170 35.5t76 112.5q6 24 21 30.5t65 6.5q47 0 62 -9.5t12 -31.5q-22 -136 -131 -208.5t-299 -72.5q-156 0 -236 58.5t-80 158.5z" />
<glyph unicode="&#x16d;" horiz-adv-x="1323" d="M129 856q-8 14 0 51q12 52 35.5 71t73.5 19h139q58 0 76 -20t8 -76l-84 -438q-21 -115 -21 -160q0 -88 42 -129t134 -41q153 0 253.5 111.5t140.5 328.5l71 385q5 30 26.5 41t78.5 11q58 0 76 -11t12 -41l-146 -753q-6 -29 3.5 -39t42.5 -10h43q27 0 34 -15.5t-2 -62.5 q-11 -49 -22.5 -63.5t-42.5 -14.5h-74q-90 0 -128.5 33t-29.5 104h-26q-120 -162 -377 -162q-305 0 -305 297q0 70 16 152l74 381q4 22 -3 29.5t-30 7.5h-53q-27 0 -35 14zM446 1370q0 14 5 39q6 29 20 37t66 8q40 0 52.5 -7.5t10.5 -25.5q-4 -40 -4 -55q0 -49 32.5 -71.5 t102.5 -22.5q134 0 174 104l13 37q8 24 24 32.5t55 8.5q42 0 56.5 -8.5t11.5 -30.5q-5 -35 -21 -78q-36 -94 -122 -146t-211 -52q-265 0 -265 231z" />
<glyph unicode="&#x16e;" horiz-adv-x="1558" d="M152 385q0 89 18 188l145 742h-82q-28 0 -33.5 15.5t3.5 64.5q10 50 22.5 65t40.5 15h414q28 0 34.5 -18t-3.5 -62q-10 -50 -23 -65t-41 -15h-129l-143 -742q-19 -97 -19 -165q0 -135 77.5 -203t240.5 -68q199 0 317.5 104t163.5 330l148 744h-129q-28 0 -34 15.5t3 64.5 q10 50 22.5 65t40.5 15h404q28 0 34 -18t-4 -62q-10 -50 -22.5 -65t-40.5 -15h-82l-147 -740q-62 -311 -237.5 -455.5t-469.5 -144.5q-489 0 -489 410zM721 1782q7 119 85 186.5t198 67.5q103 0 155.5 -48.5t46.5 -148.5q-8 -121 -81 -189.5t-201 -68.5q-104 0 -156.5 48 t-46.5 153zM850 1790q-5 -98 94 -98q59 0 93.5 36.5t37.5 100.5q6 96 -90 96q-59 0 -95.5 -38t-39.5 -97z" />
<glyph unicode="&#x16f;" horiz-adv-x="1323" d="M129 856q-8 14 0 51q12 52 35.5 71t73.5 19h139q58 0 76 -20t8 -76l-84 -438q-21 -115 -21 -160q0 -88 42 -129t134 -41q153 0 253.5 111.5t140.5 328.5l71 385q5 30 26.5 41t78.5 11q58 0 76 -11t12 -41l-146 -753q-6 -29 3.5 -39t42.5 -10h43q27 0 34 -15.5t-2 -62.5 q-11 -49 -22.5 -63.5t-42.5 -14.5h-74q-90 0 -128.5 33t-29.5 104h-26q-120 -162 -377 -162q-305 0 -305 297q0 70 16 152l74 381q4 22 -3 29.5t-30 7.5h-53q-27 0 -35 14zM537 1311q6 111 79 179.5t191 68.5q101 0 150.5 -51t43.5 -142q-6 -116 -76 -183t-194 -67 q-104 0 -153 49.5t-41 145.5zM657 1319q-3 -51 21 -76.5t70 -25.5q60 0 95 37t38 104q3 49 -21.5 74.5t-71.5 25.5q-56 0 -92 -39.5t-39 -99.5z" />
<glyph unicode="&#x170;" horiz-adv-x="1558" d="M152 385q0 89 18 188l145 742h-82q-28 0 -33.5 15.5t3.5 64.5q10 50 22.5 65t40.5 15h414q28 0 34.5 -18t-3.5 -62q-10 -50 -23 -65t-41 -15h-129l-143 -742q-19 -97 -19 -165q0 -135 77.5 -203t240.5 -68q199 0 317.5 104t163.5 330l148 744h-129q-28 0 -34 15.5t3 64.5 q10 50 22.5 65t40.5 15h404q28 0 34 -18t-4 -62q-10 -50 -22.5 -65t-40.5 -15h-82l-147 -740q-62 -311 -237.5 -455.5t-469.5 -144.5q-489 0 -489 410zM577 1627q1 7 9 15l225 238q27 27 57.5 38t94.5 11q93 0 89 -31q-2 -11 -16 -24l-250 -232q-46 -43 -131 -43 q-84 0 -78 28zM1039 1627q1 7 8 15l227 238q25 27 59 38t94 11q88 0 87 -31q-1 -12 -13 -24l-254 -232q-49 -43 -131 -43t-77 28z" />
<glyph unicode="&#x171;" horiz-adv-x="1323" d="M129 856q-8 14 0 51q12 52 35.5 71t73.5 19h139q58 0 76 -20t8 -76l-84 -438q-21 -115 -21 -160q0 -88 42 -129t134 -41q153 0 253.5 111.5t140.5 328.5l71 385q5 30 26.5 41t78.5 11q58 0 76 -11t12 -41l-146 -753q-6 -29 3.5 -39t42.5 -10h43q27 0 34 -15.5t-2 -62.5 q-11 -49 -22.5 -63.5t-42.5 -14.5h-74q-90 0 -128.5 33t-29.5 104h-26q-120 -162 -377 -162q-305 0 -305 297q0 70 16 152l74 381q4 22 -3 29.5t-30 7.5h-53q-27 0 -35 14zM398 1132q0 9 10 21l200 258q22 27 54 38t94 11q83 0 78 -27q-1 -10 -13 -22l-229 -258 q-22 -24 -48.5 -33.5t-74.5 -9.5q-70 0 -71 22zM812 1133q1 9 9 20l203 258q21 27 52.5 38t94.5 11q78 0 77 -25q-1 -10 -13 -24l-227 -258q-21 -24 -48.5 -33.5t-72.5 -9.5q-75 0 -75 23z" />
<glyph unicode="&#x172;" horiz-adv-x="1558" d="M152 385q0 89 18 188l145 742h-82q-28 0 -33.5 15.5t3.5 64.5q10 50 22.5 65t40.5 15h414q28 0 34.5 -18t-3.5 -62q-10 -50 -23 -65t-41 -15h-129l-143 -742q-19 -97 -19 -165q0 -135 77.5 -203t240.5 -68q199 0 317.5 104t163.5 330l148 744h-129q-28 0 -34 15.5t3 64.5 q10 50 22.5 65t40.5 15h404q28 0 34 -18t-4 -62q-10 -50 -22.5 -65t-40.5 -15h-82l-147 -740q-53 -265 -187.5 -407t-353.5 -178q-100 -59 -152.5 -120.5t-52.5 -115.5q0 -56 60 -59q28 0 69 12q18 6 26 -2t15 -41q7 -31 4 -42.5t-20 -20.5q-52 -27 -127 -27 q-87 0 -133.5 41.5t-46.5 114.5q0 67 42 130.5t121 114.5q-460 12 -460 410z" />
<glyph unicode="&#x173;" horiz-adv-x="1323" d="M129 856q-8 14 0 51q12 52 35.5 71t73.5 19h139q58 0 76 -20t8 -76l-84 -438q-21 -115 -21 -160q0 -88 42 -129t134 -41q153 0 253.5 111.5t140.5 328.5l71 385q5 30 26.5 41t78.5 11q58 0 76 -11t12 -41l-146 -753q-6 -29 3.5 -39t42.5 -10h43q27 0 34 -15.5t-2 -62.5 q-7 -37 -15 -51.5t-22 -22.5q-117 -64 -175 -128.5t-58 -121.5q0 -56 59 -59q30 0 70 12q18 6 26 -2t15 -41q7 -31 4 -42.5t-20 -20.5q-52 -27 -127 -27q-87 0 -134 41.5t-47 114.5q0 76 57 150t160 124v2q-105 16 -90 131h-26q-120 -162 -377 -162q-305 0 -305 297 q0 70 16 152l74 381q4 22 -3 29.5t-30 7.5h-53q-27 0 -35 14z" />
<glyph unicode="&#x174;" horiz-adv-x="2390" d="M175 1330.5q-6 15.5 3 64.5q10 50 23 65t41 15h518q28 0 34.5 -18t-3.5 -62q-10 -50 -23 -65t-41 -15h-207l64 -803q12 -150 12 -373h29q62 185 151 375l357 764q25 52 54 71t85 19h98q58 0 82.5 -19.5t28.5 -78.5l51 -756q13 -200 10 -375h27q61 180 153 375l371 801 h-199q-28 0 -33.5 15.5t3.5 64.5q10 50 22.5 65t40.5 15h506q28 0 34.5 -18t-3.5 -62q-10 -50 -23 -65t-41 -15h-110l-572 -1229q-28 -60 -57.5 -79t-83.5 -19h-102q-56 0 -81 20.5t-28 75.5l-55 819q-10 162 -4 307h-29q-56 -167 -123 -309l-377 -817q-24 -54 -55 -75 t-80 -21h-125q-53 0 -76.5 20t-27.5 76l-99 1231h-106q-28 0 -34 15.5zM922 1627q1 12 16 24l299 231q61 45 141 45h23q44 0 71 -10t54 -37l227 -227q34 -34 -19 -47q-27 -7 -71 -7q-57 0 -84.5 8t-46.5 27l-162 162l-209 -164q-44 -33 -151 -33q-86 0 -88 28z" />
<glyph unicode="&#x175;" horiz-adv-x="1648" d="M45.5 857.5q-7.5 15.5 1.5 62.5q10 49 22.5 63t43.5 14h82q90 0 129 -34.5t45 -114.5l37 -500q7 -113 4 -205h28q23 88 72 207l252 590q18 42 40.5 56t78.5 14h96q51 0 72 -14t22 -54l33 -594q7 -119 2 -205h27q39 119 79 209l267 613q11 29 35 37t79 8q58 0 73.5 -10.5 t4.5 -34.5l-411 -910q-17 -38 -44 -52.5t-77 -14.5h-99q-51 0 -73 14.5t-23 54.5l-31 621q-5 81 5 182h-29q-24 -91 -62 -184l-262 -619q-17 -40 -43.5 -54.5t-77.5 -14.5h-104q-50 0 -70.5 14.5t-23.5 52.5l-64 742q-3 27 -16.5 36t-48.5 9h-37q-27 0 -34.5 15.5zM570 1141 q3 7 12 16l247 254q24 26 53.5 36.5t84.5 10.5q53 0 79.5 -11t40.5 -36l154 -250q8 -16 6.5 -27t-21.5 -17.5t-59 -6.5q-51 0 -76 9t-40 34l-105 178l-155 -178q-21 -24 -49.5 -33.5t-84.5 -9.5q-97 0 -87 31z" />
<glyph unicode="&#x176;" horiz-adv-x="1492" d="M159 1330.5q-6 15.5 3 64.5q10 50 22.5 65t40.5 15h467q28 0 34.5 -18t-3.5 -62q-10 -50 -23 -65t-41 -15h-163l168 -406q47 -116 67 -235h29q60 117 155 233l334 408h-182q-28 0 -34 15.5t3 64.5q10 50 23 65t41 15h481q28 0 34.5 -18t-3.5 -62q-10 -50 -23 -65t-41 -15 h-84l-647 -793l-69 -362h182q28 0 34 -15t-3 -65q-10 -50 -23 -65t-41 -15h-565q-28 0 -34.5 18t3.5 62q10 50 23 65t41 15h180l69 366l-335 789h-86q-28 0 -34 15.5zM494 1627q1 12 16 24l299 231q61 45 141 45h23q44 0 71 -10t54 -37l227 -227q34 -34 -19 -47 q-27 -7 -71 -7q-57 0 -84.5 8t-46.5 27l-162 162l-209 -164q-44 -33 -151 -33q-86 0 -88 28z" />
<glyph unicode="&#x177;" horiz-adv-x="1062" d="M-122.5 -421.5q-2.5 17.5 16.5 61.5q18 42 33 51.5t44 -0.5q72 -21 133 -21q60 0 101 17.5t84.5 70t93.5 152.5l39 78q-35 2 -51.5 13.5t-22.5 41.5l-162 752q-6 29 -19.5 38t-47.5 9h-37q-27 0 -34.5 15.5t1.5 62.5q10 49 22.5 63t43.5 14h82q84 0 124 -32t58 -119 l100 -494q23 -138 23 -227h26q39 137 84 229l281 604q13 29 37 39.5t86 10.5q55 0 70 -11t1 -39l-485 -1011q-64 -134 -121.5 -219t-120 -131.5t-124 -63t-146.5 -16.5q-104 0 -182 32q-28 12 -30.5 29.5zM296 1141q2 7 11 16l248 254q24 26 53 36.5t84 10.5q53 0 80 -11 t41 -36l154 -250q8 -16 6.5 -27t-21.5 -17.5t-59 -6.5q-51 0 -76.5 9t-40.5 34l-104 178l-156 -178q-21 -24 -49 -33.5t-84 -9.5q-98 0 -87 31z" />
<glyph unicode="&#x178;" horiz-adv-x="1492" d="M159 1330.5q-6 15.5 3 64.5q10 50 22.5 65t40.5 15h467q28 0 34.5 -18t-3.5 -62q-10 -50 -23 -65t-41 -15h-163l168 -406q47 -116 67 -235h29q60 117 155 233l334 408h-182q-28 0 -34 15.5t3 64.5q10 50 23 65t41 15h481q28 0 34.5 -18t-3.5 -62q-10 -50 -23 -65t-41 -15 h-84l-647 -793l-69 -362h182q28 0 34 -15t-3 -65q-10 -50 -23 -65t-41 -15h-565q-28 0 -34.5 18t3.5 62q10 50 23 65t41 15h180l69 366l-335 789h-86q-28 0 -34 15.5zM537 1757q9 139 127 139h22q56 0 80.5 -24t21.5 -78q-4 -71 -29 -100t-77 -29h-68q-46 0 -63.5 20 t-13.5 72zM1124 1757q9 139 127 139h23q57 0 81 -25.5t21 -76.5q-4 -71 -29.5 -100t-78.5 -29h-66q-46 0 -64 20.5t-14 71.5z" />
<glyph unicode="&#x179;" horiz-adv-x="1292" d="M-37 68l12 77q8 40 29.5 73.5t77.5 88.5l829 830q83 83 209 159l4 25h-725l-30 -150q-6 -30 -28 -41.5t-77 -11.5q-56 0 -72.5 12t-11.5 41l43 215q9 52 35.5 70.5t89.5 18.5h891q65 0 83 -13.5t11 -54.5l-12 -80q-8 -42 -29 -74t-80 -90l-817 -817q-96 -100 -205 -168 l-4 -24h764l35 182q5 28 26 39.5t79 11.5q57 0 74 -11.5t12 -39.5l-50 -248q-10 -53 -36 -70.5t-91 -17.5h-942q-62 0 -82.5 13.5t-11.5 54.5zM550 1626q-3 12 13 25l293 229q61 49 184 49q71 0 84 -31q8 -19 -14 -34l-322 -222q-59 -43 -157 -43q-74 0 -81 27z" />
<glyph unicode="&#x17a;" horiz-adv-x="1169" d="M57 76l13 74q5 36 22.5 62.5t69.5 66.5l534 415q93 72 215 140v24h-526l-18 -90q-6 -31 -26 -41t-75 -10q-58 0 -72 9.5t-8 41.5l29 150q9 49 33 64t90 15h684q62 0 79.5 -13.5t10.5 -61.5l-10 -70q-6 -38 -27 -66t-69 -67l-543 -428q-71 -55 -197 -125v-27h545l20 115 q6 32 28 41.5t77 9.5q54 0 71 -9.5t11 -41.5l-33 -174q-9 -49 -34 -64.5t-89 -15.5h-715q-63 0 -80.5 15t-9.5 61zM468 1137q1 8 9 16l277 258q52 49 172 49q88 0 89 -28q0 -10 -14 -21l-313 -258q-49 -43 -141 -43q-83 0 -79 27z" />
<glyph unicode="&#x17b;" horiz-adv-x="1292" d="M-37 68l12 77q8 40 29.5 73.5t77.5 88.5l829 830q83 83 209 159l4 25h-725l-30 -150q-6 -30 -28 -41.5t-77 -11.5q-56 0 -72.5 12t-11.5 41l43 215q9 52 35.5 70.5t89.5 18.5h891q65 0 83 -13.5t11 -54.5l-12 -80q-8 -42 -29 -74t-80 -90l-817 -817q-96 -100 -205 -168 l-4 -24h764l35 182q5 28 26 39.5t79 11.5q57 0 74 -11.5t12 -39.5l-50 -248q-10 -53 -36 -70.5t-91 -17.5h-942q-62 0 -82.5 13.5t-11.5 54.5zM686 1767q6 150 137 150h29q59 0 85.5 -25t23.5 -84q-3 -77 -30.5 -109t-86.5 -32h-76q-50 0 -68 22t-14 78z" />
<glyph unicode="&#x17c;" horiz-adv-x="1169" d="M57 76l13 74q5 36 22.5 62.5t69.5 66.5l534 415q93 72 215 140v24h-526l-18 -90q-6 -31 -26 -41t-75 -10q-58 0 -72 9.5t-8 41.5l29 150q9 49 33 64t90 15h684q62 0 79.5 -13.5t10.5 -61.5l-10 -70q-6 -38 -27 -66t-69 -67l-543 -428q-71 -55 -197 -125v-27h545l20 115 q6 32 28 41.5t77 9.5q54 0 71 -9.5t11 -41.5l-33 -174q-9 -49 -34 -64.5t-89 -15.5h-715q-63 0 -80.5 15t-9.5 61zM578 1278q8 147 135 147h20q57 0 82.5 -23t24.5 -83q-1 -74 -29 -106.5t-86 -32.5h-63q-51 0 -69 21t-15 77z" />
<glyph unicode="&#x17d;" horiz-adv-x="1292" d="M-37 68l12 77q8 40 29.5 73.5t77.5 88.5l829 830q83 83 209 159l4 25h-725l-30 -150q-6 -30 -28 -41.5t-77 -11.5q-56 0 -72.5 12t-11.5 41l43 215q9 52 35.5 70.5t89.5 18.5h891q65 0 83 -13.5t11 -54.5l-12 -80q-8 -42 -29 -74t-80 -90l-817 -817q-96 -100 -205 -168 l-4 -24h764l35 182q5 28 26 39.5t79 11.5q57 0 74 -11.5t12 -39.5l-50 -248q-10 -53 -36 -70.5t-91 -17.5h-942q-62 0 -82.5 13.5t-11.5 54.5zM440 1874q-29 29 12 43q25 8 72 8q66 0 94.5 -7t47.5 -26l155 -166l211 166q41 33 154 33q84 0 85 -28q0 -11 -16 -23l-301 -229 q-60 -46 -137 -46h-24q-45 0 -72.5 10.5t-52.5 35.5z" />
<glyph unicode="&#x17e;" horiz-adv-x="1169" d="M57 76l13 74q5 36 22.5 62.5t69.5 66.5l534 415q93 72 215 140v24h-526l-18 -90q-6 -31 -26 -41t-75 -10q-58 0 -72 9.5t-8 41.5l29 150q9 49 33 64t90 15h684q62 0 79.5 -13.5t10.5 -61.5l-10 -70q-6 -38 -27 -66t-69 -67l-543 -428q-71 -55 -197 -125v-27h545l20 115 q6 32 28 41.5t77 9.5q54 0 71 -9.5t11 -41.5l-33 -174q-9 -49 -34 -64.5t-89 -15.5h-715q-63 0 -80.5 15t-9.5 61zM409.5 1432.5q2.5 11.5 24.5 18.5t62 7q57 0 80.5 -9t35.5 -34l97 -182l161 182q21 24 49.5 33.5t88.5 9.5q89 0 83 -30q-1 -8 -12 -19l-252 -252 q-27 -27 -55.5 -37t-79.5 -10q-55 0 -79.5 9.5t-41.5 37.5l-155 248q-9 16 -6.5 27.5z" />
<glyph unicode="&#x17f;" horiz-adv-x="741" d="M59 -420l246 1266h-149q-31 0 -36.5 13.5t3.5 60.5q10 51 21 64t42 13h148l20 95q49 225 144.5 316t277.5 91q63 0 134.5 -16t121.5 -41q24 -11 26.5 -29t-18.5 -63q-20 -41 -33 -48.5t-42 3.5q-106 38 -199 38q-94 0 -143 -52.5t-76 -192.5l-297 -1518q-6 -31 -25.5 -41 t-79.5 -10q-59 0 -75.5 10.5t-10.5 40.5z" />
<glyph unicode="&#x192;" d="M-129.5 -323q0.5 19 20.5 57q22 38 37.5 48t40.5 1q90 -33 176 -33q88 0 142 55.5t92 190.5l186 661h-260q-29 0 -35 14t4 58q9 43 20.5 56.5t39.5 13.5h270l78 280q64 228 174 324t301 96q50 0 111 -13.5t106 -37.5q20 -9 20.5 -27t-20.5 -63q-21 -42 -38 -52t-42 1 q-92 34 -172 34q-88 0 -140.5 -51.5t-92.5 -193.5l-82 -297h283q27 0 32.5 -14.5t-2.5 -55.5q-9 -45 -19.5 -58.5t-39.5 -13.5h-295l-178 -645q-61 -223 -168.5 -320.5t-288.5 -97.5q-69 0 -136 14.5t-108 39.5q-17 10 -16.5 29z" />
<glyph unicode="&#x1fa;" horiz-adv-x="1742" d="M-67 18q-6 18 4 62q10 50 22.5 65t40.5 15h84l743 1231q34 57 63 76.5t81 19.5h82q53 0 77.5 -21t36.5 -77l281 -1229h94q28 0 34 -15t-3 -65q-10 -50 -23 -65t-41 -15h-467q-28 0 -34 18t4 62q10 50 22.5 65t40.5 15h154l-66 317h-669l-189 -317h170q28 0 34 -15t-3 -65 q-10 -50 -23 -65t-41 -15h-475q-28 0 -34 18zM586 639h547l-84 418q-31 157 -41 278h-29q-63 -137 -145 -280zM793 1782q7 119 84.5 186.5t197.5 67.5q103 0 156 -48.5t47 -148.5q-8 -120 -81 -189t-202 -69q-104 0 -156 48t-46 153zM798 2138q1 8 9 16l276 259 q52 49 172 49q89 0 90 -28q0 -10 -14 -21l-313 -259q-49 -43 -141 -43q-83 0 -79 27zM922 1790q-5 -98 94 -98q59 0 93.5 36.5t37.5 100.5q6 96 -90 96q-59 0 -95.5 -38t-39.5 -97z" />
<glyph unicode="&#x1fb;" horiz-adv-x="1275" d="M82 377q0 101 25.5 196.5t75.5 176.5t118 142t159.5 95.5t194.5 34.5t179.5 -32.5t111.5 -92.5h27l16 66q6 27 24.5 36t67.5 9q47 0 61 -9.5t9 -37.5l-143 -756q-6 -29 3.5 -39t41.5 -10h43q27 0 34 -15.5t-2 -62.5q-10 -49 -22 -63.5t-43 -14.5h-68q-87 0 -124.5 26 t-43.5 85h-26q-111 -136 -336 -136q-190 0 -286.5 102t-96.5 300zM285 391q0 -258 237 -258q134 0 230.5 90.5t130.5 274.5l14 77q26 137 -37 213t-194 76q-115 0 -203 -65t-133 -172t-45 -236zM449 1311q6 111 79 179.5t191 68.5q101 0 150.5 -51t43.5 -142 q-6 -116 -76 -183t-194 -67q-104 0 -153 49.5t-41 145.5zM464 1669q0 8 9 17l277 258q52 49 172 49q88 0 89 -28q0 -10 -14 -21l-313 -258q-51 -44 -141 -44q-81 0 -79 27zM569 1319q-6 -102 90 -102q60 0 95.5 37t38.5 104q3 49 -21.5 74.5t-71.5 25.5q-56 0 -92 -39.5 t-39 -99.5z" />
<glyph unicode="&#x1fc;" horiz-adv-x="2365" d="M-102 18q-6 18 4 62q10 50 22.5 65t40.5 15h82l1112 1229q44 51 90 68.5t137 17.5h898q64 0 81.5 -19t6.5 -78l-45 -233q-6 -31 -27.5 -43t-77.5 -12q-55 0 -70.5 11.5t-9.5 43.5l31 170h-664l-94 -484h438l15 78q5 30 26 43t76 13q51 0 68.5 -11.5t11.5 -44.5l-61 -327 q-5 -29 -26.5 -41.5t-76.5 -12.5q-54 0 -69.5 12.5t-10.5 43.5l17 88h-437l-98 -512h676l31 172q5 30 26 42.5t78 12.5q55 0 71.5 -12t10.5 -43l-45 -236q-10 -58 -36 -77t-91 -19h-1048q-28 0 -34.5 18t3.5 62q10 50 22.5 65t40.5 15h92l56 286h-594l-260 -286h168 q28 0 33.5 -15t-3.5 -65q-10 -50 -22.5 -65t-40.5 -15h-490q-28 0 -34 18zM684 604h485l142 719h-21q-117 -177 -243 -317zM1445 1626q-3 12 13 25l293 229q61 49 184 49q71 0 84 -31q8 -19 -14 -34l-322 -222q-59 -43 -157 -43q-74 0 -81 27z" />
<glyph unicode="&#x1fd;" horiz-adv-x="1886" d="M82 258q0 157 127.5 255.5t347.5 98.5q193 0 283 -90h26l17 86q26 140 -28.5 197t-215.5 57q-158 0 -309 -49q-28 -8 -41 1t-27 54q-13 41 -8 58t33 28q78 31 185.5 49.5t205.5 18.5q268 0 354 -127h19q145 127 374 127q188 0 290 -79t102 -214q0 -153 -119.5 -238 t-368.5 -85h-289v-41q0 -119 72.5 -176.5t233.5 -57.5q125 0 270 47q27 8 44 -2t30 -53q14 -43 9.5 -59.5t-34.5 -28.5q-65 -26 -167 -43t-198 -17q-293 0 -397 162h-26q-72 -85 -173 -123.5t-241 -38.5q-193 0 -287 73.5t-94 209.5zM285 274q0 -78 52 -115.5t171 -37.5 q153 0 238 55.5t85 147.5q0 68 -60.5 107.5t-188.5 39.5q-145 0 -221 -52t-76 -145zM872 1137q2 8 9 16l276 258q52 49 172 49q89 0 90 -28q-2 -11 -14 -21l-313 -258q-49 -43 -142 -43q-82 0 -78 27zM1057 549h297q140 0 206 46t66 126q0 67 -57.5 107t-167.5 40 q-143 0 -229 -83.5t-115 -235.5z" />
<glyph unicode="&#x1fe;" horiz-adv-x="1591" d="M69 -218q-13 11 3 34l190 280q-164 139 -164 465q0 147 32 283.5t98.5 256t162 208t230 139.5t294.5 51q159 0 277 -47l131 190q14 23 36.5 31t76.5 8q33 0 50 -5t18 -13.5t-5 -20.5l-180 -262q174 -145 174 -465q0 -120 -21 -233.5t-63.5 -219.5t-110.5 -194 t-156.5 -154t-208 -102.5t-259.5 -36.5q-168 0 -289 48l-143 -209q-17 -26 -39 -34.5t-74 -8.5q-47 0 -60 11zM307 567q0 -198 72 -301l708 1034q-78 37 -196 37q-111 0 -206 -41t-163.5 -113t-117.5 -169.5t-73 -210.5t-24 -236zM489 174q81 -37 207 -37q113 0 209.5 41.5 t165 114t117.5 169.5t72.5 209t23.5 232q0 196 -82 307zM591 1626q-3 12 13 25l293 229q61 49 184 49q71 0 84 -31q8 -19 -14 -34l-322 -222q-59 -43 -157 -43q-74 0 -81 27z" />
<glyph unicode="&#x1ff;" horiz-adv-x="1175" d="M37 -188q1 6 6 14l160 237q-121 103 -121 304q0 147 37.5 266.5t110 206.5t185 134.5t255.5 47.5q88 0 168 -23l120 179q18 26 42 36.5t77 10.5q19 0 31.5 -1.5t19.5 -4.5t9.5 -8t1 -10.5t-5.5 -12.5l-170 -252q131 -103 131 -309q0 -303 -154 -477.5t-434 -174.5 q-100 0 -180 25l-117 -174q-21 -35 -105 -35q-67 0 -67 21zM281 381q0 -97 32 -154l426 629q-40 12 -94 12q-176 0 -270 -130t-94 -357zM374 1137q1 8 9 16l276 258q52 49 172 49q89 0 90 -28q-2 -11 -14 -21l-313 -258q-49 -43 -141 -43q-83 0 -79 27zM422 141 q50 -16 108 -16q164 0 264.5 128.5t100.5 356.5q0 104 -41 166z" />
<glyph unicode="&#x218;" horiz-adv-x="1406" d="M37 221l22 109q9 38 32.5 49.5t86.5 11.5q53 0 70 -10.5t10 -44.5l-35 -160q157 -39 363 -39q237 0 340.5 78.5t103.5 222.5q0 70 -26.5 111t-97.5 70t-206 51l-90 14q-206 32 -295.5 114.5t-89.5 237.5q0 217 170.5 340t491.5 123q94 0 196 -15t170 -38 q76 -27 103 -68.5t10 -120.5l-16 -73q-8 -39 -28 -50.5t-85 -11.5q-57 0 -72.5 10.5t-9.5 45.5l23 114q-148 49 -324 49q-206 0 -315 -74t-109 -202q0 -63 22 -99t85 -62t186 -44l84 -12q236 -34 336 -126.5t100 -256.5q0 -50 -6.5 -94.5t-26.5 -95.5t-52 -92.5t-87 -81 t-127 -66.5t-176.5 -43.5t-232.5 -16.5q-211 0 -375 37q-78 16 -111 64.5t-12 144.5zM414 -530q56 108 75 190q-51 13 -51 64q0 60 32.5 94.5t86.5 34.5h14q78 0 78 -76q0 -59 -31.5 -149.5t-80.5 -164.5q-19 -30 -60 -30h-43q-39 0 -20 37z" />
<glyph unicode="&#x219;" horiz-adv-x="1105" d="M55 154l13 67q6 33 28 46.5t78 13.5q52 0 68.5 -10.5t11.5 -37.5l-14 -86q120 -30 260 -30q155 0 216.5 41.5t61.5 130.5q0 40 -16.5 63t-71.5 43t-164 37l-63 10q-160 25 -225.5 86.5t-65.5 165.5q0 154 121 241t354 87q141 0 275 -35q66 -17 90.5 -49t15.5 -92l-10 -60 q-6 -34 -27 -45.5t-78 -11.5q-53 0 -66.5 9.5t-8.5 37.5l12 76q-111 31 -232 31q-251 0 -251 -156q0 -39 15.5 -58.5t64.5 -36t159 -36.5l58 -10q173 -31 241 -94t68 -173q0 -171 -120 -257.5t-390 -86.5q-172 0 -311 33q-68 17 -88 49.5t-9 96.5zM330 -530q58 112 76 190 q-52 13 -52 64q0 60 32.5 94.5t86.5 34.5h14q78 0 78 -76q0 -59 -31.5 -149.5t-80.5 -164.5q-19 -30 -60 -30h-43q-39 0 -20 37z" />
<glyph unicode="&#x21a;" horiz-adv-x="1449" d="M129 1145l45 233q12 59 36.5 78t88.5 19h1135q64 0 81.5 -19t6.5 -78l-45 -233q-6 -32 -29.5 -43.5t-75.5 -11.5q-54 0 -72 11t-12 44l31 170h-383l-225 -1155h190q28 0 34 -15t-3 -65q-10 -50 -23 -65t-41 -15h-575q-28 0 -34.5 18t3.5 62q10 50 23 65t41 15h184 l225 1155h-385l-31 -170q-7 -33 -29.5 -44t-76.5 -11q-52 0 -71 11t-13 44zM434 -530q58 112 76 190q-51 13 -51 64q0 60 32.5 94.5t86.5 34.5h14q78 0 78 -76q0 -59 -31.5 -149.5t-81.5 -164.5q-19 -30 -59 -30h-43q-40 0 -21 37z" />
<glyph unicode="&#x21b;" horiz-adv-x="841" d="M88.5 859.5q-5.5 13.5 3.5 60.5q10 50 22.5 63.5t43.5 13.5h149l49 254q8 37 28 48.5t79 11.5q57 0 74.5 -13.5t11.5 -46.5l-49 -254h284q31 0 37 -13t-4 -64q-9 -47 -20.5 -60.5t-42.5 -13.5h-285l-104 -529q-11 -64 -11 -84q0 -55 26 -73.5t93 -18.5q51 0 137 19 q30 6 42.5 -5.5t21.5 -54.5q10 -44 4.5 -60.5t-33.5 -27.5q-98 -37 -235 -37q-135 0 -194.5 50t-59.5 151q0 55 14 123l106 547h-151q-31 0 -36.5 13.5zM209 -530q58 112 76 190q-52 13 -52 64q0 60 32.5 94.5t86.5 34.5h15q77 0 77 -76q0 -59 -31.5 -149.5t-80.5 -164.5 q-19 -30 -60 -30h-43q-39 0 -20 37z" />
<glyph unicode="&#x2c6;" horiz-adv-x="1024" d="M247 1141q2 7 11 16l248 254q24 26 53 36.5t84 10.5q53 0 80 -11t41 -36l154 -250q8 -16 6.5 -27t-21.5 -17.5t-59 -6.5q-51 0 -76.5 9t-40.5 34l-104 178l-156 -178q-21 -24 -49 -33.5t-84 -9.5q-98 0 -87 31z" />
<glyph unicode="&#x2da;" horiz-adv-x="1024" d="M461 1311q6 111 79 179.5t191 68.5q101 0 151 -51t44 -142q-6 -116 -76.5 -183t-194.5 -67q-104 0 -153 49.5t-41 145.5zM582 1319q-6 -102 90 -102q60 0 95 37t38 104q3 49 -21.5 74.5t-70.5 25.5q-56 0 -92 -39.5t-39 -99.5z" />
<glyph unicode="&#x2dc;" horiz-adv-x="1024" d="M205.5 1244.5q-6.5 15.5 3.5 31.5q44 79 103.5 114t146.5 35q48 0 91.5 -18.5t70.5 -40.5t59.5 -40.5t60.5 -18.5q37 0 62 16t49 57q19 37 82 2q32 -19 39 -32t-2 -33q-71 -158 -238 -158q-45 0 -87.5 18.5t-69.5 40t-60 40t-63 18.5q-39 0 -66.5 -14.5t-64.5 -63.5 q-24 -31 -80 10q-30 21 -36.5 36.5z" />
<glyph unicode="&#x394;" horiz-adv-x="1456" d="M-4 68l10 55q12 60 115 239l592 1037q29 51 57.5 69.5t77.5 18.5h72q49 0 73 -19.5t33 -66.5l223 -1143q15 -78 4 -135l-10 -55q-8 -40 -28.5 -54t-75.5 -14h-1063q-55 0 -71.5 14t-8.5 54zM227 168h832l-133 762q-50 289 -47 405h-31q-36 -108 -121 -262z" />
<glyph unicode="&#x3a9;" horiz-adv-x="1642" d="M62 18q-6 18 4 62q10 50 22.5 65t40.5 15h270l7 24q-108 65 -166 184t-58 283q0 143 33.5 272t100 234t159 181.5t216 118.5t265.5 42q274 0 419 -146t145 -409q0 -261 -121 -464t-336 -296l-6 -24h303q28 0 34 -15t-3 -65q-10 -50 -23 -65t-41 -15h-391q-64 0 -81 15.5 t-11 54.5l8 49q7 45 25 69.5t61 49.5q171 98 271 283t100 417q0 202 -92.5 300.5t-276.5 98.5q-172 0 -297.5 -90t-188.5 -246.5t-63 -361.5q0 -151 38 -242t126 -161q55 -46 37 -121l-10 -45q-9 -40 -32.5 -55t-86.5 -15h-367q-28 0 -34 18z" />
<glyph unicode="&#x3bc;" horiz-adv-x="1400" d="M72 -416l235 1221q4 22 -3 29.5t-30 7.5h-53q-27 0 -35 14t0 51q12 52 35.5 71t73.5 19h139q58 0 76 -20t8 -76l-84 -438q-20 -110 -20 -160q0 -88 42 -129t134 -41q153 0 253 111.5t140 328.5l72 385q5 30 26 41t78 11q58 0 76 -11t12 -41l-145 -753q-6 -29 3.5 -39 t41.5 -10h43q27 0 34.5 -15.5t-1.5 -62.5q-10 -49 -22.5 -63.5t-43.5 -14.5h-74q-90 0 -128 32.5t-29 102.5h-23q-115 -160 -334 -160q-187 0 -229 91h-27q16 -126 -14 -289l-37 -193q-6 -32 -27 -41.5t-77 -9.5q-54 0 -73 9.5t-13 41.5z" />
<glyph unicode="&#x3c0;" horiz-adv-x="1280" d="M111 39l155 803h-121q-27 0 -34 15.5t2 62.5q10 49 22 63t43 14h1084q27 0 34 -15t-2 -62q-10 -50 -22 -64t-43 -14h-162l-123 -635q-6 -31 3.5 -41t47.5 -10h39q27 0 34.5 -15.5t-1.5 -62.5q-10 -49 -22.5 -63.5t-43.5 -14.5h-86q-92 0 -132 31t-40 96q0 24 7 59 l124 656h-415l-156 -803q-6 -31 -29 -41t-75 -10q-54 0 -74 10t-14 41z" />
<glyph unicode="&#x1e80;" horiz-adv-x="2390" d="M175 1330.5q-6 15.5 3 64.5q10 50 23 65t41 15h518q28 0 34.5 -18t-3.5 -62q-10 -50 -23 -65t-41 -15h-207l64 -803q12 -150 12 -373h29q62 185 151 375l357 764q25 52 54 71t85 19h98q58 0 82.5 -19.5t28.5 -78.5l51 -756q13 -200 10 -375h27q61 180 153 375l371 801 h-199q-28 0 -33.5 15.5t3.5 64.5q10 50 22.5 65t40.5 15h506q28 0 34.5 -18t-3.5 -62q-10 -50 -23 -65t-41 -15h-110l-572 -1229q-28 -60 -57.5 -79t-83.5 -19h-102q-56 0 -81 20.5t-28 75.5l-55 819q-10 162 -4 307h-29q-56 -167 -123 -309l-377 -817q-24 -54 -55 -75 t-80 -21h-125q-53 0 -76.5 20t-27.5 76l-99 1231h-106q-28 0 -34 15.5zM1087 1870q-26 22 0 41q27 18 91 18q111 0 163 -49l226 -223q26 -26 -4 -44q-25 -14 -76 -14q-84 0 -133 43z" />
<glyph unicode="&#x1e81;" horiz-adv-x="1648" d="M45.5 857.5q-7.5 15.5 1.5 62.5q10 49 22.5 63t43.5 14h82q90 0 129 -34.5t45 -114.5l37 -500q7 -113 4 -205h28q23 88 72 207l252 590q18 42 40.5 56t78.5 14h96q51 0 72 -14t22 -54l33 -594q7 -119 2 -205h27q39 119 79 209l267 613q11 29 35 37t79 8q58 0 73.5 -10.5 t4.5 -34.5l-411 -910q-17 -38 -44 -52.5t-77 -14.5h-99q-51 0 -73 14.5t-23 54.5l-31 621q-5 81 5 182h-29q-24 -91 -62 -184l-262 -619q-17 -40 -43.5 -54.5t-77.5 -14.5h-104q-50 0 -70.5 14.5t-23.5 52.5l-64 742q-3 27 -16.5 36t-48.5 9h-37q-27 0 -34.5 15.5zM762 1411 q-27 34 32 45q22 4 56 4q109 0 143 -49l183 -258q22 -31 -34 -40l-42 -3q-80 0 -117 43z" />
<glyph unicode="&#x1e82;" horiz-adv-x="2390" d="M175 1330.5q-6 15.5 3 64.5q10 50 23 65t41 15h518q28 0 34.5 -18t-3.5 -62q-10 -50 -23 -65t-41 -15h-207l64 -803q12 -150 12 -373h29q62 185 151 375l357 764q25 52 54 71t85 19h98q58 0 82.5 -19.5t28.5 -78.5l51 -756q13 -200 10 -375h27q61 180 153 375l371 801 h-199q-28 0 -33.5 15.5t3.5 64.5q10 50 22.5 65t40.5 15h506q28 0 34.5 -18t-3.5 -62q-10 -50 -23 -65t-41 -15h-110l-572 -1229q-28 -60 -57.5 -79t-83.5 -19h-102q-56 0 -81 20.5t-28 75.5l-55 819q-10 162 -4 307h-29q-56 -167 -123 -309l-377 -817q-24 -54 -55 -75 t-80 -21h-125q-53 0 -76.5 20t-27.5 76l-99 1231h-106q-28 0 -34 15.5zM1099 1626q-3 12 13 25l293 229q61 49 184 49q71 0 84 -31q8 -19 -14 -34l-322 -222q-59 -43 -157 -43q-74 0 -81 27z" />
<glyph unicode="&#x1e83;" horiz-adv-x="1648" d="M45.5 857.5q-7.5 15.5 1.5 62.5q10 49 22.5 63t43.5 14h82q90 0 129 -34.5t45 -114.5l37 -500q7 -113 4 -205h28q23 88 72 207l252 590q18 42 40.5 56t78.5 14h96q51 0 72 -14t22 -54l33 -594q7 -119 2 -205h27q39 119 79 209l267 613q11 29 35 37t79 8q58 0 73.5 -10.5 t4.5 -34.5l-411 -910q-17 -38 -44 -52.5t-77 -14.5h-99q-51 0 -73 14.5t-23 54.5l-31 621q-5 81 5 182h-29q-24 -91 -62 -184l-262 -619q-17 -40 -43.5 -54.5t-77.5 -14.5h-104q-50 0 -70.5 14.5t-23.5 52.5l-64 742q-3 27 -16.5 36t-48.5 9h-37q-27 0 -34.5 15.5zM609 1137 q1 8 9 16l277 258q52 49 172 49q89 0 90 -28q-2 -11 -14 -21l-314 -258q-49 -43 -141 -43q-83 0 -79 27z" />
<glyph unicode="&#x1e84;" horiz-adv-x="2390" d="M175 1330.5q-6 15.5 3 64.5q10 50 23 65t41 15h518q28 0 34.5 -18t-3.5 -62q-10 -50 -23 -65t-41 -15h-207l64 -803q12 -150 12 -373h29q62 185 151 375l357 764q25 52 54 71t85 19h98q58 0 82.5 -19.5t28.5 -78.5l51 -756q13 -200 10 -375h27q61 180 153 375l371 801 h-199q-28 0 -33.5 15.5t3.5 64.5q10 50 22.5 65t40.5 15h506q28 0 34.5 -18t-3.5 -62q-10 -50 -23 -65t-41 -15h-110l-572 -1229q-28 -60 -57.5 -79t-83.5 -19h-102q-56 0 -81 20.5t-28 75.5l-55 819q-10 162 -4 307h-29q-56 -167 -123 -309l-377 -817q-24 -54 -55 -75 t-80 -21h-125q-53 0 -76.5 20t-27.5 76l-99 1231h-106q-28 0 -34 15.5zM967 1757q9 139 127 139h22q56 0 81 -24t22 -78q-4 -71 -29.5 -100t-77.5 -29h-68q-46 0 -63.5 20t-13.5 72zM1554 1757q9 139 127 139h23q57 0 81 -25.5t21 -76.5q-4 -71 -29.5 -100t-78.5 -29h-66 q-46 0 -64 20.5t-14 71.5z" />
<glyph unicode="&#x1e85;" horiz-adv-x="1648" d="M45.5 857.5q-7.5 15.5 1.5 62.5q10 49 22.5 63t43.5 14h82q90 0 129 -34.5t45 -114.5l37 -500q7 -113 4 -205h28q23 88 72 207l252 590q18 42 40.5 56t78.5 14h96q51 0 72 -14t22 -54l33 -594q7 -119 2 -205h27q39 119 79 209l267 613q11 29 35 37t79 8q58 0 73.5 -10.5 t4.5 -34.5l-411 -910q-17 -38 -44 -52.5t-77 -14.5h-99q-51 0 -73 14.5t-23 54.5l-31 621q-5 81 5 182h-29q-24 -91 -62 -184l-262 -619q-17 -40 -43.5 -54.5t-77.5 -14.5h-104q-50 0 -70.5 14.5t-23.5 52.5l-64 742q-3 27 -16.5 36t-48.5 9h-37q-27 0 -34.5 15.5zM586 1268 q6 135 123 135h16q54 0 76 -23.5t20 -74.5q-1 -68 -25.5 -96.5t-76.5 -28.5h-57q-45 0 -62.5 19.5t-13.5 68.5zM1087 1268q8 135 123 135h17q49 0 74 -22t24 -76q-1 -67 -26.5 -96t-77.5 -29h-58q-44 0 -61.5 19.5t-14.5 68.5z" />
<glyph unicode="&#x1ef2;" horiz-adv-x="1492" d="M159 1330.5q-6 15.5 3 64.5q10 50 22.5 65t40.5 15h467q28 0 34.5 -18t-3.5 -62q-10 -50 -23 -65t-41 -15h-163l168 -406q47 -116 67 -235h29q60 117 155 233l334 408h-182q-28 0 -34 15.5t3 64.5q10 50 23 65t41 15h481q28 0 34.5 -18t-3.5 -62q-10 -50 -23 -65t-41 -15 h-84l-647 -793l-69 -362h182q28 0 34 -15t-3 -65q-10 -50 -23 -65t-41 -15h-565q-28 0 -34.5 18t3.5 62q10 50 23 65t41 15h180l69 366l-335 789h-86q-28 0 -34 15.5zM590 1870q-26 23 0 41q27 18 90 18q112 0 164 -49l225 -223q26 -26 -4 -44q-25 -14 -76 -14 q-84 0 -133 43z" />
<glyph unicode="&#x1ef3;" horiz-adv-x="1062" d="M-122.5 -421.5q-2.5 17.5 16.5 61.5q18 42 33 51.5t44 -0.5q72 -21 133 -21q60 0 101 17.5t84.5 70t93.5 152.5l39 78q-35 2 -51.5 13.5t-22.5 41.5l-162 752q-6 29 -19.5 38t-47.5 9h-37q-27 0 -34.5 15.5t1.5 62.5q10 49 22.5 63t43.5 14h82q84 0 124 -32t58 -119 l100 -494q23 -138 23 -227h26q39 137 84 229l281 604q13 29 37 39.5t86 10.5q55 0 70 -11t1 -39l-485 -1011q-64 -134 -121.5 -219t-120 -131.5t-124 -63t-146.5 -16.5q-104 0 -182 32q-28 12 -30.5 29.5zM375 1411q-27 34 32 45q22 4 56 4q109 0 143 -49l182 -258 q23 -33 -36 -41q-17 -2 -39 -2q-80 0 -117 43z" />
<glyph unicode="&#x2000;" horiz-adv-x="1231" />
<glyph unicode="&#x2001;" horiz-adv-x="2462" />
<glyph unicode="&#x2002;" horiz-adv-x="1231" />
<glyph unicode="&#x2003;" horiz-adv-x="2462" />
<glyph unicode="&#x2004;" horiz-adv-x="820" />
<glyph unicode="&#x2005;" horiz-adv-x="615" />
<glyph unicode="&#x2006;" horiz-adv-x="410" />
<glyph unicode="&#x2007;" horiz-adv-x="410" />
<glyph unicode="&#x2008;" horiz-adv-x="307" />
<glyph unicode="&#x2009;" horiz-adv-x="492" />
<glyph unicode="&#x200a;" horiz-adv-x="136" />
<glyph unicode="&#x2010;" horiz-adv-x="665" d="M24 461q-7 17 3 61q11 48 22 63t41 15h393q28 0 35 -16t-2 -62q-8 -45 -20.5 -61.5t-42.5 -16.5h-392q-30 0 -37 17z" />
<glyph unicode="&#x2011;" horiz-adv-x="665" d="M24 461q-7 17 3 61q11 48 22 63t41 15h393q28 0 35 -16t-2 -62q-8 -45 -20.5 -61.5t-42.5 -16.5h-392q-30 0 -37 17z" />
<glyph unicode="&#x2012;" horiz-adv-x="665" d="M24 461q-7 17 3 61q11 48 22 63t41 15h393q28 0 35 -16t-2 -62q-8 -45 -20.5 -61.5t-42.5 -16.5h-392q-30 0 -37 17z" />
<glyph unicode="&#x2013;" horiz-adv-x="960" d="M45.5 558.5q-6.5 13.5 3.5 59.5q12 47 23 60.5t37 13.5h774q26 0 32.5 -15t-2.5 -59q-9 -47 -20 -60t-39 -13h-774q-28 0 -34.5 13.5z" />
<glyph unicode="&#x2014;" horiz-adv-x="1945" d="M46 559.5q-7 14.5 3 58.5q10 47 21.5 60.5t38.5 13.5h1759q26 0 32 -14t-2 -60q-10 -47 -21.5 -60t-39.5 -13h-1757q-27 0 -34 14.5z" />
<glyph unicode="&#x2018;" horiz-adv-x="575" d="M233 1069q0 69 39.5 176.5t104.5 204.5q24 39 74 39h51q26 0 32.5 -10.5t-4.5 -36.5q-46 -93 -64 -137.5t-32 -98.5q64 -19 64 -88q0 -74 -38 -113.5t-110 -39.5h-18q-52 0 -75.5 23.5t-23.5 80.5z" />
<glyph unicode="&#x2019;" horiz-adv-x="577" d="M244 1010q42 82 59 126t35 109q-64 16 -64 82q0 77 40.5 118.5t109.5 41.5h18q51 0 75 -22.5t24 -73.5q0 -73 -43.5 -188t-102.5 -202q-17 -25 -30.5 -32.5t-40.5 -7.5h-54q-51 0 -26 49z" />
<glyph unicode="&#x201a;" horiz-adv-x="577" d="M47 -238q41 82 58.5 126t35.5 110q-63 16 -63 82q0 77 40 118.5t109 41.5h19q51 0 74.5 -23t23.5 -74q0 -73 -43 -187.5t-102 -201.5q-17 -26 -31 -33.5t-41 -7.5h-53q-52 0 -27 49z" />
<glyph unicode="&#x201c;" horiz-adv-x="993" d="M233 1069q0 69 39.5 176.5t104.5 204.5q24 39 74 39h51q26 0 32.5 -10.5t-4.5 -36.5q-46 -93 -64 -137.5t-32 -98.5q64 -19 64 -88q0 -74 -38 -113.5t-110 -39.5h-18q-52 0 -75.5 23.5t-23.5 80.5zM651 1069q0 68 42.5 178.5t103.5 202.5q23 39 71 39h54q50 0 26 -47 q-63 -127 -94 -236q64 -19 64 -88q0 -73 -39 -113t-111 -40h-18q-51 0 -75 23.5t-24 80.5z" />
<glyph unicode="&#x201d;" horiz-adv-x="997" d="M244 1010q42 82 59 126t35 109q-64 16 -64 82q0 77 40.5 118.5t109.5 41.5h18q51 0 75 -22.5t24 -73.5q0 -73 -43.5 -188t-102.5 -202q-17 -25 -30.5 -32.5t-40.5 -7.5h-54q-51 0 -26 49zM664 1010q65 126 94 235q-64 19 -64 82q0 73 38.5 116.5t111.5 43.5h18 q99 0 99 -96q0 -70 -41.5 -181.5t-104.5 -208.5q-15 -23 -30.5 -31.5t-41.5 -8.5h-53q-51 0 -26 49z" />
<glyph unicode="&#x201e;" horiz-adv-x="997" d="M47 -238q41 82 58.5 126t35.5 110q-63 16 -63 82q0 77 40 118.5t109 41.5h19q51 0 74.5 -23t23.5 -74q0 -73 -43 -187.5t-102 -201.5q-17 -26 -31 -33.5t-41 -7.5h-53q-52 0 -27 49zM467 -238q64 125 94 236q-63 18 -63 82q0 73 38 116.5t111 43.5h19q98 0 98 -97 q0 -70 -41 -181t-105 -208q-15 -23 -30 -32t-41 -9h-53q-52 0 -27 49z" />
<glyph unicode="&#x2022;" horiz-adv-x="839" d="M139 590q0 141 66.5 219t181.5 78h51q193 0 193 -178q0 -137 -50 -202t-155 -65h-133q-80 0 -117 35t-37 113z" />
<glyph unicode="&#x2026;" horiz-adv-x="1605" d="M70 74q0 82 38.5 126t104.5 44h31q57 0 83.5 -24.5t26.5 -76.5q0 -81 -28.5 -117t-89.5 -36h-78q-46 0 -67 19.5t-21 64.5zM580 74q0 82 38 126t105 44h31q56 0 82 -24.5t26 -76.5q0 -81 -28 -117t-89 -36h-77q-46 0 -67 19.5t-21 64.5zM1090 74q0 82 37.5 126t103.5 44 h31q59 0 84.5 -24.5t25.5 -76.5q0 -81 -28 -117t-89 -36h-79q-45 0 -65.5 19.5t-20.5 64.5z" />
<glyph unicode="&#x202f;" horiz-adv-x="492" />
<glyph unicode="&#x2039;" horiz-adv-x="784" d="M129 516l8 37q13 68 74 129l246 254q25 25 54 34t83 9q115 0 55 -66l-379 -399l232 -397q22 -34 5.5 -51t-77.5 -17q-52 0 -75 9.5t-40 37.5l-161 273q-39 65 -25 147z" />
<glyph unicode="&#x203a;" horiz-adv-x="784" d="M115 115l379 399l-232 397q-22 34 -5.5 51t77.5 17q52 0 75 -9.5t40 -37.5l161 -273q41 -68 25 -147l-8 -37q-13 -68 -74 -129l-246 -254q-25 -25 -54 -34t-83 -9q-115 0 -55 66z" />
<glyph unicode="&#x205f;" horiz-adv-x="615" />
<glyph unicode="&#x20ac;" d="M23.5 498q-4.5 13 3.5 53t17 51.5t36 11.5h100q3 108 21 207h-76q-26 0 -32 13t3 51q9 41 18.5 53t35.5 12h83q80 261 272 405t470 144q172 0 299 -43q85 -30 109.5 -72t9.5 -122l-23 -117q-8 -36 -30 -48t-85 -12q-56 0 -73 12t-11 42l31 159q-118 39 -258 39 q-362 0 -500 -387h539q26 0 31.5 -12.5t-2.5 -52.5t-18 -52t-36 -12h-546q-23 -115 -23 -207h522q27 0 32.5 -11.5t-3.5 -51.5q-8 -41 -17 -53.5t-36 -12.5h-494q19 -180 112.5 -262t282.5 -82q112 0 283 43q34 11 51 2.5t31 -53.5q14 -50 8.5 -67.5t-35.5 -28.5 q-171 -62 -378 -62q-273 0 -411 124.5t-155 385.5h-129q-25 0 -29.5 13z" />
<glyph unicode="&#x2122;" horiz-adv-x="2293" d="M182 1255l29 148q6 40 26.5 56t69.5 16h684q49 0 63.5 -15t6.5 -57l-29 -148q-6 -29 -22.5 -38t-65.5 -9q-45 0 -58.5 9.5t-8.5 37.5l16 91h-184l-103 -525h96q21 0 26 -11t-1 -52q-7 -41 -17 -53.5t-32 -12.5h-361q-22 0 -26 12.5t4 53.5q7 40 16.5 51.5t30.5 11.5h98 l101 525h-187l-16 -91q-5 -28 -21.5 -37.5t-66.5 -9.5q-45 0 -59 9.5t-9 37.5zM960.5 705q-4.5 13 2.5 53t16.5 51.5t30.5 11.5h71l164 527h-57q-24 0 -28.5 13t3.5 50q9 43 20 53.5t46 10.5h227q63 0 84.5 -13t24.5 -51l24 -389q5 -47 0 -135h23q20 72 65 178l150 348 q18 37 42.5 49.5t86.5 12.5h262q23 0 28 -13t-3 -51t-16.5 -50.5t-31.5 -12.5h-59l-43 -527h72q20 0 24.5 -11.5t-2.5 -51.5q-9 -43 -17.5 -54.5t-29.5 -11.5h-307q-22 0 -27 12.5t2 53.5q7 40 17 51.5t33 11.5h57l57 531h-28q-32 -121 -111 -289l-102 -223 q-19 -43 -42 -55.5t-87 -12.5h-66q-49 0 -65 14t-19 56l-22 282q-12 144 -7 228h-24l-154 -531h60q21 0 25 -11.5t-3 -51.5q-7 -41 -16.5 -53.5t-30.5 -12.5h-295q-20 0 -24.5 13z" />
<glyph unicode="&#x25fc;" horiz-adv-x="1013" d="M0 0v1014h1014v-1014h-1014z" />
<glyph unicode="&#xfb06;" horiz-adv-x="1929" d="M55 154l13 67q6 33 28 46.5t78 13.5q52 0 68.5 -10.5t11.5 -37.5l-14 -86q120 -30 260 -30q155 0 216.5 41.5t61.5 130.5q0 40 -16.5 63t-71.5 43t-164 37l-63 10q-160 25 -225.5 86.5t-65.5 165.5q0 154 121 241t354 87q48 0 139 -14q-65 55 -65 161q0 140 129 235 t326 95q201 0 315.5 -97.5t114.5 -256.5q0 -48 -19 -148h285q31 0 37 -13t-4 -64q-9 -47 -21 -60.5t-43 -13.5h-285l-104 -529q-10 -58 -10 -84q0 -55 26 -73.5t93 -18.5q51 0 137 19q30 6 42 -5t21 -55q10 -44 5 -60.5t-33 -27.5q-98 -37 -236 -37q-135 0 -194.5 50 t-59.5 151q0 55 14 123l107 547h-152q-30 0 -35.5 13.5t3.5 60.5q10 50 22 63.5t43 13.5h150q18 95 18 131q0 101 -64.5 158t-185.5 57q-120 0 -199 -58t-79 -144q0 -44 15.5 -74t55.5 -70l16.5 -16.5l14.5 -14.5l11.5 -11.5t10 -11t7.5 -9.5t6.5 -9.5t4 -9.5t3.5 -10.5 t1.5 -10.5t0.5 -13q0 -10 -6 -52l-8 -43q-6 -34 -27 -45.5t-78 -11.5q-53 0 -66.5 9.5t-8.5 37.5l12 76q-111 31 -232 31q-251 0 -251 -156q0 -39 15.5 -58.5t64.5 -36t159 -36.5l58 -10q173 -31 241 -94t68 -173q0 -171 -120 -257.5t-390 -86.5q-172 0 -311 33 q-68 17 -88 49.5t-9 96.5z" />
</font>
</defs>
</svg>
