<?xml version="1.0" standalone="no"?>
<!DOCTYPE svg PUBLIC "-//W3C//DTD SVG 1.1//EN" "http://www.w3.org/Graphics/SVG/1.1/DTD/svg11.dtd" >
<svg xmlns="http://www.w3.org/2000/svg">
<metadata></metadata>
<defs>
<font id="fs_rufusbold_italic" horiz-adv-x="1746" >
<font-face units-per-em="2048" ascent="1536" descent="-512" />
<missing-glyph horiz-adv-x="409" />
<glyph unicode="&#xfb00;" horiz-adv-x="1642" d="M57 -397l230 1181h-119q-43 0 -51 18.5t6 90.5q15 71 32 91t58 20h117q45 218 164 337q139 136 401 136q217 0 401 -88q126 110 326 110q72 0 149.5 -16.5t131.5 -44.5q28 -16 30.5 -38.5t-22.5 -90.5q-21 -57 -44 -71.5t-65 -0.5q-100 33 -174 33q-92 0 -142 -43.5 t-69 -139.5l-16 -83h217q42 0 51 -19t-4 -92q-15 -71 -31 -90t-61 -19h-217l-223 -1157q-9 -46 -36.5 -59.5t-115.5 -13.5q-90 0 -114.5 15t-16.5 58l225 1157h-508l-227 -1181q-9 -46 -36.5 -60t-115.5 -14q-90 0 -114.5 15.5t-16.5 58.5zM612 1004h506l17 79q13 67 32 117 q-126 47 -260 47q-123 0 -194.5 -57t-100.5 -186z" />
<glyph unicode="&#xfb01;" horiz-adv-x="1513" d="M57 -397l230 1181h-119q-43 0 -51 18.5t6 90.5q15 71 32 91t58 20h117l16 79q47 230 173.5 323t393.5 93q228 0 387 -59q65 -24 89.5 -67.5t11.5 -121.5l-12 -69q-8 -45 -43.5 -64.5t-124.5 -19.5q-83 0 -114 19.5t-22 64.5l11 53q-87 33 -189 33q-133 0 -198 -46 t-84 -149l-13 -69h197q42 0 51 -19t-4 -92q-15 -71 -31 -90t-61 -19h-197l-227 -1181q-9 -46 -36.5 -60t-115.5 -14q-90 0 -114.5 15.5t-16.5 58.5zM950 870q17 76 50 105t104 29h153q83 0 108 -26t11 -95l-121 -615q-5 -25 3.5 -34t39.5 -9h25q40 0 49 -19.5t-4 -92.5 q-15 -70 -31.5 -91.5t-56.5 -21.5h-106q-119 0 -166 38t-47 120q0 31 8 78l96 499q4 24 -3 33.5t-28 9.5h-33q-39 0 -50.5 21t-0.5 71z" />
<glyph unicode="&#xfb02;" horiz-adv-x="1495" d="M57 -397l230 1181h-119q-43 0 -51 18.5t6 90.5q15 71 32 91t58 20h117l16 79q47 231 172.5 323.5t392.5 92.5q114 0 237.5 -17.5t186.5 -41.5q64 -24 88 -68t9 -121l-189 -983q-5 -25 3.5 -34t39.5 -9h25q40 0 49 -19.5t-4 -92.5q-15 -70 -31.5 -91.5t-56.5 -21.5h-107 q-117 0 -165 38.5t-48 119.5q0 31 8 78l189 993q-32 14 -105.5 26.5t-130.5 12.5q-133 0 -199 -46t-85 -149l-13 -69h197q42 0 51 -19t-4 -92q-15 -71 -31 -90t-61 -19h-197l-227 -1181q-9 -46 -36.5 -60t-115.5 -14q-90 0 -114.5 15.5t-16.5 58.5z" />
<glyph unicode="&#xfb03;" horiz-adv-x="2301" d="M57 -397l230 1181h-119q-43 0 -51 18.5t6 90.5q15 71 32 91t58 20h117q45 218 164 337q139 136 401 136q216 0 395 -84q126 106 412 106q228 0 387 -59q65 -24 89 -67.5t11 -121.5l-12 -69q-8 -45 -43.5 -64.5t-124.5 -19.5q-82 0 -113 19.5t-22 64.5l10 53 q-87 33 -188 33q-133 0 -198.5 -46t-84.5 -149l-12 -69h196q42 0 51.5 -19t-3.5 -92q-15 -71 -31.5 -90t-61.5 -19h-196l-223 -1157q-9 -46 -36.5 -59.5t-115.5 -13.5q-90 0 -114.5 15t-16.5 58l225 1157h-508l-227 -1181q-9 -46 -36.5 -60t-115.5 -14q-90 0 -114.5 15.5 t-16.5 58.5zM612 1004h506l17 79q12 65 30 117q-115 47 -258 47q-123 0 -194.5 -57t-100.5 -186zM1739 870q17 77 50 105.5t103 28.5h154q83 0 108 -26t11 -95l-121 -615q-5 -25 3.5 -34t39.5 -9h24q40 0 49.5 -19.5t-3.5 -92.5q-15 -70 -32 -91.5t-57 -21.5h-106 q-119 0 -166 38t-47 120q0 31 8 78l96 499q4 24 -2.5 33.5t-27.5 9.5h-33q-39 0 -50.5 21t-0.5 71z" />
<glyph unicode="&#xfb04;" horiz-adv-x="2283" d="M57 -397l230 1181h-119q-43 0 -51 18.5t6 90.5q15 71 32 91t58 20h117q48 232 153 337q139 136 412 136q216 0 395 -84q66 56 165.5 81t244.5 25q114 0 237.5 -17.5t186.5 -41.5q64 -24 87.5 -68t8.5 -121l-188 -983q-5 -25 3.5 -34t39.5 -9h24q40 0 49 -19.5t-4 -92.5 q-15 -70 -31.5 -91.5t-56.5 -21.5h-106q-117 0 -165 38.5t-48 119.5q0 31 8 78l188 993q-32 14 -105 26.5t-130 12.5q-134 0 -200 -46.5t-85 -148.5l-12 -69h196q42 0 51.5 -19t-3.5 -92q-15 -71 -31.5 -90t-61.5 -19h-196l-223 -1157q-9 -46 -36.5 -59.5t-115.5 -13.5 q-90 0 -114.5 15t-16.5 58l225 1157h-508l-227 -1181q-9 -46 -36.5 -60t-115.5 -14q-90 0 -114.5 15.5t-16.5 58.5zM612 1004h506l17 79q12 65 30 117q-115 47 -258 47q-136 0 -201.5 -56t-93.5 -187z" />
<glyph horiz-adv-x="2048" />
<glyph horiz-adv-x="2048" />
<glyph unicode="&#xd;" horiz-adv-x="2048" />
<glyph unicode=" "  horiz-adv-x="409" />
<glyph unicode="&#x09;" horiz-adv-x="409" />
<glyph unicode="&#xa0;" horiz-adv-x="409" />
<glyph unicode="!" horiz-adv-x="864" d="M135 96q0 108 48 165.5t134 57.5h39q76 0 111 -31.5t35 -99.5q0 -103 -37.5 -151.5t-114.5 -48.5h-100q-62 0 -88.5 25t-26.5 83zM252 528l143 879q8 45 43.5 62.5t136.5 17.5q104 0 132.5 -17t17.5 -63l-199 -879q-9 -44 -35.5 -57.5t-113.5 -13.5q-85 0 -109 14t-16 57 z" />
<glyph unicode="&#x22;" horiz-adv-x="1144" d="M219 930l80 489q6 40 38 56t116 16q81 0 105 -15t15 -57l-108 -489q-8 -36 -35 -50t-100 -14t-95 14t-16 50zM721 930l80 489q6 40 38 56t115 16q81 0 105.5 -15t15.5 -57l-108 -489q-8 -36 -35.5 -50t-100.5 -14t-94.5 13.5t-15.5 50.5z" />
<glyph unicode="#" horiz-adv-x="1597" d="M46.5 358q-8.5 18 2.5 80q13 64 28.5 82.5t53.5 18.5h152l149 385h-135q-36 0 -44 17.5t3 80.5q13 65 29 82.5t53 17.5h174l121 312q11 28 40 39.5t101 11.5q65 0 85 -15t7 -49l-114 -299h387l121 312q10 27 39 39t100 12q64 0 86 -15t8 -49l-115 -299h135q37 0 45 -17 t-2 -83q-12 -62 -27.5 -80t-53.5 -18h-177l-143 -385h152q38 0 46 -18.5t-3 -82.5q-12 -61 -28.5 -79.5t-53.5 -18.5h-191l-116 -305q-10 -25 -40 -37t-102 -12q-70 0 -89 13t-5 48l115 293h-396l-116 -305q-10 -25 -40 -37t-102 -12t-90 13t-4 48l113 293h-113 q-37 0 -45.5 18zM518 537h402l147 391h-399z" />
<glyph unicode="$" horiz-adv-x="1417" d="M86 266l23 111q9 47 38.5 61.5t114.5 14.5t109.5 -15.5t15.5 -58.5l-27 -135q135 -33 269 -33q315 0 315 235q0 82 -57.5 122.5t-204.5 60.5l-90 12q-189 26 -271.5 112t-82.5 253q0 208 130.5 327t376.5 142l21 104q8 43 34 59.5t101 16.5q74 0 92.5 -14.5t10.5 -59.5 l-21 -104q135 -8 248 -50q71 -26 95 -73t9 -133l-16 -91q-9 -49 -38 -63t-116 -14q-82 0 -105 14t-16 61l17 99q-112 35 -232 35q-155 0 -227 -57t-72 -154q0 -48 17.5 -75.5t70.5 -48.5t158 -36l72 -10q220 -32 307.5 -120t87.5 -267q0 -222 -127 -349.5t-407 -152.5 l-23 -119q-8 -45 -34 -59.5t-101 -14.5q-73 0 -92 15.5t-10 60.5l22 113q-143 10 -268 45q-156 46 -117 233z" />
<glyph unicode="%" horiz-adv-x="1994" d="M127 1024q0 216 119 339.5t319 123.5q328 0 328 -344q0 -99 -28 -182.5t-81.5 -146.5t-137 -98.5t-189.5 -35.5q-172 0 -251 86t-79 258zM254 16q0 13 18 35l1213 1393q42 45 174 45q90 0 90 -29q-1 -12 -14 -28l-1213 -1399q-42 -45 -172 -45q-96 0 -96 28zM352 1032 q0 -97 34 -138.5t99 -41.5q80 0 131.5 76.5t51.5 208.5q0 93 -32 135.5t-95 42.5q-82 0 -135.5 -76t-53.5 -207zM1102 332q0 216 119 339.5t319 123.5q328 0 328 -344q0 -99 -28 -182.5t-81.5 -146.5t-137 -98.5t-189.5 -35.5q-172 0 -251 86t-79 258zM1327 340 q0 -97 34 -138.5t99 -41.5q80 0 131 76t51 208q0 93 -31.5 136t-94.5 43q-82 0 -135.5 -76t-53.5 -207z" />
<glyph unicode="&#x26;" horiz-adv-x="1828" d="M70 358q0 301 303 402l6 31q-129 73 -129 249q0 219 155.5 339t473.5 120q186 0 319 -51q143 -55 117 -199l-17 -90q-8 -45 -36 -60.5t-113 -15.5q-79 0 -101 15.5t-14 58.5l19 98q-102 31 -211 31q-157 0 -232 -67t-75 -189q0 -162 135 -162q33 0 41.5 -18.5t-4.5 -87.5 q-15 -64 -30 -82t-50 -18q-115 0 -188.5 -74.5t-73.5 -188.5q0 -102 66 -152t210 -50q169 0 254.5 70t85.5 202q0 117 -88 180q-33 22 -41 48t4 79q10 54 27 73t53 19h356q133 0 189.5 38.5t56.5 117.5q0 51 25 68.5t110 21.5t114.5 -12t29.5 -60q0 -189 -129 -294 t-371 -105h-125l-6 -31q67 -67 67 -196q0 -96 -40 -175.5t-118.5 -139.5t-205.5 -93t-291 -33q-278 0 -403 97t-125 286z" />
<glyph unicode="'" horiz-adv-x="634" d="M211 930l80 489q6 40 38 56t115 16q81 0 105.5 -15t15.5 -57l-108 -489q-8 -36 -35 -50t-100 -14t-95 14t-16 50z" />
<glyph unicode="(" horiz-adv-x="870" d="M115 131q0 228 63 522l21 95q49 227 105 393.5t119 280t140.5 182t163 98t193.5 29.5h28q35 0 43.5 -19t-2.5 -82q-12 -63 -27 -81.5t-53 -18.5h-37q-64 0 -116.5 -35t-106.5 -122.5t-106 -252.5t-103 -411l-14 -70q-68 -334 -68 -510q0 -177 52 -255.5t151 -78.5h14 q35 0 43.5 -17.5t-2.5 -86.5q-12 -61 -28 -80t-53 -19h-39q-181 0 -281 131t-100 408z" />
<glyph unicode=")" horiz-adv-x="876" d="M-122 -390q-8 18 3 85q13 65 28 83.5t50 18.5h29q54 0 99 21t91.5 75.5t87 145t82 232.5t80.5 335l14 70q72 345 72 541q0 168 -47.5 238.5t-136.5 70.5h-29q-35 0 -43.5 18t2.5 84q12 64 27.5 83.5t54.5 19.5h43q190 0 283.5 -115.5t93.5 -372.5q0 -225 -70 -575 l-18 -90q-59 -286 -130.5 -478.5t-163 -304t-195 -157.5t-240.5 -46h-25q-34 0 -42 18z" />
<glyph unicode="*" horiz-adv-x="958" d="M163.5 971q0.5 18 26.5 30l95 48q62 28 141 32l4 17q-67 9 -117 41l-69 49q-24 13 -22.5 35t34.5 67q34 49 53 57.5t41 -8.5l72 -49q21 -14 44 -41t36 -55l16 8q-24 79 -12 135l20 101q6 30 25 38.5t74 8.5q56 0 71.5 -9.5t10.5 -37.5l-21 -101q-12 -60 -61 -133l14 -10 q60 77 113 106l73 39q25 15 41 5.5t41 -60.5q25 -52 25.5 -69t-25.5 -31l-94 -54q-47 -24 -145 -32l-2 -19q66 -6 116 -37l74 -51q24 -16 22.5 -37.5t-32.5 -64.5q-34 -46 -54 -55t-42 8l-72 49q-46 30 -80 96l-16 -10q20 -69 10 -133l-21 -99q-7 -33 -24.5 -41t-71.5 -8 q-59 0 -73.5 9.5t-8.5 39.5l21 101q10 50 59 133l-12 8q-68 -82 -113 -104l-78 -41q-25 -15 -41 -5t-41 62q-25 54 -24.5 72z" />
<glyph unicode="+" horiz-adv-x="1417" d="M168.5 639q-8.5 21 3.5 92q15 72 32 92.5t56 20.5h334l68 352q9 46 36 60t117 14q89 0 111.5 -14.5t13.5 -59.5l-68 -352h334q39 0 48.5 -20t-3.5 -93q-15 -69 -33 -91t-57 -22h-334l-67 -350q-9 -46 -35 -59.5t-115 -13.5q-66 0 -93.5 6t-36 22t0.5 45l68 350h-334 q-38 0 -46.5 21z" />
<glyph unicode="," horiz-adv-x="649" d="M34 -336q-9 16 5 41q70 132 119 293q-82 26 -82 108q0 94 49.5 148.5t144.5 54.5h27q69 0 98 -29.5t29 -91.5q0 -93 -53.5 -236.5t-128.5 -254.5q-21 -29 -42 -39t-53 -10h-73q-31 0 -40 16z" />
<glyph unicode="-" horiz-adv-x="755" d="M22.5 446.5q-10.5 24.5 4.5 90.5q17 70 34 90t56 20h444q40 0 49.5 -19t-2.5 -91q-13 -69 -31.5 -92t-58.5 -23h-444q-41 0 -51.5 24.5z" />
<glyph unicode="." horiz-adv-x="653" d="M61 96q0 107 48.5 165t134.5 58h39q75 0 110 -31.5t35 -99.5q0 -104 -37 -152t-115 -48h-100q-61 0 -88 25t-27 83z" />
<glyph unicode="/" horiz-adv-x="1363" d="M-151 -320q0 12 14 31l1267 1800q36 52 166 52q35 0 57 -4.5t30.5 -13.5t7.5 -20.5t-11 -25.5l-1267 -1800q-32 -49 -164 -49q-100 0 -100 30z" />
<glyph unicode="0" horiz-adv-x="1458" d="M106 575q0 272 87.5 481.5t252 326t383.5 116.5q259 0 391 -146t132 -456q0 -159 -30.5 -300t-91.5 -254.5t-147.5 -196t-202.5 -127t-253 -44.5q-265 0 -393 144t-128 456zM408 590q0 -210 63.5 -297.5t194.5 -87.5q170 0 277.5 181t107.5 495q0 204 -64.5 296.5 t-195.5 92.5q-77 0 -145.5 -43t-122 -125.5t-84.5 -214.5t-31 -297z" />
<glyph unicode="1" horiz-adv-x="1376" d="M144.5 24.5q-8.5 24.5 5.5 90.5q15 70 31.5 91t54.5 21h292l144 740q24 123 78 260h-35l-338 -281q-26 -26 -56.5 -14t-74.5 72q-44 58 -47.5 87.5t28.5 55.5l322 250q54 41 112.5 59.5t143.5 18.5h117q77 0 104 -24.5t16 -82.5l-223 -1141h246q26 0 36.5 -7t14.5 -31.5 t-8 -73.5q-14 -68 -30.5 -91.5t-55.5 -23.5h-829q-40 0 -48.5 24.5z" />
<glyph unicode="2" horiz-adv-x="1415" d="M53 92l15 86q16 99 114 168l600 428q139 100 188.5 169.5t49.5 158.5t-60 127.5t-212 38.5q-104 0 -193 -25l-29 -151q-8 -45 -37 -60.5t-114 -15.5q-83 0 -106 15.5t-15 60.5l25 155q12 80 63.5 133.5t153.5 81.5q135 37 299 37q274 0 396 -88t122 -278q0 -148 -73 -266 t-257 -257l-238 -180q-122 -93 -311 -156l-4 -30h680q42 0 51 -21t-4 -100q-17 -76 -36.5 -99.5t-59.5 -23.5h-899q-74 0 -96 19.5t-13 72.5z" />
<glyph unicode="3" horiz-adv-x="1456" d="M80 236l20 118q8 45 37 60.5t117 15.5t113.5 -15.5t17.5 -60.5l-23 -125q111 -24 238 -24q344 0 344 260q0 92 -62 139t-212 47h-135q-41 0 -50.5 20.5t2.5 88.5q12 67 27.5 86.5t58.5 19.5h111q164 0 248 63.5t84 188.5q0 158 -256 158q-107 0 -189 -21l-16 -94 q-8 -45 -35.5 -60.5t-109.5 -15.5q-84 0 -108.5 15.5t-16.5 62.5l18 107q25 152 197 194q134 35 317 35q257 0 380.5 -86t123.5 -262q0 -138 -74.5 -231.5t-218.5 -128.5l-6 -31q115 -34 167 -107.5t52 -187.5q0 -236 -169.5 -363t-506.5 -127q-185 0 -313 25 q-109 25 -149 81t-23 155z" />
<glyph unicode="4" horiz-adv-x="1429" d="M86 508l14 78q19 104 109 207l545 632q31 37 69 49.5t135 12.5q148 0 142 -52q-2 -14 -15 -30l-450 -537q-84 -103 -213 -184l-6 -29h446l39 209q9 47 38 61.5t118 14.5q88 0 110.5 -15t14.5 -61l-39 -209h125q42 0 50.5 -19.5t-5.5 -98.5q-13 -72 -31 -92.5t-59 -20.5 h-127l-37 -205h102q37 0 44.5 -19t-5.5 -91q-15 -68 -31 -88.5t-53 -20.5h-551q-40 0 -48.5 21.5t5.5 87.5q13 69 30 89.5t56 20.5h172l37 205h-624q-73 0 -94.5 18.5t-12.5 65.5z" />
<glyph unicode="5" horiz-adv-x="1423" d="M74 238l20 96q9 47 40.5 63.5t123.5 16.5q86 0 113.5 -18.5t19.5 -59.5l-22 -111q81 -20 202 -20q170 0 261.5 72t91.5 212q0 97 -65.5 147t-215.5 50q-93 0 -198.5 -13.5t-129.5 -13.5q-77 0 -99 22t-11 79l117 600q12 63 49 89t123 26h759q79 0 105 -28t14 -97 l-37 -201q-8 -43 -42 -60.5t-122 -17.5q-87 0 -111 16t-16 62l19 102h-479l-68 -356q99 18 219 18q254 0 375 -99t121 -294q0 -256 -176 -400.5t-543 -144.5q-167 0 -303 31q-175 43 -135 232z" />
<glyph unicode="6" horiz-adv-x="1417" d="M143 463q0 223 59.5 414t167 328.5t264 215.5t343.5 78q136 0 227 -33q89 -32 125.5 -91t22.5 -150l-11 -66q-7 -49 -35.5 -63.5t-119.5 -14.5t-117 16t-18 60l16 90q-62 19 -131 19q-169 0 -291.5 -127t-169.5 -351h37q119 119 332 119q422 0 422 -391 q0 -253 -163.5 -397t-453.5 -144q-257 0 -381.5 117.5t-124.5 370.5zM440 471q0 -141 57.5 -204.5t180.5 -63.5q130 0 207.5 76t77.5 208q0 91 -53 137t-171 46q-170 0 -295 -70q-4 -86 -4 -129z" />
<glyph unicode="7" horiz-adv-x="1404" d="M172 1073l59 305q11 56 39 76.5t99 20.5h919q66 0 90 -21.5t15 -71.5l-11 -59q-20 -110 -110 -227l-561 -723q-65 -84 -86.5 -124.5t-32.5 -96.5l-17 -86q-9 -47 -39 -61.5t-122 -14.5q-67 0 -99.5 8t-40.5 23.5t-2 44.5l19 88q16 80 51.5 150t126.5 190l367 483 q102 131 262 242l6 28h-635l-33 -174q-8 -44 -36 -60t-109 -16q-82 0 -104.5 16t-14.5 60z" />
<glyph unicode="8" horiz-adv-x="1429" d="M94 358q0 144 82.5 254t239.5 148l6 31q-84 34 -123 97.5t-39 166.5q0 208 150.5 326t445.5 118q247 0 363 -82.5t116 -249.5q0 -139 -69.5 -240.5t-208.5 -135.5l-6 -31q211 -78 211 -314q0 -224 -164.5 -347.5t-485.5 -123.5q-271 0 -394.5 96.5t-123.5 286.5zM393 391 q0 -99 60.5 -145.5t195.5 -46.5q314 0 314 262q0 97 -58 144.5t-186 47.5q-326 0 -326 -262zM553 1042q0 -95 48 -137.5t151 -42.5q135 0 206.5 65t71.5 191q0 80 -48.5 119t-156.5 39q-134 0 -203 -61.5t-69 -172.5z" />
<glyph unicode="9" horiz-adv-x="1402" d="M68 236l16 90q9 53 39 69.5t117 16.5q90 0 116.5 -17t18.5 -59l-21 -109q70 -18 158 -18q156 0 280 125.5t169 365.5h-37q-118 -118 -326 -118q-212 0 -315 97t-103 292q0 240 152.5 384t449.5 144q510 0 510 -489q0 -235 -60 -430t-167 -327t-256.5 -205t-325.5 -73 q-178 0 -288 37q-158 51 -127 224zM483 1006q0 -191 219 -191q165 0 285 68q10 65 10 123q0 139 -60 203.5t-179 64.5q-131 0 -203 -75t-72 -193z" />
<glyph unicode=":" horiz-adv-x="690" d="M61 96q0 107 48.5 165t134.5 58h39q75 0 110 -31.5t35 -99.5q0 -104 -37 -152t-115 -48h-100q-61 0 -88 25t-27 83zM197 819q0 104 46.5 158.5t129.5 54.5h33q141 0 141 -123q0 -102 -36 -148t-112 -46h-94q-58 0 -83 24t-25 80z" />
<glyph unicode=";" horiz-adv-x="671" d="M34 -336q-9 16 5 41q70 132 119 293q-82 26 -82 108q0 94 49.5 148.5t144.5 54.5h27q69 0 98 -29.5t29 -91.5q0 -93 -53.5 -236.5t-128.5 -254.5q-21 -29 -42 -39t-53 -10h-73q-31 0 -40 16zM199 819q0 104 46.5 158.5t131.5 54.5h31q73 0 107 -29t34 -94 q0 -102 -36 -148t-112 -46h-92q-59 0 -84.5 23.5t-25.5 80.5z" />
<glyph unicode="&#x3c;" horiz-adv-x="1417" d="M248 694l20 90q12 54 38.5 88.5t78.5 65.5l727 438q35 25 63 13t60 -78q31 -67 27.5 -100.5t-41.5 -55.5l-717 -422l586 -444q28 -18 20.5 -47t-59.5 -92q-49 -61 -77 -72.5t-56 12.5l-613 461q-41 32 -54 63.5t-3 79.5z" />
<glyph unicode="=" horiz-adv-x="1415" d="M120.5 380q-8.5 20 2.5 89q13 67 30.5 89t53.5 22h954q34 0 43 -20t-2 -91q-12 -62 -30 -85.5t-54 -23.5h-954q-35 0 -43.5 20zM224.5 910.5q-8.5 19.5 2.5 88.5q13 67 30.5 89t53.5 22h955q34 0 43 -20t-2 -91q-12 -62 -30 -85t-54 -23h-955q-35 0 -43.5 19.5z" />
<glyph unicode="&#x3e;" horiz-adv-x="1417" d="M193.5 255.5q3.5 31.5 42.5 55.5l735 432l-574 435q-28 18 -21 48t58 91q50 60 79 71t54 -12l602 -452q41 -32 54.5 -64t3.5 -80l-19 -90q-11 -52 -37 -86.5t-79 -66.5l-748 -447q-38 -25 -65.5 -11t-57.5 77q-31 68 -27.5 99.5z" />
<glyph unicode="?" horiz-adv-x="1325" d="M180 1100l29 147q27 146 178 197q171 55 397 55q262 0 387 -78.5t125 -246.5q0 -131 -64 -229t-214 -173l-135 -67q-91 -45 -120 -73t-40 -75l-6 -25q-8 -33 -20 -47.5t-41.5 -21t-92.5 -6.5q-92 0 -117 14.5t-14 60.5l8 33q28 114 79 181t151 116l143 70 q115 55 150.5 96t35.5 111q0 68 -64.5 100.5t-211.5 32.5q-55 0 -127.5 -9.5t-118.5 -23.5l-26 -137q-9 -47 -37 -62.5t-115 -15.5q-83 0 -105 15.5t-14 60.5zM324 94q0 106 48 163.5t132 57.5h39q145 0 145 -129q0 -103 -36.5 -150.5t-112.5 -47.5h-103q-59 0 -85.5 24.5 t-26.5 81.5z" />
<glyph unicode="@" horiz-adv-x="2107" d="M61 395q0 526 307 815t881 289q398 0 593.5 -163t195.5 -494q0 -345 -145 -548.5t-390 -203.5q-212 0 -268 121h-33q-95 -121 -289 -121q-169 0 -260.5 89.5t-91.5 269.5q0 172 65 308.5t184 213t271 76.5q166 0 232 -91h33l4 23q6 32 33.5 44.5t101.5 12.5 q69 0 88.5 -13.5t13.5 -47.5l-108 -551q-14 -73 1.5 -102t71.5 -29q94 0 170 149.5t76 393.5q0 481 -590 481q-440 0 -673.5 -233.5t-233.5 -665.5q0 -303 138.5 -438.5t455.5 -135.5q118 0 307 37q32 6 47 -7t27 -62q13 -53 7 -70.5t-38 -28.5q-165 -55 -391 -55 q-401 0 -597 179.5t-196 557.5zM840 469q0 -172 157 -172q99 0 164 69.5t86 190.5l15 82q17 92 -26 147.5t-132 55.5q-119 0 -191.5 -100.5t-72.5 -272.5z" />
<glyph unicode="A" d="M-78 19q-4 8 -3 25q0 24 7 67q13 69 30.5 89.5t57.5 20.5h56l690 1153q41 68 75.5 90.5t106.5 22.5h156q73 0 101 -23t42 -90l248 -1153h67q38 -1 46 -19q4 -8 4 -24q0 -24 -7 -67q-13 -70 -30.5 -90.5t-57.5 -20.5h-505q-38 0 -46 19q-4 8 -4 25q0 24 7 67 q13 69 30.5 89.5t57.5 20.5h125l-41 232h-613l-137 -232h137q38 -1 46 -19q4 -8 4 -24q0 -24 -7 -67q-13 -70 -30.5 -90.5t-57.5 -20.5h-508q-39 0 -47 19zM649 680h445l-52 293q-28 173 -38 299h-33q-81 -177 -150 -297z" />
<glyph unicode="B" horiz-adv-x="1509" d="M-28 19q-4 8 -4 25q0 24 7 67q13 69 30.5 89.5t57.5 20.5h82l199 1032h-80q-38 1 -46 19q-4 8 -4 24q0 24 7 68q13 70 30.5 90.5t57.5 20.5h594q533 0 533 -351q0 -132 -74 -227t-203 -113l-8 -30q109 -30 162 -101.5t53 -197.5q0 -225 -157 -352.5t-445 -127.5 q-232 0 -318 109h-36q-6 -20 -14.5 -34.5t-23.5 -23.5t-28.5 -14.5t-40 -8t-46.5 -3t-58 -0.5h-181q-38 0 -46 19zM444 256q106 -47 279 -47q185 0 265.5 62.5t80.5 191.5q0 90 -66.5 135t-226.5 45h-258zM557 858h242q169 0 252.5 60t83.5 172q0 58 -23 91.5t-87.5 52.5 t-180.5 19h-209z" />
<glyph unicode="C" horiz-adv-x="1466" d="M90 586q0 275 104 480.5t304.5 319t474.5 113.5q182 0 319 -45q104 -35 142 -91q24 -36 24 -92q0 -31 -8 -69l-27 -129q-9 -48 -39 -64t-120 -16q-88 0 -112 16q-18 12 -17 39q0 10 2 23l32 166q-106 33 -239 33q-242 0 -390.5 -183t-148.5 -483q0 -206 94 -297.5 t310 -91.5q139 0 331 51q41 11 60.5 -4t38.5 -82q10 -39 10 -64q-1 -13 -3 -22q-8 -26 -46 -41q-87 -35 -213.5 -56.5t-243.5 -21.5q-328 0 -483.5 151.5t-155.5 459.5z" />
<glyph unicode="D" horiz-adv-x="1624" d="M-28 19q-4 8 -4 25q0 24 7 67q13 69 30.5 89.5t57.5 20.5h82l199 1032h-80q-38 1 -46 19q-4 8 -4 24q0 24 7 68q13 70 30.5 90.5t57.5 20.5h547q678 0 678 -543q0 -205 -58.5 -375.5t-170 -294.5t-283 -193t-387.5 -69h-617q-38 0 -46 19zM438 221h228q116 0 211.5 37.5 t160.5 101t110 150.5t65 183.5t20 201.5q0 358 -408 358h-188z" />
<glyph unicode="E" horiz-adv-x="1519" d="M-28 19q-4 8 -4 25q0 24 7 67q13 69 30.5 89.5t57.5 20.5h87l198 1032h-80q-38 1 -46 19q-4 8 -4 24q0 24 7 68q13 70 30.5 90.5t57.5 20.5h1100q78 -1 100 -25q14 -15 14 -48q0 -20 -5 -46l-41 -217q-9 -51 -39.5 -67.5t-110.5 -16.5q-79 0 -101 16q-15 11 -14 39 q0 13 3 29l22 114h-602l-74 -391h344l6 35q9 51 34.5 66.5t109.5 15.5q79 0 99 -17q14 -12 14 -37q0 -11 -3 -26l-59 -311q-9 -47 -36 -62.5t-107 -15.5q-79 0 -99 15q-13 10 -13 38q0 13 3 29l8 43h-346l-80 -414h611l24 125q9 49 37.5 65.5t110.5 16.5q79 0 101 -16 q15 -11 16 -39q0 -12 -3 -27l-43 -227q-14 -71 -45 -95t-110 -24h-1121q-38 0 -46 19z" />
<glyph unicode="F" horiz-adv-x="1482" d="M-28 19q-4 8 -4 25q0 24 7 67q13 69 30.5 89.5t57.5 20.5h82l199 1032h-80q-38 1 -46 19q-4 8 -4 24q0 24 7 68q13 70 30.5 90.5t57.5 20.5h1100q78 -1 100 -25q14 -15 14 -48q0 -20 -5 -46l-48 -234q-11 -52 -39 -68t-110 -16q-79 0 -101 16q-15 11 -15 39q0 13 3 29 l29 131h-602l-80 -426h352l6 35q9 51 34.5 66.5t109.5 15.5q79 0 99 -17q14 -12 14 -37q0 -11 -3 -26l-59 -311q-9 -47 -36 -62.5t-107 -15.5q-79 0 -99 15q-13 10 -13 38q0 13 3 29l8 43h-354l-72 -379h156q38 -1 46 -19q4 -8 4 -24q0 -24 -7 -67q-13 -70 -30.5 -90.5 t-57.5 -20.5h-531q-38 0 -46 19z" />
<glyph unicode="G" horiz-adv-x="1624" d="M90 582q0 198 60 364.5t176 290t297.5 193t412.5 69.5q194 0 340 -45q117 -36 154 -94q24 -36 24 -91q0 -32 -8 -69l-18 -92q-9 -47 -39 -62.5t-123 -15.5q-91 0 -116 16q-19 12 -19 40q0 9 2 20l22 131q-132 33 -264 33q-273 0 -435.5 -179.5t-162.5 -496.5 q0 -199 88 -289t283 -90q164 0 328 51l63 320h-311q-45 0 -54 20q-5 8 -5 27q0 24 8 67q13 70 32.5 91.5t63.5 21.5h471q73 0 94 -22q12 -14 12 -44q0 -17 -4 -40l-123 -641q-8 -43 -37 -59.5t-108 -16.5q-70 0 -96 18q-23 16 -23 57v7h-35q-146 -97 -372 -97 q-280 0 -429 157t-149 450z" />
<glyph unicode="H" horiz-adv-x="1740" d="M-28 19q-4 8 -4 25q0 24 7 67q13 69 30.5 89.5t57.5 20.5h84l199 1032h-80q-38 1 -46 19q-4 8 -4 24q0 24 7 68q13 70 30.5 90.5t57.5 20.5h443q38 -1 46 -19q4 -8 4 -24q0 -24 -7 -68q-13 -70 -30.5 -90.5t-57.5 -20.5h-72l-74 -383h697l73 383h-78q-39 1 -47 19 q-4 8 -3 24q0 24 7 68q13 70 30.5 90.5t57.5 20.5h443q39 -1 47 -19q4 -8 3 -24q0 -24 -7 -68q-13 -70 -30.5 -90.5t-57.5 -20.5h-76l-199 -1032h84q39 -1 47 -19q4 -8 3 -24q0 -24 -7 -67q-13 -70 -30.5 -90.5t-57.5 -20.5h-454q-38 0 -46 19q-4 8 -4 25q0 24 7 67 q13 69 30.5 89.5t57.5 20.5h80l81 422h-694l-82 -422h80q38 -1 46 -19q4 -8 4 -24q0 -24 -7 -67q-13 -70 -30.5 -90.5t-57.5 -20.5h-455q-38 0 -46 19z" />
<glyph unicode="I" horiz-adv-x="757" d="M-28 19q-4 8 -4 25q0 24 7 67q13 69 30.5 89.5t57.5 20.5h82l199 1032h-80q-38 1 -46 19q-4 8 -4 24q0 24 7 68q13 70 30.5 90.5t57.5 20.5h451q38 -1 46 -19q4 -8 4 -24q0 -24 -7 -68q-13 -70 -30.5 -90.5t-57.5 -20.5h-78l-199 -1032h82q38 -1 46 -19q4 -8 4 -24 q0 -24 -7 -67q-13 -70 -30.5 -90.5t-57.5 -20.5h-457q-38 0 -46 19z" />
<glyph unicode="J" horiz-adv-x="1048" d="M-72 83q0 26 27 85q30 65 53.5 80.5t59.5 -0.5q101 -37 204 -37q106 0 165 62t87 206l150 774h-176q-38 0 -46 19q-4 7 -4 24q0 25 7 68q13 70 30.5 90.5t57.5 20.5h524q38 0 47 -19q3 -7 3 -24q0 -25 -7 -68q-13 -70 -30.5 -90.5t-57.5 -20.5h-55l-142 -737 q-58 -297 -188.5 -419t-374.5 -122q-77 0 -157.5 17t-133.5 43q-43 20 -43 48z" />
<glyph unicode="K" horiz-adv-x="1556" d="M-28 19q-4 8 -4 25q0 24 7 67q13 69 30.5 89.5t57.5 20.5h87l198 1032h-80q-38 1 -46 19q-4 8 -4 24q0 24 7 68q13 70 30.5 90.5t57.5 20.5h437q38 -1 46 -19q4 -8 4 -24q0 -24 -7 -68q-13 -70 -30.5 -90.5t-57.5 -20.5h-66l-78 -405h209l356 405h-90q-38 1 -46 19 q-4 8 -4 24q0 24 7 68q13 70 30.5 90.5t57.5 20.5h502q39 -1 47 -19q4 -8 3 -24q0 -24 -7 -68q-13 -70 -30.5 -90.5t-57.5 -20.5h-86l-432 -479l268 -553h72q38 -1 46 -19q4 -8 4 -24q0 -24 -7 -67q-13 -69 -30.5 -90t-55.5 -21h-146q-70 0 -106 22.5t-66 88.5l-235 510 h-246l-78 -400h92q38 -1 46 -19q4 -8 4 -24q0 -24 -7 -67q-13 -70 -30.5 -90.5t-57.5 -20.5h-469q-38 0 -46 19z" />
<glyph unicode="L" horiz-adv-x="1384" d="M-28 19q-4 8 -4 25q0 24 7 67q13 69 30.5 89.5t57.5 20.5h82l199 1032h-80q-38 1 -46 19q-4 8 -4 24q0 24 7 68q13 70 30.5 90.5t57.5 20.5h488q39 -1 47 -19q4 -8 3 -24q0 -24 -7 -68q-13 -70 -30.5 -90.5t-57.5 -20.5h-115l-199 -1032h539l24 141q8 48 37.5 65 t112.5 17q79 0 103 -17q18 -12 18 -41q0 -11 -2 -24l-47 -243q-14 -71 -44.5 -95t-111.5 -24h-1049q-38 0 -46 19z" />
<glyph unicode="M" horiz-adv-x="2136" d="M-48 19q-4 8 -4 25q0 24 7 67q13 69 30.5 89.5t57.5 20.5h80l289 1032h-76q-38 1 -46 19q-4 8 -4 24q0 24 7 68q13 70 30.5 90.5t57.5 20.5h399q82 0 113.5 -21t34.5 -74l47 -792q4 -80 4 -147q0 -48 -2 -89h37q28 111 82 236l344 792q22 53 61 74t121 21h434 q38 -1 46 -19q4 -8 4 -24q0 -24 -7 -68q-13 -70 -30.5 -90.5t-57.5 -20.5h-80l-112 -1032h84q39 -1 47 -19q4 -8 3 -24q0 -24 -7 -67q-13 -70 -30.5 -90.5t-57.5 -20.5h-465q-39 0 -47 19q-4 8 -3 25q0 24 7 67q13 69 30.5 89.5t57.5 20.5h86l143 1043h-37 q-27 -102 -80 -222l-346 -790q-27 -64 -65 -86.5t-113 -22.5h-147q-74 0 -104 21.5t-34 85.5l-55 794q-3 47 -3 91q0 69 7 129h-35l-266 -1043h100q39 -1 47 -19q4 -8 3 -24q0 -24 -7 -67q-13 -70 -30.5 -90.5t-57.5 -20.5h-446q-38 0 -46 19z" />
<glyph unicode="N" d="M-28 19q-4 8 -4 25q0 24 7 67q13 69 30.5 89.5t57.5 20.5h80l201 1032h-76q-38 1 -46 19q-4 8 -4 24q0 24 7 68q13 70 30.5 90.5t57.5 20.5h396q68 0 100 -22t47 -75l238 -786q53 -177 69 -383h35l203 1044h-96q-39 1 -47 19q-4 8 -3 24q0 24 7 68q13 70 30.5 90.5 t57.5 20.5h428q38 -1 46 -19q4 -8 4 -24q0 -24 -7 -68q-13 -70 -30.5 -90.5t-57.5 -20.5h-76l-236 -1179q-9 -45 -38.5 -65.5t-92.5 -20.5h-192q-67 0 -103 22t-53 76l-248 819q-47 154 -57 357h-35l-205 -1041h105q38 -1 46 -19q4 -8 4 -24q0 -24 -7 -67 q-13 -70 -30.5 -90.5t-57.5 -20.5h-439q-38 0 -46 19z" />
<glyph unicode="O" horiz-adv-x="1628" d="M90 575q0 272 101.5 481t293.5 326t447 117q301 0 453.5 -145.5t152.5 -456.5q0 -274 -101 -482t-293 -324t-450 -116q-309 0 -456.5 144t-147.5 456zM391 590q0 -201 78.5 -293t259.5 -92q225 0 366.5 183.5t141.5 492.5q0 194 -80.5 291.5t-261.5 97.5 q-107 0 -199 -47.5t-160 -134t-106.5 -215.5t-38.5 -283z" />
<glyph unicode="P" horiz-adv-x="1486" d="M-28 19q-4 8 -4 25q0 24 7 67q13 69 30.5 89.5t57.5 20.5h87l198 1032h-80q-38 1 -46 19q-4 8 -4 24q0 24 7 68q13 70 30.5 90.5t57.5 20.5h545q305 0 448.5 -101.5t143.5 -306.5q0 -252 -166.5 -403.5t-441.5 -151.5q-97 0 -163 17.5t-128 58.5h-39l-72 -367h156 q38 -1 46 -19q4 -8 4 -24q0 -24 -7 -67q-13 -70 -30.5 -90.5t-57.5 -20.5h-533q-38 0 -46 19zM549 780q112 -32 242 -32q179 0 267.5 75.5t88.5 210.5q0 110 -79 159.5t-267 49.5h-162z" />
<glyph unicode="Q" horiz-adv-x="1628" d="M90 575q0 272 101.5 481t293.5 326t447 117q301 0 453.5 -145.5t152.5 -456.5q0 -282 -107.5 -494t-304.5 -323l60 -105q35 -60 76 -85t102 -25q52 0 119 18q35 10 53.5 -4.5t36.5 -75.5q12 -42 12 -65q0 -7 -1 -12q-5 -22 -40 -37q-115 -45 -235 -45q-136 0 -221 45 t-142 147l-86 154q-80 -15 -166 -15q-309 0 -456.5 144t-147.5 456zM391 590q0 -201 78.5 -293t259.5 -92q225 0 366.5 183.5t141.5 492.5q0 194 -80.5 291.5t-261.5 97.5q-107 0 -199 -47.5t-160 -134t-106.5 -215.5t-38.5 -283z" />
<glyph unicode="R" horiz-adv-x="1499" d="M-28 19q-4 8 -4 25q0 24 7 67q13 69 30.5 89.5t57.5 20.5h87l198 1032h-80q-38 1 -46 19q-4 8 -4 24q0 24 7 68q13 70 30.5 90.5t57.5 20.5h551q291 0 430.5 -104t139.5 -298q0 -177 -94 -300t-271 -177l143 -375h82q38 -1 46 -19q4 -8 4 -24q0 -24 -7 -67 q-13 -70 -30.5 -90.5t-57.5 -20.5h-135q-82 0 -124 29.5t-66 101.5l-142 424h-278l-64 -334h117q39 -1 47 -19q4 -8 3 -24q0 -24 -7 -67q-13 -70 -30.5 -90.5t-57.5 -20.5h-494q-38 0 -46 19zM549 780h227q181 0 269 70.5t88 200.5q0 100 -71 146t-241 46h-182z" />
<glyph unicode="S" horiz-adv-x="1456" d="M35 260l22 113q9 48 38.5 64t121.5 16q87 1 111 -17q17 -12 17 -38q0 -10 -3 -23l-31 -135q54 -15 147.5 -25t168.5 -10q379 0 379 244q0 51 -23.5 83.5t-89.5 57.5t-186 41l-95 12q-221 29 -315 115.5t-94 247.5q0 229 179.5 361t537.5 132q243 0 391 -55 q76 -28 101 -76q15 -28 15 -70q0 -30 -8 -67l-18 -90q-10 -49 -40 -63.5t-118 -14.5q-83 1 -107 15q-18 11 -18 38q0 10 2 23l21 98q-126 37 -273 37q-186 0 -275 -60t-89 -163q0 -46 19.5 -72t75.5 -45t167 -35l76 -10q258 -35 363.5 -125t105.5 -272q0 -517 -752 -517 q-227 0 -405 48q-80 21 -110 77q-17 32 -18 82q0 35 9 78z" />
<glyph unicode="T" horiz-adv-x="1521" d="M127 1137l43 219q14 71 44.5 95t109.5 24h1165q79 0 101 -24q13 -15 13 -46q0 -21 -6 -49l-41 -219q-9 -48 -40 -65t-113 -17q-81 1 -104 17q-17 12 -17 42q0 10 2 23l21 116h-293l-201 -1032h152q39 -1 47 -19q4 -8 3 -24q0 -24 -7 -67q-13 -70 -30.5 -90.5t-57.5 -20.5 h-596q-38 0 -46 19q-4 8 -4 25q0 24 7 67q13 69 30.5 89.5t57.5 20.5h151l201 1032h-295l-25 -116q-11 -48 -40.5 -65t-110.5 -17q-84 0 -106 18q-17 13 -17 42q0 10 2 22z" />
<glyph unicode="U" horiz-adv-x="1613" d="M147 408q0 79 19 172l131 673h-68q-39 1 -47 19q-4 8 -3 24q0 24 7 68q13 70 30.5 90.5t57.5 20.5h474q38 -1 46 -19q4 -8 4 -24q0 -24 -7 -68q-13 -69 -31 -90t-58 -21h-112l-131 -671q-13 -66 -13 -136q0 -120 67 -180.5t214 -60.5q178 0 278 93.5t138 281.5l131 673 h-107q-39 1 -47 19q-4 8 -3 24q0 24 7 68q13 70 30.5 90.5t57.5 20.5h441q39 -1 47 -19q4 -8 3 -24q0 -24 -7 -68q-13 -70 -30.5 -90.5t-57.5 -20.5h-62l-131 -671q-61 -312 -245 -459.5t-502 -147.5q-259 0 -390 112.5t-131 320.5z" />
<glyph unicode="V" horiz-adv-x="1691" d="M152 1272q-4 8 -3 24q0 24 7 68q13 70 30.5 90.5t57.5 20.5h534q38 -1 46 -19q4 -8 4 -24q0 -24 -7 -68q-13 -70 -30.5 -90.5t-57.5 -20.5h-153l131 -725q28 -151 37 -323h34q74 171 160 323l408 725h-168q-38 1 -46 19q-4 8 -4 24q0 24 7 68q13 70 30.5 90.5t57.5 20.5 h536q39 -1 47 -19q4 -8 3 -24q0 -24 -7 -68q-13 -70 -30.5 -90.5t-57.5 -20.5h-67l-654 -1155q-37 -66 -72.5 -88t-105.5 -22h-186q-71 0 -98 21.5t-39 86.5l-222 1157h-75q-39 1 -47 19z" />
<glyph unicode="W" horiz-adv-x="2357" d="M152 1272q-4 8 -3 24q0 24 7 68q13 70 30.5 90.5t57.5 20.5h497q39 -1 47 -19q4 -8 3 -24q0 -24 -7 -68q-13 -70 -30.5 -90.5t-57.5 -20.5h-129l43 -721q5 -93 5 -210q0 -59 -1 -123h35q49 169 119 333l287 695q27 64 63.5 87t118.5 23h168q79 0 110.5 -22.5t32.5 -89.5 l15 -693q1 -35 1 -71q0 -121 -8 -262h35q42 137 127 333l316 721h-140q-38 1 -46 19q-4 8 -4 24q0 24 7 68q13 70 30.5 90.5t57.5 20.5h490q39 -1 47 -19q4 -8 3 -24q0 -24 -7 -68q-13 -70 -30.5 -90.5t-57.5 -20.5h-78l-510 -1153q-30 -66 -69.5 -89t-114.5 -23h-176 q-80 0 -111 23.5t-31 86.5l-2 721q0 163 11 303h-35q-52 -170 -107 -305l-289 -717q-25 -63 -64 -87.5t-118 -24.5h-205q-77 0 -107.5 23.5t-33.5 86.5l-68 1155h-77q-39 1 -47 19z" />
<glyph unicode="X" horiz-adv-x="1796" d="M-44 19q-4 8 -4 25q0 24 7 67q13 69 30.5 89.5t57.5 20.5h96l533 541l-289 491h-72q-39 -2 -47 18q-4 8 -3 26q0 25 7 67q13 70 30.5 90.5t57.5 20.5h514q40 -1 48 -19q4 -8 3 -24q0 -24 -7 -68q-13 -69 -31 -90t-58 -21h-112l223 -374h37l364 374h-106q-39 1 -47 19 q-4 8 -3 24q0 24 7 68q13 70 30.5 90.5t57.5 20.5h510q38 -1 46 -19q4 -8 4 -24q0 -24 -7 -68q-13 -70 -30.5 -90.5t-57.5 -20.5h-84l-483 -491l335 -541h89q38 -1 46 -19q4 -8 4 -24q0 -24 -7 -67q-13 -69 -31 -90t-58 -21h-573q-39 0 -47 19q-4 8 -3 25q0 24 7 67 q13 69 30.5 89.5t57.5 20.5h141l-249 424h-39l-418 -424h127q38 -1 46 -19q4 -8 4 -24q0 -24 -7 -67q-13 -70 -30.5 -90.5t-57.5 -20.5h-543q-38 0 -46 19z" />
<glyph unicode="Y" horiz-adv-x="1558" d="M148 1272q-3 7 -3 24q0 25 7 68q13 70 30.5 90.5t57.5 20.5h499q38 0 47 -19q3 -7 3 -24q0 -25 -7 -68q-13 -70 -30.5 -90.5t-57.5 -20.5h-127l148 -338q42 -92 51 -194h37q51 105 127 194l287 338h-127q-38 0 -46 19q-4 7 -4 24q0 25 7 68q13 70 30.5 90.5t57.5 20.5 h491q38 0 46 -19q4 -7 4 -24q0 -25 -7 -68q-13 -70 -30.5 -90.5t-57.5 -20.5h-53l-643 -745l-54 -287h150q38 0 47 -19q3 -7 3 -24q0 -24 -7 -67q-13 -70 -30.5 -90.5t-57.5 -20.5h-596q-38 0 -46 19q-4 8 -4 25q0 24 7 67q13 69 30.5 89.5t57.5 20.5h154l53 285l-334 747 h-63q-38 0 -47 19z" />
<glyph unicode="Z" horiz-adv-x="1366" d="M-41 84l16 102q7 45 29.5 78.5t75.5 81.5l733 698q104 97 270 185l4 28h-624l-25 -116q-9 -43 -40 -59.5t-109 -16.5q-81 0 -105 16q-18 12 -18 39q0 9 2 21l47 243q10 54 38 72.5t99 18.5h955q72 -1 92 -17q14 -12 14 -41q0 -12 -2 -26l-18 -113q-6 -42 -26.5 -74.5 t-76.5 -87.5l-700 -674q-102 -99 -264 -192l-7 -33h639l27 141q8 44 38 60t112 16q84 0 107 -17q17 -13 17 -39q0 -9 -2 -20l-53 -268q-10 -54 -38.5 -72t-100.5 -18h-1002q-73 0 -93 16q-14 11 -14 40q0 12 3 28z" />
<glyph unicode="[" horiz-adv-x="976" d="M92 -289l369 1901q14 71 50 95t130 24h360q35 0 43.5 -19t-2.5 -82q-12 -62 -28 -81t-51 -19h-271l-336 -1737h256q35 0 42.5 -18.5t-3.5 -83.5q-10 -60 -25.5 -79.5t-52.5 -19.5h-350q-89 0 -116.5 25t-14.5 94z" />
<glyph unicode="\" horiz-adv-x="1275" d="M236 1497q-11 34 10.5 49t89.5 15t95 -11t36 -39l573 -1800q11 -35 -8 -48t-92 -13q-77 0 -102 10t-33 37z" />
<glyph unicode="]" horiz-adv-x="964" d="M-70 -389.5q-8 18.5 4 84.5q13 64 27.5 81t50.5 17h258l336 1737h-264q-34 0 -42.5 18t3.5 84q12 61 27.5 80t52.5 19h358q91 0 117.5 -24.5t13.5 -94.5l-368 -1901q-14 -70 -49 -94.5t-129 -24.5h-355q-33 0 -41 18.5z" />
<glyph unicode="^" horiz-adv-x="1417" d="M167 847q-7 30 21 58l451 492q46 51 83.5 70.5t84.5 19.5h86q48 0 72 -17.5t47 -62.5l264 -526q19 -34 5.5 -57.5t-79.5 -65.5q-62 -37 -95 -36.5t-52 36.5l-244 479l-449 -504q-26 -30 -56.5 -22.5t-80.5 57.5q-51 49 -58 79z" />
<glyph unicode="_" horiz-adv-x="1273" d="M17 -437q-8 22 6 85q15 70 29.5 88t53.5 18h981q37 0 45.5 -18t-2.5 -88q-13 -69 -28.5 -88t-54.5 -19h-981q-41 0 -49 22z" />
<glyph unicode="`" horiz-adv-x="1024" d="M299 1401q-38 47 54 58q25 3 59 3q97 0 139.5 -15.5t64.5 -45.5l166 -238q23 -32 -34 -46q-30 -7 -82 -7q-68 0 -104 12t-60 41z" />
<glyph unicode="a" horiz-adv-x="1310" d="M74 387q0 178 70.5 324t200 231.5t292.5 85.5q179 0 264 -104h35l8 32q8 31 37 44.5t100 13.5t93 -14q16 -11 16 -35q0 -9 -2 -19l-131 -678q-5 -25 3.5 -34t39.5 -9h28q40 1 50 -19q4 -8 4 -27q0 -24 -8 -66q-15 -70 -32 -91.5t-57 -21.5h-98q-87 0 -129.5 25.5 t-54.5 83.5h-35q-104 -134 -315 -134q-379 0 -379 412zM367 406q0 -106 46 -154.5t140 -48.5q104 0 179 74.5t102 214.5l18 98q5 26 5 50q0 62 -36 104q-50 58 -149 57q-130 0 -217.5 -111.5t-87.5 -283.5z" />
<glyph unicode="b" horiz-adv-x="1298" d="M98 57l215 1149q4 24 -3.5 33.5t-28.5 9.5h-43q-39 0 -51 21q-6 11 -6 30q0 17 5 41q17 76 50 105t104 29h164q82 1 106 -25q16 -17 17 -54q0 -18 -4 -40l-35 -191q-23 -122 -107 -286h35q62 75 144.5 112t201.5 37q178 0 270.5 -101t92.5 -284q0 -145 -43.5 -270.5 t-117.5 -212t-175.5 -136t-214.5 -49.5q-107 0 -182 33t-103 90h-35l-10 -45q-9 -39 -36.5 -53t-102.5 -14q-71 0 -93 16q-16 11 -16 35q0 9 2 20zM430 403q-5 -25 -5 -46q0 -63 39 -102q52 -52 159 -52q134 0 221.5 109t87.5 302q0 187 -176 187q-121 0 -201 -77.5 t-104 -207.5z" />
<glyph unicode="c" horiz-adv-x="1138" d="M74 406q0 135 42 247.5t122.5 196.5t207 131t287.5 47q114 0 213 -24q86 -22 118 -68q24 -34 24 -87q0 -20 -3 -42l-10 -72q-8 -57 -38 -78.5t-107 -21.5q-80 -1 -104 15q-18 12 -17 40q0 10 2 21l12 77q-71 19 -131 19q-146 0 -238 -102.5t-92 -266.5q0 -121 63 -179 t200 -58q124 0 237 37q19 6 34 6q16 0 28 -8q20 -14 39 -72q14 -45 14 -69q0 -9 -2 -15q-7 -22 -47 -41q-153 -64 -371 -64q-259 0 -371 108t-112 323z" />
<glyph unicode="d" horiz-adv-x="1320" d="M74 387q0 139 44.5 259.5t120 203.5t177.5 130.5t215 47.5q186 0 270 -100h33v19q0 63 16 157l19 102q4 24 -3 33.5t-28 9.5h-43q-39 0 -51 21q-6 11 -5 29q0 18 5 42q17 77 50 105.5t103 28.5h164q83 1 107 -25q16 -16 15 -50q0 -19 -5 -44l-209 -1086q-6 -26 3 -35.5 t38 -9.5h29q40 1 49 -19q4 -8 4 -25q0 -24 -8 -68q-15 -70 -31.5 -91.5t-56.5 -21.5h-97q-88 0 -130 25.5t-54 83.5h-35q-53 -66 -129 -100t-192 -34q-385 0 -385 412zM369 408q0 -107 46.5 -156t141.5 -49q111 0 185 75t102 211l18 91q5 26 5 50q-1 64 -39 109 q-54 62 -152 62q-131 0 -219 -111.5t-88 -281.5z" />
<glyph unicode="e" horiz-adv-x="1159" d="M74 389q0 136 39.5 252t114.5 202.5t192 135.5t264 49q205 0 309.5 -88.5t104.5 -224.5q0 -326 -496 -326h-248v-22q0 -166 269 -166q134 0 247 37q19 6 34 6q16 0 28 -8q20 -14 39 -72q14 -44 14 -68q-1 -10 -3 -16q-8 -23 -46 -41q-64 -28 -168.5 -46t-212.5 -18 q-253 0 -367 100t-114 314zM379 588h252q190 0 190 121q0 53 -43.5 82.5t-124.5 29.5q-105 0 -175.5 -61t-98.5 -172z" />
<glyph unicode="f" horiz-adv-x="854" d="M57 -397l230 1181h-119q-43 0 -51 18q-3 7 -3 21q0 24 9 70q15 71 32 91t58 20h117l16 79q43 211 153 313.5t302 102.5q73 0 149.5 -16.5t130.5 -44.5q31 -16 31 -44q0 -25 -22 -85q-17 -44 -33 -62.5t-34 -18t-42 8.5q-97 33 -174 33q-75 0 -116.5 -40.5t-61.5 -142.5 l-17 -83h217q42 0 51 -19q5 -8 5 -26q0 -24 -8 -66q-15 -71 -31.5 -90t-61.5 -19h-217l-227 -1181q-9 -46 -36.5 -60t-115.5 -14q-90 0 -114 15q-19 12 -19 39q0 9 2 20z" />
<glyph unicode="g" horiz-adv-x="1300" d="M6 -360v6q0 28 27 84q29 62 54 74q10 6 23 6q18 0 40 -11q145 -55 292 -55q145 0 216 55.5t90 171.5l4 25q14 77 43 137h-35q-111 -123 -305 -123q-379 0 -379 398q0 176 74 317t206.5 221t298.5 80q181 0 269 -104h34l9 30q10 35 36 48.5t99 13.5q70 0 92 -14 q18 -10 18 -36q0 -8 -2 -18l-174 -942q-46 -255 -192 -371t-428 -116q-104 0 -203 21t-164 54q-39 20 -43 48zM371 430q0 -197 192 -197q107 0 191.5 78.5t105.5 206.5l10 64q4 23 4 44q0 68 -38 114q-48 61 -148 61q-140 0 -228.5 -106.5t-88.5 -264.5z" />
<glyph unicode="h" horiz-adv-x="1359" d="M123 61l223 1145q8 43 -31 43h-45q-37 0 -50 20q-7 10 -7 29q0 18 6 43q17 76 50 105t104 29h164q82 0 106 -26q16 -17 16 -53q0 -18 -4 -40l-34 -182q-28 -148 -107 -293h35q53 74 134.5 110.5t211.5 36.5q162 0 242 -77t80 -236q0 -70 -23 -191l-51 -256 q-5 -25 3.5 -34t39.5 -9h24q40 1 49 -19q4 -8 4 -25q0 -24 -8 -68q-15 -70 -31.5 -91.5t-56.5 -21.5h-106q-119 0 -166 38t-47 120q0 31 8 78l51 262q23 121 23 168q0 137 -139 137q-110 0 -196.5 -97.5t-121.5 -287.5l-67 -357q-9 -46 -36.5 -59.5t-115.5 -13.5 q-90 0 -114 15q-18 11 -19 39q0 8 2 19z" />
<glyph unicode="i" horiz-adv-x="702" d="M129 870q17 76 50 105t104 29h163q83 0 108 -26q16 -17 16 -51q0 -19 -5 -44l-121 -615q-5 -25 3.5 -34t39.5 -9h25q40 1 49 -19q4 -8 4 -25q0 -24 -8 -68q-15 -70 -31.5 -91.5t-56.5 -21.5h-107q-118 0 -165 38t-47 120q0 31 8 78l96 499q4 24 -3 33.5t-28 9.5h-43 q-38 0 -50 21q-6 11 -6 29t5 42zM287 1292q0 106 46.5 162.5t129.5 56.5h39q74 0 108.5 -31t34.5 -98q0 -102 -35.5 -149t-111.5 -47h-99q-60 0 -86 24.5t-26 81.5z" />
<glyph unicode="j" horiz-adv-x="679" d="M-277 -415q-1 5 -1 11q0 26 20 80q23 61 45 76q14 9 36 9q12 0 27 -3q52 -10 97 -10q71 0 110.5 41t59.5 143l151 803q4 24 -2.5 33.5t-27.5 9.5h-43q-39 0 -51 21q-6 11 -6 30q0 17 5 41q17 76 50 105t104 29h164q83 0 108 -26q16 -17 16 -51q0 -19 -5 -44l-181 -934 q-44 -233 -146.5 -332.5t-299.5 -99.5q-99 0 -184 30q-40 14 -46 38zM285 1292q0 106 46.5 162.5t129.5 56.5h39q74 0 108.5 -31t34.5 -98q0 -102 -35.5 -149t-111.5 -47h-99q-60 0 -86 24.5t-26 81.5z" />
<glyph unicode="k" horiz-adv-x="1265" d="M123 61l215 1145q4 24 -3 33.5t-28 9.5h-43q-38 0 -50 21q-6 11 -6 29t5 42q17 76 50 105t104 29h163q83 0 108 -26q16 -17 16 -51q0 -19 -5 -44l-133 -705h168l205 293q32 44 69 59t121 15q124 0 124 -38q0 -14 -15 -36l-291 -420l115 -254q15 -32 33.5 -42.5 t62.5 -10.5q40 1 49 -19q4 -8 4 -26q0 -25 -8 -68q-15 -70 -31.5 -91t-56.5 -21h-66q-103 0 -164 41.5t-104 148.5l-106 264h-148l-71 -383q-9 -46 -36.5 -59.5t-115.5 -13.5q-90 0 -114 15q-18 11 -19 39q0 8 2 19z" />
<glyph unicode="l" horiz-adv-x="686" d="M123 158q0 31 8 78l180 970q4 24 -2.5 33.5t-27.5 9.5h-43q-39 0 -51 21q-6 11 -6 30q0 17 5 41q17 76 50 105t104 29h164q83 0 108 -26q16 -17 16 -51q0 -19 -5 -44l-205 -1086q-5 -25 3.5 -34t39.5 -9h24q40 1 49 -19q4 -8 4 -25q0 -24 -8 -68q-15 -70 -31.5 -91.5 t-56.5 -21.5h-106q-117 0 -165 38.5t-48 119.5z" />
<glyph unicode="m" horiz-adv-x="2015" d="M127 61l133 674q8 43 -31 43h-45q-38 0 -50 21q-6 11 -6 29t5 42q17 76 50 105t104 29h112q57 0 79 -21q20 -19 20 -65v-9l-2 -51h34q105 170 349 170q233 0 290 -170h37q112 170 344 170q162 0 241 -75.5t79 -231.5q0 -82 -21 -189l-51 -264q-5 -25 3.5 -34t39.5 -9h25 q40 1 49 -19q4 -8 4 -25q0 -24 -8 -68q-15 -70 -31.5 -91.5t-56.5 -21.5h-107q-119 0 -166 38t-47 120q0 31 8 78l52 270q22 118 22 166q0 131 -137 131q-102 0 -180.5 -94.5t-112.5 -272.5l-74 -375q-9 -46 -36 -59.5t-115 -13.5q-90 0 -111.5 14.5t-13.5 58.5l86 445 q20 102 20 166q0 131 -137 131q-107 0 -184 -98t-113 -287l-67 -357q-9 -46 -36.5 -59.5t-115.5 -13.5q-90 0 -114 15q-18 11 -19 39q0 8 2 19z" />
<glyph unicode="n" horiz-adv-x="1355" d="M127 61l133 674q8 43 -31 43h-45q-38 0 -50 21q-6 11 -6 29t5 42q17 76 50 105t104 29h112q57 0 79 -22q20 -20 20 -65v-8l-2 -51h34q108 170 359 170q163 0 243 -77t80 -236q0 -81 -22 -191l-51 -256q-5 -25 3.5 -34t39.5 -9h24q40 1 49 -19q4 -8 4 -25q0 -24 -8 -68 q-15 -70 -31.5 -91.5t-56.5 -21.5h-106q-119 0 -166 38t-47 120q0 31 8 78l51 262q23 121 23 168q0 137 -138 137q-111 0 -192.5 -95t-118.5 -290l-67 -357q-9 -46 -36.5 -59.5t-115.5 -13.5q-90 0 -114 15q-18 11 -19 39q0 8 2 19z" />
<glyph unicode="o" horiz-adv-x="1206" d="M74 369q0 319 163.5 489t450.5 170q219 0 332 -103.5t113 -293.5q0 -312 -159.5 -484t-451.5 -172q-222 0 -335 104.5t-113 289.5zM360 391q0 -194 199 -194q131 0 209 111.5t78 299.5q0 199 -197 199q-132 0 -210.5 -111t-78.5 -305z" />
<glyph unicode="p" horiz-adv-x="1335" d="M49 -397l219 1132q4 23 -3 33t-27 10h-45q-39 0 -51 21q-6 11 -6 30q0 17 5 41q17 76 50 105t104 29h119q57 0 78 -22q20 -19 20 -64v-9l-2 -47h35q66 86 152 125t210 39q166 0 260.5 -98t94.5 -285q0 -182 -66 -332.5t-194.5 -243t-296.5 -92.5q-203 0 -273 123h-35v-37 q0 -115 -16 -202l-51 -256q-9 -46 -36.5 -60t-115.5 -14q-90 0 -114 15q-17 12 -17 39q0 9 2 20zM473 403q-4 -24 -4 -45q0 -62 37 -102q50 -53 158 -53q136 0 219.5 111t83.5 300q0 187 -172 187q-116 0 -196.5 -78.5t-104.5 -206.5z" />
<glyph unicode="q" horiz-adv-x="1280" d="M74 389q0 176 73 322t204.5 231.5t295.5 85.5q180 0 268 -104h35l8 32q8 33 34 45.5t104 12.5q72 0 93 -15q15 -11 15 -34q0 -9 -2 -19l-223 -1136q-5 -25 3.5 -34t39.5 -9h25q40 0 49 -19q4 -8 4 -26q0 -24 -8 -68q-15 -70 -31.5 -91.5t-56.5 -21.5h-107 q-117 0 -165 38.5t-48 119.5q0 31 8 78l23 112q20 106 59 197h-35q-95 -111 -293 -111q-186 0 -279 107t-93 307zM369 406q0 -106 47.5 -154.5t142.5 -48.5q108 0 185.5 76t103.5 213l18 98q5 25 5 47q0 62 -37 105q-50 59 -152 59q-136 0 -224.5 -114t-88.5 -281z" />
<glyph unicode="r" horiz-adv-x="991" d="M127 61l133 674q8 43 -31 43h-45q-38 0 -50 21q-6 11 -6 29t5 42q17 76 50 105t104 29h112q55 0 77 -22q20 -20 20 -64v-9l-2 -65h43q94 184 311 184q77 0 135 -22q36 -14 36 -49q0 -32 -30 -103q-31 -71 -57 -88q-15 -10 -36 -10q-13 0 -28 4q-59 16 -106 16 q-104 0 -178 -91.5t-107 -266.5l-67 -357q-9 -46 -36.5 -59.5t-115.5 -13.5q-90 0 -114 15q-18 11 -19 39q0 8 2 19z" />
<glyph unicode="s" horiz-adv-x="1144" d="M51 152l17 79q11 52 39 70t108 18q78 0 99.5 -13.5t15.5 -49.5l-13 -61q94 -25 224 -25q103 0 151.5 28t48.5 93q0 28 -12.5 43.5t-60.5 31.5t-148 33l-84 15q-151 26 -215.5 88.5t-64.5 173.5q0 168 127 260t389 92q168 0 305 -41q60 -19 82 -53q15 -23 15 -57 q0 -16 -3 -33l-10 -56q-9 -50 -36.5 -65.5t-106.5 -15.5q-81 0 -100.5 12t-14.5 51l6 45q-91 21 -176 21q-195 0 -195 -103q0 -30 12.5 -44.5t51 -27t129.5 -30.5l74 -15q175 -33 246 -95.5t71 -174.5q0 -188 -131.5 -279.5t-415.5 -91.5q-200 0 -332 37q-61 17 -83 50 q-14 21 -13 52q0 18 4 38z" />
<glyph unicode="t" horiz-adv-x="913" d="M86 802q-3 7 -3 21q0 24 9 70q15 71 32 91t58 20h121l45 229q9 51 38 67.5t120 16.5q86 0 109 -18q17 -13 17 -41q0 -11 -3 -25l-45 -229h260q42 0 51 -19q4 -8 4 -25q0 -24 -8 -67q-15 -71 -31 -90t-61 -19h-258l-86 -432q-6 -35 -6 -57q0 -43 24.5 -62.5t79.5 -19.5 q62 0 123 14q42 9 61 -7.5t31 -78.5q7 -34 7 -56q0 -19 -5 -30q-10 -24 -51 -39q-109 -41 -258 -41q-159 0 -230 58t-71 174q0 56 14 131l86 446h-123q-43 0 -51 18z" />
<glyph unicode="u" horiz-adv-x="1382" d="M121 870q17 77 50 105.5t103 28.5h166q82 0 106 -26q16 -16 16 -50q0 -20 -5 -45l-76 -385q-20 -98 -20 -164q0 -133 135 -133q238 0 313 395l66 344q9 49 36 62.5t113 13.5q90 0 114 -16q18 -12 19 -40q0 -9 -2 -20l-131 -670q-4 -26 5 -35.5t38 -9.5h27q40 1 49 -19 q4 -8 4 -25q0 -24 -8 -68q-15 -70 -31.5 -91.5t-56.5 -21.5h-94q-90 0 -129 33.5t-41 105.5h-35q-110 -164 -356 -164q-169 0 -245.5 79.5t-76.5 232.5q0 77 21 184l53 264q8 43 -31 43h-45q-38 0 -50 21q-6 11 -6 29t5 42z" />
<glyph unicode="v" horiz-adv-x="1146" d="M42 798q-4 8 -4 26q0 25 7 67q13 71 30 92t58 21h111q100 0 146 -35.5t61 -124.5l71 -422q18 -112 18 -196q0 -19 -1 -36h32q42 131 95 252l223 504q19 42 51.5 56t122.5 14q81 0 103 -16q11 -8 12 -23q0 -13 -9 -31l-399 -854q-29 -61 -66 -82.5t-110 -21.5h-156 q-72 0 -97 20t-36 82l-117 635q-6 30 -21.5 41.5t-49.5 11.5h-27q-40 0 -48 20z" />
<glyph unicode="w" horiz-adv-x="1757" d="M42 798q-4 8 -4 26q0 25 7 67q13 71 30 92t58 21h111q103 0 151 -35.5t54 -124.5l28 -408q6 -74 6 -140q0 -53 -4 -101h35q18 105 66 239l174 477q23 61 59 83t111 22h135q80 0 108.5 -23t30.5 -82l16 -479q1 -41 1 -79q0 -88 -5 -158h33q37 132 80 243l199 514 q15 39 44 51.5t113 12.5q77 0 97 -14q11 -8 12 -24q0 -11 -6 -26l-346 -862q-23 -57 -64 -79.5t-115 -22.5h-143q-74 0 -105 20.5t-32 81.5l-8 545q0 121 6 174h-33q-17 -81 -49 -172l-188 -545q-20 -59 -58.5 -81.5t-120.5 -22.5h-149q-72 0 -101.5 21t-33.5 81l-54 635 q-3 30 -19.5 41.5t-51.5 11.5h-27q-40 0 -48 20z" />
<glyph unicode="x" horiz-adv-x="1269" d="M31 20q-4 8 -4 25q0 25 8 68q15 70 31.5 91t56.5 21h22q63 0 95 43l184 256l-88 201q-24 59 -74 59h-31q-40 0 -49 20q-4 8 -4 25q0 25 8 68q15 69 31 88t57 19h39q105 0 162.5 -26.5t89.5 -103.5l107 -253h28l218 325q28 41 65.5 55.5t120.5 14.5q75 0 97 -16 q10 -8 10 -20q0 -14 -13 -34l-307 -446l125 -238q11 -22 24.5 -29.5t42.5 -7.5h15q40 1 49 -19q4 -8 4 -25q0 -24 -8 -68q-15 -70 -31.5 -91.5t-56.5 -21.5h-47q-89 0 -146 32.5t-90 104.5l-125 269h-29l-186 -273q-48 -69 -110 -101t-152 -32h-90q-40 0 -49 20z" />
<glyph unicode="y" horiz-adv-x="1124" d="M-89 -409q-1 4 -1 9q0 27 24 85q24 60 46 74q12 8 31 8q15 0 34 -5q78 -20 133 -20q91 0 144 42t98 144l26 60q-66 0 -95 19.5t-38 70.5l-125 649q-6 30 -21 40.5t-50 10.5h-27q-40 0 -48 20q-4 8 -4 26q0 24 7 67q13 71 30 92t58 21h111q100 0 146 -35.5t61 -124.5 l77 -434q20 -126 23 -226h35q27 116 71 226l209 534q17 43 50 56.5t126 13.5q82 0 105 -14q13 -8 13 -24q0 -13 -9 -32l-418 -971q-60 -139 -118.5 -228t-127 -139.5t-141.5 -69.5t-172 -19q-113 0 -217 34q-41 14 -46 40z" />
<glyph unicode="z" horiz-adv-x="1181" d="M53 86l17 102q8 46 27 77t65 65l444 329q85 63 211 119v29h-377l-8 -49q-8 -45 -35.5 -60.5t-105.5 -15.5q-83 0 -104 16q-15 11 -15 37q0 10 2 23l29 157q9 53 35 71t96 18h692q70 0 90 -18q14 -12 15 -41q0 -13 -3 -30l-18 -110q-7 -42 -27 -71.5t-65 -65.5l-432 -334 q-70 -54 -199 -109v-28h383l12 71q9 46 35.5 61t108.5 15q78 0 101 -16q17 -12 17 -39q0 -10 -2 -21l-28 -180q-9 -54 -35.5 -71t-99.5 -17h-723q-70 0 -90 16q-15 12 -15 43q0 12 2 27z" />
<glyph unicode="{" horiz-adv-x="958" d="M132.5 582.5q-9.5 21.5 4.5 93.5q14 75 30.5 95t55.5 20h10q52 0 86.5 42.5t57.5 159.5l49 252q52 270 174.5 378t376.5 108h29q34 0 41.5 -17.5t-3.5 -85.5q-10 -60 -26 -79t-53 -19h-33q-76 0 -122 -22t-79 -82.5t-55 -174.5l-41 -211q-29 -152 -76.5 -231.5 t-128.5 -116.5l-6 -30q64 -35 81 -108.5t-11 -236.5l-45 -233q-15 -76 -18 -124.5t4 -83t30 -52t56.5 -24.5t88.5 -7h25q35 0 43.5 -18.5t-2.5 -81.5q-12 -64 -27.5 -82.5t-52.5 -18.5h-45q-236 0 -319 115.5t-33 368.5l49 254q20 91 14.5 142.5t-23.5 70t-51 18.5h-8 q-38 0 -47.5 21.5z" />
<glyph unicode="|" horiz-adv-x="958" d="M160 -354l395 2033q8 37 32 48.5t101 11.5t97 -12.5t14 -47.5l-396 -2033q-6 -36 -31 -48t-102 -12q-53 0 -77.5 6t-30.5 18t-2 36z" />
<glyph unicode="}" horiz-adv-x="972" d="M-88 -388q-9 20 2 83q13 63 27.5 80.5t48.5 17.5h24q133 0 189.5 57.5t89.5 233.5l45 233q27 147 75.5 227.5t129.5 117.5l4 30q-63 35 -79.5 109t11.5 237l43 222q18 88 20 138.5t-16 81.5t-53.5 40.5t-101.5 9.5h-31q-34 0 -42.5 18t3.5 84q12 62 28 80.5t54 18.5h27 q243 0 324 -114t30 -390l-43 -232q-17 -82 -11.5 -127.5t22.5 -61t50 -15.5h11q37 0 46.5 -20.5t-1.5 -94.5q-12 -69 -30.5 -92t-59.5 -23h-9q-51 0 -87.5 -51t-61.5 -180l-47 -248q-50 -259 -177 -374.5t-372 -115.5h-37q-36 0 -45 20z" />
<glyph unicode="~" horiz-adv-x="1417" d="M145 679q-5 30 21 64q72 101 168 155t196 54q73 0 133.5 -25t94.5 -54.5t78 -54.5t88 -25q53 0 95.5 22t84.5 72q27 35 59.5 32.5t85.5 -47.5q38 -32 45.5 -59t-14.5 -61q-75 -117 -174 -172.5t-203 -55.5q-72 0 -132 24.5t-94.5 53.5t-79.5 53.5t-91 24.5q-58 0 -95 -19 t-89 -75q-27 -30 -57 -25t-75 49q-40 39 -45 69z" />
<glyph unicode="&#xa1;" horiz-adv-x="854" d="M57 -401l199 878q9 44 36 58t114 14q85 0 108.5 -14t15.5 -58l-143 -878q-8 -45 -43.5 -62.5t-136.5 -17.5q-104 0 -132.5 17t-17.5 63zM270 805q0 107 48.5 165t134.5 58h39q76 0 110.5 -31.5t34.5 -99.5q0 -103 -37.5 -152t-114.5 -49h-100q-62 0 -88.5 25.5 t-26.5 83.5z" />
<glyph unicode="&#xa2;" horiz-adv-x="1417" d="M201 406q0 249 138 414.5t398 199.5l21 102q9 45 36 60.5t97 15.5q71 0 91 -14.5t11 -59.5l-20 -102q61 -7 108 -18q86 -22 119 -68.5t21 -128.5l-11 -72q-8 -57 -38 -78.5t-107 -21.5q-80 0 -103.5 15.5t-15.5 60.5l12 77q-71 19 -139 19q-146 0 -238 -102.5t-92 -266.5 q0 -121 63 -179t200 -58q132 0 245 37q42 12 62.5 -2t38.5 -72q19 -61 11.5 -84t-46.5 -41q-104 -46 -266 -59l-21 -105q-9 -43 -35.5 -57.5t-97.5 -14.5q-72 0 -91.5 15t-10.5 61l20 105q-192 23 -276 128t-84 294z" />
<glyph unicode="&#xa3;" horiz-adv-x="1417" d="M13.5 21q-9.5 21 0.5 96q11 74 29 95t59 21q121 0 150 152l49 256h-102q-38 0 -45 17t6 77q14 62 28.5 78t49.5 16h100l22 115q57 289 208.5 422t426.5 133q202 0 330 -67q68 -36 91.5 -93t4.5 -147l-18 -92q-10 -51 -37 -64.5t-113 -13.5q-85 0 -109.5 16t-15.5 60 l29 135q-85 33 -188 33q-91 0 -150 -27.5t-101.5 -102t-66.5 -206.5l-18 -101h334q38 0 46 -17t-3 -77q-12 -61 -26.5 -77.5t-53.5 -16.5h-334l-39 -201q-23 -128 -135 -178l-4 -26h557l22 112q9 51 38.5 68.5t115.5 17.5q85 0 108 -16t13 -70l-43 -223q-13 -72 -49.5 -98.5 t-118.5 -26.5h-1002q-36 0 -45.5 21z" />
<glyph unicode="&#xa5;" horiz-adv-x="1417" d="M139 437q-6 15 6 69q13 54 24.5 67t43.5 13h289l-62 166h-204q-33 0 -39 15t6 69q13 54 24 66.5t43 12.5h113l-119 338h-67q-38 0 -46.5 18.5t3.5 92.5q13 70 30.5 90.5t57.5 20.5h493q38 0 46.5 -18.5t-3.5 -92.5q-13 -70 -30.5 -90.5t-57.5 -20.5h-123l92 -288 q36 -112 52 -244h37q51 124 124 231l213 301h-81q-38 0 -46.5 18.5t3.5 92.5q13 70 30.5 90.5t57.5 20.5h444q38 0 46.5 -18.5t-3.5 -92.5q-13 -70 -30.5 -90.5t-57.5 -20.5h-49l-256 -338h102q33 0 39 -15t-6 -69q-13 -54 -24.5 -66.5t-41.5 -12.5h-194l-127 -166h293 q33 0 39 -15t-6 -69q-13 -54 -25 -67t-45 -13h-340l-37 -201h139q38 0 46.5 -18.5t-3.5 -91.5q-13 -70 -30.5 -90.5t-57.5 -20.5h-575q-38 0 -46.5 19t3.5 92q13 69 30.5 89.5t57.5 20.5h143l37 201h-336q-33 0 -39 15z" />
<glyph unicode="&#xa8;" horiz-adv-x="1024" d="M98 1321q10 82 49 119t111 37h27q67 0 94 -28.5t27 -96.5q0 -86 -33.5 -127t-102.5 -41h-75q-63 0 -85 29.5t-12 107.5zM674 1321q10 82 49 119t111 37h26q67 0 94 -28.5t27 -96.5q0 -86 -33 -127t-102 -41h-76q-63 0 -84.5 29.5t-11.5 107.5z" />
<glyph unicode="&#xa9;" horiz-adv-x="1720" d="M90 580q0 269 106 476t309.5 325t475.5 118q649 0 649 -608q0 -275 -108 -482t-311.5 -320.5t-475.5 -113.5q-645 0 -645 605zM281 586q0 -227 117 -340t358 -113q143 0 267.5 51t217.5 145t146 237t53 317q0 458 -479 458q-204 0 -359.5 -97t-238 -268t-82.5 -390z M459 647q0 230 132 362t372 132q122 0 206 -43q50 -26 67 -57.5t9 -77.5l-10 -56q-9 -47 -33.5 -63.5t-87.5 -16.5q-67 0 -87.5 13.5t-12.5 48.5l12 59q-50 13 -92 13q-114 0 -175 -72.5t-61 -204.5q0 -78 47.5 -116t147.5 -38q75 0 170 25q31 8 49 -5.5t31 -62.5 q14 -49 8 -70.5t-37 -33.5q-124 -47 -278 -47q-185 0 -281 79.5t-96 231.5z" />
<glyph unicode="&#xab;" horiz-adv-x="1353" d="M129 510l12 57q18 85 90 160l189 191q31 34 71 47.5t123 13.5q78 0 99 -22.5t-19 -63.5l-350 -373l219 -383q27 -44 3 -66t-107 -22q-82 0 -113.5 13t-56.5 55l-127 213q-52 90 -33 180zM647 510l12 57q18 84 91 160l188 191q33 33 73 47t122 14q78 0 98.5 -22.5 t-19.5 -63.5l-350 -373l219 -383q27 -44 3 -66t-107 -22q-82 0 -113.5 13t-56.5 55l-127 213q-52 90 -33 180z" />
<glyph unicode="&#xad;" horiz-adv-x="755" d="M22.5 446.5q-10.5 24.5 4.5 90.5q17 70 34 90t56 20h444q40 0 49.5 -19t-2.5 -91q-13 -69 -31.5 -92t-58.5 -23h-444q-41 0 -51.5 24.5z" />
<glyph unicode="&#xae;" horiz-adv-x="1720" d="M90 580q0 269 106 476t309.5 325t475.5 118q649 0 649 -608q0 -275 -108 -482t-311.5 -320.5t-475.5 -113.5q-645 0 -645 605zM281 586q0 -227 117 -340t358 -113q143 0 267.5 51t217.5 145t146 237t53 317q0 458 -479 458q-204 0 -359.5 -97t-238 -268t-82.5 -390z M423 362q-5 14 5 64q12 52 22 66t33 14h37l90 465h-30q-26 0 -32.5 16.5t3.5 63.5q10 49 21.5 63t37.5 14h326q164 0 242.5 -56.5t78.5 -170.5q0 -74 -45.5 -140t-128.5 -95l64 -160h29q23 0 28.5 -14.5t-2.5 -65.5q-9 -49 -20.5 -63.5t-36.5 -14.5h-60q-83 0 -116 17.5 t-45 62.5l-60 195h-96l-20 -117h30q24 0 29.5 -14.5t-4.5 -65.5q-10 -50 -20.5 -64t-34.5 -14h-295q-25 0 -30 14zM801 784h88q64 0 97.5 28t33.5 75q0 40 -26 55.5t-105 15.5h-55z" />
<glyph unicode="&#xb4;" horiz-adv-x="1024" d="M277 1144q2 9 12 19l252 238q35 33 87.5 47t141.5 14q120 0 119 -35q-2 -13 -17 -26l-286 -238q-62 -53 -195 -53q-121 0 -114 34z" />
<glyph unicode="&#xb8;" horiz-adv-x="1024" d="M192.5 -391.5q-2.5 18.5 12.5 61.5q16 46 28.5 56.5t34.5 3.5q57 -17 103 -17q102 -3 102 49q0 27 -23.5 40.5t-89.5 13.5q-27 0 -35.5 7.5t-5.5 26.5l31 152q3 17 26 25t85 8q108 0 100 -33l-16 -84q68 -9 106 -51t35 -103q-10 -208 -307 -208q-103 0 -164 26 q-20 8 -22.5 26.5z" />
<glyph unicode="&#xbb;" horiz-adv-x="1353" d="M102 63.5q-21 22.5 19 63.5l350 373l-219 383q-27 44 -3 66t107 22q82 0 113.5 -13t56.5 -55l127 -213q52 -90 33 -180l-12 -57q-18 -85 -90 -160l-189 -191q-33 -33 -73 -47t-121 -14q-78 0 -99 22.5zM620 63.5q-21 22.5 19 63.5l350 373l-219 383q-27 44 -3 66t107 22 q82 0 113.5 -13t56.5 -55l127 -213q52 -90 33 -180l-12 -57q-18 -85 -90 -160l-189 -191q-33 -33 -73 -47t-121 -14q-78 0 -99 22.5z" />
<glyph unicode="&#xbf;" horiz-adv-x="1325" d="M-37 -158q0 131 64.5 229t214.5 173l135 67q91 45 120 73t40 75l6 24q11 48 37.5 62t115.5 14q91 0 116.5 -15t14.5 -61l-8 -32q-28 -115 -78.5 -181.5t-150.5 -115.5l-144 -70q-115 -55 -150.5 -96t-35.5 -111q0 -68 65 -100.5t212 -32.5q55 0 127 9.5t118 23.5l27 137 q9 47 37 62.5t115 15.5q83 0 104.5 -15.5t13.5 -60.5l-28 -147q-27 -146 -179 -197q-171 -55 -397 -55q-262 0 -387 78.5t-125 246.5zM561 807q0 106 48 163.5t132 57.5h39q146 0 146 -129q0 -103 -37 -151t-113 -48h-102q-59 0 -86 25t-27 82z" />
<glyph unicode="&#xc0;" d="M-77.5 19q-8.5 19 3.5 92q13 69 30.5 89.5t57.5 20.5h56l690 1153q41 68 75.5 90.5t106.5 22.5h156q73 0 101 -23t42 -90l248 -1153h67q38 0 46.5 -18.5t-3.5 -91.5q-13 -70 -30.5 -90.5t-57.5 -20.5h-505q-38 0 -46.5 19t3.5 92q13 69 30.5 89.5t57.5 20.5h125l-41 232 h-613l-137 -232h137q38 0 46.5 -18.5t-3.5 -91.5q-13 -70 -30.5 -90.5t-57.5 -20.5h-508q-38 0 -46.5 19zM649 680h445l-52 293q-28 173 -38 299h-33q-81 -177 -150 -297zM678 1904q35 27 131 27q157 0 227 -61l236 -199q32 -26 2 -48q-32 -24 -127 -24q-124 0 -193 54 l-274 207q-30 22 -2 44z" />
<glyph unicode="&#xc1;" d="M-77.5 19q-8.5 19 3.5 92q13 69 30.5 89.5t57.5 20.5h56l690 1153q41 68 75.5 90.5t106.5 22.5h156q73 0 101 -23t42 -90l248 -1153h67q38 0 46.5 -18.5t-3.5 -91.5q-13 -70 -30.5 -90.5t-57.5 -20.5h-505q-38 0 -46.5 19t3.5 92q13 69 30.5 89.5t57.5 20.5h125l-41 232 h-613l-137 -232h137q38 0 46.5 -18.5t-3.5 -91.5q-13 -70 -30.5 -90.5t-57.5 -20.5h-508q-38 0 -46.5 19zM649 680h445l-52 293q-28 173 -38 299h-33q-81 -177 -150 -297zM714 1632q-3 17 17 33l268 205q77 61 242 61q104 0 123 -35q11 -19 -14 -36l-303 -207 q-80 -54 -220 -54q-103 0 -113 33z" />
<glyph unicode="&#xc2;" d="M-77.5 19q-8.5 19 3.5 92q13 69 30.5 89.5t57.5 20.5h56l690 1153q41 68 75.5 90.5t106.5 22.5h156q73 0 101 -23t42 -90l248 -1153h67q38 0 46.5 -18.5t-3.5 -91.5q-13 -70 -30.5 -90.5t-57.5 -20.5h-505q-38 0 -46.5 19t3.5 92q13 69 30.5 89.5t57.5 20.5h125l-41 232 h-613l-137 -232h137q38 0 46.5 -18.5t-3.5 -91.5q-13 -70 -30.5 -90.5t-57.5 -20.5h-508q-38 0 -46.5 19zM520 1635q1 12 19 26l290 213q41 30 83 40.5t120 10.5h31q72 0 109.5 -11.5t66.5 -39.5l217 -211q50 -48 -52 -58l-63 -3q-95 0 -131.5 6t-54.5 22l-139 121 l-178 -121q-24 -15 -65.5 -21.5t-137.5 -6.5q-117 0 -115 33zM649 680h445l-52 293q-28 173 -38 299h-33q-81 -177 -150 -297z" />
<glyph unicode="&#xc3;" d="M-77.5 19q-8.5 19 3.5 92q13 69 30.5 89.5t57.5 20.5h56l690 1153q41 68 75.5 90.5t106.5 22.5h156q73 0 101 -23t42 -90l248 -1153h67q38 0 46.5 -18.5t-3.5 -91.5q-13 -70 -30.5 -90.5t-57.5 -20.5h-505q-38 0 -46.5 19t3.5 92q13 69 30.5 89.5t57.5 20.5h125l-41 232 h-613l-137 -232h137q38 0 46.5 -18.5t-3.5 -91.5q-13 -70 -30.5 -90.5t-57.5 -20.5h-508q-38 0 -46.5 19zM599 1768.5q-10 20.5 1 37.5q48 94 124.5 145.5t172.5 51.5q50 0 101.5 -20.5t87 -45t76.5 -45t71 -20.5q31 0 53 15.5t53 58.5q10 20 36.5 19t76.5 -28 q47 -26 59.5 -46t1.5 -48q-38 -99 -114.5 -151t-165.5 -52q-47 0 -98.5 20t-87.5 43.5t-78 43.5t-74 20q-81 0 -135 -75q-9 -13 -20 -16t-33 6t-56 34q-42 32 -52 52.5zM649 680h445l-52 293q-28 173 -38 299h-33q-81 -177 -150 -297z" />
<glyph unicode="&#xc4;" d="M-77.5 19q-8.5 19 3.5 92q13 69 30.5 89.5t57.5 20.5h56l690 1153q41 68 75.5 90.5t106.5 22.5h156q73 0 101 -23t42 -90l248 -1153h67q38 0 46.5 -18.5t-3.5 -91.5q-13 -70 -30.5 -90.5t-57.5 -20.5h-505q-38 0 -46.5 19t3.5 92q13 69 30.5 89.5t57.5 20.5h125l-41 232 h-613l-137 -232h137q38 0 46.5 -18.5t-3.5 -91.5q-13 -70 -30.5 -90.5t-57.5 -20.5h-508q-38 0 -46.5 19zM575 1806q14 86 55 121t109 35h25q73 0 103.5 -33t21.5 -110q-10 -86 -40.5 -119t-94.5 -33h-80q-64 0 -88 31t-11 108zM649 680h445l-52 293q-28 173 -38 299h-33 q-81 -177 -150 -297zM1184 1806q14 86 54.5 121t109.5 35h22q74 0 103 -34t20 -109q-10 -86 -41 -119t-96 -33h-74q-63 0 -86.5 30.5t-11.5 108.5z" />
<glyph unicode="&#xc5;" d="M-77.5 19q-8.5 19 3.5 92q13 69 30.5 89.5t57.5 20.5h56l690 1153q41 68 75.5 90.5t106.5 22.5h156q73 0 101 -23t42 -90l248 -1153h67q38 0 46.5 -18.5t-3.5 -91.5q-13 -70 -30.5 -90.5t-57.5 -20.5h-505q-38 0 -46.5 19t3.5 92q13 69 30.5 89.5t57.5 20.5h125l-41 232 h-613l-137 -232h137q38 0 46.5 -18.5t-3.5 -91.5q-13 -70 -30.5 -90.5t-57.5 -20.5h-508q-38 0 -46.5 19zM649 680h445l-52 293q-28 173 -38 299h-33q-81 -177 -150 -297zM819 1837q20 125 106.5 194.5t215.5 69.5q126 0 185 -64.5t40 -181.5q-20 -135 -101.5 -203.5 t-213.5 -68.5q-128 0 -190.5 62t-41.5 192zM967 1837q-10 -66 18.5 -97.5t87.5 -31.5q57 0 94.5 35.5t49.5 105.5q9 62 -17.5 93.5t-81.5 31.5q-61 0 -101.5 -36.5t-49.5 -100.5z" />
<glyph unicode="&#xc6;" horiz-adv-x="2414" d="M-105.5 19q-8.5 19 3.5 92q13 69 30.5 89.5t57.5 20.5h61l1000 1147q53 62 108 84.5t158 22.5h995q78 0 100 -24.5t9 -94.5l-41 -217q-9 -51 -39.5 -67.5t-110.5 -16.5q-79 0 -100.5 16t-11.5 68l22 114h-571l-74 -391h313l6 35q9 51 34.5 66.5t109.5 15.5q79 0 99 -17 t11 -63l-59 -311q-9 -47 -36 -62.5t-107 -15.5q-79 0 -98.5 15t-10.5 67l8 43h-315l-80 -414h580l24 125q9 49 37.5 65.5t110.5 16.5q80 0 101.5 -15.5t12.5 -66.5l-43 -227q-14 -71 -45 -95t-110 -24h-1086q-38 0 -46.5 19t3.5 92q13 69 30.5 89.5t57.5 20.5h82l41 217 h-545l-188 -217h137q38 0 46.5 -18.5t-3.5 -91.5q-13 -70 -30.5 -90.5t-57.5 -20.5h-534q-38 0 -46.5 19zM762 666h395l119 602h-35q-92 -163 -207 -293z" />
<glyph unicode="&#xc7;" horiz-adv-x="1466" d="M90 586q0 275 104 480.5t304.5 319t474.5 113.5q182 0 319 -45q104 -35 141.5 -91t16.5 -161l-27 -129q-9 -48 -39 -64t-120 -16q-87 0 -111.5 16t-15.5 62l32 166q-106 33 -239 33q-242 0 -390.5 -183t-148.5 -483q0 -206 94 -297.5t310 -91.5q139 0 331 51 q41 11 60.5 -4t38.5 -82q16 -60 7.5 -86t-46.5 -41q-124 -51 -330 -71l-12 -64q68 -9 106 -51t35 -103q-10 -208 -307 -208q-103 0 -164 26q-20 8 -22.5 26.5t12.5 61.5q16 46 28.5 56.5t34.5 3.5q57 -17 103 -17q102 -3 102 49q0 27 -23.5 40.5t-89.5 13.5q-27 0 -35.5 7.5 t-5.5 26.5l25 127q-283 19 -418 170t-135 439z" />
<glyph unicode="&#xc8;" horiz-adv-x="1519" d="M-28.5 19q-8.5 19 3.5 92q13 69 30.5 89.5t57.5 20.5h87l198 1032h-80q-38 0 -46.5 18.5t3.5 92.5q13 70 30.5 90.5t57.5 20.5h1100q78 0 100 -24.5t9 -94.5l-41 -217q-9 -51 -39.5 -67.5t-110.5 -16.5q-79 0 -100.5 16t-11.5 68l22 114h-602l-74 -391h344l6 35 q9 51 34.5 66.5t109.5 15.5q79 0 99 -17t11 -63l-59 -311q-9 -47 -36 -62.5t-107 -15.5q-79 0 -98.5 15t-10.5 67l8 43h-346l-80 -414h611l24 125q9 49 37.5 65.5t110.5 16.5q80 0 101.5 -15.5t12.5 -66.5l-43 -227q-14 -71 -45 -95t-110 -24h-1121q-38 0 -46.5 19z M539 1904q35 27 131 27q157 0 227 -61l236 -199q32 -26 2 -48q-32 -24 -127 -24q-124 0 -193 54l-274 207q-30 22 -2 44z" />
<glyph unicode="&#xc9;" horiz-adv-x="1519" d="M-28.5 19q-8.5 19 3.5 92q13 69 30.5 89.5t57.5 20.5h87l198 1032h-80q-38 0 -46.5 18.5t3.5 92.5q13 70 30.5 90.5t57.5 20.5h1100q78 0 100 -24.5t9 -94.5l-41 -217q-9 -51 -39.5 -67.5t-110.5 -16.5q-79 0 -100.5 16t-11.5 68l22 114h-602l-74 -391h344l6 35 q9 51 34.5 66.5t109.5 15.5q79 0 99 -17t11 -63l-59 -311q-9 -47 -36 -62.5t-107 -15.5q-79 0 -98.5 15t-10.5 67l8 43h-346l-80 -414h611l24 125q9 49 37.5 65.5t110.5 16.5q80 0 101.5 -15.5t12.5 -66.5l-43 -227q-14 -71 -45 -95t-110 -24h-1121q-38 0 -46.5 19z M651 1632q-3 17 17 33l268 205q77 61 242 61q105 0 123 -35q9 -19 -15 -36l-303 -207q-80 -54 -219 -54q-103 0 -113 33z" />
<glyph unicode="&#xca;" horiz-adv-x="1519" d="M-28.5 19q-8.5 19 3.5 92q13 69 30.5 89.5t57.5 20.5h87l198 1032h-80q-38 0 -46.5 18.5t3.5 92.5q13 70 30.5 90.5t57.5 20.5h1100q78 0 100 -24.5t9 -94.5l-41 -217q-9 -51 -39.5 -67.5t-110.5 -16.5q-79 0 -100.5 16t-11.5 68l22 114h-602l-74 -391h344l6 35 q9 51 34.5 66.5t109.5 15.5q79 0 99 -17t11 -63l-59 -311q-9 -47 -36 -62.5t-107 -15.5q-79 0 -98.5 15t-10.5 67l8 43h-346l-80 -414h611l24 125q9 49 37.5 65.5t110.5 16.5q80 0 101.5 -15.5t12.5 -66.5l-43 -227q-14 -71 -45 -95t-110 -24h-1121q-38 0 -46.5 19z M427 1636q1 11 19 25l291 213q41 30 83 40.5t120 10.5h31q72 0 109.5 -11.5t66.5 -39.5l217 -211q50 -48 -52 -58l-63 -3q-95 0 -131.5 6t-54.5 22l-139 121l-179 -121q-24 -15 -65 -21.5t-137 -6.5q-118 0 -116 34z" />
<glyph unicode="&#xcb;" horiz-adv-x="1519" d="M-28.5 19q-8.5 19 3.5 92q13 69 30.5 89.5t57.5 20.5h87l198 1032h-80q-38 0 -46.5 18.5t3.5 92.5q13 70 30.5 90.5t57.5 20.5h1100q78 0 100 -24.5t9 -94.5l-41 -217q-9 -51 -39.5 -67.5t-110.5 -16.5q-79 0 -100.5 16t-11.5 68l22 114h-602l-74 -391h344l6 35 q9 51 34.5 66.5t109.5 15.5q79 0 99 -17t11 -63l-59 -311q-9 -47 -36 -62.5t-107 -15.5q-79 0 -98.5 15t-10.5 67l8 43h-346l-80 -414h611l24 125q9 49 37.5 65.5t110.5 16.5q80 0 101.5 -15.5t12.5 -66.5l-43 -227q-14 -71 -45 -95t-110 -24h-1121q-38 0 -46.5 19z M457 1806q14 86 55 121t109 35h24q73 0 103.5 -33t21.5 -110q-10 -86 -40.5 -119t-94.5 -33h-80q-64 0 -87.5 31t-10.5 108zM1065 1806q14 86 54.5 121t109.5 35h22q74 0 103 -34t20 -109q-10 -86 -41 -119t-96 -33h-74q-63 0 -86.5 30.5t-11.5 108.5z" />
<glyph unicode="&#xcc;" horiz-adv-x="757" d="M-28.5 19q-8.5 19 3.5 92q13 69 30.5 89.5t57.5 20.5h82l199 1032h-80q-38 0 -46.5 18.5t3.5 92.5q13 70 30.5 90.5t57.5 20.5h451q38 0 46.5 -18.5t-3.5 -92.5q-13 -70 -30.5 -90.5t-57.5 -20.5h-78l-199 -1032h82q38 0 46.5 -18.5t-3.5 -91.5q-13 -70 -30.5 -90.5 t-57.5 -20.5h-457q-38 0 -46.5 19zM156 1904q34 27 131 27q157 0 227 -61l236 -199q32 -26 2 -48q-32 -24 -127 -24q-124 0 -193 54l-274 207q-30 22 -2 44z" />
<glyph unicode="&#xcd;" horiz-adv-x="757" d="M-28.5 19q-8.5 19 3.5 92q13 69 30.5 89.5t57.5 20.5h82l199 1032h-80q-38 0 -46.5 18.5t3.5 92.5q13 70 30.5 90.5t57.5 20.5h451q38 0 46.5 -18.5t-3.5 -92.5q-13 -70 -30.5 -90.5t-57.5 -20.5h-78l-199 -1032h82q38 0 46.5 -18.5t-3.5 -91.5q-13 -70 -30.5 -90.5 t-57.5 -20.5h-457q-38 0 -46.5 19zM260 1633q-5 15 16 32l269 205q77 61 241 61q104 0 123 -35q11 -19 -14 -36l-303 -207q-80 -54 -219 -54q-104 0 -113 34z" />
<glyph unicode="&#xce;" horiz-adv-x="757" d="M-28.5 19q-8.5 19 3.5 92q13 69 30.5 89.5t57.5 20.5h82l199 1032h-80q-38 0 -46.5 18.5t3.5 92.5q13 70 30.5 90.5t57.5 20.5h451q38 0 46.5 -18.5t-3.5 -92.5q-13 -70 -30.5 -90.5t-57.5 -20.5h-78l-199 -1032h82q38 0 46.5 -18.5t-3.5 -91.5q-13 -70 -30.5 -90.5 t-57.5 -20.5h-457q-38 0 -46.5 19zM57 1635q1 12 19 26l291 213q41 30 82.5 40.5t119.5 10.5h31q72 0 109.5 -11.5t66.5 -39.5l217 -211q52 -49 -58 -59q-24 -2 -56 -2q-95 0 -132 6t-55 22l-139 121l-178 -121q-24 -15 -65.5 -21.5t-137.5 -6.5q-117 0 -115 33z" />
<glyph unicode="&#xcf;" horiz-adv-x="757" d="M-28.5 19q-8.5 19 3.5 92q13 69 30.5 89.5t57.5 20.5h82l199 1032h-80q-38 0 -46.5 18.5t3.5 92.5q13 70 30.5 90.5t57.5 20.5h451q38 0 46.5 -18.5t-3.5 -92.5q-13 -70 -30.5 -90.5t-57.5 -20.5h-78l-199 -1032h82q38 0 46.5 -18.5t-3.5 -91.5q-13 -70 -30.5 -90.5 t-57.5 -20.5h-457q-38 0 -46.5 19zM119 1806q14 86 55 121t109 35h24q73 0 103.5 -33t21.5 -110q-10 -86 -40.5 -119t-94.5 -33h-80q-64 0 -87.5 31t-10.5 108zM727 1806q14 86 54.5 121t109.5 35h22q74 0 103 -34t20 -109q-10 -86 -41 -119t-96 -33h-74q-63 0 -86.5 30.5 t-11.5 108.5z" />
<glyph unicode="&#xd0;" horiz-adv-x="1624" d="M-28.5 19q-8.5 19 3.5 92q13 69 30.5 89.5t57.5 20.5h82l74 383h-192q-38 0 -46.5 19t3.5 92q13 69 30.5 89.5t57.5 20.5h188l84 428h-80q-38 0 -46.5 18.5t3.5 92.5q13 70 30.5 90.5t57.5 20.5h547q678 0 678 -543q0 -205 -58.5 -375.5t-170 -294.5t-283 -193 t-387.5 -69h-617q-38 0 -46.5 19zM438 221h228q116 0 211.5 37.5t160.5 101t110 150.5t65 183.5t20 201.5q0 358 -408 358h-188l-82 -428h174q38 0 46.5 -18.5t-3.5 -91.5q-13 -70 -30.5 -90.5t-57.5 -20.5h-172z" />
<glyph unicode="&#xd1;" d="M-28.5 19q-8.5 19 3.5 92q13 69 30.5 89.5t57.5 20.5h80l201 1032h-76q-38 0 -46.5 18.5t3.5 92.5q13 70 30.5 90.5t57.5 20.5h396q68 0 100 -22t47 -75l238 -786q53 -177 69 -383h35l203 1044h-96q-38 0 -46.5 18.5t3.5 92.5q13 70 30.5 90.5t57.5 20.5h428 q38 0 46.5 -18.5t-3.5 -92.5q-13 -70 -30.5 -90.5t-57.5 -20.5h-76l-236 -1179q-9 -45 -38.5 -65.5t-92.5 -20.5h-192q-67 0 -103 22t-53 76l-248 819q-47 154 -57 357h-35l-205 -1041h105q38 0 46.5 -18.5t-3.5 -91.5q-13 -70 -30.5 -90.5t-57.5 -20.5h-439q-38 0 -46.5 19 zM617.5 1768.5q-10.5 20.5 0.5 37.5q48 94 124.5 145.5t172.5 51.5q50 0 101.5 -20.5t87 -45t76.5 -45t71 -20.5q31 0 53.5 15.5t53.5 58.5q10 20 36 19t76 -28q47 -26 60 -46t2 -48q-38 -99 -115 -151t-166 -52q-47 0 -98.5 20t-87.5 43.5t-78 43.5t-74 20q-81 0 -135 -75 q-9 -13 -20 -16t-32.5 6t-55.5 34q-42 32 -52.5 52.5z" />
<glyph unicode="&#xd2;" horiz-adv-x="1628" d="M90 575q0 272 101.5 481t293.5 326t447 117q301 0 453.5 -145.5t152.5 -456.5q0 -274 -101 -482t-293 -324t-450 -116q-309 0 -456.5 144t-147.5 456zM391 590q0 -201 78.5 -293t259.5 -92q225 0 366.5 183.5t141.5 492.5q0 194 -80.5 291.5t-261.5 97.5 q-107 0 -199 -47.5t-160 -134t-106.5 -215.5t-38.5 -283zM571 1904q35 27 131 27q158 0 228 -61l235 -199q32 -26 2 -48q-32 -24 -127 -24q-123 0 -192 54l-275 207q-30 22 -2 44z" />
<glyph unicode="&#xd3;" horiz-adv-x="1628" d="M90 575q0 272 101.5 481t293.5 326t447 117q301 0 453.5 -145.5t152.5 -456.5q0 -274 -101 -482t-293 -324t-450 -116q-309 0 -456.5 144t-147.5 456zM391 590q0 -201 78.5 -293t259.5 -92q225 0 366.5 183.5t141.5 492.5q0 194 -80.5 291.5t-261.5 97.5 q-107 0 -199 -47.5t-160 -134t-106.5 -215.5t-38.5 -283zM624 1632q-3 17 17 33l268 205q77 61 242 61q104 0 123 -35q11 -19 -14 -36l-304 -207q-80 -54 -219 -54q-103 0 -113 33z" />
<glyph unicode="&#xd4;" horiz-adv-x="1628" d="M90 575q0 272 101.5 481t293.5 326t447 117q301 0 453.5 -145.5t152.5 -456.5q0 -274 -101 -482t-293 -324t-450 -116q-309 0 -456.5 144t-147.5 456zM391 590q0 -201 78.5 -293t259.5 -92q225 0 366.5 183.5t141.5 492.5q0 194 -80.5 291.5t-261.5 97.5 q-107 0 -199 -47.5t-160 -134t-106.5 -215.5t-38.5 -283zM464 1636q1 11 19 25l291 213q41 30 83 40.5t120 10.5h31q72 0 109.5 -11.5t66.5 -39.5l217 -211q50 -48 -52 -58l-63 -3q-95 0 -131.5 6t-54.5 22l-139 121l-179 -121q-24 -15 -65 -21.5t-137 -6.5q-118 0 -116 34z " />
<glyph unicode="&#xd5;" horiz-adv-x="1628" d="M90 575q0 272 101.5 481t293.5 326t447 117q301 0 453.5 -145.5t152.5 -456.5q0 -274 -101 -482t-293 -324t-450 -116q-309 0 -456.5 144t-147.5 456zM391 590q0 -201 78.5 -293t259.5 -92q225 0 366.5 183.5t141.5 492.5q0 194 -80.5 291.5t-261.5 97.5 q-107 0 -199 -47.5t-160 -134t-106.5 -215.5t-38.5 -283zM493 1768.5q-10 20.5 1 37.5q48 94 124.5 145.5t172.5 51.5q50 0 101.5 -20.5t87 -45t76 -45t70.5 -20.5q31 0 53.5 15.5t53.5 58.5q10 20 36.5 19t76.5 -28q47 -26 59.5 -46t1.5 -48q-38 -99 -115 -151t-166 -52 q-47 0 -98.5 20t-87.5 43.5t-78 43.5t-74 20q-81 0 -135 -75q-9 -13 -20 -16t-32.5 6t-55.5 34q-42 32 -52 52.5z" />
<glyph unicode="&#xd6;" horiz-adv-x="1628" d="M90 575q0 272 101.5 481t293.5 326t447 117q301 0 453.5 -145.5t152.5 -456.5q0 -274 -101 -482t-293 -324t-450 -116q-309 0 -456.5 144t-147.5 456zM391 590q0 -201 78.5 -293t259.5 -92q225 0 366.5 183.5t141.5 492.5q0 194 -80.5 291.5t-261.5 97.5 q-107 0 -199 -47.5t-160 -134t-106.5 -215.5t-38.5 -283zM467 1806q14 86 55 121t109 35h24q73 0 103.5 -33t21.5 -110q-10 -86 -40.5 -119t-94.5 -33h-80q-64 0 -87.5 31t-10.5 108zM1075 1806q14 86 54.5 121t109.5 35h23q73 0 102 -34t20 -109q-10 -86 -41 -119t-96 -33 h-73q-63 0 -87 31t-12 108z" />
<glyph unicode="&#xd8;" horiz-adv-x="1628" d="M57.5 -223.5q-1.5 10.5 5.5 22.5l205 293q-178 141 -178 483q0 272 101.5 481t293.5 326t447 117q170 0 289 -45l127 180q23 29 108 29q91 0 89 -31q-1 -6 -5 -12l-174 -250q172 -146 172 -473q0 -274 -101 -482t-293 -324t-450 -116q-156 0 -278 39l-158 -227 q-24 -35 -125 -35q-35 0 -54.5 7t-21 17.5zM391 590q0 -161 49 -252l629 899q-78 33 -174 33q-107 0 -199 -47.5t-160 -134t-106.5 -215.5t-38.5 -283zM567 229q57 -24 162 -24q225 0 366.5 183.5t141.5 492.5q0 149 -47 239z" />
<glyph unicode="&#xd9;" horiz-adv-x="1613" d="M147 408q0 79 19 172l131 673h-68q-38 0 -46.5 18.5t3.5 92.5q13 70 30.5 90.5t57.5 20.5h474q38 0 46.5 -18.5t-3.5 -92.5q-13 -69 -31 -90t-58 -21h-112l-131 -671q-13 -66 -13 -136q0 -120 67 -180.5t214 -60.5q178 0 278 93.5t138 281.5l131 673h-107 q-38 0 -46.5 18.5t3.5 92.5q13 70 30.5 90.5t57.5 20.5h441q38 0 46.5 -18.5t-3.5 -92.5q-13 -70 -30.5 -90.5t-57.5 -20.5h-62l-131 -671q-61 -312 -245 -459.5t-502 -147.5q-259 0 -390 112.5t-131 320.5zM526 1904q35 27 131 27q158 0 228 -61l235 -199q32 -26 2 -48 q-32 -24 -127 -24q-123 0 -192 54l-275 207q-30 22 -2 44z" />
<glyph unicode="&#xda;" horiz-adv-x="1613" d="M147 408q0 79 19 172l131 673h-68q-38 0 -46.5 18.5t3.5 92.5q13 70 30.5 90.5t57.5 20.5h474q38 0 46.5 -18.5t-3.5 -92.5q-13 -69 -31 -90t-58 -21h-112l-131 -671q-13 -66 -13 -136q0 -120 67 -180.5t214 -60.5q178 0 278 93.5t138 281.5l131 673h-107 q-38 0 -46.5 18.5t3.5 92.5q13 70 30.5 90.5t57.5 20.5h441q38 0 46.5 -18.5t-3.5 -92.5q-13 -70 -30.5 -90.5t-57.5 -20.5h-62l-131 -671q-61 -312 -245 -459.5t-502 -147.5q-259 0 -390 112.5t-131 320.5zM704 1632q-3 17 17 33l268 205q77 61 242 61q105 0 123 -35 q9 -19 -15 -36l-303 -207q-80 -54 -219 -54q-103 0 -113 33z" />
<glyph unicode="&#xdb;" horiz-adv-x="1613" d="M147 408q0 79 19 172l131 673h-68q-38 0 -46.5 18.5t3.5 92.5q13 70 30.5 90.5t57.5 20.5h474q38 0 46.5 -18.5t-3.5 -92.5q-13 -69 -31 -90t-58 -21h-112l-131 -671q-13 -66 -13 -136q0 -120 67 -180.5t214 -60.5q178 0 278 93.5t138 281.5l131 673h-107 q-38 0 -46.5 18.5t3.5 92.5q13 70 30.5 90.5t57.5 20.5h441q38 0 46.5 -18.5t-3.5 -92.5q-13 -70 -30.5 -90.5t-57.5 -20.5h-62l-131 -671q-61 -312 -245 -459.5t-502 -147.5q-259 0 -390 112.5t-131 320.5zM511 1636q1 11 19 25l291 213q41 30 83 40.5t120 10.5h31 q72 0 109.5 -11.5t66.5 -39.5l217 -211q50 -48 -52 -58l-63 -3q-95 0 -131.5 6t-54.5 22l-139 121l-179 -121q-24 -15 -65 -21.5t-137 -6.5q-118 0 -116 34z" />
<glyph unicode="&#xdc;" horiz-adv-x="1613" d="M147 408q0 79 19 172l131 673h-68q-38 0 -46.5 18.5t3.5 92.5q13 70 30.5 90.5t57.5 20.5h474q38 0 46.5 -18.5t-3.5 -92.5q-13 -69 -31 -90t-58 -21h-112l-131 -671q-13 -66 -13 -136q0 -120 67 -180.5t214 -60.5q178 0 278 93.5t138 281.5l131 673h-107 q-38 0 -46.5 18.5t3.5 92.5q13 70 30.5 90.5t57.5 20.5h441q38 0 46.5 -18.5t-3.5 -92.5q-13 -70 -30.5 -90.5t-57.5 -20.5h-62l-131 -671q-61 -312 -245 -459.5t-502 -147.5q-259 0 -390 112.5t-131 320.5zM561 1806q14 86 55 121t109 35h25q72 0 102.5 -32.5t21.5 -110.5 q-10 -86 -40.5 -119t-94.5 -33h-80q-64 0 -87.5 31t-10.5 108zM1169 1806q14 86 54.5 121t109.5 35h23q74 0 103 -34t20 -109q-10 -86 -41.5 -119t-96.5 -33h-73q-63 0 -87 31t-12 108z" />
<glyph unicode="&#xdd;" horiz-adv-x="1558" d="M148.5 1271.5q-8.5 18.5 3.5 92.5q13 70 30.5 90.5t57.5 20.5h499q38 0 46.5 -18.5t-3.5 -92.5q-13 -70 -30.5 -90.5t-57.5 -20.5h-127l148 -338q42 -92 51 -194h37q51 105 127 194l287 338h-127q-38 0 -46.5 18.5t3.5 92.5q13 70 30.5 90.5t57.5 20.5h491 q38 0 46.5 -18.5t-3.5 -92.5q-13 -70 -30.5 -90.5t-57.5 -20.5h-53l-643 -745l-54 -287h150q38 0 46.5 -18.5t-3.5 -91.5q-13 -70 -30.5 -90.5t-57.5 -20.5h-596q-38 0 -46.5 19t3.5 92q13 69 30.5 89.5t57.5 20.5h154l53 285l-334 747h-63q-38 0 -46.5 18.5zM735 1632 q-3 17 17 33l268 205q77 61 242 61q105 0 123 -35q9 -19 -15 -36l-303 -207q-80 -54 -219 -54q-103 0 -113 33z" />
<glyph unicode="&#xde;" horiz-adv-x="1359" d="M-28.5 19q-8.5 19 3.5 92q13 69 30.5 89.5t57.5 20.5h82l199 1032h-80q-38 0 -46.5 18.5t3.5 92.5q13 70 30.5 90.5t57.5 20.5h498q38 0 46.5 -18.5t-3.5 -92.5q-13 -70 -30.5 -90.5t-57.5 -20.5h-125l-16 -88h161q279 0 410 -92t131 -280q0 -217 -148 -346.5 t-407 -129.5q-166 0 -264 68h-37l-33 -164h144q38 0 46.5 -18.5t-3.5 -91.5q-13 -69 -31 -90t-58 -21h-514q-38 0 -46.5 19zM504 569q79 -28 207 -28q153 0 231 60t78 163q0 94 -66 137t-229 43h-150z" />
<glyph unicode="&#xdf;" horiz-adv-x="1552" d="M57 -397l230 1181h-119q-43 0 -51 18.5t6 90.5q15 71 32 91t58 20h117l6 24q80 471 590 471q211 0 324.5 -83.5t113.5 -231.5q0 -71 -19 -127t-48.5 -91t-66 -62.5t-73 -47.5t-66 -39t-48.5 -43.5t-19 -54.5q0 -33 24.5 -49t116.5 -39l41 -10q144 -35 210.5 -105 t66.5 -186q0 -168 -126 -261.5t-396 -93.5q-155 0 -263 27q-72 18 -100.5 63.5t-13.5 108.5l12 51q12 53 42 71.5t110 18.5q74 0 96 -14.5t16 -48.5l-12 -62q76 -20 170 -20q172 0 172 123q0 44 -35.5 70.5t-136.5 48.5l-39 8q-134 29 -189 90t-55 156q0 65 19 118.5t50 88 t68 63.5t74 52.5t68 46.5t50 54t19 68q0 56 -46 88.5t-138 32.5q-234 0 -285 -252l-274 -1423q-9 -46 -36.5 -60t-115.5 -14q-90 0 -114.5 15.5t-16.5 58.5z" />
<glyph unicode="&#xe0;" horiz-adv-x="1310" d="M74 387q0 178 70.5 324t200 231.5t292.5 85.5q179 0 264 -104h35l8 32q8 31 37 44.5t100 13.5t93 -14.5t14 -53.5l-131 -678q-5 -25 3.5 -34t39.5 -9h28q40 0 49.5 -19.5t-3.5 -92.5q-15 -70 -32 -91.5t-57 -21.5h-98q-87 0 -129.5 25.5t-54.5 83.5h-35 q-104 -134 -315 -134q-379 0 -379 412zM367 406q0 -106 46 -154.5t140 -48.5q104 0 179 74.5t102 214.5l18 98q19 96 -31 153.5t-149 57.5q-130 0 -217.5 -111.5t-87.5 -283.5zM387 1401q-38 47 54 58q25 3 59 3q97 0 140 -15.5t65 -45.5l165 -238q23 -32 -34 -46 q-30 -7 -82 -7q-68 0 -104 12t-60 41z" />
<glyph unicode="&#xe1;" horiz-adv-x="1310" d="M74 387q0 178 70.5 324t200 231.5t292.5 85.5q179 0 264 -104h35l8 32q8 31 37 44.5t100 13.5t93 -14.5t14 -53.5l-131 -678q-5 -25 3.5 -34t39.5 -9h28q40 0 49.5 -19.5t-3.5 -92.5q-15 -70 -32 -91.5t-57 -21.5h-98q-87 0 -129.5 25.5t-54.5 83.5h-35 q-104 -134 -315 -134q-379 0 -379 412zM367 406q0 -106 46 -154.5t140 -48.5q104 0 179 74.5t102 214.5l18 98q19 96 -31 153.5t-149 57.5q-130 0 -217.5 -111.5t-87.5 -283.5zM394 1144q2 9 12 19l251 238q35 33 88 47t142 14q120 0 119 -35q-2 -13 -17 -26l-287 -238 q-62 -53 -194 -53q-121 0 -114 34z" />
<glyph unicode="&#xe2;" horiz-adv-x="1310" d="M74 387q0 178 70.5 324t200 231.5t292.5 85.5q179 0 264 -104h35l8 32q8 31 37 44.5t100 13.5t93 -14.5t14 -53.5l-131 -678q-5 -25 3.5 -34t39.5 -9h28q40 0 49.5 -19.5t-3.5 -92.5q-15 -70 -32 -91.5t-57 -21.5h-98q-87 0 -129.5 25.5t-54.5 83.5h-35 q-104 -134 -315 -134q-379 0 -379 412zM321 1148q1 9 11 19l219 226q35 36 79 50.5t132 14.5q91 0 128 -13t62 -52l142 -222q31 -48 -44 -58q-24 -3 -59 -3q-81 0 -117.5 10t-50.5 33l-86 133l-114 -133q-20 -23 -56.5 -33t-111.5 -10q-138 0 -134 38zM367 406 q0 -106 46 -154.5t140 -48.5q104 0 179 74.5t102 214.5l18 98q19 96 -31 153.5t-149 57.5q-130 0 -217.5 -111.5t-87.5 -283.5z" />
<glyph unicode="&#xe3;" horiz-adv-x="1310" d="M74 387q0 178 70.5 324t200 231.5t292.5 85.5q179 0 264 -104h35l8 32q8 31 37 44.5t100 13.5t93 -14.5t14 -53.5l-131 -678q-5 -25 3.5 -34t39.5 -9h28q40 0 49.5 -19.5t-3.5 -92.5q-15 -70 -32 -91.5t-57 -21.5h-98q-87 0 -129.5 25.5t-54.5 83.5h-35 q-104 -134 -315 -134q-379 0 -379 412zM305 1285q-10 22 4 42q50 87 116 126.5t155 39.5q48 0 94 -18.5t76 -41t65.5 -41t63.5 -18.5q31 0 50 12.5t48 53.5q10 20 34.5 19t71.5 -27q47 -27 59.5 -45.5t2.5 -43.5q-72 -184 -260 -184q-45 0 -90 18.5t-75.5 40t-67 40 t-66.5 18.5q-66 0 -121 -70q-14 -19 -38 -14.5t-67 37.5q-45 34 -55 56zM367 406q0 -106 46 -154.5t140 -48.5q104 0 179 74.5t102 214.5l18 98q19 96 -31 153.5t-149 57.5q-130 0 -217.5 -111.5t-87.5 -283.5z" />
<glyph unicode="&#xe4;" horiz-adv-x="1310" d="M74 387q0 178 70.5 324t200 231.5t292.5 85.5q179 0 264 -104h35l8 32q8 31 37 44.5t100 13.5t93 -14.5t14 -53.5l-131 -678q-5 -25 3.5 -34t39.5 -9h28q40 0 49.5 -19.5t-3.5 -92.5q-15 -70 -32 -91.5t-57 -21.5h-98q-87 0 -129.5 25.5t-54.5 83.5h-35 q-104 -134 -315 -134q-379 0 -379 412zM276 1321q10 82 49 119t111 37h27q67 0 94 -28.5t27 -96.5q0 -86 -33 -127t-102 -41h-76q-63 0 -85 29.5t-12 107.5zM367 406q0 -106 46 -154.5t140 -48.5q104 0 179 74.5t102 214.5l18 98q19 96 -31 153.5t-149 57.5 q-130 0 -217.5 -111.5t-87.5 -283.5zM852 1321q10 82 49 119t111 37h26q67 0 94 -28.5t27 -96.5q0 -86 -33 -127t-102 -41h-76q-63 0 -84.5 29.5t-11.5 107.5z" />
<glyph unicode="&#xe5;" horiz-adv-x="1310" d="M74 387q0 178 70.5 324t200 231.5t292.5 85.5q179 0 264 -104h35l8 32q8 31 37 44.5t100 13.5t93 -14.5t14 -53.5l-131 -678q-5 -25 3.5 -34t39.5 -9h28q40 0 49.5 -19.5t-3.5 -92.5q-15 -70 -32 -91.5t-57 -21.5h-98q-87 0 -129.5 25.5t-54.5 83.5h-35 q-104 -134 -315 -134q-379 0 -379 412zM367 406q0 -106 46 -154.5t140 -48.5q104 0 179 74.5t102 214.5l18 98q19 96 -31 153.5t-149 57.5q-130 0 -217.5 -111.5t-87.5 -283.5zM485 1372q20 124 104.5 193t211.5 69q124 0 183.5 -66t41.5 -177q-21 -133 -102.5 -202 t-210.5 -69q-132 0 -190 65t-38 187zM631 1372q-10 -62 17.5 -95.5t86.5 -33.5q58 0 96 36t48 107q10 60 -18 92.5t-85 32.5q-55 0 -94 -35.5t-51 -103.5z" />
<glyph unicode="&#xe6;" horiz-adv-x="1888" d="M74 272q0 165 127.5 264t335.5 99q178 0 260 -82h37l12 61q20 104 -29 147.5t-194 43.5q-143 0 -283 -43q-35 -11 -51 2t-39 76q-19 54 -13 76t44 40q62 29 175 50.5t230 21.5q244 0 365 -96h8q145 96 354 96q205 0 309.5 -88.5t104.5 -224.5q0 -326 -496 -326h-248v-22 q0 -166 269 -166q134 0 247 37q42 12 62.5 -2t38.5 -72q19 -61 11.5 -84t-46.5 -41q-64 -28 -168.5 -46t-212.5 -18q-293 0 -403 144h-35q-72 -78 -159.5 -111t-221.5 -33q-189 0 -290 77.5t-101 219.5zM358 291q0 -115 185 -115q117 0 184.5 44.5t67.5 113.5q0 48 -48.5 77 t-152.5 29q-117 0 -176.5 -39t-59.5 -110zM1108 588h252q190 0 190 121q0 53 -43.5 82.5t-124.5 29.5q-105 0 -175.5 -61t-98.5 -172z" />
<glyph unicode="&#xe7;" horiz-adv-x="1138" d="M74 406q0 135 42 247.5t122.5 196.5t207 131t287.5 47q114 0 213 -24q86 -22 118.5 -68.5t20.5 -128.5l-10 -72q-8 -57 -38 -78.5t-107 -21.5q-80 0 -103.5 15.5t-15.5 60.5l12 77q-71 19 -131 19q-146 0 -238 -102.5t-92 -266.5q0 -121 63 -179t200 -58q124 0 237 37 q42 12 62.5 -2t38.5 -72q19 -61 11.5 -84t-46.5 -41q-95 -43 -254 -57l-12 -64q68 -9 106 -51t35 -103q-10 -208 -307 -208q-103 0 -164 26q-20 8 -22.5 26.5t12.5 61.5q16 46 28.5 56.5t34.5 3.5q57 -17 102 -17q103 -3 103 49q0 27 -23.5 40.5t-89.5 13.5q-27 0 -35.5 7.5 t-5.5 26.5l27 132q-208 18 -298.5 123.5t-90.5 300.5z" />
<glyph unicode="&#xe8;" horiz-adv-x="1159" d="M74 389q0 136 39.5 252t114.5 202.5t192 135.5t264 49q205 0 309.5 -88.5t104.5 -224.5q0 -326 -496 -326h-248v-22q0 -166 269 -166q134 0 247 37q42 12 62.5 -2t38.5 -72q19 -61 11.5 -84t-46.5 -41q-64 -28 -168.5 -46t-212.5 -18q-253 0 -367 100t-114 314zM379 588 h252q190 0 190 121q0 53 -43.5 82.5t-124.5 29.5q-105 0 -175.5 -61t-98.5 -172zM393 1401q-38 47 54 58q25 3 59 3q97 0 140 -15.5t65 -45.5l166 -238q23 -31 -32 -45q-31 -8 -85 -8q-68 0 -104 12t-60 41z" />
<glyph unicode="&#xe9;" horiz-adv-x="1159" d="M74 389q0 136 39.5 252t114.5 202.5t192 135.5t264 49q205 0 309.5 -88.5t104.5 -224.5q0 -326 -496 -326h-248v-22q0 -166 269 -166q134 0 247 37q42 12 62.5 -2t38.5 -72q19 -61 11.5 -84t-46.5 -41q-64 -28 -168.5 -46t-212.5 -18q-253 0 -367 100t-114 314zM379 588 h252q190 0 190 121q0 53 -43.5 82.5t-124.5 29.5q-105 0 -175.5 -61t-98.5 -172zM412 1144q2 9 12 19l252 238q35 33 87.5 47t141.5 14q121 0 120 -36q-1 -12 -17 -25l-287 -238q-62 -53 -195 -53q-121 0 -114 34z" />
<glyph unicode="&#xea;" horiz-adv-x="1159" d="M74 389q0 136 39.5 252t114.5 202.5t192 135.5t264 49q205 0 309.5 -88.5t104.5 -224.5q0 -326 -496 -326h-248v-22q0 -166 269 -166q134 0 247 37q42 12 62.5 -2t38.5 -72q19 -61 11.5 -84t-46.5 -41q-64 -28 -168.5 -46t-212.5 -18q-253 0 -367 100t-114 314zM272 1148 q1 9 11 19l219 226q35 36 79 50.5t132 14.5q91 0 128 -13t62 -52l141 -222q30 -47 -41 -57q-24 -4 -61 -4q-81 0 -117.5 10t-50.5 33l-86 133l-115 -133q-20 -23 -56 -33t-111 -10q-138 0 -134 38zM379 588h252q190 0 190 121q0 53 -43.5 82.5t-124.5 29.5 q-105 0 -175.5 -61t-98.5 -172z" />
<glyph unicode="&#xeb;" horiz-adv-x="1206" d="M74 389q0 136 39.5 252t114.5 202.5t192 135.5t264 49q205 0 309.5 -88.5t104.5 -224.5q0 -326 -496 -326h-248v-22q0 -166 269 -166q134 0 247 37q42 12 62.5 -2t38.5 -72q19 -61 11.5 -84t-46.5 -41q-64 -28 -168.5 -46t-212.5 -18q-253 0 -367 100t-114 314zM252 1321 q10 82 49 119t111 37h26q67 0 94 -28.5t27 -96.5q0 -86 -33 -127t-102 -41h-76q-63 0 -84.5 29.5t-11.5 107.5zM379 588h252q190 0 190 121q0 53 -43.5 82.5t-124.5 29.5q-105 0 -175.5 -61t-98.5 -172zM827 1321q10 82 49 119t111 37h27q67 0 94 -28.5t27 -96.5 q0 -86 -33.5 -127t-102.5 -41h-75q-63 0 -85 29.5t-12 107.5z" />
<glyph unicode="&#xec;" horiz-adv-x="702" d="M129 870q17 76 50 105t104 29h163q83 0 108 -26t11 -95l-121 -615q-5 -25 3.5 -34t39.5 -9h25q40 0 49 -19.5t-4 -92.5q-15 -70 -31.5 -91.5t-56.5 -21.5h-107q-118 0 -165 38t-47 120q0 31 8 78l96 499q4 24 -3 33.5t-28 9.5h-43q-39 0 -50.5 21t-0.5 71zM141 1401 q-38 47 54 58l59 3q97 0 140 -15.5t65 -45.5l166 -238q23 -31 -32 -45q-31 -8 -85 -8q-68 0 -104 12t-60 41z" />
<glyph unicode="&#xed;" horiz-adv-x="702" d="M129 870q17 76 50 105t104 29h163q83 0 108 -26t11 -95l-121 -615q-5 -25 3.5 -34t39.5 -9h25q40 0 49 -19.5t-4 -92.5q-15 -70 -31.5 -91.5t-56.5 -21.5h-107q-118 0 -165 38t-47 120q0 31 8 78l96 499q4 24 -3 33.5t-28 9.5h-43q-39 0 -50.5 21t-0.5 71zM176 1145 q2 8 12 18l252 238q35 33 88 47t142 14q120 0 119 -35q-2 -13 -17 -26l-287 -238q-62 -53 -194 -53q-121 0 -115 35z" />
<glyph unicode="&#xee;" horiz-adv-x="702" d="M9 1148q1 9 11 19l220 226q35 36 79 50.5t132 14.5q91 0 128 -13t62 -52l141 -222q30 -47 -41 -57q-24 -4 -61 -4q-81 0 -117.5 10t-50.5 33l-86 133l-115 -133q-20 -23 -56.5 -33t-111.5 -10q-138 0 -134 38zM129 870q17 76 50 105t104 29h163q83 0 108 -26t11 -95 l-121 -615q-5 -25 3.5 -34t39.5 -9h25q40 0 49 -19.5t-4 -92.5q-15 -70 -31.5 -91.5t-56.5 -21.5h-107q-118 0 -165 38t-47 120q0 31 8 78l96 499q4 24 -3 33.5t-28 9.5h-43q-39 0 -50.5 21t-0.5 71z" />
<glyph unicode="&#xef;" horiz-adv-x="702" d="M-43 1321q10 82 49 119t111 37h26q67 0 94 -28.5t27 -96.5q0 -86 -33 -127t-102 -41h-76q-63 0 -84.5 29.5t-11.5 107.5zM129 870q17 76 50 105t104 29h163q83 0 108 -26t11 -95l-121 -615q-5 -25 3.5 -34t39.5 -9h25q40 0 49 -19.5t-4 -92.5q-15 -70 -31.5 -91.5 t-56.5 -21.5h-107q-118 0 -165 38t-47 120q0 31 8 78l96 499q4 24 -3 33.5t-28 9.5h-43q-39 0 -50.5 21t-0.5 71zM532 1321q10 82 49 119t111 37h27q67 0 94 -28.5t27 -96.5q0 -86 -33 -127t-102 -41h-76q-63 0 -85 29.5t-12 107.5z" />
<glyph unicode="&#xf0;" horiz-adv-x="1267" d="M53 358q0 109 35 203.5t101 167t171 114.5t236 42q166 0 242 -82h34q2 23 2 65q0 119 -45 234l-327 -60q-31 -6 -38.5 7.5t1.5 76.5q9 56 24.5 77.5t51.5 29.5l190 35q-64 86 -139 145q-39 30 -13 52t111 22q86 0 123 -9t72 -40q56 -46 110 -121l238 43q33 6 40 -9 t-3 -75q-11 -58 -25 -79t-49 -28l-106 -20q59 -147 59 -336q0 -131 -31 -289q-55 -280 -203.5 -414.5t-420.5 -134.5q-221 0 -331 97.5t-110 285.5zM346 379q0 -97 50.5 -139.5t144.5 -42.5q110 0 183 73.5t105 247.5l13 66q-38 35 -95 54t-120 19q-136 0 -208.5 -72.5 t-72.5 -205.5z" />
<glyph unicode="&#xf1;" horiz-adv-x="1355" d="M127 61l133 674q8 43 -31 43h-45q-39 0 -50.5 21t-0.5 71q17 76 50 105t104 29h112q57 0 79 -21.5t20 -73.5l-2 -51h34q108 170 359 170q163 0 243 -77t80 -236q0 -81 -22 -191l-51 -256q-5 -25 3.5 -34t39.5 -9h24q40 0 49 -19.5t-4 -92.5q-15 -70 -31.5 -91.5 t-56.5 -21.5h-106q-119 0 -166 38t-47 120q0 31 8 78l51 262q23 121 23 168q0 137 -138 137q-111 0 -192.5 -95t-118.5 -290l-67 -357q-9 -46 -36.5 -59.5t-115.5 -13.5q-90 0 -114.5 15t-16.5 58zM410 1285q-10 22 4 42q50 87 115.5 126.5t154.5 39.5q48 0 94 -18.5t76 -41 t65.5 -41t63.5 -18.5q31 0 50 12.5t48 53.5q10 20 35 19t72 -27t59 -45t2 -44q-72 -184 -260 -184q-45 0 -90 18.5t-75.5 40t-67 40t-66.5 18.5q-66 0 -121 -70q-14 -19 -37.5 -14.5t-66.5 37.5q-45 34 -55 56z" />
<glyph unicode="&#xf2;" horiz-adv-x="1206" d="M74 369q0 319 163.5 489t450.5 170q219 0 332 -103.5t113 -293.5q0 -312 -159.5 -484t-451.5 -172q-222 0 -335 104.5t-113 289.5zM360 391q0 -194 199 -194q131 0 209 111.5t78 299.5q0 199 -197 199q-132 0 -210.5 -111t-78.5 -305zM412 1401q-39 48 57 58q23 3 55 3 q97 0 140 -15.5t65 -45.5l166 -238q23 -31 -32 -45q-31 -8 -85 -8q-68 0 -104 12t-60 41z" />
<glyph unicode="&#xf3;" horiz-adv-x="1206" d="M74 369q0 319 163.5 489t450.5 170q219 0 332 -103.5t113 -293.5q0 -312 -159.5 -484t-451.5 -172q-222 0 -335 104.5t-113 289.5zM360 391q0 -194 199 -194q131 0 209 111.5t78 299.5q0 199 -197 199q-132 0 -210.5 -111t-78.5 -305zM439 1144q2 9 12 19l251 238 q35 33 88 47t142 14q120 0 119 -35q-2 -13 -17 -26l-286 -238q-62 -53 -195 -53q-121 0 -114 34z" />
<glyph unicode="&#xf4;" horiz-adv-x="1206" d="M74 369q0 319 163.5 489t450.5 170q219 0 332 -103.5t113 -293.5q0 -312 -159.5 -484t-451.5 -172q-222 0 -335 104.5t-113 289.5zM286 1148q1 9 11 19l219 226q35 36 79 50.5t132 14.5q91 0 128.5 -13t62.5 -52l141 -222q31 -48 -44 -58q-24 -3 -59 -3q-81 0 -117.5 10 t-50.5 33l-86 133l-114 -133q-20 -23 -56.5 -33t-111.5 -10q-138 0 -134 38zM360 391q0 -194 199 -194q131 0 209 111.5t78 299.5q0 199 -197 199q-132 0 -210.5 -111t-78.5 -305z" />
<glyph unicode="&#xf5;" horiz-adv-x="1206" d="M74 369q0 319 163.5 489t450.5 170q219 0 332 -103.5t113 -293.5q0 -312 -159.5 -484t-451.5 -172q-222 0 -335 104.5t-113 289.5zM293 1285q-10 22 4 42q50 87 115.5 126.5t154.5 39.5q48 0 94 -18.5t76 -41t65.5 -41t63.5 -18.5q31 0 50.5 12.5t48.5 53.5 q10 20 34.5 19t71.5 -27q47 -27 59.5 -45.5t2.5 -43.5q-72 -184 -261 -184q-45 0 -90 18.5t-75.5 40t-67 40t-66.5 18.5q-65 0 -120 -70q-14 -19 -38 -14.5t-67 37.5q-45 34 -55 56zM360 391q0 -194 199 -194q131 0 209 111.5t78 299.5q0 199 -197 199q-132 0 -210.5 -111 t-78.5 -305z" />
<glyph unicode="&#xf6;" horiz-adv-x="1206" d="M74 369q0 319 163.5 489t450.5 170q219 0 332 -103.5t113 -293.5q0 -312 -159.5 -484t-451.5 -172q-222 0 -335 104.5t-113 289.5zM266 1321q10 82 49 119t111 37h27q67 0 93.5 -28.5t26.5 -96.5q0 -86 -33 -127t-102 -41h-76q-63 0 -84.5 29.5t-11.5 107.5zM360 391 q0 -194 199 -194q131 0 209 111.5t78 299.5q0 199 -197 199q-132 0 -210.5 -111t-78.5 -305zM842 1321q10 82 49 119t110 37h27q67 0 94 -28.5t27 -96.5q0 -86 -33 -127t-102 -41h-76q-63 0 -84.5 29.5t-11.5 107.5z" />
<glyph unicode="&#xf8;" horiz-adv-x="1206" d="M54 -189q0 6 5 15l156 229q-141 105 -141 314q0 319 163.5 489t450.5 170q87 0 172 -20l127 188q19 29 111 29q67 0 68 -21q-1 -7 -7 -16l-166 -244q140 -103 140 -313q0 -312 -159.5 -484t-451.5 -172q-98 0 -172 21l-114 -170q-24 -35 -111 -35q-71 0 -71 20zM360 391 q0 -50 17 -96l342 504q-40 8 -70 8q-132 0 -210.5 -111t-78.5 -305zM492 203q30 -6 67 -6q131 0 209 111.5t78 299.5q0 48 -17 94z" />
<glyph unicode="&#xf9;" horiz-adv-x="1382" d="M121 870q17 77 50 105.5t103 28.5h166q82 0 106.5 -25.5t10.5 -95.5l-76 -385q-20 -98 -20 -164q0 -133 135 -133q238 0 313 395l66 344q9 49 36 62.5t113 13.5q90 0 114.5 -16t16.5 -60l-131 -670q-4 -26 5 -35.5t38 -9.5h27q40 0 49 -19.5t-4 -92.5 q-15 -70 -31.5 -91.5t-56.5 -21.5h-94q-90 0 -129 33.5t-41 105.5h-35q-110 -164 -356 -164q-169 0 -245.5 79.5t-76.5 232.5q0 77 21 184l53 264q8 43 -31 43h-45q-39 0 -50.5 21t-0.5 71zM481 1401q-38 47 54 58q25 3 59 3q97 0 140 -15.5t65 -45.5l166 -238 q23 -31 -32 -45q-31 -8 -85 -8q-68 0 -104 12t-60 41z" />
<glyph unicode="&#xfa;" horiz-adv-x="1382" d="M121 870q17 77 50 105.5t103 28.5h166q82 0 106.5 -25.5t10.5 -95.5l-76 -385q-20 -98 -20 -164q0 -133 135 -133q238 0 313 395l66 344q9 49 36 62.5t113 13.5q90 0 114.5 -16t16.5 -60l-131 -670q-4 -26 5 -35.5t38 -9.5h27q40 0 49 -19.5t-4 -92.5 q-15 -70 -31.5 -91.5t-56.5 -21.5h-94q-90 0 -129 33.5t-41 105.5h-35q-110 -164 -356 -164q-169 0 -245.5 79.5t-76.5 232.5q0 77 21 184l53 264q8 43 -31 43h-45q-39 0 -50.5 21t-0.5 71zM533 1144q2 9 12 19l252 238q35 33 87.5 47t141.5 14q120 0 119 -35 q-2 -13 -17 -26l-286 -238q-62 -53 -195 -53q-121 0 -114 34z" />
<glyph unicode="&#xfb;" horiz-adv-x="1382" d="M121 870q17 77 50 105.5t103 28.5h166q82 0 106.5 -25.5t10.5 -95.5l-76 -385q-20 -98 -20 -164q0 -133 135 -133q238 0 313 395l66 344q9 49 36 62.5t113 13.5q90 0 114.5 -16t16.5 -60l-131 -670q-4 -26 5 -35.5t38 -9.5h27q40 0 49 -19.5t-4 -92.5 q-15 -70 -31.5 -91.5t-56.5 -21.5h-94q-90 0 -129 33.5t-41 105.5h-35q-110 -164 -356 -164q-169 0 -245.5 79.5t-76.5 232.5q0 77 21 184l53 264q8 43 -31 43h-45q-39 0 -50.5 21t-0.5 71zM374 1148q1 9 11 19l219 226q35 36 79 50.5t132 14.5q91 0 128.5 -13t62.5 -52 l141 -222q31 -48 -44 -58l-59 -3q-81 0 -117 10t-50 33l-86 133l-115 -133q-20 -23 -56.5 -33t-111.5 -10q-138 0 -134 38z" />
<glyph unicode="&#xfc;" horiz-adv-x="1382" d="M121 870q17 77 50 105.5t103 28.5h166q82 0 106.5 -25.5t10.5 -95.5l-76 -385q-20 -98 -20 -164q0 -133 135 -133q238 0 313 395l66 344q9 49 36 62.5t113 13.5q90 0 114.5 -16t16.5 -60l-131 -670q-4 -26 5 -35.5t38 -9.5h27q40 0 49 -19.5t-4 -92.5 q-15 -70 -31.5 -91.5t-56.5 -21.5h-94q-90 0 -129 33.5t-41 105.5h-35q-110 -164 -356 -164q-169 0 -245.5 79.5t-76.5 232.5q0 77 21 184l53 264q8 43 -31 43h-45q-39 0 -50.5 21t-0.5 71zM336 1321q10 82 49 119t111 37h26q67 0 94 -28.5t27 -96.5q0 -86 -33 -127 t-102 -41h-76q-63 0 -84.5 29.5t-11.5 107.5zM911 1321q10 82 49 119t111 37h27q67 0 94 -28.5t27 -96.5q0 -86 -33.5 -127t-102.5 -41h-75q-63 0 -85 29.5t-12 107.5z" />
<glyph unicode="&#xfd;" horiz-adv-x="1124" d="M-89 -409q-5 26 23 94q24 60 46 74t65 3q78 -20 133 -20q91 0 144 42t98 144l26 60q-66 0 -95 19.5t-38 70.5l-125 649q-6 30 -21 40.5t-50 10.5h-27q-40 0 -48.5 20t3.5 93q13 71 30 92t58 21h111q100 0 146 -35.5t61 -124.5l77 -434q20 -126 23 -226h35q27 116 71 226 l209 534q17 43 50 56.5t126 13.5q82 0 105 -14.5t4 -55.5l-418 -971q-60 -139 -118.5 -228t-127 -139.5t-141.5 -69.5t-172 -19q-113 0 -217 34q-41 14 -46 40zM455 1144q2 9 12 19l252 238q35 33 87.5 47t141.5 14q121 0 120 -36q-1 -12 -17 -25l-287 -238 q-62 -53 -195 -53q-121 0 -114 34z" />
<glyph unicode="&#xfe;" horiz-adv-x="1335" d="M49 -397l307 1603q4 23 -3 33t-27 10h-45q-37 0 -50 20t-2 72q17 76 50 105t104 29h164q82 0 106.5 -26t12.5 -93l-35 -182q-29 -151 -107 -295h33q126 149 348 149q166 0 261.5 -99t95.5 -286q0 -182 -66 -332.5t-194.5 -243t-296.5 -92.5q-203 0 -273 123h-35 q3 -138 -16 -239l-51 -256q-9 -46 -36.5 -60t-115.5 -14q-90 0 -113.5 15.5t-15.5 58.5zM473 403q-17 -94 33 -147t158 -53q136 0 219.5 111t83.5 300q0 187 -172 187q-116 0 -196.5 -78.5t-104.5 -206.5z" />
<glyph unicode="&#xff;" horiz-adv-x="1124" d="M-89 -409q-5 26 23 94q24 60 46 74t65 3q78 -20 133 -20q91 0 144 42t98 144l26 60q-66 0 -95 19.5t-38 70.5l-125 649q-6 30 -21 40.5t-50 10.5h-27q-40 0 -48.5 20t3.5 93q13 71 30 92t58 21h111q100 0 146 -35.5t61 -124.5l77 -434q20 -126 23 -226h35q27 116 71 226 l209 534q17 43 50 56.5t126 13.5q82 0 105 -14.5t4 -55.5l-418 -971q-60 -139 -118.5 -228t-127 -139.5t-141.5 -69.5t-172 -19q-113 0 -217 34q-41 14 -46 40zM223 1321q10 82 49 119t111 37h27q67 0 93.5 -28.5t26.5 -96.5q0 -86 -33 -127t-102 -41h-76q-63 0 -84.5 29.5 t-11.5 107.5zM799 1321q10 82 49 119t110 37h27q67 0 94 -28.5t27 -96.5q0 -86 -33 -127t-102 -41h-76q-63 0 -84.5 29.5t-11.5 107.5z" />
<glyph unicode="&#x100;" d="M-77.5 19q-8.5 19 3.5 92q13 69 30.5 89.5t57.5 20.5h56l690 1153q41 68 75.5 90.5t106.5 22.5h156q73 0 101 -23t42 -90l248 -1153h67q38 0 46.5 -18.5t-3.5 -91.5q-13 -70 -30.5 -90.5t-57.5 -20.5h-505q-38 0 -46.5 19t3.5 92q13 69 30.5 89.5t57.5 20.5h125l-41 232 h-613l-137 -232h137q38 0 46.5 -18.5t-3.5 -91.5q-13 -70 -30.5 -90.5t-57.5 -20.5h-508q-38 0 -46.5 19zM649 680h445l-52 293q-28 173 -38 299h-33q-81 -177 -150 -297zM659.5 1732q-8.5 18 2.5 93q13 67 30.5 87.5t57.5 20.5h616q39 0 47.5 -17.5t-2.5 -92.5 q-13 -67 -31 -88t-57 -21h-616q-39 0 -47.5 18z" />
<glyph unicode="&#x101;" horiz-adv-x="1310" d="M74 387q0 178 70.5 324t200 231.5t292.5 85.5q179 0 264 -104h35l8 32q8 31 37 44.5t100 13.5t93 -14.5t14 -53.5l-131 -678q-5 -25 3.5 -34t39.5 -9h28q40 0 49.5 -19.5t-3.5 -92.5q-15 -70 -32 -91.5t-57 -21.5h-98q-87 0 -129.5 25.5t-54.5 83.5h-35 q-104 -134 -315 -134q-379 0 -379 412zM367 406q0 -106 46 -154.5t140 -48.5q104 0 179 74.5t102 214.5l18 98q19 96 -31 153.5t-149 57.5q-130 0 -217.5 -111.5t-87.5 -283.5zM480.5 1205.5q-8.5 17.5 2.5 92.5q13 67 31 88t57 21h492q39 0 47.5 -18t-2.5 -93 q-13 -67 -30.5 -87.5t-57.5 -20.5h-492q-39 0 -47.5 17.5z" />
<glyph unicode="&#x102;" d="M-77.5 19q-8.5 19 3.5 92q13 69 30.5 89.5t57.5 20.5h56l690 1153q41 68 75.5 90.5t106.5 22.5h156q73 0 101 -23t42 -90l248 -1153h67q38 0 46.5 -18.5t-3.5 -91.5q-13 -70 -30.5 -90.5t-57.5 -20.5h-505q-38 0 -46.5 19t3.5 92q13 69 30.5 89.5t57.5 20.5h125l-41 232 h-613l-137 -232h137q38 0 46.5 -18.5t-3.5 -91.5q-13 -70 -30.5 -90.5t-57.5 -20.5h-508q-38 0 -46.5 19zM639 1868q0 38 6 59q6 24 28 31.5t91 7.5q61 0 80.5 -9.5t17.5 -29.5q-2 -14 -2 -29q0 -36 35 -54.5t119 -18.5q95 0 142 26.5t58 81.5q3 20 22.5 26.5t84.5 6.5 q75 0 95.5 -10t17.5 -37q-9 -67 -41 -115q-52 -82 -157 -128t-251 -46q-179 0 -262.5 63.5t-83.5 174.5zM649 680h445l-52 293q-28 173 -38 299h-33q-81 -177 -150 -297z" />
<glyph unicode="&#x103;" horiz-adv-x="1310" d="M74 387q0 178 70.5 324t200 231.5t292.5 85.5q179 0 264 -104h35l8 32q8 31 37 44.5t100 13.5t93 -14.5t14 -53.5l-131 -678q-5 -25 3.5 -34t39.5 -9h28q40 0 49.5 -19.5t-3.5 -92.5q-15 -70 -32 -91.5t-57 -21.5h-98q-87 0 -129.5 25.5t-54.5 83.5h-35 q-104 -134 -315 -134q-379 0 -379 412zM367 406q0 -106 46 -154.5t140 -48.5q104 0 179 74.5t102 214.5l18 98q19 96 -31 153.5t-149 57.5q-130 0 -217.5 -111.5t-87.5 -283.5zM481 1395q0 41 22.5 55t94.5 14q51 0 66.5 -9t13.5 -28v-24q0 -31 24 -46.5t82 -15.5 q112 0 127 78q6 29 24.5 37t80.5 8q65 0 83 -10t15 -39q-5 -41 -27 -90q-38 -84 -119 -130t-200 -46q-132 0 -203 52.5t-82 146.5q-2 14 -2 47z" />
<glyph unicode="&#x104;" d="M-77.5 19q-8.5 19 3.5 92q13 69 30.5 89.5t57.5 20.5h56l690 1153q41 68 75.5 90.5t106.5 22.5h156q73 0 101 -23t42 -90l248 -1153h67q38 0 46.5 -18.5t-3.5 -91.5q-15 -77 -38 -97q-20 -17 -70 -45q-84 -49 -131.5 -110.5t-44.5 -100.5q2 -21 14.5 -29t44.5 -8 q14 0 66 9q20 3 27.5 -8t15.5 -54q13 -75 -29 -94q-62 -27 -158 -27q-200 0 -200 158q0 84 55.5 163.5t151.5 131.5h-297q-38 0 -46.5 19t3.5 92q13 69 30.5 89.5t57.5 20.5h125l-41 232h-613l-137 -232h137q38 0 46.5 -18.5t-3.5 -91.5q-13 -70 -30.5 -90.5t-57.5 -20.5 h-508q-38 0 -46.5 19zM649 680h445l-52 293q-28 173 -38 299h-33q-81 -177 -150 -297z" />
<glyph unicode="&#x105;" horiz-adv-x="1310" d="M74 387q0 178 70.5 324t200 231.5t292.5 85.5q179 0 264 -104h35l8 32q8 31 37 44.5t100 13.5t93 -14.5t14 -53.5l-131 -678q-5 -25 3.5 -34t39.5 -9h28q40 0 49.5 -20t-3.5 -92q-12 -55 -22.5 -75t-33.5 -34q-119 -71 -175.5 -136t-53.5 -110q2 -21 14.5 -29t44.5 -8 q14 0 66 9q20 3 27.5 -8t15.5 -54q13 -75 -29 -94q-62 -27 -158 -27q-200 0 -200 158q0 81 59.5 165t165.5 136v2q-77 20 -92 101h-35q-104 -134 -315 -134q-379 0 -379 412zM367 406q0 -106 46 -154.5t140 -48.5q104 0 179 74.5t102 214.5l18 98q19 96 -31 153.5t-149 57.5 q-130 0 -217.5 -111.5t-87.5 -283.5z" />
<glyph unicode="&#x106;" horiz-adv-x="1466" d="M90 586q0 275 104 480.5t304.5 319t474.5 113.5q182 0 319 -45q104 -35 141.5 -91t16.5 -161l-27 -129q-9 -48 -39 -64t-120 -16q-87 0 -111.5 16t-15.5 62l32 166q-106 33 -239 33q-242 0 -390.5 -183t-148.5 -483q0 -206 94 -297.5t310 -91.5q139 0 331 51 q41 11 60.5 -4t38.5 -82q16 -60 7.5 -86t-46.5 -41q-87 -35 -213.5 -56.5t-243.5 -21.5q-328 0 -483.5 151.5t-155.5 459.5zM610 1632q-3 17 17 33l268 205q77 61 242 61q105 0 123 -35q9 -19 -15 -36l-303 -207q-80 -54 -219 -54q-103 0 -113 33z" />
<glyph unicode="&#x107;" horiz-adv-x="1138" d="M74 406q0 135 42 247.5t122.5 196.5t207 131t287.5 47q114 0 213 -24q86 -22 118.5 -68.5t20.5 -128.5l-10 -72q-8 -57 -38 -78.5t-107 -21.5q-80 0 -103.5 15.5t-15.5 60.5l12 77q-71 19 -131 19q-146 0 -238 -102.5t-92 -266.5q0 -121 63 -179t200 -58q124 0 237 37 q42 12 62.5 -2t38.5 -72q19 -61 12 -83.5t-47 -41.5q-153 -64 -371 -64q-259 0 -371 108t-112 323zM383 1145q2 8 12 18l252 238q35 33 88 47t142 14q120 0 119 -35q-2 -13 -17 -26l-287 -238q-62 -53 -194 -53q-121 0 -115 35z" />
<glyph unicode="&#x108;" horiz-adv-x="1466" d="M90 586q0 275 104 480.5t304.5 319t474.5 113.5q182 0 319 -45q104 -35 141.5 -91t16.5 -161l-27 -129q-9 -48 -39 -64t-120 -16q-87 0 -111.5 16t-15.5 62l32 166q-106 33 -239 33q-242 0 -390.5 -183t-148.5 -483q0 -206 94 -297.5t310 -91.5q139 0 331 51 q41 11 60.5 -4t38.5 -82q16 -60 7.5 -86t-46.5 -41q-87 -35 -213.5 -56.5t-243.5 -21.5q-328 0 -483.5 151.5t-155.5 459.5zM430 1635q1 12 19 26l290 213q41 30 83 40.5t120 10.5h31q72 0 109.5 -11.5t66.5 -39.5l217 -211q50 -48 -52 -58l-63 -3q-95 0 -131.5 6t-54.5 22 l-139 121l-178 -121q-24 -15 -65.5 -21.5t-137.5 -6.5q-117 0 -115 33z" />
<glyph unicode="&#x109;" horiz-adv-x="1138" d="M74 406q0 135 42 247.5t122.5 196.5t207 131t287.5 47q114 0 213 -24q86 -22 118.5 -68.5t20.5 -128.5l-10 -72q-8 -57 -38 -78.5t-107 -21.5q-80 0 -103.5 15.5t-15.5 60.5l12 77q-71 19 -131 19q-146 0 -238 -102.5t-92 -266.5q0 -121 63 -179t200 -58q124 0 237 37 q42 12 62.5 -2t38.5 -72q19 -61 12 -83.5t-47 -41.5q-153 -64 -371 -64q-259 0 -371 108t-112 323zM268 1148q1 9 11 19l219 226q35 36 79 50.5t132 14.5q91 0 128 -13t62 -52l141 -222q30 -47 -41 -57q-24 -4 -61 -4q-81 0 -117.5 10t-50.5 33l-86 133l-115 -133 q-20 -23 -56.5 -33t-111.5 -10q-138 0 -133 38z" />
<glyph unicode="&#x10a;" horiz-adv-x="1466" d="M90 586q0 275 104 480.5t304.5 319t474.5 113.5q182 0 319 -45q104 -35 141.5 -91t16.5 -161l-27 -129q-9 -48 -39 -64t-120 -16q-87 0 -111.5 16t-15.5 62l32 166q-106 33 -239 33q-242 0 -390.5 -183t-148.5 -483q0 -206 94 -297.5t310 -91.5q139 0 331 51 q41 11 60.5 -4t38.5 -82q16 -60 7.5 -86t-46.5 -41q-87 -35 -213.5 -56.5t-243.5 -21.5q-328 0 -483.5 151.5t-155.5 459.5zM791 1808q10 90 53.5 130t124.5 40h37q73 0 104.5 -34.5t22.5 -120.5q-9 -93 -44 -129.5t-106 -36.5h-94q-67 0 -88 31.5t-10 119.5z" />
<glyph unicode="&#x10b;" horiz-adv-x="1138" d="M74 406q0 135 42 247.5t122.5 196.5t207 131t287.5 47q114 0 213 -24q86 -22 118.5 -68.5t20.5 -128.5l-10 -72q-8 -57 -38 -78.5t-107 -21.5q-80 0 -103.5 15.5t-15.5 60.5l12 77q-71 19 -131 19q-146 0 -238 -102.5t-92 -266.5q0 -121 63 -179t200 -58q124 0 237 37 q42 12 62.5 -2t38.5 -72q19 -61 12 -83.5t-47 -41.5q-153 -64 -371 -64q-259 0 -371 108t-112 323zM526 1325q11 86 52.5 127t119.5 41h35q77 0 106.5 -35t20.5 -119q-10 -93 -44 -129t-105 -36h-84q-69 0 -90.5 32t-10.5 119z" />
<glyph unicode="&#x10c;" horiz-adv-x="1466" d="M90 586q0 275 104 480.5t304.5 319t474.5 113.5q182 0 319 -45q104 -35 141.5 -91t16.5 -161l-27 -129q-9 -48 -39 -64t-120 -16q-87 0 -111.5 16t-15.5 62l32 166q-106 33 -239 33q-242 0 -390.5 -183t-148.5 -483q0 -206 94 -297.5t310 -91.5q139 0 331 51 q41 11 60.5 -4t38.5 -82q16 -60 7.5 -86t-46.5 -41q-87 -35 -213.5 -56.5t-243.5 -21.5q-328 0 -483.5 151.5t-155.5 459.5zM500 1862q-37 34 10 51q29 10 88 10q110 0 146.5 -6.5t58.5 -24.5l137 -123l176 123q26 18 67 24.5t144 6.5q110 0 111 -32q0 -13 -19 -27 l-293 -213q-40 -30 -81.5 -41t-112.5 -11h-37q-122 0 -174 52z" />
<glyph unicode="&#x10d;" horiz-adv-x="1138" d="M74 406q0 135 42 247.5t122.5 196.5t207 131t287.5 47q114 0 213 -24q86 -22 118.5 -68.5t20.5 -128.5l-10 -72q-8 -57 -38 -78.5t-107 -21.5q-80 0 -103.5 15.5t-15.5 60.5l12 77q-71 19 -131 19q-146 0 -238 -102.5t-92 -266.5q0 -121 63 -179t200 -58q124 0 237 37 q42 12 62.5 -2t38.5 -72q19 -61 12 -83.5t-47 -41.5q-153 -64 -371 -64q-259 0 -371 108t-112 323zM303 1395q-33 50 59 60l54 3q84 0 116 -9.5t46 -33.5l79 -137l125 137q24 27 54.5 35t115.5 8q140 0 130 -39q-3 -10 -13 -20l-223 -223q-36 -36 -82.5 -51t-132.5 -15 t-122 13.5t-63 52.5z" />
<glyph unicode="&#x10e;" horiz-adv-x="1624" d="M-28.5 19q-8.5 19 3.5 92q13 69 30.5 89.5t57.5 20.5h82l199 1032h-80q-38 0 -46.5 18.5t3.5 92.5q13 70 30.5 90.5t57.5 20.5h547q678 0 678 -543q0 -205 -58.5 -375.5t-170 -294.5t-283 -193t-387.5 -69h-617q-38 0 -46.5 19zM438 221h228q116 0 211.5 37.5t160.5 101 t110 150.5t65 183.5t20 201.5q0 358 -408 358h-188zM459 1862q-37 34 10 51q29 10 88 10q110 0 146.5 -6.5t58.5 -24.5l137 -123l176 123q26 18 67 24.5t144 6.5q110 0 111 -32q0 -13 -19 -27l-293 -213q-40 -30 -81.5 -41t-112.5 -11h-37q-122 0 -174 52z" />
<glyph unicode="&#x10f;" horiz-adv-x="1701" d="M74 387q0 139 44.5 259.5t120 203.5t177.5 130.5t215 47.5q186 0 270 -100h33q-3 68 16 176l19 102q4 24 -3 33.5t-28 9.5h-43q-39 0 -50.5 21t-0.5 71q17 77 50 105.5t103 28.5h164q82 0 106.5 -25.5t10.5 -93.5l-209 -1086q-6 -26 3 -35.5t38 -9.5h29q40 0 49 -19.5 t-4 -92.5q-15 -70 -31.5 -91.5t-56.5 -21.5h-97q-88 0 -130 25.5t-54 83.5h-35q-53 -66 -129 -100t-192 -34q-385 0 -385 412zM369 408q0 -107 46.5 -156t141.5 -49q111 0 185 75t102 211l18 91q20 97 -33.5 159t-152.5 62q-131 0 -219 -111.5t-88 -281.5zM1360 942 q59 116 100 246q-37 14 -53 34.5t-16 55.5q0 79 42.5 125.5t120.5 46.5h23q109 0 109 -100q0 -80 -43 -200.5t-113 -213.5q-30 -43 -78 -43h-61q-55 0 -31 49z" />
<glyph unicode="&#x110;" horiz-adv-x="1624" d="M-28.5 19q-8.5 19 3.5 92q13 69 30.5 89.5t57.5 20.5h82l74 383h-192q-38 0 -46.5 19t3.5 92q13 69 30.5 89.5t57.5 20.5h188l84 428h-80q-38 0 -46.5 18.5t3.5 92.5q13 70 30.5 90.5t57.5 20.5h547q678 0 678 -543q0 -205 -58.5 -375.5t-170 -294.5t-283 -193 t-387.5 -69h-617q-38 0 -46.5 19zM438 221h228q116 0 211.5 37.5t160.5 101t110 150.5t65 183.5t20 201.5q0 358 -408 358h-188l-82 -428h174q38 0 46.5 -18.5t-3.5 -91.5q-13 -70 -30.5 -90.5t-57.5 -20.5h-172z" />
<glyph unicode="&#x111;" horiz-adv-x="1320" d="M74 387q0 139 44.5 259.5t120 203.5t177.5 130.5t215 47.5q186 0 270 -100h33q-3 58 8 127h-182q-39 0 -47 14.5t2 71.5q10 55 27 70.5t61 15.5h170v4q0 27 -6 35t-27 8h-45q-18 0 -25.5 0.5t-17 4t-11.5 11t-2 21.5t5 35q17 76 49.5 104.5t103.5 28.5h164 q82 0 106.5 -26t12.5 -93l-27 -133h95q39 0 47 -14.5t-2 -71.5q-10 -55 -27 -70.5t-61 -15.5h-86l-150 -785q-5 -26 3.5 -35.5t37.5 -9.5h29q40 0 49 -19.5t-4 -92.5q-15 -70 -31.5 -91.5t-56.5 -21.5h-97q-88 0 -130 25.5t-54 83.5h-35q-53 -66 -129 -100t-192 -34 q-385 0 -385 412zM369 408q0 -107 46.5 -156t141.5 -49q111 0 185 75t102 211l18 91q20 97 -33.5 159t-152.5 62q-131 0 -219 -111.5t-88 -281.5z" />
<glyph unicode="&#x112;" horiz-adv-x="1519" d="M-28.5 19q-8.5 19 3.5 92q13 69 30.5 89.5t57.5 20.5h87l198 1032h-80q-38 0 -46.5 18.5t3.5 92.5q13 70 30.5 90.5t57.5 20.5h1100q78 0 100 -24.5t9 -94.5l-41 -217q-9 -51 -39.5 -67.5t-110.5 -16.5q-79 0 -100.5 16t-11.5 68l22 114h-602l-74 -391h344l6 35 q9 51 34.5 66.5t109.5 15.5q79 0 99 -17t11 -63l-59 -311q-9 -47 -36 -62.5t-107 -15.5q-79 0 -98.5 15t-10.5 67l8 43h-346l-80 -414h611l24 125q9 49 37.5 65.5t110.5 16.5q80 0 101.5 -15.5t12.5 -66.5l-43 -227q-14 -71 -45 -95t-110 -24h-1121q-38 0 -46.5 19z M525.5 1732q-8.5 18 2.5 93q13 67 30.5 87.5t57.5 20.5h617q39 0 47.5 -17.5t-2.5 -92.5q-13 -67 -31 -88t-57 -21h-617q-39 0 -47.5 18z" />
<glyph unicode="&#x113;" horiz-adv-x="1159" d="M74 389q0 136 39.5 252t114.5 202.5t192 135.5t264 49q205 0 309.5 -88.5t104.5 -224.5q0 -326 -496 -326h-248v-22q0 -166 269 -166q134 0 247 37q42 12 62.5 -2t38.5 -72q19 -61 11.5 -84t-46.5 -41q-64 -28 -168.5 -46t-212.5 -18q-253 0 -367 100t-114 314zM379 588 h252q190 0 190 121q0 53 -43.5 82.5t-124.5 29.5q-105 0 -175.5 -61t-98.5 -172zM411.5 1205.5q-8.5 17.5 2.5 92.5q13 67 31 88t57 21h491q39 0 47.5 -18t-2.5 -93q-13 -67 -30.5 -87.5t-57.5 -20.5h-491q-39 0 -47.5 17.5z" />
<glyph unicode="&#x114;" horiz-adv-x="1519" d="M-28.5 19q-8.5 19 3.5 92q13 69 30.5 89.5t57.5 20.5h87l198 1032h-80q-38 0 -46.5 18.5t3.5 92.5q13 70 30.5 90.5t57.5 20.5h1100q78 0 100 -24.5t9 -94.5l-41 -217q-9 -51 -39.5 -67.5t-110.5 -16.5q-79 0 -100.5 16t-11.5 68l22 114h-602l-74 -391h344l6 35 q9 51 34.5 66.5t109.5 15.5q79 0 99 -17t11 -63l-59 -311q-9 -47 -36 -62.5t-107 -15.5q-79 0 -98.5 15t-10.5 67l8 43h-346l-80 -414h611l24 125q9 49 37.5 65.5t110.5 16.5q80 0 101.5 -15.5t12.5 -66.5l-43 -227q-14 -71 -45 -95t-110 -24h-1121q-38 0 -46.5 19z M522 1868q0 38 6 59q6 24 28 31.5t91 7.5q61 0 80.5 -9.5t17.5 -29.5q-2 -14 -2 -29q0 -36 35 -54.5t119 -18.5q95 0 142.5 26.5t58.5 81.5q3 20 22 26.5t84 6.5q75 0 95.5 -10t17.5 -37q-9 -67 -41 -115q-52 -82 -157 -128t-251 -46q-179 0 -262.5 63.5t-83.5 174.5z" />
<glyph unicode="&#x115;" horiz-adv-x="1159" d="M74 389q0 136 39.5 252t114.5 202.5t192 135.5t264 49q205 0 309.5 -88.5t104.5 -224.5q0 -326 -496 -326h-248v-22q0 -166 269 -166q134 0 247 37q42 12 62.5 -2t38.5 -72q19 -61 11.5 -84t-46.5 -41q-64 -28 -168.5 -46t-212.5 -18q-253 0 -367 100t-114 314zM379 588 h252q190 0 190 121q0 53 -43.5 82.5t-124.5 29.5q-105 0 -175.5 -61t-98.5 -172zM401 1395q0 41 22.5 55t94.5 14q51 0 66.5 -9t13.5 -28v-24q0 -62 107 -62q111 0 126 78q6 29 24.5 37t80.5 8q65 0 83 -10t15 -39q-6 -44 -26 -90q-38 -84 -119.5 -130t-200.5 -46 q-132 0 -203 52.5t-82 146.5q-2 14 -2 47z" />
<glyph unicode="&#x116;" horiz-adv-x="1519" d="M-28.5 19q-8.5 19 3.5 92q13 69 30.5 89.5t57.5 20.5h87l198 1032h-80q-38 0 -46.5 18.5t3.5 92.5q13 70 30.5 90.5t57.5 20.5h1100q78 0 100 -24.5t9 -94.5l-41 -217q-9 -51 -39.5 -67.5t-110.5 -16.5q-79 0 -100.5 16t-11.5 68l22 114h-602l-74 -391h344l6 35 q9 51 34.5 66.5t109.5 15.5q79 0 99 -17t11 -63l-59 -311q-9 -47 -36 -62.5t-107 -15.5q-79 0 -98.5 15t-10.5 67l8 43h-346l-80 -414h611l24 125q9 49 37.5 65.5t110.5 16.5q80 0 101.5 -15.5t12.5 -66.5l-43 -227q-14 -71 -45 -95t-110 -24h-1121q-38 0 -46.5 19z M752 1808q10 90 53.5 130t124.5 40h37q73 0 104.5 -34.5t22.5 -120.5q-9 -93 -44 -129.5t-106 -36.5h-94q-67 0 -88 31.5t-10 119.5z" />
<glyph unicode="&#x117;" horiz-adv-x="1159" d="M74 389q0 136 39.5 252t114.5 202.5t192 135.5t264 49q205 0 309.5 -88.5t104.5 -224.5q0 -326 -496 -326h-248v-22q0 -166 269 -166q134 0 247 37q42 12 62.5 -2t38.5 -72q19 -61 11.5 -84t-46.5 -41q-64 -28 -168.5 -46t-212.5 -18q-253 0 -367 100t-114 314zM379 588 h252q190 0 190 121q0 53 -43.5 82.5t-124.5 29.5q-105 0 -175.5 -61t-98.5 -172zM537 1325q11 86 52.5 127t119.5 41h34q77 0 106.5 -35t20.5 -119q-10 -93 -44 -129t-105 -36h-84q-69 0 -90 32t-10 119z" />
<glyph unicode="&#x118;" horiz-adv-x="1519" d="M-28.5 19q-8.5 19 3.5 92q13 69 30.5 89.5t57.5 20.5h87l198 1032h-80q-38 0 -46.5 18.5t3.5 92.5q13 70 30.5 90.5t57.5 20.5h1100q78 0 100 -24.5t9 -94.5l-41 -217q-9 -51 -39.5 -67.5t-110.5 -16.5q-79 0 -100.5 16t-11.5 68l22 114h-602l-74 -391h344l6 35 q9 51 34.5 66.5t109.5 15.5q79 0 99 -17t11 -63l-59 -311q-9 -47 -36 -62.5t-107 -15.5q-79 0 -98.5 15t-10.5 67l8 43h-346l-80 -414h611l24 125q9 49 37.5 65.5t110.5 16.5q80 0 101.5 -15.5t12.5 -66.5l-43 -227q-9 -47 -21 -67.5t-40 -37.5q-255 -151 -248 -256 q2 -21 14.5 -29t44.5 -8q14 0 66 9q20 3 27.5 -8t15.5 -54q13 -75 -29 -94q-62 -27 -157 -27q-201 0 -201 158q0 84 55.5 163.5t151.5 131.5h-955q-38 0 -46.5 19z" />
<glyph unicode="&#x119;" horiz-adv-x="1159" d="M74 389q0 136 39.5 252t114.5 202.5t192 135.5t264 49q205 0 309.5 -88.5t104.5 -224.5q0 -326 -496 -326h-248v-22q0 -166 269 -166q134 0 247 37q42 12 62.5 -2t38.5 -72q19 -61 12 -83.5t-47 -41.5q-81 -39 -105 -53q-102 -62 -148.5 -124t-43.5 -104q2 -21 14.5 -29 t44.5 -8q14 0 66 9q20 3 27.5 -8t15.5 -54q13 -75 -29 -94q-62 -27 -157 -27q-201 0 -201 158q0 74 44.5 146t123.5 124h-33q-253 0 -367 100t-114 314zM379 588h252q190 0 190 121q0 53 -43.5 82.5t-124.5 29.5q-105 0 -175.5 -61t-98.5 -172z" />
<glyph unicode="&#x11a;" horiz-adv-x="1519" d="M-28.5 19q-8.5 19 3.5 92q13 69 30.5 89.5t57.5 20.5h87l198 1032h-80q-38 0 -46.5 18.5t3.5 92.5q13 70 30.5 90.5t57.5 20.5h1100q78 0 100 -24.5t9 -94.5l-41 -217q-9 -51 -39.5 -67.5t-110.5 -16.5q-79 0 -100.5 16t-11.5 68l22 114h-602l-74 -391h344l6 35 q9 51 34.5 66.5t109.5 15.5q79 0 99 -17t11 -63l-59 -311q-9 -47 -36 -62.5t-107 -15.5q-79 0 -98.5 15t-10.5 67l8 43h-346l-80 -414h611l24 125q9 49 37.5 65.5t110.5 16.5q80 0 101.5 -15.5t12.5 -66.5l-43 -227q-14 -71 -45 -95t-110 -24h-1121q-38 0 -46.5 19z M492 1862q-37 34 10 51q29 10 88 10q110 0 146.5 -6.5t58.5 -24.5l137 -123l176 123q26 18 67 24.5t144 6.5q110 0 111 -32q0 -13 -19 -27l-293 -213q-40 -30 -81.5 -41t-112.5 -11h-37q-122 0 -174 52z" />
<glyph unicode="&#x11b;" horiz-adv-x="1159" d="M74 389q0 136 39.5 252t114.5 202.5t192 135.5t264 49q205 0 309.5 -88.5t104.5 -224.5q0 -326 -496 -326h-248v-22q0 -166 269 -166q134 0 247 37q42 12 62.5 -2t38.5 -72q19 -61 11.5 -84t-46.5 -41q-64 -28 -168.5 -46t-212.5 -18q-253 0 -367 100t-114 314zM317 1395 q-33 50 59 60l54 3q84 0 116 -9.5t46 -33.5l80 -137l125 137q24 27 54.5 35t115.5 8q139 0 129 -39q-2 -9 -13 -20l-223 -223q-36 -36 -82.5 -51t-132.5 -15t-121.5 13.5t-62.5 52.5zM379 588h252q190 0 190 121q0 53 -43.5 82.5t-124.5 29.5q-105 0 -175.5 -61t-98.5 -172z " />
<glyph unicode="&#x11c;" horiz-adv-x="1624" d="M90 582q0 198 60 364.5t176 290t297.5 193t412.5 69.5q194 0 340 -45q117 -36 154 -93.5t16 -160.5l-18 -92q-9 -47 -39 -62.5t-123 -15.5q-91 0 -116 16t-17 60l22 131q-132 33 -264 33q-273 0 -435.5 -179.5t-162.5 -496.5q0 -199 88 -289t283 -90q164 0 328 51l63 320 h-311q-45 0 -54.5 20t3.5 94q13 70 32.5 91.5t63.5 21.5h471q73 0 93.5 -22t8.5 -84l-123 -641q-8 -43 -37 -59.5t-108 -16.5q-70 0 -95.5 17.5t-23.5 64.5h-35q-146 -97 -372 -97q-280 0 -429 157t-149 450zM501 1635q1 12 19 26l291 213q41 30 83 40.5t120 10.5h30 q72 0 110 -11.5t67 -39.5l217 -211q50 -48 -52 -58l-63 -3q-95 0 -131.5 6t-54.5 22l-140 121l-178 -121q-24 -15 -65.5 -21.5t-137.5 -6.5q-117 0 -115 33z" />
<glyph unicode="&#x11d;" horiz-adv-x="1300" d="M6.5 -360.5q-3.5 27.5 26.5 90.5q29 62 54 74.5t63 -5.5q145 -55 292 -55q145 0 216 55.5t90 171.5l4 25q14 77 43 137h-35q-111 -123 -305 -123q-379 0 -379 398q0 176 74 317t206.5 221t298.5 80q181 0 269 -104h34l9 30q10 35 36 48.5t99 13.5q70 0 92.5 -13.5 t15.5 -54.5l-174 -942q-46 -255 -192 -371t-428 -116q-104 0 -203 21t-164 54q-39 20 -42.5 47.5zM360 1148q1 9 11 19l219 226q35 36 79 50.5t132 14.5q91 0 128 -13t62 -52l142 -222q31 -48 -44 -58l-59 -3q-81 0 -117.5 10t-50.5 33l-86 133l-114 -133q-20 -23 -56.5 -33 t-111.5 -10q-138 0 -134 38zM371 430q0 -197 192 -197q107 0 191.5 78.5t105.5 206.5l10 64q15 98 -33.5 158.5t-148.5 60.5q-140 0 -228.5 -106.5t-88.5 -264.5z" />
<glyph unicode="&#x11e;" horiz-adv-x="1624" d="M90 582q0 198 60 364.5t176 290t297.5 193t412.5 69.5q194 0 340 -45q117 -36 154 -93.5t16 -160.5l-18 -92q-9 -47 -39 -62.5t-123 -15.5q-91 0 -116 16t-17 60l22 131q-132 33 -264 33q-273 0 -435.5 -179.5t-162.5 -496.5q0 -199 88 -289t283 -90q164 0 328 51l63 320 h-311q-45 0 -54.5 20t3.5 94q13 70 32.5 91.5t63.5 21.5h471q73 0 93.5 -22t8.5 -84l-123 -641q-8 -43 -37 -59.5t-108 -16.5q-70 0 -95.5 17.5t-23.5 64.5h-35q-146 -97 -372 -97q-280 0 -429 157t-149 450zM596 1868q0 38 6 59q6 24 28 31.5t91 7.5q61 0 80.5 -9.5 t17.5 -29.5q-2 -14 -2 -29q0 -36 35 -54.5t119 -18.5q95 0 142 26.5t58 81.5q3 20 22.5 26.5t84.5 6.5q75 0 95.5 -10t17.5 -37q-9 -67 -41 -115q-52 -82 -157 -128t-251 -46q-179 0 -262.5 63.5t-83.5 174.5z" />
<glyph unicode="&#x11f;" horiz-adv-x="1300" d="M6.5 -360.5q-3.5 27.5 26.5 90.5q29 62 54 74.5t63 -5.5q145 -55 292 -55q145 0 216 55.5t90 171.5l4 25q14 77 43 137h-35q-111 -123 -305 -123q-379 0 -379 398q0 176 74 317t206.5 221t298.5 80q181 0 269 -104h34l9 30q10 35 36 48.5t99 13.5q70 0 92.5 -13.5 t15.5 -54.5l-174 -942q-46 -255 -192 -371t-428 -116q-104 0 -203 21t-164 54q-39 20 -42.5 47.5zM371 430q0 -197 192 -197q107 0 191.5 78.5t105.5 206.5l10 64q15 98 -33.5 158.5t-148.5 60.5q-140 0 -228.5 -106.5t-88.5 -264.5zM494 1395q0 41 22 55t94 14 q51 0 66.5 -9t13.5 -28v-24q0 -62 107 -62q112 0 127 78q6 29 24 37t80 8q65 0 83 -10t15 -39q-6 -44 -26 -90q-38 -84 -119.5 -130t-200.5 -46q-132 0 -202.5 52.5t-81.5 146.5q-2 14 -2 47z" />
<glyph unicode="&#x120;" horiz-adv-x="1624" d="M90 582q0 198 60 364.5t176 290t297.5 193t412.5 69.5q194 0 340 -45q117 -36 154 -93.5t16 -160.5l-18 -92q-9 -47 -39 -62.5t-123 -15.5q-91 0 -116 16t-17 60l22 131q-132 33 -264 33q-273 0 -435.5 -179.5t-162.5 -496.5q0 -199 88 -289t283 -90q164 0 328 51l63 320 h-311q-45 0 -54.5 20t3.5 94q13 70 32.5 91.5t63.5 21.5h471q73 0 93.5 -22t8.5 -84l-123 -641q-8 -43 -37 -59.5t-108 -16.5q-70 0 -95.5 17.5t-23.5 64.5h-35q-146 -97 -372 -97q-280 0 -429 157t-149 450zM879 1808q10 90 53.5 130t124.5 40h37q73 0 104.5 -34.5 t22.5 -120.5q-9 -93 -44 -129.5t-106 -36.5h-94q-67 0 -88 31.5t-10 119.5z" />
<glyph unicode="&#x121;" horiz-adv-x="1300" d="M6.5 -360.5q-3.5 27.5 26.5 90.5q29 62 54 74.5t63 -5.5q145 -55 292 -55q145 0 216 55.5t90 171.5l4 25q14 77 43 137h-35q-111 -123 -305 -123q-379 0 -379 398q0 176 74 317t206.5 221t298.5 80q181 0 269 -104h34l9 30q10 35 36 48.5t99 13.5q70 0 92.5 -13.5 t15.5 -54.5l-174 -942q-46 -255 -192 -371t-428 -116q-104 0 -203 21t-164 54q-39 20 -42.5 47.5zM371 430q0 -197 192 -197q107 0 191.5 78.5t105.5 206.5l10 64q15 98 -33.5 158.5t-148.5 60.5q-140 0 -228.5 -106.5t-88.5 -264.5zM567 1325q11 86 52.5 127t119.5 41h35 q77 0 106.5 -35t20.5 -119q-10 -93 -44 -129t-105 -36h-84q-69 0 -90.5 32t-10.5 119z" />
<glyph unicode="&#x122;" horiz-adv-x="1624" d="M90 582q0 198 60 364.5t176 290t297.5 193t412.5 69.5q194 0 340 -45q117 -36 154 -93.5t16 -160.5l-18 -92q-9 -47 -39 -62.5t-123 -15.5q-91 0 -116 16t-17 60l22 131q-132 33 -264 33q-273 0 -435.5 -179.5t-162.5 -496.5q0 -199 88 -289t283 -90q164 0 328 51l63 320 h-311q-45 0 -54.5 20t3.5 94q13 70 32.5 91.5t63.5 21.5h471q73 0 93.5 -22t8.5 -84l-123 -641q-8 -43 -37 -59.5t-108 -16.5q-70 0 -95.5 17.5t-23.5 64.5h-35q-146 -97 -372 -97q-280 0 -429 157t-149 450zM503.5 -692.5q-8.5 12.5 2.5 37.5q60 117 100 245q-37 14 -53 35 t-16 56q0 79 42.5 125.5t120.5 46.5h23q108 0 108 -101q0 -81 -42.5 -201t-112.5 -213q-30 -43 -78 -43h-61q-25 0 -33.5 12.5z" />
<glyph unicode="&#x123;" horiz-adv-x="1300" d="M6.5 -360.5q-3.5 27.5 26.5 90.5q29 62 54 74.5t63 -5.5q145 -55 292 -55q145 0 216 55.5t90 171.5l4 25q14 77 43 137h-35q-111 -123 -305 -123q-379 0 -379 398q0 176 74 317t206.5 221t298.5 80q181 0 269 -104h34l9 30q10 35 36 48.5t99 13.5q70 0 92.5 -13.5 t15.5 -54.5l-174 -942q-46 -255 -192 -371t-428 -116q-104 0 -203 21t-164 54q-39 20 -42.5 47.5zM371 430q0 -197 192 -197q107 0 191.5 78.5t105.5 206.5l10 64q15 98 -33.5 158.5t-148.5 60.5q-140 0 -228.5 -106.5t-88.5 -264.5zM563 1223q0 80 43 200t113 213 q30 43 78 43h61q55 0 31 -49q-62 -121 -101 -246q37 -14 53.5 -34.5t16.5 -55.5q0 -79 -43 -125.5t-121 -46.5h-22q-109 0 -109 101z" />
<glyph unicode="&#x124;" horiz-adv-x="1740" d="M-28.5 19q-8.5 19 3.5 92q13 69 30.5 89.5t57.5 20.5h84l199 1032h-80q-38 0 -46.5 18.5t3.5 92.5q13 70 30.5 90.5t57.5 20.5h443q38 0 46.5 -18.5t-3.5 -92.5q-13 -70 -30.5 -90.5t-57.5 -20.5h-72l-74 -383h697l73 383h-78q-38 0 -46.5 18.5t3.5 92.5q13 70 30.5 90.5 t57.5 20.5h443q38 0 46.5 -18.5t-3.5 -92.5q-13 -70 -30.5 -90.5t-57.5 -20.5h-76l-199 -1032h84q38 0 46.5 -18.5t-3.5 -91.5q-13 -70 -30.5 -90.5t-57.5 -20.5h-454q-38 0 -46.5 19t3.5 92q13 69 30.5 89.5t57.5 20.5h80l81 422h-694l-82 -422h80q38 0 46.5 -18.5 t-3.5 -91.5q-13 -70 -30.5 -90.5t-57.5 -20.5h-455q-38 0 -46.5 19zM554 1636q1 11 19 25l291 213q41 30 83 40.5t120 10.5h31q72 0 109.5 -11.5t66.5 -39.5l217 -211q50 -48 -52 -58l-63 -3q-95 0 -131.5 6t-54.5 22l-139 121l-179 -121q-24 -15 -65 -21.5t-137 -6.5 q-118 0 -116 34z" />
<glyph unicode="&#x125;" horiz-adv-x="1359" d="M75 1580q1 9 11 19l219 226q35 36 79 50.5t132 14.5q91 0 128.5 -13t62.5 -52l141 -221q33 -51 -55 -60q-20 -2 -48 -2q-81 0 -117 10t-50 33l-86 133l-115 -133q-20 -23 -56.5 -33t-111.5 -10q-138 0 -134 38zM123 61l223 1145q8 43 -31 43h-45q-37 0 -50 20t-1 72 q17 76 50 105t104 29h164q82 0 106 -26t12 -93l-34 -182q-28 -148 -107 -293h35q53 74 134.5 110.5t211.5 36.5q162 0 242 -77t80 -236q0 -70 -23 -191l-51 -256q-5 -25 3.5 -34t39.5 -9h24q40 0 49 -19.5t-4 -92.5q-15 -70 -31.5 -91.5t-56.5 -21.5h-106q-119 0 -166 38 t-47 120q0 31 8 78l51 262q23 121 23 168q0 137 -139 137q-110 0 -196.5 -97.5t-121.5 -287.5l-67 -357q-9 -46 -36.5 -59.5t-115.5 -13.5q-90 0 -114.5 15t-16.5 58z" />
<glyph unicode="&#x126;" horiz-adv-x="1740" d="M-28.5 19q-8.5 19 3.5 92q13 69 30.5 89.5t57.5 20.5h84l144 748h-135q-22 0 -31 2t-16 11.5t-6 30t8 58.5q13 66 30 83t58 17h131l16 86h-80q-39 0 -47 16.5t4 90.5q13 70 30.5 90.5t57.5 20.5h443q38 0 46.5 -18.5t-3.5 -92.5q-13 -69 -30 -88t-58 -19h-72l-16 -86h696 l16 86h-78q-39 0 -47 16.5t4 90.5q13 70 30.5 90.5t57.5 20.5h443q38 0 46.5 -18.5t-3.5 -92.5q-13 -69 -30 -88t-58 -19h-76l-16 -86h135q22 0 31 -2t16 -11.5t6 -30t-8 -58.5q-13 -66 -30 -83t-58 -17h-131l-144 -748h84q38 0 46.5 -18.5t-3.5 -91.5q-13 -70 -30.5 -90.5 t-57.5 -20.5h-454q-38 0 -46.5 19t3.5 92q13 69 30.5 89.5t57.5 20.5h80l81 422h-694l-82 -422h80q38 0 46.5 -18.5t-3.5 -91.5q-13 -70 -30.5 -90.5t-57.5 -20.5h-455q-38 0 -46.5 19zM563 870h697l18 99h-696z" />
<glyph unicode="&#x127;" horiz-adv-x="1361" d="M125 61l190 990h-96q-39 0 -47 14.5t2 71.5q10 55 27 70.5t61 15.5h88v4q0 27 -6 35t-27 8h-45q-18 0 -25.5 0.5t-17 3.5t-11.5 10.5t-2 21.5t5 35q17 76 50 105t104 29h164q82 0 106 -26t12 -93l-26 -133h160q39 0 47 -14.5t-2 -71.5q-10 -55 -27 -70.5t-61 -15.5h-158 q-34 -97 -74 -170h35q53 74 134.5 110.5t211.5 36.5q162 0 242 -77t80 -236q0 -70 -23 -191l-51 -256q-5 -25 3.5 -34t39.5 -9h24q40 0 49 -19.5t-4 -92.5q-15 -70 -31.5 -91.5t-56.5 -21.5h-106q-119 0 -166 38t-47 120q0 31 8 78l51 262q23 121 23 168q0 137 -139 137 q-110 0 -196.5 -97.5t-121.5 -287.5l-67 -357q-9 -46 -36.5 -59.5t-115.5 -13.5q-90 0 -114.5 15t-16.5 58z" />
<glyph unicode="&#x128;" horiz-adv-x="757" d="M-28.5 19q-8.5 19 3.5 92q13 69 30.5 89.5t57.5 20.5h82l199 1032h-80q-38 0 -46.5 18.5t3.5 92.5q13 70 30.5 90.5t57.5 20.5h451q38 0 46.5 -18.5t-3.5 -92.5q-13 -70 -30.5 -90.5t-57.5 -20.5h-78l-199 -1032h82q38 0 46.5 -18.5t-3.5 -91.5q-13 -70 -30.5 -90.5 t-57.5 -20.5h-457q-38 0 -46.5 19zM54 1768.5q-10 20.5 1 37.5q48 94 124.5 145.5t172.5 51.5q50 0 101.5 -20.5t87 -45t76.5 -45t71 -20.5q31 0 53.5 15.5t53.5 58.5q10 20 36 19t76 -28q47 -26 60 -46t2 -48q-38 -99 -115 -151t-166 -52q-47 0 -98.5 20t-87.5 43.5 t-78 43.5t-74 20q-81 0 -135 -75q-9 -13 -20 -16t-33 6t-56 34q-42 32 -52 52.5z" />
<glyph unicode="&#x129;" horiz-adv-x="702" d="M-43 1285q-10 22 4 42q50 87 115.5 126.5t154.5 39.5q48 0 94 -18.5t76 -41t65.5 -41t63.5 -18.5q31 0 50.5 12.5t48.5 53.5q10 20 34.5 19t71.5 -27q47 -27 59.5 -45.5t2.5 -43.5q-72 -184 -260 -184q-45 0 -90 18.5t-75.5 40t-67 40t-66.5 18.5q-66 0 -121 -70 q-14 -19 -38 -14.5t-67 37.5q-45 34 -55 56zM129 870q17 76 50 105t104 29h163q83 0 108 -26t11 -95l-121 -615q-5 -25 3.5 -34t39.5 -9h25q40 0 49 -19.5t-4 -92.5q-15 -70 -31.5 -91.5t-56.5 -21.5h-107q-118 0 -165 38t-47 120q0 31 8 78l96 499q4 24 -3 33.5t-28 9.5 h-43q-39 0 -50.5 21t-0.5 71z" />
<glyph unicode="&#x12a;" horiz-adv-x="757" d="M-28.5 19q-8.5 19 3.5 92q13 69 30.5 89.5t57.5 20.5h82l199 1032h-80q-38 0 -46.5 18.5t3.5 92.5q13 70 30.5 90.5t57.5 20.5h451q38 0 46.5 -18.5t-3.5 -92.5q-13 -70 -30.5 -90.5t-57.5 -20.5h-78l-199 -1032h82q38 0 46.5 -18.5t-3.5 -91.5q-13 -70 -30.5 -90.5 t-57.5 -20.5h-457q-38 0 -46.5 19zM181.5 1732q-8.5 18 2.5 93q13 67 30.5 87.5t57.5 20.5h617q39 0 47.5 -17.5t-2.5 -92.5q-13 -67 -31 -88t-57 -21h-617q-39 0 -47.5 18z" />
<glyph unicode="&#x12b;" horiz-adv-x="702" d="M81.5 1205.5q-8.5 17.5 2.5 92.5q13 67 31 88t57 21h492q39 0 47.5 -18t-2.5 -93q-13 -67 -30.5 -87.5t-57.5 -20.5h-492q-39 0 -47.5 17.5zM129 870q17 76 50 105t104 29h163q83 0 108 -26t11 -95l-121 -615q-5 -25 3.5 -34t39.5 -9h25q40 0 49 -19.5t-4 -92.5 q-15 -70 -31.5 -91.5t-56.5 -21.5h-107q-118 0 -165 38t-47 120q0 31 8 78l96 499q4 24 -3 33.5t-28 9.5h-43q-39 0 -50.5 21t-0.5 71z" />
<glyph unicode="&#x12c;" horiz-adv-x="757" d="M-28.5 19q-8.5 19 3.5 92q13 69 30.5 89.5t57.5 20.5h82l199 1032h-80q-38 0 -46.5 18.5t3.5 92.5q13 70 30.5 90.5t57.5 20.5h451q38 0 46.5 -18.5t-3.5 -92.5q-13 -70 -30.5 -90.5t-57.5 -20.5h-78l-199 -1032h82q38 0 46.5 -18.5t-3.5 -91.5q-13 -70 -30.5 -90.5 t-57.5 -20.5h-457q-38 0 -46.5 19zM154 1868q0 38 6 59q6 24 28 31.5t91 7.5q61 0 80.5 -9.5t17.5 -29.5q-2 -14 -2 -29q0 -36 34.5 -54.5t118.5 -18.5q95 0 142.5 26.5t58.5 81.5q3 20 22.5 26.5t84.5 6.5q75 0 95 -10t17 -37q-9 -67 -41 -115q-52 -82 -156.5 -128 t-250.5 -46q-179 0 -262.5 63.5t-83.5 174.5z" />
<glyph unicode="&#x12d;" horiz-adv-x="702" d="M80 1395q0 41 22.5 55t94.5 14q51 0 66 -8.5t13 -28.5v-24q0 -62 107 -62q112 0 127 78q6 29 24 37t80 8q65 0 83.5 -10t15.5 -39q-5 -41 -27 -90q-38 -84 -119 -130t-200 -46q-132 0 -203 52.5t-82 146.5q-2 14 -2 47zM129 870q17 76 50 105t104 29h163q83 0 108 -26 t11 -95l-121 -615q-5 -25 3.5 -34t39.5 -9h25q40 0 49 -19.5t-4 -92.5q-15 -70 -31.5 -91.5t-56.5 -21.5h-107q-118 0 -165 38t-47 120q0 31 8 78l96 499q4 24 -3 33.5t-28 9.5h-43q-39 0 -50.5 21t-0.5 71z" />
<glyph unicode="&#x12e;" horiz-adv-x="757" d="M-28.5 19q-8.5 19 3.5 92q13 69 30.5 89.5t57.5 20.5h82l199 1032h-80q-38 0 -46.5 18.5t3.5 92.5q13 70 30.5 90.5t57.5 20.5h451q38 0 46.5 -18.5t-3.5 -92.5q-13 -70 -30.5 -90.5t-57.5 -20.5h-78l-199 -1032h82q38 0 46.5 -18.5t-3.5 -91.5q-14 -76 -39 -97 q-21 -18 -69 -45q-84 -49 -131.5 -110.5t-44.5 -100.5q2 -21 14.5 -29t44.5 -8q13 0 65 9q20 3 27.5 -8t15.5 -54q13 -76 -28 -94q-62 -27 -158 -27q-201 0 -201 158q0 84 55.5 163.5t151.5 131.5h-248q-38 0 -46.5 19z" />
<glyph unicode="&#x12f;" horiz-adv-x="702" d="M53 -295q0 88 59.5 169t161.5 132v2q-68 12 -96 48t-28 102q0 31 8 78l96 499q4 24 -3 33.5t-28 9.5h-43q-39 0 -50.5 21t-0.5 71q17 76 50 105t104 29h163q83 0 108 -26t11 -95l-121 -615q-5 -25 3.5 -34t39.5 -9h25q40 0 49 -20t-4 -92q-12 -56 -22 -76t-33 -33 q-119 -71 -176 -136t-54 -110q2 -20 15 -28.5t45 -8.5q13 0 65 9q20 3 27.5 -8t15.5 -54q13 -76 -28 -94q-62 -27 -158 -27q-201 0 -201 158zM287 1292q0 106 46.5 162.5t129.5 56.5h39q74 0 108.5 -31t34.5 -98q0 -102 -35.5 -149t-111.5 -47h-99q-60 0 -86 24.5t-26 81.5z " />
<glyph unicode="&#x130;" horiz-adv-x="757" d="M-28.5 19q-8.5 19 3.5 92q13 69 30.5 89.5t57.5 20.5h82l199 1032h-80q-38 0 -46.5 18.5t3.5 92.5q13 70 30.5 90.5t57.5 20.5h451q38 0 46.5 -18.5t-3.5 -92.5q-13 -70 -30.5 -90.5t-57.5 -20.5h-78l-199 -1032h82q38 0 46.5 -18.5t-3.5 -91.5q-13 -70 -30.5 -90.5 t-57.5 -20.5h-457q-38 0 -46.5 19zM391 1808q10 90 53.5 130t124.5 40h37q73 0 104.5 -34.5t22.5 -120.5q-9 -93 -43.5 -129.5t-105.5 -36.5h-95q-67 0 -88 31.5t-10 119.5z" />
<glyph unicode="&#x131;" horiz-adv-x="702" d="M129 870q17 76 50 105t104 29h163q83 0 108 -26t11 -95l-121 -615q-5 -25 3.5 -34t39.5 -9h25q40 0 49 -19.5t-4 -92.5q-15 -70 -31.5 -91.5t-56.5 -21.5h-107q-118 0 -165 38t-47 120q0 31 8 78l96 499q4 24 -3 33.5t-28 9.5h-43q-39 0 -50.5 21t-0.5 71z" />
<glyph unicode="&#x132;" horiz-adv-x="1785" d="M-28.5 19q-8.5 19 3.5 92q13 69 30.5 89.5t57.5 20.5h82l199 1032h-80q-38 0 -46.5 18.5t3.5 92.5q13 70 30.5 90.5t57.5 20.5h451q38 0 46.5 -18.5t-3.5 -92.5q-13 -70 -30.5 -90.5t-57.5 -20.5h-78l-199 -1032h82q38 0 46.5 -18.5t-3.5 -91.5q-13 -70 -30.5 -90.5 t-57.5 -20.5h-457q-38 0 -46.5 19zM666 78.5q-3 24.5 26 89.5q30 65 53.5 80.5t59.5 -0.5q101 -37 205 -37q106 0 165 62t87 206l149 774h-176q-38 0 -46.5 18.5t3.5 92.5q13 70 30.5 90.5t57.5 20.5h524q38 0 46.5 -18.5t-3.5 -92.5q-13 -70 -30.5 -90.5t-57.5 -20.5h-55 l-141 -737q-57 -297 -188.5 -419t-375.5 -122q-77 0 -157 17t-133 43q-40 19 -43 43.5z" />
<glyph unicode="&#x133;" horiz-adv-x="1361" d="M129 870q17 76 50 105t104 29h163q83 0 108 -26t11 -95l-121 -615q-5 -25 3.5 -34t39.5 -9h25q40 0 49 -19.5t-4 -92.5q-15 -70 -31.5 -91.5t-56.5 -21.5h-107q-118 0 -165 38t-47 120q0 31 8 78l96 499q4 24 -3 33.5t-28 9.5h-43q-39 0 -50.5 21t-0.5 71zM287 1292 q0 106 46.5 162.5t129.5 56.5h39q74 0 108.5 -31t34.5 -98q0 -102 -35.5 -149t-111.5 -47h-99q-60 0 -86 24.5t-26 81.5zM405 -415q-6 24 19 91q23 61 45 75.5t63 6.5q52 -10 97 -10q71 0 110.5 41t59.5 143l151 803q4 24 -2.5 33.5t-27.5 9.5h-43q-39 0 -51 21t-1 71 q17 76 50 105t104 29h164q83 0 108 -26t11 -95l-181 -934q-44 -233 -146.5 -332.5t-299.5 -99.5q-99 0 -184 30q-40 14 -46 38zM967 1292q0 106 46.5 162.5t129.5 56.5h39q74 0 108.5 -31t34.5 -98q0 -102 -35.5 -149t-111.5 -47h-99q-60 0 -86 24.5t-26 81.5z" />
<glyph unicode="&#x134;" horiz-adv-x="1048" d="M-71.5 79q-2.5 25 26.5 89q30 65 53.5 80.5t59.5 -0.5q101 -37 204 -37q106 0 165 62t87 206l150 774h-176q-38 0 -46.5 18.5t3.5 92.5q13 70 30.5 90.5t57.5 20.5h524q38 0 46.5 -18.5t-3.5 -92.5q-13 -70 -30.5 -90.5t-57.5 -20.5h-55l-142 -737q-58 -297 -188.5 -419 t-374.5 -122q-77 0 -157.5 17t-133.5 43q-40 19 -42.5 44zM315 1635q1 12 19 26l291 213q41 30 82.5 40.5t119.5 10.5h31q72 0 109.5 -11.5t66.5 -39.5l217 -211q52 -49 -58 -59q-24 -2 -56 -2q-95 0 -132 6t-55 22l-139 121l-178 -121q-24 -15 -65.5 -21.5t-137.5 -6.5 q-117 0 -115 33z" />
<glyph unicode="&#x135;" horiz-adv-x="679" d="M-277 -415q-6 24 19 91q23 61 45 75.5t63 6.5q52 -10 97 -10q71 0 110.5 41t59.5 143l151 803q4 24 -2.5 33.5t-27.5 9.5h-43q-39 0 -51 21t-1 71q17 76 50 105t104 29h164q83 0 108 -26t11 -95l-181 -934q-44 -233 -146.5 -332.5t-299.5 -99.5q-99 0 -184 30 q-40 14 -46 38zM-9 1148q1 9 11 19l219 226q35 36 79 50.5t132 14.5q91 0 128.5 -13t62.5 -52l141 -222q30 -47 -41 -57q-24 -4 -61 -4q-81 0 -117.5 10t-50.5 33l-86 133l-115 -133q-20 -23 -56.5 -33t-111.5 -10q-138 0 -134 38z" />
<glyph unicode="&#x136;" horiz-adv-x="1556" d="M-28.5 19q-8.5 19 3.5 92q13 69 30.5 89.5t57.5 20.5h87l198 1032h-80q-38 0 -46.5 18.5t3.5 92.5q13 70 30.5 90.5t57.5 20.5h437q38 0 46.5 -18.5t-3.5 -92.5q-13 -70 -30.5 -90.5t-57.5 -20.5h-66l-78 -405h209l356 405h-90q-38 0 -46.5 18.5t3.5 92.5 q13 70 30.5 90.5t57.5 20.5h502q38 0 46.5 -18.5t-3.5 -92.5q-13 -70 -30.5 -90.5t-57.5 -20.5h-86l-432 -479l268 -553h72q38 0 46.5 -18.5t-3.5 -91.5q-13 -69 -30.5 -90t-55.5 -21h-146q-70 0 -106 22.5t-66 88.5l-235 510h-246l-78 -400h92q38 0 46.5 -18.5t-3.5 -91.5 q-13 -70 -30.5 -90.5t-57.5 -20.5h-469q-38 0 -46.5 19zM558.5 -692.5q-8.5 12.5 2.5 37.5q63 122 101 245q-37 14 -53.5 35t-16.5 56q0 79 43 125.5t121 46.5h22q109 0 109 -101q0 -80 -43 -200.5t-113 -213.5q-30 -43 -78 -43h-61q-25 0 -33.5 12.5z" />
<glyph unicode="&#x137;" horiz-adv-x="1265" d="M123 61l215 1145q4 24 -3 33.5t-28 9.5h-43q-39 0 -50.5 21t-0.5 71q17 76 50 105t104 29h163q83 0 108 -26t11 -95l-133 -705h168l205 293q32 44 69 59t121 15q125 0 124 -39q-1 -15 -15 -35l-291 -420l115 -254q15 -32 33.5 -42.5t62.5 -10.5q40 0 49 -19.5t-4 -93.5 q-15 -70 -31.5 -91t-56.5 -21h-66q-103 0 -164 41.5t-104 148.5l-106 264h-148l-71 -383q-9 -46 -36.5 -59.5t-115.5 -13.5q-90 0 -114.5 15t-16.5 58zM474.5 -692.5q-8.5 12.5 2.5 37.5q63 122 101 245q-37 14 -53.5 35t-16.5 56q0 79 43 125.5t121 46.5h22q109 0 109 -101 q0 -80 -43 -200.5t-113 -213.5q-30 -43 -78 -43h-61q-25 0 -33.5 12.5z" />
<glyph unicode="&#x138;" horiz-adv-x="1271" d="M129 61l127 674q4 24 -4 33.5t-29 9.5h-43q-39 0 -50.5 21t-0.5 71q17 76 50 105t104 29h163q83 0 108 -26t11 -95l-43 -234h168l205 293q32 44 69 59t121 15q125 0 124 -39q-1 -15 -15 -35l-291 -420l115 -254q15 -32 33.5 -42.5t62.5 -10.5q40 0 49 -19.5t-4 -93.5 q-15 -70 -31.5 -91t-56.5 -21h-65q-104 0 -165 41.5t-104 148.5l-106 264h-148l-71 -383q-9 -46 -36.5 -59.5t-115.5 -13.5q-90 0 -114.5 15t-16.5 58z" />
<glyph unicode="&#x139;" horiz-adv-x="1384" d="M-28.5 19q-8.5 19 3.5 92q13 69 30.5 89.5t57.5 20.5h82l199 1032h-80q-38 0 -46.5 18.5t3.5 92.5q13 70 30.5 90.5t57.5 20.5h488q38 0 46.5 -18.5t-3.5 -92.5q-13 -70 -30.5 -90.5t-57.5 -20.5h-115l-199 -1032h539l24 141q8 48 37.5 65t112.5 17q79 0 103.5 -17 t15.5 -65l-47 -243q-14 -71 -44.5 -95t-111.5 -24h-1049q-38 0 -46.5 19zM346 1633q-5 15 16 32l269 205q77 61 241 61q104 0 123 -35q11 -19 -14 -36l-303 -207q-80 -54 -219 -54q-104 0 -113 34z" />
<glyph unicode="&#x13a;" horiz-adv-x="686" d="M123 158q0 31 8 78l180 970q4 24 -2.5 33.5t-27.5 9.5h-43q-39 0 -51 21t-1 71q17 76 50 105t104 29h164q83 0 108 -26t11 -95l-205 -1086q-5 -25 3.5 -34t39.5 -9h24q40 0 49 -19.5t-4 -92.5q-15 -70 -31.5 -91.5t-56.5 -21.5h-106q-117 0 -165 38.5t-48 119.5z M217 1603q1 8 10 17l213 238q27 30 74 45.5t145 15.5q135 0 130 -39q-1 -10 -13 -22l-250 -238q-56 -53 -188 -53q-127 0 -121 36z" />
<glyph unicode="&#x13b;" horiz-adv-x="1384" d="M-28.5 19q-8.5 19 3.5 92q13 69 30.5 89.5t57.5 20.5h82l199 1032h-80q-38 0 -46.5 18.5t3.5 92.5q13 70 30.5 90.5t57.5 20.5h488q38 0 46.5 -18.5t-3.5 -92.5q-13 -70 -30.5 -90.5t-57.5 -20.5h-115l-199 -1032h539l24 141q8 48 37.5 65t112.5 17q79 0 103.5 -17 t15.5 -65l-47 -243q-14 -71 -44.5 -95t-111.5 -24h-1049q-38 0 -46.5 19zM431.5 -692.5q-8.5 12.5 2.5 37.5q63 122 101 245q-37 14 -53.5 35t-16.5 56q0 79 43 125.5t121 46.5h22q109 0 109 -101q0 -80 -43 -200.5t-113 -213.5q-30 -43 -78 -43h-61q-25 0 -33.5 12.5z" />
<glyph unicode="&#x13c;" horiz-adv-x="686" d="M83.5 -692.5q-8.5 12.5 2.5 37.5q60 117 100 245q-37 14 -53 35t-16 56q0 79 43 125.5t121 46.5h22q109 0 109 -101q0 -80 -43 -200.5t-113 -213.5q-30 -43 -78 -43h-61q-25 0 -33.5 12.5zM123 158q0 31 8 78l180 970q4 24 -2.5 33.5t-27.5 9.5h-43q-39 0 -51 21t-1 71 q17 76 50 105t104 29h164q83 0 108 -26t11 -95l-205 -1086q-5 -25 3.5 -34t39.5 -9h24q40 0 49 -19.5t-4 -92.5q-15 -70 -31.5 -91.5t-56.5 -21.5h-106q-117 0 -165 38.5t-48 119.5z" />
<glyph unicode="&#x13d;" horiz-adv-x="1384" d="M-28.5 19q-8.5 19 3.5 92q13 69 30.5 89.5t57.5 20.5h82l199 1032h-80q-38 0 -46.5 18.5t3.5 92.5q13 70 30.5 90.5t57.5 20.5h488q38 0 46.5 -18.5t-3.5 -92.5q-13 -70 -30.5 -90.5t-57.5 -20.5h-115l-199 -1032h539l24 141q8 48 37.5 65t112.5 17q79 0 103.5 -17 t15.5 -65l-47 -243q-14 -71 -44.5 -95t-111.5 -24h-1049q-38 0 -46.5 19zM922 942q59 116 100 246q-37 14 -53.5 34.5t-16.5 55.5q0 79 43 125.5t121 46.5h23q53 0 80.5 -23.5t27.5 -76.5q0 -81 -42.5 -201t-112.5 -213q-30 -43 -78 -43h-62q-54 0 -30 49z" />
<glyph unicode="&#x13e;" horiz-adv-x="1056" d="M123 158q0 31 8 78l180 970q4 24 -2.5 33.5t-27.5 9.5h-43q-39 0 -51 21t-1 71q17 76 50 105t104 29h164q83 0 108 -26t11 -95l-205 -1086q-5 -25 3.5 -34t39.5 -9h24q40 0 49 -19.5t-4 -92.5q-15 -70 -31.5 -91.5t-56.5 -21.5h-106q-117 0 -165 38.5t-48 119.5zM715 965 q60 117 100 245q-37 14 -53.5 34.5t-16.5 55.5q0 79 43 126t121 47h23q108 0 108 -101q0 -81 -42.5 -201t-112.5 -213q-30 -43 -78 -43h-62q-54 0 -30 50z" />
<glyph unicode="&#x13f;" horiz-adv-x="1384" d="M-28.5 19q-8.5 19 3.5 92q13 69 30.5 89.5t57.5 20.5h82l199 1032h-80q-38 0 -46.5 18.5t3.5 92.5q13 70 30.5 90.5t57.5 20.5h488q38 0 46.5 -18.5t-3.5 -92.5q-13 -70 -30.5 -90.5t-57.5 -20.5h-115l-199 -1032h539l24 141q8 48 37.5 65t112.5 17q79 0 103.5 -17 t15.5 -65l-47 -243q-14 -71 -44.5 -95t-111.5 -24h-1049q-38 0 -46.5 19zM791 827q11 86 52.5 127t119.5 41h34q77 0 106.5 -34.5t20.5 -118.5q-10 -93 -44 -129.5t-105 -36.5h-84q-69 0 -90 32t-10 119z" />
<glyph unicode="&#x140;" horiz-adv-x="1060" d="M123 158q0 31 8 78l180 970q4 24 -2.5 33.5t-27.5 9.5h-43q-39 0 -51 21t-1 71q17 76 50 105t104 29h164q83 0 108 -26t11 -95l-205 -1086q-5 -25 3.5 -34t39.5 -9h24q40 0 49 -19.5t-4 -92.5q-15 -70 -31.5 -91.5t-56.5 -21.5h-106q-117 0 -165 38.5t-48 119.5zM721 815 q0 108 47 164.5t133 56.5h39q77 0 111 -31.5t34 -97.5q0 -105 -36 -152.5t-113 -47.5h-102q-60 0 -86.5 25t-26.5 83z" />
<glyph unicode="&#x141;" horiz-adv-x="1384" d="M-28.5 19q-8.5 19 3.5 92q13 69 30.5 89.5t57.5 20.5h82l62 326l-109 -35q-39 -13 -55.5 4.5t-22.5 85.5q-6 74 3.5 98.5t46.5 36.5l186 60l88 456h-80q-38 0 -46.5 18.5t3.5 92.5q13 70 30.5 90.5t57.5 20.5h488q38 0 46.5 -18.5t-3.5 -92.5q-13 -70 -30.5 -90.5 t-57.5 -20.5h-115l-68 -354l217 72q39 13 55 -3t25 -87q9 -69 -1 -95.5t-50 -40.5l-295 -96l-82 -428h539l24 141q8 48 37.5 65t112.5 17q79 0 103.5 -17t15.5 -65l-47 -243q-14 -71 -44.5 -95t-111.5 -24h-1049q-38 0 -46.5 19z" />
<glyph unicode="&#x142;" horiz-adv-x="684" d="M-12 662q-6 74 4 98t45 35l207 67l65 344q4 24 -2.5 33.5t-27.5 9.5h-43q-39 0 -51 21t-1 71q17 76 50 105t104 29h164q82 0 106.5 -25.5t12.5 -95.5l-74 -393l121 40q39 12 54.5 -4t25.5 -86q9 -66 -1.5 -94t-50.5 -41l-196 -65l-84 -443q-5 -25 3.5 -34t39.5 -9h24 q40 0 49 -19.5t-4 -92.5q-15 -70 -31.5 -91.5t-56.5 -21.5h-106q-117 0 -165 38.5t-48 119.5q0 31 8 78l70 376l-133 -43q-40 -14 -57 6t-21 87z" />
<glyph unicode="&#x143;" d="M-28.5 19q-8.5 19 3.5 92q13 69 30.5 89.5t57.5 20.5h80l201 1032h-76q-38 0 -46.5 18.5t3.5 92.5q13 70 30.5 90.5t57.5 20.5h396q68 0 100 -22t47 -75l238 -786q53 -177 69 -383h35l203 1044h-96q-38 0 -46.5 18.5t3.5 92.5q13 70 30.5 90.5t57.5 20.5h428 q38 0 46.5 -18.5t-3.5 -92.5q-13 -70 -30.5 -90.5t-57.5 -20.5h-76l-236 -1179q-9 -45 -38.5 -65.5t-92.5 -20.5h-192q-67 0 -103 22t-53 76l-248 819q-47 154 -57 357h-35l-205 -1041h105q38 0 46.5 -18.5t-3.5 -91.5q-13 -70 -30.5 -90.5t-57.5 -20.5h-439q-38 0 -46.5 19 zM874 1632q-3 17 17 33l268 205q77 61 242 61q105 0 123 -35q9 -19 -15 -36l-303 -207q-80 -54 -219 -54q-103 0 -113 33z" />
<glyph unicode="&#x144;" horiz-adv-x="1355" d="M127 61l133 674q8 43 -31 43h-45q-39 0 -50.5 21t-0.5 71q17 76 50 105t104 29h112q57 0 79 -21.5t20 -73.5l-2 -51h34q108 170 359 170q163 0 243 -77t80 -236q0 -81 -22 -191l-51 -256q-5 -25 3.5 -34t39.5 -9h24q40 0 49 -19.5t-4 -92.5q-15 -70 -31.5 -91.5 t-56.5 -21.5h-106q-119 0 -166 38t-47 120q0 31 8 78l51 262q23 121 23 168q0 137 -138 137q-111 0 -192.5 -95t-118.5 -290l-67 -357q-9 -46 -36.5 -59.5t-115.5 -13.5q-90 0 -114.5 15t-16.5 58zM582 1144q2 9 12 19l252 238q35 33 87.5 47t141.5 14q121 0 120 -36 q-1 -12 -17 -25l-287 -238q-62 -53 -195 -53q-121 0 -114 34z" />
<glyph unicode="&#x145;" d="M-28.5 19q-8.5 19 3.5 92q13 69 30.5 89.5t57.5 20.5h80l201 1032h-76q-38 0 -46.5 18.5t3.5 92.5q13 70 30.5 90.5t57.5 20.5h396q68 0 100 -22t47 -75l238 -786q53 -177 69 -383h35l203 1044h-96q-38 0 -46.5 18.5t3.5 92.5q13 70 30.5 90.5t57.5 20.5h428 q38 0 46.5 -18.5t-3.5 -92.5q-13 -70 -30.5 -90.5t-57.5 -20.5h-76l-236 -1179q-9 -45 -38.5 -65.5t-92.5 -20.5h-192q-67 0 -103 22t-53 76l-248 819q-47 154 -57 357h-35l-205 -1041h105q38 0 46.5 -18.5t-3.5 -91.5q-13 -70 -30.5 -90.5t-57.5 -20.5h-439q-38 0 -46.5 19 zM548.5 -692.5q-8.5 12.5 2.5 37.5q60 117 100 245q-37 14 -53 35t-16 56q0 79 42.5 125.5t120.5 46.5h23q109 0 109 -101q0 -80 -43 -200.5t-113 -213.5q-30 -43 -78 -43h-61q-25 0 -33.5 12.5z" />
<glyph unicode="&#x146;" horiz-adv-x="1355" d="M127 61l133 674q8 43 -31 43h-45q-39 0 -50.5 21t-0.5 71q17 76 50 105t104 29h112q57 0 79 -21.5t20 -73.5l-2 -51h34q108 170 359 170q163 0 243 -77t80 -236q0 -81 -22 -191l-51 -256q-5 -25 3.5 -34t39.5 -9h24q40 0 49 -19.5t-4 -92.5q-15 -70 -31.5 -91.5 t-56.5 -21.5h-106q-119 0 -166 38t-47 120q0 31 8 78l51 262q23 121 23 168q0 137 -138 137q-111 0 -192.5 -95t-118.5 -290l-67 -357q-9 -46 -36.5 -59.5t-115.5 -13.5q-90 0 -114.5 15t-16.5 58zM492 -655q60 117 100 245q-37 14 -53.5 35t-16.5 56q0 79 43 125.5 t121 46.5h23q108 0 108 -101q0 -81 -42.5 -201t-112.5 -213q-30 -43 -78 -43h-62q-54 0 -30 50z" />
<glyph unicode="&#x147;" d="M-28.5 19q-8.5 19 3.5 92q13 69 30.5 89.5t57.5 20.5h80l201 1032h-76q-38 0 -46.5 18.5t3.5 92.5q13 70 30.5 90.5t57.5 20.5h396q68 0 100 -22t47 -75l238 -786q53 -177 69 -383h35l203 1044h-96q-38 0 -46.5 18.5t3.5 92.5q13 70 30.5 90.5t57.5 20.5h428 q38 0 46.5 -18.5t-3.5 -92.5q-13 -70 -30.5 -90.5t-57.5 -20.5h-76l-236 -1179q-9 -45 -38.5 -65.5t-92.5 -20.5h-192q-67 0 -103 22t-53 76l-248 819q-47 154 -57 357h-35l-205 -1041h105q38 0 46.5 -18.5t-3.5 -91.5q-13 -70 -30.5 -90.5t-57.5 -20.5h-439q-38 0 -46.5 19 zM602 1862q-37 34 10 51q29 10 88 10q110 0 146.5 -6.5t58.5 -24.5l137 -123l177 123q26 18 67 24.5t144 6.5q110 0 111 -32q0 -13 -19 -27l-293 -213q-40 -29 -82 -40.5t-113 -11.5h-37q-122 0 -174 52z" />
<glyph unicode="&#x148;" horiz-adv-x="1355" d="M127 61l133 674q8 43 -31 43h-45q-39 0 -50.5 21t-0.5 71q17 76 50 105t104 29h112q57 0 79 -21.5t20 -73.5l-2 -51h34q108 170 359 170q163 0 243 -77t80 -236q0 -81 -22 -191l-51 -256q-5 -25 3.5 -34t39.5 -9h24q40 0 49 -19.5t-4 -92.5q-15 -70 -31.5 -91.5 t-56.5 -21.5h-106q-119 0 -166 38t-47 120q0 31 8 78l51 262q23 121 23 168q0 137 -138 137q-111 0 -192.5 -95t-118.5 -290l-67 -357q-9 -46 -36.5 -59.5t-115.5 -13.5q-90 0 -114.5 15t-16.5 58zM428 1395q-33 50 59 60l54 3q84 0 115.5 -9t45.5 -34l80 -137l125 137 q24 27 54.5 35t115.5 8q140 0 130 -39q-3 -10 -13 -20l-223 -223q-36 -36 -82.5 -51t-132.5 -15t-122 13.5t-63 52.5z" />
<glyph unicode="&#x149;" horiz-adv-x="1355" d="M-129 1112q59 116 100 246q-37 14 -53 34.5t-16 55.5q0 79 43 125.5t121 46.5h22q109 0 109 -100q0 -80 -43 -200.5t-113 -213.5q-30 -43 -78 -43h-61q-55 0 -31 49zM127 61l133 674q8 43 -31 43h-45q-39 0 -50.5 21t-0.5 71q17 76 50 105t104 29h112q57 0 79 -21.5 t20 -73.5l-2 -51h34q108 170 359 170q163 0 243 -77t80 -236q0 -81 -22 -191l-51 -256q-5 -25 3.5 -34t39.5 -9h24q40 0 49 -19.5t-4 -92.5q-15 -70 -31.5 -91.5t-56.5 -21.5h-106q-119 0 -166 38t-47 120q0 31 8 78l51 262q23 121 23 168q0 137 -138 137q-111 0 -192.5 -95 t-118.5 -290l-67 -357q-9 -46 -36.5 -59.5t-115.5 -13.5q-90 0 -114.5 15t-16.5 58z" />
<glyph unicode="&#x14a;" horiz-adv-x="1736" d="M-28.5 19q-8.5 19 3.5 92q13 69 30.5 89.5t57.5 20.5h80l201 1032h-76q-38 0 -46.5 18.5t3.5 92.5q13 70 30.5 90.5t57.5 20.5h396q68 0 100 -22t47 -75l238 -786q53 -177 69 -383h35l203 1044h-96q-38 0 -46.5 18.5t3.5 92.5q13 70 30.5 90.5t57.5 20.5h428 q38 0 46.5 -18.5t-3.5 -92.5q-13 -70 -30.5 -90.5t-57.5 -20.5h-76l-236 -1196q-60 -301 -181 -420.5t-361 -119.5q-78 0 -158.5 17t-132.5 42q-40 19 -43 43.5t26 89.5q30 65 53.5 80.5t59.5 -0.5q101 -37 205 -37q102 0 168 56.5t96 179.5h-55q-67 0 -103 22t-53 76 l-248 819q-47 154 -57 357h-35l-205 -1041h105q38 0 46.5 -18.5t-3.5 -91.5q-13 -70 -30.5 -90.5t-57.5 -20.5h-439q-38 0 -46.5 19z" />
<glyph unicode="&#x14b;" horiz-adv-x="1357" d="M127 61l133 674q8 43 -31 43h-45q-39 0 -50.5 21t-0.5 71q17 76 50 105t104 29h112q57 0 79 -21.5t20 -73.5l-2 -51h34q108 170 359 170q163 0 243 -77t80 -236q0 -81 -22 -191l-111 -575q-44 -233 -146.5 -332.5t-299.5 -99.5q-99 0 -184 30q-40 14 -46 38t19 91 q23 61 45 75.5t63 6.5q52 -10 97 -10q71 0 110.5 41t59.5 143l106 566q23 121 23 168q0 137 -138 137q-111 0 -192.5 -95t-118.5 -290l-67 -357q-9 -46 -36.5 -59.5t-115.5 -13.5q-90 0 -114.5 15t-16.5 58z" />
<glyph unicode="&#x14c;" horiz-adv-x="1628" d="M90 575q0 272 101.5 481t293.5 326t447 117q301 0 453.5 -145.5t152.5 -456.5q0 -274 -101 -482t-293 -324t-450 -116q-309 0 -456.5 144t-147.5 456zM391 590q0 -201 78.5 -293t259.5 -92q225 0 366.5 183.5t141.5 492.5q0 194 -80.5 291.5t-261.5 97.5 q-107 0 -199 -47.5t-160 -134t-106.5 -215.5t-38.5 -283zM640.5 1732q-8.5 18 2.5 93q13 67 30.5 87.5t57.5 20.5h617q39 0 47.5 -17.5t-2.5 -92.5q-13 -67 -31 -88t-57 -21h-617q-39 0 -47.5 18z" />
<glyph unicode="&#x14d;" horiz-adv-x="1206" d="M74 369q0 319 163.5 489t450.5 170q219 0 332 -103.5t113 -293.5q0 -312 -159.5 -484t-451.5 -172q-222 0 -335 104.5t-113 289.5zM360 391q0 -194 199 -194q131 0 209 111.5t78 299.5q0 199 -197 199q-132 0 -210.5 -111t-78.5 -305zM411.5 1205.5q-8.5 17.5 2.5 92.5 q13 67 31 88t57 21h491q39 0 47.5 -18t-2.5 -93q-13 -67 -30.5 -87.5t-57.5 -20.5h-491q-39 0 -47.5 17.5z" />
<glyph unicode="&#x14e;" horiz-adv-x="1628" d="M90 575q0 272 101.5 481t293.5 326t447 117q301 0 453.5 -145.5t152.5 -456.5q0 -274 -101 -482t-293 -324t-450 -116q-309 0 -456.5 144t-147.5 456zM391 590q0 -201 78.5 -293t259.5 -92q225 0 366.5 183.5t141.5 492.5q0 194 -80.5 291.5t-261.5 97.5 q-107 0 -199 -47.5t-160 -134t-106.5 -215.5t-38.5 -283zM621 1868q0 38 6 59q6 24 27.5 31.5t90.5 7.5q61 0 81 -9.5t18 -29.5q-2 -14 -2 -29q0 -36 34.5 -54.5t118.5 -18.5q95 0 142.5 26.5t58.5 81.5q3 20 22.5 26.5t84.5 6.5q75 0 95 -10t17 -37q-9 -67 -41 -115 q-52 -82 -156.5 -128t-250.5 -46q-179 0 -262.5 63.5t-83.5 174.5z" />
<glyph unicode="&#x14f;" horiz-adv-x="1206" d="M74 369q0 319 163.5 489t450.5 170q219 0 332 -103.5t113 -293.5q0 -312 -159.5 -484t-451.5 -172q-222 0 -335 104.5t-113 289.5zM360 391q0 -194 199 -194q131 0 209 111.5t78 299.5q0 199 -197 199q-132 0 -210.5 -111t-78.5 -305zM408 1395q0 41 22 55t94 14 q51 0 66.5 -9t13.5 -28v-24q0 -62 107 -62q112 0 127 78q6 29 24 37t80 8q65 0 83 -10t15 -39q-6 -44 -26 -90q-38 -84 -119.5 -130t-200.5 -46q-132 0 -202.5 52.5t-81.5 146.5q-2 14 -2 47z" />
<glyph unicode="&#x150;" horiz-adv-x="1628" d="M90 575q0 272 101.5 481t293.5 326t447 117q301 0 453.5 -145.5t152.5 -456.5q0 -274 -101 -482t-293 -324t-450 -116q-309 0 -456.5 144t-147.5 456zM391 590q0 -201 78.5 -293t259.5 -92q225 0 366.5 183.5t141.5 492.5q0 194 -80.5 291.5t-261.5 97.5 q-107 0 -199 -47.5t-160 -134t-106.5 -215.5t-38.5 -283zM459 1638q3 8 10 17l193 217q30 34 71.5 47.5t124.5 13.5q145 0 137 -42q-2 -12 -18 -27l-221 -209q-30 -30 -71.5 -41.5t-113.5 -11.5q-119 0 -112 36zM977 1636q0 9 10 19l203 217q31 32 74.5 46.5t124.5 14.5 q129 0 130 -41q0 -13 -16 -28l-229 -209q-31 -29 -71.5 -41t-112.5 -12q-114 0 -113 34z" />
<glyph unicode="&#x151;" horiz-adv-x="1206" d="M74 369q0 319 163.5 489t450.5 170q219 0 332 -103.5t113 -293.5q0 -312 -159.5 -484t-451.5 -172q-222 0 -335 104.5t-113 289.5zM223 1140q0 9 10 23l173 238q25 36 65 48.5t137 12.5q122 0 115 -39q-2 -11 -12 -22l-207 -238q-26 -29 -62.5 -41t-109.5 -12 q-109 0 -109 30zM360 391q0 -194 199 -194q131 0 209 111.5t78 299.5q0 199 -197 199q-132 0 -210.5 -111t-78.5 -305zM720 1141q0 10 9 22l174 238q25 34 69 47.5t138 13.5q112 0 112 -34q-1 -11 -14 -27l-207 -238q-28 -31 -63 -42t-102 -11q-117 0 -116 31z" />
<glyph unicode="&#x152;" horiz-adv-x="2420" d="M88 530q0 450 221 709.5t611 259.5q252 0 389 -113h10q12 32 22 46q25 43 142 43h831q78 0 100 -24.5t9 -94.5l-41 -217q-9 -51 -39.5 -67.5t-110.5 -16.5q-79 0 -100.5 16t-11.5 68l22 114h-571l-74 -391h313l7 35q9 51 34 66.5t109 15.5q79 0 99.5 -17t11.5 -63 l-60 -311q-9 -47 -36 -62.5t-107 -15.5q-79 0 -98.5 15t-10.5 67l8 43h-315l-80 -414h580l24 125q9 49 37.5 65.5t110.5 16.5q80 0 101.5 -15.5t12.5 -66.5l-43 -227q-14 -71 -45 -95t-110 -24h-856q-98 0 -117 31q-9 12 -12 28h-8q-161 -84 -365 -84q-288 0 -441 140.5 t-153 414.5zM389 571q0 -187 80.5 -275.5t249.5 -88.5q228 0 359.5 189t131.5 509q0 187 -80 276t-247 89q-228 0 -361 -188.5t-133 -510.5z" />
<glyph unicode="&#x153;" horiz-adv-x="1896" d="M74 367q0 321 162 491t448 170q129 0 214.5 -37t119.5 -104h31q118 141 372 141q205 0 309.5 -88.5t104.5 -224.5q0 -326 -496 -326h-247v-22q0 -166 268 -166q135 0 248 37q42 12 61.5 -2t38.5 -72q19 -61 11.5 -84t-46.5 -41q-64 -28 -168.5 -46t-212.5 -18 q-148 0 -234 33.5t-126 104.5h-33q-132 -138 -379 -138q-224 0 -335 103t-111 289zM362 391q0 -96 47.5 -145t149.5 -49q131 0 207 112t76 299q0 199 -195 199q-129 0 -207 -110.5t-78 -305.5zM1116 588h252q191 0 191 121q0 53 -43.5 82.5t-124.5 29.5q-105 0 -176 -61 t-99 -172z" />
<glyph unicode="&#x154;" horiz-adv-x="1499" d="M-28.5 19q-8.5 19 3.5 92q13 69 30.5 89.5t57.5 20.5h87l198 1032h-80q-38 0 -46.5 18.5t3.5 92.5q13 70 30.5 90.5t57.5 20.5h551q291 0 430.5 -104t139.5 -298q0 -177 -94 -300t-271 -177l143 -375h82q38 0 46.5 -18.5t-3.5 -91.5q-13 -70 -30.5 -90.5t-57.5 -20.5 h-135q-82 0 -124 29.5t-66 101.5l-142 424h-278l-64 -334h117q38 0 46.5 -18.5t-3.5 -91.5q-13 -70 -30.5 -90.5t-57.5 -20.5h-494q-38 0 -46.5 19zM549 780h227q181 0 269 70.5t88 200.5q0 100 -71 146t-241 46h-182zM618 1632q-3 17 17 33l268 205q77 61 242 61 q105 0 123 -35q9 -19 -15 -36l-303 -207q-80 -54 -219 -54q-103 0 -113 33z" />
<glyph unicode="&#x155;" horiz-adv-x="991" d="M127 61l133 674q8 43 -31 43h-45q-39 0 -50.5 21t-0.5 71q17 76 50 105t104 29h112q56 0 77.5 -21.5t19.5 -73.5l-2 -65h43q94 184 311 184q77 0 135 -22q33 -13 35.5 -44t-29.5 -108q-32 -71 -57.5 -88t-63.5 -6q-59 16 -106 16q-104 0 -178 -91.5t-107 -266.5l-67 -357 q-9 -46 -36.5 -59.5t-115.5 -13.5q-90 0 -114.5 15t-16.5 58zM346 1145q2 8 12 18l252 238q35 33 88 47t142 14q120 0 119 -35q-2 -13 -17 -26l-287 -238q-62 -53 -194 -53q-121 0 -115 35z" />
<glyph unicode="&#x156;" horiz-adv-x="1499" d="M-28.5 19q-8.5 19 3.5 92q13 69 30.5 89.5t57.5 20.5h87l198 1032h-80q-38 0 -46.5 18.5t3.5 92.5q13 70 30.5 90.5t57.5 20.5h551q291 0 430.5 -104t139.5 -298q0 -177 -94 -300t-271 -177l143 -375h82q38 0 46.5 -18.5t-3.5 -91.5q-13 -70 -30.5 -90.5t-57.5 -20.5 h-135q-82 0 -124 29.5t-66 101.5l-142 424h-278l-64 -334h117q38 0 46.5 -18.5t-3.5 -91.5q-13 -70 -30.5 -90.5t-57.5 -20.5h-494q-38 0 -46.5 19zM544.5 -692.5q-8.5 12.5 2.5 37.5q60 117 100 245q-37 14 -53 35t-16 56q0 79 42.5 125.5t120.5 46.5h23q108 0 108 -101 q0 -81 -42.5 -201t-112.5 -213q-30 -43 -78 -43h-61q-25 0 -33.5 12.5zM549 780h227q181 0 269 70.5t88 200.5q0 100 -71 146t-241 46h-182z" />
<glyph unicode="&#x157;" horiz-adv-x="991" d="M54.5 -692.5q-8.5 12.5 2.5 37.5q63 122 101 245q-37 14 -53.5 35t-16.5 56q0 79 43 125.5t121 46.5h22q109 0 109 -101q0 -80 -43 -200.5t-113 -213.5q-30 -43 -77 -43h-62q-25 0 -33.5 12.5zM127 61l133 674q8 43 -31 43h-45q-39 0 -50.5 21t-0.5 71q17 76 50 105 t104 29h112q56 0 77.5 -21.5t19.5 -73.5l-2 -65h43q94 184 311 184q77 0 135 -22q33 -13 35.5 -44t-29.5 -108q-32 -71 -57.5 -88t-63.5 -6q-59 16 -106 16q-104 0 -178 -91.5t-107 -266.5l-67 -357q-9 -46 -36.5 -59.5t-115.5 -13.5q-90 0 -114.5 15t-16.5 58z" />
<glyph unicode="&#x158;" horiz-adv-x="1499" d="M-28.5 19q-8.5 19 3.5 92q13 69 30.5 89.5t57.5 20.5h87l198 1032h-80q-38 0 -46.5 18.5t3.5 92.5q13 70 30.5 90.5t57.5 20.5h551q291 0 430.5 -104t139.5 -298q0 -177 -94 -300t-271 -177l143 -375h82q38 0 46.5 -18.5t-3.5 -91.5q-13 -70 -30.5 -90.5t-57.5 -20.5 h-135q-82 0 -124 29.5t-66 101.5l-142 424h-278l-64 -334h117q38 0 46.5 -18.5t-3.5 -91.5q-13 -70 -30.5 -90.5t-57.5 -20.5h-494q-38 0 -46.5 19zM446 1862q-36 34 10 50q29 11 89 11q110 0 146.5 -6.5t58.5 -24.5l137 -123l176 123q26 18 67 24.5t144 6.5q110 0 111 -32 q0 -13 -19 -27l-293 -213q-40 -30 -81.5 -41t-112.5 -11h-37q-122 0 -174 52zM549 780h227q181 0 269 70.5t88 200.5q0 100 -71 146t-241 46h-182z" />
<glyph unicode="&#x159;" horiz-adv-x="991" d="M127 61l133 674q8 43 -31 43h-45q-39 0 -50.5 21t-0.5 71q17 76 50 105t104 29h112q56 0 77.5 -21.5t19.5 -73.5l-2 -65h43q94 184 311 184q77 0 135 -22q33 -13 35.5 -44t-29.5 -108q-32 -71 -57.5 -88t-63.5 -6q-59 16 -106 16q-104 0 -178 -91.5t-107 -266.5l-67 -357 q-9 -46 -36.5 -59.5t-115.5 -13.5q-90 0 -114.5 15t-16.5 58zM252 1395q-33 50 59 60l54 3q84 0 115.5 -9t45.5 -34l80 -137l125 137q24 27 54.5 35t115.5 8q140 0 130 -39q-3 -10 -13 -20l-223 -223q-36 -36 -82.5 -51t-132.5 -15t-122 13.5t-63 52.5z" />
<glyph unicode="&#x15a;" horiz-adv-x="1456" d="M35 260l22 113q9 48 38.5 64t121.5 16q86 0 110.5 -17.5t14.5 -60.5l-31 -135q54 -15 147.5 -25t168.5 -10q379 0 379 244q0 51 -23.5 83.5t-89.5 57.5t-186 41l-95 12q-221 29 -315 115.5t-94 247.5q0 229 179.5 361t537.5 132q243 0 391 -55q76 -28 101 -76t7 -137 l-18 -90q-10 -49 -40 -63.5t-118 -14.5q-83 0 -107.5 14.5t-15.5 61.5l21 98q-126 37 -273 37q-186 0 -275 -60t-89 -163q0 -46 19.5 -72t75.5 -45t167 -35l76 -10q258 -35 363.5 -125t105.5 -272q0 -517 -752 -517q-227 0 -405 48q-81 22 -110.5 77.5t-8.5 159.5zM565 1632 q-3 17 17 33l268 205q77 61 242 61q105 0 123 -35q9 -19 -15 -36l-303 -207q-80 -54 -219 -54q-103 0 -113 33z" />
<glyph unicode="&#x15b;" horiz-adv-x="1144" d="M51 152l17 79q11 52 39 70t108 18q78 0 99.5 -13.5t15.5 -49.5l-13 -61q94 -25 224 -25q103 0 151.5 28t48.5 93q0 28 -12.5 43.5t-60.5 31.5t-148 33l-84 15q-151 26 -215.5 88.5t-64.5 173.5q0 168 127 260t389 92q168 0 305 -41q60 -19 82 -52.5t12 -90.5l-10 -56 q-9 -50 -36.5 -65.5t-106.5 -15.5q-81 0 -100.5 12t-14.5 51l6 45q-91 21 -176 21q-195 0 -195 -103q0 -30 12.5 -44.5t51 -27t129.5 -30.5l74 -15q175 -33 246 -95.5t71 -174.5q0 -188 -131.5 -279.5t-415.5 -91.5q-200 0 -332 37q-61 17 -82.5 50t-9.5 90zM394 1144 q2 9 12 19l251 238q35 33 88 47t142 14q120 0 119 -35q-2 -13 -17 -26l-287 -238q-62 -53 -194 -53q-121 0 -114 34z" />
<glyph unicode="&#x15c;" horiz-adv-x="1456" d="M35 260l22 113q9 48 38.5 64t121.5 16q86 0 110.5 -17.5t14.5 -60.5l-31 -135q54 -15 147.5 -25t168.5 -10q379 0 379 244q0 51 -23.5 83.5t-89.5 57.5t-186 41l-95 12q-221 29 -315 115.5t-94 247.5q0 229 179.5 361t537.5 132q243 0 391 -55q76 -28 101 -76t7 -137 l-18 -90q-10 -49 -40 -63.5t-118 -14.5q-83 0 -107.5 14.5t-15.5 61.5l21 98q-126 37 -273 37q-186 0 -275 -60t-89 -163q0 -46 19.5 -72t75.5 -45t167 -35l76 -10q258 -35 363.5 -125t105.5 -272q0 -517 -752 -517q-227 0 -405 48q-81 22 -110.5 77.5t-8.5 159.5zM378 1636 q1 11 19 25l291 213q41 30 83 40.5t120 10.5h31q72 0 109.5 -11.5t66.5 -39.5l217 -211q50 -48 -52 -58l-63 -3q-95 0 -131.5 6t-54.5 22l-140 121l-178 -121q-24 -15 -65 -21.5t-137 -6.5q-118 0 -116 34z" />
<glyph unicode="&#x15d;" horiz-adv-x="1144" d="M51 152l17 79q11 52 39 70t108 18q78 0 99.5 -13.5t15.5 -49.5l-13 -61q94 -25 224 -25q103 0 151.5 28t48.5 93q0 28 -12.5 43.5t-60.5 31.5t-148 33l-84 15q-151 26 -215.5 88.5t-64.5 173.5q0 168 127 260t389 92q168 0 305 -41q60 -19 82 -52.5t12 -90.5l-10 -56 q-9 -50 -36.5 -65.5t-106.5 -15.5q-81 0 -100.5 12t-14.5 51l6 45q-91 21 -176 21q-195 0 -195 -103q0 -30 12.5 -44.5t51 -27t129.5 -30.5l74 -15q175 -33 246 -95.5t71 -174.5q0 -188 -131.5 -279.5t-415.5 -91.5q-200 0 -332 37q-61 17 -82.5 50t-9.5 90zM263 1148 q1 9 11 19l220 226q35 36 79 50.5t132 14.5q91 0 128 -13t62 -52l141 -222q30 -47 -41 -57q-24 -4 -61 -4q-81 0 -117.5 10t-50.5 33l-86 133l-115 -133q-20 -23 -56.5 -33t-111.5 -10q-138 0 -134 38z" />
<glyph unicode="&#x15e;" horiz-adv-x="1456" d="M35 260l22 113q9 48 38.5 64t121.5 16q86 0 110.5 -17.5t14.5 -60.5l-31 -135q54 -15 147.5 -25t168.5 -10q379 0 379 244q0 51 -23.5 83.5t-89.5 57.5t-186 41l-95 12q-221 29 -315 115.5t-94 247.5q0 229 179.5 361t537.5 132q243 0 391 -55q76 -28 101 -76t7 -137 l-18 -90q-10 -49 -40 -63.5t-118 -14.5q-83 0 -107.5 14.5t-15.5 61.5l21 98q-126 37 -273 37q-186 0 -275 -60t-89 -163q0 -46 19.5 -72t75.5 -45t167 -35l76 -10q258 -35 363.5 -125t105.5 -272q0 -475 -639 -512l-13 -62q68 -9 106.5 -51t35.5 -103q-10 -208 -307 -208 q-103 0 -164 26q-21 8 -23.5 26.5t12.5 61.5q16 46 29 56.5t35 3.5q57 -17 102 -17q103 -3 103 49q0 27 -23.5 40.5t-89.5 13.5q-27 0 -35.5 7.5t-5.5 26.5l25 130q-172 9 -305 43q-81 22 -110.5 77.5t-8.5 159.5z" />
<glyph unicode="&#x15f;" horiz-adv-x="1144" d="M51 152l17 79q11 52 39 70t108 18q78 0 99.5 -13.5t15.5 -49.5l-13 -61q94 -25 224 -25q103 0 151.5 28t48.5 93q0 28 -12.5 43.5t-60.5 31.5t-148 33l-84 15q-151 26 -215.5 88.5t-64.5 173.5q0 168 127 260t389 92q168 0 305 -41q60 -19 82 -52.5t12 -90.5l-10 -56 q-9 -50 -36.5 -65.5t-106.5 -15.5q-81 0 -100.5 12t-14.5 51l6 45q-91 21 -176 21q-195 0 -195 -103q0 -30 12.5 -44.5t51 -27t129.5 -30.5l74 -15q175 -33 246 -95.5t71 -174.5q0 -172 -109 -262.5t-342 -103.5l-12 -62q68 -9 106 -51t35 -103q-10 -208 -307 -208 q-103 0 -164 26q-20 8 -22.5 26.5t12.5 61.5q16 46 29 56.5t35 3.5q57 -17 102 -17q102 -3 102 49q0 27 -23 40.5t-89 13.5q-27 0 -35.5 7.5t-5.5 26.5l24 130q-125 9 -215 32q-61 17 -82.5 50t-9.5 90z" />
<glyph unicode="&#x160;" horiz-adv-x="1456" d="M35 260l22 113q9 48 38.5 64t121.5 16q86 0 110.5 -17.5t14.5 -60.5l-31 -135q54 -15 147.5 -25t168.5 -10q379 0 379 244q0 51 -23.5 83.5t-89.5 57.5t-186 41l-95 12q-221 29 -315 115.5t-94 247.5q0 229 179.5 361t537.5 132q243 0 391 -55q76 -28 101 -76t7 -137 l-18 -90q-10 -49 -40 -63.5t-118 -14.5q-83 0 -107.5 14.5t-15.5 61.5l21 98q-126 37 -273 37q-186 0 -275 -60t-89 -163q0 -46 19.5 -72t75.5 -45t167 -35l76 -10q258 -35 363.5 -125t105.5 -272q0 -517 -752 -517q-227 0 -405 48q-81 22 -110.5 77.5t-8.5 159.5zM487 1862 q-36 34 10 50q29 11 89 11q110 0 146.5 -6.5t58.5 -24.5l137 -123l176 123q26 18 67 24.5t144 6.5q110 0 111 -32q0 -13 -19 -27l-293 -213q-40 -30 -81.5 -41t-112.5 -11h-37q-122 0 -174 52z" />
<glyph unicode="&#x161;" horiz-adv-x="1165" d="M51 152l17 79q11 52 39 70t108 18q78 0 99.5 -13.5t15.5 -49.5l-13 -61q94 -25 224 -25q103 0 151.5 28t48.5 93q0 28 -12.5 43.5t-60.5 31.5t-148 33l-84 15q-151 26 -215.5 88.5t-64.5 173.5q0 168 127 260t389 92q168 0 305 -41q60 -19 82 -52.5t12 -90.5l-10 -56 q-9 -50 -36.5 -65.5t-106.5 -15.5q-81 0 -100.5 12t-14.5 51l6 45q-91 21 -176 21q-195 0 -195 -103q0 -30 12.5 -44.5t51 -27t129.5 -30.5l74 -15q175 -33 246 -95.5t71 -174.5q0 -188 -131.5 -279.5t-415.5 -91.5q-200 0 -332 37q-61 17 -82.5 50t-9.5 90zM315 1395 q-33 50 59 60l54 3q84 0 116 -9.5t46 -33.5l80 -137l125 137q24 27 54.5 35t115.5 8q139 0 129 -39q-2 -9 -13 -20l-223 -223q-36 -36 -82.5 -51t-132.5 -15t-121.5 13.5t-62.5 52.5z" />
<glyph unicode="&#x162;" horiz-adv-x="1521" d="M127 1137l43 219q14 71 44.5 95t109.5 24h1165q79 0 100.5 -24t7.5 -95l-41 -219q-9 -48 -40 -65t-113 -17q-81 0 -104 16.5t-15 65.5l21 116h-293l-201 -1032h152q38 0 46.5 -18.5t-3.5 -91.5q-13 -70 -30.5 -90.5t-57.5 -20.5h-596q-38 0 -46.5 19t3.5 92 q13 69 30.5 89.5t57.5 20.5h151l201 1032h-295l-25 -116q-11 -48 -40.5 -65t-110.5 -17q-84 0 -106.5 18t-14.5 64zM419.5 -692.5q-8.5 12.5 2.5 37.5q60 117 100 245q-37 14 -53 35t-16 56q0 79 42.5 125.5t120.5 46.5h23q109 0 109 -101q0 -80 -43 -200.5t-113 -213.5 q-30 -43 -78 -43h-61q-25 0 -33.5 12.5z" />
<glyph unicode="&#x163;" horiz-adv-x="913" d="M86 802.5q-8 18.5 6 90.5q15 71 32 91t58 20h121l45 229q9 51 38 67.5t120 16.5q86 0 109 -18t14 -66l-45 -229h260q42 0 51 -19t-4 -92q-15 -71 -31 -90t-61 -19h-258l-86 -432q-6 -35 -6 -57q0 -43 24.5 -62.5t79.5 -19.5q62 0 123 14q42 9 61 -7.5t31 -78.5t2 -86 t-51 -39q-109 -41 -258 -41q-159 0 -230 58t-71 174q0 56 14 131l86 446h-123q-43 0 -51 18.5zM214.5 -692.5q-8.5 12.5 2.5 37.5q60 117 100 245q-37 14 -53 35t-16 56q0 79 43 125.5t121 46.5h22q109 0 109 -101q0 -80 -43 -200.5t-113 -213.5q-30 -43 -78 -43h-61 q-25 0 -33.5 12.5z" />
<glyph unicode="&#x164;" horiz-adv-x="1521" d="M127 1137l43 219q14 71 44.5 95t109.5 24h1165q79 0 100.5 -24t7.5 -95l-41 -219q-9 -48 -40 -65t-113 -17q-81 0 -104 16.5t-15 65.5l21 116h-293l-201 -1032h152q38 0 46.5 -18.5t-3.5 -91.5q-13 -70 -30.5 -90.5t-57.5 -20.5h-596q-38 0 -46.5 19t3.5 92 q13 69 30.5 89.5t57.5 20.5h151l201 1032h-295l-25 -116q-11 -48 -40.5 -65t-110.5 -17q-84 0 -106.5 18t-14.5 64zM479 1862q-36 34 10 50q29 11 89 11q110 0 146 -6t58 -25l138 -123l176 123q26 18 67 24.5t144 6.5q110 0 111 -32q0 -13 -19 -27l-293 -213 q-40 -29 -82 -40.5t-113 -11.5h-37q-122 0 -174 52z" />
<glyph unicode="&#x165;" horiz-adv-x="913" d="M86 802.5q-8 18.5 6 90.5q15 71 32 91t58 20h121l45 229q9 51 38 67.5t120 16.5q86 0 109 -18t14 -66l-45 -229h260q42 0 51 -19t-4 -92q-15 -71 -31 -90t-61 -19h-258l-86 -432q-6 -35 -6 -57q0 -43 24.5 -62.5t79.5 -19.5q62 0 123 14q42 9 61 -7.5t31 -78.5t2 -86 t-51 -39q-109 -41 -258 -41q-159 0 -230 58t-71 174q0 56 14 131l86 446h-123q-43 0 -51 18.5zM738.5 1136.5q-8.5 12.5 2.5 37.5q63 122 101 245q-37 14 -53.5 34.5t-16.5 55.5q0 79 43 125.5t121 46.5h22q109 0 109 -100q0 -80 -43 -200.5t-113 -213.5q-30 -43 -77 -43 h-62q-25 0 -33.5 12.5z" />
<glyph unicode="&#x166;" horiz-adv-x="1521" d="M127 1137l43 219q14 71 44.5 95t109.5 24h1165q79 0 100.5 -24t7.5 -95l-41 -219q-9 -48 -40 -65t-113 -17q-81 0 -104 16.5t-15 65.5l21 116h-293l-78 -393h233q40 0 48 -14.5t-3 -89.5q-13 -66 -30.5 -84.5t-57.5 -18.5h-229l-84 -432h152q38 0 46.5 -18.5t-3.5 -91.5 q-13 -70 -30.5 -90.5t-57.5 -20.5h-596q-38 0 -46.5 19t3.5 92q13 69 30.5 89.5t57.5 20.5h151l84 432h-229q-40 0 -48 15t3 90q13 66 30 84t58 18h225l78 393h-295l-25 -116q-11 -48 -40.5 -65t-110.5 -17q-84 0 -106.5 18t-14.5 64z" />
<glyph unicode="&#x167;" horiz-adv-x="913" d="M50.5 435.5q-8.5 15.5 2.5 90.5q13 67 30.5 87t57.5 20h88l31 151h-123q-43 0 -51 18.5t6 90.5q15 71 32 91t58 20h121l45 229q9 51 38 67.5t120 16.5q86 0 109 -18t14 -66l-45 -229h260q42 0 51 -19t-4 -92q-15 -71 -31 -90t-61 -19h-258l-31 -151h129q39 0 47.5 -17 t-2.5 -92q-13 -66 -30.5 -85t-57.5 -19h-129l-12 -68q-15 -78 6.5 -108.5t91.5 -30.5q62 0 123 14q42 9 61 -7.5t31 -78.5t2 -86t-51 -39q-109 -41 -258 -41q-159 0 -230 58t-71 174q0 56 14 131l14 82h-90q-39 0 -47.5 15.5z" />
<glyph unicode="&#x168;" horiz-adv-x="1613" d="M147 408q0 79 19 172l131 673h-68q-38 0 -46.5 18.5t3.5 92.5q13 70 30.5 90.5t57.5 20.5h474q38 0 46.5 -18.5t-3.5 -92.5q-13 -69 -31 -90t-58 -21h-112l-131 -671q-13 -66 -13 -136q0 -120 67 -180.5t214 -60.5q178 0 278 93.5t138 281.5l131 673h-107 q-38 0 -46.5 18.5t3.5 92.5q13 70 30.5 90.5t57.5 20.5h441q38 0 46.5 -18.5t-3.5 -92.5q-13 -70 -30.5 -90.5t-57.5 -20.5h-62l-131 -671q-61 -312 -245 -459.5t-502 -147.5q-259 0 -390 112.5t-131 320.5zM511 1768.5q-10 20.5 1 37.5q48 94 124.5 145.5t172.5 51.5 q50 0 101.5 -20.5t87 -45t76.5 -45t71 -20.5q31 0 53 15.5t53 58.5q10 20 36.5 19t76.5 -28q47 -26 59.5 -46t1.5 -48q-38 -99 -114.5 -151t-165.5 -52q-47 0 -98.5 20t-87.5 43.5t-78 43.5t-74 20q-81 0 -135 -75q-9 -13 -20 -16t-33 6t-56 34q-42 32 -52 52.5z" />
<glyph unicode="&#x169;" horiz-adv-x="1382" d="M121 870q17 77 50 105.5t103 28.5h166q82 0 106.5 -25.5t10.5 -95.5l-76 -385q-20 -98 -20 -164q0 -133 135 -133q238 0 313 395l66 344q9 49 36 62.5t113 13.5q90 0 114.5 -16t16.5 -60l-131 -670q-4 -26 5 -35.5t38 -9.5h27q40 0 49 -19.5t-4 -92.5 q-15 -70 -31.5 -91.5t-56.5 -21.5h-94q-90 0 -129 33.5t-41 105.5h-35q-110 -164 -356 -164q-169 0 -245.5 79.5t-76.5 232.5q0 77 21 184l53 264q8 43 -31 43h-45q-39 0 -50.5 21t-0.5 71zM352.5 1285q-10.5 22 3.5 42q50 87 116 126.5t155 39.5q48 0 94 -18.5t76 -41 t65.5 -41t63.5 -18.5q31 0 50 12.5t48 53.5q10 20 34.5 19t71.5 -27q47 -27 59.5 -45.5t2.5 -43.5q-72 -184 -260 -184q-45 0 -90 18.5t-75.5 40t-67 40t-66.5 18.5q-66 0 -121 -70q-14 -19 -37.5 -14.5t-66.5 37.5q-45 34 -55.5 56z" />
<glyph unicode="&#x16a;" horiz-adv-x="1613" d="M147 408q0 79 19 172l131 673h-68q-38 0 -46.5 18.5t3.5 92.5q13 70 30.5 90.5t57.5 20.5h474q38 0 46.5 -18.5t-3.5 -92.5q-13 -69 -31 -90t-58 -21h-112l-131 -671q-13 -66 -13 -136q0 -120 67 -180.5t214 -60.5q178 0 278 93.5t138 281.5l131 673h-107 q-38 0 -46.5 18.5t3.5 92.5q13 70 30.5 90.5t57.5 20.5h441q38 0 46.5 -18.5t-3.5 -92.5q-13 -70 -30.5 -90.5t-57.5 -20.5h-62l-131 -671q-61 -312 -245 -459.5t-502 -147.5q-259 0 -390 112.5t-131 320.5zM620.5 1732q-8.5 18 2.5 93q13 67 30.5 87.5t57.5 20.5h616 q39 0 47.5 -17.5t-2.5 -92.5q-13 -67 -31 -88t-57 -21h-616q-39 0 -47.5 18z" />
<glyph unicode="&#x16b;" horiz-adv-x="1382" d="M121 870q17 77 50 105.5t103 28.5h166q82 0 106.5 -25.5t10.5 -95.5l-76 -385q-20 -98 -20 -164q0 -133 135 -133q238 0 313 395l66 344q9 49 36 62.5t113 13.5q90 0 114.5 -16t16.5 -60l-131 -670q-4 -26 5 -35.5t38 -9.5h27q40 0 49 -19.5t-4 -92.5 q-15 -70 -31.5 -91.5t-56.5 -21.5h-94q-90 0 -129 33.5t-41 105.5h-35q-110 -164 -356 -164q-169 0 -245.5 79.5t-76.5 232.5q0 77 21 184l53 264q8 43 -31 43h-45q-39 0 -50.5 21t-0.5 71zM470.5 1205.5q-8.5 17.5 2.5 92.5q13 67 31 88t57 21h492q39 0 47.5 -18t-2.5 -93 q-13 -67 -30.5 -87.5t-57.5 -20.5h-492q-39 0 -47.5 17.5z" />
<glyph unicode="&#x16c;" horiz-adv-x="1613" d="M147 408q0 79 19 172l131 673h-68q-38 0 -46.5 18.5t3.5 92.5q13 70 30.5 90.5t57.5 20.5h474q38 0 46.5 -18.5t-3.5 -92.5q-13 -69 -31 -90t-58 -21h-112l-131 -671q-13 -66 -13 -136q0 -120 67 -180.5t214 -60.5q178 0 278 93.5t138 281.5l131 673h-107 q-38 0 -46.5 18.5t3.5 92.5q13 70 30.5 90.5t57.5 20.5h441q38 0 46.5 -18.5t-3.5 -92.5q-13 -70 -30.5 -90.5t-57.5 -20.5h-62l-131 -671q-61 -312 -245 -459.5t-502 -147.5q-259 0 -390 112.5t-131 320.5zM629 1868q0 38 6 59q6 24 28 31.5t91 7.5q61 0 80.5 -9.5 t17.5 -29.5q-2 -14 -2 -29q0 -36 35 -54.5t119 -18.5q95 0 142 26.5t58 81.5q3 20 22.5 26.5t84.5 6.5q75 0 95 -10t17 -37q-9 -67 -41 -115q-52 -82 -156.5 -128t-250.5 -46q-179 0 -262.5 63.5t-83.5 174.5z" />
<glyph unicode="&#x16d;" horiz-adv-x="1382" d="M121 870q17 77 50 105.5t103 28.5h166q82 0 106.5 -25.5t10.5 -95.5l-76 -385q-20 -98 -20 -164q0 -133 135 -133q238 0 313 395l66 344q9 49 36 62.5t113 13.5q90 0 114.5 -16t16.5 -60l-131 -670q-4 -26 5 -35.5t38 -9.5h27q40 0 49 -19.5t-4 -92.5 q-15 -70 -31.5 -91.5t-56.5 -21.5h-94q-90 0 -129 33.5t-41 105.5h-35q-110 -164 -356 -164q-169 0 -245.5 79.5t-76.5 232.5q0 77 21 184l53 264q8 43 -31 43h-45q-39 0 -50.5 21t-0.5 71zM475 1395q0 41 22.5 55t94.5 14q51 0 66.5 -9t13.5 -28v-24q0 -31 24 -46.5 t82 -15.5q112 0 127 78q6 29 24.5 37t80.5 8q65 0 83 -10t15 -39q-5 -41 -27 -90q-38 -84 -119 -130t-200 -46q-132 0 -203 52.5t-82 146.5q-2 14 -2 47z" />
<glyph unicode="&#x16e;" horiz-adv-x="1613" d="M147 408q0 79 19 172l131 673h-68q-38 0 -46.5 18.5t3.5 92.5q13 70 30.5 90.5t57.5 20.5h474q38 0 46.5 -18.5t-3.5 -92.5q-13 -69 -31 -90t-58 -21h-112l-131 -671q-13 -66 -13 -136q0 -120 67 -180.5t214 -60.5q178 0 278 93.5t138 281.5l131 673h-107 q-38 0 -46.5 18.5t3.5 92.5q13 70 30.5 90.5t57.5 20.5h441q38 0 46.5 -18.5t-3.5 -92.5q-13 -70 -30.5 -90.5t-57.5 -20.5h-62l-131 -671q-61 -312 -245 -459.5t-502 -147.5q-259 0 -390 112.5t-131 320.5zM723 1837q20 125 106 194.5t215 69.5q126 0 185.5 -64.5 t40.5 -181.5q-20 -135 -102 -203.5t-214 -68.5q-127 0 -189.5 62t-41.5 192zM870 1837q-10 -66 19 -97.5t88 -31.5q119 0 143 141q9 62 -17 93.5t-81 31.5q-61 0 -102 -36.5t-50 -100.5z" />
<glyph unicode="&#x16f;" horiz-adv-x="1382" d="M121 870q17 77 50 105.5t103 28.5h166q82 0 106.5 -25.5t10.5 -95.5l-76 -385q-20 -98 -20 -164q0 -133 135 -133q238 0 313 395l66 344q9 49 36 62.5t113 13.5q90 0 114.5 -16t16.5 -60l-131 -670q-4 -26 5 -35.5t38 -9.5h27q40 0 49 -19.5t-4 -92.5 q-15 -70 -31.5 -91.5t-56.5 -21.5h-94q-90 0 -129 33.5t-41 105.5h-35q-110 -164 -356 -164q-169 0 -245.5 79.5t-76.5 232.5q0 77 21 184l53 264q8 43 -31 43h-45q-39 0 -50.5 21t-0.5 71zM526 1372q20 124 104.5 193t211.5 69q124 0 183.5 -66t41.5 -177 q-21 -133 -102.5 -202t-210.5 -69q-132 0 -190 65t-38 187zM672 1372q-10 -62 17.5 -95.5t86.5 -33.5q58 0 96 36t48 107q10 60 -18 92.5t-85 32.5q-55 0 -94 -35.5t-51 -103.5z" />
<glyph unicode="&#x170;" horiz-adv-x="1613" d="M147 408q0 79 19 172l131 673h-68q-38 0 -46.5 18.5t3.5 92.5q13 70 30.5 90.5t57.5 20.5h474q38 0 46.5 -18.5t-3.5 -92.5q-13 -69 -31 -90t-58 -21h-112l-131 -671q-13 -66 -13 -136q0 -120 67 -180.5t214 -60.5q178 0 278 93.5t138 281.5l131 673h-107 q-38 0 -46.5 18.5t3.5 92.5q13 70 30.5 90.5t57.5 20.5h441q38 0 46.5 -18.5t-3.5 -92.5q-13 -70 -30.5 -90.5t-57.5 -20.5h-62l-131 -671q-61 -312 -245 -459.5t-502 -147.5q-259 0 -390 112.5t-131 320.5zM502 1638q3 8 10 17l193 217q30 34 71.5 47.5t124.5 13.5 q145 0 137 -42q-2 -12 -18 -27l-221 -209q-30 -30 -71.5 -41.5t-113.5 -11.5q-119 0 -112 36zM1020 1636q0 9 10 19l203 217q31 32 74.5 46.5t124.5 14.5q129 0 130 -41q0 -13 -16 -28l-229 -209q-31 -29 -71.5 -41t-112.5 -12q-114 0 -113 34z" />
<glyph unicode="&#x171;" horiz-adv-x="1382" d="M121 870q17 77 50 105.5t103 28.5h166q82 0 106.5 -25.5t10.5 -95.5l-76 -385q-20 -98 -20 -164q0 -133 135 -133q238 0 313 395l66 344q9 49 36 62.5t113 13.5q90 0 114.5 -16t16.5 -60l-131 -670q-4 -26 5 -35.5t38 -9.5h27q40 0 49 -19.5t-4 -92.5 q-15 -70 -31.5 -91.5t-56.5 -21.5h-94q-90 0 -129 33.5t-41 105.5h-35q-110 -164 -356 -164q-169 0 -245.5 79.5t-76.5 232.5q0 77 21 184l53 264q8 43 -31 43h-45q-39 0 -50.5 21t-0.5 71zM303 1140q0 9 10 23l172 238q25 36 65.5 48.5t137.5 12.5q122 0 115 -39 q-2 -11 -12 -22l-207 -238q-26 -29 -62.5 -41t-109.5 -12q-109 0 -109 30zM799 1141q1 10 10 22l174 238q25 34 69 47.5t138 13.5q112 0 112 -34q-1 -11 -14 -27l-207 -238q-27 -30 -63 -41.5t-103 -11.5q-116 0 -116 31z" />
<glyph unicode="&#x172;" horiz-adv-x="1613" d="M147 408q0 79 19 172l131 673h-68q-38 0 -46.5 18.5t3.5 92.5q13 70 30.5 90.5t57.5 20.5h474q38 0 46.5 -18.5t-3.5 -92.5q-13 -69 -31 -90t-58 -21h-112l-131 -671q-13 -66 -13 -136q0 -120 67 -180.5t214 -60.5q178 0 278 93.5t138 281.5l131 673h-107 q-38 0 -46.5 18.5t3.5 92.5q13 70 30.5 90.5t57.5 20.5h441q38 0 46.5 -18.5t-3.5 -92.5q-13 -70 -30.5 -90.5t-57.5 -20.5h-62l-131 -671q-51 -255 -180.5 -399t-345.5 -187q-108 -62 -164 -126.5t-53 -111.5q2 -21 14.5 -29t44.5 -8q14 0 66 9q20 3 27.5 -8t15.5 -54 q13 -75 -29 -94q-62 -27 -158 -27q-200 0 -200 158q0 73 45 145.5t123 126.5q-235 9 -354.5 121t-119.5 310z" />
<glyph unicode="&#x173;" horiz-adv-x="1382" d="M121 870q17 77 50 105.5t103 28.5h166q82 0 106.5 -25.5t10.5 -95.5l-76 -385q-20 -98 -20 -164q0 -133 135 -133q238 0 313 395l66 344q9 49 36 62.5t113 13.5q90 0 114.5 -16t16.5 -60l-131 -670q-4 -26 5 -35.5t38 -9.5h25q40 0 49 -20t-4 -92q-12 -56 -22 -76 t-33 -33q-119 -71 -176 -136t-54 -110q2 -20 15 -28.5t45 -8.5q13 0 65 9q20 3 27.5 -8t15.5 -54q13 -76 -28 -94q-62 -27 -158 -27q-201 0 -201 158q0 81 64.5 167.5t169.5 137.5v2q-77 25 -80 127h-35q-110 -164 -356 -164q-169 0 -245.5 79.5t-76.5 232.5q0 77 21 184 l53 264q8 43 -31 43h-45q-39 0 -50.5 21t-0.5 71z" />
<glyph unicode="&#x174;" horiz-adv-x="2357" d="M152.5 1271.5q-8.5 18.5 3.5 92.5q13 70 30.5 90.5t57.5 20.5h497q38 0 46.5 -18.5t-3.5 -92.5q-13 -70 -30.5 -90.5t-57.5 -20.5h-129l43 -721q8 -139 4 -333h35q49 169 119 333l287 695q27 64 63.5 87t118.5 23h168q79 0 110.5 -22.5t32.5 -89.5l15 -693 q3 -150 -7 -333h35q42 137 127 333l316 721h-140q-38 0 -46.5 18.5t3.5 92.5q13 70 30.5 90.5t57.5 20.5h490q38 0 46.5 -18.5t-3.5 -92.5q-13 -70 -30.5 -90.5t-57.5 -20.5h-78l-510 -1153q-30 -66 -69.5 -89t-114.5 -23h-176q-80 0 -111 23.5t-31 86.5l-2 721 q0 163 11 303h-35q-52 -170 -107 -305l-289 -717q-25 -63 -64 -87.5t-118 -24.5h-205q-77 0 -107.5 23.5t-33.5 86.5l-68 1155h-77q-38 0 -46.5 18.5zM868 1635q1 12 19 26l291 213q41 30 82.5 40.5t119.5 10.5h31q72 0 109.5 -11.5t66.5 -39.5l217 -211q52 -49 -58 -59 q-24 -2 -56 -2q-95 0 -132 6t-55 22l-139 121l-178 -121q-24 -15 -65.5 -21.5t-137.5 -6.5q-117 0 -115 33z" />
<glyph unicode="&#x175;" horiz-adv-x="1757" d="M41.5 798q-8.5 20 3.5 93q13 71 30 92t58 21h111q103 0 151 -35.5t54 -124.5l28 -408q10 -133 2 -241h35q18 105 66 239l174 477q23 61 59 83t111 22h135q80 0 108.5 -23t30.5 -82l16 -479q3 -138 -4 -237h33q37 132 80 243l199 514q15 39 44 51.5t113 12.5 q78 0 97.5 -14t5.5 -50l-346 -862q-23 -57 -64 -79.5t-115 -22.5h-143q-74 0 -105 20.5t-32 81.5l-8 545q0 121 6 174h-33q-17 -81 -49 -172l-188 -545q-20 -59 -58.5 -81.5t-120.5 -22.5h-149q-72 0 -101.5 21t-33.5 81l-54 635q-3 30 -19.5 41.5t-51.5 11.5h-27 q-40 0 -48.5 20zM605 1148q1 9 11 19l220 226q35 36 79 50.5t132 14.5q91 0 128 -13t62 -52l141 -222q30 -47 -41 -57q-24 -4 -61 -4q-81 0 -117.5 10t-50.5 33l-86 133l-115 -133q-20 -23 -56.5 -33t-111.5 -10q-138 0 -134 38z" />
<glyph unicode="&#x176;" horiz-adv-x="1558" d="M148.5 1271.5q-8.5 18.5 3.5 92.5q13 70 30.5 90.5t57.5 20.5h499q38 0 46.5 -18.5t-3.5 -92.5q-13 -70 -30.5 -90.5t-57.5 -20.5h-127l148 -338q42 -92 51 -194h37q51 105 127 194l287 338h-127q-38 0 -46.5 18.5t3.5 92.5q13 70 30.5 90.5t57.5 20.5h491 q38 0 46.5 -18.5t-3.5 -92.5q-13 -70 -30.5 -90.5t-57.5 -20.5h-53l-643 -745l-54 -287h150q38 0 46.5 -18.5t-3.5 -91.5q-13 -70 -30.5 -90.5t-57.5 -20.5h-596q-38 0 -46.5 19t3.5 92q13 69 30.5 89.5t57.5 20.5h154l53 285l-334 747h-63q-38 0 -46.5 18.5zM485 1635 q1 12 19 26l291 213q41 30 82.5 40.5t119.5 10.5h31q72 0 109.5 -11.5t66.5 -39.5l217 -211q52 -49 -58 -59q-24 -2 -56 -2q-95 0 -132 6t-55 22l-139 121l-178 -121q-24 -15 -65.5 -21.5t-137.5 -6.5q-117 0 -115 33z" />
<glyph unicode="&#x177;" horiz-adv-x="1124" d="M-89 -409q-5 26 23 94q24 60 46 74t65 3q78 -20 133 -20q91 0 144 42t98 144l26 60q-66 0 -95 19.5t-38 70.5l-125 649q-6 30 -21 40.5t-50 10.5h-27q-40 0 -48.5 20t3.5 93q13 71 30 92t58 21h111q100 0 146 -35.5t61 -124.5l77 -434q20 -126 23 -226h35q27 116 71 226 l209 534q17 43 50 56.5t126 13.5q82 0 105 -14.5t4 -55.5l-418 -971q-60 -139 -118.5 -228t-127 -139.5t-141.5 -69.5t-172 -19q-113 0 -217 34q-41 14 -46 40zM278 1148q1 9 11 19l219 226q35 36 79 50.5t132 14.5q91 0 128 -13t62 -52l142 -222q31 -48 -44 -58 q-24 -3 -59 -3q-81 0 -117.5 10t-50.5 33l-86 133l-114 -133q-20 -23 -56.5 -33t-111.5 -10q-138 0 -134 38z" />
<glyph unicode="&#x178;" horiz-adv-x="1558" d="M148.5 1271.5q-8.5 18.5 3.5 92.5q13 70 30.5 90.5t57.5 20.5h499q38 0 46.5 -18.5t-3.5 -92.5q-13 -70 -30.5 -90.5t-57.5 -20.5h-127l148 -338q42 -92 51 -194h37q51 105 127 194l287 338h-127q-38 0 -46.5 18.5t3.5 92.5q13 70 30.5 90.5t57.5 20.5h491 q38 0 46.5 -18.5t-3.5 -92.5q-13 -70 -30.5 -90.5t-57.5 -20.5h-53l-643 -745l-54 -287h150q38 0 46.5 -18.5t-3.5 -91.5q-13 -70 -30.5 -90.5t-57.5 -20.5h-596q-38 0 -46.5 19t3.5 92q13 69 30.5 89.5t57.5 20.5h154l53 285l-334 747h-63q-38 0 -46.5 18.5zM532 1806 q14 86 55 121t109 35h25q73 0 103.5 -33t21.5 -110q-10 -86 -40.5 -119t-94.5 -33h-80q-64 0 -88 31t-11 108zM1141 1806q14 86 54.5 121t109.5 35h22q74 0 103 -34t20 -109q-10 -86 -41 -119t-96 -33h-74q-63 0 -86.5 30.5t-11.5 108.5z" />
<glyph unicode="&#x179;" horiz-adv-x="1366" d="M-41 84l16 102q7 45 29.5 78.5t75.5 81.5l733 698q104 97 270 185l4 28h-624l-25 -116q-9 -43 -40 -59.5t-109 -16.5q-82 0 -105.5 16t-15.5 60l47 243q10 54 38 72.5t99 18.5h955q72 0 92 -16.5t12 -67.5l-18 -113q-6 -42 -26.5 -74.5t-76.5 -87.5l-700 -674 q-102 -99 -264 -192l-7 -33h639l27 141q8 44 38 60t112 16q84 0 107 -17t15 -59l-53 -268q-10 -54 -38.5 -72t-100.5 -18h-1002q-72 0 -92.5 16.5t-11.5 67.5zM581 1632q-3 17 17 33l268 205q77 61 242 61q104 0 123 -35q11 -19 -14 -36l-304 -207q-80 -54 -219 -54 q-103 0 -113 33z" />
<glyph unicode="&#x17a;" horiz-adv-x="1181" d="M53 86l17 102q8 46 27 77t65 65l444 329q85 63 211 119v29h-377l-8 -49q-8 -45 -35.5 -60.5t-105.5 -15.5q-83 0 -104 15.5t-13 60.5l29 157q9 53 35 71t96 18h692q70 0 90.5 -17.5t11.5 -71.5l-18 -110q-7 -42 -27 -71.5t-65 -65.5l-432 -334q-70 -54 -199 -109v-28h383 l12 71q9 46 35.5 61t108.5 15q78 0 101 -15.5t15 -60.5l-28 -180q-9 -54 -35.5 -71t-99.5 -17h-723q-70 0 -90.5 16.5t-12.5 69.5zM457 1144q2 9 12 19l252 238q35 33 87.5 47t141.5 14q121 0 120 -36q-1 -12 -17 -25l-287 -238q-62 -53 -195 -53q-121 0 -114 34z" />
<glyph unicode="&#x17b;" horiz-adv-x="1366" d="M-41 84l16 102q7 45 29.5 78.5t75.5 81.5l733 698q104 97 270 185l4 28h-624l-25 -116q-9 -43 -40 -59.5t-109 -16.5q-82 0 -105.5 16t-15.5 60l47 243q10 54 38 72.5t99 18.5h955q72 0 92 -16.5t12 -67.5l-18 -113q-6 -42 -26.5 -74.5t-76.5 -87.5l-700 -674 q-102 -99 -264 -192l-7 -33h639l27 141q8 44 38 60t112 16q84 0 107 -17t15 -59l-53 -268q-10 -54 -38.5 -72t-100.5 -18h-1002q-72 0 -92.5 16.5t-11.5 67.5zM662 1808q10 90 53.5 130t124.5 40h37q73 0 104.5 -34.5t22.5 -120.5q-9 -93 -44 -129.5t-106 -36.5h-94 q-67 0 -88 31.5t-10 119.5z" />
<glyph unicode="&#x17c;" horiz-adv-x="1181" d="M53 86l17 102q8 46 27 77t65 65l444 329q85 63 211 119v29h-377l-8 -49q-8 -45 -35.5 -60.5t-105.5 -15.5q-83 0 -104 15.5t-13 60.5l29 157q9 53 35 71t96 18h692q70 0 90.5 -17.5t11.5 -71.5l-18 -110q-7 -42 -27 -71.5t-65 -65.5l-432 -334q-70 -54 -199 -109v-28h383 l12 71q9 46 35.5 61t108.5 15q78 0 101 -15.5t15 -60.5l-28 -180q-9 -54 -35.5 -71t-99.5 -17h-723q-70 0 -90.5 16.5t-12.5 69.5zM528 1325q11 86 52.5 127t119.5 41h35q77 0 106.5 -35t20.5 -119q-10 -93 -44 -129t-105 -36h-84q-69 0 -90.5 32t-10.5 119z" />
<glyph unicode="&#x17d;" horiz-adv-x="1366" d="M-41 84l16 102q7 45 29.5 78.5t75.5 81.5l733 698q104 97 270 185l4 28h-624l-25 -116q-9 -43 -40 -59.5t-109 -16.5q-82 0 -105.5 16t-15.5 60l47 243q10 54 38 72.5t99 18.5h955q72 0 92 -16.5t12 -67.5l-18 -113q-6 -42 -26.5 -74.5t-76.5 -87.5l-700 -674 q-102 -99 -264 -192l-7 -33h639l27 141q8 44 38 60t112 16q84 0 107 -17t15 -59l-53 -268q-10 -54 -38.5 -72t-100.5 -18h-1002q-72 0 -92.5 16.5t-11.5 67.5zM416 1862q-37 34 10 51q29 10 88 10q110 0 146.5 -6.5t58.5 -24.5l137 -123l176 123q26 18 67 24.5t144 6.5 q110 0 111 -32q0 -13 -19 -27l-293 -213q-40 -30 -81.5 -41t-112.5 -11h-37q-122 0 -174 52z" />
<glyph unicode="&#x17e;" horiz-adv-x="1185" d="M53 86l17 102q8 46 27 77t65 65l444 329q85 63 211 119v29h-377l-8 -49q-8 -45 -35.5 -60.5t-105.5 -15.5q-83 0 -104 15.5t-13 60.5l29 157q9 53 35 71t96 18h692q70 0 90.5 -17.5t11.5 -71.5l-18 -110q-7 -42 -27 -71.5t-65 -65.5l-432 -334q-70 -54 -199 -109v-28h383 l12 71q9 46 35.5 61t108.5 15q78 0 101 -15.5t15 -60.5l-28 -180q-9 -54 -35.5 -71t-99.5 -17h-723q-70 0 -90.5 16.5t-12.5 69.5zM356 1395q-33 50 59 60l54 3q84 0 116 -9.5t46 -33.5l80 -137l125 137q24 27 54.5 35t115.5 8q139 0 129 -39q-2 -9 -13 -20l-223 -223 q-36 -36 -82.5 -51t-132.5 -15t-121.5 13.5t-62.5 52.5z" />
<glyph unicode="&#x17f;" horiz-adv-x="788" d="M57 -397l230 1181h-119q-43 0 -51 18.5t6 90.5q15 71 32 91t58 20h117l16 79q43 211 153 313.5t302 102.5q73 0 149.5 -16.5t130.5 -44.5q29 -15 31 -39.5t-22 -89.5q-17 -44 -33 -62.5t-34 -18t-42 8.5q-97 33 -174 33q-75 0 -116.5 -40.5t-61.5 -142.5l-289 -1484 q-9 -46 -36.5 -60t-115.5 -14q-90 0 -114.5 15.5t-16.5 58.5z" />
<glyph unicode="&#x192;" horiz-adv-x="1417" d="M-138 -309.5q-2 25.5 25 88.5q28 60 53.5 74.5t59.5 -0.5q94 -33 164 -33q74 0 118 42.5t74 149.5l174 625h-225q-37 0 -44.5 17t5.5 77q14 62 28.5 78t49.5 16h240l63 226q70 250 190 349t326 99q62 0 132.5 -16t111.5 -39q30 -17 30.5 -42t-28.5 -87q-29 -61 -53 -74.5 t-62 0.5q-106 29 -166 29q-71 0 -117 -42.5t-75 -150.5l-70 -252h248q37 0 45 -17t-4 -77q-12 -61 -26.5 -77.5t-53.5 -16.5h-262l-166 -600q-65 -234 -184 -338.5t-309 -104.5q-76 0 -148.5 15t-116.5 41q-25 15 -27 40.5z" />
<glyph unicode="&#x1fa;" d="M-77.5 19q-8.5 19 3.5 92q13 69 30.5 89.5t57.5 20.5h56l690 1153q41 68 75.5 90.5t106.5 22.5h156q73 0 101 -23t42 -90l248 -1153h67q38 0 46.5 -18.5t-3.5 -91.5q-13 -70 -30.5 -90.5t-57.5 -20.5h-505q-38 0 -46.5 19t3.5 92q13 69 30.5 89.5t57.5 20.5h125l-41 232 h-613l-137 -232h137q38 0 46.5 -18.5t-3.5 -91.5q-13 -70 -30.5 -90.5t-57.5 -20.5h-508q-38 0 -46.5 19zM649 680h445l-52 293q-28 173 -38 299h-33q-81 -177 -150 -297zM801 1851q20 124 104 193.5t211 69.5q124 0 183.5 -66.5t41.5 -177.5q-21 -133 -102.5 -202 t-210.5 -69q-131 0 -189 65t-38 187zM856 2216q2 8 12 18l252 238q35 33 88 47t142 14q120 0 119 -35q-1 -12 -17 -26l-287 -238q-62 -53 -194 -53q-121 0 -115 35zM946 1851q-10 -62 18 -95.5t87 -33.5q58 0 95.5 36.5t47.5 107.5q10 60 -17.5 92.5t-84.5 32.5 q-55 0 -94.5 -36t-51.5 -104z" />
<glyph unicode="&#x1fb;" horiz-adv-x="1310" d="M74 387q0 178 70.5 324t200 231.5t292.5 85.5q179 0 264 -104h35l8 32q8 31 37 44.5t100 13.5t93 -14.5t14 -53.5l-131 -678q-5 -25 3.5 -34t39.5 -9h28q40 0 49.5 -19.5t-3.5 -92.5q-15 -70 -32 -91.5t-57 -21.5h-98q-87 0 -129.5 25.5t-54.5 83.5h-35 q-104 -134 -315 -134q-379 0 -379 412zM367 406q0 -106 46 -154.5t140 -48.5q104 0 179 74.5t102 214.5l18 98q19 96 -31 153.5t-149 57.5q-130 0 -217.5 -111.5t-87.5 -283.5zM528 1372q20 124 104.5 193t211.5 69q124 0 183.5 -66t41.5 -177q-21 -133 -102.5 -202 t-210.5 -69q-132 0 -190 65t-38 187zM574 1738q2 9 12 19l252 238q35 33 87.5 47t141.5 14q120 0 119 -35q-2 -13 -17 -26l-286 -238q-62 -53 -195 -53q-121 0 -114 34zM674 1372q-10 -62 17.5 -95.5t86.5 -33.5q58 0 96 36t48 107q10 60 -18 92.5t-85 32.5q-55 0 -94 -35.5 t-51 -103.5z" />
<glyph unicode="&#x1fc;" horiz-adv-x="2414" d="M-105.5 19q-8.5 19 3.5 92q13 69 30.5 89.5t57.5 20.5h61l1000 1147q53 62 108 84.5t158 22.5h995q78 0 100 -24.5t9 -94.5l-41 -217q-9 -51 -39.5 -67.5t-110.5 -16.5q-79 0 -100.5 16t-11.5 68l22 114h-571l-74 -391h313l6 35q9 51 34.5 66.5t109.5 15.5q79 0 99 -17 t11 -63l-59 -311q-9 -47 -36 -62.5t-107 -15.5q-79 0 -98.5 15t-10.5 67l8 43h-315l-80 -414h580l24 125q9 49 37.5 65.5t110.5 16.5q80 0 101.5 -15.5t12.5 -66.5l-43 -227q-14 -71 -45 -95t-110 -24h-1086q-38 0 -46.5 19t3.5 92q13 69 30.5 89.5t57.5 20.5h82l41 217 h-545l-188 -217h137q38 0 46.5 -18.5t-3.5 -91.5q-13 -70 -30.5 -90.5t-57.5 -20.5h-534q-38 0 -46.5 19zM762 666h395l119 602h-35q-92 -163 -207 -293zM1472 1632q-3 17 17 33l268 205q77 61 242 61q105 0 123 -35q9 -19 -15 -36l-303 -207q-80 -54 -219 -54 q-103 0 -113 33z" />
<glyph unicode="&#x1fd;" horiz-adv-x="1888" d="M74 272q0 165 127.5 264t335.5 99q178 0 260 -82h37l12 61q20 104 -29 147.5t-194 43.5q-143 0 -283 -43q-35 -11 -51 2t-39 76q-19 54 -13 76t44 40q62 29 175 50.5t230 21.5q244 0 365 -96h8q145 96 354 96q205 0 309.5 -88.5t104.5 -224.5q0 -326 -496 -326h-248v-22 q0 -166 269 -166q134 0 247 37q42 12 62.5 -2t38.5 -72q19 -61 11.5 -84t-46.5 -41q-64 -28 -168.5 -46t-212.5 -18q-293 0 -403 144h-35q-72 -78 -159.5 -111t-221.5 -33q-189 0 -290 77.5t-101 219.5zM358 291q0 -115 185 -115q117 0 184.5 44.5t67.5 113.5q0 48 -48.5 77 t-152.5 29q-117 0 -176.5 -39t-59.5 -110zM881 1144q2 9 12 19l252 238q35 33 87.5 47t141.5 14q121 0 120 -36q-1 -12 -17 -25l-287 -238q-62 -53 -195 -53q-121 0 -114 34zM1108 588h252q190 0 190 121q0 53 -43.5 82.5t-124.5 29.5q-105 0 -175.5 -61t-98.5 -172z" />
<glyph unicode="&#x1fe;" horiz-adv-x="1628" d="M57.5 -223.5q-1.5 10.5 5.5 22.5l205 293q-178 141 -178 483q0 272 101.5 481t293.5 326t447 117q170 0 289 -45l127 180q23 29 108 29q91 0 89 -31q-1 -6 -5 -12l-174 -250q172 -146 172 -473q0 -274 -101 -482t-293 -324t-450 -116q-156 0 -278 39l-158 -227 q-24 -35 -125 -35q-35 0 -54.5 7t-21 17.5zM391 590q0 -161 49 -252l629 899q-78 33 -174 33q-107 0 -199 -47.5t-160 -134t-106.5 -215.5t-38.5 -283zM567 229q57 -24 162 -24q225 0 366.5 183.5t141.5 492.5q0 149 -47 239zM647 1632q-3 17 17 33l268 205q77 61 242 61 q105 0 123 -35q9 -19 -15 -36l-303 -207q-80 -54 -219 -54q-103 0 -113 33z" />
<glyph unicode="&#x1ff;" horiz-adv-x="1206" d="M54 -189q0 6 5 15l156 229q-141 105 -141 314q0 319 163.5 489t450.5 170q87 0 172 -20l127 188q19 29 111 29q67 0 68 -21q-1 -7 -7 -16l-166 -244q140 -103 140 -313q0 -312 -159.5 -484t-451.5 -172q-98 0 -172 21l-114 -170q-24 -35 -111 -35q-71 0 -71 20zM360 391 q0 -50 17 -96l342 504q-40 8 -70 8q-132 0 -210.5 -111t-78.5 -305zM379 1145q2 8 12 18l252 238q35 33 87.5 47t141.5 14q121 0 120 -36q-1 -12 -17 -25l-287 -238q-62 -53 -194 -53q-121 0 -115 35zM492 203q30 -6 67 -6q131 0 209 111.5t78 299.5q0 48 -17 94z" />
<glyph unicode="&#x218;" horiz-adv-x="1456" d="M35 260l22 113q9 48 38.5 64t121.5 16q86 0 110.5 -17.5t14.5 -60.5l-31 -135q54 -15 147.5 -25t168.5 -10q379 0 379 244q0 51 -23.5 83.5t-89.5 57.5t-186 41l-95 12q-221 29 -315 115.5t-94 247.5q0 229 179.5 361t537.5 132q243 0 391 -55q76 -28 101 -76t7 -137 l-18 -90q-10 -49 -40 -63.5t-118 -14.5q-83 0 -107.5 14.5t-15.5 61.5l21 98q-126 37 -273 37q-186 0 -275 -60t-89 -163q0 -46 19.5 -72t75.5 -45t167 -35l76 -10q258 -35 363.5 -125t105.5 -272q0 -517 -752 -517q-227 0 -405 48q-81 22 -110.5 77.5t-8.5 159.5zM410 -655 q60 117 100 245q-37 14 -53.5 35t-16.5 56q0 79 43 125.5t121 46.5h23q108 0 108 -101q0 -81 -42.5 -201t-112.5 -213q-30 -43 -78 -43h-62q-54 0 -30 50z" />
<glyph unicode="&#x219;" horiz-adv-x="1144" d="M51 152l17 79q11 52 39 70t108 18q78 0 99.5 -13.5t15.5 -49.5l-13 -61q94 -25 224 -25q103 0 151.5 28t48.5 93q0 28 -12.5 43.5t-60.5 31.5t-148 33l-84 15q-151 26 -215.5 88.5t-64.5 173.5q0 168 127 260t389 92q168 0 305 -41q60 -19 82 -52.5t12 -90.5l-10 -56 q-9 -50 -36.5 -65.5t-106.5 -15.5q-81 0 -100.5 12t-14.5 51l6 45q-91 21 -176 21q-195 0 -195 -103q0 -30 12.5 -44.5t51 -27t129.5 -30.5l74 -15q175 -33 246 -95.5t71 -174.5q0 -188 -131.5 -279.5t-415.5 -91.5q-200 0 -332 37q-61 17 -82.5 50t-9.5 90zM304.5 -692.5 q-8.5 12.5 2.5 37.5q63 122 101 245q-37 14 -53.5 35t-16.5 56q0 79 43 125.5t121 46.5h22q109 0 109 -101q0 -80 -43 -200.5t-113 -213.5q-30 -43 -78 -43h-61q-25 0 -33.5 12.5z" />
<glyph unicode="&#x21a;" horiz-adv-x="1521" d="M127 1137l43 219q14 71 44.5 95t109.5 24h1165q79 0 100.5 -24t7.5 -95l-41 -219q-9 -48 -40 -65t-113 -17q-81 0 -104 16.5t-15 65.5l21 116h-293l-201 -1032h152q38 0 46.5 -18.5t-3.5 -91.5q-13 -70 -30.5 -90.5t-57.5 -20.5h-596q-38 0 -46.5 19t3.5 92 q13 69 30.5 89.5t57.5 20.5h151l201 1032h-295l-25 -116q-11 -48 -40.5 -65t-110.5 -17q-84 0 -106.5 18t-14.5 64zM419.5 -692.5q-8.5 12.5 2.5 37.5q60 117 100 245q-37 14 -53 35t-16 56q0 79 42.5 125.5t120.5 46.5h23q109 0 109 -101q0 -80 -43 -200.5t-113 -213.5 q-30 -43 -78 -43h-61q-25 0 -33.5 12.5z" />
<glyph unicode="&#x21b;" horiz-adv-x="913" d="M86 802.5q-8 18.5 6 90.5q15 71 32 91t58 20h121l45 229q9 51 38 67.5t120 16.5q86 0 109 -18t14 -66l-45 -229h260q42 0 51 -19t-4 -92q-15 -71 -31 -90t-61 -19h-258l-86 -432q-6 -35 -6 -57q0 -43 24.5 -62.5t79.5 -19.5q62 0 123 14q42 9 61 -7.5t31 -78.5t2 -86 t-51 -39q-109 -41 -258 -41q-159 0 -230 58t-71 174q0 56 14 131l86 446h-123q-43 0 -51 18.5zM214.5 -692.5q-8.5 12.5 2.5 37.5q60 117 100 245q-37 14 -53 35t-16 56q0 79 43 125.5t121 46.5h22q109 0 109 -101q0 -80 -43 -200.5t-113 -213.5q-30 -43 -78 -43h-61 q-25 0 -33.5 12.5z" />
<glyph unicode="&#x2c6;" horiz-adv-x="1024" d="M147 1148q1 9 11 19l219 226q35 36 79 50.5t132 14.5q91 0 128 -13t62 -52l142 -222q31 -48 -44 -58q-24 -3 -59 -3q-81 0 -117.5 10t-50.5 33l-86 133l-114 -133q-20 -23 -56.5 -33t-111.5 -10q-138 0 -134 38z" />
<glyph unicode="&#x2da;" horiz-adv-x="1024" d="M535 1372q20 124 104 193t211 69q124 0 183.5 -66t41.5 -177q-21 -133 -102.5 -202t-210.5 -69q-131 0 -189 65t-38 187zM680 1372q-10 -62 17.5 -95.5t86.5 -33.5q58 0 96 36t48 107q10 60 -18 92.5t-85 32.5q-55 0 -94 -35.5t-51 -103.5z" />
<glyph unicode="&#x2dc;" horiz-adv-x="1024" d="M117 1285q-10 22 4 42q50 87 115.5 126.5t154.5 39.5q48 0 94 -18.5t76 -41t65.5 -41t63.5 -18.5q31 0 50 12.5t48 53.5q10 20 35 19t72 -27t59 -45t2 -44q-72 -184 -260 -184q-45 0 -90 18.5t-75.5 40t-67 40t-66.5 18.5q-66 0 -121 -70q-14 -19 -37.5 -14.5t-66.5 37.5 q-45 34 -55 56z" />
<glyph unicode="&#x394;" horiz-adv-x="1482" d="M-12 84l14 72q16 79 102 233l551 987q36 64 71 87.5t101 23.5h140q65 0 91 -21.5t38 -87.5l176 -991q18 -99 20.5 -148.5t-6.5 -82.5l-14 -72q-11 -52 -34.5 -68t-92.5 -16h-1059q-66 0 -86.5 19t-11.5 65zM324 236h677l-92 696q-30 242 -30 340h-35q-30 -89 -99 -223z " />
<glyph unicode="&#x3a9;" horiz-adv-x="1697" d="M57.5 19q-8.5 19 3.5 92q13 69 31 89.5t58 20.5h202l6 37q-170 116 -170 401q0 190 57 347.5t160 265.5t248.5 167.5t319.5 59.5q293 0 449.5 -147t156.5 -424q0 -236 -103 -412.5t-280 -257.5l-8 -37h229q38 0 46.5 -18.5t-3.5 -91.5q-13 -70 -30.5 -90.5t-57.5 -20.5 h-409q-71 0 -91.5 17t-11.5 67l10 55q14 84 91 133q141 87 227 258t86 385q0 185 -77 270t-241 85q-217 0 -345 -173.5t-128 -463.5q0 -254 131 -367q51 -45 33 -133l-10 -49q-11 -51 -36 -67.5t-97 -16.5h-400q-38 0 -46.5 19z" />
<glyph unicode="&#x3bc;" horiz-adv-x="1443" d="M70 -395l219 1130q8 43 -33 43h-45q-39 0 -50.5 21t-0.5 71q17 77 50 105.5t103 28.5h166q82 0 106.5 -25.5t10.5 -95.5l-78 -410q-16 -94 -16 -129q0 -76 36 -109.5t113 -33.5q111 0 185.5 94t113.5 301l66 344q9 49 36 62.5t113 13.5q90 0 114.5 -16t16.5 -60 l-131 -670q-4 -26 5 -35.5t38 -9.5h27q40 0 49 -19.5t-4 -92.5q-15 -70 -31.5 -91.5t-56.5 -21.5h-94q-90 0 -129 33.5t-41 105.5h-31q-90 -164 -301 -164q-135 0 -178 72h-33q24 -147 -6 -297l-29 -145q-9 -47 -34 -60.5t-115 -13.5q-93 0 -116 14t-15 60z" />
<glyph unicode="&#x3c0;" horiz-adv-x="1337" d="M107 799q-9 21 6 96q14 70 31 89.5t55 19.5h1112q38 0 47 -21t-6 -96q-14 -70 -31 -89.5t-55 -19.5h-140l-98 -510q-5 -25 3.5 -34t39.5 -9h25q40 0 48.5 -19.5t-3.5 -92.5q-13 -70 -30.5 -91.5t-57.5 -21.5h-107q-119 0 -166 38t-47 120q0 31 8 78l105 542h-305 l-140 -717q-9 -44 -37 -57.5t-114 -13.5q-90 0 -114.5 14t-16.5 57l139 717h-104q-38 0 -47 21z" />
<glyph unicode="&#x1e80;" horiz-adv-x="2357" d="M152.5 1271.5q-8.5 18.5 3.5 92.5q13 70 30.5 90.5t57.5 20.5h497q38 0 46.5 -18.5t-3.5 -92.5q-13 -70 -30.5 -90.5t-57.5 -20.5h-129l43 -721q8 -139 4 -333h35q49 169 119 333l287 695q27 64 63.5 87t118.5 23h168q79 0 110.5 -22.5t32.5 -89.5l15 -693 q3 -150 -7 -333h35q42 137 127 333l316 721h-140q-38 0 -46.5 18.5t3.5 92.5q13 70 30.5 90.5t57.5 20.5h490q38 0 46.5 -18.5t-3.5 -92.5q-13 -70 -30.5 -90.5t-57.5 -20.5h-78l-510 -1153q-30 -66 -69.5 -89t-114.5 -23h-176q-80 0 -111 23.5t-31 86.5l-2 721 q0 163 11 303h-35q-52 -170 -107 -305l-289 -717q-25 -63 -64 -87.5t-118 -24.5h-205q-77 0 -107.5 23.5t-33.5 86.5l-68 1155h-77q-38 0 -46.5 18.5zM1024 1904q34 27 131 27q157 0 227 -61l236 -199q32 -26 2 -48q-32 -24 -127 -24q-124 0 -193 54l-274 207q-30 22 -2 44z " />
<glyph unicode="&#x1e81;" horiz-adv-x="1757" d="M41.5 798q-8.5 20 3.5 93q13 71 30 92t58 21h111q103 0 151 -35.5t54 -124.5l28 -408q10 -133 2 -241h35q18 105 66 239l174 477q23 61 59 83t111 22h135q80 0 108.5 -23t30.5 -82l16 -479q3 -138 -4 -237h33q37 132 80 243l199 514q15 39 44 51.5t113 12.5 q78 0 97.5 -14t5.5 -50l-346 -862q-23 -57 -64 -79.5t-115 -22.5h-143q-74 0 -105 20.5t-32 81.5l-8 545q0 121 6 174h-33q-17 -81 -49 -172l-188 -545q-20 -59 -58.5 -81.5t-120.5 -22.5h-149q-72 0 -101.5 21t-33.5 81l-54 635q-3 30 -19.5 41.5t-51.5 11.5h-27 q-40 0 -48.5 20zM764 1401q-38 47 54 58q25 3 59 3q97 0 139.5 -15.5t64.5 -45.5l166 -238q23 -31 -32 -45q-31 -8 -85 -8q-68 0 -103.5 12t-59.5 41z" />
<glyph unicode="&#x1e82;" horiz-adv-x="2357" d="M152.5 1271.5q-8.5 18.5 3.5 92.5q13 70 30.5 90.5t57.5 20.5h497q38 0 46.5 -18.5t-3.5 -92.5q-13 -70 -30.5 -90.5t-57.5 -20.5h-129l43 -721q8 -139 4 -333h35q49 169 119 333l287 695q27 64 63.5 87t118.5 23h168q79 0 110.5 -22.5t32.5 -89.5l15 -693 q3 -150 -7 -333h35q42 137 127 333l316 721h-140q-38 0 -46.5 18.5t3.5 92.5q13 70 30.5 90.5t57.5 20.5h490q38 0 46.5 -18.5t-3.5 -92.5q-13 -70 -30.5 -90.5t-57.5 -20.5h-78l-510 -1153q-30 -66 -69.5 -89t-114.5 -23h-176q-80 0 -111 23.5t-31 86.5l-2 721 q0 163 11 303h-35q-52 -170 -107 -305l-289 -717q-25 -63 -64 -87.5t-118 -24.5h-205q-77 0 -107.5 23.5t-33.5 86.5l-68 1155h-77q-38 0 -46.5 18.5zM1015 1632q-3 17 17 33l268 205q77 61 242 61q104 0 123 -35q11 -19 -14 -36l-303 -207q-80 -54 -220 -54q-103 0 -113 33 z" />
<glyph unicode="&#x1e83;" horiz-adv-x="1757" d="M41.5 798q-8.5 20 3.5 93q13 71 30 92t58 21h111q103 0 151 -35.5t54 -124.5l28 -408q10 -133 2 -241h35q18 105 66 239l174 477q23 61 59 83t111 22h135q80 0 108.5 -23t30.5 -82l16 -479q3 -138 -4 -237h33q37 132 80 243l199 514q15 39 44 51.5t113 12.5 q78 0 97.5 -14t5.5 -50l-346 -862q-23 -57 -64 -79.5t-115 -22.5h-143q-74 0 -105 20.5t-32 81.5l-8 545q0 121 6 174h-33q-17 -81 -49 -172l-188 -545q-20 -59 -58.5 -81.5t-120.5 -22.5h-149q-72 0 -101.5 21t-33.5 81l-54 635q-3 30 -19.5 41.5t-51.5 11.5h-27 q-40 0 -48.5 20zM693 1144q2 9 12 19l251 238q35 33 88 47t142 14q120 0 119 -35q-2 -13 -17 -26l-287 -238q-62 -53 -194 -53q-121 0 -114 34z" />
<glyph unicode="&#x1e84;" horiz-adv-x="2357" d="M152.5 1271.5q-8.5 18.5 3.5 92.5q13 70 30.5 90.5t57.5 20.5h497q38 0 46.5 -18.5t-3.5 -92.5q-13 -70 -30.5 -90.5t-57.5 -20.5h-129l43 -721q8 -139 4 -333h35q49 169 119 333l287 695q27 64 63.5 87t118.5 23h168q79 0 110.5 -22.5t32.5 -89.5l15 -693 q3 -150 -7 -333h35q42 137 127 333l316 721h-140q-38 0 -46.5 18.5t3.5 92.5q13 70 30.5 90.5t57.5 20.5h490q38 0 46.5 -18.5t-3.5 -92.5q-13 -70 -30.5 -90.5t-57.5 -20.5h-78l-510 -1153q-30 -66 -69.5 -89t-114.5 -23h-176q-80 0 -111 23.5t-31 86.5l-2 721 q0 163 11 303h-35q-52 -170 -107 -305l-289 -717q-25 -63 -64 -87.5t-118 -24.5h-205q-77 0 -107.5 23.5t-33.5 86.5l-68 1155h-77q-38 0 -46.5 18.5zM911 1806q14 86 55 121t109 35h25q73 0 103.5 -33t21.5 -110q-10 -86 -40.5 -119t-94.5 -33h-80q-64 0 -88 31t-11 108z M1520 1806q14 87 54 121.5t109 34.5h23q74 0 103 -34t20 -109q-10 -86 -41 -119t-96 -33h-74q-63 0 -86.5 30.5t-11.5 108.5z" />
<glyph unicode="&#x1e85;" horiz-adv-x="1757" d="M41.5 798q-8.5 20 3.5 93q13 71 30 92t58 21h111q103 0 151 -35.5t54 -124.5l28 -408q10 -133 2 -241h35q18 105 66 239l174 477q23 61 59 83t111 22h135q80 0 108.5 -23t30.5 -82l16 -479q3 -138 -4 -237h33q37 132 80 243l199 514q15 39 44 51.5t113 12.5 q78 0 97.5 -14t5.5 -50l-346 -862q-23 -57 -64 -79.5t-115 -22.5h-143q-74 0 -105 20.5t-32 81.5l-8 545q0 121 6 174h-33q-17 -81 -49 -172l-188 -545q-20 -59 -58.5 -81.5t-120.5 -22.5h-149q-72 0 -101.5 21t-33.5 81l-54 635q-3 30 -19.5 41.5t-51.5 11.5h-27 q-40 0 -48.5 20zM565 1321q10 82 49 119t111 37h27q67 0 93.5 -28.5t26.5 -96.5q0 -86 -33 -127t-102 -41h-75q-63 0 -85 29.5t-12 107.5zM1141 1321q10 82 49 119t110 37h27q67 0 94 -28.5t27 -96.5q0 -86 -33 -127t-102 -41h-76q-63 0 -84.5 29.5t-11.5 107.5z" />
<glyph unicode="&#x1ef2;" horiz-adv-x="1558" d="M148.5 1271.5q-8.5 18.5 3.5 92.5q13 70 30.5 90.5t57.5 20.5h499q38 0 46.5 -18.5t-3.5 -92.5q-13 -70 -30.5 -90.5t-57.5 -20.5h-127l148 -338q42 -92 51 -194h37q51 105 127 194l287 338h-127q-38 0 -46.5 18.5t3.5 92.5q13 70 30.5 90.5t57.5 20.5h491 q38 0 46.5 -18.5t-3.5 -92.5q-13 -70 -30.5 -90.5t-57.5 -20.5h-53l-643 -745l-54 -287h150q38 0 46.5 -18.5t-3.5 -91.5q-13 -70 -30.5 -90.5t-57.5 -20.5h-596q-38 0 -46.5 19t3.5 92q13 69 30.5 89.5t57.5 20.5h154l53 285l-334 747h-63q-38 0 -46.5 18.5zM563 1904 q35 27 131 27q158 0 228 -61l235 -199q32 -26 2 -48q-32 -24 -127 -24q-123 0 -192 54l-275 207q-30 22 -2 44z" />
<glyph unicode="&#x1ef3;" horiz-adv-x="1124" d="M-89 -409q-5 26 23 94q24 60 46 74t65 3q78 -20 133 -20q91 0 144 42t98 144l26 60q-66 0 -95 19.5t-38 70.5l-125 649q-6 30 -21 40.5t-50 10.5h-27q-40 0 -48.5 20t3.5 93q13 71 30 92t58 21h111q100 0 146 -35.5t61 -124.5l77 -434q20 -126 23 -226h35q27 116 71 226 l209 534q17 43 50 56.5t126 13.5q82 0 105 -14.5t4 -55.5l-418 -971q-60 -139 -118.5 -228t-127 -139.5t-141.5 -69.5t-172 -19q-113 0 -217 34q-41 14 -46 40zM344 1401q-38 47 54 58q25 3 59 3q97 0 140 -15.5t65 -45.5l165 -238q23 -32 -34 -46q-30 -7 -82 -7 q-68 0 -104 12t-60 41z" />
<glyph unicode="&#x2000;" horiz-adv-x="1266" />
<glyph unicode="&#x2001;" horiz-adv-x="2533" />
<glyph unicode="&#x2002;" horiz-adv-x="1266" />
<glyph unicode="&#x2003;" horiz-adv-x="2533" />
<glyph unicode="&#x2004;" horiz-adv-x="844" />
<glyph unicode="&#x2005;" horiz-adv-x="633" />
<glyph unicode="&#x2006;" horiz-adv-x="422" />
<glyph unicode="&#x2007;" horiz-adv-x="422" />
<glyph unicode="&#x2008;" horiz-adv-x="316" />
<glyph unicode="&#x2009;" horiz-adv-x="506" />
<glyph unicode="&#x200a;" horiz-adv-x="140" />
<glyph unicode="&#x2010;" horiz-adv-x="755" d="M22.5 446.5q-10.5 24.5 4.5 90.5q17 70 34 90t56 20h444q40 0 49.5 -19t-2.5 -91q-13 -69 -31.5 -92t-58.5 -23h-444q-41 0 -51.5 24.5z" />
<glyph unicode="&#x2011;" horiz-adv-x="755" d="M22.5 446.5q-10.5 24.5 4.5 90.5q17 70 34 90t56 20h444q40 0 49.5 -19t-2.5 -91q-13 -69 -31.5 -92t-58.5 -23h-444q-41 0 -51.5 24.5z" />
<glyph unicode="&#x2012;" horiz-adv-x="755" d="M22.5 446.5q-10.5 24.5 4.5 90.5q17 70 34 90t56 20h444q40 0 49.5 -19t-2.5 -91q-13 -69 -31.5 -92t-58.5 -23h-444q-41 0 -51.5 24.5z" />
<glyph unicode="&#x2013;" horiz-adv-x="972" d="M41 533.5q-8 21.5 6 84.5q15 70 30 88.5t54 18.5h754q37 0 46 -18.5t-3 -88.5q-13 -69 -29 -87.5t-55 -18.5h-754q-41 0 -49 21.5z" />
<glyph unicode="&#x2014;" horiz-adv-x="1957" d="M41 533.5q-8 21.5 6 84.5q15 70 30 88.5t54 18.5h1739q37 0 46 -18.5t-3 -88.5q-13 -69 -29 -87.5t-55 -18.5h-1739q-41 0 -49 21.5z" />
<glyph unicode="&#x2018;" horiz-adv-x="628" d="M225 985q0 94 48.5 223t121.5 236q20 28 40 38.5t52 10.5h70q30 0 39 -14.5t-4 -42.5q-73 -150 -107 -267q44 -15 62 -38t18 -66q0 -93 -48.5 -146t-141.5 -53h-27q-123 0 -123 119z" />
<glyph unicode="&#x2019;" horiz-adv-x="628" d="M229.5 875q-9.5 15 3.5 43q74 152 107 266q-44 15 -62 38t-18 66q0 93 49 146t142 53h26q123 0 123 -119q0 -94 -48.5 -223t-121.5 -236q-20 -28 -40 -38.5t-52 -10.5h-70q-29 0 -38.5 15z" />
<glyph unicode="&#x201a;" horiz-adv-x="628" d="M33 -304.5q-9 14.5 4 42.5q72 147 106 266q-44 15 -62 38.5t-18 66.5q0 93 49 145.5t142 52.5h27q60 0 91 -28t31 -91q0 -94 -48.5 -222t-121.5 -236q-20 -28 -40 -38.5t-52 -10.5h-69q-30 0 -39 14.5z" />
<glyph unicode="&#x201c;" horiz-adv-x="1114" d="M225 985q0 94 48.5 223t121.5 236q20 28 40 38.5t52 10.5h70q30 0 39 -14.5t-4 -42.5q-73 -150 -107 -267q44 -15 62 -38t18 -66q0 -93 -48.5 -146t-141.5 -53h-27q-123 0 -123 119zM711 985q0 94 48.5 223t121.5 236q20 28 40 38.5t52 10.5h69q30 0 39 -14.5t-4 -42.5 q-71 -145 -106 -267q44 -15 62 -38t18 -66q0 -93 -49 -146t-142 -53h-26q-123 0 -123 119z" />
<glyph unicode="&#x201d;" horiz-adv-x="1114" d="M229.5 875q-9.5 15 3.5 43q74 152 107 266q-44 15 -62 38t-18 66q0 93 49 146t142 53h26q123 0 123 -119q0 -94 -48.5 -223t-121.5 -236q-20 -28 -40 -38.5t-52 -10.5h-70q-29 0 -38.5 15zM715.5 875q-9.5 15 3.5 43q72 147 106 266q-44 15 -62 38t-18 66q0 93 49 146 t142 53h27q60 0 91 -28t31 -91q0 -94 -48.5 -223t-121.5 -236q-20 -28 -40 -38.5t-52 -10.5h-69q-29 0 -38.5 15z" />
<glyph unicode="&#x201e;" horiz-adv-x="1114" d="M33 -304.5q-9 14.5 4 42.5q72 147 106 266q-44 15 -62 38.5t-18 66.5q0 93 49 145.5t142 52.5h27q60 0 91 -28t31 -91q0 -94 -48.5 -222t-121.5 -236q-20 -28 -40 -38.5t-52 -10.5h-69q-30 0 -39 14.5zM518 -304.5q-9 14.5 4 42.5q74 152 107 266q-44 15 -62 38.5 t-18 66.5q0 93 48.5 145.5t141.5 52.5h27q123 0 123 -119q0 -94 -48.5 -222t-121.5 -236q-20 -28 -40 -38.5t-52 -10.5h-70q-30 0 -39 14.5z" />
<glyph unicode="&#x2022;" horiz-adv-x="937" d="M131 563q0 178 81 274.5t224 96.5h56q123 0 184 -60.5t61 -168.5q0 -167 -62 -246.5t-192 -79.5h-159q-102 0 -147.5 43t-45.5 141z" />
<glyph unicode="&#x2026;" horiz-adv-x="1785" d="M61 96q0 107 48.5 165t134.5 58h39q75 0 110 -31.5t35 -99.5q0 -104 -37 -152t-115 -48h-100q-61 0 -88 25t-27 83zM629 96q0 108 48 165.5t134 57.5h39q75 0 110 -31.5t35 -99.5q0 -104 -36.5 -152t-114.5 -48h-101q-60 0 -87 25t-27 83zM1194 96q0 108 48 165.5 t134 57.5h39q75 0 110.5 -32t35.5 -99q0 -104 -37 -152t-115 -48h-100q-61 0 -88 25t-27 83z" />
<glyph unicode="&#x202f;" horiz-adv-x="506" />
<glyph unicode="&#x2039;" horiz-adv-x="835" d="M129 510l12 57q18 85 90 160l189 191q33 33 73 47t121 14q78 0 99 -22.5t-19 -63.5l-350 -373l219 -383q27 -44 3 -66t-107 -22q-82 0 -113.5 13t-56.5 55l-127 213q-52 90 -33 180z" />
<glyph unicode="&#x203a;" horiz-adv-x="835" d="M102 63.5q-21 22.5 19 63.5l350 373l-219 383q-27 44 -3 66t107 22q82 0 113.5 -13t56.5 -55l127 -213q52 -90 33 -180l-12 -57q-18 -85 -90 -160l-189 -191q-33 -33 -73 -47t-121 -14q-78 0 -99 22.5z" />
<glyph unicode="&#x205f;" horiz-adv-x="633" />
<glyph unicode="&#x20ac;" horiz-adv-x="1417" d="M23 488.5q-6 13.5 4 66.5q12 54 23.5 68t45.5 14h76q4 101 16 164h-61q-33 0 -39 13.5t4 66.5q12 54 24 68t46 14h63q85 262 278.5 399t479.5 137q168 0 295 -45q98 -35 134 -93.5t13 -158.5l-14 -63q-11 -49 -40.5 -64.5t-119.5 -15.5q-89 0 -112.5 16t-14.5 62l19 90 q-95 33 -207 33q-288 0 -404 -297h472q34 0 40 -13.5t-4 -66.5q-12 -54 -23.5 -68t-45.5 -14h-482q-15 -79 -18 -164h465q34 0 40.5 -13.5t-3.5 -66.5q-12 -54 -24 -68t-46 -14h-424q22 -127 102.5 -188.5t235.5 -61.5q140 0 287 43q40 11 60.5 -6t37.5 -84q14 -60 5.5 -86 t-44.5 -41q-175 -76 -413 -76q-537 0 -576 500h-113q-32 0 -38 13.5z" />
<glyph unicode="&#x2122;" horiz-adv-x="2514" d="M180 1241l29 154q8 45 32.5 62.5t80.5 17.5h718q55 0 75 -19t11 -63l-28 -152q-7 -37 -29 -48t-84 -11q-61 0 -77.5 12t-10.5 47l12 68h-151l-86 -453h92q28 0 34 -14t-3 -66q-9 -51 -22 -67.5t-42 -16.5h-401q-29 0 -35 15t4 69q10 52 22 66t41 14h95l88 453h-154 l-12 -68q-6 -35 -28 -47t-85 -12q-60 0 -76 12t-10 47zM1037.5 707q-6.5 15 2.5 69q10 52 22.5 66t41.5 14h82l137 453h-61q-29 0 -35.5 15.5t2.5 66.5q10 54 21.5 69t39.5 15h293q91 0 117.5 -13t28.5 -53l12 -334q5 -111 0 -162h26q17 67 54 154l143 350q11 26 24 36.5 t44 16t96 5.5h307q29 0 35.5 -15.5t-2.5 -66.5q-10 -54 -21.5 -69t-40.5 -15h-59l-41 -453h80q27 0 34 -13t-3 -67q-12 -55 -23.5 -69.5t-40.5 -14.5h-352q-27 0 -33.5 15t2.5 69q10 52 22.5 66t41.5 14h43l57 457h-27q-29 -112 -102 -273l-94 -202q-20 -43 -47.5 -54.5 t-112.5 -11.5h-100q-50 0 -67.5 13t-20.5 53l-21 288q-8 105 2 187h-28l-123 -457h51q27 0 34 -13t-3 -67q-12 -55 -23.5 -69.5t-40.5 -14.5h-340q-27 0 -33.5 15z" />
<glyph unicode="&#x25fc;" horiz-adv-x="1013" d="M0 0v1014h1014v-1014h-1014z" />
<glyph unicode="&#xfb06;" horiz-adv-x="2041" d="M51 152l17 79q11 52 39 70t108 18q78 0 99.5 -13.5t15.5 -49.5l-13 -61q94 -25 224 -25q103 0 151.5 28t48.5 93q0 28 -12.5 43.5t-60.5 31.5t-148 33l-84 15q-151 26 -215.5 88.5t-64.5 173.5q0 168 127 260t389 92q64 0 100 -4q-33 54 -33 117q0 152 136.5 255 t355.5 103q234 0 362.5 -100.5t128.5 -268.5q0 -58 -12 -126h262q42 0 51 -19t-4 -92q-15 -71 -31 -90t-61 -19h-258l-86 -432q-6 -35 -6 -57q0 -43 24.5 -62.5t79.5 -19.5q62 0 123 14q42 9 61 -7.5t31 -78.5t2 -86t-51 -39q-109 -41 -258 -41q-159 0 -230 58t-71 174 q0 50 15 131l86 446h-123q-43 0 -51 18.5t6 90.5q15 71 32 91t58 20h121q8 41 8 88q0 86 -58 135t-161 49q-111 0 -183.5 -57t-72.5 -138q0 -53 55 -114q42 -46 49.5 -75t-4.5 -83l-4 -21q-9 -50 -36.5 -65.5t-106.5 -15.5q-81 0 -100.5 12t-14.5 51l6 45q-91 21 -176 21 q-195 0 -195 -103q0 -30 12.5 -44.5t51 -27t129.5 -30.5l74 -15q175 -33 246 -95.5t71 -174.5q0 -188 -131.5 -279.5t-415.5 -91.5q-200 0 -332 37q-61 17 -82.5 50t-9.5 90z" />
</font>
</defs>
</svg>
