<?xml version="1.0" standalone="no"?>
<!DOCTYPE svg PUBLIC "-//W3C//DTD SVG 1.1//EN" "http://www.w3.org/Graphics/SVG/1.1/DTD/svg11.dtd" >
<svg xmlns="http://www.w3.org/2000/svg">
<metadata></metadata>
<defs>
<font id="fs_rufuslight" horiz-adv-x="1593" >
<font-face units-per-em="2048" ascent="1536" descent="-512" />
<missing-glyph horiz-adv-x="368" />
<glyph unicode="&#xfb00;" horiz-adv-x="1466" d="M20 940q0 34 6 43.5t29 9.5h189v72q0 193 96 297q109 115 334 115q95 0 193.5 -22t168.5 -60q82 104 291 104q67 0 145 -15.5t132 -41.5q15 -7 17 -20t-7 -42q-10 -29 -22 -35.5t-29 1.5q-122 47 -242 47q-121 0 -174 -65t-53 -220v-115h292q23 0 29 -9.5t6 -43.5 t-6.5 -43.5t-30.5 -9.5h-290v-776h213q22 0 28 -10.5t6 -45.5t-5.5 -45t-28.5 -10h-476q-23 0 -28.5 10t-5.5 45t6 45.5t28 10.5h127v776h-579v-776h213q23 0 29 -10.5t6 -45.5t-6 -45t-29 -10h-475q-23 0 -29 10t-6 45t6 45.5t29 10.5h127v776h-189q-23 0 -29 9.5t-6 43.5z M379 993h579v103q0 120 27 202q-134 72 -311 72q-164 0 -234 -78q-61 -70 -61 -225v-74z" />
<glyph unicode="&#xfb01;" horiz-adv-x="1353" d="M20 940q0 34 6 43.5t29 9.5h189v51q0 111 22 191.5t73.5 141.5t142.5 91.5t223 30.5q147 0 284 -41q75 -23 102 -53.5t27 -91.5v-86q0 -19 -14.5 -27t-59.5 -8q-44 0 -58.5 8t-14.5 27v125q-141 43 -281 43q-173 0 -242 -77t-69 -253v-72h293q23 0 29 -9.5t6 -43.5 t-6.5 -43.5t-30.5 -9.5h-291v-776h213q23 0 29 -10.5t6 -45.5t-6 -45t-29 -10h-475q-23 0 -29 10t-6 45t6 45.5t29 10.5h127v776h-189q-23 0 -29 9.5t-6 43.5zM846 55q0 35 6 45.5t29 10.5h104v737q0 20 -7.5 27.5t-27.5 7.5h-71q-18 0 -25.5 10.5t-7.5 36.5q0 35 14 49 t49 14h131q43 0 61.5 -17t18.5 -63v-802h133q23 0 29 -10.5t6 -45.5t-6 -45t-29 -10h-372q-23 0 -29 10t-6 45z" />
<glyph unicode="&#xfb02;" horiz-adv-x="1353" d="M20 940q0 34 6 43.5t29 9.5h189v51q0 111 22 191.5t73.5 141.5t142.5 91.5t223 30.5q145 0 278 -39q75 -22 100 -50.5t25 -94.5v-1204h133q23 0 29 -10.5t6 -45.5t-6 -45t-29 -10h-373q-23 0 -28.5 10t-5.5 45t6 45.5t28 10.5h105v1239q-158 45 -283 45q-91 0 -152 -20.5 t-96 -64.5t-49 -102.5t-14 -142.5v-72h293q23 0 29 -9.5t6 -43.5t-6.5 -43.5t-30.5 -9.5h-291v-776h213q23 0 29 -10.5t6 -45.5t-6 -45t-29 -10h-475q-23 0 -29 10t-6 45t6 45.5t29 10.5h127v776h-189q-23 0 -29 9.5t-6 43.5z" />
<glyph unicode="&#xfb03;" horiz-adv-x="2072" d="M20 940q0 34 6 43.5t29 9.5h189v72q0 193 96 297q109 115 334 115q221 0 395 -88q110 110 354 110q148 0 285 -41q75 -23 102 -53.5t27 -91.5v-86q0 -19 -14.5 -27t-59.5 -8q-44 0 -58.5 8t-14.5 27v125q-141 43 -281 43q-173 0 -242 -77t-69 -253v-72h293q23 0 28.5 -9 t5.5 -44t-6 -44t-30 -9h-291v-776h213q23 0 29 -10.5t6 -45.5t-6 -45t-29 -10h-475q-23 0 -29 10t-6 45t6 45.5t29 10.5h127v776h-584v-776h213q23 0 29 -10.5t6 -45.5t-6 -45t-29 -10h-475q-23 0 -29 10t-6 45t6 45.5t29 10.5h127v776h-189q-23 0 -29 9.5t-6 43.5zM379 993 h584v51q0 157 43 254q-144 72 -332 72q-164 0 -234 -78q-61 -70 -61 -225v-74zM1565 55q0 35 6 45.5t28 10.5h105v737q0 20 -7.5 27.5t-27.5 7.5h-72q-17 0 -24.5 10.5t-7.5 36.5q0 35 14 49t49 14h131q43 0 61.5 -17t18.5 -63v-802h133q23 0 29 -10.5t6 -45.5t-6 -45 t-29 -10h-373q-23 0 -28.5 10t-5.5 45z" />
<glyph unicode="&#xfb04;" horiz-adv-x="2068" d="M20 940q0 34 6 43.5t29 9.5h189v72q0 189 100 297q109 115 336 115q102 0 204 -26t177 -67q109 115 358 115q146 0 279 -39q75 -22 100 -50.5t25 -94.5v-1204h133q23 0 29 -10.5t6 -45.5t-6 -45t-29 -10h-373q-23 0 -29 10t-6 45t6 45.5t29 10.5h105v1239 q-158 45 -283 45q-91 0 -152 -20.5t-96 -64.5t-49 -102.5t-14 -142.5v-72h292q23 0 29 -9.5t6 -43.5t-6.5 -43.5t-30.5 -9.5h-290v-776h213q22 0 28 -10.5t6 -45.5t-5.5 -45t-28.5 -10h-476q-23 0 -28.5 10t-5.5 45t6 45.5t28 10.5h127v776h-579v-776h213q23 0 29 -10.5 t6 -45.5t-6 -45t-29 -10h-475q-23 0 -29 10t-6 45t6 45.5t29 10.5h127v776h-189q-23 0 -29 9.5t-6 43.5zM379 993h579v51q0 163 43 252q-145 74 -321 74q-166 0 -236 -78q-65 -75 -65 -225v-74z" />
<glyph horiz-adv-x="2048" />
<glyph horiz-adv-x="2048" />
<glyph unicode="&#xd;" horiz-adv-x="2048" />
<glyph unicode=" "  horiz-adv-x="368" />
<glyph unicode="&#x09;" horiz-adv-x="368" />
<glyph unicode="&#xa0;" horiz-adv-x="368" />
<glyph unicode="!" horiz-adv-x="749" d="M266 90q0 59 24 82t72 23h23q48 0 73 -23t25 -82q0 -60 -16 -81t-59 -21h-66q-42 0 -59 21.5t-17 80.5zM295 1452q0 18 17.5 26.5t64.5 8.5t62.5 -8t15.5 -27l-25 -1001q0 -17 -12 -24t-43 -7t-43.5 7t-12.5 24z" />
<glyph unicode="&#x22;" horiz-adv-x="1021" d="M188 1458q0 21 13 29t57 8q47 0 60.5 -7.5t13.5 -29.5l-15 -532q0 -17 -12.5 -24t-44.5 -7q-31 0 -43 7t-12 24zM690 1458q0 21 13 29t57 8q47 0 60.5 -7.5t13.5 -29.5l-15 -532q0 -17 -12.5 -24t-44.5 -7q-31 0 -43 7t-12 24z" />
<glyph unicode="#" horiz-adv-x="1622" d="M102 432q0 35 6 46t29 11h217l121 486h-174q-23 0 -29 10.5t-6 46.5q0 35 6.5 46.5t28.5 11.5h203l92 368q3 14 19 20.5t55 6.5q35 0 46.5 -7t6.5 -26l-90 -362h528l92 368q3 14 19 20.5t57 6.5q34 0 45 -7t8 -26l-92 -362h195q22 0 28.5 -11.5t6.5 -46.5q0 -36 -6 -46.5 t-29 -10.5h-221l-121 -486h207q22 0 28 -11t6 -46q0 -36 -5.5 -46.5t-28.5 -10.5h-236l-88 -363q-3 -14 -18.5 -20t-55.5 -6q-38 0 -49.5 6t-5.5 24l86 359h-526l-88 -363q-3 -14 -18.5 -20t-55.5 -6q-38 0 -49.5 6t-5.5 24l86 359h-189q-23 0 -29 10.5t-6 46.5zM485 489 h527l121 486h-527z" />
<glyph unicode="$" horiz-adv-x="1429" d="M197 193v124q0 20 14 27.5t59 7.5q47 0 60.5 -8t13.5 -27v-174q180 -41 363 -41q148 0 228.5 31t112 96t31.5 185q0 82 -29.5 133.5t-102.5 87t-204 57.5l-163 29q-195 35 -279 123.5t-84 247.5v12q0 361 442 381v135q0 19 14.5 27t55.5 8q43 0 57.5 -8t14.5 -27v-135 q125 -7 260 -51q80 -27 105.5 -57t25.5 -91v-74q0 -33 -14.5 -44t-61.5 -11q-44 0 -58 8t-14 27v123q-84 32 -157.5 45.5t-169.5 13.5q-193 0 -271.5 -62t-78.5 -212q0 -78 23.5 -123t90 -78t195.5 -57l174 -33q204 -38 293.5 -126.5t89.5 -250.5v-14q0 -107 -21.5 -181 t-74.5 -130t-144.5 -84.5t-228.5 -34.5v-154q0 -19 -14.5 -27t-57.5 -8q-41 0 -55 7.5t-14 27.5v154q-139 3 -271 30q-89 18 -122 56.5t-33 118.5z" />
<glyph unicode="%" horiz-adv-x="2035" d="M94 1063v39q0 385 381 385q377 0 377 -385v-39q0 -190 -92.5 -286.5t-284.5 -96.5q-381 0 -381 383zM215 1073q0 -156 60.5 -227.5t199.5 -71.5t197.5 71t58.5 228v21q0 157 -58.5 228t-197.5 71t-199.5 -71.5t-60.5 -227.5v-21zM420 -2q-12 10 4 33l1059 1429 q20 27 94 27q24 0 36 -5t12 -13.5t-7 -18.5l-1055 -1436q-19 -26 -92 -26q-39 0 -51 10zM1184 371v39q0 385 381 385q377 0 377 -385v-39q0 -190 -92.5 -286.5t-284.5 -96.5q-381 0 -381 383zM1305 381q0 -156 60.5 -227.5t199.5 -71.5t197.5 71t58.5 228v20 q0 157 -58.5 228t-197.5 71t-199.5 -71.5t-60.5 -227.5v-20z" />
<glyph unicode="&#x26;" horiz-adv-x="1452" d="M111 381v14q0 292 270 365v22q-211 63 -211 326v14q0 377 522 377q190 0 346 -47q76 -23 99.5 -51t23.5 -94v-150q0 -19 -12 -27t-53 -8q-40 0 -54 8t-14 27v184q-169 48 -346 48q-199 0 -284 -69t-85 -208v-8q0 -129 71.5 -210t207.5 -81q20 0 26.5 -10.5t6.5 -42.5 t-7 -42.5t-28 -10.5q-172 0 -253 -79.5t-81 -234.5v-6q0 -103 40.5 -167.5t137.5 -99t258 -34.5q122 0 206.5 20t132.5 60t68.5 91.5t20.5 121.5v6q0 124 -52 192t-183 109q-28 7 -36.5 21t-8.5 49q0 37 6 48t28 11h498q21 0 28 -12.5t7 -46.5q0 -32 -7 -44t-28 -12h-272 v-18q81 -34 123.5 -106.5t42.5 -198.5v-15q0 -83 -34 -151.5t-103.5 -122t-185 -83.5t-267.5 -30q-154 0 -266 31t-176 87.5t-93.5 127.5t-29.5 160z" />
<glyph unicode="'" horiz-adv-x="520" d="M188 1458q0 21 13 29t57 8q47 0 60.5 -7.5t13.5 -29.5l-15 -532q0 -17 -12.5 -24t-44.5 -7q-31 0 -43 7t-12 24z" />
<glyph unicode="(" horiz-adv-x="765" d="M205 612v103q0 276 31.5 470t93 305.5t142.5 160.5t190 49h14q22 0 28.5 -9.5t6.5 -41.5q0 -34 -6.5 -44t-28.5 -10h-19q-77 0 -134.5 -47t-99.5 -149.5t-63.5 -273.5t-21.5 -410v-76q0 -232 25.5 -405t71.5 -274.5t105.5 -150.5t133.5 -49h14q23 0 30 -10t7 -41 q0 -34 -7 -43.5t-30 -9.5h-22q-109 0 -192 51.5t-144.5 163t-93 297.5t-31.5 444z" />
<glyph unicode=")" horiz-adv-x="763" d="M41 -291q0 31 6.5 41t28.5 10h24q326 0 326 863v77q0 202 -14 354t-40 255t-66 167t-89.5 91.5t-114.5 27.5h-12q-23 0 -30 10t-7 44q0 32 7 41.5t30 9.5h19q112 0 191.5 -46t139.5 -155t89.5 -300t29.5 -470v-102q0 -274 -31 -464.5t-93 -300.5t-145 -158t-196 -48h-18 q-22 0 -28.5 9.5t-6.5 43.5z" />
<glyph unicode="*" horiz-adv-x="966" d="M131.5 938.5q-0.5 12.5 13.5 24.5l127 73q58 34 121 49v17q-77 24 -123 51l-123 72q-22 15 0 61q14 25 25.5 34t30.5 1l127 -76q62 -38 100 -82l16 11q-20 61 -20 129v151q0 29 57 29q28 0 42 -6t14 -23v-151q0 -73 -21 -129l17 -11q50 57 100 84l131 74q16 8 27.5 -1 t25.5 -34q13 -24 14.5 -36t-12.5 -25l-131 -74q-47 -28 -123 -49v-21q78 -14 123 -45l129 -78q10 -7 11.5 -16.5t-2 -18t-11.5 -26.5q-8 -13 -13 -19.5t-12.5 -14t-13.5 -5.5t-16 6l-131 80q-59 42 -94 82l-19 -12q21 -56 21 -129v-148q0 -17 -13.5 -22.5t-42.5 -5.5 q-30 0 -43.5 5.5t-13.5 22.5v150q0 72 18 127l-14 10q-53 -57 -100 -82l-127 -76q-16 -10 -29 0.5t-29 36.5q-13 23 -13.5 35.5z" />
<glyph unicode="+" horiz-adv-x="1513" d="M168 735q0 36 6.5 48t28.5 12h485v493q0 22 13.5 28.5t54.5 6.5t54 -6t13 -29v-493h488q22 0 28.5 -12t6.5 -48q0 -35 -6.5 -47t-28.5 -12h-488v-490q0 -22 -12.5 -28t-54.5 -6t-55 6t-13 28v490h-485q-22 0 -28.5 12t-6.5 47z" />
<glyph unicode="," horiz-adv-x="524" d="M156 84q0 62 27 86.5t77 24.5h16q47 0 74 -26.5t27 -96.5q0 -166 -70 -316q-12 -30 -24.5 -38.5t-38.5 -8.5h-39q-45 0 -29 43q38 103 49 242q-34 9 -51.5 28t-17.5 62z" />
<glyph unicode="-" horiz-adv-x="604" d="M82 514q0 33 6 43t29 10h370q23 0 29 -10t6 -43q0 -32 -6.5 -43.5t-28.5 -11.5h-370q-22 0 -28.5 11.5t-6.5 43.5z" />
<glyph unicode="." horiz-adv-x="512" d="M147 90q0 59 25.5 82t73.5 23h22q48 0 72.5 -23t24.5 -82t-16.5 -80.5t-59.5 -21.5h-66q-41 0 -58.5 22t-17.5 80z" />
<glyph unicode="/" horiz-adv-x="1212" d="M25 -319l933 1853q14 27 86 27q36 0 49.5 -8t4.5 -25l-932 -1852q-13 -26 -86 -26q-36 0 -50 6.5t-5 24.5z" />
<glyph unicode="0" horiz-adv-x="1406" d="M133 707v59q0 350 144.5 541.5t424.5 191.5t425 -191.5t145 -541.5v-59q0 -357 -144 -544.5t-426 -187.5t-425.5 187.5t-143.5 544.5zM287 719q0 -315 110.5 -472t304.5 -157t305 157.5t111 471.5v35q0 321 -110 475.5t-306 154.5t-305.5 -154.5t-109.5 -475.5v-35z" />
<glyph unicode="1" horiz-adv-x="1323" d="M169.5 1084.5q-1.5 16.5 14.5 27.5l348 303q41 36 65.5 48t61.5 12h70q57 0 74.5 -16t17.5 -68v-1276h312q22 0 28 -11t6 -47q0 -35 -6 -46t-28 -11h-820q-22 0 -28 11t-6 46q0 36 6 47t28 11h363v1003q0 127 20 250h-28l-410 -354q-14 -13 -28 -7.5t-37 33.5 q-22 28 -23.5 44.5z" />
<glyph unicode="2" horiz-adv-x="1392" d="M172 55v64q0 39 21.5 72.5t82.5 82.5l502 396q148 116 207 206t59 185v14q0 165 -93 235t-314 70q-72 0 -158.5 -15.5t-148.5 -37.5v-205q0 -19 -13 -27t-59 -8q-44 0 -58 7.5t-14 27.5v146q0 82 27.5 119t99.5 61q155 51 377 51q264 0 387 -100t123 -309v-29 q0 -226 -317 -479l-359 -289q-108 -86 -215 -137v-27h869q24 0 31.5 -13t7.5 -55q0 -38 -7.5 -49.5t-31.5 -11.5h-906q-64 0 -82 11t-18 44z" />
<glyph unicode="3" horiz-adv-x="1349" d="M147 184v107q0 33 14.5 44t61.5 11q45 0 59.5 -8t14.5 -27v-184q139 -29 299 -29q242 0 341 68t99 225v8q0 155 -96.5 229t-308.5 74h-193q-22 0 -28.5 11.5t-6.5 48.5q0 35 6.5 45t28.5 10h172q375 0 375 289v6q0 140 -84.5 202t-277.5 62q-188 0 -297 -33v-157 q0 -19 -14.5 -27t-59.5 -8q-47 0 -61.5 11t-14.5 44v74q0 77 28 115.5t101 60.5q148 43 338 43q236 0 365 -96t129 -270v-15q0 -135 -63 -224t-181 -110v-26q297 -64 297 -365v-14q0 -192 -149.5 -298t-456.5 -106q-178 0 -291 29q-84 22 -115 59t-31 121z" />
<glyph unicode="4" horiz-adv-x="1384" d="M86 522v25q0 31 14.5 58.5t89.5 135.5l494 713q14 20 32 26.5t64 6.5q44 0 57 -10.5t-1 -32.5l-471 -688q-66 -95 -148 -150v-20h682v323q0 18 15.5 26.5t58.5 8.5q44 0 57.5 -8t13.5 -27v-323h207q23 0 29 -10.5t6 -45.5t-6.5 -47t-28.5 -12h-207v-356h181 q22 0 28.5 -11.5t6.5 -46.5t-6 -46t-29 -11h-596q-23 0 -29 11t-6 46t6.5 46.5t28.5 11.5h270v356h-715q-60 0 -79 10.5t-19 40.5z" />
<glyph unicode="5" horiz-adv-x="1374" d="M168 178v105q0 33 15.5 44t62.5 11q44 0 58.5 -8t14.5 -27v-174q139 -31 318 -31q249 0 348.5 74t99.5 240v8q0 169 -103 251.5t-327 82.5q-123 0 -231 -16.5t-119 -16.5q-58 0 -75 16t-17 66v588q0 51 17.5 67.5t72.5 16.5h819q57 0 77 -16.5t20 -65.5v-199 q0 -18 -15 -26.5t-57 -8.5t-57 8.5t-15 28.5v164h-717v-518q147 30 295 30q298 0 442 -109.5t144 -330.5v-16q0 -108 -34 -187.5t-109 -137.5t-201.5 -87t-304.5 -29q-157 0 -275 27q-81 21 -114 59.5t-33 116.5z" />
<glyph unicode="6" horiz-adv-x="1419" d="M172 623v47q0 397 165.5 613t493.5 216q167 0 263 -35q66 -23 91 -54t25 -87v-66q0 -33 -14 -44t-59 -11q-43 0 -57.5 8t-14.5 27v117q-108 32 -254 32q-226 0 -345 -152t-142 -495h24q75 75 168 109.5t234 34.5q250 0 377.5 -118t127.5 -337v-18q0 -93 -32 -170.5 t-95 -137.5t-166.5 -93.5t-238.5 -33.5q-289 0 -420 159.5t-131 488.5zM326 631q0 -206 44.5 -325t133 -167.5t237.5 -48.5q175 0 268 84t93 232v16q0 180 -94 262t-295 82q-219 0 -387 -117v-18z" />
<glyph unicode="7" horiz-adv-x="1320" d="M106 1104v285q0 52 19 69t78 17h917q65 0 84 -11t19 -45v-24q0 -39 -12.5 -73t-57.5 -110l-496 -841q-52 -88 -69 -136t-17 -100v-110q0 -19 -12.5 -27t-58.5 -8q-44 0 -59 7.5t-15 27.5v118q0 123 100 287l404 682q70 121 168 227v21h-854v-256q0 -18 -14.5 -26.5 t-55.5 -8.5q-40 0 -54 8t-14 27z" />
<glyph unicode="8" horiz-adv-x="1429" d="M152 381v14q0 302 288 363v26q-113 22 -172 107t-59 225v17q0 85 26 149.5t83 114.5t157 76t240 26q141 0 240.5 -26t156.5 -76t82 -114.5t25 -149.5v-17q0 -140 -59 -225t-173 -107v-26q291 -64 291 -363v-14q0 -189 -139 -297.5t-424 -108.5q-288 0 -425.5 108 t-137.5 298zM303 387q0 -60 12 -105.5t41 -82.5t76 -60.5t117.5 -36t165.5 -12.5q118 0 198.5 19t127 58t66 92t19.5 128v8q0 160 -98.5 235t-312.5 75q-213 0 -312.5 -77t-99.5 -233v-8zM358 1110q0 -143 92 -219t265 -76q171 0 262.5 77.5t91.5 217.5v8q0 139 -83 202.5 t-271 63.5t-272.5 -63.5t-84.5 -202.5v-8z" />
<glyph unicode="9" horiz-adv-x="1402" d="M164 1028v21q0 97 29.5 176.5t91 142t166 97t243.5 34.5q271 0 404 -156.5t133 -482.5v-57q0 -414 -167.5 -621t-483.5 -207q-188 0 -289 29q-69 20 -95 51t-26 86v109q0 33 14.5 44t59.5 11q43 0 57 -8t14 -27v-145q106 -33 285 -33q115 0 198 34t144 110.5t93.5 204 t39.5 311.5h-24q-70 -71 -162.5 -105.5t-233.5 -34.5q-240 0 -365.5 110t-125.5 306zM317 1047q0 -160 86.5 -240t288.5 -80q118 0 205 25t180 90v18q0 269 -98 396.5t-305 127.5q-176 0 -266.5 -83t-90.5 -236v-18z" />
<glyph unicode=":" horiz-adv-x="514" d="M147 92q0 58 25 80.5t74 22.5h22q49 0 74 -22t25 -81q0 -60 -17 -82t-61 -22h-66q-42 0 -59 22t-17 82zM150 907q0 55 25 78t71 23h22q46 0 70 -22t24 -79q0 -59 -15.5 -80.5t-57.5 -21.5h-66q-40 0 -56.5 22t-16.5 80z" />
<glyph unicode=";" horiz-adv-x="522" d="M156 84q0 62 26.5 86.5t75.5 24.5h16q48 0 74.5 -26t26.5 -97q0 -163 -68 -316q-13 -30 -25 -38.5t-38 -8.5h-41q-42 0 -29 43q41 110 51 242q-35 8 -52 27t-17 63zM158 903q0 56 24.5 78.5t71.5 22.5h22q47 0 72 -22t25 -79q0 -59 -17 -80.5t-59 -21.5h-66 q-41 0 -57 21.5t-16 80.5z" />
<glyph unicode="&#x3c;" horiz-adv-x="1323" d="M168 694v66q0 47 53 84l834 545q23 12 35 4.5t32 -39.5q14 -22 18 -33.5t0 -21t-20 -19.5l-844 -532v-25l857 -545q12 -7 17 -13t4 -15t-5 -17.5t-14 -26.5q-18 -31 -32 -37.5t-36 7.5l-846 530q-53 32 -53 88z" />
<glyph unicode="=" horiz-adv-x="1513" d="M168 469q0 35 6 46t29 11h1108q23 0 29 -11t6 -46t-6 -45t-29 -10h-1108q-23 0 -29 10t-6 45zM168 1001q0 35 6.5 46.5t28.5 11.5h1108q22 0 28.5 -11.5t6.5 -46.5t-6 -45t-29 -10h-1108q-23 0 -29 10t-6 45z" />
<glyph unicode="&#x3e;" horiz-adv-x="1308" d="M170 152.5q-4 11.5 0 21t20 19.5l844 534v23l-839 534q-23 15 -23.5 28.5t18.5 43.5q17 31 31 36.5t37 -8.5l829 -522q54 -33 54 -86v-65q0 -49 -54 -84l-829 -541q-25 -13 -36.5 -6.5t-33.5 39.5q-14 22 -18 33.5z" />
<glyph unicode="?" horiz-adv-x="1320" d="M123 1118v154q0 121 104 162q74 29 190 47t238 18q291 0 427.5 -86t136.5 -262v-33q0 -109 -52 -185.5t-163 -137.5l-140 -76q-113 -61 -142.5 -98.5t-29.5 -108.5v-29q0 -40 -14.5 -51.5t-61.5 -11.5q-45 0 -58 11t-13 50v23q0 102 37.5 164t134.5 114l149 80 q119 63 158 114t39 146v11q0 131 -99.5 188t-326.5 57q-191 0 -371 -59v-201q0 -19 -14.5 -27t-56.5 -8q-41 0 -56.5 8t-15.5 27zM506 90q0 59 24 82t72 23h23q48 0 73 -23t25 -82t-17 -80.5t-59 -21.5h-65q-42 0 -59 21.5t-17 80.5z" />
<glyph unicode="@" horiz-adv-x="2156" d="M111 516v66q0 455 244.5 686t758.5 231q488 0 712 -196t224 -609v-26q0 -222 -38.5 -347t-118.5 -176t-220 -51q-85 0 -150 34t-102 97h-22q-107 -131 -340 -131q-185 0 -285 73.5t-100 205.5v8q0 134 105.5 213.5t312.5 79.5q163 0 272 -82h22v88q0 145 -63 202.5 t-227 57.5q-141 0 -295 -51q-21 -6 -32 2.5t-21 40.5q-7 21 -8 33t4 19.5t18 12.5q68 27 164.5 44.5t187.5 17.5q205 0 303.5 -89.5t98.5 -277.5v-258q0 -129 43 -181t147 -52q55 0 93.5 20.5t68.5 71.5t44.5 143t14.5 228v18q0 182 -44.5 313.5t-142.5 222.5t-255.5 135 t-380.5 44q-235 0 -402 -53t-270.5 -160.5t-151 -261.5t-47.5 -365v-22q0 -398 197 -584.5t614 -186.5q190 0 347 43q18 5 26.5 -2.5t14.5 -37.5q6 -31 2 -40.5t-23 -15.5q-61 -21 -165 -35t-214 -14q-219 0 -387 50t-288.5 153t-183 267t-62.5 384zM815 377 q0 -80 65.5 -128t196.5 -48q149 0 230.5 49t81.5 135q0 84 -78 132t-213 48q-146 0 -214.5 -48t-68.5 -132v-8z" />
<glyph unicode="A" horiz-adv-x="1777" d="M53 57q0 36 7 47t28 11h113l544 1276q27 62 46 79t65 17h37q46 0 67.5 -18t47.5 -78l573 -1276h117q21 0 28 -11t7 -47t-7 -46.5t-28 -10.5h-471q-21 0 -28 10.5t-7 46.5t7 47t28 11h180l-160 379h-741l-154 -379h197q22 0 28.5 -10.5t6.5 -47.5q0 -36 -6.5 -46.5 t-28.5 -10.5h-461q-21 0 -28 10.5t-7 46.5zM555 608h645l-211 496q-67 154 -102 274h-25q-33 -128 -96 -274z" />
<glyph unicode="B" horiz-adv-x="1460" d="M115 57q0 36 7 47t28 11h104v1245h-104q-21 0 -28 10.5t-7 46.5t7 47t28 11h563q292 0 437.5 -94.5t145.5 -262.5v-14q0 -122 -63 -209t-180 -111v-26q149 -30 223 -118t74 -245v-14q0 -190 -143.5 -298t-442.5 -108q-117 0 -193 20.5t-147 65.5h-25q-3 -32 -23 -46.5 t-71 -14.5h-155q-21 0 -28 10.5t-7 46.5zM399 152q154 -62 365 -62q166 0 262 35t133 99t37 169v8q0 108 -41 172t-142.5 96.5t-279.5 32.5h-334v-550zM399 817h316q230 0 330 69.5t100 207.5v8q0 86 -41 141.5t-142 86t-268 30.5h-295v-543z" />
<glyph unicode="C" horiz-adv-x="1470" d="M127 729v43q0 343 186.5 535t536.5 192q194 0 358 -51q78 -23 102.5 -50.5t24.5 -92.5v-164q0 -19 -13 -27t-54 -8q-42 0 -56 8t-14 27v198q-161 45 -352 45q-296 0 -430.5 -153.5t-134.5 -460.5v-27q0 -335 149 -494t475 -159q167 0 328 37q28 6 38 -2t19 -45 q7 -31 1.5 -43.5t-27.5 -18.5q-59 -17 -173.5 -30t-195.5 -13q-167 0 -296 34t-217.5 97t-146 157t-83 208.5t-25.5 257.5z" />
<glyph unicode="D" horiz-adv-x="1550" d="M115 57q0 36 7 47t28 11h104v1245h-104q-21 0 -28 10.5t-7 46.5t7 47t28 11h499q774 0 774 -713v-47q0 -159 -44 -287.5t-133 -225.5t-235 -149.5t-339 -52.5h-522q-21 0 -28 10.5t-7 46.5zM399 115h277q303 0 448.5 148.5t145.5 461.5v25q0 316 -155.5 463t-481.5 147 h-234v-1245z" />
<glyph unicode="E" horiz-adv-x="1452" d="M115 57q0 36 7 47t28 11h104v1245h-104q-21 0 -28 10.5t-7 46.5t6.5 47t25.5 11h1084q57 0 74.5 -16t17.5 -66v-242q0 -19 -13 -27t-55 -8t-55.5 8t-13.5 27v209h-787v-551h574v111q0 19 12.5 26.5t54.5 7.5t55 -7.5t13 -26.5v-342q0 -19 -13 -27t-55 -8q-41 0 -54 8 t-13 27v120h-574v-583h801v209q0 18 14 26t56 8t54.5 -7.5t12.5 -26.5v-242q0 -50 -18.5 -66t-75.5 -16h-1093q-21 0 -28 10.5t-7 46.5z" />
<glyph unicode="F" horiz-adv-x="1419" d="M115 57q0 36 7 47t28 11h104v1245h-104q-21 0 -28 10.5t-7 46.5t7 47t28 11h1089q57 0 75.5 -16t18.5 -66v-254q0 -35 -67 -35q-70 0 -70 35v221h-797v-590h580v109q0 17 14.5 25.5t55.5 8.5q42 0 54.5 -7.5t12.5 -26.5v-342q0 -19 -13 -27t-54 -8q-42 0 -56 8t-14 27 v118h-580v-540h162q21 0 28 -11t7 -47t-7 -46.5t-28 -10.5h-411q-21 0 -28 10.5t-7 46.5z" />
<glyph unicode="G" horiz-adv-x="1591" d="M127 709v43q0 358 199.5 552.5t552.5 194.5q90 0 211 -16t180 -35q72 -22 97.5 -52.5t25.5 -99.5v-137q0 -18 -16 -26.5t-58 -8.5t-57 8.5t-15 26.5v176q-179 49 -375 49q-297 0 -444 -155t-147 -479v-29q0 -326 157 -474.5t496 -148.5q190 0 323 41v516h-454 q-21 0 -28 13t-7 45q0 33 7 45t28 12h497q63 0 83 -15.5t20 -66.5v-653q0 -20 -15 -28.5t-55 -8.5q-31 0 -46 12t-23 39h-25q-124 -74 -334 -74q-390 0 -584 181.5t-194 552.5z" />
<glyph unicode="H" horiz-adv-x="1710" d="M115 57q0 36 7 47t28 11h104v1245h-104q-21 0 -28 10.5t-7 46.5t7 47t28 11h354q21 0 28 -11t7 -47t-7 -46.5t-28 -10.5h-105v-543h912v543h-105q-21 0 -28 10.5t-7 46.5t7 47t28 11h355q21 0 27.5 -11t6.5 -47t-6.5 -46.5t-27.5 -10.5h-105v-1245h105q21 0 27.5 -11 t6.5 -47t-6.5 -46.5t-27.5 -10.5h-355q-21 0 -28 10.5t-7 46.5t7 47t28 11h105v587h-912v-587h105q21 0 28 -11t7 -47t-7 -46.5t-28 -10.5h-354q-21 0 -28 10.5t-7 46.5z" />
<glyph unicode="I" horiz-adv-x="653" d="M115 57q0 36 7 47t28 11h104v1245h-104q-21 0 -28 10.5t-7 46.5t7 47t28 11h354q21 0 28 -11t7 -47t-7 -46.5t-28 -10.5h-105v-1245h105q21 0 28 -11t7 -47t-7 -46.5t-28 -10.5h-354q-21 0 -28 10.5t-7 46.5z" />
<glyph unicode="J" horiz-adv-x="987" d="M80 46q0 12 8 42q10 33 22.5 42t34.5 1q104 -35 211 -35q151 0 214 68.5t63 228.5v967h-170q-21 0 -28 10.5t-7 46.5t7 47t28 11h424q21 0 28 -11t7 -47t-7 -46.5t-28 -10.5h-109v-952q0 -218 -104.5 -325.5t-333.5 -107.5q-64 0 -131 13t-111 35q-18 9 -18 23z" />
<glyph unicode="K" horiz-adv-x="1503" d="M115 57q0 36 7 47t28 11h104v1245h-104q-21 0 -28 10.5t-7 46.5t7 47t28 11h354q21 0 28 -11t7 -47t-7 -46.5t-28 -10.5h-105v-561h312l403 561h-158q-21 0 -27.5 10.5t-6.5 46.5t6.5 47t27.5 11h441q21 0 28 -11t7 -47t-7 -46.5t-28 -10.5h-137l-418 -594l454 -651h119 q21 0 28 -11t7 -47t-7 -46.5t-28 -10.5h-129q-54 0 -86 19.5t-65 68.5l-408 596h-328v-569h105q21 0 28 -11t7 -47t-7 -46.5t-28 -10.5h-354q-21 0 -28 10.5t-7 46.5z" />
<glyph unicode="L" horiz-adv-x="1343" d="M115 57q0 36 7 47t28 11h104v1245h-104q-21 0 -28 10.5t-7 46.5t7 47t28 11h397q21 0 28 -11t7 -47t-7 -46.5t-28 -10.5h-148v-1245h742v245q0 19 13.5 27t55.5 8t55 -8t13 -27v-278q0 -50 -18.5 -66t-75.5 -16h-1034q-21 0 -28 10.5t-7 46.5z" />
<glyph unicode="M" horiz-adv-x="2039" d="M86 57q0 36 7 47t28 11h102l99 1245h-107q-21 0 -28 10.5t-7 46.5t7 47t28 11h225q57 0 82 -13.5t39 -46.5l367 -891q52 -127 90 -307h26q19 173 70 305l342 893q13 32 40.5 46t86.5 14h229q21 0 28 -11t7 -47t-7 -46.5t-28 -10.5h-104l100 -1245h111q21 0 28 -11t7 -47 t-7 -46.5t-28 -10.5h-451q-21 0 -27.5 10.5t-6.5 46.5t6.5 47t27.5 11h183l-88 1247h-27q-19 -159 -72 -295l-338 -887q-12 -35 -28.5 -51t-50.5 -16h-29q-40 0 -61 15.5t-37 51.5l-369 922q-44 111 -57 260h-29l-86 -1247h192q21 0 28 -11t7 -47t-7 -46.5t-28 -10.5h-450 q-21 0 -28 10.5t-7 46.5z" />
<glyph unicode="N" horiz-adv-x="1634" d="M115 57q0 36 7 47t28 11h104v1245h-104q-21 0 -28 10.5t-7 46.5t7 47t28 11h241q44 0 69.5 -10.5t43.5 -39.5l581 -946q97 -160 191 -360h27v1241h-177q-21 0 -27.5 10.5t-6.5 46.5t6.5 47t27.5 11h412q21 0 28 -11t7 -47t-7 -46.5t-28 -10.5h-104v-1323 q0 -26 -14.5 -36.5t-49.5 -10.5h-82q-50 0 -72 10.5t-42 44.5l-603 993q-92 153 -159 324h-27v-1247h176q21 0 28 -11t7 -47t-7 -46.5t-28 -10.5h-411q-21 0 -28 10.5t-7 46.5z" />
<glyph unicode="O" d="M127 709v57q0 354 167.5 543.5t502.5 189.5t502 -189.5t167 -543.5v-57q0 -354 -167 -544t-502 -190t-502.5 190t-167.5 544zM281 719q0 -316 132.5 -472.5t383.5 -156.5t383.5 156.5t132.5 472.5v35q0 316 -132.5 473t-383.5 157t-383.5 -157t-132.5 -473v-35z" />
<glyph unicode="P" horiz-adv-x="1359" d="M115 57q0 36 7 47t28 11h104v1245h-104q-21 0 -28 10.5t-7 46.5t7 47t28 11h483q653 0 653 -439v-16q0 -457 -565 -457q-180 0 -297 47h-25v-495h185q21 0 27.5 -11t6.5 -47t-6.5 -46.5t-27.5 -10.5h-434q-21 0 -28 10.5t-7 46.5zM399 700q101 -24 287 -24 q251 0 349 76.5t98 261.5v10q0 172 -122.5 254t-400.5 82h-211v-660z" />
<glyph unicode="Q" d="M127 709v57q0 354 167.5 543.5t502.5 189.5t502 -189.5t167 -543.5v-57q0 -474 -290 -643l86 -115q57 -75 114.5 -103t153.5 -28q62 0 141 14q24 5 33.5 -2.5t21.5 -40.5q10 -29 10 -43v-5q-3 -13 -22 -19q-79 -27 -201 -27q-127 0 -210 39.5t-152 132.5l-107 139 q-119 -33 -247 -33q-335 0 -502.5 190t-167.5 544zM281 719q0 -316 132.5 -472.5t383.5 -156.5t383.5 156.5t132.5 472.5v35q0 316 -132.5 473t-383.5 157t-383.5 -157t-132.5 -473v-35z" />
<glyph unicode="R" horiz-adv-x="1435" d="M115 57q0 36 7 47t28 11h104v1245h-104q-21 0 -28 10.5t-7 46.5t7 47t28 11h485q178 0 304.5 -28.5t200.5 -84.5t107 -130t33 -173v-31q0 -340 -352 -412l291 -501h104q21 0 28 -11t7 -47t-7 -46.5t-28 -10.5h-94q-77 0 -113.5 28.5t-97.5 139.5l-238 430h-381v-483h189 q21 0 28 -11t7 -47t-7 -46.5t-28 -10.5h-438q-21 0 -28 10.5t-7 46.5zM399 711h299q124 0 207.5 20t132 62t68.5 99.5t20 139.5v12q0 109 -47.5 176.5t-162.5 103.5t-308 36h-209v-649z" />
<glyph unicode="S" horiz-adv-x="1404" d="M131 186v127q0 19 14 27t56 8q41 0 54 -8t13 -27v-176q220 -47 424 -47q246 0 340 70t94 243q0 61 -16.5 104t-58.5 79.5t-118 61.5t-192 42l-182 27q-219 31 -312 121.5t-93 253.5v12q0 202 133 298.5t420 96.5q204 0 385 -53q86 -26 112.5 -56t26.5 -96v-94 q0 -19 -13 -27t-55 -8t-55.5 8t-13.5 27v125q-96 33 -183.5 46t-205.5 13q-154 0 -246 -33t-128 -92t-36 -153q0 -81 27.5 -127t103.5 -77.5t223 -55.5l195 -31q226 -36 328 -131.5t102 -259.5v-18q0 -85 -14.5 -148t-53.5 -118.5t-105 -90.5t-170.5 -54.5t-248.5 -19.5 q-234 0 -399 33q-85 15 -118.5 53.5t-33.5 124.5z" />
<glyph unicode="T" horiz-adv-x="1482" d="M70 1149v244q0 50 18.5 66t75.5 16h1157q57 0 74.5 -16t17.5 -66v-244q0 -19 -13 -27t-54 -8q-42 0 -56 8t-14 27v211h-461v-1245h221q21 0 28 -11t7 -47t-7 -46.5t-28 -10.5h-585q-21 0 -28 10.5t-7 46.5t7 47t28 11h219v1245h-463v-211q0 -19 -13 -27t-55 -8t-55.5 8 t-13.5 27z" />
<glyph unicode="U" horiz-adv-x="1562" d="M66 1417q0 36 6.5 47t27.5 11h389q21 0 28 -11t7 -47t-7 -46.5t-28 -10.5h-149v-780q0 -138 28 -233t86.5 -151.5t139.5 -81t194 -24.5q222 0 328.5 111.5t106.5 357.5v801h-152q-21 0 -28 10.5t-7 46.5t7 47t28 11h395q21 0 28 -11t7 -47t-7 -46.5t-28 -10.5h-104v-778 q0 -305 -139 -456t-449 -151q-579 0 -579 586v799h-95q-21 0 -27.5 10.5t-6.5 46.5z" />
<glyph unicode="V" horiz-adv-x="1648" d="M25 1417q0 36 6.5 47t27.5 11h508q21 0 28 -11t7 -47t-7 -46.5t-28 -10.5h-229l358 -881q92 -221 127 -383h25q30 144 125 389l356 875h-262q-21 0 -28 10.5t-7 46.5t7 47t28 11h522q21 0 28 -11t7 -47t-7 -46.5t-28 -10.5h-119l-522 -1299q-19 -44 -39 -58.5t-53 -14.5 h-45q-33 0 -55 15t-41 60l-539 1297h-117q-21 0 -27.5 10.5t-6.5 46.5z" />
<glyph unicode="W" horiz-adv-x="2406" d="M25 1417q0 36 6.5 47t27.5 11h555q21 0 28 -11t7 -47t-7 -46.5t-28 -10.5h-262l258 -881q68 -218 97 -383h24q25 163 96 387l267 820q17 51 38.5 68.5t63.5 17.5h49q44 0 67.5 -17.5t41.5 -71.5l243 -817q72 -240 93 -387h24q26 173 92 383l260 881h-260 q-21 0 -27.5 10.5t-6.5 46.5t6.5 47t27.5 11h541q21 0 28 -11t7 -47t-7 -46.5t-28 -10.5h-137l-383 -1284q-16 -54 -38 -71t-63 -17h-49q-40 0 -63.5 19t-38.5 65l-270 891q-53 170 -76 307h-25q-28 -162 -76 -312l-288 -886q-14 -46 -36 -65t-54 -19h-74q-41 0 -64 18.5 t-37 69.5l-382 1284h-134q-21 0 -27.5 10.5t-6.5 46.5z" />
<glyph unicode="X" horiz-adv-x="1660" d="M82 57q0 36 7 47t28 11h119l473 645l-404 600h-115q-21 0 -27.5 10.5t-6.5 46.5t6.5 47t27.5 11h443q21 0 28 -11t7 -47t-7 -46.5t-28 -10.5h-158l352 -541h25l379 541h-164q-21 0 -28 10.5t-7 46.5t7 47t28 11h422q21 0 28 -11t7 -47t-7 -46.5t-28 -10.5h-103l-440 -604 l461 -641h133q21 0 28 -11t7 -47t-7 -46.5t-28 -10.5h-471q-21 0 -28 10.5t-7 46.5t7 47t28 11h178l-409 569h-25l-414 -569h193q21 0 28 -11t7 -47t-7 -46.5t-28 -10.5h-475q-21 0 -28 10.5t-7 46.5z" />
<glyph unicode="Y" horiz-adv-x="1523" d="M33 1417q0 36 7 47t28 11h473q21 0 27.5 -11t6.5 -47t-6.5 -46.5t-27.5 -10.5h-201l299 -479q69 -111 117 -240h24q52 136 119 240l305 479h-233q-21 0 -28 10.5t-7 46.5t7 47t28 11h481q21 0 28 -11t7 -47t-7 -46.5t-28 -10.5h-106l-508 -815v-430h209q21 0 27.5 -11 t6.5 -47t-6.5 -46.5t-27.5 -10.5h-566q-21 0 -28 10.5t-7 46.5t7 47t28 11h211v426l-520 819h-104q-21 0 -28 10.5t-7 46.5z" />
<glyph unicode="Z" horiz-adv-x="1347" d="M90 55v45q0 38 15.5 68t68.5 92l774 940q67 83 150 146v22h-848v-178q0 -19 -14 -27t-56 -8q-41 0 -54 8t-13 27v199q0 52 19.5 69t78.5 17h909q64 0 82.5 -10.5t18.5 -45.5v-39q0 -40 -16.5 -73t-65.5 -95l-768 -931q-63 -79 -156 -152v-23h905v216q0 19 13 26.5t55 7.5 t55.5 -7.5t13.5 -26.5v-236q0 -52 -18.5 -69t-77.5 -17h-968q-56 0 -79.5 11t-23.5 44z" />
<glyph unicode="[" horiz-adv-x="733" d="M188 -270v1896q0 46 21 60t90 14h301q20 0 26.5 -10t6.5 -41t-6.5 -41.5t-26.5 -10.5h-285v-1839h297q18 0 24.5 -10.5t6.5 -40.5q0 -31 -6 -41t-25 -10h-313q-69 0 -90 14t-21 60z" />
<glyph unicode="\" horiz-adv-x="1212" d="M115 1528q-9 17 4 25t49 8q75 0 88 -29l932 -1851q9 -17 -5 -24t-53 -7q-74 0 -88 26z" />
<glyph unicode="]" horiz-adv-x="733" d="M90 -293q0 30 6.5 40.5t24.5 10.5h297v1839h-287q-19 0 -25 10.5t-6 41.5t6 41t25 10h303q69 0 90 -14t21 -60v-1896q0 -46 -21 -60t-90 -14h-313q-19 0 -25 10t-6 41z" />
<glyph unicode="^" horiz-adv-x="1474" d="M172.5 812q-6.5 14 3.5 32l438 590q39 53 91 53h63q29 0 47 -11t43 -44l440 -590q22 -28 -24 -56q-32 -21 -47.5 -22t-22.5 12l-461 619h-24l-443 -625q-7 -15 -22.5 -13.5t-50.5 23.5q-24 18 -30.5 32z" />
<glyph unicode="_" horiz-adv-x="1159" d="M33 -406q0 31 6.5 41.5t26.5 10.5h1028q20 0 26 -10.5t6 -41.5q0 -32 -6 -42.5t-26 -10.5h-1028q-20 0 -26.5 11t-6.5 42z" />
<glyph unicode="`" horiz-adv-x="1024" d="M293 1417q-24 22 6 33q21 8 61 8q49 0 75.5 -8.5t49.5 -32.5l256 -272q21 -23 -17 -32l-34 -3q-59 0 -100 35z" />
<glyph unicode="a" horiz-adv-x="1179" d="M82 270v13q0 144 115 229.5t340 85.5q207 0 305 -98h22v102q0 162 -75 230.5t-248 68.5q-160 0 -328 -57q-19 -6 -30.5 3t-20.5 40q-11 32 -7 46t27 21q185 66 377 66q227 0 331.5 -95.5t104.5 -301.5v-459q0 -32 16 -45t54 -13h27q21 0 27.5 -10t6.5 -41q0 -34 -6 -44.5 t-28 -10.5h-54q-77 0 -114 24t-54 85h-22q-97 -134 -348 -134q-199 0 -308.5 81.5t-109.5 213.5zM225 283q0 -84 80.5 -140.5t237.5 -56.5q151 0 237 60t86 143q0 88 -85 145.5t-238 57.5q-158 0 -238 -56t-80 -145v-8z" />
<glyph unicode="b" horiz-adv-x="1277" d="M53 1411q0 35 14.5 49.5t49.5 14.5h125q43 0 61.5 -17t18.5 -63v-250q0 -145 -21 -295h23q101 170 360 170q226 0 356.5 -133.5t130.5 -360.5v-47q0 -223 -134.5 -363.5t-362.5 -140.5q-128 0 -220.5 36t-127.5 93h-23l-8 -79q-3 -23 -13 -29t-42 -6t-43 5.5t-11 24.5 v1309q0 20 -6.5 27.5t-27.5 7.5h-66q-19 0 -26 11t-7 36zM315 424q0 -159 89.5 -249.5t246.5 -90.5q182 0 279.5 109t97.5 303v14q0 196 -95.5 297.5t-264.5 101.5q-168 0 -260.5 -101.5t-92.5 -287.5v-96z" />
<glyph unicode="c" horiz-adv-x="1122" d="M106 494v22q0 239 141.5 371.5t418.5 132.5q166 0 272 -37q45 -16 63.5 -39.5t18.5 -71.5v-108q0 -19 -12.5 -27t-53.5 -8q-40 0 -52.5 7.5t-12.5 27.5v123q-102 26 -236 26q-210 0 -306.5 -102.5t-96.5 -300.5v-10q0 -209 99 -310.5t317 -101.5q141 0 282 29q25 4 35 -5 t16 -40q5 -29 1 -40t-25 -18q-43 -15 -139.5 -27t-190.5 -12q-276 0 -407.5 127.5t-131.5 391.5z" />
<glyph unicode="d" horiz-adv-x="1316" d="M106 465v49q0 227 129 366.5t371 139.5q122 0 205.5 -40t144.5 -126h23q-23 104 -23 244v231q0 22 -7 28.5t-27 6.5h-66q-19 0 -26 11t-7 36q0 35 14.5 49.5t49.5 14.5h125q43 0 61.5 -17t18.5 -63v-1231q0 -32 15.5 -45t55.5 -13h25q22 0 28.5 -10t6.5 -41 q0 -34 -6.5 -44.5t-28.5 -10.5h-62q-147 0 -168 119h-22q-42 -65 -132 -104.5t-222 -39.5q-217 0 -346.5 134t-129.5 356zM250 481q0 -180 86 -288.5t256 -108.5q175 0 273 88t98 258v92q0 194 -93 290.5t-264 96.5t-263.5 -106.5t-92.5 -302.5v-19z" />
<glyph unicode="e" horiz-adv-x="1177" d="M106 473v41q0 243 136 374.5t374 131.5q217 0 330 -114t113 -324v-27q0 -71 -15.5 -85.5t-93.5 -14.5h-700q8 -198 100 -282.5t305 -84.5q158 0 308 47q21 7 31.5 0.5t19.5 -37.5q10 -31 7.5 -44t-20.5 -19q-168 -60 -358 -60q-149 0 -254.5 35.5t-166.5 103t-88.5 155.5 t-27.5 204zM254 563h678q0 181 -82 265.5t-246 84.5q-174 0 -262 -91.5t-88 -258.5z" />
<glyph unicode="f" horiz-adv-x="751" d="M20 940q0 34 6 43.5t29 9.5h189v105q0 208 83 304.5t277 96.5q147 0 268 -57q15 -8 18 -20v-7q0 -12 -7 -35q-10 -29 -21.5 -36t-30.5 -1q-130 50 -233 50q-120 0 -169.5 -63.5t-49.5 -221.5v-115h293q23 0 29 -9.5t6 -43.5t-6.5 -43.5t-30.5 -9.5h-291v-776h213 q23 0 29 -10.5t6 -45.5t-6 -45t-29 -10h-475q-23 0 -29 10t-6 45t6 45.5t29 10.5h127v776h-189q-23 0 -29 9.5t-6 43.5z" />
<glyph unicode="g" horiz-adv-x="1228" d="M61 -150q0 153 138 228v22q-72 62 -72 162q0 57 30.5 110t86.5 89q-58 79 -58 192v25q0 154 108 248t320 94q161 0 269 -62q74 93 225 93q57 0 106 -17q25 -9 31 -22q3 -6 3 -15q0 -12 -5 -30q-7 -30 -17 -39t-24 -6q-51 14 -94 14q-90 0 -129 -57q63 -81 63 -201v-25 q0 -160 -109 -247t-319 -87q-186 0 -297 68q-57 -60 -57 -131q0 -68 57 -125q132 37 299 37q276 0 420 -81.5t144 -236.5v-20q0 -69 -27 -122.5t-88.5 -97.5t-173.5 -67.5t-270 -23.5q-127 0 -224.5 16t-160.5 43t-102.5 67.5t-56 85t-16.5 99.5v20zM201 -156v-12 q0 -102 96.5 -154.5t323.5 -52.5q154 0 248.5 25.5t132.5 70t38 111.5v12q0 103 -97.5 158t-321.5 55t-322 -55t-98 -158zM328 657q0 -114 68 -171.5t218 -57.5q141 0 214 63t73 171v12q0 126 -70 181.5t-219 55.5q-144 0 -214 -62.5t-70 -176.5v-15z" />
<glyph unicode="h" horiz-adv-x="1396" d="M94 55q0 35 6 45.5t29 10.5h121v1218q0 20 -7.5 27.5t-27.5 7.5h-74q-17 0 -24.5 10.5t-7.5 36.5q0 35 14 49.5t49 14.5h133q43 0 61.5 -17t18.5 -63v-256q0 -163 -18 -289h22q100 170 399 170q199 0 301.5 -109.5t102.5 -343.5v-456h125q23 0 29 -10.5t6 -45.5t-6 -45 t-29 -10h-383q-23 0 -29 10t-6 45t6 45.5t29 10.5h123v411q0 215 -68 303t-239 88q-178 0 -271.5 -93t-93.5 -263v-446h125q23 0 29 -10.5t6 -45.5t-6 -45t-29 -10h-381q-23 0 -29 10t-6 45z" />
<glyph unicode="i" horiz-adv-x="602" d="M94 55q0 35 6 45.5t29 10.5h104v737q0 20 -7 27.5t-27 7.5h-72q-18 0 -25.5 10.5t-7.5 36.5q0 35 14.5 49t49.5 14h131q43 0 61.5 -17t18.5 -63v-802h133q23 0 29 -10.5t6 -45.5t-6 -45t-29 -10h-373q-23 0 -29 10t-6 45zM193 1341q0 54 23 75.5t65 21.5h16 q42 0 64 -21.5t22 -75.5q0 -52 -13.5 -69t-50.5 -17h-61q-37 0 -51 17t-14 69z" />
<glyph unicode="j" horiz-adv-x="509" d="M-96 -442q-1 3 -1 7q0 14 9 40q12 31 22.5 39.5t30.5 3.5q74 -19 127 -19q73 0 101 33.5t28 120.5v1065q0 20 -7.5 27.5t-27.5 7.5h-71q-18 0 -25.5 10.5t-7.5 36.5q0 35 14 49t49 14h131q43 0 61.5 -17t18.5 -63v-1110q0 -74 -10.5 -123.5t-39 -88.5t-80.5 -56.5 t-132 -17.5q-96 0 -164 22q-23 7 -26 19zM180 1341q0 54 23 75.5t65 21.5h17q42 0 64 -21.5t22 -75.5q0 -52 -13.5 -69t-50.5 -17h-61q-37 0 -51.5 17t-14.5 69z" />
<glyph unicode="k" horiz-adv-x="1191" d="M94 55q0 35 6 45.5t29 10.5h104v1218q0 20 -7 27.5t-27 7.5h-72q-18 0 -25.5 10.5t-7.5 36.5q0 35 14.5 49.5t49.5 14.5h131q43 0 61.5 -17t18.5 -63v-811h229l231 299h-79q-23 0 -29 10t-6 45t6 45t29 10h321q23 0 29 -10t6 -45t-6 -45t-29 -10h-98l-283 -342l324 -430 h86q23 0 29 -10.5t6 -45.5t-6 -45t-29 -10h-92q-47 0 -71.5 13t-49.5 46l-303 418h-215v-366h137q23 0 29 -10.5t6 -45.5t-6 -45t-29 -10h-377q-23 0 -29 10t-6 45z" />
<glyph unicode="l" horiz-adv-x="614" d="M94 55q0 35 6 45.5t29 10.5h104v1218q0 20 -7 27.5t-27 7.5h-72q-18 0 -25.5 10.5t-7.5 36.5q0 35 14.5 49.5t49.5 14.5h131q43 0 61.5 -17t18.5 -63v-1284h133q23 0 29 -10.5t6 -45.5t-6 -45t-29 -10h-373q-23 0 -29 10t-6 45z" />
<glyph unicode="m" horiz-adv-x="2109" d="M94 55q0 35 6 45.5t29 10.5h104v737q0 21 -6.5 28t-25.5 7h-74q-19 0 -26 11t-7 36q0 36 14.5 49.5t49.5 13.5h108q45 0 63 -18.5t23 -61.5l6 -63h23q47 88 136 129t233 41q266 0 352 -186h24q45 90 146.5 138t253.5 48q204 0 291.5 -104.5t87.5 -315.5v-489h125 q22 0 28 -10.5t6 -45.5t-5.5 -45t-28.5 -10h-379q-23 0 -29 10t-6 45t6 45.5t29 10.5h118v458q0 199 -61 271.5t-221 72.5q-168 0 -260 -95.5t-92 -280.5v-426h127q22 0 28 -10.5t6 -45.5t-5.5 -45t-28.5 -10h-383q-23 0 -29 10t-6 45t6 45.5t29 10.5h122v458 q0 199 -62 271.5t-222 72.5q-168 0 -258 -89t-90 -267v-446h143q23 0 29 -10.5t6 -45.5t-6 -45t-29 -10h-383q-23 0 -29 10t-6 45z" />
<glyph unicode="n" horiz-adv-x="1378" d="M94 930q0 35 14.5 49t49.5 14h110q43 0 62.5 -18t23.5 -62l6 -63h23q51 88 144 129t249 41q204 0 301 -113.5t97 -339.5v-456h124q23 0 29 -10.5t6 -45.5t-6 -45t-29 -10h-383q-23 0 -28.5 10t-5.5 45t6 45.5t28 10.5h123v438q0 198 -72 281t-233 83q-174 0 -268 -92 t-94 -276v-434h143q23 0 29 -10.5t6 -45.5t-6 -45t-29 -10h-383q-23 0 -29 10t-6 45t6 45.5t29 10.5h105v737q0 21 -6.5 28t-26.5 7h-76q-18 0 -25.5 10.5t-7.5 36.5z" />
<glyph unicode="o" horiz-adv-x="1228" d="M106 485v23q0 251 128 381.5t380 130.5q250 0 379 -133.5t129 -378.5v-23q0 -247 -134 -378.5t-374 -131.5q-249 0 -378.5 134.5t-129.5 375.5zM250 489q0 -205 86 -308t278 -103t278.5 103t86.5 308v15q0 205 -86.5 307t-278.5 102t-278 -102t-86 -307v-15z" />
<glyph unicode="p" horiz-adv-x="1325" d="M94 -403q0 35 6 45t29 10h107v1196q0 20 -7 27.5t-28 7.5h-74q-33 0 -33 47q0 35 14.5 49t49.5 14h110q46 0 63.5 -18t22.5 -62l6 -63h23q51 79 144.5 124.5t220.5 45.5q215 0 343 -137.5t128 -356.5v-37q0 -111 -31.5 -204t-92 -162.5t-156.5 -108.5t-218 -39 q-232 0 -350 150h-23q23 -135 23 -295v-178h155q23 0 29 -10t6 -45t-6 -45.5t-29 -10.5h-397q-23 0 -29 10.5t-6 45.5zM365 455q0 -186 90 -277.5t256 -91.5q182 0 273 104t91 302v18q0 192 -92.5 296.5t-255.5 104.5q-169 0 -265.5 -106t-96.5 -285v-65z" />
<glyph unicode="q" horiz-adv-x="1292" d="M106 467v47q0 105 33 196t95.5 160.5t160.5 109.5t219 40q132 0 220.5 -37.5t126.5 -103.5h24l8 90q1 23 11.5 29t42.5 6t42.5 -5.5t10.5 -25.5v-1321h104q23 0 29 -10t6 -45t-6 -45.5t-29 -10.5h-397q-23 0 -29 10.5t-6 45.5t6 45t29 10h158v190q0 161 20 289h-22 q-56 -80 -145 -118t-228 -38q-123 0 -217.5 39.5t-151.5 108t-86 155.5t-29 189zM250 483q0 -190 93.5 -293.5t270.5 -103.5q175 0 266 97t91 282v84q0 175 -91.5 268.5t-248.5 93.5q-183 0 -282 -112t-99 -301v-15z" />
<glyph unicode="r" horiz-adv-x="901" d="M94 55q0 35 6 45.5t29 10.5h104v737q0 21 -6.5 28t-25.5 7h-74q-33 0 -33 47q0 36 14.5 49.5t49.5 13.5h108q43 0 63 -18t23 -62l6 -92h23q73 199 342 199q75 0 133 -21q19 -7 19 -24q0 -14 -9 -43q-10 -34 -21 -43t-32 -4q-61 14 -108 14q-169 0 -252.5 -102.5 t-83.5 -325.5v-360h139q23 0 29 -10.5t6 -45.5t-6 -45t-29 -10h-379q-23 0 -29 10t-6 45z" />
<glyph unicode="s" horiz-adv-x="1077" d="M94 137v84q0 20 13.5 27.5t54.5 7.5q43 0 56 -8t13 -27v-94q142 -45 314 -45q176 0 239.5 38.5t63.5 131.5q0 59 -26.5 95.5t-96 62.5t-197.5 43l-59 8q-189 26 -267.5 89t-78.5 183v8q0 65 22.5 114.5t71.5 87.5t133.5 57.5t202.5 19.5q52 0 141.5 -14t151.5 -33 q55 -19 75.5 -43t20.5 -70v-78q0 -19 -12 -26.5t-53 -7.5q-40 0 -53 7.5t-13 26.5v90q-154 43 -279 43q-151 0 -210.5 -39.5t-59.5 -132.5q0 -48 21 -74.5t86 -47.5t200 -43l52 -9q108 -18 179.5 -44t112.5 -65t57.5 -86t16.5 -114v-8q0 -69 -22 -118t-75.5 -86t-149 -55 t-236.5 -18q-157 0 -305 37q-59 14 -82 41t-23 84z" />
<glyph unicode="t" horiz-adv-x="858" d="M20 938q0 35 7 45t30 10h185v273q0 26 13 34.5t52 8.5q43 0 56.5 -8.5t13.5 -34.5v-273h332q23 0 29.5 -10t6.5 -45q0 -34 -6.5 -42.5t-29.5 -8.5h-332v-615q0 -99 40 -140.5t144 -41.5q81 0 184 29q20 5 29.5 -3t16.5 -40q4 -21 4 -33q0 -7 -1 -11q-4 -10 -22 -16 q-109 -41 -244 -41q-160 0 -223 70.5t-63 212.5v629h-185q-24 0 -30.5 9t-6.5 42z" />
<glyph unicode="u" horiz-adv-x="1337" d="M49 930q0 36 14.5 49.5t49.5 13.5h127q42 0 59.5 -16.5t17.5 -61.5v-473q0 -197 66.5 -276.5t234.5 -79.5q359 0 359 360v402q0 20 -7.5 27.5t-27.5 7.5h-65q-33 0 -33 47q0 36 14 49.5t49 13.5h127q41 0 59.5 -17t18.5 -61v-751q0 -33 14 -45.5t56 -12.5h26 q22 0 28.5 -9t6.5 -42q0 -34 -6.5 -44.5t-28.5 -10.5h-53q-78 0 -121.5 32t-58.5 103h-23q-47 -78 -130.5 -119t-223.5 -41q-115 0 -196.5 29t-129 86t-69 132t-21.5 175v451q0 20 -7.5 27.5t-27.5 7.5h-65q-33 0 -33 47z" />
<glyph unicode="v" horiz-adv-x="1226" d="M25 938q0 35 5.5 45t28.5 10h351q23 0 28.5 -10t5.5 -45t-5.5 -45t-28.5 -10h-121l262 -594q45 -100 59 -203h25q12 113 53 203l264 594h-129q-23 0 -29 10t-6 45t6 45t29 10h344q23 0 29 -10t6 -45t-6 -45t-29 -10h-80l-382 -844q-13 -28 -26.5 -39.5t-41.5 -11.5h-27 q-38 0 -55 10t-29 39l-389 846h-78q-23 0 -28.5 10t-5.5 45z" />
<glyph unicode="w" horiz-adv-x="1669" d="M25 938q0 35 5.5 45t28.5 10h361q23 0 29 -10t6 -45t-6 -45t-29 -10h-135l172 -584q30 -96 45 -195h20q18 100 49 197l172 578q9 26 25.5 35.5t50.5 9.5h51q35 0 51 -8.5t25 -34.5l170 -580q35 -130 45 -197h23q7 61 45 199l168 580h-164q-23 0 -29 10t-6 45t6 45t29 10 h377q23 0 29 -10t6 -45t-6 -45t-29 -10h-80l-260 -850q-9 -26 -25.5 -35.5t-50.5 -9.5h-47q-34 0 -51.5 10.5t-26.5 36.5l-176 588q-31 106 -39 192h-23q-10 -108 -38 -194l-177 -586q-7 -27 -23.5 -37t-51.5 -10h-64q-32 0 -48.5 10.5t-27.5 34.5l-266 850h-76 q-23 0 -28.5 10t-5.5 45z" />
<glyph unicode="x" horiz-adv-x="1366" d="M61 55q0 34 7 45t30 11h115l373 403l-324 369h-100q-23 0 -29 10t-6 45t6 45t29 10h368q23 0 29 -10t6 -45t-6 -45t-29 -10h-106l262 -303h23l252 303h-109q-23 0 -29 10t-6 45t6 45t29 10h367q23 0 28.5 -10t5.5 -45t-5.5 -45t-28.5 -10h-111l-326 -369l365 -403h123 q21 0 28 -11.5t7 -44.5t-7 -44t-28 -11h-420q-23 0 -30 11t-7 44q0 34 7 45t30 11h133l-289 333h-22l-307 -333h149q22 0 28.5 -11t6.5 -45t-6 -44.5t-29 -10.5h-416q-23 0 -30 11t-7 44z" />
<glyph unicode="y" horiz-adv-x="1208" d="M26 -426q0 12 13 45q14 36 37 36q5 0 12 -3q77 -29 154 -29q99 0 151.5 49.5t126.5 208.5l49 105q-18 0 -28 22l-410 875h-70q-23 0 -28.5 10t-5.5 45t5.5 45t28.5 10h361q23 0 29 -10t6 -45t-6 -45t-29 -10h-146l283 -594q44 -86 57 -187h23q20 110 55 187l260 594h-155 q-23 0 -29 10t-6 45t6 45t29 10h350q23 0 29 -10t6 -45t-6 -45t-29 -10h-64l-464 -1061q-43 -97 -80 -155t-83 -91.5t-95.5 -45t-124.5 -11.5q-108 0 -195 35q-17 8 -17 20z" />
<glyph unicode="z" horiz-adv-x="1146" d="M106 70v47q0 31 14.5 55t61.5 66l557 505q91 80 166 129v17h-663v-111q0 -19 -12.5 -27t-53.5 -8q-40 0 -52.5 7.5t-12.5 27.5v142q0 45 21.5 59t82.5 14h698q62 0 81.5 -12t19.5 -57v-39q0 -34 -12 -54.5t-64 -70.5l-590 -541q-59 -52 -125 -94v-21h680v138 q0 20 13.5 27t54.5 7q43 0 56 -7.5t13 -26.5v-168q0 -44 -22.5 -59t-83.5 -15h-727q-61 0 -81 13t-20 57z" />
<glyph unicode="{" horiz-adv-x="808" d="M86 678q0 29 6 39t25 10h8q74 0 118 78.5t44 216.5v207q0 266 78.5 368.5t289.5 102.5h47q19 0 25 -10t6 -41t-6 -41.5t-25 -10.5h-28q-78 0 -124 -13t-78.5 -52.5t-45 -109t-12.5 -185.5v-195q0 -148 -37 -228.5t-125 -123.5v-22q90 -51 126 -133t36 -238v-162 q0 -99 8.5 -164.5t25.5 -108.5t49.5 -65.5t72 -30.5t102.5 -8h41q18 0 24 -10.5t6 -40.5q0 -31 -5.5 -41t-24.5 -10h-58q-209 0 -288.5 101t-79.5 360v190q0 154 -42.5 238t-119.5 84h-8q-19 0 -25 10t-6 39z" />
<glyph unicode="|" horiz-adv-x="778" d="M328 -322v1999q0 19 15.5 25t47.5 6q60 0 60 -31v-1999q0 -20 -14.5 -26t-45.5 -6t-47 6t-16 26z" />
<glyph unicode="}" horiz-adv-x="808" d="M66 -293q0 31 5.5 41t24.5 10h37q64 0 104.5 8.5t73 30t49 65t25 108.5t8.5 165v162q0 157 36 237.5t128 133.5v22q-90 43 -127 120.5t-37 225.5v201q0 95 -8.5 157t-25 103.5t-49.5 62.5t-73 29t-104 8h-27q-20 0 -25 10t-5 42t5 41.5t25 9.5h48q209 0 288.5 -99 t79.5 -356v-215q0 -141 43.5 -222t118.5 -81h8q19 0 25 -10t6 -39t-6 -39t-25 -10h-8q-78 0 -120 -83.5t-42 -238.5v-190q0 -133 -18 -218.5t-63 -141t-116.5 -78.5t-183.5 -23h-45q-20 0 -25 9.5t-5 41.5z" />
<glyph unicode="~" horiz-adv-x="1470" d="M171.5 679q-6.5 13 4.5 32q59 103 141.5 149.5t210.5 46.5q62 0 116.5 -19t94.5 -46t77.5 -54t79.5 -46t85 -19q144 0 205 135q12 31 71 2q32 -13 40 -25t-1 -32q-90 -205 -338 -205q-55 0 -107 18.5t-92 45.5t-79 54t-84 45.5t-90 18.5q-85 0 -131 -29.5t-90 -107.5 q-12 -18 -28 -16t-50 22q-29 17 -35.5 30z" />
<glyph unicode="&#xa1;" horiz-adv-x="749" d="M266 918q0 58 24 80t72 22h23q49 0 73.5 -21.5t24.5 -80.5q0 -60 -16 -81.5t-59 -21.5h-66q-42 0 -59 22t-17 81zM295 -442l24 1001q0 17 12.5 24t43.5 7t43 -7t12 -24l25 -1001q0 -19 -15.5 -27t-62.5 -8t-64.5 8.5t-17.5 26.5z" />
<glyph unicode="&#xa2;" horiz-adv-x="1429" d="M254 494v22q0 214 118 346.5t365 153.5v141q0 19 14.5 27t55.5 8q43 0 57.5 -8t14.5 -27v-139q122 -3 221 -33q46 -15 65 -41.5t19 -71.5v-108q0 -19 -12.5 -27t-53.5 -8q-40 0 -52.5 7.5t-12.5 27.5v123q-102 26 -244 26q-211 0 -311.5 -100t-100.5 -303v-10 q0 -213 103 -310.5t323 -97.5q158 0 289 29q26 6 35.5 -2t15.5 -45q6 -32 1 -43.5t-27 -16.5q-136 -31 -258 -37v-127q0 -19 -14.5 -26.5t-57.5 -7.5q-42 0 -56 7.5t-14 26.5v125q-136 10 -232 51.5t-150 111.5t-77.5 156.5t-23.5 199.5z" />
<glyph unicode="&#xa3;" horiz-adv-x="1429" d="M143 55q0 38 6.5 49t28.5 11q86 0 127 47t41 162v364h-117q-24 0 -30 10.5t-6 46.5q0 37 5.5 47.5t28.5 10.5h119v125q0 297 120 434t392 137q91 0 183 -17t149 -42q47 -22 66.5 -53t19.5 -99v-114q0 -33 -15 -44.5t-61 -11.5q-44 0 -58 8t-14 27v188q-127 43 -288 43 q-189 0 -268.5 -101t-79.5 -335v-145h491q23 0 29 -11t6 -47t-6.5 -46.5t-30.5 -10.5h-489v-352q0 -100 -25 -145.5t-86 -55.5v-20h764v209q0 19 13 26.5t56 7.5q45 0 60.5 -8t15.5 -26v-242q0 -49 -19.5 -65.5t-76.5 -16.5h-1016q-22 0 -28.5 10t-6.5 45z" />
<glyph unicode="&#xa5;" horiz-adv-x="1429" d="M37 1417q0 36 7 47t28 11h432q21 0 28 -11t7 -47t-7 -46.5t-28 -10.5h-182l284 -496q67 -119 109 -237h24q38 115 107 237l289 496h-215q-21 0 -28 10.5t-7 46.5t7 47t28 11h438q21 0 28 -11t7 -47t-7 -46.5t-28 -10.5h-82l-246 -418h195q23 0 29 -9.5t6 -43.5 t-6.5 -43.5t-30.5 -9.5h-256l-138 -236h396q23 0 29 -9.5t6 -43.5t-6.5 -43.5t-30.5 -9.5h-426v-379h178q21 0 28 -11t7 -47t-7 -46.5t-28 -10.5h-504q-21 0 -28 10.5t-7 46.5t7 47t28 11h180v379h-418q-24 0 -30 9t-6 44t5.5 44t28.5 9h383l-143 236h-238q-24 0 -30 9 t-6 44t5.5 44t28.5 9h175l-252 418h-82q-21 0 -28 10.5t-7 46.5z" />
<glyph unicode="&#xa8;" horiz-adv-x="1024" d="M182 1262q0 90 82 90h23q40 0 61 -20t21 -70t-15 -68t-53 -18h-53q-36 0 -51 18t-15 68zM610 1262q0 90 82 90h23q40 0 61 -20t21 -70t-15 -68t-53 -18h-53q-36 0 -51 18t-15 68z" />
<glyph unicode="&#xa9;" horiz-adv-x="1808" d="M147 709v57q0 354 199 543.5t559 189.5q361 0 558.5 -184.5t197.5 -548.5v-57q0 -363 -198 -548.5t-562 -185.5q-358 0 -556 184.5t-198 549.5zM295 721q0 -302 149 -461.5t459 -159.5q315 0 462.5 158t147.5 463v31q0 622 -612 622q-161 0 -279.5 -44.5t-189 -128 t-104 -195t-33.5 -254.5v-31zM508 721v39q0 184 104.5 282.5t321.5 98.5q68 0 130.5 -12.5t94.5 -30.5q70 -37 70 -101v-96q0 -28 -13 -35.5t-59 -7.5q-47 0 -62.5 8.5t-15.5 36.5v90q-93 19 -159 19q-130 0 -192 -61.5t-62 -190.5v-27q0 -140 71 -202t236 -62q89 0 180 18 q32 6 43.5 -2.5t20.5 -42.5q9 -37 3.5 -54t-28.5 -23q-110 -29 -244 -29q-225 0 -332.5 94.5t-107.5 290.5z" />
<glyph unicode="&#xab;" horiz-adv-x="1161" d="M172 487v41q0 29 9 49t32 48l260 323q13 18 34 24.5t62 6.5t49 -12.5t-14 -38.5l-328 -414l330 -412q24 -28 15 -40.5t-56 -12.5q-72 0 -98 33l-254 311q-24 27 -32.5 46t-8.5 48zM565 487v41q0 29 8.5 49t30.5 48l262 323q13 18 34 24.5t61 6.5q42 0 49 -11.5t-15 -39.5 l-325 -414l329 -412q24 -28 15 -40.5t-56 -12.5q-72 0 -98 33l-256 311q-22 27 -30.5 46.5t-8.5 47.5z" />
<glyph unicode="&#xad;" horiz-adv-x="604" d="M82 514q0 33 6 43t29 10h370q23 0 29 -10t6 -43q0 -32 -6.5 -43.5t-28.5 -11.5h-370q-22 0 -28.5 11.5t-6.5 43.5z" />
<glyph unicode="&#xae;" horiz-adv-x="1808" d="M147 709v57q0 354 199 543.5t559 189.5q361 0 558.5 -184.5t197.5 -548.5v-57q0 -363 -198 -548.5t-562 -185.5q-358 0 -556 184.5t-198 549.5zM295 721q0 -302 149 -461.5t459 -159.5q315 0 462.5 158t147.5 463v31q0 622 -612 622q-161 0 -279.5 -44.5t-189 -128 t-104 -195t-33.5 -254.5v-31zM522 412q0 34 6.5 46.5t28.5 12.5h68v537h-60q-24 0 -30.5 12.5t-6.5 48.5q0 34 6.5 46.5t30.5 12.5h357q170 0 254 -62t84 -173v-14q0 -152 -138 -209l117 -199h41q23 0 29 -12t6 -47q0 -37 -6.5 -50.5t-28.5 -13.5h-80q-13 0 -23.5 1.5 t-19 2.5t-16.5 6t-13 7t-12 10.5t-10 11.5t-10 14.5t-9 15t-10 19t-10 19.5l-104 188h-179v-172h74q24 0 30.5 -12.5t6.5 -46.5q0 -38 -6.5 -51t-30.5 -13h-301q-22 0 -28.5 13.5t-6.5 50.5zM784 764h152q95 0 131.5 27t36.5 88q0 69 -49 95.5t-183 26.5h-88v-237z" />
<glyph unicode="&#xb4;" horiz-adv-x="1024" d="M289 1132q2 6 8 13l248 272q21 24 45 32.5t76 8.5q64 0 67 -24q1 -8 -8 -17l-287 -272q-38 -35 -94 -35q-59 0 -55 22z" />
<glyph unicode="&#xb8;" horiz-adv-x="1024" d="M331 -376.5q-2 8.5 5 34.5q9 28 16.5 36t20.5 5q51 -14 98 -14q62 0 91.5 19.5t29.5 51.5q0 66 -117 66q-30 0 -40.5 8t-10.5 27v145q0 21 12 27t45 6t44.5 -6t11.5 -27v-84q163 -17 163 -149v-9q0 -78 -58.5 -124t-178.5 -46q-63 0 -115 19q-15 6 -17 14.5z" />
<glyph unicode="&#xbb;" horiz-adv-x="1167" d="M146.5 61.5q-7.5 12.5 17.5 40.5l336 412l-326 414q-23 28 -14 40.5t55 12.5q70 0 98 -35l250 -311q23 -28 32 -47t9 -47v-41q0 -30 -9 -50.5t-32 -46.5l-270 -321q-15 -19 -35.5 -26t-58.5 -7q-45 0 -52.5 12.5zM538.5 61.5q-7.5 12.5 16.5 40.5l336 412l-324 414 q-23 28 -14 40.5t55 12.5q71 0 99 -35l249 -311q22 -27 30.5 -46.5t8.5 -47.5v-41q0 -53 -39 -97l-270 -321q-15 -19 -35.5 -26t-60.5 -7q-44 0 -51.5 12.5z" />
<glyph unicode="&#xbf;" horiz-adv-x="1320" d="M102 -111q0 110 51 184.5t164 139.5l138 78q80 45 115.5 74.5t47 57t11.5 75.5v55q0 22 19 29.5t57 7.5q71 0 71 -37v-49q0 -101 -38 -162.5t-136 -114.5l-149 -82q-121 -67 -158 -117t-37 -143v-10q0 -130 100 -188t326 -58q182 0 371 62v198q0 19 15.5 27t55.5 8 q42 0 57 -8.5t15 -26.5v-153q0 -62 -25 -100t-81 -60q-181 -68 -426 -68q-291 0 -427.5 86.5t-136.5 262.5v32zM598 918q0 58 24 80t72 22h23q49 0 73.5 -21.5t24.5 -80.5t-16.5 -81t-59.5 -22h-65q-42 0 -59 22t-17 81z" />
<glyph unicode="&#xc0;" horiz-adv-x="1777" d="M53 57q0 36 7 47t28 11h113l544 1276q27 62 46 79t65 17h37q46 0 67.5 -18t47.5 -78l573 -1276h117q21 0 28 -11t7 -47t-7 -46.5t-28 -10.5h-471q-21 0 -28 10.5t-7 46.5t7 47t28 11h180l-160 379h-741l-154 -379h197q22 0 28.5 -10.5t6.5 -47.5q0 -36 -6.5 -46.5 t-28.5 -10.5h-461q-21 0 -28 10.5t-7 46.5zM555 608h645l-211 496q-67 154 -102 274h-25q-33 -128 -96 -274zM558 1913q23 14 69 14q52 0 84 -9t59 -32l283 -237q27 -23 -1 -39q-18 -11 -53 -11q-68 0 -112 35l-328 242q-27 20 -1 37z" />
<glyph unicode="&#xc1;" horiz-adv-x="1777" d="M53 57q0 36 7 47t28 11h113l544 1276q27 62 46 79t65 17h37q46 0 67.5 -18t47.5 -78l573 -1276h117q21 0 28 -11t7 -47t-7 -46.5t-28 -10.5h-471q-21 0 -28 10.5t-7 46.5t7 47t28 11h180l-160 379h-741l-154 -379h197q22 0 28.5 -10.5t6.5 -47.5q0 -36 -6.5 -46.5 t-28.5 -10.5h-461q-21 0 -28 10.5t-7 46.5zM555 608h645l-211 496q-67 154 -102 274h-25q-33 -128 -96 -274zM684.5 1622.5q0.5 9.5 9.5 19.5l275 244q44 41 129 41q56 0 69 -24q7 -14 -10 -27l-311 -242q-43 -35 -107 -35q-26 0 -40.5 7t-14 16.5z" />
<glyph unicode="&#xc2;" horiz-adv-x="1777" d="M53 57q0 36 7 47t28 11h113l544 1276q27 62 46 79t65 17h37q46 0 67.5 -18t47.5 -78l573 -1276h117q21 0 28 -11t7 -47t-7 -46.5t-28 -10.5h-471q-21 0 -28 10.5t-7 46.5t7 47t28 11h180l-160 379h-741l-154 -379h197q22 0 28.5 -10.5t6.5 -47.5q0 -36 -6.5 -46.5 t-28.5 -10.5h-461q-21 0 -28 10.5t-7 46.5zM470 1625q2 10 13 20l271 243q45 39 96 39h14q62 0 109 -41l282 -241q25 -20 0 -34q-22 -12 -71 -12q-44 0 -67 7.5t-50 31.5l-213 189l-201 -189q-25 -23 -45.5 -31t-64.5 -8q-73 0 -73 26zM555 608h645l-211 496 q-67 154 -102 274h-25q-33 -128 -96 -274z" />
<glyph unicode="&#xc3;" horiz-adv-x="1777" d="M53 57q0 36 7 47t28 11h113l544 1276q27 62 46 79t65 17h37q46 0 67.5 -18t47.5 -78l573 -1276h117q21 0 28 -11t7 -47t-7 -46.5t-28 -10.5h-471q-21 0 -28 10.5t-7 46.5t7 47t28 11h180l-160 379h-741l-154 -379h197q22 0 28.5 -10.5t6.5 -47.5q0 -36 -6.5 -46.5 t-28.5 -10.5h-461q-21 0 -28 10.5t-7 46.5zM469 1751q77 125 244 125q60 0 112.5 -19t83 -41.5t69.5 -41.5t75 -19q83 0 123 78q16 32 69 10q47 -16 35 -53q-22 -64 -81.5 -101.5t-147.5 -37.5q-58 0 -110 19t-84 41.5t-73 41.5t-79 19q-48 0 -79 -18t-59 -62q-18 -29 -69 0 q-48 27 -29 59zM555 608h645l-211 496q-67 154 -102 274h-25q-33 -128 -96 -274z" />
<glyph unicode="&#xc4;" horiz-adv-x="1777" d="M53 57q0 36 7 47t28 11h113l544 1276q27 62 46 79t65 17h37q46 0 67.5 -18t47.5 -78l573 -1276h117q21 0 28 -11t7 -47t-7 -46.5t-28 -10.5h-471q-21 0 -28 10.5t-7 46.5t7 47t28 11h180l-160 379h-741l-154 -379h197q22 0 28.5 -10.5t6.5 -47.5q0 -36 -6.5 -46.5 t-28.5 -10.5h-461q-21 0 -28 10.5t-7 46.5zM514 1757q0 96 88 96h37q42 0 64 -21.5t22 -74.5q0 -54 -15 -72t-55 -18h-71q-40 0 -55 18t-15 72zM555 608h645l-211 496q-67 154 -102 274h-25q-33 -128 -96 -274zM1022 1757q0 96 90 96h35q44 0 65 -21.5t21 -74.5 q0 -54 -14.5 -72t-53.5 -18h-73q-39 0 -54.5 18.5t-15.5 71.5z" />
<glyph unicode="&#xc5;" horiz-adv-x="1777" d="M53 57q0 36 7 47t28 11h113l544 1276q27 62 46 79t65 17h37q46 0 67.5 -18t47.5 -78l573 -1276h117q21 0 28 -11t7 -47t-7 -46.5t-28 -10.5h-471q-21 0 -28 10.5t-7 46.5t7 47t28 11h180l-160 379h-741l-154 -379h197q22 0 28.5 -10.5t6.5 -47.5q0 -36 -6.5 -46.5 t-28.5 -10.5h-461q-21 0 -28 10.5t-7 46.5zM555 608h645l-211 496q-67 154 -102 274h-25q-33 -128 -96 -274zM651 1759v13q0 96 62.5 148t165.5 52q101 0 161 -52t60 -148v-13q0 -98 -59.5 -148t-161.5 -50q-104 0 -166 50t-62 148zM774 1767q0 -108 105 -108q102 0 102 108 q0 51 -27.5 78t-74.5 27t-76 -27t-29 -78z" />
<glyph unicode="&#xc6;" horiz-adv-x="2433" d="M29 57q0 36 6.5 47t27.5 11h117l924 1204q33 43 50.5 64.5t39 42.5t33 28t34.5 13.5t41 7t54 0.5h856q57 0 74.5 -16t17.5 -66v-242q0 -19 -13 -27t-55 -8t-55.5 8t-13.5 27v209h-758v-551h545v111q0 19 12.5 26.5t54.5 7.5t55 -7.5t13 -26.5v-342q0 -19 -13 -27t-55 -8 q-41 0 -54 8t-13 27v120h-545v-583h772v209q0 18 14 26t56 8t54.5 -7.5t12.5 -26.5v-242q0 -50 -18.5 -66t-75.5 -16h-1065q-21 0 -28 12t-7 45t7 45.5t28 12.5h105v338h-662l-256 -338h197q22 0 28.5 -10.5t6.5 -47.5q0 -36 -6.5 -46.5t-28.5 -10.5h-480q-21 0 -27.5 10.5 t-6.5 46.5zM686 561h578v801h-13q-76 -163 -209 -334z" />
<glyph unicode="&#xc7;" horiz-adv-x="1470" d="M127 729v43q0 343 186.5 535t536.5 192q194 0 358 -51q78 -23 102.5 -50.5t24.5 -92.5v-164q0 -19 -13 -27t-54 -8q-42 0 -56 8t-14 27v198q-161 45 -352 45q-296 0 -430.5 -153.5t-134.5 -460.5v-27q0 -335 149 -494t475 -159q167 0 328 37q28 6 38 -2t19 -45 q7 -31 1.5 -43.5t-27.5 -18.5q-53 -15 -152.5 -27.5t-181.5 -15.5v-57q164 -17 164 -149v-9q0 -78 -58.5 -124t-179.5 -46q-63 0 -115 19q-15 6 -17 14.5t5 34.5q9 28 16.5 36t20.5 5q51 -14 98 -14q62 0 91.5 19.5t29.5 51.5q0 66 -117 66q-30 0 -40.5 8t-10.5 27v120 q-186 9 -320.5 65t-215 155.5t-117.5 230.5t-37 301z" />
<glyph unicode="&#xc8;" horiz-adv-x="1443" d="M115 57q0 36 7 47t28 11h104v1245h-104q-21 0 -28 10.5t-7 46.5t6.5 47t25.5 11h1084q57 0 74.5 -16t17.5 -66v-242q0 -19 -13 -27t-55 -8t-55.5 8t-13.5 27v209h-787v-551h574v111q0 19 12.5 26.5t54.5 7.5t55 -7.5t13 -26.5v-342q0 -19 -13 -27t-55 -8q-41 0 -54 8 t-13 27v120h-574v-583h801v209q0 18 14 26t56 8t54.5 -7.5t12.5 -26.5v-242q0 -50 -18.5 -66t-75.5 -16h-1093q-21 0 -28 10.5t-7 46.5zM351 1913q23 14 69 14q52 0 84 -9t59 -32l283 -237q26 -23 1 -39q-19 -11 -54 -11q-69 0 -113 35l-328 242q-27 20 -1 37z" />
<glyph unicode="&#xc9;" horiz-adv-x="1443" d="M115 57q0 36 7 47t28 11h104v1245h-104q-21 0 -28 10.5t-7 46.5t6.5 47t25.5 11h1084q57 0 74.5 -16t17.5 -66v-242q0 -19 -13 -27t-55 -8t-55.5 8t-13.5 27v209h-787v-551h574v111q0 19 12.5 26.5t54.5 7.5t55 -7.5t13 -26.5v-342q0 -19 -13 -27t-55 -8q-41 0 -54 8 t-13 27v120h-574v-583h801v209q0 18 14 26t56 8t54.5 -7.5t12.5 -26.5v-242q0 -50 -18.5 -66t-75.5 -16h-1093q-21 0 -28 10.5t-7 46.5zM553.5 1622.5q0.5 9.5 9.5 19.5l275 244q44 41 129 41q56 0 69 -24q7 -14 -10 -27l-311 -242q-43 -35 -107 -35q-26 0 -40.5 7t-14 16.5 z" />
<glyph unicode="&#xca;" horiz-adv-x="1443" d="M115 57q0 36 7 47t28 11h104v1245h-104q-21 0 -28 10.5t-7 46.5t6.5 47t25.5 11h1084q57 0 74.5 -16t17.5 -66v-242q0 -19 -13 -27t-55 -8t-55.5 8t-13.5 27v209h-787v-551h574v111q0 19 12.5 26.5t54.5 7.5t55 -7.5t13 -26.5v-342q0 -19 -13 -27t-55 -8q-41 0 -54 8 t-13 27v120h-574v-583h801v209q0 18 14 26t56 8t54.5 -7.5t12.5 -26.5v-242q0 -50 -18.5 -66t-75.5 -16h-1093q-21 0 -28 10.5t-7 46.5zM288 1625q0 9 13 20l270 243q45 39 97 39h14q62 0 109 -41l282 -241q25 -20 0 -34q-21 -12 -72 -12q-44 0 -66.5 7.5t-49.5 31.5 l-213 189l-201 -189q-25 -23 -46 -31t-65 -8q-72 0 -72 26z" />
<glyph unicode="&#xcb;" horiz-adv-x="1443" d="M115 57q0 36 7 47t28 11h104v1245h-104q-21 0 -28 10.5t-7 46.5t6.5 47t25.5 11h1084q57 0 74.5 -16t17.5 -66v-242q0 -19 -13 -27t-55 -8t-55.5 8t-13.5 27v209h-787v-551h574v111q0 19 12.5 26.5t54.5 7.5t55 -7.5t13 -26.5v-342q0 -19 -13 -27t-55 -8q-41 0 -54 8 t-13 27v120h-574v-583h801v209q0 18 14 26t56 8t54.5 -7.5t12.5 -26.5v-242q0 -50 -18.5 -66t-75.5 -16h-1093q-21 0 -28 10.5t-7 46.5zM389 1757q0 96 88 96h37q42 0 64 -21.5t22 -74.5q0 -54 -15 -72t-55 -18h-71q-40 0 -55 18t-15 72zM897 1757q0 96 90 96h35 q44 0 65 -21.5t21 -74.5q0 -54 -14.5 -72t-53.5 -18h-73q-39 0 -54.5 18.5t-15.5 71.5z" />
<glyph unicode="&#xcc;" horiz-adv-x="653" d="M-12 1912q21 15 69 15q95 0 144 -41l282 -237q26 -23 1 -39q-18 -11 -54 -11q-69 0 -113 35l-327 242q-26 20 -2 36zM115 57q0 36 7 47t28 11h104v1245h-104q-21 0 -28 10.5t-7 46.5t7 47t28 11h354q21 0 28 -11t7 -47t-7 -46.5t-28 -10.5h-105v-1245h105q21 0 28 -11 t7 -47t-7 -46.5t-28 -10.5h-354q-21 0 -28 10.5t-7 46.5z" />
<glyph unicode="&#xcd;" horiz-adv-x="653" d="M115 57q0 36 7 47t28 11h104v1245h-104q-21 0 -28 10.5t-7 46.5t7 47t28 11h354q21 0 28 -11t7 -47t-7 -46.5t-28 -10.5h-105v-1245h105q21 0 28 -11t7 -47t-7 -46.5t-28 -10.5h-354q-21 0 -28 10.5t-7 46.5zM166.5 1622.5q0.5 9.5 9.5 19.5l275 244q44 41 129 41 q56 0 69 -24q7 -14 -10 -27l-311 -242q-43 -35 -107 -35q-26 0 -40.5 7t-14 16.5z" />
<glyph unicode="&#xce;" horiz-adv-x="653" d="M-68 1625q0 9 13 20l270 243q45 39 96 39h15q36 0 59 -9t49 -32l283 -241q25 -20 0 -34q-21 -12 -72 -12q-44 0 -67 7.5t-50 31.5l-213 189l-200 -189q-25 -23 -46 -31t-65 -8q-72 0 -72 26zM115 57q0 36 7 47t28 11h104v1245h-104q-21 0 -28 10.5t-7 46.5t7 47t28 11 h354q21 0 28 -11t7 -47t-7 -46.5t-28 -10.5h-105v-1245h105q21 0 28 -11t7 -47t-7 -46.5t-28 -10.5h-354q-21 0 -28 10.5t-7 46.5z" />
<glyph unicode="&#xcf;" horiz-adv-x="653" d="M-33 1757q0 96 88 96h37q42 0 64 -21.5t22 -74.5q0 -54 -15 -72t-54 -18h-72q-40 0 -55 18t-15 72zM115 57q0 36 7 47t28 11h104v1245h-104q-21 0 -28 10.5t-7 46.5t7 47t28 11h354q21 0 28 -11t7 -47t-7 -46.5t-28 -10.5h-105v-1245h105q21 0 28 -11t7 -47t-7 -46.5 t-28 -10.5h-354q-21 0 -28 10.5t-7 46.5zM475 1757q0 96 90 96h35q44 0 65 -21.5t21 -74.5q0 -54 -14.5 -72t-53.5 -18h-73q-39 0 -54.5 18.5t-15.5 71.5z" />
<glyph unicode="&#xd0;" horiz-adv-x="1550" d="M33 758q0 36 7 46.5t32 10.5h182v545h-104q-21 0 -28 10.5t-7 46.5t7 47t28 11h499q774 0 774 -713v-47q0 -159 -44 -287.5t-133 -225.5t-235 -149.5t-339 -52.5h-522q-21 0 -28 10.5t-7 46.5t7 47t28 11h104v587h-182q-24 0 -31.5 11.5t-7.5 44.5zM399 115h277 q303 0 448.5 148.5t145.5 461.5v25q0 316 -155.5 463t-481.5 147h-234v-545h402q22 0 28.5 -11t6.5 -46q0 -33 -7 -44.5t-28 -11.5h-402v-587z" />
<glyph unicode="&#xd1;" horiz-adv-x="1634" d="M115 57q0 36 7 47t28 11h104v1245h-104q-21 0 -28 10.5t-7 46.5t7 47t28 11h241q44 0 69.5 -10.5t43.5 -39.5l581 -946q97 -160 191 -360h27v1241h-177q-21 0 -27.5 10.5t-6.5 46.5t6.5 47t27.5 11h412q21 0 28 -11t7 -47t-7 -46.5t-28 -10.5h-104v-1323 q0 -26 -14.5 -36.5t-49.5 -10.5h-82q-50 0 -72 10.5t-42 44.5l-603 993q-92 153 -159 324h-27v-1247h176q21 0 28 -11t7 -47t-7 -46.5t-28 -10.5h-411q-21 0 -28 10.5t-7 46.5zM430 1751q77 125 244 125q60 0 112.5 -19t83 -41.5t69.5 -41.5t75 -19q83 0 123 78q16 32 69 10 q47 -16 35 -53q-22 -64 -81.5 -101.5t-147.5 -37.5q-58 0 -110 19t-84 41.5t-73 41.5t-79 19q-48 0 -79 -18t-59 -62q-18 -29 -69 0q-48 27 -29 59z" />
<glyph unicode="&#xd2;" d="M127 709v57q0 354 167.5 543.5t502.5 189.5t502 -189.5t167 -543.5v-57q0 -354 -167 -544t-502 -190t-502.5 190t-167.5 544zM281 719q0 -316 132.5 -472.5t383.5 -156.5t383.5 156.5t132.5 472.5v35q0 316 -132.5 473t-383.5 157t-383.5 -157t-132.5 -473v-35zM521 1913 q23 14 69 14q52 0 84 -9t59 -32l283 -237q26 -23 1 -39q-19 -11 -54 -11q-69 0 -113 35l-328 242q-27 20 -1 37z" />
<glyph unicode="&#xd3;" d="M127 709v57q0 354 167.5 543.5t502.5 189.5t502 -189.5t167 -543.5v-57q0 -354 -167 -544t-502 -190t-502.5 190t-167.5 544zM281 719q0 -316 132.5 -472.5t383.5 -156.5t383.5 156.5t132.5 472.5v35q0 316 -132.5 473t-383.5 157t-383.5 -157t-132.5 -473v-35z M617.5 1622.5q0.5 9.5 9.5 19.5l274 244q44 41 129 41q57 0 70 -24q7 -14 -10 -27l-312 -242q-43 -35 -106 -35q-26 0 -40.5 7t-14 16.5z" />
<glyph unicode="&#xd4;" d="M127 709v57q0 354 167.5 543.5t502.5 189.5t502 -189.5t167 -543.5v-57q0 -354 -167 -544t-502 -190t-502.5 190t-167.5 544zM281 719q0 -316 132.5 -472.5t383.5 -156.5t383.5 156.5t132.5 472.5v35q0 316 -132.5 473t-383.5 157t-383.5 -157t-132.5 -473v-35zM411 1625 q0 9 13 20l270 243q45 39 97 39h14q36 0 59 -9t49 -32l283 -241q25 -20 0 -34q-21 -12 -72 -12q-44 0 -66.5 7.5t-49.5 31.5l-213 189l-201 -189q-25 -23 -46 -31t-65 -8q-72 0 -72 26z" />
<glyph unicode="&#xd5;" d="M127 709v57q0 354 167.5 543.5t502.5 189.5t502 -189.5t167 -543.5v-57q0 -354 -167 -544t-502 -190t-502.5 190t-167.5 544zM281 719q0 -316 132.5 -472.5t383.5 -156.5t383.5 156.5t132.5 472.5v35q0 316 -132.5 473t-383.5 157t-383.5 -157t-132.5 -473v-35zM393 1751 q77 125 244 125q60 0 112.5 -19t83 -41.5t69.5 -41.5t75 -19q83 0 123 78q16 32 69 10q47 -16 35 -53q-22 -64 -81.5 -101.5t-147.5 -37.5q-58 0 -110 19t-84 41.5t-73 41.5t-79 19q-47 0 -78 -18t-59 -62q-18 -30 -70 0q-48 27 -29 59z" />
<glyph unicode="&#xd6;" d="M127 709v57q0 354 167.5 543.5t502.5 189.5t502 -189.5t167 -543.5v-57q0 -354 -167 -544t-502 -190t-502.5 190t-167.5 544zM281 719q0 -316 132.5 -472.5t383.5 -156.5t383.5 156.5t132.5 472.5v35q0 316 -132.5 473t-383.5 157t-383.5 -157t-132.5 -473v-35zM438 1757 q0 96 88 96h37q42 0 64 -21.5t22 -74.5q0 -54 -15 -72t-54 -18h-72q-40 0 -55 18t-15 72zM946 1757q0 96 90 96h35q44 0 65 -21.5t21 -74.5q0 -54 -14 -72t-53 -18h-74q-39 0 -54.5 18.5t-15.5 71.5z" />
<glyph unicode="&#xd8;" d="M127 709v57q0 354 167.5 543.5t502.5 189.5q166 0 290 -47l64 123q15 29 88 29q30 0 48.5 -5t23.5 -13.5t0 -18.5l-94 -185q249 -179 249 -616v-57q0 -354 -167 -544t-502 -190q-148 0 -273 39l-110 -219q-12 -28 -88 -28q-42 0 -62 6.5t-10 25.5l141 279 q-268 175 -268 631zM281 719q0 -362 176 -518l575 1138q-99 45 -235 45q-251 0 -383.5 -157t-132.5 -473v-35zM582 125q85 -35 215 -35q251 0 383.5 156.5t132.5 472.5v35q0 344 -160 501z" />
<glyph unicode="&#xd9;" horiz-adv-x="1562" d="M66 1417q0 36 6.5 47t27.5 11h389q21 0 28 -11t7 -47t-7 -46.5t-28 -10.5h-149v-780q0 -138 28 -233t86.5 -151.5t139.5 -81t194 -24.5q222 0 328.5 111.5t106.5 357.5v801h-152q-21 0 -28 10.5t-7 46.5t7 47t28 11h395q21 0 28 -11t7 -47t-7 -46.5t-28 -10.5h-104v-778 q0 -305 -139 -456t-449 -151q-579 0 -579 586v799h-95q-21 0 -27.5 10.5t-6.5 46.5zM480 1913q23 14 69 14q52 0 84 -9t59 -32l283 -237q26 -23 1 -39q-19 -11 -54 -11q-69 0 -113 35l-328 242q-27 20 -1 37z" />
<glyph unicode="&#xda;" horiz-adv-x="1562" d="M66 1417q0 36 6.5 47t27.5 11h389q21 0 28 -11t7 -47t-7 -46.5t-28 -10.5h-149v-780q0 -138 28 -233t86.5 -151.5t139.5 -81t194 -24.5q222 0 328.5 111.5t106.5 357.5v801h-152q-21 0 -28 10.5t-7 46.5t7 47t28 11h395q21 0 28 -11t7 -47t-7 -46.5t-28 -10.5h-104v-778 q0 -305 -139 -456t-449 -151q-579 0 -579 586v799h-95q-21 0 -27.5 10.5t-6.5 46.5zM631.5 1622.5q0.5 9.5 9.5 19.5l274 244q44 41 129 41q57 0 70 -24q7 -14 -10 -27l-311 -242q-43 -35 -107 -35q-26 0 -40.5 7t-14 16.5z" />
<glyph unicode="&#xdb;" horiz-adv-x="1562" d="M66 1417q0 36 6.5 47t27.5 11h389q21 0 28 -11t7 -47t-7 -46.5t-28 -10.5h-149v-780q0 -138 28 -233t86.5 -151.5t139.5 -81t194 -24.5q222 0 328.5 111.5t106.5 357.5v801h-152q-21 0 -28 10.5t-7 46.5t7 47t28 11h395q21 0 28 -11t7 -47t-7 -46.5t-28 -10.5h-104v-778 q0 -305 -139 -456t-449 -151q-579 0 -579 586v799h-95q-21 0 -27.5 10.5t-6.5 46.5zM382 1625q2 10 13 20l271 243q45 39 96 39h14q62 0 109 -41l282 -241q25 -20 0 -34q-22 -12 -71 -12q-44 0 -67 7.5t-50 31.5l-213 189l-201 -189q-25 -23 -45.5 -31t-64.5 -8 q-73 0 -73 26z" />
<glyph unicode="&#xdc;" horiz-adv-x="1562" d="M66 1417q0 36 6.5 47t27.5 11h389q21 0 28 -11t7 -47t-7 -46.5t-28 -10.5h-149v-780q0 -138 28 -233t86.5 -151.5t139.5 -81t194 -24.5q222 0 328.5 111.5t106.5 357.5v801h-152q-21 0 -28 10.5t-7 46.5t7 47t28 11h395q21 0 28 -11t7 -47t-7 -46.5t-28 -10.5h-104v-778 q0 -305 -139 -456t-449 -151q-579 0 -579 586v799h-95q-21 0 -27.5 10.5t-6.5 46.5zM418 1757q0 96 88 96h37q42 0 64 -21.5t22 -74.5q0 -54 -15 -72t-55 -18h-72q-39 0 -54 18t-15 72zM926 1757q0 96 90 96h35q44 0 65 -21.5t21 -74.5q0 -54 -14.5 -72t-53.5 -18h-74 q-38 0 -53.5 18t-15.5 72z" />
<glyph unicode="&#xdd;" horiz-adv-x="1523" d="M33 1417q0 36 7 47t28 11h473q21 0 27.5 -11t6.5 -47t-6.5 -46.5t-27.5 -10.5h-201l299 -479q69 -111 117 -240h24q52 136 119 240l305 479h-233q-21 0 -28 10.5t-7 46.5t7 47t28 11h481q21 0 28 -11t7 -47t-7 -46.5t-28 -10.5h-106l-508 -815v-430h209q21 0 27.5 -11 t6.5 -47t-6.5 -46.5t-27.5 -10.5h-566q-21 0 -28 10.5t-7 46.5t7 47t28 11h211v426l-520 819h-104q-21 0 -28 10.5t-7 46.5zM584.5 1622.5q0.5 9.5 9.5 19.5l274 244q44 41 129 41q57 0 70 -24q7 -14 -10 -27l-312 -242q-43 -35 -106 -35q-26 0 -40.5 7t-14 16.5z" />
<glyph unicode="&#xde;" horiz-adv-x="1323" d="M115 57q0 34 6.5 46t28.5 12h104v1245h-104q-21 0 -28 10.5t-7 46.5t7 47t28 11h413q21 0 28 -11t7 -47t-7 -46.5t-28 -10.5h-164v-176h232q618 0 618 -408v-16q0 -438 -542 -438q-157 0 -283 59h-25v-266h172q23 0 30 -12.5t7 -45.5q0 -31 -5.5 -44t-22.5 -13h-430 q-21 0 -28 12.5t-7 44.5zM399 473q121 -37 275 -37q237 0 331.5 75t94.5 243v10q0 158 -119 232.5t-383 74.5h-199v-598z" />
<glyph unicode="&#xdf;" horiz-adv-x="1509" d="M20 940q0 34 6 43.5t29 9.5h189v47q0 459 477 459q208 0 312 -80t104 -219v-6q0 -73 -33.5 -127.5t-81 -87.5t-95 -63.5t-81 -74t-33.5 -100.5q0 -49 19 -76t75.5 -49.5t173.5 -46.5l41 -8q159 -32 228 -103t69 -196v-6q0 -95 -37 -154.5t-134 -93t-261 -33.5 q-135 0 -274 31q-57 13 -80 42.5t-23 82.5v84q0 20 13.5 27.5t54.5 7.5q43 0 56.5 -8t13.5 -27v-94q122 -39 272 -39t205 38.5t55 131.5q0 92 -49 131.5t-195 67.5l-32 6q-110 21 -162.5 40.5t-87.5 49.5q-72 64 -72 182v6q0 59 18 105.5t46 76t62.5 54t69 45t62.5 42.5 t46 53.5t18 70.5q0 109 -71.5 161t-238.5 52q-160 0 -237.5 -91t-77.5 -251v-971q0 -50 -18.5 -66t-75.5 -16h-168q-23 0 -29 10t-6 45t6 45.5t29 10.5h127v776h-189q-23 0 -29 9.5t-6 43.5z" />
<glyph unicode="&#xe0;" horiz-adv-x="1179" d="M82 270v13q0 144 115 229.5t340 85.5q207 0 305 -98h22v102q0 162 -75 230.5t-248 68.5q-160 0 -328 -57q-19 -6 -30.5 3t-20.5 40q-11 32 -7 46t27 21q185 66 377 66q227 0 331.5 -95.5t104.5 -301.5v-459q0 -32 16 -45t54 -13h27q21 0 27.5 -10t6.5 -41q0 -34 -6 -44.5 t-28 -10.5h-54q-77 0 -114 24t-54 85h-22q-97 -134 -348 -134q-199 0 -308.5 81.5t-109.5 213.5zM225 283q0 -84 80.5 -140.5t237.5 -56.5q151 0 237 60t86 143q0 88 -85 145.5t-238 57.5q-158 0 -238 -56t-80 -145v-8zM281 1417q-24 22 6 33q21 8 61 8q49 0 75.5 -8.5 t49.5 -32.5l256 -272q21 -23 -17 -32l-34 -3q-59 0 -100 35z" />
<glyph unicode="&#xe1;" horiz-adv-x="1179" d="M82 270v13q0 144 115 229.5t340 85.5q207 0 305 -98h22v102q0 162 -75 230.5t-248 68.5q-160 0 -328 -57q-19 -6 -30.5 3t-20.5 40q-11 32 -7 46t27 21q185 66 377 66q227 0 331.5 -95.5t104.5 -301.5v-459q0 -32 16 -45t54 -13h27q21 0 27.5 -10t6.5 -41q0 -34 -6 -44.5 t-28 -10.5h-54q-77 0 -114 24t-54 85h-22q-97 -134 -348 -134q-199 0 -308.5 81.5t-109.5 213.5zM225 283q0 -84 80.5 -140.5t237.5 -56.5q151 0 237 60t86 143q0 88 -85 145.5t-238 57.5q-158 0 -238 -56t-80 -145v-8zM391 1132q2 6 8 13l248 272q21 24 45 32.5t76 8.5 q64 0 67 -24q1 -8 -8 -17l-286 -272q-38 -35 -95 -35q-59 0 -55 22z" />
<glyph unicode="&#xe2;" horiz-adv-x="1179" d="M82 270v13q0 144 115 229.5t340 85.5q207 0 305 -98h22v102q0 162 -75 230.5t-248 68.5q-160 0 -328 -57q-19 -6 -30.5 3t-20.5 40q-11 32 -7 46t27 21q185 66 377 66q227 0 331.5 -95.5t104.5 -301.5v-459q0 -32 16 -45t54 -13h27q21 0 27.5 -10t6.5 -41q0 -34 -6 -44.5 t-28 -10.5h-54q-77 0 -114 24t-54 85h-22q-97 -134 -348 -134q-199 0 -308.5 81.5t-109.5 213.5zM225 283q0 -84 80.5 -140.5t237.5 -56.5q151 0 237 60t86 143q0 88 -85 145.5t-238 57.5q-158 0 -238 -56t-80 -145v-8zM258 1132.5q2 7.5 10 18.5l189 238q38 47 56.5 58 t55.5 11q38 0 59 -11.5t58 -57.5l188 -238q8 -11 10 -18.5t-3 -13t-19.5 -8t-38.5 -1.5q-42 0 -65.5 16.5t-59.5 65.5l-129 172l-125 -172q-36 -49 -59.5 -65.5t-65.5 -16.5q-24 -1 -38.5 1.5t-19.5 8t-3 13z" />
<glyph unicode="&#xe3;" horiz-adv-x="1179" d="M82 270v13q0 144 115 229.5t340 85.5q207 0 305 -98h22v102q0 162 -75 230.5t-248 68.5q-160 0 -328 -57q-19 -6 -30.5 3t-20.5 40q-11 32 -7 46t27 21q185 66 377 66q227 0 331.5 -95.5t104.5 -301.5v-459q0 -32 16 -45t54 -13h27q21 0 27.5 -10t6.5 -41q0 -34 -6 -44.5 t-28 -10.5h-54q-77 0 -114 24t-54 85h-22q-97 -134 -348 -134q-199 0 -308.5 81.5t-109.5 213.5zM197 1220.5q-6 11.5 2 26.5q39 70 91 100.5t136 30.5q51 0 97 -18.5t72.5 -40.5t59 -40.5t60.5 -18.5q40 0 66.5 19t47.5 60q8 16 20.5 18.5t45.5 -9.5q24 -9 31.5 -20 t-0.5 -30q-70 -139 -221 -139q-48 0 -91 18.5t-69.5 40t-60 40t-62.5 18.5q-42 0 -71.5 -18.5t-59.5 -65.5q-17 -25 -64 2q-24 15 -30 26.5zM225 283q0 -84 80.5 -140.5t237.5 -56.5q151 0 237 60t86 143q0 88 -85 145.5t-238 57.5q-158 0 -238 -56t-80 -145v-8z" />
<glyph unicode="&#xe4;" horiz-adv-x="1179" d="M82 270v13q0 144 115 229.5t340 85.5q207 0 305 -98h22v102q0 162 -75 230.5t-248 68.5q-160 0 -328 -57q-19 -6 -30.5 3t-20.5 40q-11 32 -7 46t27 21q185 66 377 66q227 0 331.5 -95.5t104.5 -301.5v-459q0 -32 16 -45t54 -13h27q21 0 27.5 -10t6.5 -41q0 -34 -6 -44.5 t-28 -10.5h-54q-77 0 -114 24t-54 85h-22q-97 -134 -348 -134q-199 0 -308.5 81.5t-109.5 213.5zM225 283q0 -84 80.5 -140.5t237.5 -56.5q151 0 237 60t86 143q0 88 -85 145.5t-238 57.5q-158 0 -238 -56t-80 -145v-8zM254 1262q0 90 82 90h22q40 0 61 -20t21 -70 t-14.5 -68t-52.5 -18h-54q-36 0 -50.5 18t-14.5 68zM682 1262q0 90 82 90h22q40 0 61 -20t21 -70t-14.5 -68t-52.5 -18h-53q-36 0 -51 18t-15 68z" />
<glyph unicode="&#xe5;" horiz-adv-x="1179" d="M82 270v13q0 144 115 229.5t340 85.5q207 0 305 -98h22v102q0 162 -75 230.5t-248 68.5q-160 0 -328 -57q-19 -6 -30.5 3t-20.5 40q-11 32 -7 46t27 21q185 66 377 66q227 0 331.5 -95.5t104.5 -301.5v-459q0 -32 16 -45t54 -13h27q21 0 27.5 -10t6.5 -41q0 -34 -6 -44.5 t-28 -10.5h-54q-77 0 -114 24t-54 85h-22q-97 -134 -348 -134q-199 0 -308.5 81.5t-109.5 213.5zM225 283q0 -84 80.5 -140.5t237.5 -56.5q151 0 237 60t86 143q0 88 -85 145.5t-238 57.5q-158 0 -238 -56t-80 -145v-8zM362 1303v12q0 93 57.5 142.5t153.5 49.5 q95 0 151 -49.5t56 -142.5v-12q0 -91 -56 -140t-151 -49q-96 0 -153.5 49t-57.5 140zM469 1311q0 -111 104 -111q103 0 103 111q0 53 -28 81.5t-75 28.5t-75.5 -28.5t-28.5 -81.5z" />
<glyph unicode="&#xe6;" horiz-adv-x="1923" d="M82 270v13q0 144 115 229.5t340 85.5q207 0 305 -98h22v102q0 162 -75 230.5t-248 68.5q-160 0 -328 -57q-19 -6 -30.5 3t-20.5 40q-11 32 -7 46t27 21q185 66 377 66q151 0 242 -37.5t139 -114.5h25q127 152 397 152q217 0 329.5 -114t112.5 -324v-27q0 -71 -15.5 -85.5 t-92.5 -14.5h-701q8 -197 100.5 -282t305.5 -85q157 0 307 47q21 7 31.5 0.5t19.5 -37.5q10 -30 8 -43.5t-20 -19.5q-168 -60 -361 -60q-322 0 -450 166h-21q-62 -85 -162.5 -125.5t-252.5 -40.5q-199 0 -308.5 81.5t-109.5 213.5zM225 283q0 -84 80.5 -140.5t237.5 -56.5 q151 0 237 60t86 143q0 88 -85 145.5t-238 57.5q-158 0 -238 -56t-80 -145v-8zM999 563h678q0 182 -81.5 266t-245.5 84q-174 0 -262.5 -91.5t-88.5 -258.5z" />
<glyph unicode="&#xe7;" horiz-adv-x="1122" d="M106 494v22q0 239 141.5 371.5t418.5 132.5q166 0 272 -37q45 -16 63.5 -39.5t18.5 -71.5v-108q0 -19 -12.5 -27t-53.5 -8q-40 0 -52.5 7.5t-12.5 27.5v123q-102 26 -236 26q-210 0 -306.5 -102.5t-96.5 -300.5v-10q0 -209 99 -310.5t317 -101.5q141 0 282 29q25 4 35 -5 t16 -40q5 -29 1 -40t-25 -18q-38 -13 -116.5 -23.5t-160.5 -13.5v-59q164 -17 164 -149v-9q0 -78 -58.5 -124t-178.5 -46q-63 0 -115 19q-15 6 -17 14.5t5 34.5q9 28 16.5 36t20.5 5q51 -14 98 -14q62 0 91.5 19.5t29.5 51.5q0 66 -117 66q-30 0 -40.5 8t-10.5 27v120 q-245 12 -362.5 139.5t-117.5 377.5z" />
<glyph unicode="&#xe8;" horiz-adv-x="1177" d="M106 473v41q0 243 136 374.5t374 131.5q217 0 330 -114t113 -324v-27q0 -71 -15.5 -85.5t-93.5 -14.5h-700q8 -198 100 -282.5t305 -84.5q158 0 308 47q21 7 31.5 0.5t19.5 -37.5q10 -31 7.5 -44t-20.5 -19q-168 -60 -358 -60q-149 0 -254.5 35.5t-166.5 103t-88.5 155.5 t-27.5 204zM254 563h678q0 181 -82 265.5t-246 84.5q-174 0 -262 -91.5t-88 -258.5zM346 1417q-24 21 6 33q20 8 62 8q49 0 75.5 -8.5t49.5 -32.5l256 -272q20 -23 -16 -31q-14 -4 -36 -4q-59 0 -100 35z" />
<glyph unicode="&#xe9;" horiz-adv-x="1177" d="M106 473v41q0 243 136 374.5t374 131.5q217 0 330 -114t113 -324v-27q0 -71 -15.5 -85.5t-93.5 -14.5h-700q8 -198 100 -282.5t305 -84.5q158 0 308 47q21 7 31.5 0.5t19.5 -37.5q10 -31 7.5 -44t-20.5 -19q-168 -60 -358 -60q-149 0 -254.5 35.5t-166.5 103t-88.5 155.5 t-27.5 204zM254 563h678q0 181 -82 265.5t-246 84.5q-174 0 -262 -91.5t-88 -258.5zM418 1132q2 6 8 13l248 272q21 24 45 32.5t76 8.5q64 0 67 -24q1 -8 -8 -17l-287 -272q-38 -35 -94 -35q-59 0 -55 22z" />
<glyph unicode="&#xea;" horiz-adv-x="1177" d="M106 473v41q0 243 136 374.5t374 131.5q217 0 330 -114t113 -324v-27q0 -71 -15.5 -85.5t-93.5 -14.5h-700q8 -198 100 -282.5t305 -84.5q158 0 308 47q21 7 31.5 0.5t19.5 -37.5q10 -31 7.5 -44t-20.5 -19q-168 -60 -358 -60q-149 0 -254.5 35.5t-166.5 103t-88.5 155.5 t-27.5 204zM254 563h678q0 181 -82 265.5t-246 84.5q-174 0 -262 -91.5t-88 -258.5zM285 1132.5q2 7.5 10 18.5l188 238q38 46 57 57.5t56 11.5q38 0 59 -11.5t58 -57.5l188 -238q8 -11 10 -18.5t-3 -13t-19.5 -8t-38.5 -1.5q-42 0 -65.5 16.5t-59.5 65.5l-129 172 l-125 -172q-36 -49 -59.5 -65.5t-65.5 -16.5q-24 -1 -38.5 1.5t-19.5 8t-3 13z" />
<glyph unicode="&#xeb;" horiz-adv-x="1177" d="M106 473v41q0 243 136 374.5t374 131.5q217 0 330 -114t113 -324v-27q0 -71 -15.5 -85.5t-93.5 -14.5h-700q8 -198 100 -282.5t305 -84.5q158 0 308 47q21 7 31.5 0.5t19.5 -37.5q10 -31 7.5 -44t-20.5 -19q-168 -60 -358 -60q-149 0 -254.5 35.5t-166.5 103t-88.5 155.5 t-27.5 204zM254 563h678q0 181 -82 265.5t-246 84.5q-174 0 -262 -91.5t-88 -258.5zM303 1262q0 90 82 90h23q40 0 60.5 -20t20.5 -70t-14.5 -68t-52.5 -18h-53q-36 0 -51 18t-15 68zM731 1262q0 90 82 90h23q40 0 61 -20t21 -70t-15 -68t-53 -18h-53q-36 0 -51 18t-15 68z " />
<glyph unicode="&#xec;" horiz-adv-x="602" d="M-37 1417q-24 21 6 33q20 8 62 8q49 0 75.5 -8.5t49.5 -32.5l256 -272q20 -23 -16 -31q-15 -4 -36 -4q-59 0 -100 35zM94 55q0 35 6 45.5t29 10.5h104v737q0 20 -7 27.5t-27 7.5h-72q-18 0 -25.5 10.5t-7.5 36.5q0 35 14.5 49t49.5 14h131q43 0 61.5 -17t18.5 -63v-802 h133q23 0 29 -10.5t6 -45.5t-6 -45t-29 -10h-373q-23 0 -29 10t-6 45z" />
<glyph unicode="&#xed;" horiz-adv-x="602" d="M94 55q0 35 6 45.5t29 10.5h104v737q0 20 -7 27.5t-27 7.5h-72q-18 0 -25.5 10.5t-7.5 36.5q0 35 14.5 49t49.5 14h131q43 0 61.5 -17t18.5 -63v-802h133q23 0 29 -10.5t6 -45.5t-6 -45t-29 -10h-373q-23 0 -29 10t-6 45zM131 1132q2 6 8 13l248 272q21 24 45 32.5 t76 8.5q64 0 67 -24q1 -8 -8 -17l-286 -272q-38 -35 -95 -35q-59 0 -55 22z" />
<glyph unicode="&#xee;" horiz-adv-x="602" d="M-45 1132.5q2 7.5 10 18.5l189 238q38 47 56.5 58t55.5 11q38 0 59 -11.5t58 -57.5l188 -238q8 -11 10 -18.5t-3 -13t-19.5 -8t-38.5 -1.5q-42 0 -65.5 16.5t-59.5 65.5l-129 172l-125 -172q-36 -49 -59.5 -65.5t-65.5 -16.5q-24 -1 -38.5 1.5t-19.5 8t-3 13zM94 55 q0 35 6 45.5t29 10.5h104v737q0 20 -7 27.5t-27 7.5h-72q-18 0 -25.5 10.5t-7.5 36.5q0 35 14.5 49t49.5 14h131q43 0 61.5 -17t18.5 -63v-802h133q23 0 29 -10.5t6 -45.5t-6 -45t-29 -10h-373q-23 0 -29 10t-6 45z" />
<glyph unicode="&#xef;" horiz-adv-x="602" d="M-43 1262q0 90 82 90h22q40 0 61 -20t21 -70t-14.5 -68t-52.5 -18h-53q-36 0 -51 18t-15 68zM94 55q0 35 6 45.5t29 10.5h104v737q0 20 -7 27.5t-27 7.5h-72q-18 0 -25.5 10.5t-7.5 36.5q0 35 14.5 49t49.5 14h131q43 0 61.5 -17t18.5 -63v-802h133q23 0 29 -10.5 t6 -45.5t-6 -45t-29 -10h-373q-23 0 -29 10t-6 45zM385 1262q0 90 82 90h22q40 0 61 -20t21 -70t-14.5 -68t-52.5 -18h-53q-36 0 -51 18t-15 68z" />
<glyph unicode="&#xf0;" horiz-adv-x="1239" d="M127 408v10q0 207 122.5 323.5t350.5 116.5q213 0 322 -117h22q-35 223 -149 398l-367 -66q-29 -4 -29 41q0 55 29 60l301 53q-111 132 -256 219q-47 28 -4 37q16 4 45 4q167 0 356 -236l215 37q14 3 20.5 -7.5t6.5 -33.5q0 -54 -27 -57l-153 -29q153 -244 153 -567v-37 q0 -582 -491 -582q-220 0 -343.5 104.5t-123.5 328.5zM270 416q0 -164 76.5 -249t249.5 -85q185 0 268.5 108.5t83.5 370.5v53q-80 71 -157 101t-168 30q-190 0 -271.5 -80t-81.5 -241v-8z" />
<glyph unicode="&#xf1;" horiz-adv-x="1378" d="M94 930q0 35 14.5 49t49.5 14h110q43 0 62.5 -18t23.5 -62l6 -63h23q51 88 144 129t249 41q204 0 301 -113.5t97 -339.5v-456h124q23 0 29 -10.5t6 -45.5t-6 -45t-29 -10h-383q-23 0 -28.5 10t-5.5 45t6 45.5t28 10.5h123v438q0 198 -72 281t-233 83q-174 0 -268 -92 t-94 -276v-434h143q23 0 29 -10.5t6 -45.5t-6 -45t-29 -10h-383q-23 0 -29 10t-6 45t6 45.5t29 10.5h105v737q0 21 -6.5 28t-26.5 7h-76q-18 0 -25.5 10.5t-7.5 36.5zM326 1220.5q-6 11.5 2 26.5q39 70 91 100.5t136 30.5q51 0 97 -18.5t72.5 -40.5t59 -40.5t60.5 -18.5 q40 0 66.5 19t47.5 60q8 16 20.5 18.5t45.5 -9.5q24 -9 31.5 -20t-0.5 -30q-69 -139 -221 -139q-48 0 -91 18.5t-69.5 40t-60 40t-62.5 18.5q-42 0 -71.5 -18.5t-59.5 -65.5q-17 -25 -64 2q-24 15 -30 26.5z" />
<glyph unicode="&#xf2;" horiz-adv-x="1228" d="M106 485v23q0 251 128 381.5t380 130.5q250 0 379 -133.5t129 -378.5v-23q0 -247 -134 -378.5t-374 -131.5q-249 0 -378.5 134.5t-129.5 375.5zM250 489q0 -205 86 -308t278 -103t278.5 103t86.5 308v15q0 205 -86.5 307t-278.5 102t-278 -102t-86 -307v-15zM369 1417 q-24 22 6 33q21 8 61 8q49 0 75.5 -8.5t49.5 -32.5l256 -272q21 -23 -17 -32l-34 -3q-59 0 -100 35z" />
<glyph unicode="&#xf3;" horiz-adv-x="1228" d="M106 485v23q0 251 128 381.5t380 130.5q250 0 379 -133.5t129 -378.5v-23q0 -247 -134 -378.5t-374 -131.5q-249 0 -378.5 134.5t-129.5 375.5zM250 489q0 -205 86 -308t278 -103t278.5 103t86.5 308v15q0 205 -86.5 307t-278.5 102t-278 -102t-86 -307v-15zM422 1132 q2 6 8 13l248 272q21 24 45 32.5t76 8.5q64 0 67 -24q1 -8 -8 -17l-287 -272q-38 -35 -94 -35q-59 0 -55 22z" />
<glyph unicode="&#xf4;" horiz-adv-x="1228" d="M106 485v23q0 251 128 381.5t380 130.5q250 0 379 -133.5t129 -378.5v-23q0 -247 -134 -378.5t-374 -131.5q-249 0 -378.5 134.5t-129.5 375.5zM250 489q0 -205 86 -308t278 -103t278.5 103t86.5 308v15q0 205 -86.5 307t-278.5 102t-278 -102t-86 -307v-15zM303 1127.5 q0 9.5 10 23.5l189 238q38 47 56.5 58t55.5 11q38 0 59 -11.5t58 -57.5l189 -238q6 -8 8.5 -14.5t1 -12t-8.5 -9t-20.5 -5t-32.5 -0.5q-42 0 -65.5 16.5t-59.5 65.5l-129 172l-125 -172q-36 -49 -59 -65.5t-65 -16.5q-32 -1 -47 3.5t-15 14z" />
<glyph unicode="&#xf5;" horiz-adv-x="1228" d="M106 485v23q0 251 128 381.5t380 130.5q250 0 379 -133.5t129 -378.5v-23q0 -247 -134 -378.5t-374 -131.5q-249 0 -378.5 134.5t-129.5 375.5zM250 489q0 -205 86 -308t278 -103t278.5 103t86.5 308v15q0 205 -86.5 307t-278.5 102t-278 -102t-86 -307v-15z M250.5 1220.5q-6.5 11.5 1.5 26.5q39 70 91 100.5t136 30.5q51 0 97 -18.5t72.5 -40.5t59 -40.5t60.5 -18.5q75 0 115 79q8 16 20 18.5t45 -9.5q24 -9 31.5 -20t-0.5 -30q-69 -139 -221 -139q-48 0 -91 18.5t-69.5 40t-60 40t-62.5 18.5q-42 0 -71.5 -18.5t-59.5 -65.5 q-16 -25 -63 2q-24 15 -30.5 26.5z" />
<glyph unicode="&#xf6;" horiz-adv-x="1228" d="M106 485v23q0 251 128 381.5t380 130.5q250 0 379 -133.5t129 -378.5v-23q0 -247 -134 -378.5t-374 -131.5q-249 0 -378.5 134.5t-129.5 375.5zM250 489q0 -205 86 -308t278 -103t278.5 103t86.5 308v15q0 205 -86.5 307t-278.5 102t-278 -102t-86 -307v-15zM313 1262 q0 90 82 90h23q40 0 61 -20t21 -70t-15 -68t-53 -18h-53q-36 0 -51 18t-15 68zM741 1262q0 90 82 90h23q40 0 61 -20t21 -70t-15 -68t-53 -18h-53q-36 0 -51 18t-15 68z" />
<glyph unicode="&#xf8;" horiz-adv-x="1228" d="M106 485v23q0 251 128 381.5t380 130.5q92 0 179 -23l81 162q9 16 25 22.5t59 6.5q40 0 58 -9t8 -28l-104 -207q202 -126 202 -436v-23q0 -247 -134 -378.5t-374 -131.5q-83 0 -176 21l-100 -201q-12 -28 -94 -28q-38 0 -52 6.5t-4 25.5l125 248q-207 127 -207 438z M250 489q0 -240 117 -337l376 745q-62 16 -129 16q-192 0 -278 -102t-86 -307v-15zM487 92q52 -14 127 -14q192 0 278.5 103t86.5 308v15q0 236 -115 334z" />
<glyph unicode="&#xf9;" horiz-adv-x="1337" d="M49 930q0 36 14.5 49.5t49.5 13.5h127q42 0 59.5 -16.5t17.5 -61.5v-473q0 -197 66.5 -276.5t234.5 -79.5q359 0 359 360v402q0 20 -7.5 27.5t-27.5 7.5h-65q-33 0 -33 47q0 36 14 49.5t49 13.5h127q41 0 59.5 -17t18.5 -61v-751q0 -33 14 -45.5t56 -12.5h26 q22 0 28.5 -9t6.5 -42q0 -34 -6.5 -44.5t-28.5 -10.5h-53q-78 0 -121.5 32t-58.5 103h-23q-47 -78 -130.5 -119t-223.5 -41q-115 0 -196.5 29t-129 86t-69 132t-21.5 175v451q0 20 -7.5 27.5t-27.5 7.5h-65q-33 0 -33 47zM313 1417q-24 21 6 33q20 8 62 8q49 0 75.5 -8.5 t49.5 -32.5l256 -272q21 -23 -17 -32l-34 -3q-60 0 -101 35z" />
<glyph unicode="&#xfa;" horiz-adv-x="1337" d="M49 930q0 36 14.5 49.5t49.5 13.5h127q42 0 59.5 -16.5t17.5 -61.5v-473q0 -197 66.5 -276.5t234.5 -79.5q359 0 359 360v402q0 20 -7.5 27.5t-27.5 7.5h-65q-33 0 -33 47q0 36 14 49.5t49 13.5h127q41 0 59.5 -17t18.5 -61v-751q0 -33 14 -45.5t56 -12.5h26 q22 0 28.5 -9t6.5 -42q0 -34 -6.5 -44.5t-28.5 -10.5h-53q-78 0 -121.5 32t-58.5 103h-23q-47 -78 -130.5 -119t-223.5 -41q-115 0 -196.5 29t-129 86t-69 132t-21.5 175v451q0 20 -7.5 27.5t-27.5 7.5h-65q-33 0 -33 47zM480 1132q2 7 7 13l248 272q21 24 45 32.5t76 8.5 q64 0 67 -24q1 -8 -8 -17l-286 -272q-38 -35 -94 -35q-60 0 -55 22z" />
<glyph unicode="&#xfb;" horiz-adv-x="1337" d="M49 930q0 36 14.5 49.5t49.5 13.5h127q42 0 59.5 -16.5t17.5 -61.5v-473q0 -197 66.5 -276.5t234.5 -79.5q359 0 359 360v402q0 20 -7.5 27.5t-27.5 7.5h-65q-33 0 -33 47q0 36 14 49.5t49 13.5h127q41 0 59.5 -17t18.5 -61v-751q0 -33 14 -45.5t56 -12.5h26 q22 0 28.5 -9t6.5 -42q0 -34 -6.5 -44.5t-28.5 -10.5h-53q-78 0 -121.5 32t-58.5 103h-23q-47 -78 -130.5 -119t-223.5 -41q-115 0 -196.5 29t-129 86t-69 132t-21.5 175v451q0 20 -7.5 27.5t-27.5 7.5h-65q-33 0 -33 47zM273 1132.5q2 7.5 10 18.5l188 238q38 46 57 57.5 t56 11.5q38 0 58.5 -11.5t57.5 -57.5l189 -238q8 -11 10 -18.5t-3 -13t-19.5 -8t-38.5 -1.5q-42 0 -65.5 16.5t-59.5 65.5l-129 172l-125 -172q-36 -49 -59.5 -65.5t-65.5 -16.5q-24 -1 -38.5 1.5t-19.5 8t-3 13z" />
<glyph unicode="&#xfc;" horiz-adv-x="1337" d="M49 930q0 36 14.5 49.5t49.5 13.5h127q42 0 59.5 -16.5t17.5 -61.5v-473q0 -197 66.5 -276.5t234.5 -79.5q359 0 359 360v402q0 20 -7.5 27.5t-27.5 7.5h-65q-33 0 -33 47q0 36 14 49.5t49 13.5h127q41 0 59.5 -17t18.5 -61v-751q0 -33 14 -45.5t56 -12.5h26 q22 0 28.5 -9t6.5 -42q0 -34 -6.5 -44.5t-28.5 -10.5h-53q-78 0 -121.5 32t-58.5 103h-23q-47 -78 -130.5 -119t-223.5 -41q-115 0 -196.5 29t-129 86t-69 132t-21.5 175v451q0 20 -7.5 27.5t-27.5 7.5h-65q-33 0 -33 47zM291 1262q0 90 82 90h22q40 0 61 -20t21 -70 t-14.5 -68t-52.5 -18h-54q-36 0 -50.5 18t-14.5 68zM719 1262q0 90 82 90h22q40 0 61 -20t21 -70t-14.5 -68t-52.5 -18h-54q-36 0 -50.5 18t-14.5 68z" />
<glyph unicode="&#xfd;" horiz-adv-x="1208" d="M26.5 -428q-1.5 11 12.5 47q18 45 49 33q77 -29 154 -29q99 0 151.5 49.5t126.5 208.5l49 105q-18 0 -28 22l-410 875h-70q-23 0 -28.5 10t-5.5 45t5.5 45t28.5 10h361q23 0 29 -10t6 -45t-6 -45t-29 -10h-146l283 -594q44 -86 57 -187h23q20 110 55 187l260 594h-155 q-23 0 -29 10t-6 45t6 45t29 10h350q23 0 29 -10t6 -45t-6 -45t-29 -10h-64l-464 -1061q-43 -97 -80 -155t-83 -91.5t-95.5 -45t-124.5 -11.5q-108 0 -195 35q-15 7 -16.5 18zM492 1132q2 6 8 13l248 272q21 24 44.5 32.5t75.5 8.5q65 0 68 -24q1 -8 -8 -17l-287 -272 q-38 -35 -94 -35q-59 0 -55 22z" />
<glyph unicode="&#xfe;" horiz-adv-x="1323" d="M94 -403q0 35 6 45t29 10h107v1677q0 20 -6.5 27.5t-28.5 7.5h-66q-33 0 -33 47q0 36 15 50t51 14h125q41 0 59.5 -17t18.5 -61v-252q0 -159 -19 -295h23q54 82 150.5 126t222.5 44q205 0 337 -133t132 -361v-37q0 -208 -102.5 -342.5t-291.5 -164.5q-54 -7 -94 -7 q-240 -3 -358 150h-23q23 -135 23 -295v-178h155q23 0 29 -10t6 -45t-6 -45.5t-29 -10.5h-397q-23 0 -29 10.5t-6 45.5zM365 449q0 -179 88.5 -271t257.5 -92q362 0 362 406v18q0 198 -95 299.5t-251 101.5q-169 0 -265.5 -104t-96.5 -287v-71z" />
<glyph unicode="&#xff;" horiz-adv-x="1208" d="M26.5 -428q-1.5 11 12.5 47q18 45 49 33q77 -29 154 -29q99 0 151.5 49.5t126.5 208.5l49 105q-18 0 -28 22l-410 875h-70q-23 0 -28.5 10t-5.5 45t5.5 45t28.5 10h361q23 0 29 -10t6 -45t-6 -45t-29 -10h-146l283 -594q44 -86 57 -187h23q20 110 55 187l260 594h-155 q-23 0 -29 10t-6 45t6 45t29 10h350q23 0 29 -10t6 -45t-6 -45t-29 -10h-64l-464 -1061q-43 -97 -80 -155t-83 -91.5t-95.5 -45t-124.5 -11.5q-108 0 -195 35q-15 7 -16.5 18zM317 1262q0 90 82 90h23q40 0 61 -20t21 -70t-15 -68t-53 -18h-53q-36 0 -51 18t-15 68z M745 1262q0 90 82 90h23q40 0 61 -20t21 -70t-15 -68t-53 -18h-53q-36 0 -51 18t-15 68z" />
<glyph unicode="&#x100;" horiz-adv-x="1777" d="M53 57q0 36 7 47t28 11h113l544 1276q27 62 46 79t65 17h37q46 0 67.5 -18t47.5 -78l573 -1276h117q21 0 28 -11t7 -47t-7 -46.5t-28 -10.5h-471q-21 0 -28 10.5t-7 46.5t7 47t28 11h180l-160 379h-741l-154 -379h197q22 0 28.5 -10.5t6.5 -47.5q0 -36 -6.5 -46.5 t-28.5 -10.5h-461q-21 0 -28 10.5t-7 46.5zM485 1765q0 30 6 41t27 11h717q18 0 24.5 -11.5t6.5 -40.5q0 -31 -6 -42t-25 -11h-717q-21 0 -27 10.5t-6 42.5zM555 608h645l-211 496q-67 154 -102 274h-25q-33 -128 -96 -274z" />
<glyph unicode="&#x101;" horiz-adv-x="1179" d="M82 270v13q0 144 115 229.5t340 85.5q207 0 305 -98h22v102q0 162 -75 230.5t-248 68.5q-160 0 -328 -57q-19 -6 -30.5 3t-20.5 40q-11 32 -7 46t27 21q185 66 377 66q227 0 331.5 -95.5t104.5 -301.5v-459q0 -32 16 -45t54 -13h27q21 0 27.5 -10t6.5 -41q0 -34 -6 -44.5 t-28 -10.5h-54q-77 0 -114 24t-54 85h-22q-97 -134 -348 -134q-199 0 -308.5 81.5t-109.5 213.5zM225 283q0 -84 80.5 -140.5t237.5 -56.5q151 0 237 60t86 143q0 88 -85 145.5t-238 57.5q-158 0 -238 -56t-80 -145v-8zM252 1239q0 27 6.5 38t24.5 11h587q18 0 24.5 -11 t6.5 -38q0 -30 -6.5 -40.5t-24.5 -10.5h-587q-18 0 -24.5 10.5t-6.5 40.5z" />
<glyph unicode="&#x102;" horiz-adv-x="1777" d="M53 57q0 36 7 47t28 11h113l544 1276q27 62 46 79t65 17h37q46 0 67.5 -18t47.5 -78l573 -1276h117q21 0 28 -11t7 -47t-7 -46.5t-28 -10.5h-471q-21 0 -28 10.5t-7 46.5t7 47t28 11h180l-160 379h-741l-154 -379h197q22 0 28.5 -10.5t6.5 -47.5q0 -36 -6.5 -46.5 t-28.5 -10.5h-461q-21 0 -28 10.5t-7 46.5zM508 1876v20q0 16 13 23.5t48 7.5q40 0 55 -7.5t15 -25.5v-8q0 -41 12.5 -71.5t33.5 -49t52 -30t63.5 -15.5t73.5 -4t73 4t63 15t52 29.5t33.5 49t12.5 72.5v8q0 18 14.5 25.5t53.5 7.5q36 0 49.5 -7.5t13.5 -23.5v-20 q0 -70 -29.5 -121t-82 -79.5t-117 -42t-142.5 -13.5q-168 0 -264 61t-96 195zM555 608h645l-211 496q-67 154 -102 274h-25q-33 -128 -96 -274z" />
<glyph unicode="&#x103;" horiz-adv-x="1179" d="M82 270v13q0 144 115 229.5t340 85.5q207 0 305 -98h22v102q0 162 -75 230.5t-248 68.5q-160 0 -328 -57q-19 -6 -30.5 3t-20.5 40q-11 32 -7 46t27 21q185 66 377 66q227 0 331.5 -95.5t104.5 -301.5v-459q0 -32 16 -45t54 -13h27q21 0 27.5 -10t6.5 -41q0 -34 -6 -44.5 t-28 -10.5h-54q-77 0 -114 24t-54 85h-22q-97 -134 -348 -134q-199 0 -308.5 81.5t-109.5 213.5zM225 283q0 -84 80.5 -140.5t237.5 -56.5q151 0 237 60t86 143q0 88 -85 145.5t-238 57.5q-158 0 -238 -56t-80 -145v-8zM266 1409v14q0 16 11.5 23.5t44.5 7.5q38 0 49.5 -7 t11.5 -26v-8q0 -102 49 -142t148 -40q95 0 142.5 40t47.5 142v8q0 19 11.5 26t49.5 7q33 0 44.5 -7.5t11.5 -23.5v-14q0 -137 -83.5 -203.5t-230.5 -66.5q-150 0 -228.5 64t-78.5 206z" />
<glyph unicode="&#x104;" horiz-adv-x="1777" d="M53 57q0 36 7 47t28 11h113l544 1276q27 62 46 79t65 17h37q46 0 67.5 -18t47.5 -78l573 -1276h117q21 0 28 -11t7 -47q0 -27 -4.5 -38t-16.5 -19q-18 -10 -37 -23q-65 -44 -104 -98.5t-39 -111.5q0 -84 80 -84q34 0 61 6q21 5 29 -0.5t14 -26.5q5 -17 5.5 -26 t-3.5 -14.5t-14 -10.5q-46 -21 -105 -21q-81 0 -129.5 39t-48.5 119v8q0 65 42 132.5t116 111.5h-352q-22 0 -28.5 10.5t-6.5 46.5q0 37 6.5 47.5t28.5 10.5h180l-160 377h-741l-154 -377h197q22 0 28.5 -10.5t6.5 -47.5q0 -36 -6.5 -46.5t-28.5 -10.5h-461q-21 0 -28 10.5 t-7 46.5zM555 608h645l-211 496q-67 154 -102 274h-25q-27 -114 -96 -274z" />
<glyph unicode="&#x105;" horiz-adv-x="1179" d="M82 270v13q0 144 115 229.5t340 85.5q207 0 305 -98h22v102q0 162 -75 230.5t-248 68.5q-160 0 -328 -57q-19 -6 -30.5 3t-20.5 40q-11 32 -7 46t27 21q185 66 377 66q227 0 331.5 -95.5t104.5 -301.5v-459q0 -32 16 -45t54 -13h27q21 0 27.5 -10t6.5 -41q0 -23 -4 -32.5 t-16 -20.5q-10 -8 -35 -25q-143 -98 -143 -210q0 -84 80 -84q34 0 61 6q21 5 29 -0.5t14 -26.5q5 -17 5.5 -26t-3.5 -14.5t-14 -10.5q-46 -21 -105 -21q-81 0 -129.5 39t-48.5 119v8q0 64 41 129.5t123 118.5q-46 7 -71.5 32t-39.5 73h-22q-97 -134 -348 -134 q-199 0 -308.5 81.5t-109.5 213.5zM225 283q0 -84 80.5 -140.5t237.5 -56.5q151 0 237 60t86 143q0 88 -85 145.5t-238 57.5q-158 0 -238 -56t-80 -145v-8z" />
<glyph unicode="&#x106;" horiz-adv-x="1470" d="M127 729v43q0 343 186.5 535t536.5 192q194 0 358 -51q78 -23 102.5 -50.5t24.5 -92.5v-164q0 -19 -13 -27t-54 -8q-42 0 -56 8t-14 27v198q-161 45 -352 45q-296 0 -430.5 -153.5t-134.5 -460.5v-27q0 -335 149 -494t475 -159q167 0 328 37q28 6 38 -2t19 -45 q7 -31 1.5 -43.5t-27.5 -18.5q-59 -17 -173.5 -30t-195.5 -13q-167 0 -296 34t-217.5 97t-146 157t-83 208.5t-25.5 257.5zM592.5 1622.5q0.5 9.5 9.5 19.5l275 244q44 41 129 41q56 0 69 -24q7 -14 -10 -27l-311 -242q-43 -35 -107 -35q-26 0 -40.5 7t-14 16.5z" />
<glyph unicode="&#x107;" horiz-adv-x="1122" d="M106 494v22q0 239 141.5 371.5t418.5 132.5q166 0 272 -37q45 -16 63.5 -39.5t18.5 -71.5v-108q0 -19 -12.5 -27t-53.5 -8q-40 0 -52.5 7.5t-12.5 27.5v123q-102 26 -236 26q-210 0 -306.5 -102.5t-96.5 -300.5v-10q0 -209 99 -310.5t317 -101.5q141 0 282 29q25 4 35 -5 t16 -40q5 -29 1 -40t-25 -18q-43 -15 -139.5 -27t-190.5 -12q-276 0 -407.5 127.5t-131.5 391.5zM334 1132q2 6 8 13l248 272q21 24 45 32.5t76 8.5q64 0 67 -24q1 -8 -8 -17l-287 -272q-38 -35 -94 -35q-59 0 -55 22z" />
<glyph unicode="&#x108;" horiz-adv-x="1470" d="M127 729v43q0 343 186.5 535t536.5 192q194 0 358 -51q78 -23 102.5 -50.5t24.5 -92.5v-164q0 -19 -13 -27t-54 -8q-42 0 -56 8t-14 27v198q-161 45 -352 45q-296 0 -430.5 -153.5t-134.5 -460.5v-27q0 -335 149 -494t475 -159q167 0 328 37q28 6 38 -2t19 -45 q7 -31 1.5 -43.5t-27.5 -18.5q-59 -17 -173.5 -30t-195.5 -13q-167 0 -296 34t-217.5 97t-146 157t-83 208.5t-25.5 257.5zM479 1625q0 9 13 20l270 243q45 39 96 39h14q62 0 109 -41l283 -241q25 -20 0 -34q-21 -12 -72 -12q-44 0 -67 7.5t-50 31.5l-213 189l-200 -189 q-25 -23 -46 -31t-65 -8q-72 0 -72 26z" />
<glyph unicode="&#x109;" horiz-adv-x="1122" d="M106 494v22q0 239 141.5 371.5t418.5 132.5q166 0 272 -37q45 -16 63.5 -39.5t18.5 -71.5v-108q0 -19 -12.5 -27t-53.5 -8q-40 0 -52.5 7.5t-12.5 27.5v123q-102 26 -236 26q-210 0 -306.5 -102.5t-96.5 -300.5v-10q0 -209 99 -310.5t317 -101.5q141 0 282 29q25 4 35 -5 t16 -40q5 -29 1 -40t-25 -18q-43 -15 -139.5 -27t-190.5 -12q-276 0 -407.5 127.5t-131.5 391.5zM312 1132.5q2 7.5 10 18.5l188 238q38 46 57 57.5t56 11.5q38 0 58.5 -11.5t57.5 -57.5l189 -238q8 -11 10 -18.5t-3 -13t-19.5 -8t-38.5 -1.5q-42 0 -65.5 16.5t-59.5 65.5 l-129 172l-125 -172q-36 -49 -59.5 -65.5t-65.5 -16.5q-24 -1 -38.5 1.5t-19.5 8t-3 13z" />
<glyph unicode="&#x10a;" horiz-adv-x="1470" d="M127 729v43q0 343 186.5 535t536.5 192q194 0 358 -51q78 -23 102.5 -50.5t24.5 -92.5v-164q0 -19 -13 -27t-54 -8q-42 0 -56 8t-14 27v198q-161 45 -352 45q-296 0 -430.5 -153.5t-134.5 -460.5v-27q0 -335 149 -494t475 -159q167 0 328 37q28 6 38 -2t19 -45 q7 -31 1.5 -43.5t-27.5 -18.5q-59 -17 -173.5 -30t-195.5 -13q-167 0 -296 34t-217.5 97t-146 157t-83 208.5t-25.5 257.5zM739 1753q0 105 97 105h36q97 0 97 -105q0 -55 -18 -75.5t-58 -20.5h-76q-42 0 -60 20.5t-18 75.5z" />
<glyph unicode="&#x10b;" horiz-adv-x="1122" d="M106 494v22q0 239 141.5 371.5t418.5 132.5q166 0 272 -37q45 -16 63.5 -39.5t18.5 -71.5v-108q0 -19 -12.5 -27t-53.5 -8q-40 0 -52.5 7.5t-12.5 27.5v123q-102 26 -236 26q-210 0 -306.5 -102.5t-96.5 -300.5v-10q0 -209 99 -310.5t317 -101.5q141 0 282 29q25 4 35 -5 t16 -40q5 -29 1 -40t-25 -18q-43 -15 -139.5 -27t-190.5 -12q-276 0 -407.5 127.5t-131.5 391.5zM524 1264q0 102 97 102h16q45 0 70.5 -23t25.5 -79q0 -55 -17 -75t-57 -20h-59q-41 0 -58.5 20t-17.5 75z" />
<glyph unicode="&#x10c;" horiz-adv-x="1470" d="M127 729v43q0 343 186.5 535t536.5 192q194 0 358 -51q78 -23 102.5 -50.5t24.5 -92.5v-164q0 -19 -13 -27t-54 -8q-42 0 -56 8t-14 27v198q-161 45 -352 45q-296 0 -430.5 -153.5t-134.5 -460.5v-27q0 -335 149 -494t475 -159q167 0 328 37q28 6 38 -2t19 -45 q7 -31 1.5 -43.5t-27.5 -18.5q-59 -17 -173.5 -30t-195.5 -13q-167 0 -296 34t-217.5 97t-146 157t-83 208.5t-25.5 257.5zM465 1882q-30 26 11 38q21 7 61 7q48 0 71.5 -6.5t48.5 -30.5l211 -194l199 194q24 22 45 29.5t66 7.5q74 0 75 -25q0 -9 -12 -20l-272 -244 q-50 -39 -97 -39h-12q-37 0 -60.5 9t-49.5 32z" />
<glyph unicode="&#x10d;" horiz-adv-x="1122" d="M106 494v22q0 239 141.5 371.5t418.5 132.5q166 0 272 -37q45 -16 63.5 -39.5t18.5 -71.5v-108q0 -19 -12.5 -27t-53.5 -8q-40 0 -52.5 7.5t-12.5 27.5v123q-102 26 -236 26q-210 0 -306.5 -102.5t-96.5 -300.5v-10q0 -209 99 -310.5t317 -101.5q141 0 282 29q25 4 35 -5 t16 -40q5 -29 1 -40t-25 -18q-43 -15 -139.5 -27t-190.5 -12q-276 0 -407.5 127.5t-131.5 391.5zM322 1433.5q-2 7.5 3 13t19.5 8t38.5 1.5q40 0 63 -15t62 -67l125 -172l129 172q36 51 60.5 66.5t64.5 15.5q24 1 38.5 -1.5t19.5 -8t3 -13t-10 -18.5l-188 -237 q-37 -46 -58 -58t-59 -12q-37 0 -56 11.5t-57 58.5l-188 237q-8 11 -10 18.5z" />
<glyph unicode="&#x10e;" horiz-adv-x="1550" d="M115 57q0 36 7 47t28 11h104v1245h-104q-21 0 -28 10.5t-7 46.5t7 47t28 11h499q774 0 774 -713v-47q0 -159 -44 -287.5t-133 -225.5t-235 -149.5t-339 -52.5h-522q-21 0 -28 10.5t-7 46.5zM322 1882q-31 27 11 39q22 6 60 6q48 0 72 -6.5t49 -30.5l211 -194l199 194 q24 22 44.5 29.5t65.5 7.5q73 0 76 -24q1 -10 -12 -21l-273 -244q-50 -39 -96 -39h-12q-37 0 -61 9.5t-50 31.5zM399 115h277q303 0 448.5 148.5t145.5 461.5v25q0 316 -155.5 463t-481.5 147h-234v-1245z" />
<glyph unicode="&#x10f;" horiz-adv-x="1413" d="M106 465v49q0 227 129 366.5t371 139.5q122 0 205.5 -40t144.5 -126h23q-23 104 -23 244v231q0 22 -7 28.5t-27 6.5h-66q-19 0 -26 11t-7 36q0 35 14.5 49.5t49.5 14.5h125q43 0 61.5 -17t18.5 -63v-1231q0 -32 15.5 -45t55.5 -13h25q22 0 28.5 -10t6.5 -41 q0 -34 -6.5 -44.5t-28.5 -10.5h-62q-147 0 -168 119h-22q-42 -65 -132 -104.5t-222 -39.5q-217 0 -346.5 134t-129.5 356zM250 481q0 -180 86 -288.5t256 -108.5q175 0 273 88t98 258v92q0 194 -93 290.5t-264 96.5t-263.5 -106.5t-92.5 -302.5v-19zM1214 1356q0 94 82 94 h21q38 0 59 -22t21 -80q0 -147 -51 -263q-10 -22 -21.5 -29t-34.5 -7h-28q-20 0 -25.5 6t0.5 28q27 82 35 201q-28 3 -43 19.5t-15 52.5z" />
<glyph unicode="&#x110;" horiz-adv-x="1550" d="M33 758q0 36 7 46.5t32 10.5h182v545h-104q-21 0 -28 10.5t-7 46.5t7 47t28 11h499q774 0 774 -713v-47q0 -159 -44 -287.5t-133 -225.5t-235 -149.5t-339 -52.5h-522q-21 0 -28 10.5t-7 46.5t7 47t28 11h104v587h-182q-24 0 -31.5 11.5t-7.5 44.5zM399 115h277 q303 0 448.5 148.5t145.5 461.5v25q0 316 -155.5 463t-481.5 147h-234v-545h402q22 0 28.5 -11t6.5 -46q0 -33 -7 -44.5t-28 -11.5h-402v-587z" />
<glyph unicode="&#x111;" horiz-adv-x="1316" d="M106 465v49q0 227 129 366.5t371 139.5q122 0 205.5 -40t144.5 -126h23q-23 104 -23 264v39h-360q-18 0 -24.5 10.5t-6.5 40.5q0 27 6.5 38t24.5 11h360v72q0 22 -7 28.5t-27 6.5h-66q-19 0 -26 11t-7 36q0 35 14.5 49.5t49.5 14.5h125q43 0 61.5 -17t18.5 -63v-138h133 q18 0 24 -10.5t6 -38.5q0 -30 -6 -40.5t-24 -10.5h-133v-993q0 -32 15.5 -45t55.5 -13h25q22 0 28.5 -10t6.5 -41q0 -34 -6.5 -44.5t-28.5 -10.5h-62q-147 0 -168 119h-22q-42 -65 -132 -104.5t-222 -39.5q-217 0 -346.5 134t-129.5 356zM250 481q0 -180 86 -288.5 t256 -108.5q175 0 273 88t98 258v92q0 194 -93 290.5t-264 96.5t-263.5 -106.5t-92.5 -302.5v-19z" />
<glyph unicode="&#x112;" horiz-adv-x="1443" d="M115 57q0 36 7 47t28 11h104v1245h-104q-21 0 -28 10.5t-7 46.5t6.5 47t25.5 11h1084q57 0 74.5 -16t17.5 -66v-242q0 -19 -13 -27t-55 -8t-55.5 8t-13.5 27v209h-787v-551h574v111q0 19 12.5 26.5t54.5 7.5t55 -7.5t13 -26.5v-342q0 -19 -13 -27t-55 -8q-41 0 -54 8 t-13 27v120h-574v-583h801v209q0 18 14 26t56 8t54.5 -7.5t12.5 -26.5v-242q0 -50 -18.5 -66t-75.5 -16h-1093q-21 0 -28 10.5t-7 46.5zM344 1765q0 30 6 41t27 11h717q18 0 24 -11.5t6 -40.5q0 -31 -6 -42t-24 -11h-717q-21 0 -27 10.5t-6 42.5z" />
<glyph unicode="&#x113;" horiz-adv-x="1177" d="M106 473v41q0 243 136 374.5t374 131.5q217 0 330 -114t113 -324v-27q0 -71 -15.5 -85.5t-93.5 -14.5h-700q8 -198 100 -282.5t305 -84.5q158 0 308 47q21 7 31.5 0.5t19.5 -37.5q10 -31 7.5 -44t-20.5 -19q-168 -60 -358 -60q-149 0 -254.5 35.5t-166.5 103t-88.5 155.5 t-27.5 204zM254 563h678q0 181 -82 265.5t-246 84.5q-174 0 -262 -91.5t-88 -258.5zM281 1239q0 27 6 38t24 11h588q18 0 24.5 -11t6.5 -38q0 -30 -6.5 -40.5t-24.5 -10.5h-588q-18 0 -24 10.5t-6 40.5z" />
<glyph unicode="&#x114;" horiz-adv-x="1443" d="M115 57q0 36 7 47t28 11h104v1245h-104q-21 0 -28 10.5t-7 46.5t6.5 47t25.5 11h1084q57 0 74.5 -16t17.5 -66v-242q0 -19 -13 -27t-55 -8t-55.5 8t-13.5 27v209h-787v-551h574v111q0 19 12.5 26.5t54.5 7.5t55 -7.5t13 -26.5v-342q0 -19 -13 -27t-55 -8q-41 0 -54 8 t-13 27v120h-574v-583h801v209q0 18 14 26t56 8t54.5 -7.5t12.5 -26.5v-242q0 -50 -18.5 -66t-75.5 -16h-1093q-21 0 -28 10.5t-7 46.5zM383 1876v20q0 16 13 23.5t48 7.5q40 0 55 -7.5t15 -25.5v-8q0 -51 18.5 -86t53 -52.5t73.5 -24.5t91 -7q41 0 72.5 4t63 15t52 29.5 t33 49t12.5 72.5v8q0 18 14.5 25.5t53.5 7.5q36 0 49.5 -7.5t13.5 -23.5v-20q0 -70 -29.5 -121t-82 -79.5t-117 -42t-142.5 -13.5q-168 0 -264 61t-96 195z" />
<glyph unicode="&#x115;" horiz-adv-x="1177" d="M106 473v41q0 243 136 374.5t374 131.5q217 0 330 -114t113 -324v-27q0 -71 -15.5 -85.5t-93.5 -14.5h-700q8 -198 100 -282.5t305 -84.5q158 0 308 47q21 7 31.5 0.5t19.5 -37.5q10 -31 7.5 -44t-20.5 -19q-168 -60 -358 -60q-149 0 -254.5 35.5t-166.5 103t-88.5 155.5 t-27.5 204zM254 563h678q0 181 -82 265.5t-246 84.5q-174 0 -262 -91.5t-88 -258.5zM297 1409v14q0 16 11 23.5t44 7.5q38 0 50 -7.5t12 -25.5v-8q0 -102 48.5 -142t147.5 -40q96 0 143.5 40t47.5 142v8q0 19 11.5 26t49.5 7q33 0 44.5 -7.5t11.5 -23.5v-14 q0 -137 -83.5 -203.5t-230.5 -66.5q-150 0 -228.5 64t-78.5 206z" />
<glyph unicode="&#x116;" horiz-adv-x="1443" d="M115 57q0 36 7 47t28 11h104v1245h-104q-21 0 -28 10.5t-7 46.5t6.5 47t25.5 11h1084q57 0 74.5 -16t17.5 -66v-242q0 -19 -13 -27t-55 -8t-55.5 8t-13.5 27v209h-787v-551h574v111q0 19 12.5 26.5t54.5 7.5t55 -7.5t13 -26.5v-342q0 -19 -13 -27t-55 -8q-41 0 -54 8 t-13 27v120h-574v-583h801v209q0 18 14 26t56 8t54.5 -7.5t12.5 -26.5v-242q0 -50 -18.5 -66t-75.5 -16h-1093q-21 0 -28 10.5t-7 46.5zM618 1753q0 105 97 105h37q96 0 96 -105q0 -55 -18 -75.5t-58 -20.5h-76q-42 0 -60 20.5t-18 75.5z" />
<glyph unicode="&#x117;" horiz-adv-x="1177" d="M106 473v41q0 243 136 374.5t374 131.5q217 0 330 -114t113 -324v-27q0 -71 -15.5 -85.5t-93.5 -14.5h-700q8 -198 100 -282.5t305 -84.5q158 0 308 47q21 7 31.5 0.5t19.5 -37.5q10 -31 7.5 -44t-20.5 -19q-168 -60 -358 -60q-149 0 -254.5 35.5t-166.5 103t-88.5 155.5 t-27.5 204zM254 563h678q0 181 -82 265.5t-246 84.5q-174 0 -262 -91.5t-88 -258.5zM502 1264q0 102 96 102h16q97 0 97 -102q0 -55 -17 -75t-57 -20h-59q-41 0 -58.5 20t-17.5 75z" />
<glyph unicode="&#x118;" horiz-adv-x="1443" d="M115 57q0 36 7 47t28 11h104v1245h-104q-21 0 -28 10.5t-7 46.5t6.5 47t25.5 11h1084q57 0 74.5 -16t17.5 -66v-242q0 -19 -13 -27t-55 -8t-55.5 8t-13.5 27v209h-787v-551h574v111q0 19 12.5 26.5t54.5 7.5t55 -7.5t13 -26.5v-342q0 -19 -13 -27t-55 -8q-41 0 -54 8 t-13 27v120h-574v-583h801v209q0 18 14 26t56 8t54.5 -7.5t12.5 -26.5v-242q0 -32 -7.5 -48t-29.5 -28q-26 -15 -43 -29q-68 -55 -105.5 -105t-37.5 -105q0 -84 80 -84q34 0 61 6q21 5 29 -0.5t14 -26.5q5 -17 5.5 -26t-3.5 -14.5t-14 -10.5q-46 -21 -104 -21 q-81 0 -129.5 39t-48.5 119v8q0 65 42 131.5t115 112.5h-1011q-21 0 -28 10.5t-7 46.5z" />
<glyph unicode="&#x119;" horiz-adv-x="1177" d="M106 473v41q0 243 136 374.5t374 131.5q217 0 330 -114t113 -324v-27q0 -71 -15.5 -85.5t-93.5 -14.5h-700q8 -198 100 -282.5t305 -84.5q158 0 308 47q21 7 31.5 1t19.5 -36q10 -31 7.5 -45t-20.5 -20q-70 -25 -120 -58q-144 -94 -144 -210q0 -84 80 -84q35 0 62 6 q21 5 29 -0.5t14 -26.5q7 -25 4.5 -34t-17.5 -17q-47 -21 -104 -21q-87 0 -132.5 41.5t-45.5 116.5v8q0 55 32 115t97 111q-65 -7 -113 -7q-149 0 -254.5 35.5t-166.5 103t-88.5 155.5t-27.5 204zM254 563h678q0 181 -82 265.5t-246 84.5q-174 0 -262 -91.5t-88 -258.5z" />
<glyph unicode="&#x11a;" horiz-adv-x="1443" d="M115 57q0 36 7 47t28 11h104v1245h-104q-21 0 -28 10.5t-7 46.5t6.5 47t25.5 11h1084q57 0 74.5 -16t17.5 -66v-242q0 -19 -13 -27t-55 -8t-55.5 8t-13.5 27v209h-787v-551h574v111q0 19 12.5 26.5t54.5 7.5t55 -7.5t13 -26.5v-342q0 -19 -13 -27t-55 -8q-41 0 -54 8 t-13 27v120h-574v-583h801v209q0 18 14 26t56 8t54.5 -7.5t12.5 -26.5v-242q0 -50 -18.5 -66t-75.5 -16h-1093q-21 0 -28 10.5t-7 46.5zM346 1882q-30 26 11 38q22 7 61 7q48 0 72 -6.5t49 -30.5l211 -194l198 194q24 22 45 29.5t66 7.5q74 0 75 -25q0 -9 -12 -20l-272 -244 q-50 -39 -96 -39h-13q-37 0 -60.5 9t-49.5 32z" />
<glyph unicode="&#x11b;" horiz-adv-x="1177" d="M106 473v41q0 243 136 374.5t374 131.5q217 0 330 -114t113 -324v-27q0 -71 -15.5 -85.5t-93.5 -14.5h-700q8 -198 100 -282.5t305 -84.5q158 0 308 47q21 7 31.5 0.5t19.5 -37.5q10 -31 7.5 -44t-20.5 -19q-168 -60 -358 -60q-149 0 -254.5 35.5t-166.5 103t-88.5 155.5 t-27.5 204zM254 563h678q0 181 -82 265.5t-246 84.5q-174 0 -262 -91.5t-88 -258.5zM275 1433.5q-2 7.5 3 13t19.5 8t38.5 1.5q40 0 63 -15t62 -67l125 -172l129 172q36 51 60.5 66.5t64.5 15.5q24 1 38.5 -1.5t19.5 -8t3 -13t-10 -18.5l-189 -237q-37 -46 -57.5 -58 t-58.5 -12q-37 0 -56 11.5t-57 58.5l-188 237q-8 11 -10 18.5z" />
<glyph unicode="&#x11c;" horiz-adv-x="1591" d="M127 709v43q0 358 199.5 552.5t552.5 194.5q90 0 211 -16t180 -35q72 -22 97.5 -52.5t25.5 -99.5v-137q0 -18 -16 -26.5t-58 -8.5t-57 8.5t-15 26.5v176q-179 49 -375 49q-297 0 -444 -155t-147 -479v-29q0 -326 157 -474.5t496 -148.5q190 0 323 41v516h-454 q-21 0 -28 13t-7 45q0 33 7 45t28 12h497q63 0 83 -15.5t20 -66.5v-653q0 -20 -15 -28.5t-55 -8.5q-31 0 -46 12t-23 39h-25q-124 -74 -334 -74q-390 0 -584 181.5t-194 552.5zM446 1625q0 9 13 20l270 243q45 39 96 39h15q36 0 59 -9t49 -32l283 -241q25 -20 0 -34 q-21 -12 -72 -12q-44 0 -67 7.5t-50 31.5l-213 189l-200 -189q-25 -23 -46 -31t-65 -8q-72 0 -72 26z" />
<glyph unicode="&#x11d;" horiz-adv-x="1220" d="M61 -150q0 153 138 228v22q-72 62 -72 162q0 57 30.5 110t86.5 89q-58 79 -58 192v25q0 154 108 248t320 94q161 0 269 -62q74 93 225 93q57 0 106 -17q25 -9 31 -22.5t-2 -44.5q-7 -30 -17 -39t-24 -6q-51 14 -94 14q-90 0 -129 -57q63 -81 63 -201v-25 q0 -160 -109 -247t-319 -87q-186 0 -297 68q-57 -60 -57 -131q0 -68 57 -125q132 37 299 37q276 0 420 -81.5t144 -236.5v-20q0 -69 -27 -122.5t-88.5 -97.5t-173.5 -67.5t-270 -23.5q-127 0 -224.5 16t-160.5 43t-102.5 67.5t-56 85t-16.5 99.5v20zM201 -156v-12 q0 -102 96.5 -154.5t323.5 -52.5q154 0 248.5 25.5t132.5 70t38 111.5v12q0 103 -97.5 158t-321.5 55t-322 -55t-98 -158zM295 1132.5q2 7.5 10 18.5l189 238q38 47 56.5 58t55.5 11q38 0 59 -11.5t58 -57.5l188 -238q8 -11 10 -18.5t-3 -13t-19.5 -8t-38.5 -1.5 q-42 0 -65.5 16.5t-59.5 65.5l-129 172l-125 -172q-36 -49 -59.5 -65.5t-65.5 -16.5q-24 -1 -38.5 1.5t-19.5 8t-3 13zM328 657q0 -114 68 -171.5t218 -57.5q141 0 214 63t73 171v12q0 126 -70 181.5t-219 55.5q-144 0 -214 -62.5t-70 -176.5v-15z" />
<glyph unicode="&#x11e;" horiz-adv-x="1591" d="M127 709v43q0 358 199.5 552.5t552.5 194.5q90 0 211 -16t180 -35q72 -22 97.5 -52.5t25.5 -99.5v-137q0 -18 -16 -26.5t-58 -8.5t-57 8.5t-15 26.5v176q-179 49 -375 49q-297 0 -444 -155t-147 -479v-29q0 -326 157 -474.5t496 -148.5q190 0 323 41v516h-454 q-21 0 -28 13t-7 45q0 33 7 45t28 12h497q63 0 83 -15.5t20 -66.5v-653q0 -20 -15 -28.5t-55 -8.5q-31 0 -46 12t-23 39h-25q-124 -74 -334 -74q-390 0 -584 181.5t-194 552.5zM453 1876v20q0 16 13 23.5t48 7.5q40 0 55 -7.5t15 -25.5v-8q0 -41 12.5 -71.5t33.5 -49t52 -30 t63.5 -15.5t73.5 -4t73 4t63 15t52 29.5t33.5 49t12.5 72.5v8q0 18 14 25.5t53 7.5q36 0 50 -7.5t14 -23.5v-20q0 -70 -29.5 -121t-82 -79.5t-117 -42t-142.5 -13.5q-168 0 -264 61t-96 195z" />
<glyph unicode="&#x11f;" horiz-adv-x="1220" d="M61 -150q0 153 138 228v22q-72 62 -72 162q0 57 30.5 110t86.5 89q-58 79 -58 192v25q0 154 108 248t320 94q161 0 269 -62q74 93 225 93q57 0 106 -17q25 -9 31 -22.5t-2 -44.5q-7 -30 -17 -39t-24 -6q-51 14 -94 14q-90 0 -129 -57q63 -81 63 -201v-25 q0 -160 -109 -247t-319 -87q-186 0 -297 68q-57 -60 -57 -131q0 -68 57 -125q132 37 299 37q276 0 420 -81.5t144 -236.5v-20q0 -69 -27 -122.5t-88.5 -97.5t-173.5 -67.5t-270 -23.5q-127 0 -224.5 16t-160.5 43t-102.5 67.5t-56 85t-16.5 99.5v20zM201 -156v-12 q0 -102 96.5 -154.5t323.5 -52.5q154 0 248.5 25.5t132.5 70t38 111.5v12q0 103 -97.5 158t-321.5 55t-322 -55t-98 -158zM299 1409v14q0 16 11 23.5t44 7.5q38 0 50 -7.5t12 -25.5v-8q0 -102 48.5 -142t147.5 -40q96 0 143.5 40t47.5 142v8q0 19 11.5 26t49.5 7 q33 0 44.5 -7.5t11.5 -23.5v-14q0 -137 -83.5 -203.5t-230.5 -66.5q-150 0 -228.5 64t-78.5 206zM328 657q0 -114 68 -171.5t218 -57.5q141 0 214 63t73 171v12q0 126 -70 181.5t-219 55.5q-144 0 -214 -62.5t-70 -176.5v-15z" />
<glyph unicode="&#x120;" horiz-adv-x="1591" d="M127 709v43q0 358 199.5 552.5t552.5 194.5q90 0 211 -16t180 -35q72 -22 97.5 -52.5t25.5 -99.5v-137q0 -18 -16 -26.5t-58 -8.5t-57 8.5t-15 26.5v176q-179 49 -375 49q-297 0 -444 -155t-147 -479v-29q0 -326 157 -474.5t496 -148.5q190 0 323 41v516h-454 q-21 0 -28 13t-7 45q0 33 7 45t28 12h497q63 0 83 -15.5t20 -66.5v-653q0 -20 -15 -28.5t-55 -8.5q-31 0 -46 12t-23 39h-25q-124 -74 -334 -74q-390 0 -584 181.5t-194 552.5zM793 1753q0 105 96 105h37q96 0 96 -105q0 -55 -18 -75.5t-58 -20.5h-76q-41 0 -59 20.5 t-18 75.5z" />
<glyph unicode="&#x121;" horiz-adv-x="1220" d="M61 -150q0 153 138 228v22q-72 62 -72 162q0 57 30.5 110t86.5 89q-58 79 -58 192v25q0 154 108 248t320 94q161 0 269 -62q74 93 225 93q57 0 106 -17q25 -9 31 -22.5t-2 -44.5q-7 -30 -17 -39t-24 -6q-51 14 -94 14q-90 0 -129 -57q63 -81 63 -201v-25 q0 -160 -109 -247t-319 -87q-186 0 -297 68q-57 -60 -57 -131q0 -68 57 -125q132 37 299 37q276 0 420 -81.5t144 -236.5v-20q0 -69 -27 -122.5t-88.5 -97.5t-173.5 -67.5t-270 -23.5q-127 0 -224.5 16t-160.5 43t-102.5 67.5t-56 85t-16.5 99.5v20zM201 -156v-12 q0 -102 96.5 -154.5t323.5 -52.5q154 0 248.5 25.5t132.5 70t38 111.5v12q0 103 -97.5 158t-321.5 55t-322 -55t-98 -158zM328 657q0 -114 68 -171.5t218 -57.5q141 0 214 63t73 171v12q0 126 -70 181.5t-219 55.5q-144 0 -214 -62.5t-70 -176.5v-15zM504 1264q0 102 96 102 h16q97 0 97 -102q0 -55 -17 -75t-57 -20h-59q-41 0 -58.5 20t-17.5 75z" />
<glyph unicode="&#x122;" horiz-adv-x="1591" d="M127 709v43q0 358 199.5 552.5t552.5 194.5q90 0 211 -16t180 -35q72 -22 97.5 -52.5t25.5 -99.5v-137q0 -18 -16 -26.5t-58 -8.5t-57 8.5t-15 26.5v176q-179 49 -375 49q-297 0 -444 -155t-147 -479v-29q0 -326 157 -474.5t496 -148.5q190 0 323 41v516h-454 q-21 0 -28 13t-7 45q0 33 7 45t28 12h497q63 0 83 -15.5t20 -66.5v-653q0 -20 -15 -28.5t-55 -8.5q-31 0 -46 12t-23 39h-25q-124 -74 -334 -74q-390 0 -584 181.5t-194 552.5zM821 -242q0 95 82 95h21q38 0 59 -22.5t21 -80.5q0 -144 -52 -262q-10 -23 -21.5 -30t-33.5 -7 h-29q-20 0 -25 6.5t1 28.5q27 82 35 201q-29 3 -43.5 19t-14.5 52z" />
<glyph unicode="&#x123;" horiz-adv-x="1220" d="M61 -150q0 153 138 228v22q-72 62 -72 162q0 57 30.5 110t86.5 89q-58 79 -58 192v25q0 154 108 248t320 94q161 0 269 -62q74 93 225 93q57 0 106 -17q25 -9 31 -22.5t-2 -44.5q-7 -30 -17 -39t-24 -6q-51 14 -94 14q-90 0 -129 -57q63 -81 63 -201v-25 q0 -160 -109 -247t-319 -87q-186 0 -297 68q-57 -60 -57 -131q0 -68 57 -125q132 37 299 37q276 0 420 -81.5t144 -236.5v-20q0 -69 -27 -122.5t-88.5 -97.5t-173.5 -67.5t-270 -23.5q-127 0 -224.5 16t-160.5 43t-102.5 67.5t-56 85t-16.5 99.5v20zM201 -156v-12 q0 -102 96.5 -154.5t323.5 -52.5q154 0 248.5 25.5t132.5 70t38 111.5v12q0 103 -97.5 158t-321.5 55t-322 -55t-98 -158zM328 657q0 -114 68 -171.5t218 -57.5q141 0 214 63t73 171v12q0 126 -70 181.5t-219 55.5q-144 0 -214 -62.5t-70 -176.5v-15zM516 1282q0 146 51 262 q10 23 21.5 30t34.5 7h28q20 0 25.5 -6.5t-0.5 -28.5q-27 -82 -35 -200q28 -3 42.5 -19.5t14.5 -52.5q0 -94 -82 -94h-20q-38 0 -59 22t-21 80z" />
<glyph unicode="&#x124;" horiz-adv-x="1710" d="M115 57q0 36 7 47t28 11h104v1245h-104q-21 0 -28 10.5t-7 46.5t7 47t28 11h354q21 0 28 -11t7 -47t-7 -46.5t-28 -10.5h-105v-543h912v543h-105q-21 0 -28 10.5t-7 46.5t7 47t28 11h355q21 0 27.5 -11t6.5 -47t-6.5 -46.5t-27.5 -10.5h-105v-1245h105q21 0 27.5 -11 t6.5 -47t-6.5 -46.5t-27.5 -10.5h-355q-21 0 -28 10.5t-7 46.5t7 47t28 11h105v587h-912v-587h105q21 0 28 -11t7 -47t-7 -46.5t-28 -10.5h-354q-21 0 -28 10.5t-7 46.5zM472 1625q2 10 13 20l271 243q45 39 96 39h14q62 0 109 -41l282 -241q25 -20 0 -34q-22 -12 -71 -12 q-44 0 -67 7.5t-50 31.5l-213 189l-201 -189q-25 -23 -45.5 -31t-64.5 -8q-73 0 -73 26z" />
<glyph unicode="&#x125;" horiz-adv-x="1396" d="M-67 1613.5q2 7.5 10 18.5l188 238q38 46 57 57.5t56 11.5q38 0 58.5 -11.5t57.5 -57.5l189 -238q8 -11 10 -18.5t-3 -13t-19.5 -8t-38.5 -1.5q-42 0 -65.5 16.5t-59.5 65.5l-129 172l-125 -172q-36 -49 -59.5 -65.5t-65.5 -16.5q-24 -1 -38.5 1.5t-19.5 8t-3 13zM94 55 q0 35 6 45.5t29 10.5h121v1218q0 20 -7.5 27.5t-27.5 7.5h-74q-17 0 -24.5 10.5t-7.5 36.5q0 35 14 49.5t49 14.5h133q43 0 61.5 -17t18.5 -63v-256q0 -163 -18 -289h22q100 170 399 170q199 0 301.5 -109.5t102.5 -343.5v-456h125q23 0 29 -10.5t6 -45.5t-6 -45t-29 -10 h-383q-23 0 -29 10t-6 45t6 45.5t29 10.5h123v411q0 215 -68 303t-239 88q-178 0 -271.5 -93t-93.5 -263v-446h125q23 0 29 -10.5t6 -45.5t-6 -45t-29 -10h-381q-23 0 -29 10t-6 45z" />
<glyph unicode="&#x126;" horiz-adv-x="1710" d="M61 1094q0 27 6.5 38t24.5 11h162v217h-104q-21 0 -28 10.5t-7 46.5t7 47t28 11h354q21 0 28 -11t7 -47t-7 -46.5t-28 -10.5h-105v-217h912v217h-105q-21 0 -28 10.5t-7 46.5t7 47t28 11h355q21 0 27.5 -11t6.5 -47t-6.5 -46.5t-27.5 -10.5h-105v-217h162q18 0 24.5 -11 t6.5 -38q0 -30 -6.5 -41t-24.5 -11h-162v-927h105q21 0 27.5 -11t6.5 -47t-6.5 -46.5t-27.5 -10.5h-355q-21 0 -28 10.5t-7 46.5t7 47t28 11h105v590h-912v-590h105q21 0 28 -11t7 -47t-7 -46.5t-28 -10.5h-354q-21 0 -28 10.5t-7 46.5t7 47t28 11h104v927h-162 q-18 0 -24.5 11t-6.5 41zM399 817h912v225h-912v-225z" />
<glyph unicode="&#x127;" horiz-adv-x="1396" d="M74 1188q0 28 6 38.5t24 10.5h146v92q0 20 -7.5 27.5t-27.5 7.5h-74q-17 0 -24.5 10.5t-7.5 36.5q0 35 14 49.5t49 14.5h133q43 0 61.5 -17t18.5 -63v-158h373q18 0 24 -10.5t6 -38.5q0 -30 -6 -40.5t-24 -10.5h-373q0 -164 -18 -287h22q100 170 399 170 q199 0 301.5 -109.5t102.5 -343.5v-456h125q23 0 29 -10.5t6 -45.5t-6 -45t-29 -10h-383q-23 0 -29 10t-6 45t6 45.5t29 10.5h123v411q0 215 -68 303t-239 88q-178 0 -271.5 -93t-93.5 -263v-446h125q23 0 29 -10.5t6 -45.5t-6 -45t-29 -10h-381q-23 0 -29 10t-6 45t6 45.5 t29 10.5h121v1026h-146q-18 0 -24 10.5t-6 40.5z" />
<glyph unicode="&#x128;" horiz-adv-x="653" d="M-76 1751q77 125 244 125q60 0 112.5 -19t83 -41.5t69.5 -41.5t75 -19q83 0 123 78q16 32 69 10q47 -16 35 -53q-22 -64 -81.5 -101.5t-147.5 -37.5q-58 0 -110 19t-84 41.5t-73 41.5t-79 19q-47 0 -78 -18t-59 -62q-18 -30 -70 0q-48 27 -29 59zM115 57q0 36 7 47t28 11 h104v1245h-104q-21 0 -28 10.5t-7 46.5t7 47t28 11h354q21 0 28 -11t7 -47t-7 -46.5t-28 -10.5h-105v-1245h105q21 0 28 -11t7 -47t-7 -46.5t-28 -10.5h-354q-21 0 -28 10.5t-7 46.5z" />
<glyph unicode="&#x129;" horiz-adv-x="602" d="M-75.5 1220.5q-6.5 11.5 1.5 26.5q39 70 91.5 100.5t136.5 30.5q51 0 96.5 -18.5t72.5 -40.5t59 -40.5t60 -18.5q75 0 115 79q8 16 20.5 18.5t45.5 -9.5q24 -9 31 -20t-1 -30q-69 -139 -221 -139q-48 0 -91 18.5t-69.5 40t-59.5 40t-62 18.5q-42 0 -72 -18.5t-60 -65.5 q-16 -25 -63 2q-24 15 -30.5 26.5zM94 55q0 35 6 45.5t29 10.5h104v737q0 20 -7 27.5t-27 7.5h-72q-18 0 -25.5 10.5t-7.5 36.5q0 35 14.5 49t49.5 14h131q43 0 61.5 -17t18.5 -63v-802h133q23 0 29 -10.5t6 -45.5t-6 -45t-29 -10h-373q-23 0 -29 10t-6 45z" />
<glyph unicode="&#x12a;" horiz-adv-x="653" d="M-63 1765q0 30 5.5 41t26.5 11h717q18 0 24.5 -11.5t6.5 -40.5q0 -31 -6 -42t-25 -11h-717q-21 0 -26.5 10.5t-5.5 42.5zM115 57q0 36 7 47t28 11h104v1245h-104q-21 0 -28 10.5t-7 46.5t7 47t28 11h354q21 0 28 -11t7 -47t-7 -46.5t-28 -10.5h-105v-1245h105 q21 0 28 -11t7 -47t-7 -46.5t-28 -10.5h-354q-21 0 -28 10.5t-7 46.5z" />
<glyph unicode="&#x12b;" horiz-adv-x="602" d="M-43 1239q0 27 6.5 38t24.5 11h587q18 0 24.5 -11t6.5 -38q0 -30 -6.5 -40.5t-24.5 -10.5h-587q-18 0 -24.5 10.5t-6.5 40.5zM94 55q0 35 6 45.5t29 10.5h104v737q0 20 -7 27.5t-27 7.5h-72q-18 0 -25.5 10.5t-7.5 36.5q0 35 14.5 49t49.5 14h131q43 0 61.5 -17t18.5 -63 v-802h133q23 0 29 -10.5t6 -45.5t-6 -45t-29 -10h-373q-23 0 -29 10t-6 45z" />
<glyph unicode="&#x12c;" horiz-adv-x="653" d="M-39 1876v20q0 16 13.5 23.5t48.5 7.5q40 0 54.5 -7.5t14.5 -25.5v-8q0 -51 18.5 -86t53 -52.5t73.5 -24.5t91 -7q41 0 72.5 4t63 15t52 29.5t33 49t12.5 72.5v8q0 18 14.5 25.5t53.5 7.5q36 0 49.5 -7.5t13.5 -23.5v-20q0 -70 -29 -121t-82 -79.5t-117 -42t-142 -13.5 q-168 0 -264.5 61t-96.5 195zM115 57q0 36 7 47t28 11h104v1245h-104q-21 0 -28 10.5t-7 46.5t7 47t28 11h354q21 0 28 -11t7 -47t-7 -46.5t-28 -10.5h-105v-1245h105q21 0 28 -11t7 -47t-7 -46.5t-28 -10.5h-354q-21 0 -28 10.5t-7 46.5z" />
<glyph unicode="&#x12d;" horiz-adv-x="602" d="M-31 1409v14q0 16 11.5 23.5t44.5 7.5q38 0 49.5 -7t11.5 -26v-8q0 -102 49 -142t148 -40q95 0 142.5 40t47.5 142v8q0 18 12 25.5t50 7.5q33 0 44 -7.5t11 -23.5v-14q0 -137 -83.5 -203.5t-230.5 -66.5q-150 0 -228.5 64t-78.5 206zM94 55q0 35 6 45.5t29 10.5h104v737 q0 20 -7 27.5t-27 7.5h-72q-18 0 -25.5 10.5t-7.5 36.5q0 35 14.5 49t49.5 14h131q43 0 61.5 -17t18.5 -63v-802h133q23 0 29 -10.5t6 -45.5t-6 -45t-29 -10h-373q-23 0 -29 10t-6 45z" />
<glyph unicode="&#x12e;" horiz-adv-x="653" d="M115 57q0 36 7 47t28 11h104v1245h-104q-21 0 -28 10.5t-7 46.5t7 47t28 11h354q21 0 28 -11t7 -47t-7 -46.5t-28 -10.5h-105v-1245h105q21 0 28 -11t7 -47q0 -28 -4 -38.5t-17 -18.5q-24 -14 -61 -43q-117 -97 -117 -190q0 -84 80 -84q34 0 61 6q21 5 29 -0.5t14 -26.5 q5 -17 5.5 -26t-3.5 -14.5t-14 -10.5q-46 -21 -104 -21q-86 0 -132.5 42.5t-46.5 115.5v8q0 64 42 131t116 113h-237q-21 0 -28 10.5t-7 46.5z" />
<glyph unicode="&#x12f;" horiz-adv-x="602" d="M94 55q0 35 6 45.5t29 10.5h104v737q0 20 -7 27.5t-27 7.5h-72q-18 0 -25.5 10.5t-7.5 36.5q0 35 14.5 49t49.5 14h131q43 0 61.5 -17t18.5 -63v-802h133q23 0 29 -10.5t6 -45.5t-6 -45t-29 -10h-33l-33 -23q-143 -101 -143 -210q0 -84 80 -84q34 0 61 6q21 5 29 -0.5 t14 -26.5q8 -25 5.5 -35t-17.5 -16q-55 -21 -105 -21q-84 0 -131 40.5t-47 117.5v8q0 64 42 131t116 113h-211q-23 0 -29 10t-6 45zM193 1341q0 54 23 75.5t65 21.5h16q42 0 64 -21.5t22 -75.5q0 -52 -13.5 -69t-50.5 -17h-61q-37 0 -51 17t-14 69z" />
<glyph unicode="&#x130;" horiz-adv-x="653" d="M115 57q0 36 7 47t28 11h104v1245h-104q-21 0 -28 10.5t-7 46.5t7 47t28 11h354q21 0 28 -11t7 -47t-7 -46.5t-28 -10.5h-105v-1245h105q21 0 28 -11t7 -47t-7 -46.5t-28 -10.5h-354q-21 0 -28 10.5t-7 46.5zM213 1753q0 105 96 105h37q96 0 96 -105q0 -55 -17.5 -75.5 t-57.5 -20.5h-76q-42 0 -60 20.5t-18 75.5z" />
<glyph unicode="&#x131;" horiz-adv-x="602" d="M94 55q0 35 6 45.5t29 10.5h104v737q0 20 -7 27.5t-27 7.5h-72q-18 0 -25.5 10.5t-7.5 36.5q0 35 14.5 49t49.5 14h131q43 0 61.5 -17t18.5 -63v-802h133q23 0 29 -10.5t6 -45.5t-6 -45t-29 -10h-373q-23 0 -29 10t-6 45z" />
<glyph unicode="&#x132;" horiz-adv-x="1599" d="M115 57q0 36 7 47t28 11h104v1245h-104q-21 0 -28 10.5t-7 46.5t7 47t28 11h354q21 0 28 -11t7 -47t-7 -46.5t-28 -10.5h-105v-1245h105q21 0 28 -11t7 -47t-7 -46.5t-28 -10.5h-354q-21 0 -28 10.5t-7 46.5zM692.5 41.5q-2.5 10.5 7.5 46.5q10 33 23 42t35 1 q104 -35 211 -35q151 0 213.5 68.5t62.5 228.5v967h-170q-21 0 -28 10.5t-7 46.5t7 47t28 11h424q21 0 28 -11t7 -47t-7 -46.5t-28 -10.5h-108v-952q0 -218 -105 -325.5t-334 -107.5q-63 0 -130 13t-111 35q-16 8 -18.5 18.5z" />
<glyph unicode="&#x133;" horiz-adv-x="1093" d="M94 55q0 35 6 45.5t29 10.5h104v737q0 20 -7 27.5t-27 7.5h-72q-18 0 -25.5 10.5t-7.5 36.5q0 35 14.5 49t49.5 14h131q43 0 61.5 -17t18.5 -63v-802h133q23 0 29 -10.5t6 -45.5t-6 -45t-29 -10h-373q-23 0 -29 10t-6 45zM193 1341q0 54 23 75.5t65 21.5h16 q42 0 64 -21.5t22 -75.5q0 -52 -13.5 -69t-50.5 -17h-61q-37 0 -51 17t-14 69zM487.5 -441.5q-3.5 12.5 8.5 46.5q12 31 22.5 39.5t30.5 3.5q74 -19 127 -19q73 0 101 33.5t28 120.5v1065q0 20 -7.5 27.5t-27.5 7.5h-72q-17 0 -24.5 10.5t-7.5 36.5q0 35 14 49t49 14h131 q43 0 61.5 -17t18.5 -63v-1110q0 -74 -10.5 -123.5t-39 -88.5t-80.5 -56.5t-132 -17.5q-96 0 -164 22q-23 7 -26.5 19.5zM764 1341q0 54 23 75.5t65 21.5h16q42 0 64 -21.5t22 -75.5q0 -52 -13.5 -69t-49.5 -17h-62q-37 0 -51 17t-14 69z" />
<glyph unicode="&#x134;" horiz-adv-x="987" d="M80 41.5q-2 10.5 8 46.5q10 33 22.5 42t34.5 1q104 -35 211 -35q151 0 214 68.5t63 228.5v967h-170q-21 0 -28 10.5t-7 46.5t7 47t28 11h424q21 0 28 -11t7 -47t-7 -46.5t-28 -10.5h-109v-952q0 -218 -104.5 -325.5t-333.5 -107.5q-64 0 -131 13t-111 35q-16 8 -18 18.5z M274 1625q0 9 13 20l270 243q45 39 96 39h15q36 0 59 -9t49 -32l283 -241q25 -20 0 -34q-21 -12 -72 -12q-44 0 -67 7.5t-50 31.5l-213 189l-200 -189q-25 -23 -46 -31t-65 -8q-72 0 -72 26z" />
<glyph unicode="&#x135;" horiz-adv-x="509" d="M-96.5 -441.5q-3.5 12.5 8.5 46.5q12 31 22.5 39.5t30.5 3.5q74 -19 127 -19q73 0 101 33.5t28 120.5v1065q0 20 -7.5 27.5t-27.5 7.5h-71q-18 0 -25.5 10.5t-7.5 36.5q0 35 14 49t49 14h131q43 0 61.5 -17t18.5 -63v-1110q0 -74 -10.5 -123.5t-39 -88.5t-80.5 -56.5 t-132 -17.5q-96 0 -164 22q-23 7 -26.5 19.5zM-96 1132.5q2 7.5 10 18.5l188 238q38 46 57 57.5t56 11.5q38 0 59 -11.5t58 -57.5l188 -238q8 -11 10 -18.5t-3 -13t-19.5 -8t-38.5 -1.5q-42 0 -65.5 16.5t-59.5 65.5l-129 172l-125 -172q-36 -49 -59.5 -65.5t-65.5 -16.5 q-24 -1 -38.5 1.5t-19.5 8t-3 13z" />
<glyph unicode="&#x136;" horiz-adv-x="1503" d="M115 57q0 36 7 47t28 11h104v1245h-104q-21 0 -28 10.5t-7 46.5t7 47t28 11h354q21 0 28 -11t7 -47t-7 -46.5t-28 -10.5h-105v-561h312l403 561h-158q-21 0 -27.5 10.5t-6.5 46.5t6.5 47t27.5 11h441q21 0 28 -11t7 -47t-7 -46.5t-28 -10.5h-137l-418 -594l454 -651h119 q21 0 28 -11t7 -47t-7 -46.5t-28 -10.5h-129q-54 0 -86 19.5t-65 68.5l-408 596h-328v-569h105q21 0 28 -11t7 -47t-7 -46.5t-28 -10.5h-354q-21 0 -28 10.5t-7 46.5zM721 -242q0 95 82 95h20q38 0 59 -22.5t21 -80.5q0 -146 -51 -262q-10 -23 -21.5 -30t-33.5 -7h-29 q-20 0 -25.5 6.5t0.5 28.5q27 82 35 201q-28 3 -42.5 19t-14.5 52z" />
<glyph unicode="&#x137;" horiz-adv-x="1191" d="M94 55q0 35 6 45.5t29 10.5h104v1218q0 20 -7 27.5t-27 7.5h-72q-18 0 -25.5 10.5t-7.5 36.5q0 35 14.5 49.5t49.5 14.5h131q43 0 61.5 -17t18.5 -63v-811h229l231 299h-79q-23 0 -29 10t-6 45t6 45t29 10h321q23 0 29 -10t6 -45t-6 -45t-29 -10h-98l-283 -342l324 -430 h86q23 0 29 -10.5t6 -45.5t-6 -45t-29 -10h-92q-47 0 -71.5 13t-49.5 46l-303 418h-215v-366h137q23 0 29 -10.5t6 -45.5t-6 -45t-29 -10h-377q-23 0 -29 10t-6 45zM608 -242q0 95 82 95h21q38 0 59 -22.5t21 -80.5q0 -144 -52 -262q-10 -23 -21.5 -30t-33.5 -7h-29 q-20 0 -25 6.5t1 28.5q27 82 35 201q-29 3 -43.5 19t-14.5 52z" />
<glyph unicode="&#x138;" horiz-adv-x="1196" d="M98 55q0 35 6 45.5t29 10.5h105v737q0 20 -7.5 27.5t-27.5 7.5h-72q-18 0 -25.5 10.5t-7.5 36.5q0 35 14.5 49t49.5 14h131q43 0 61.5 -17t18.5 -63v-329h229l232 299h-80q-23 0 -29 10t-6 45t6 45t29 10h321q23 0 29 -10t6 -45t-6 -45t-29 -10h-98l-283 -342l324 -430 h86q23 0 29 -10.5t6 -45.5t-6 -45t-29 -10h-92q-47 0 -71.5 13t-49.5 46l-303 418h-215v-366h137q23 0 29 -10.5t6 -45.5t-6 -45t-29 -10h-377q-23 0 -29 10t-6 45z" />
<glyph unicode="&#x139;" horiz-adv-x="1343" d="M115 57q0 36 7 47t28 11h104v1245h-104q-21 0 -28 10.5t-7 46.5t7 47t28 11h397q21 0 28 -11t7 -47t-7 -46.5t-28 -10.5h-148v-1245h742v245q0 19 13.5 27t55.5 8t55 -8t13 -27v-278q0 -50 -18.5 -66t-75.5 -16h-1034q-21 0 -28 10.5t-7 46.5zM221.5 1622.5 q0.5 9.5 9.5 19.5l275 244q44 41 129 41q56 0 69 -24q7 -14 -10 -27l-311 -242q-43 -35 -107 -35q-26 0 -40.5 7t-14 16.5z" />
<glyph unicode="&#x13a;" horiz-adv-x="614" d="M84 1677q2 6 8 13l248 272q21 24 45 32.5t76 8.5q64 0 67 -24q1 -8 -8 -17l-287 -272q-38 -35 -94 -35q-59 0 -55 22zM94 55q0 35 6 45.5t29 10.5h104v1218q0 20 -7 27.5t-27 7.5h-72q-18 0 -25.5 10.5t-7.5 36.5q0 35 14.5 49.5t49.5 14.5h131q43 0 61.5 -17t18.5 -63 v-1284h133q23 0 29 -10.5t6 -45.5t-6 -45t-29 -10h-373q-23 0 -29 10t-6 45z" />
<glyph unicode="&#x13b;" horiz-adv-x="1343" d="M115 57q0 36 7 47t28 11h104v1245h-104q-21 0 -28 10.5t-7 46.5t7 47t28 11h397q21 0 28 -11t7 -47t-7 -46.5t-28 -10.5h-148v-1245h742v245q0 19 13.5 27t55.5 8t55 -8t13 -27v-278q0 -50 -18.5 -66t-75.5 -16h-1034q-21 0 -28 10.5t-7 46.5zM659 -242q0 95 82 95h21 q38 0 59 -22.5t21 -80.5q0 -146 -51 -262q-10 -23 -21.5 -30t-34.5 -7h-28q-20 0 -25.5 6.5t0.5 28.5q27 82 35 201q-29 3 -43.5 19t-14.5 52z" />
<glyph unicode="&#x13c;" horiz-adv-x="614" d="M94 55q0 35 6 45.5t29 10.5h104v1218q0 20 -7 27.5t-27 7.5h-72q-18 0 -25.5 10.5t-7.5 36.5q0 35 14.5 49.5t49.5 14.5h131q43 0 61.5 -17t18.5 -63v-1284h133q23 0 29 -10.5t6 -45.5t-6 -45t-29 -10h-373q-23 0 -29 10t-6 45zM213 -242q0 95 82 95h20q38 0 59 -22.5 t21 -80.5q0 -146 -51 -262q-10 -23 -21.5 -30t-33.5 -7h-29q-20 0 -25 6.5t1 28.5q26 78 34 201q-28 3 -42.5 19t-14.5 52z" />
<glyph unicode="&#x13d;" horiz-adv-x="1343" d="M115 57q0 36 7 47t28 11h104v1245h-104q-21 0 -28 10.5t-7 46.5t7 47t28 11h397q21 0 28 -11t7 -47t-7 -46.5t-28 -10.5h-148v-1245h742v245q0 19 13.5 27t55.5 8t55 -8t13 -27v-278q0 -50 -18.5 -66t-75.5 -16h-1034q-21 0 -28 10.5t-7 46.5zM705 1356q0 52 21 73t60 21 h21q38 0 59 -22t21 -80q0 -147 -51 -263q-10 -22 -21.5 -29t-34.5 -7h-28q-20 0 -25.5 6t0.5 28q27 82 35 201q-28 3 -42.5 19.5t-14.5 52.5z" />
<glyph unicode="&#x13e;" horiz-adv-x="690" d="M94 55q0 35 6 45.5t29 10.5h104v1218q0 20 -7 27.5t-27 7.5h-72q-18 0 -25.5 10.5t-7.5 36.5q0 35 14.5 49.5t49.5 14.5h131q43 0 61.5 -17t18.5 -63v-1284h133q23 0 29 -10.5t6 -45.5t-6 -45t-29 -10h-373q-23 0 -29 10t-6 45zM492 1356q0 52 21 73t60 21h21 q38 0 59 -22t21 -80q0 -147 -51 -263q-10 -22 -21.5 -29t-34.5 -7h-28q-20 0 -25.5 6t0.5 28q27 82 35 201q-28 3 -42.5 19.5t-14.5 52.5z" />
<glyph unicode="&#x13f;" horiz-adv-x="1343" d="M115 57q0 36 7 47t28 11h104v1245h-104q-21 0 -28 10.5t-7 46.5t7 47t28 11h397q21 0 28 -11t7 -47t-7 -46.5t-28 -10.5h-148v-1245h742v245q0 19 13.5 27t55.5 8t55 -8t13 -27v-278q0 -50 -18.5 -66t-75.5 -16h-1034q-21 0 -28 10.5t-7 46.5zM629 819q0 103 96 103h16 q97 0 97 -103q0 -55 -17 -74.5t-57 -19.5h-59q-42 0 -59 19.5t-17 74.5z" />
<glyph unicode="&#x140;" horiz-adv-x="831" d="M94 55q0 35 6 45.5t29 10.5h104v1218q0 20 -7 27.5t-27 7.5h-72q-18 0 -25.5 10.5t-7.5 36.5q0 35 14.5 49.5t49.5 14.5h131q43 0 61.5 -17t18.5 -63v-1284h133q23 0 29 -10.5t6 -45.5t-6 -45t-29 -10h-373q-23 0 -29 10t-6 45zM598 670q0 58 25 80t73 22h23 q49 0 72.5 -21.5t23.5 -80.5q0 -60 -16.5 -82.5t-59.5 -22.5h-65q-41 0 -58.5 23t-17.5 82z" />
<glyph unicode="&#x141;" horiz-adv-x="1343" d="M82 590q0 36 5 45.5t26 15.5l141 49v660h-104q-21 0 -28 10.5t-7 46.5t7 47t28 11h397q21 0 28 -11t7 -47t-7 -46.5t-28 -10.5h-148v-608l156 55q23 10 33 2.5t10 -43.5v-16.5t-1 -12.5t-1 -9t-2 -6.5t-2.5 -5t-4.5 -3.5l-5 -2.5t-7 -2.5t-8 -3l-168 -62v-528h742v245 q0 19 13.5 27t55.5 8t55 -8t13 -27v-278q0 -50 -18.5 -66t-75.5 -16h-1034q-21 0 -28 10.5t-7 46.5t7 47t28 11h104v477l-137 -49q-25 -7 -30 0t-5 47z" />
<glyph unicode="&#x142;" horiz-adv-x="612" d="M47 659v9q0 41 2.5 48.5t22.5 16.5l159 72v524q0 20 -7 27.5t-27 7.5h-72q-18 0 -25.5 10.5t-7.5 36.5q0 35 14.5 49.5t49.5 14.5h131q43 0 61.5 -17t18.5 -63v-529l147 68q25 9 28 3.5t3 -48.5q0 -34 -4 -45.5t-21 -18.5l-153 -71v-643h133q23 0 29 -10.5t6 -45.5 t-6 -45t-29 -10h-373q-23 0 -29 10t-6 45t6 45.5t29 10.5h104v581l-153 -69q-23 -10 -27 -5t-4 41z" />
<glyph unicode="&#x143;" horiz-adv-x="1634" d="M115 57q0 36 7 47t28 11h104v1245h-104q-21 0 -28 10.5t-7 46.5t7 47t28 11h241q44 0 69.5 -10.5t43.5 -39.5l581 -946q97 -160 191 -360h27v1241h-177q-21 0 -27.5 10.5t-6.5 46.5t6.5 47t27.5 11h412q21 0 28 -11t7 -47t-7 -46.5t-28 -10.5h-104v-1323 q0 -26 -14.5 -36.5t-49.5 -10.5h-82q-50 0 -72 10.5t-42 44.5l-603 993q-92 153 -159 324h-27v-1247h176q21 0 28 -11t7 -47t-7 -46.5t-28 -10.5h-411q-21 0 -28 10.5t-7 46.5zM656.5 1622.5q0.5 9.5 9.5 19.5l274 244q44 41 129 41q56 0 69 -24q7 -14 -10 -27l-311 -242 q-43 -35 -106 -35q-26 0 -40.5 7t-14 16.5z" />
<glyph unicode="&#x144;" horiz-adv-x="1378" d="M94 930q0 35 14.5 49t49.5 14h110q43 0 62.5 -18t23.5 -62l6 -63h23q51 88 144 129t249 41q204 0 301 -113.5t97 -339.5v-456h124q23 0 29 -10.5t6 -45.5t-6 -45t-29 -10h-383q-23 0 -28.5 10t-5.5 45t6 45.5t28 10.5h123v438q0 198 -72 281t-233 83q-174 0 -268 -92 t-94 -276v-434h143q23 0 29 -10.5t6 -45.5t-6 -45t-29 -10h-383q-23 0 -29 10t-6 45t6 45.5t29 10.5h105v737q0 21 -6.5 28t-26.5 7h-76q-18 0 -25.5 10.5t-7.5 36.5zM486 1132q2 6 8 13l247 272q21 24 45 32.5t76 8.5q65 0 68 -24q1 -8 -8 -17l-287 -272q-38 -35 -94 -35 q-59 0 -55 22z" />
<glyph unicode="&#x145;" horiz-adv-x="1634" d="M115 57q0 36 7 47t28 11h104v1245h-104q-21 0 -28 10.5t-7 46.5t7 47t28 11h241q44 0 69.5 -10.5t43.5 -39.5l581 -946q97 -160 191 -360h27v1241h-177q-21 0 -27.5 10.5t-6.5 46.5t6.5 47t27.5 11h412q21 0 28 -11t7 -47t-7 -46.5t-28 -10.5h-104v-1323 q0 -26 -14.5 -36.5t-49.5 -10.5h-82q-50 0 -72 10.5t-42 44.5l-603 993q-92 153 -159 324h-27v-1247h176q21 0 28 -11t7 -47t-7 -46.5t-28 -10.5h-411q-21 0 -28 10.5t-7 46.5zM784 -242q0 95 82 95h21q38 0 59 -22.5t21 -80.5q0 -144 -52 -262q-10 -23 -21.5 -30t-33.5 -7 h-29q-20 0 -25 6.5t1 28.5q27 82 35 201q-29 3 -43.5 19t-14.5 52z" />
<glyph unicode="&#x146;" horiz-adv-x="1378" d="M94 930q0 35 14.5 49t49.5 14h110q43 0 62.5 -18t23.5 -62l6 -63h23q51 88 144 129t249 41q204 0 301 -113.5t97 -339.5v-456h124q23 0 29 -10.5t6 -45.5t-6 -45t-29 -10h-383q-23 0 -28.5 10t-5.5 45t6 45.5t28 10.5h123v438q0 198 -72 281t-233 83q-174 0 -268 -92 t-94 -276v-434h143q23 0 29 -10.5t6 -45.5t-6 -45t-29 -10h-383q-23 0 -29 10t-6 45t6 45.5t29 10.5h105v737q0 21 -6.5 28t-26.5 7h-76q-18 0 -25.5 10.5t-7.5 36.5zM629 -201q0 95 82 95h20q38 0 59 -22.5t21 -80.5q0 -146 -51 -262q-10 -23 -21.5 -30t-33.5 -7h-29 q-20 0 -25.5 6.5t0.5 28.5q27 82 35 201q-28 3 -42.5 19t-14.5 52z" />
<glyph unicode="&#x147;" horiz-adv-x="1634" d="M115 57q0 36 7 47t28 11h104v1245h-104q-21 0 -28 10.5t-7 46.5t7 47t28 11h241q44 0 69.5 -10.5t43.5 -39.5l581 -946q97 -160 191 -360h27v1241h-177q-21 0 -27.5 10.5t-6.5 46.5t6.5 47t27.5 11h412q21 0 28 -11t7 -47t-7 -46.5t-28 -10.5h-104v-1323 q0 -26 -14.5 -36.5t-49.5 -10.5h-82q-50 0 -72 10.5t-42 44.5l-603 993q-92 153 -159 324h-27v-1247h176q21 0 28 -11t7 -47t-7 -46.5t-28 -10.5h-411q-21 0 -28 10.5t-7 46.5zM461 1882q-31 27 11 39q22 6 60 6q48 0 72 -6.5t49 -30.5l211 -194l199 194q24 22 45 29.5 t66 7.5q74 0 75 -25q0 -9 -12 -20l-272 -244q-50 -39 -97 -39h-12q-37 0 -61 9.5t-50 31.5z" />
<glyph unicode="&#x148;" horiz-adv-x="1378" d="M94 930q0 35 14.5 49t49.5 14h110q43 0 62.5 -18t23.5 -62l6 -63h23q51 88 144 129t249 41q204 0 301 -113.5t97 -339.5v-456h124q23 0 29 -10.5t6 -45.5t-6 -45t-29 -10h-383q-23 0 -28.5 10t-5.5 45t6 45.5t28 10.5h123v438q0 198 -72 281t-233 83q-174 0 -268 -92 t-94 -276v-434h143q23 0 29 -10.5t6 -45.5t-6 -45t-29 -10h-383q-23 0 -29 10t-6 45t6 45.5t29 10.5h105v737q0 21 -6.5 28t-26.5 7h-76q-18 0 -25.5 10.5t-7.5 36.5zM398 1433.5q-2 7.5 3 13t19.5 8t38.5 1.5q40 0 63 -15t62 -67l125 -172l129 172q36 51 60.5 66.5 t64.5 15.5q24 1 38.5 -1.5t19.5 -8t3 -13t-10 -18.5l-189 -237q-37 -46 -57.5 -58t-58.5 -12q-37 0 -56 11.5t-57 58.5l-188 237q-8 11 -10 18.5z" />
<glyph unicode="&#x149;" horiz-adv-x="1374" d="M-104 1335q0 95 81 95h21q38 0 59 -22.5t21 -80.5q0 -146 -51 -262q-10 -23 -21.5 -30t-34.5 -7h-28q-20 0 -25.5 6.5t0.5 28.5q27 82 35 201q-28 3 -42.5 19t-14.5 52zM90 930q0 35 14.5 49t49.5 14h110q43 0 62.5 -18t23.5 -62l6 -63h23q51 88 144 129t249 41 q204 0 300.5 -113.5t96.5 -339.5v-456h125q23 0 29 -10.5t6 -45.5t-6 -45t-29 -10h-383q-23 0 -28.5 10t-5.5 45t6 45.5t28 10.5h123v438q0 198 -72 281t-233 83q-174 0 -268 -92t-94 -276v-434h143q23 0 29 -10.5t6 -45.5t-6 -45t-29 -10h-383q-23 0 -29 10t-6 45t6 45.5 t29 10.5h104v737q0 21 -6 28t-26 7h-76q-18 0 -25.5 10.5t-7.5 36.5z" />
<glyph unicode="&#x14a;" horiz-adv-x="1638" d="M115 57q0 36 7 47t28 11h104v1245h-104q-21 0 -28 10.5t-7 46.5t7 47t28 11h241q44 0 69.5 -10.5t43.5 -39.5l581 -946q97 -160 191 -360h27v1241h-177q-21 0 -27.5 10.5t-6.5 46.5t6.5 47t27.5 11h412q21 0 28 -11t7 -47t-7 -46.5t-28 -10.5h-104v-1411 q0 -218 -105 -325t-334 -107q-145 0 -241 47q-16 8 -18.5 18.5t7.5 46.5q10 33 23 42t35 1q101 -34 211 -34q153 0 220.5 69t67.5 227v56h-12q-50 0 -72 10.5t-42 44.5l-603 993q-92 153 -159 324h-27v-1247h176q21 0 28 -11t7 -47t-7 -46.5t-28 -10.5h-411q-21 0 -28 10.5 t-7 46.5z" />
<glyph unicode="&#x14b;" horiz-adv-x="1310" d="M94 55q0 35 6 45.5t29 10.5h104v737q0 20 -5.5 27.5t-26.5 7.5h-74q-33 0 -33 47q0 36 14.5 49.5t49.5 13.5h108q45 0 63 -18.5t23 -61.5l6 -63h23q52 90 146.5 130t246.5 40q204 0 300.5 -113.5t96.5 -339.5v-764q0 -74 -10.5 -123.5t-39 -88.5t-80.5 -56.5t-132 -17.5 q-96 0 -164 22q-23 7 -26.5 19.5t8.5 46.5q12 31 22.5 39.5t30.5 3.5q74 -19 127 -19q73 0 101 33.5t28 120.5v766q0 198 -72 281t-233 83q-174 0 -268 -92t-94 -276v-434h143q23 0 29 -10.5t6 -45.5t-6 -45t-29 -10h-383q-23 0 -29 10t-6 45z" />
<glyph unicode="&#x14c;" d="M127 709v57q0 354 167.5 543.5t502.5 189.5t502 -189.5t167 -543.5v-57q0 -354 -167 -544t-502 -190t-502.5 190t-167.5 544zM281 719q0 -316 132.5 -472.5t383.5 -156.5t383.5 156.5t132.5 472.5v35q0 316 -132.5 473t-383.5 157t-383.5 -157t-132.5 -473v-35zM406 1765 q0 30 5.5 41t26.5 11h717q18 0 24.5 -11.5t6.5 -40.5q0 -31 -6 -42t-25 -11h-717q-21 0 -26.5 10.5t-5.5 42.5z" />
<glyph unicode="&#x14d;" horiz-adv-x="1228" d="M106 485v23q0 251 128 381.5t380 130.5q250 0 379 -133.5t129 -378.5v-23q0 -247 -134 -378.5t-374 -131.5q-249 0 -378.5 134.5t-129.5 375.5zM250 489q0 -205 86 -308t278 -103t278.5 103t86.5 308v15q0 205 -86.5 307t-278.5 102t-278 -102t-86 -307v-15zM291 1239 q0 27 6.5 38t24.5 11h587q18 0 24.5 -11t6.5 -38q0 -30 -6.5 -40.5t-24.5 -10.5h-587q-18 0 -24.5 10.5t-6.5 40.5z" />
<glyph unicode="&#x14e;" d="M127 709v57q0 354 167.5 543.5t502.5 189.5t502 -189.5t167 -543.5v-57q0 -354 -167 -544t-502 -190t-502.5 190t-167.5 544zM281 719q0 -316 132.5 -472.5t383.5 -156.5t383.5 156.5t132.5 472.5v35q0 316 -132.5 473t-383.5 157t-383.5 -157t-132.5 -473v-35zM430 1876 v20q0 16 13.5 23.5t48.5 7.5q40 0 54.5 -7.5t14.5 -25.5v-8q0 -51 18.5 -86t53 -52.5t73.5 -24.5t91 -7q41 0 72.5 4t63 15t52 29.5t33 49t12.5 72.5v8q0 18 14.5 25.5t53.5 7.5q36 0 49.5 -7.5t13.5 -23.5v-20q0 -70 -29 -121t-82 -79.5t-117 -42t-142 -13.5 q-168 0 -264.5 61t-96.5 195z" />
<glyph unicode="&#x14f;" horiz-adv-x="1228" d="M106 485v23q0 251 128 381.5t380 130.5q250 0 379 -133.5t129 -378.5v-23q0 -247 -134 -378.5t-374 -131.5q-249 0 -378.5 134.5t-129.5 375.5zM250 489q0 -205 86 -308t278 -103t278.5 103t86.5 308v15q0 205 -86.5 307t-278.5 102t-278 -102t-86 -307v-15zM305 1409v14 q0 16 11 23.5t44 7.5q38 0 50 -7.5t12 -25.5v-8q0 -102 48.5 -142t147.5 -40q96 0 143.5 40t47.5 142v8q0 19 11.5 26t49.5 7q33 0 44.5 -7.5t11.5 -23.5v-14q0 -137 -83.5 -203.5t-230.5 -66.5q-150 0 -228.5 64t-78.5 206z" />
<glyph unicode="&#x150;" d="M127 709v57q0 354 167.5 543.5t502.5 189.5t502 -189.5t167 -543.5v-57q0 -354 -167 -544t-502 -190t-502.5 190t-167.5 544zM281 719q0 -316 132.5 -472.5t383.5 -156.5t383.5 156.5t132.5 472.5v35q0 316 -132.5 473t-383.5 157t-383.5 -157t-132.5 -473v-35z M516.5 1614.5q-1.5 7.5 7.5 19.5l207 252q30 41 107 41q64 0 61 -25q-1 -8 -8 -16l-232 -252q-32 -35 -90 -35q-24 0 -37.5 4t-15 11.5zM887.5 1614.5q-1.5 7.5 7.5 19.5l205 252q35 41 108 41q67 0 62 -25q-1 -8 -8 -16l-234 -252q-35 -35 -88 -35q-25 0 -38 4t-14.5 11.5z " />
<glyph unicode="&#x151;" horiz-adv-x="1228" d="M106 485v23q0 251 128 381.5t380 130.5q250 0 379 -133.5t129 -378.5v-23q0 -247 -134 -378.5t-374 -131.5q-249 0 -378.5 134.5t-129.5 375.5zM250 489q0 -205 86 -308t278 -103t278.5 103t86.5 308v15q0 205 -86.5 307t-278.5 102t-278 -102t-86 -307v-15zM309 1119 q-8 9 4 26l172 272q26 41 99 41q42 0 52.5 -9.5t-5.5 -31.5l-199 -272q-14 -19 -31.5 -27t-50.5 -8t-41 9zM679.5 1118q-7.5 8 4.5 27l172 272q24 41 98 41q38 0 49.5 -10.5t-2.5 -30.5l-198 -272q-14 -19 -31.5 -27t-50.5 -8q-34 0 -41.5 8z" />
<glyph unicode="&#x152;" horiz-adv-x="2445" d="M127 709v57q0 362 170 547.5t485 185.5q334 0 459 -194h29v102q0 42 25 55t100 13h829q57 0 74.5 -16t17.5 -66v-242q0 -19 -13 -27t-54 -8q-42 0 -56 8t-14 27v209h-760v-551h547v111q0 19 13 26.5t55 7.5t54.5 -7.5t12.5 -26.5v-342q0 -19 -13 -27t-54 -8q-42 0 -55 8 t-13 27v120h-547v-583h774v209q0 18 14 26t56 8t55 -7.5t13 -26.5v-242q0 -49 -19 -65.5t-76 -16.5h-841q-75 0 -100 13t-25 55v104h-29q-138 -197 -461 -197q-168 0 -293.5 50.5t-204 147t-117 230.5t-38.5 306zM279 719q0 -313 130 -471t371 -158q247 0 373.5 162.5 t126.5 466.5v35q0 310 -129.5 470t-372.5 160q-252 0 -375.5 -167t-123.5 -463v-35z" />
<glyph unicode="&#x153;" horiz-adv-x="2041" d="M106 485v23q0 251 128 381.5t380 130.5q320 0 422 -209h23q117 209 422 209q217 0 329.5 -114t112.5 -324v-27q0 -71 -15.5 -85.5t-92.5 -14.5h-701q8 -197 100.5 -282t305.5 -85q157 0 307 47q21 7 31.5 0.5t19.5 -37.5q10 -30 8 -43.5t-20 -19.5q-168 -60 -359 -60 q-184 0 -292.5 50t-161.5 155h-25q-103 -205 -414 -205q-249 0 -378.5 134.5t-129.5 375.5zM250 489q0 -205 86 -308t278 -103q365 0 365 411v15q0 409 -365 409q-192 0 -278 -102t-86 -307v-15zM1118 563h678q0 181 -82 265.5t-246 84.5q-174 0 -262 -91.5t-88 -258.5z" />
<glyph unicode="&#x154;" horiz-adv-x="1435" d="M115 57q0 36 7 47t28 11h104v1245h-104q-21 0 -28 10.5t-7 46.5t7 47t28 11h485q178 0 304.5 -28.5t200.5 -84.5t107 -130t33 -173v-31q0 -340 -352 -412l291 -501h104q21 0 28 -11t7 -47t-7 -46.5t-28 -10.5h-94q-77 0 -113.5 28.5t-97.5 139.5l-238 430h-381v-483h189 q21 0 28 -11t7 -47t-7 -46.5t-28 -10.5h-438q-21 0 -28 10.5t-7 46.5zM399 711h299q124 0 207.5 20t132 62t68.5 99.5t20 139.5v12q0 109 -47.5 176.5t-162.5 103.5t-308 36h-209v-649zM471.5 1622.5q0.5 9.5 9.5 19.5l275 244q44 41 129 41q56 0 69 -24q7 -14 -10 -27 l-311 -242q-43 -35 -107 -35q-26 0 -40.5 7t-14 16.5z" />
<glyph unicode="&#x155;" horiz-adv-x="901" d="M94 55q0 35 6 45.5t29 10.5h104v737q0 21 -6.5 28t-25.5 7h-74q-33 0 -33 47q0 36 14.5 49.5t49.5 13.5h108q43 0 63 -18t23 -62l6 -92h23q73 199 342 199q75 0 133 -21q17 -6 19 -19.5t-9 -47.5q-10 -34 -21 -43t-32 -4q-61 14 -108 14q-169 0 -252.5 -102.5 t-83.5 -325.5v-360h139q23 0 29 -10.5t6 -45.5t-6 -45t-29 -10h-379q-23 0 -29 10t-6 45zM244 1132q2 6 8 13l248 272q21 24 45 32.5t76 8.5q64 0 67 -24q1 -8 -8 -17l-287 -272q-38 -35 -94 -35q-59 0 -55 22z" />
<glyph unicode="&#x156;" horiz-adv-x="1435" d="M115 57q0 36 7 47t28 11h104v1245h-104q-21 0 -28 10.5t-7 46.5t7 47t28 11h485q178 0 304.5 -28.5t200.5 -84.5t107 -130t33 -173v-31q0 -340 -352 -412l291 -501h104q21 0 28 -11t7 -47t-7 -46.5t-28 -10.5h-94q-77 0 -113.5 28.5t-97.5 139.5l-238 430h-381v-483h189 q21 0 28 -11t7 -47t-7 -46.5t-28 -10.5h-438q-21 0 -28 10.5t-7 46.5zM399 711h299q124 0 207.5 20t132 62t68.5 99.5t20 139.5v12q0 109 -47.5 176.5t-162.5 103.5t-308 36h-209v-649zM707 -242q0 95 81 95h21q38 0 59 -22.5t21 -80.5q0 -146 -51 -262q-10 -23 -21.5 -30 t-34.5 -7h-28q-20 0 -25.5 6.5t0.5 28.5q27 82 35 201q-28 3 -42.5 19t-14.5 52z" />
<glyph unicode="&#x157;" horiz-adv-x="901" d="M94 55q0 35 6 45.5t29 10.5h104v737q0 21 -6.5 28t-25.5 7h-74q-33 0 -33 47q0 36 14.5 49.5t49.5 13.5h108q43 0 63 -18t23 -62l6 -92h23q73 199 342 199q75 0 133 -21q17 -6 19 -19.5t-9 -47.5q-10 -34 -21 -43t-32 -4q-61 14 -108 14q-169 0 -252.5 -102.5 t-83.5 -325.5v-360h139q23 0 29 -10.5t6 -45.5t-6 -45t-29 -10h-379q-23 0 -29 10t-6 45zM209 -242q0 95 82 95h20q38 0 59 -22.5t21 -80.5q0 -146 -51 -262q-10 -23 -21.5 -30t-33.5 -7h-29q-20 0 -25.5 6.5t0.5 28.5q27 82 35 201q-28 3 -42.5 19t-14.5 52z" />
<glyph unicode="&#x158;" horiz-adv-x="1435" d="M115 57q0 36 7 47t28 11h104v1245h-104q-21 0 -28 10.5t-7 46.5t7 47t28 11h485q178 0 304.5 -28.5t200.5 -84.5t107 -130t33 -173v-31q0 -340 -352 -412l291 -501h104q21 0 28 -11t7 -47t-7 -46.5t-28 -10.5h-94q-77 0 -113.5 28.5t-97.5 139.5l-238 430h-381v-483h189 q21 0 28 -11t7 -47t-7 -46.5t-28 -10.5h-438q-21 0 -28 10.5t-7 46.5zM305 1882q-30 26 11 38q22 7 61 7q48 0 72 -6.5t49 -30.5l211 -194l198 194q24 22 45 29.5t66 7.5q74 0 75 -25q0 -9 -12 -20l-272 -244q-50 -39 -96 -39h-13q-37 0 -60.5 9t-49.5 32zM399 711h299 q124 0 207.5 20t132 62t68.5 99.5t20 139.5v12q0 109 -47.5 176.5t-162.5 103.5t-308 36h-209v-649z" />
<glyph unicode="&#x159;" horiz-adv-x="901" d="M94 55q0 35 6 45.5t29 10.5h104v737q0 21 -6.5 28t-25.5 7h-74q-33 0 -33 47q0 36 14.5 49.5t49.5 13.5h108q43 0 63 -18t23 -62l6 -92h23q73 199 342 199q75 0 133 -21q17 -6 19 -19.5t-9 -47.5q-10 -34 -21 -43t-32 -4q-61 14 -108 14q-169 0 -252.5 -102.5 t-83.5 -325.5v-360h139q23 0 29 -10.5t6 -45.5t-6 -45t-29 -10h-379q-23 0 -29 10t-6 45zM137.5 1441.5q1.5 5.5 8.5 9t20.5 5t32.5 0.5q40 0 63 -15t62 -67l125 -172l129 172q37 51 60.5 66.5t63.5 15.5q32 1 47 -3.5t15 -14t-10 -23.5l-189 -237q-37 -46 -57.5 -58 t-58.5 -12q-37 0 -56 11.5t-57 58.5l-189 237q-6 8 -8.5 14.5t-1 12z" />
<glyph unicode="&#x15a;" horiz-adv-x="1404" d="M131 186v127q0 19 14 27t56 8q41 0 54 -8t13 -27v-176q220 -47 424 -47q246 0 340 70t94 243q0 61 -16.5 104t-58.5 79.5t-118 61.5t-192 42l-182 27q-219 31 -312 121.5t-93 253.5v12q0 202 133 298.5t420 96.5q204 0 385 -53q86 -26 112.5 -56t26.5 -96v-94 q0 -19 -13 -27t-55 -8t-55.5 8t-13.5 27v125q-96 33 -183.5 46t-205.5 13q-154 0 -246 -33t-128 -92t-36 -153q0 -81 27.5 -127t103.5 -77.5t223 -55.5l195 -31q226 -36 328 -131.5t102 -259.5v-18q0 -85 -14.5 -148t-53.5 -118.5t-105 -90.5t-170.5 -54.5t-248.5 -19.5 q-234 0 -399 33q-85 15 -118.5 53.5t-33.5 124.5zM457.5 1622.5q0.5 9.5 9.5 19.5l274 244q44 41 129 41q57 0 70 -24q7 -14 -10 -27l-312 -242q-43 -35 -106 -35q-26 0 -40.5 7t-14 16.5z" />
<glyph unicode="&#x15b;" horiz-adv-x="1077" d="M94 137v84q0 20 13.5 27.5t54.5 7.5q43 0 56 -8t13 -27v-94q142 -45 314 -45q176 0 239.5 38.5t63.5 131.5q0 59 -26.5 95.5t-96 62.5t-197.5 43l-59 8q-189 26 -267.5 89t-78.5 183v8q0 65 22.5 114.5t71.5 87.5t133.5 57.5t202.5 19.5q52 0 141.5 -14t151.5 -33 q55 -19 75.5 -43t20.5 -70v-78q0 -19 -12 -26.5t-53 -7.5q-40 0 -53 7.5t-13 26.5v90q-154 43 -279 43q-151 0 -210.5 -39.5t-59.5 -132.5q0 -48 21 -74.5t86 -47.5t200 -43l52 -9q108 -18 179.5 -44t112.5 -65t57.5 -86t16.5 -114v-8q0 -69 -22 -118t-75.5 -86t-149 -55 t-236.5 -18q-157 0 -305 37q-59 14 -82 41t-23 84zM312 1132q2 7 7 13l248 272q21 24 45 32.5t76 8.5q65 0 68 -24q1 -8 -8 -17l-287 -272q-38 -35 -94 -35q-60 0 -55 22z" />
<glyph unicode="&#x15c;" horiz-adv-x="1404" d="M131 186v127q0 19 14 27t56 8q41 0 54 -8t13 -27v-176q220 -47 424 -47q246 0 340 70t94 243q0 61 -16.5 104t-58.5 79.5t-118 61.5t-192 42l-182 27q-219 31 -312 121.5t-93 253.5v12q0 202 133 298.5t420 96.5q204 0 385 -53q86 -26 112.5 -56t26.5 -96v-94 q0 -19 -13 -27t-55 -8t-55.5 8t-13.5 27v125q-96 33 -183.5 46t-205.5 13q-154 0 -246 -33t-128 -92t-36 -153q0 -81 27.5 -127t103.5 -77.5t223 -55.5l195 -31q226 -36 328 -131.5t102 -259.5v-18q0 -85 -14.5 -148t-53.5 -118.5t-105 -90.5t-170.5 -54.5t-248.5 -19.5 q-234 0 -399 33q-85 15 -118.5 53.5t-33.5 124.5zM306 1625q2 10 13 20l271 243q45 39 96 39h14q62 0 109 -41l283 -241q25 -20 0 -34q-21 -12 -72 -12q-44 0 -67 7.5t-50 31.5l-213 189l-201 -189q-25 -23 -45.5 -31t-64.5 -8q-73 0 -73 26z" />
<glyph unicode="&#x15d;" horiz-adv-x="1077" d="M94 137v84q0 20 13.5 27.5t54.5 7.5q43 0 56 -8t13 -27v-94q142 -45 314 -45q176 0 239.5 38.5t63.5 131.5q0 59 -26.5 95.5t-96 62.5t-197.5 43l-59 8q-189 26 -267.5 89t-78.5 183v8q0 65 22.5 114.5t71.5 87.5t133.5 57.5t202.5 19.5q52 0 141.5 -14t151.5 -33 q55 -19 75.5 -43t20.5 -70v-78q0 -19 -12 -26.5t-53 -7.5q-40 0 -53 7.5t-13 26.5v90q-154 43 -279 43q-151 0 -210.5 -39.5t-59.5 -132.5q0 -48 21 -74.5t86 -47.5t200 -43l52 -9q108 -18 179.5 -44t112.5 -65t57.5 -86t16.5 -114v-8q0 -69 -22 -118t-75.5 -86t-149 -55 t-236.5 -18q-157 0 -305 37q-59 14 -82 41t-23 84zM226 1132.5q2 7.5 10 18.5l188 238q38 46 57 57.5t56 11.5q38 0 58.5 -11.5t57.5 -57.5l189 -238q8 -11 10 -18.5t-3 -13t-19.5 -8t-38.5 -1.5q-42 0 -65.5 16.5t-59.5 65.5l-129 172l-125 -172q-36 -49 -59.5 -65.5 t-65.5 -16.5q-24 -1 -38.5 1.5t-19.5 8t-3 13z" />
<glyph unicode="&#x15e;" horiz-adv-x="1404" d="M131 186v127q0 19 14 27t56 8q41 0 54 -8t13 -27v-176q220 -47 424 -47q246 0 340 70t94 243q0 61 -16.5 104t-58.5 79.5t-118 61.5t-192 42l-182 27q-219 31 -312 121.5t-93 253.5v12q0 202 133 298.5t420 96.5q204 0 385 -53q86 -26 112.5 -56t26.5 -96v-94 q0 -19 -13 -27t-55 -8t-55.5 8t-13.5 27v125q-96 33 -183.5 46t-205.5 13q-154 0 -246 -33t-128 -92t-36 -153q0 -81 27.5 -127t103.5 -77.5t223 -55.5l195 -31q226 -36 328 -131.5t102 -259.5v-18q0 -83 -13.5 -144.5t-50 -116t-97.5 -89.5t-158 -56.5t-230 -24.5v-57 q164 -17 164 -149v-9q0 -78 -58.5 -124t-179.5 -46q-62 0 -114 19q-15 6 -17.5 14.5t4.5 34.5q9 28 16.5 36t20.5 5q51 -14 98 -14q62 0 91.5 19.5t29.5 51.5q0 66 -116 66q-30 0 -41 8t-11 27v118q-173 3 -329 33q-85 15 -118.5 53.5t-33.5 124.5z" />
<glyph unicode="&#x15f;" horiz-adv-x="1077" d="M94 135v84q0 20 13.5 27.5t54.5 7.5q43 0 56 -8t13 -27v-94q142 -45 314 -45q176 0 239.5 38.5t63.5 131.5q0 59 -26.5 95.5t-96 62.5t-197.5 43l-59 8q-189 26 -267.5 89t-78.5 183v8q0 65 22.5 114.5t71.5 87.5t133.5 57.5t202.5 19.5q52 0 141.5 -14t151.5 -33 q55 -19 75.5 -43t20.5 -70v-78q0 -19 -12 -27t-53 -8q-40 0 -53 7.5t-13 27.5v90q-154 43 -279 43q-151 0 -210.5 -39.5t-59.5 -132.5q0 -48 21 -74.5t86 -48t200 -43.5l52 -8q108 -18 179.5 -44t112.5 -65t57.5 -86t16.5 -114v-8q0 -66 -19.5 -113t-67 -84t-132 -56 t-209.5 -22v-57q164 -17 164 -149v-9q0 -78 -58.5 -124t-179.5 -46q-62 0 -114 19q-15 6 -17.5 14.5t4.5 34.5q9 28 16.5 36t20.5 5q51 -14 99 -14q120 0 120 71q0 66 -116 66q-30 0 -41 8t-11 27v118q-114 2 -247 35q-59 14 -82 41t-23 84z" />
<glyph unicode="&#x160;" horiz-adv-x="1404" d="M131 186v127q0 19 14 27t56 8q41 0 54 -8t13 -27v-176q220 -47 424 -47q246 0 340 70t94 243q0 61 -16.5 104t-58.5 79.5t-118 61.5t-192 42l-182 27q-219 31 -312 121.5t-93 253.5v12q0 202 133 298.5t420 96.5q204 0 385 -53q86 -26 112.5 -56t26.5 -96v-94 q0 -19 -13 -27t-55 -8t-55.5 8t-13.5 27v125q-96 33 -183.5 46t-205.5 13q-154 0 -246 -33t-128 -92t-36 -153q0 -81 27.5 -127t103.5 -77.5t223 -55.5l195 -31q226 -36 328 -131.5t102 -259.5v-18q0 -85 -14.5 -148t-53.5 -118.5t-105 -90.5t-170.5 -54.5t-248.5 -19.5 q-234 0 -399 33q-85 15 -118.5 53.5t-33.5 124.5zM317 1882q-30 26 11 38q22 7 61 7q48 0 72 -6.5t49 -30.5l211 -194l199 194q24 22 44.5 29.5t65.5 7.5q73 0 76 -24q1 -10 -12 -21l-273 -244q-50 -39 -96 -39h-12q-37 0 -61 9.5t-50 31.5z" />
<glyph unicode="&#x161;" horiz-adv-x="1077" d="M94 137v84q0 20 13.5 27.5t54.5 7.5q43 0 56 -8t13 -27v-94q142 -45 314 -45q176 0 239.5 38.5t63.5 131.5q0 59 -26.5 95.5t-96 62.5t-197.5 43l-59 8q-189 26 -267.5 89t-78.5 183v8q0 65 22.5 114.5t71.5 87.5t133.5 57.5t202.5 19.5q52 0 141.5 -14t151.5 -33 q55 -19 75.5 -43t20.5 -70v-78q0 -19 -12 -26.5t-53 -7.5q-40 0 -53 7.5t-13 26.5v90q-154 43 -279 43q-151 0 -210.5 -39.5t-59.5 -132.5q0 -48 21 -74.5t86 -47.5t200 -43l52 -9q108 -18 179.5 -44t112.5 -65t57.5 -86t16.5 -114v-8q0 -69 -22 -118t-75.5 -86t-149 -55 t-236.5 -18q-157 0 -305 37q-59 14 -82 41t-23 84zM221.5 1441.5q1.5 5.5 8.5 9t20.5 5t32.5 0.5q40 0 63 -15t62 -67l124 -172l130 172q37 51 60.5 66.5t63.5 15.5q32 1 47 -3.5t15 -14t-10 -23.5l-189 -237q-37 -46 -58 -58t-59 -12q-37 0 -55.5 11.5t-56.5 58.5l-189 237 q-6 8 -8.5 14.5t-1 12z" />
<glyph unicode="&#x162;" horiz-adv-x="1482" d="M70 1149v244q0 50 18.5 66t75.5 16h1157q57 0 74.5 -16t17.5 -66v-244q0 -19 -13 -27t-54 -8q-42 0 -56 8t-14 27v211h-461v-1245h221q21 0 28 -11t7 -47t-7 -46.5t-28 -10.5h-585q-21 0 -28 10.5t-7 46.5t7 47t28 11h219v1245h-463v-211q0 -19 -13 -27t-55 -8t-55.5 8 t-13.5 27zM649 -242q0 95 82 95h21q38 0 58.5 -22t20.5 -81q0 -146 -51 -262q-10 -23 -21.5 -30t-33.5 -7h-29q-20 0 -25 6.5t1 28.5q27 82 35 201q-29 3 -43.5 19t-14.5 52z" />
<glyph unicode="&#x163;" horiz-adv-x="858" d="M20 938q0 35 7 45t30 10h185v273q0 26 13 34.5t52 8.5q43 0 56.5 -8.5t13.5 -34.5v-273h332q23 0 29.5 -10t6.5 -45q0 -34 -6.5 -42.5t-29.5 -8.5h-332v-615q0 -99 40 -140.5t144 -41.5q81 0 184 29q20 5 29.5 -3t16.5 -40q7 -33 3 -43.5t-22 -16.5q-109 -41 -244 -41 q-160 0 -223 70.5t-63 212.5v629h-185q-24 0 -30.5 9t-6.5 42zM358 -242q0 95 82 95h21q38 0 59 -22.5t21 -80.5q0 -144 -52 -262q-10 -23 -21.5 -30t-33.5 -7h-28q-20 0 -25.5 6.5t0.5 28.5q27 82 35 201q-29 3 -43.5 19t-14.5 52z" />
<glyph unicode="&#x164;" horiz-adv-x="1482" d="M70 1149v244q0 50 18.5 66t75.5 16h1157q57 0 74.5 -16t17.5 -66v-244q0 -19 -13 -27t-54 -8q-42 0 -56 8t-14 27v211h-461v-1245h221q21 0 28 -11t7 -47t-7 -46.5t-28 -10.5h-585q-21 0 -28 10.5t-7 46.5t7 47t28 11h219v1245h-463v-211q0 -19 -13 -27t-55 -8t-55.5 8 t-13.5 27zM344 1882q-30 26 11 38q22 7 61 7q48 0 72 -6.5t49 -30.5l211 -194l198 194q24 22 45 29.5t66 7.5q74 0 75 -25q0 -9 -12 -20l-272 -244q-50 -39 -96 -39h-13q-37 0 -60.5 9t-49.5 32z" />
<glyph unicode="&#x165;" horiz-adv-x="858" d="M20 938q0 35 7 45t30 10h185v273q0 26 13 34.5t52 8.5q43 0 56.5 -8.5t13.5 -34.5v-273h332q23 0 29.5 -10t6.5 -45q0 -34 -6.5 -42.5t-29.5 -8.5h-332v-615q0 -99 40 -140.5t144 -41.5q81 0 184 29q20 5 29.5 -3t16.5 -40q7 -33 3 -43.5t-22 -16.5q-109 -41 -244 -41 q-160 0 -223 70.5t-63 212.5v629h-185q-24 0 -30.5 9t-6.5 42zM498 1405q0 94 82 94h20q38 0 59 -22t21 -80q0 -146 -51 -262q-10 -23 -21.5 -30t-34.5 -7h-28q-20 0 -25.5 6.5t0.5 28.5q27 82 35 200q-28 3 -42.5 19.5t-14.5 52.5z" />
<glyph unicode="&#x166;" horiz-adv-x="1482" d="M70 1149v244q0 50 18.5 66t75.5 16h1157q57 0 74.5 -16t17.5 -66v-244q0 -19 -13 -27t-54 -8q-42 0 -56 8t-14 27v211h-461v-549h240q18 0 24 -10.5t6 -38.5q0 -30 -6 -40.5t-24 -10.5h-240v-596h221q21 0 28 -11t7 -47t-7 -46.5t-28 -10.5h-585q-21 0 -28 10.5t-7 46.5 t7 47t28 11h219v596h-244q-18 0 -24.5 10.5t-6.5 40.5q0 27 6.5 38t24.5 11h244v549h-463v-211q0 -19 -13 -27t-55 -8t-55.5 8t-13.5 27z" />
<glyph unicode="&#x167;" horiz-adv-x="858" d="M20 938q0 35 7 45t30 10h185v273q0 26 13 34.5t52 8.5q43 0 56.5 -8.5t13.5 -34.5v-273h332q23 0 29.5 -10t6.5 -45q0 -34 -6.5 -42.5t-29.5 -8.5h-332v-260h270q24 0 30.5 -9.5t6.5 -44.5q0 -33 -6.5 -41t-30.5 -8h-270v-252q0 -99 40 -140.5t144 -41.5q81 0 184 29 q20 5 29.5 -3t16.5 -40q7 -33 3 -43.5t-22 -16.5q-109 -41 -244 -41q-160 0 -223 70.5t-63 212.5v266h-144q-24 0 -30.5 8t-6.5 41q0 35 6.5 44.5t30.5 9.5h144v260h-185q-24 0 -30.5 9t-6.5 42z" />
<glyph unicode="&#x168;" horiz-adv-x="1562" d="M66 1417q0 36 6.5 47t27.5 11h389q21 0 28 -11t7 -47t-7 -46.5t-28 -10.5h-149v-780q0 -138 28 -233t86.5 -151.5t139.5 -81t194 -24.5q222 0 328.5 111.5t106.5 357.5v801h-152q-21 0 -28 10.5t-7 46.5t7 47t28 11h395q21 0 28 -11t7 -47t-7 -46.5t-28 -10.5h-104v-778 q0 -305 -139 -456t-449 -151q-579 0 -579 586v799h-95q-21 0 -27.5 10.5t-6.5 46.5zM377 1751q77 125 244 125q60 0 112.5 -19t83 -41.5t69.5 -41.5t75 -19q82 0 122 78q16 32 70 10q47 -16 35 -53q-22 -64 -82 -101.5t-148 -37.5q-58 0 -110 19t-84 41.5t-73 41.5t-79 19 q-47 0 -78 -18t-59 -62q-18 -29 -69 0q-48 27 -29 59z" />
<glyph unicode="&#x169;" horiz-adv-x="1337" d="M49 930q0 36 14.5 49.5t49.5 13.5h127q42 0 59.5 -16.5t17.5 -61.5v-473q0 -197 66.5 -276.5t234.5 -79.5q359 0 359 360v402q0 20 -7.5 27.5t-27.5 7.5h-65q-33 0 -33 47q0 36 14 49.5t49 13.5h127q41 0 59.5 -17t18.5 -61v-751q0 -33 14 -45.5t56 -12.5h26 q22 0 28.5 -9t6.5 -42q0 -34 -6.5 -44.5t-28.5 -10.5h-53q-78 0 -121.5 32t-58.5 103h-23q-47 -78 -130.5 -119t-223.5 -41q-115 0 -196.5 29t-129 86t-69 132t-21.5 175v451q0 20 -7.5 27.5t-27.5 7.5h-65q-33 0 -33 47zM215.5 1220.5q-6.5 11.5 1.5 26.5q39 70 91 100.5 t136 30.5q51 0 97 -18.5t72.5 -40.5t59 -40.5t60.5 -18.5q75 0 115 79q8 16 20 18.5t45 -9.5q24 -9 31.5 -20t-0.5 -30q-70 -139 -221 -139q-48 0 -91 18.5t-69.5 40t-60 40t-62.5 18.5q-42 0 -71.5 -18.5t-59.5 -65.5q-16 -25 -63 2q-24 15 -30.5 26.5z" />
<glyph unicode="&#x16a;" horiz-adv-x="1562" d="M66 1417q0 36 6.5 47t27.5 11h389q21 0 28 -11t7 -47t-7 -46.5t-28 -10.5h-149v-780q0 -138 28 -233t86.5 -151.5t139.5 -81t194 -24.5q222 0 328.5 111.5t106.5 357.5v801h-152q-21 0 -28 10.5t-7 46.5t7 47t28 11h395q21 0 28 -11t7 -47t-7 -46.5t-28 -10.5h-104v-778 q0 -305 -139 -456t-449 -151q-579 0 -579 586v799h-95q-21 0 -27.5 10.5t-6.5 46.5zM383 1765q0 30 6 41t27 11h717q18 0 24 -11.5t6 -40.5q0 -31 -6 -42t-24 -11h-717q-21 0 -27 10.5t-6 42.5z" />
<glyph unicode="&#x16b;" horiz-adv-x="1337" d="M49 930q0 36 14.5 49.5t49.5 13.5h127q42 0 59.5 -16.5t17.5 -61.5v-473q0 -197 66.5 -276.5t234.5 -79.5q359 0 359 360v402q0 20 -7.5 27.5t-27.5 7.5h-65q-33 0 -33 47q0 36 14 49.5t49 13.5h127q41 0 59.5 -17t18.5 -61v-751q0 -33 14 -45.5t56 -12.5h26 q22 0 28.5 -9t6.5 -42q0 -34 -6.5 -44.5t-28.5 -10.5h-53q-78 0 -121.5 32t-58.5 103h-23q-47 -78 -130.5 -119t-223.5 -41q-115 0 -196.5 29t-129 86t-69 132t-21.5 175v451q0 20 -7.5 27.5t-27.5 7.5h-65q-33 0 -33 47zM268 1239q0 27 6.5 38t24.5 11h588q18 0 24.5 -11 t6.5 -38q0 -30 -6.5 -40.5t-24.5 -10.5h-588q-18 0 -24.5 10.5t-6.5 40.5z" />
<glyph unicode="&#x16c;" horiz-adv-x="1562" d="M66 1417q0 36 6.5 47t27.5 11h389q21 0 28 -11t7 -47t-7 -46.5t-28 -10.5h-149v-780q0 -138 28 -233t86.5 -151.5t139.5 -81t194 -24.5q222 0 328.5 111.5t106.5 357.5v801h-152q-21 0 -28 10.5t-7 46.5t7 47t28 11h395q21 0 28 -11t7 -47t-7 -46.5t-28 -10.5h-104v-778 q0 -305 -139 -456t-449 -151q-579 0 -579 586v799h-95q-21 0 -27.5 10.5t-6.5 46.5zM416 1876v20q0 16 13 23.5t48 7.5q40 0 55 -7.5t15 -25.5v-8q0 -41 12.5 -71.5t33.5 -49t52 -30t63.5 -15.5t73.5 -4t73 4t63 15t52 29.5t33.5 49t12.5 72.5v8q0 18 14 25.5t53 7.5 q36 0 50 -7.5t14 -23.5v-20q0 -70 -29.5 -121t-82 -79.5t-117 -42t-142.5 -13.5q-168 0 -264 61t-96 195z" />
<glyph unicode="&#x16d;" horiz-adv-x="1337" d="M49 930q0 36 14.5 49.5t49.5 13.5h127q42 0 59.5 -16.5t17.5 -61.5v-473q0 -197 66.5 -276.5t234.5 -79.5q359 0 359 360v402q0 20 -7.5 27.5t-27.5 7.5h-65q-33 0 -33 47q0 36 14 49.5t49 13.5h127q41 0 59.5 -17t18.5 -61v-751q0 -33 14 -45.5t56 -12.5h26 q22 0 28.5 -9t6.5 -42q0 -34 -6.5 -44.5t-28.5 -10.5h-53q-78 0 -121.5 32t-58.5 103h-23q-47 -78 -130.5 -119t-223.5 -41q-115 0 -196.5 29t-129 86t-69 132t-21.5 175v451q0 20 -7.5 27.5t-27.5 7.5h-65q-33 0 -33 47zM301 1409v14q0 16 11 23.5t44 7.5q38 0 50 -7.5 t12 -25.5v-8q0 -102 48.5 -142t147.5 -40q96 0 143.5 40t47.5 142v8q0 19 11.5 26t49.5 7q33 0 44.5 -7.5t11.5 -23.5v-14q0 -137 -83.5 -203.5t-230.5 -66.5q-150 0 -228.5 64t-78.5 206z" />
<glyph unicode="&#x16e;" horiz-adv-x="1562" d="M66 1417q0 36 6.5 47t27.5 11h389q21 0 28 -11t7 -47t-7 -46.5t-28 -10.5h-149v-780q0 -138 28 -233t86.5 -151.5t139.5 -81t194 -24.5q222 0 328.5 111.5t106.5 357.5v801h-152q-21 0 -28 10.5t-7 46.5t7 47t28 11h395q21 0 28 -11t7 -47t-7 -46.5t-28 -10.5h-104v-778 q0 -305 -139 -456t-449 -151q-579 0 -579 586v799h-95q-21 0 -27.5 10.5t-6.5 46.5zM557 1759v13q0 96 62 148t165 52q101 0 161.5 -52t60.5 -148v-13q0 -98 -60 -148t-162 -50q-104 0 -165.5 50t-61.5 148zM680 1767q0 -108 104 -108q103 0 103 108q0 51 -28 78t-75 27 t-75.5 -27t-28.5 -78z" />
<glyph unicode="&#x16f;" horiz-adv-x="1337" d="M49 930q0 36 14.5 49.5t49.5 13.5h127q42 0 59.5 -16.5t17.5 -61.5v-473q0 -197 66.5 -276.5t234.5 -79.5q359 0 359 360v402q0 20 -7.5 27.5t-27.5 7.5h-65q-33 0 -33 47q0 36 14 49.5t49 13.5h127q41 0 59.5 -17t18.5 -61v-751q0 -33 14 -45.5t56 -12.5h26 q22 0 28.5 -9t6.5 -42q0 -34 -6.5 -44.5t-28.5 -10.5h-53q-78 0 -121.5 32t-58.5 103h-23q-47 -78 -130.5 -119t-223.5 -41q-115 0 -196.5 29t-129 86t-69 132t-21.5 175v451q0 20 -7.5 27.5t-27.5 7.5h-65q-33 0 -33 47zM403 1303v12q0 93 57.5 142.5t153.5 49.5 q95 0 151 -49.5t56 -142.5v-12q0 -91 -56 -140t-151 -49q-96 0 -153.5 49t-57.5 140zM510 1311q0 -111 104 -111q103 0 103 111q0 53 -28 81.5t-75 28.5t-75.5 -28.5t-28.5 -81.5z" />
<glyph unicode="&#x170;" horiz-adv-x="1562" d="M66 1417q0 36 6.5 47t27.5 11h389q21 0 28 -11t7 -47t-7 -46.5t-28 -10.5h-149v-780q0 -138 28 -233t86.5 -151.5t139.5 -81t194 -24.5q222 0 328.5 111.5t106.5 357.5v801h-152q-21 0 -28 10.5t-7 46.5t7 47t28 11h395q21 0 28 -11t7 -47t-7 -46.5t-28 -10.5h-104v-778 q0 -305 -139 -456t-449 -151q-579 0 -579 586v799h-95q-21 0 -27.5 10.5t-6.5 46.5zM475.5 1614.5q-1.5 7.5 7.5 19.5l207 252q30 41 107 41q64 0 61 -25q-1 -8 -8 -16l-232 -252q-32 -35 -90 -35q-24 0 -37.5 4t-15 11.5zM846.5 1614.5q-1.5 7.5 7.5 19.5l205 252 q35 41 108 41q67 0 62 -25q-1 -8 -8 -16l-234 -252q-35 -35 -88 -35q-25 0 -38 4t-14.5 11.5z" />
<glyph unicode="&#x171;" horiz-adv-x="1337" d="M49 930q0 36 14.5 49.5t49.5 13.5h127q42 0 59.5 -16.5t17.5 -61.5v-473q0 -197 66.5 -276.5t234.5 -79.5q359 0 359 360v402q0 20 -7.5 27.5t-27.5 7.5h-65q-33 0 -33 47q0 36 14 49.5t49 13.5h127q41 0 59.5 -17t18.5 -61v-751q0 -33 14 -45.5t56 -12.5h26 q22 0 28.5 -9t6.5 -42q0 -34 -6.5 -44.5t-28.5 -10.5h-53q-78 0 -121.5 32t-58.5 103h-23q-47 -78 -130.5 -119t-223.5 -41q-115 0 -196.5 29t-129 86t-69 132t-21.5 175v451q0 20 -7.5 27.5t-27.5 7.5h-65q-33 0 -33 47zM338 1119q-8 9 4 26l172 272q26 41 98 41 q42 0 52.5 -9.5t-5.5 -31.5l-198 -272q-14 -19 -31.5 -27t-50.5 -8t-41 9zM708.5 1118q-7.5 8 4.5 27l172 272q24 41 98 41q38 0 49.5 -10.5t-2.5 -30.5l-199 -272q-14 -19 -31 -27t-50 -8q-34 0 -41.5 8z" />
<glyph unicode="&#x172;" horiz-adv-x="1562" d="M66 1417q0 36 6.5 47t27.5 11h389q21 0 28 -11t7 -47t-7 -46.5t-28 -10.5h-149v-780q0 -138 28 -233t86.5 -151.5t139.5 -81t194 -24.5q222 0 328.5 111.5t106.5 357.5v801h-152q-21 0 -28 10.5t-7 46.5t7 47t28 11h395q21 0 28 -11t7 -47t-7 -46.5t-28 -10.5h-104v-778 q0 -363 -191 -502q-27 -20 -92 -50.5t-94 -52.5q-143 -107 -143 -210q0 -84 80 -84q34 0 61 6q21 5 29 -0.5t14 -26.5q5 -17 5.5 -26t-3.5 -14.5t-14 -10.5q-46 -21 -105 -21q-81 0 -129.5 39t-48.5 119v8q0 58 33.5 118t93.5 106q-68 -5 -84 -5q-579 0 -579 586v799h-95 q-21 0 -27.5 10.5t-6.5 46.5z" />
<glyph unicode="&#x173;" horiz-adv-x="1337" d="M49 930q0 36 14.5 49.5t49.5 13.5h127q42 0 59.5 -16.5t17.5 -61.5v-473q0 -197 66.5 -276.5t234.5 -79.5q359 0 359 360v402q0 20 -7.5 27.5t-27.5 7.5h-65q-33 0 -33 47q0 36 14 49.5t49 13.5h127q41 0 59.5 -17t18.5 -61v-751q0 -33 14 -45.5t56 -12.5h26 q22 0 28.5 -9.5t6.5 -41.5q0 -23 -4 -32.5t-16 -20.5q-10 -8 -35 -25q-144 -99 -144 -210q0 -84 80 -84q35 0 62 6q21 5 29 -0.5t14 -26.5q5 -17 5.5 -26t-3.5 -14.5t-14 -10.5q-47 -21 -105 -21q-81 0 -129.5 39t-48.5 119v8q0 64 41 129.5t123 118.5q-101 19 -123 131h-23 q-47 -78 -130.5 -119t-223.5 -41q-115 0 -196.5 29t-129 86t-69 132t-21.5 175v451q0 20 -7.5 27.5t-27.5 7.5h-65q-33 0 -33 47z" />
<glyph unicode="&#x174;" horiz-adv-x="2406" d="M25 1417q0 36 6.5 47t27.5 11h555q21 0 28 -11t7 -47t-7 -46.5t-28 -10.5h-262l258 -881q68 -218 97 -383h24q25 163 96 387l267 820q17 51 38.5 68.5t63.5 17.5h49q44 0 67.5 -17.5t41.5 -71.5l243 -817q72 -240 93 -387h24q26 173 92 383l260 881h-260 q-21 0 -27.5 10.5t-6.5 46.5t6.5 47t27.5 11h541q21 0 28 -11t7 -47t-7 -46.5t-28 -10.5h-137l-383 -1284q-16 -54 -38 -71t-63 -17h-49q-40 0 -63.5 19t-38.5 65l-270 891q-53 170 -76 307h-25q-28 -162 -76 -312l-288 -886q-14 -46 -36 -65t-54 -19h-74q-41 0 -64 18.5 t-37 69.5l-382 1284h-134q-21 0 -27.5 10.5t-6.5 46.5zM814 1625q2 10 13 20l271 243q45 39 96 39h14q62 0 109 -41l282 -241q25 -20 0 -34q-22 -12 -71 -12q-44 0 -67 7.5t-50 31.5l-213 189l-201 -189q-25 -23 -45.5 -31t-64.5 -8q-73 0 -73 26z" />
<glyph unicode="&#x175;" horiz-adv-x="1669" d="M25 938q0 35 5.5 45t28.5 10h361q23 0 29 -10t6 -45t-6 -45t-29 -10h-135l172 -584q30 -96 45 -195h20q18 100 49 197l172 578q9 26 25.5 35.5t50.5 9.5h51q35 0 51 -8.5t25 -34.5l170 -580q35 -130 45 -197h23q7 61 45 199l168 580h-164q-23 0 -29 10t-6 45t6 45t29 10 h377q23 0 29 -10t6 -45t-6 -45t-29 -10h-80l-260 -850q-9 -26 -25.5 -35.5t-50.5 -9.5h-47q-34 0 -51.5 10.5t-26.5 36.5l-176 588q-31 106 -39 192h-23q-10 -108 -38 -194l-177 -586q-7 -27 -23.5 -37t-51.5 -10h-64q-32 0 -48.5 10.5t-27.5 34.5l-266 850h-76 q-23 0 -28.5 10t-5.5 45zM531 1132.5q2 7.5 10 18.5l188 238q38 46 57 57.5t56 11.5q38 0 58.5 -11.5t57.5 -57.5l189 -238q8 -11 10 -18.5t-3 -13t-19.5 -8t-38.5 -1.5q-42 0 -65.5 16.5t-59.5 65.5l-129 172l-125 -172q-36 -49 -59.5 -65.5t-65.5 -16.5q-24 -1 -38.5 1.5 t-19.5 8t-3 13z" />
<glyph unicode="&#x176;" horiz-adv-x="1523" d="M33 1417q0 36 7 47t28 11h473q21 0 27.5 -11t6.5 -47t-6.5 -46.5t-27.5 -10.5h-201l299 -479q69 -111 117 -240h24q52 136 119 240l305 479h-233q-21 0 -28 10.5t-7 46.5t7 47t28 11h481q21 0 28 -11t7 -47t-7 -46.5t-28 -10.5h-106l-508 -815v-430h209q21 0 27.5 -11 t6.5 -47t-6.5 -46.5t-27.5 -10.5h-566q-21 0 -28 10.5t-7 46.5t7 47t28 11h211v426l-520 819h-104q-21 0 -28 10.5t-7 46.5zM354 1625q0 9 13 20l270 243q45 39 96 39h15q36 0 59 -9t49 -32l283 -241q25 -20 0 -34q-21 -12 -72 -12q-44 0 -67 7.5t-50 31.5l-213 189 l-200 -189q-25 -23 -46 -31t-65 -8q-72 0 -72 26z" />
<glyph unicode="&#x177;" horiz-adv-x="1208" d="M26.5 -428q-1.5 11 12.5 47q18 45 49 33q77 -29 154 -29q99 0 151.5 49.5t126.5 208.5l49 105q-18 0 -28 22l-410 875h-70q-23 0 -28.5 10t-5.5 45t5.5 45t28.5 10h361q23 0 29 -10t6 -45t-6 -45t-29 -10h-146l283 -594q44 -86 57 -187h23q20 110 55 187l260 594h-155 q-23 0 -29 10t-6 45t6 45t29 10h350q23 0 29 -10t6 -45t-6 -45t-29 -10h-64l-464 -1061q-43 -97 -80 -155t-83 -91.5t-95.5 -45t-124.5 -11.5q-108 0 -195 35q-15 7 -16.5 18zM314 1132.5q2 7.5 10 18.5l188 238q38 46 57 57.5t56 11.5q38 0 58.5 -11.5t57.5 -57.5l189 -238 q8 -11 10 -18.5t-3 -13t-19.5 -8t-38.5 -1.5q-42 0 -65.5 16.5t-59.5 65.5l-129 172l-125 -172q-36 -49 -59.5 -65.5t-65.5 -16.5q-24 -1 -38.5 1.5t-19.5 8t-3 13z" />
<glyph unicode="&#x178;" horiz-adv-x="1523" d="M33 1417q0 36 7 47t28 11h473q21 0 27.5 -11t6.5 -47t-6.5 -46.5t-27.5 -10.5h-201l299 -479q69 -111 117 -240h24q52 136 119 240l305 479h-233q-21 0 -28 10.5t-7 46.5t7 47t28 11h481q21 0 28 -11t7 -47t-7 -46.5t-28 -10.5h-106l-508 -815v-430h209q21 0 27.5 -11 t6.5 -47t-6.5 -46.5t-27.5 -10.5h-566q-21 0 -28 10.5t-7 46.5t7 47t28 11h211v426l-520 819h-104q-21 0 -28 10.5t-7 46.5zM401 1757q0 96 88 96h37q42 0 64 -21.5t22 -74.5q0 -54 -15 -72t-54 -18h-72q-40 0 -55 18t-15 72zM909 1757q0 96 90 96h35q44 0 65 -21.5 t21 -74.5q0 -54 -14 -72t-53 -18h-74q-39 0 -54.5 18.5t-15.5 71.5z" />
<glyph unicode="&#x179;" horiz-adv-x="1347" d="M90 55v45q0 38 15.5 68t68.5 92l774 940q67 83 150 146v22h-848v-178q0 -19 -14 -27t-56 -8q-41 0 -54 8t-13 27v199q0 52 19.5 69t78.5 17h909q64 0 82.5 -10.5t18.5 -45.5v-39q0 -40 -16.5 -73t-65.5 -95l-768 -931q-63 -79 -156 -152v-23h905v216q0 19 13 26.5t55 7.5 t55.5 -7.5t13.5 -26.5v-236q0 -52 -18.5 -69t-77.5 -17h-968q-56 0 -79.5 11t-23.5 44zM449.5 1622.5q0.5 9.5 9.5 19.5l274 244q44 41 129 41q57 0 70 -24q7 -14 -10 -27l-312 -242q-43 -35 -106 -35q-26 0 -40.5 7t-14 16.5z" />
<glyph unicode="&#x17a;" horiz-adv-x="1146" d="M106 70v47q0 31 14.5 55t61.5 66l557 505q91 80 166 129v17h-663v-111q0 -19 -12.5 -27t-53.5 -8q-40 0 -52.5 7.5t-12.5 27.5v142q0 45 21.5 59t82.5 14h698q62 0 81.5 -12t19.5 -57v-39q0 -34 -12 -54.5t-64 -70.5l-590 -541q-59 -52 -125 -94v-21h680v138 q0 20 13.5 27t54.5 7q43 0 56 -7.5t13 -26.5v-168q0 -44 -22.5 -59t-83.5 -15h-727q-61 0 -81 13t-20 57zM377 1132q2 6 8 13l248 272q21 24 45 32.5t76 8.5q64 0 67 -24q1 -8 -8 -17l-287 -272q-38 -35 -94 -35q-59 0 -55 22z" />
<glyph unicode="&#x17b;" horiz-adv-x="1347" d="M90 55v45q0 38 15.5 68t68.5 92l774 940q67 83 150 146v22h-848v-178q0 -19 -14 -27t-56 -8q-41 0 -54 8t-13 27v199q0 52 19.5 69t78.5 17h909q64 0 82.5 -10.5t18.5 -45.5v-39q0 -40 -16.5 -73t-65.5 -95l-768 -931q-63 -79 -156 -152v-23h905v216q0 19 13 26.5t55 7.5 t55.5 -7.5t13.5 -26.5v-236q0 -52 -18.5 -69t-77.5 -17h-968q-56 0 -79.5 11t-23.5 44zM539 1753q0 105 96 105h37q96 0 96 -105q0 -55 -18 -75.5t-58 -20.5h-76q-41 0 -59 20.5t-18 75.5z" />
<glyph unicode="&#x17c;" horiz-adv-x="1146" d="M106 70v47q0 31 14.5 55t61.5 66l557 505q91 80 166 129v17h-663v-111q0 -19 -12.5 -27t-53.5 -8q-40 0 -52.5 7.5t-12.5 27.5v142q0 45 21.5 59t82.5 14h698q62 0 81.5 -12t19.5 -57v-39q0 -34 -12 -54.5t-64 -70.5l-590 -541q-59 -52 -125 -94v-21h680v138 q0 20 13.5 27t54.5 7q43 0 56 -7.5t13 -26.5v-168q0 -44 -22.5 -59t-83.5 -15h-727q-61 0 -81 13t-20 57zM465 1264q0 102 96 102h17q45 0 70.5 -23t25.5 -79q0 -55 -17 -75t-57 -20h-59q-41 0 -58.5 20t-17.5 75z" />
<glyph unicode="&#x17d;" horiz-adv-x="1347" d="M90 55v45q0 38 15.5 68t68.5 92l774 940q67 83 150 146v22h-848v-178q0 -19 -14 -27t-56 -8q-41 0 -54 8t-13 27v199q0 52 19.5 69t78.5 17h909q64 0 82.5 -10.5t18.5 -45.5v-39q0 -40 -16.5 -73t-65.5 -95l-768 -931q-63 -79 -156 -152v-23h905v216q0 19 13 26.5t55 7.5 t55.5 -7.5t13.5 -26.5v-236q0 -52 -18.5 -69t-77.5 -17h-968q-56 0 -79.5 11t-23.5 44zM256 1882q-30 26 11 38q22 7 61 7q48 0 72 -6.5t49 -30.5l210 -194l199 194q24 22 45 29.5t66 7.5q74 0 75 -25q0 -9 -12 -20l-272 -244q-50 -39 -96 -39h-13q-37 0 -60.5 9t-49.5 32z " />
<glyph unicode="&#x17e;" horiz-adv-x="1146" d="M106 70v47q0 31 14.5 55t61.5 66l557 505q91 80 166 129v17h-663v-111q0 -19 -12.5 -27t-53.5 -8q-40 0 -52.5 7.5t-12.5 27.5v142q0 45 21.5 59t82.5 14h698q62 0 81.5 -12t19.5 -57v-39q0 -34 -12 -54.5t-64 -70.5l-590 -541q-59 -52 -125 -94v-21h680v138 q0 20 13.5 27t54.5 7q43 0 56 -7.5t13 -26.5v-168q0 -44 -22.5 -59t-83.5 -15h-727q-61 0 -81 13t-20 57zM279 1433.5q-2 7.5 3 13t19.5 8t38.5 1.5q40 0 63 -15t62 -67l125 -172l129 172q36 51 60.5 66.5t64.5 15.5q24 1 38.5 -1.5t19.5 -8t3 -13t-10 -18.5l-188 -237 q-37 -46 -58 -58t-59 -12q-37 0 -56 11.5t-57 58.5l-188 237q-8 11 -10 18.5z" />
<glyph unicode="&#x17f;" horiz-adv-x="686" d="M20 940q0 34 6 43.5t29 9.5h189v105q0 208 83 304.5t277 96.5q147 0 268 -57q15 -8 17.5 -20.5t-6.5 -41.5q-10 -29 -21.5 -36t-30.5 -1q-130 50 -233 50q-120 0 -169.5 -63.5t-49.5 -221.5v-997h213q23 0 29 -10.5t6 -45.5t-6 -45t-29 -10h-475q-23 0 -29 10t-6 45 t6 45.5t29 10.5h127v776h-189q-23 0 -29 9.5t-6 43.5z" />
<glyph unicode="&#x192;" horiz-adv-x="1429" d="M18.5 -338q0.5 13 16.5 45q13 26 25 32t30 -1q107 -35 197 -35q98 0 159.5 63.5t92.5 217.5l137 688h-303q-24 0 -30.5 9.5t-6.5 45.5t6.5 46.5t28.5 10.5h327l64 316q43 209 143 304t277 95q54 0 117 -13.5t96 -31.5q17 -9 18 -23t-14 -45q-12 -25 -23.5 -31t-29.5 1 q-104 33 -189 33q-103 0 -161 -61t-89 -218l-65 -326h311q22 0 28.5 -10.5t6.5 -46.5t-6.5 -45.5t-30.5 -9.5h-332l-135 -676q-42 -213 -142 -307.5t-274 -94.5q-136 0 -233 46q-17 9 -16.5 22z" />
<glyph unicode="&#x1fa;" horiz-adv-x="1777" d="M53 57q0 36 7 47t28 11h113l544 1276q27 62 46 79t65 17h37q46 0 67.5 -18t47.5 -78l573 -1276h117q21 0 28 -11t7 -47t-7 -46.5t-28 -10.5h-471q-21 0 -28 10.5t-7 46.5t7 47t28 11h180l-160 379h-741l-154 -379h197q22 0 28.5 -10.5t6.5 -47.5q0 -36 -6.5 -46.5 t-28.5 -10.5h-461q-21 0 -28 10.5t-7 46.5zM555 608h645l-211 496q-67 154 -102 274h-25q-33 -128 -96 -274zM629.5 2044.5q0.5 9.5 9.5 19.5l274 244q44 41 129 41q57 0 70 -24q7 -14 -10 -27l-311 -242q-43 -35 -107 -35q-26 0 -40.5 7t-14 16.5zM680 1782v12 q0 93 57.5 143t153.5 50q95 0 151 -50t56 -143v-12q0 -91 -56 -140t-151 -49q-96 0 -153.5 49t-57.5 140zM786 1790q0 -111 105 -111q102 0 102 111q0 53 -27.5 82t-74.5 29t-76 -29t-29 -82z" />
<glyph unicode="&#x1fb;" horiz-adv-x="1179" d="M82 270v13q0 144 115 229.5t340 85.5q207 0 305 -98h22v102q0 162 -75 230.5t-248 68.5q-160 0 -328 -57q-19 -6 -30.5 3t-20.5 40q-11 32 -7 46t27 21q185 66 377 66q227 0 331.5 -95.5t104.5 -301.5v-459q0 -32 16 -45t54 -13h27q21 0 27.5 -10t6.5 -41q0 -34 -6 -44.5 t-28 -10.5h-54q-77 0 -114 24t-54 85h-22q-97 -134 -348 -134q-199 0 -308.5 81.5t-109.5 213.5zM225 283q0 -84 80.5 -140.5t237.5 -56.5q151 0 237 60t86 143q0 88 -85 145.5t-238 57.5q-158 0 -238 -56t-80 -145v-8zM363 1564q2 6 8 13l247 272q21 24 45 32.5t76 8.5 q65 0 68 -24q1 -8 -8 -17l-287 -272q-38 -35 -94 -35q-59 0 -55 22zM381 1303v12q0 93 57.5 142.5t153.5 49.5q95 0 151 -49.5t56 -142.5v-12q0 -91 -56 -140t-151 -49q-96 0 -153.5 49t-57.5 140zM487 1311q0 -111 105 -111q102 0 102 111q0 53 -27.5 81.5t-74.5 28.5 t-76 -28.5t-29 -81.5z" />
<glyph unicode="&#x1fc;" horiz-adv-x="2433" d="M29 57q0 36 6.5 47t27.5 11h117l924 1204q33 43 50.5 64.5t39 42.5t33 28t34.5 13.5t41 7t54 0.5h856q57 0 74.5 -16t17.5 -66v-242q0 -19 -13 -27t-55 -8t-55.5 8t-13.5 27v209h-758v-551h545v111q0 19 12.5 26.5t54.5 7.5t55 -7.5t13 -26.5v-342q0 -19 -13 -27t-55 -8 q-41 0 -54 8t-13 27v120h-545v-583h772v209q0 18 14 26t56 8t54.5 -7.5t12.5 -26.5v-242q0 -50 -18.5 -66t-75.5 -16h-1065q-21 0 -28 12t-7 45t7 45.5t28 12.5h105v338h-662l-256 -338h197q22 0 28.5 -10.5t6.5 -47.5q0 -36 -6.5 -46.5t-28.5 -10.5h-480q-21 0 -27.5 10.5 t-6.5 46.5zM686 561h578v801h-13q-76 -163 -209 -334zM1448.5 1622.5q0.5 9.5 9.5 19.5l275 244q44 41 129 41q56 0 69 -24q7 -14 -10 -27l-311 -242q-43 -35 -107 -35q-26 0 -40.5 7t-14 16.5z" />
<glyph unicode="&#x1fd;" horiz-adv-x="1923" d="M82 270v13q0 144 115 229.5t340 85.5q207 0 305 -98h22v102q0 162 -75 230.5t-248 68.5q-160 0 -328 -57q-19 -6 -30.5 3t-20.5 40q-11 32 -7 46t27 21q185 66 377 66q151 0 242 -37.5t139 -114.5h25q127 152 397 152q217 0 329.5 -114t112.5 -324v-27q0 -71 -15.5 -85.5 t-92.5 -14.5h-701q8 -197 100.5 -282t305.5 -85q157 0 307 47q21 7 31.5 0.5t19.5 -37.5q10 -30 8 -43.5t-20 -19.5q-168 -60 -361 -60q-322 0 -450 166h-21q-62 -85 -162.5 -125.5t-252.5 -40.5q-199 0 -308.5 81.5t-109.5 213.5zM225 283q0 -84 80.5 -140.5t237.5 -56.5 q151 0 237 60t86 143q0 88 -85 145.5t-238 57.5q-158 0 -238 -56t-80 -145v-8zM860 1132q2 6 8 13l248 272q21 24 45 32.5t76 8.5q64 0 67 -24q1 -8 -8 -17l-286 -272q-38 -35 -95 -35q-59 0 -55 22zM999 563h678q0 182 -81.5 266t-245.5 84q-174 0 -262.5 -91.5 t-88.5 -258.5z" />
<glyph unicode="&#x1fe;" d="M127 709v57q0 354 167.5 543.5t502.5 189.5q166 0 290 -47l64 123q15 29 88 29q30 0 48.5 -5t23.5 -13.5t0 -18.5l-94 -185q249 -179 249 -616v-57q0 -354 -167 -544t-502 -190q-148 0 -273 39l-110 -219q-12 -28 -88 -28q-42 0 -62 6.5t-10 25.5l141 279 q-268 175 -268 631zM281 719q0 -362 176 -518l575 1138q-99 45 -235 45q-251 0 -383.5 -157t-132.5 -473v-35zM551.5 1622.5q0.5 9.5 9.5 19.5l275 244q44 41 129 41q56 0 69 -24q7 -14 -10 -27l-311 -242q-43 -35 -107 -35q-26 0 -40.5 7t-14 16.5zM582 125q85 -35 215 -35 q251 0 383.5 156.5t132.5 472.5v35q0 344 -160 501z" />
<glyph unicode="&#x1ff;" horiz-adv-x="1228" d="M106 485v23q0 251 128 381.5t380 130.5q92 0 179 -23l81 162q9 16 25 22.5t59 6.5q40 0 58 -9t8 -28l-104 -207q202 -126 202 -436v-23q0 -247 -134 -378.5t-374 -131.5q-83 0 -176 21l-100 -201q-12 -28 -94 -28q-38 0 -52 6.5t-4 25.5l125 248q-207 127 -207 438z M250 489q0 -240 117 -337l376 745q-62 16 -129 16q-192 0 -278 -102t-86 -307v-15zM387 1132q2 6 8 13l248 272q21 24 45 32.5t76 8.5q64 0 67 -24q1 -8 -8 -17l-286 -272q-38 -35 -95 -35q-59 0 -55 22zM487 92q52 -14 127 -14q192 0 278.5 103t86.5 308v15q0 236 -115 334 z" />
<glyph unicode="&#x218;" horiz-adv-x="1404" d="M131 186v127q0 19 14 27t56 8q41 0 54 -8t13 -27v-176q220 -47 424 -47q246 0 340 70t94 243q0 61 -16.5 104t-58.5 79.5t-118 61.5t-192 42l-182 27q-219 31 -312 121.5t-93 253.5v12q0 202 133 298.5t420 96.5q204 0 385 -53q86 -26 112.5 -56t26.5 -96v-94 q0 -19 -13 -27t-55 -8t-55.5 8t-13.5 27v125q-96 33 -183.5 46t-205.5 13q-154 0 -246 -33t-128 -92t-36 -153q0 -81 27.5 -127t103.5 -77.5t223 -55.5l195 -31q226 -36 328 -131.5t102 -259.5v-18q0 -85 -14.5 -148t-53.5 -118.5t-105 -90.5t-170.5 -54.5t-248.5 -19.5 q-234 0 -399 33q-85 15 -118.5 53.5t-33.5 124.5zM631 -242q0 95 82 95h20q38 0 59 -22.5t21 -80.5q0 -146 -51 -262q-10 -23 -21.5 -30t-33.5 -7h-29q-20 0 -25.5 6.5t0.5 28.5q27 82 35 201q-28 3 -42.5 19t-14.5 52z" />
<glyph unicode="&#x219;" horiz-adv-x="1077" d="M94 137v84q0 20 13.5 27.5t54.5 7.5q43 0 56 -8t13 -27v-94q142 -45 314 -45q176 0 239.5 38.5t63.5 131.5q0 59 -26.5 95.5t-96 62.5t-197.5 43l-59 8q-189 26 -267.5 89t-78.5 183v8q0 65 22.5 114.5t71.5 87.5t133.5 57.5t202.5 19.5q52 0 141.5 -14t151.5 -33 q55 -19 75.5 -43t20.5 -70v-78q0 -19 -12 -26.5t-53 -7.5q-40 0 -53 7.5t-13 26.5v90q-154 43 -279 43q-151 0 -210.5 -39.5t-59.5 -132.5q0 -48 21 -74.5t86 -47.5t200 -43l52 -9q108 -18 179.5 -44t112.5 -65t57.5 -86t16.5 -114v-8q0 -69 -22 -118t-75.5 -86t-149 -55 t-236.5 -18q-157 0 -305 37q-59 14 -82 41t-23 84zM446 -242q0 95 82 95h21q38 0 59 -22.5t21 -80.5q0 -146 -51 -262q-10 -23 -21.5 -30t-34.5 -7h-28q-20 0 -25.5 6.5t0.5 28.5q27 82 35 201q-29 3 -43.5 19t-14.5 52z" />
<glyph unicode="&#x21a;" horiz-adv-x="1482" d="M70 1149v244q0 50 18.5 66t75.5 16h1157q57 0 74.5 -16t17.5 -66v-244q0 -19 -13 -27t-54 -8q-42 0 -56 8t-14 27v211h-461v-1245h221q21 0 28 -11t7 -47t-7 -46.5t-28 -10.5h-585q-21 0 -28 10.5t-7 46.5t7 47t28 11h219v1245h-463v-211q0 -19 -13 -27t-55 -8t-55.5 8 t-13.5 27zM649 -242q0 95 82 95h21q38 0 58.5 -22t20.5 -81q0 -146 -51 -262q-10 -23 -21.5 -30t-33.5 -7h-29q-20 0 -25 6.5t1 28.5q27 82 35 201q-29 3 -43.5 19t-14.5 52z" />
<glyph unicode="&#x21b;" horiz-adv-x="858" d="M20 938q0 35 7 45t30 10h185v273q0 26 13 34.5t52 8.5q43 0 56.5 -8.5t13.5 -34.5v-273h332q23 0 29.5 -10t6.5 -45q0 -34 -6.5 -42.5t-29.5 -8.5h-332v-615q0 -99 40 -140.5t144 -41.5q81 0 184 29q20 5 29.5 -3t16.5 -40q7 -33 3 -43.5t-22 -16.5q-109 -41 -244 -41 q-160 0 -223 70.5t-63 212.5v629h-185q-24 0 -30.5 9t-6.5 42zM358 -242q0 95 82 95h21q38 0 59 -22.5t21 -80.5q0 -144 -52 -262q-10 -23 -21.5 -30t-33.5 -7h-28q-20 0 -25.5 6.5t0.5 28.5q27 82 35 201q-29 3 -43.5 19t-14.5 52z" />
<glyph unicode="&#x2c6;" horiz-adv-x="1024" d="M195 1132.5q2 7.5 10 18.5l188 238q38 46 57 57.5t56 11.5q38 0 59 -11.5t58 -57.5l188 -238q8 -11 10 -18.5t-3 -13t-19.5 -8t-38.5 -1.5q-42 0 -65.5 16.5t-59.5 65.5l-129 172l-125 -172q-36 -49 -59.5 -65.5t-65.5 -16.5q-24 -1 -38.5 1.5t-19.5 8t-3 13z" />
<glyph unicode="&#x2da;" horiz-adv-x="1024" d="M303 1303v12q0 93 57.5 142.5t153.5 49.5q95 0 151 -49.5t56 -142.5v-12q0 -91 -56 -140t-151 -49q-96 0 -153.5 49t-57.5 140zM410 1311q0 -111 104 -111q102 0 102 111q0 53 -27.5 81.5t-74.5 28.5t-75.5 -28.5t-28.5 -81.5z" />
<glyph unicode="&#x2dc;" horiz-adv-x="1024" d="M148 1220.5q-6 11.5 2 26.5q39 70 91 100.5t136 30.5q51 0 97 -18.5t72.5 -40.5t59 -40.5t60.5 -18.5q40 0 66.5 19t47.5 60q8 16 20.5 18.5t45.5 -9.5q24 -9 31.5 -20t-0.5 -30q-69 -139 -222 -139q-48 0 -91 18.5t-69.5 40t-59.5 40t-62 18.5q-42 0 -71.5 -18.5 t-59.5 -65.5q-17 -25 -64 2q-24 15 -30 26.5z" />
<glyph unicode="&#x394;" horiz-adv-x="1523" d="M127 55v43q0 29 14.5 78t25.5 77.5t40 100.5l426 1059q15 40 39 57t63 17h31q37 0 61 -16.5t41 -55.5l445 -1061q7 -18 23.5 -56.5t24.5 -58t18 -48t14 -50t4 -41.5v-45q0 -32 -17 -43.5t-63 -11.5h-1110q-46 0 -63 11.5t-17 43.5zM268 123h975l-399 973q-58 137 -80 282 h-29q-20 -114 -86 -288z" />
<glyph unicode="&#x3a9;" horiz-adv-x="1673" d="M172 57q0 36 7 47t28 11h352v20q-377 151 -377 633v51q0 317 171 498.5t481 181.5q311 0 482 -181.5t171 -498.5v-51q0 -470 -377 -633v-20h356q21 0 28 -11t7 -47t-7 -46.5t-28 -10.5h-383q-59 0 -79.5 14t-20.5 49v46q0 37 12 56.5t54 49.5q157 109 220.5 235t63.5 318 v33q0 139 -25.5 243t-82 182t-154.5 118t-237 40t-237 -40.5t-154.5 -119t-81.5 -182t-25 -241.5v-33q0 -190 63 -320t219 -237q42 -29 54 -48.5t12 -56.5v-43q0 -35 -20.5 -49t-79.5 -14h-377q-21 0 -28 10.5t-7 46.5z" />
<glyph unicode="&#x3bc;" horiz-adv-x="1337" d="M41 930q0 36 14.5 49.5t50.5 13.5h125q41 0 59.5 -17t18.5 -61v-473q0 -200 72 -278t252 -78q164 0 254 95t90 265v402q0 20 -7.5 27.5t-27.5 7.5h-65q-33 0 -33 47q0 36 14 49.5t49 13.5h127q41 0 59.5 -17t18.5 -61v-751q0 -33 14 -45.5t56 -12.5h26q22 0 28.5 -9 t6.5 -42q0 -34 -6.5 -44.5t-28.5 -10.5h-53q-78 0 -121.5 32t-58.5 103h-27q-53 -82 -134 -121t-212 -39q-242 0 -309 111h-25q41 -116 41 -254v-262q0 -22 -13.5 -28.5t-53.5 -6.5t-54 6.5t-14 28.5v1278q0 20 -6.5 27.5t-28.5 7.5h-65q-33 0 -33 47z" />
<glyph unicode="&#x3c0;" horiz-adv-x="1329" d="M45 938q0 35 7 45t28 10h1116q21 0 28 -10t7 -45t-7 -45t-28 -10h-188v-682q0 -55 19 -73.5t75 -18.5h26q21 0 28 -9.5t7 -44.5t-7 -44t-28 -9h-47q-111 0 -160 38t-49 150v693h-516v-860q0 -21 -16.5 -28t-50.5 -7t-51 7t-17 28v860h-141q-21 0 -28 10t-7 45z" />
<glyph unicode="&#x1e80;" horiz-adv-x="2406" d="M25 1417q0 36 6.5 47t27.5 11h555q21 0 28 -11t7 -47t-7 -46.5t-28 -10.5h-262l258 -881q68 -218 97 -383h24q25 163 96 387l267 820q17 51 38.5 68.5t63.5 17.5h49q44 0 67.5 -17.5t41.5 -71.5l243 -817q72 -240 93 -387h24q26 173 92 383l260 881h-260 q-21 0 -27.5 10.5t-6.5 46.5t6.5 47t27.5 11h541q21 0 28 -11t7 -47t-7 -46.5t-28 -10.5h-137l-383 -1284q-16 -54 -38 -71t-63 -17h-49q-40 0 -63.5 19t-38.5 65l-270 891q-53 170 -76 307h-25q-28 -162 -76 -312l-288 -886q-14 -46 -36 -65t-54 -19h-74q-41 0 -64 18.5 t-37 69.5l-382 1284h-134q-21 0 -27.5 10.5t-6.5 46.5zM898 1913q23 14 69 14q52 0 84 -9t59 -32l283 -237q27 -23 -1 -39q-18 -11 -53 -11q-68 0 -112 35l-328 242q-27 20 -1 37z" />
<glyph unicode="&#x1e81;" horiz-adv-x="1669" d="M25 938q0 35 5.5 45t28.5 10h361q23 0 29 -10t6 -45t-6 -45t-29 -10h-135l172 -584q30 -96 45 -195h20q18 100 49 197l172 578q9 26 25.5 35.5t50.5 9.5h51q35 0 51 -8.5t25 -34.5l170 -580q35 -130 45 -197h23q7 61 45 199l168 580h-164q-23 0 -29 10t-6 45t6 45t29 10 h377q23 0 29 -10t6 -45t-6 -45t-29 -10h-80l-260 -850q-9 -26 -25.5 -35.5t-50.5 -9.5h-47q-34 0 -51.5 10.5t-26.5 36.5l-176 588q-31 106 -39 192h-23q-10 -108 -38 -194l-177 -586q-7 -27 -23.5 -37t-51.5 -10h-64q-32 0 -48.5 10.5t-27.5 34.5l-266 850h-76 q-23 0 -28.5 10t-5.5 45zM555 1417q-24 21 6 33q20 8 62 8q49 0 75.5 -8.5t49.5 -32.5l256 -272q20 -23 -16 -31q-14 -4 -36 -4q-59 0 -100 35z" />
<glyph unicode="&#x1e82;" horiz-adv-x="2406" d="M25 1417q0 36 6.5 47t27.5 11h555q21 0 28 -11t7 -47t-7 -46.5t-28 -10.5h-262l258 -881q68 -218 97 -383h24q25 163 96 387l267 820q17 51 38.5 68.5t63.5 17.5h49q44 0 67.5 -17.5t41.5 -71.5l243 -817q72 -240 93 -387h24q26 173 92 383l260 881h-260 q-21 0 -27.5 10.5t-6.5 46.5t6.5 47t27.5 11h541q21 0 28 -11t7 -47t-7 -46.5t-28 -10.5h-137l-383 -1284q-16 -54 -38 -71t-63 -17h-49q-40 0 -63.5 19t-38.5 65l-270 891q-53 170 -76 307h-25q-28 -162 -76 -312l-288 -886q-14 -46 -36 -65t-54 -19h-74q-41 0 -64 18.5 t-37 69.5l-382 1284h-134q-21 0 -27.5 10.5t-6.5 46.5zM1041.5 1618.5q0.5 9.5 9.5 19.5l274 244q44 41 129 41q56 0 69 -24q7 -14 -10 -27l-311 -242q-43 -35 -106 -35q-26 0 -40.5 7t-14 16.5z" />
<glyph unicode="&#x1e83;" horiz-adv-x="1669" d="M25 938q0 35 5.5 45t28.5 10h361q23 0 29 -10t6 -45t-6 -45t-29 -10h-135l172 -584q30 -96 45 -195h20q18 100 49 197l172 578q9 26 25.5 35.5t50.5 9.5h51q35 0 51 -8.5t25 -34.5l170 -580q35 -130 45 -197h23q7 61 45 199l168 580h-164q-23 0 -29 10t-6 45t6 45t29 10 h377q23 0 29 -10t6 -45t-6 -45t-29 -10h-80l-260 -850q-9 -26 -25.5 -35.5t-50.5 -9.5h-47q-34 0 -51.5 10.5t-26.5 36.5l-176 588q-31 106 -39 192h-23q-10 -108 -38 -194l-177 -586q-7 -27 -23.5 -37t-51.5 -10h-64q-32 0 -48.5 10.5t-27.5 34.5l-266 850h-76 q-23 0 -28.5 10t-5.5 45zM670 1132q2 6 8 13l248 272q21 24 45 32.5t76 8.5q64 0 67 -24q1 -8 -8 -17l-287 -272q-38 -35 -94 -35q-59 0 -55 22z" />
<glyph unicode="&#x1e84;" horiz-adv-x="2406" d="M25 1417q0 36 6.5 47t27.5 11h555q21 0 28 -11t7 -47t-7 -46.5t-28 -10.5h-262l258 -881q68 -218 97 -383h24q25 163 96 387l267 820q17 51 38.5 68.5t63.5 17.5h49q44 0 67.5 -17.5t41.5 -71.5l243 -817q72 -240 93 -387h24q26 173 92 383l260 881h-260 q-21 0 -27.5 10.5t-6.5 46.5t6.5 47t27.5 11h541q21 0 28 -11t7 -47t-7 -46.5t-28 -10.5h-137l-383 -1284q-16 -54 -38 -71t-63 -17h-49q-40 0 -63.5 19t-38.5 65l-270 891q-53 170 -76 307h-25q-28 -162 -76 -312l-288 -886q-14 -46 -36 -65t-54 -19h-74q-41 0 -64 18.5 t-37 69.5l-382 1284h-134q-21 0 -27.5 10.5t-6.5 46.5zM858 1757q0 96 88 96h37q42 0 64 -21.5t22 -74.5q0 -54 -15 -72t-55 -18h-71q-40 0 -55 18t-15 72zM1366 1757q0 96 90 96h35q44 0 65 -21.5t21 -74.5q0 -54 -14.5 -72t-53.5 -18h-73q-39 0 -54.5 18.5t-15.5 71.5z " />
<glyph unicode="&#x1e85;" horiz-adv-x="1669" d="M25 938q0 35 5.5 45t28.5 10h361q23 0 29 -10t6 -45t-6 -45t-29 -10h-135l172 -584q30 -96 45 -195h20q18 100 49 197l172 578q9 26 25.5 35.5t50.5 9.5h51q35 0 51 -8.5t25 -34.5l170 -580q35 -130 45 -197h23q7 61 45 199l168 580h-164q-23 0 -29 10t-6 45t6 45t29 10 h377q23 0 29 -10t6 -45t-6 -45t-29 -10h-80l-260 -850q-9 -26 -25.5 -35.5t-50.5 -9.5h-47q-34 0 -51.5 10.5t-26.5 36.5l-176 588q-31 106 -39 192h-23q-10 -108 -38 -194l-177 -586q-7 -27 -23.5 -37t-51.5 -10h-64q-32 0 -48.5 10.5t-27.5 34.5l-266 850h-76 q-23 0 -28.5 10t-5.5 45zM537 1262q0 90 81 90h23q40 0 61 -20t21 -70t-15 -68t-53 -18h-53q-36 0 -50.5 18t-14.5 68zM965 1262q0 90 82 90h22q40 0 61 -20t21 -70t-15 -68t-53 -18h-53q-36 0 -50.5 18t-14.5 68z" />
<glyph unicode="&#x1ef2;" horiz-adv-x="1523" d="M33 1417q0 36 7 47t28 11h473q21 0 27.5 -11t6.5 -47t-6.5 -46.5t-27.5 -10.5h-201l299 -479q69 -111 117 -240h24q52 136 119 240l305 479h-233q-21 0 -28 10.5t-7 46.5t7 47t28 11h481q21 0 28 -11t7 -47t-7 -46.5t-28 -10.5h-106l-508 -815v-430h209q21 0 27.5 -11 t6.5 -47t-6.5 -46.5t-27.5 -10.5h-566q-21 0 -28 10.5t-7 46.5t7 47t28 11h211v426l-520 819h-104q-21 0 -28 10.5t-7 46.5zM470 1913q23 14 69 14q52 0 84 -9t59 -32l283 -237q27 -23 -1 -39q-18 -11 -53 -11q-68 0 -112 35l-328 242q-27 20 -1 37z" />
<glyph unicode="&#x1ef3;" horiz-adv-x="1208" d="M26.5 -428q-1.5 11 12.5 47q18 45 49 33q77 -29 154 -29q99 0 151.5 49.5t126.5 208.5l49 105q-18 0 -28 22l-410 875h-70q-23 0 -28.5 10t-5.5 45t5.5 45t28.5 10h361q23 0 29 -10t6 -45t-6 -45t-29 -10h-146l283 -594q44 -86 57 -187h23q20 110 55 187l260 594h-155 q-23 0 -29 10t-6 45t6 45t29 10h350q23 0 29 -10t6 -45t-6 -45t-29 -10h-64l-464 -1061q-43 -97 -80 -155t-83 -91.5t-95.5 -45t-124.5 -11.5q-108 0 -195 35q-15 7 -16.5 18zM303 1417q-24 21 6 33q20 8 62 8q49 0 75.5 -8.5t49.5 -32.5l256 -272q20 -23 -16 -31 q-14 -4 -36 -4q-59 0 -100 35z" />
<glyph unicode="&#x2000;" horiz-adv-x="1174" />
<glyph unicode="&#x2001;" horiz-adv-x="2349" />
<glyph unicode="&#x2002;" horiz-adv-x="1174" />
<glyph unicode="&#x2003;" horiz-adv-x="2349" />
<glyph unicode="&#x2004;" horiz-adv-x="783" />
<glyph unicode="&#x2005;" horiz-adv-x="587" />
<glyph unicode="&#x2006;" horiz-adv-x="391" />
<glyph unicode="&#x2007;" horiz-adv-x="391" />
<glyph unicode="&#x2008;" horiz-adv-x="293" />
<glyph unicode="&#x2009;" horiz-adv-x="469" />
<glyph unicode="&#x200a;" horiz-adv-x="130" />
<glyph unicode="&#x2010;" horiz-adv-x="604" d="M82 514q0 33 6 43t29 10h370q23 0 29 -10t6 -43q0 -32 -6.5 -43.5t-28.5 -11.5h-370q-22 0 -28.5 11.5t-6.5 43.5z" />
<glyph unicode="&#x2011;" horiz-adv-x="604" d="M82 514q0 33 6 43t29 10h370q23 0 29 -10t6 -43q0 -32 -6.5 -43.5t-28.5 -11.5h-370q-22 0 -28.5 11.5t-6.5 43.5z" />
<glyph unicode="&#x2012;" horiz-adv-x="604" d="M82 514q0 33 6 43t29 10h370q23 0 29 -10t6 -43q0 -32 -6.5 -43.5t-28.5 -11.5h-370q-22 0 -28.5 11.5t-6.5 43.5z" />
<glyph unicode="&#x2013;" horiz-adv-x="888" d="M0 618q0 32 6.5 42t26.5 10h823q19 0 26 -10t7 -42q0 -31 -7 -42t-26 -11h-823q-20 0 -26.5 11t-6.5 42z" />
<glyph unicode="&#x2014;" horiz-adv-x="1912" d="M0 618q0 32 6.5 42t26.5 10h1847q19 0 26 -10t7 -42q0 -31 -7 -42t-26 -11h-1847q-20 0 -26.5 11t-6.5 42z" />
<glyph unicode="&#x2018;" horiz-adv-x="520" d="M147 1157q0 164 62 285q14 28 25 36.5t38 8.5h37q40 0 27 -43q-35 -104 -41 -213q34 -8 49.5 -26.5t15.5 -59.5q0 -61 -24.5 -85t-73.5 -24h-18q-46 0 -71.5 25.5t-25.5 95.5z" />
<glyph unicode="&#x2019;" horiz-adv-x="518" d="M160 1378q0 61 24.5 85t73.5 24h18q46 0 70.5 -25t24.5 -96q0 -168 -60 -285q-14 -28 -25.5 -36.5t-39.5 -8.5h-35q-40 0 -27 43q31 92 41 213q-35 8 -50 26.5t-15 59.5z" />
<glyph unicode="&#x201a;" horiz-adv-x="518" d="M160 82q0 61 24.5 84.5t73.5 23.5h18q46 0 70.5 -25t24.5 -95q0 -168 -60 -285q-14 -28 -25.5 -36.5t-39.5 -8.5h-35q-40 0 -27 43q31 92 41 213q-35 8 -50 26.5t-15 59.5z" />
<glyph unicode="&#x201c;" horiz-adv-x="907" d="M147 1157q0 164 62 285q14 28 25 36.5t38 8.5h37q40 0 27 -43q-35 -104 -41 -213q34 -8 49.5 -26.5t15.5 -59.5q0 -61 -24.5 -85t-73.5 -24h-18q-46 0 -71.5 25.5t-25.5 95.5zM537 1157q0 170 59 285q14 28 26 36.5t40 8.5h34q40 0 27 -43q-31 -92 -41 -213 q35 -8 50.5 -26.5t15.5 -59.5q0 -61 -25 -85t-74 -24h-18q-45 0 -69.5 25t-24.5 96z" />
<glyph unicode="&#x201d;" horiz-adv-x="907" d="M160 1378q0 61 24.5 85t73.5 24h18q46 0 70.5 -25t24.5 -96q0 -168 -60 -285q-14 -28 -25.5 -36.5t-39.5 -8.5h-35q-40 0 -27 43q31 92 41 213q-35 8 -50 26.5t-15 59.5zM547 1378q0 61 24.5 85t73.5 24h19q46 0 71 -25.5t25 -95.5q0 -164 -62 -285q-14 -28 -25 -36.5 t-38 -8.5h-37q-40 0 -27 43q35 104 41 213q-34 8 -49.5 26.5t-15.5 59.5z" />
<glyph unicode="&#x201e;" horiz-adv-x="907" d="M160 82q0 61 24.5 84.5t73.5 23.5h18q46 0 70.5 -25t24.5 -95q0 -168 -60 -285q-14 -28 -25.5 -36.5t-39.5 -8.5h-35q-40 0 -27 43q31 92 41 213q-35 8 -50 26.5t-15 59.5zM547 82q0 61 24.5 84.5t73.5 23.5h19q46 0 71 -25t25 -95q0 -164 -62 -285q-14 -28 -25 -36.5 t-38 -8.5h-37q-40 0 -27 43q35 104 41 213q-34 8 -49.5 26.5t-15.5 59.5z" />
<glyph unicode="&#x2022;" horiz-adv-x="739" d="M168 670q0 108 47 147t139 39h33q91 0 137.5 -39t46.5 -147q0 -110 -31.5 -148.5t-113.5 -38.5h-111q-79 0 -113 39.5t-34 147.5z" />
<glyph unicode="&#x2026;" horiz-adv-x="1492" d="M147 90q0 59 25.5 82t73.5 23h22q48 0 72.5 -23t24.5 -82t-16.5 -80.5t-59.5 -21.5h-66q-41 0 -58.5 22t-17.5 80zM637 90q0 59 25 82t73 23h23q48 0 73 -23t25 -82t-17 -80.5t-61 -21.5h-63q-43 0 -60.5 22t-17.5 80zM1128 90q0 59 24.5 82t72.5 23h22q48 0 73.5 -23 t25.5 -82t-17 -80.5t-59 -21.5h-66q-42 0 -59 21.5t-17 80.5z" />
<glyph unicode="&#x202f;" horiz-adv-x="469" />
<glyph unicode="&#x2039;" horiz-adv-x="768" d="M172 487v41q0 29 8.5 49t30.5 48l262 323q13 18 33.5 24.5t60.5 6.5q42 0 49.5 -11.5t-14.5 -39.5l-326 -414l330 -412q24 -28 15 -40.5t-56 -12.5q-72 0 -98 33l-256 311q-22 27 -30.5 46.5t-8.5 47.5z" />
<glyph unicode="&#x203a;" horiz-adv-x="776" d="M146.5 61.5q-7.5 12.5 17.5 40.5l336 412l-326 414q-24 28 -15 40.5t56 12.5q70 0 98 -35l250 -311q23 -28 32 -47t9 -47v-41q0 -30 -9 -50.5t-32 -46.5l-270 -321q-15 -19 -35.5 -26t-58.5 -7q-45 0 -52.5 12.5z" />
<glyph unicode="&#x205f;" horiz-adv-x="587" />
<glyph unicode="&#x20ac;" horiz-adv-x="1429" d="M78 547q0 34 6 43.5t29 9.5h143q-10 113 -4 236h-105q-24 0 -30 9t-6 44t5.5 44t28.5 9h115q19 123 66.5 223t125 175.5t192 117t257.5 41.5q163 0 324 -53q69 -23 91.5 -52t22.5 -94v-149q0 -33 -13.5 -44t-57.5 -11q-42 0 -55 7.5t-13 26.5v205q-162 51 -307 51 q-420 0 -481 -444h579q23 0 29 -9.5t6 -43.5t-6.5 -43.5t-30.5 -9.5h-586q-2 -130 7 -236h548q23 0 29 -9.5t6 -43.5t-6.5 -43.5t-30.5 -9.5h-530q43 -202 171.5 -300t352.5 -98q131 0 295 45q20 6 29 -4t18 -47t5 -47t-29 -18q-165 -50 -332 -50q-573 0 -668 519h-153 q-24 0 -30.5 9.5t-6.5 43.5z" />
<glyph unicode="&#x2122;" horiz-adv-x="2260" d="M111 1264v145q0 39 14.5 52.5t60.5 13.5h688q45 0 59.5 -13.5t14.5 -52.5v-145q0 -25 -14 -32t-53 -7q-36 0 -49 7t-13 32v106h-219v-573h102q19 0 25 -11t6 -41q0 -31 -6 -42t-25 -11h-344q-20 0 -25 10.5t-5 42.5q0 22 1.5 31t8 15t20.5 6h103v573h-221v-106 q0 -25 -13.5 -32t-54.5 -7q-36 0 -48.5 7t-12.5 32zM969 745q0 30 5.5 41t24.5 11h66l74 575h-58q-21 0 -25.5 10t-4.5 43q0 21 1.5 30t8 14.5t20.5 5.5h226q50 0 69 -14t29 -50l119 -422q19 -80 24 -123h21q13 97 20 123l109 422q10 36 28.5 50t67.5 14h236q19 0 24.5 -10 t5.5 -40q0 -32 -5.5 -42.5t-24.5 -10.5h-62l74 -575h65q19 0 25 -11t6 -41q0 -31 -6 -42t-25 -11h-284q-19 0 -25 11t-6 42q0 30 6 41t25 11h69l-59 583h-29q-2 -37 -24 -133l-105 -405q-10 -41 -30 -55.5t-66 -14.5h-49q-45 0 -62 14.5t-30 57.5l-121 403q-23 81 -25 133 h-24l-62 -583h64q19 0 24.5 -11t5.5 -41q0 -31 -5.5 -42t-24.5 -11h-271q-19 0 -24.5 11t-5.5 42z" />
<glyph unicode="&#x25fc;" horiz-adv-x="993" d="M0 0v993h993v-993h-993z" />
<glyph unicode="&#xfb06;" horiz-adv-x="1914" d="M94 137v84q0 20 13.5 27.5t54.5 7.5q43 0 56 -8t13 -27v-94q142 -45 314 -45q176 0 239.5 38.5t63.5 131.5q0 59 -26.5 95.5t-96 62.5t-197.5 43l-59 8q-189 26 -267.5 89t-78.5 183v8q0 65 22.5 114.5t71.5 87.5t133.5 57.5t202.5 19.5q55 0 131 -12q-70 77 -70 190 q0 134 110.5 218.5t270.5 84.5q112 0 198 -38t138 -105t77.5 -152t25.5 -184v-29h331q23 0 30 -10t7 -45q0 -33 -6.5 -42t-30.5 -9h-331v-615q0 -99 40 -140.5t144 -41.5q81 0 184 29q20 5 29 -3t16 -40t3.5 -43t-21.5 -17q-109 -41 -244 -41q-83 0 -139.5 19t-88.5 57 t-45.5 88t-13.5 119v629h-184q-24 0 -30.5 9t-6.5 42q0 35 7 45t30 10h184v33q0 169 -77.5 268t-229.5 99q-108 0 -180 -57.5t-72 -157.5q0 -134 138 -213q36 -22 50.5 -43t14.5 -62v-78q0 -19 -12 -26.5t-53 -7.5q-40 0 -53 7.5t-13 26.5v90q-154 43 -279 43 q-151 0 -210.5 -39.5t-59.5 -132.5q0 -48 21 -74.5t86 -47.5t200 -43l52 -9q108 -18 179.5 -44t112.5 -65t57.5 -86t16.5 -114v-8q0 -69 -22 -118t-75.5 -86t-149 -55t-236.5 -18q-157 0 -305 37q-59 14 -82 41t-23 84z" />
</font>
</defs>
</svg>
