<?xml version="1.0" standalone="no"?>
<!DOCTYPE svg PUBLIC "-//W3C//DTD SVG 1.1//EN" "http://www.w3.org/Graphics/SVG/1.1/DTD/svg11.dtd" >
<svg xmlns="http://www.w3.org/2000/svg">
<metadata></metadata>
<defs>
<font id="fs_rufuslight_italic" horiz-adv-x="1261" >
<font-face units-per-em="2048" ascent="1536" descent="-512" />
<missing-glyph horiz-adv-x="368" />
<glyph unicode="&#xfb00;" horiz-adv-x="1490" d="M63 -434l261 1323h-172q-22 0 -26.5 9.5t1.5 41.5q7 35 15.5 44t31.5 9h170l10 49q43 206 131 304q119 131 369 131q187 0 365 -82q104 104 301 104q64 0 142 -16t122 -39q16 -8 17 -19.5t-15 -44.5q-13 -25 -23 -30t-24 2q-112 45 -230 45q-126 0 -193.5 -67.5 t-101.5 -223.5l-24 -113h268q21 0 25.5 -8t-0.5 -45q-6 -32 -14.5 -41.5t-30.5 -9.5h-267l-268 -1299q-5 -21 -20 -28.5t-54 -7.5q-37 0 -48.5 8t-8.5 28l268 1299h-585l-260 -1323q-5 -21 -20 -29t-54 -8q-37 0 -49 8.5t-9 28.5zM473 993h588l20 105q23 123 72 209 q-137 67 -307 67q-164 0 -248 -84q-75 -75 -113 -241z" />
<glyph unicode="&#xfb01;" horiz-adv-x="1300" d="M63 -434l261 1323h-172q-22 0 -26.5 9.5t1.5 41.5q7 35 15.5 44t31.5 9h170l6 29q56 254 173.5 365.5t330.5 111.5q150 0 260 -43q64 -25 85.5 -59.5t10.5 -93.5l-12 -68q-5 -25 -21.5 -34t-60.5 -9q-37 0 -49.5 8.5t-9.5 28.5l22 125q-117 43 -243 43q-146 0 -231 -85 t-122 -268l-10 -51h268q21 0 25.5 -8t-0.5 -45q-6 -32 -14.5 -41.5t-30.5 -9.5h-266l-260 -1323q-5 -21 -20 -29t-54 -8q-37 0 -49 8.5t-9 28.5zM864 104q0 14 6 48l136 700q3 19 -3.5 25t-29.5 6h-55q-37 0 -25 47q9 35 26 49t52 14h116q40 0 54.5 -17t5.5 -61l-143 -751 q-6 -34 4 -43.5t53 -9.5h45q19 0 24 -10.5t0 -45.5q-6 -34 -15 -44.5t-34 -10.5h-69q-81 0 -114.5 25t-33.5 79z" />
<glyph unicode="&#xfb02;" horiz-adv-x="1310" d="M63 -434l261 1323h-172q-22 0 -26.5 9.5t1.5 41.5q7 35 15.5 44t31.5 9h170l6 29q24 113 60 195t94.5 148.5t148 100t209.5 33.5q67 0 145 -16t132 -41t70 -55t5 -89l-217 -1134q-6 -34 4.5 -43.5t53.5 -9.5h45q19 0 24 -10.5t0 -45.5q-6 -34 -15 -44.5t-34 -10.5h-69 q-81 0 -114.5 25t-33.5 79q0 14 6 48l234 1198q-130 47 -254 47q-162 0 -244 -89t-117 -264l-10 -51h268q21 0 25.5 -8t-0.5 -45q-6 -32 -14.5 -41.5t-30.5 -9.5h-266l-260 -1323q-5 -21 -20 -29t-54 -8q-37 0 -49 8.5t-9 28.5z" />
<glyph unicode="&#xfb03;" horiz-adv-x="2017" d="M63 -434l261 1323h-172q-22 0 -26.5 9.5t1.5 41.5q7 35 15.5 44t31.5 9h170l10 49q43 206 131 304q119 131 369 131q199 0 383 -93q118 115 334 115q150 0 260 -43q64 -25 85.5 -59.5t10.5 -93.5l-12 -68q-5 -25 -21.5 -34t-60.5 -9q-37 0 -49.5 8.5t-9.5 28.5l22 125 q-117 43 -244 43q-146 0 -230.5 -85t-121.5 -268l-10 -51h268q21 0 25.5 -8t-0.5 -45q-6 -32 -14.5 -41.5t-30.5 -9.5h-267l-268 -1299q-5 -21 -20 -28.5t-54 -7.5q-37 0 -48.5 8t-8.5 28l268 1299h-585l-260 -1323q-5 -21 -20 -29t-54 -8q-37 0 -49 8.5t-9 28.5zM473 993 h588l6 29q38 172 100 276q-152 76 -321 76q-164 0 -248 -84q-75 -75 -113 -241zM1581 104q0 14 6 48l135 700q3 19 -3 25t-29 6h-56q-36 0 -24 47q9 35 26 49t52 14h116q40 0 54.5 -17t5.5 -61l-144 -751q-6 -34 4.5 -43.5t53.5 -9.5h45q19 0 24 -10.5t0 -45.5 q-6 -34 -15 -44.5t-34 -10.5h-69q-81 0 -114.5 25t-33.5 79z" />
<glyph unicode="&#xfb04;" horiz-adv-x="2027" d="M63 -434l261 1323h-172q-22 0 -26.5 9.5t1.5 41.5q7 35 15.5 44t31.5 9h170l10 49q43 206 131 304q119 131 369 131q203 0 385 -95q123 117 340 117q67 0 144.5 -16t131.5 -41t70 -55.5t6 -88.5l-217 -1134q-6 -34 4.5 -43.5t53.5 -9.5h45q19 0 24 -10.5t0 -45.5 q-6 -34 -15 -44.5t-34 -10.5h-70q-81 0 -114 25t-33 79q0 14 6 48l234 1198q-130 47 -254 47q-159 0 -243 -89.5t-118 -263.5l-10 -51h268q21 0 25.5 -8t-0.5 -45q-6 -32 -14.5 -41.5t-30.5 -9.5h-267l-268 -1299q-5 -21 -20 -28.5t-54 -7.5q-37 0 -48.5 8t-8.5 28l268 1299 h-585l-260 -1323q-5 -21 -20 -29t-54 -8q-37 0 -49 8.5t-9 28.5zM473 993h588l6 29q37 171 102 276q-146 76 -323 76q-164 0 -248 -84q-75 -75 -113 -241z" />
<glyph horiz-adv-x="2048" />
<glyph horiz-adv-x="2048" />
<glyph unicode="&#xd;" horiz-adv-x="2048" />
<glyph unicode=" "  horiz-adv-x="368" />
<glyph unicode="&#x09;" horiz-adv-x="368" />
<glyph unicode="&#xa0;" horiz-adv-x="368" />
<glyph unicode="!" horiz-adv-x="753" d="M152 57q0 64 31 100t83 36h25q86 0 86 -80q0 -64 -23 -93.5t-71 -29.5h-64q-36 0 -51.5 15.5t-15.5 51.5zM272 451l170 995q4 23 23 32t63 9q45 0 61 -9.5t11 -31.5l-217 -995q-6 -31 -61 -31q-29 0 -40.5 8.5t-9.5 22.5z" />
<glyph unicode="&#x22;" horiz-adv-x="1026" d="M227 924l86 534q3 21 19 29t59 8q40 0 53.5 -9t10.5 -28l-119 -534q-3 -15 -16.5 -22t-47.5 -7q-28 0 -38 7t-7 22zM715 924l86 534q3 21 19 29t59 8q40 0 53 -9t10 -28l-119 -534q-3 -15 -16 -22t-47 -7q-28 0 -38 7t-7 22z" />
<glyph unicode="#" horiz-adv-x="1525" d="M59.5 385q-4.5 12 1.5 47q7 34 16 45.5t27 11.5h187l176 484h-174q-18 0 -22.5 12t1.5 47q7 35 16 46.5t27 11.5h193l135 368q6 15 21.5 21t54.5 6q33 0 42 -7t3 -26l-131 -362h508l135 368q5 14 20.5 20.5t53.5 6.5q33 0 43 -7t4 -26l-131 -362h186q18 0 22.5 -12.5 t-1.5 -47.5q-7 -34 -16 -45.5t-27 -11.5h-207l-176 -484h194q18 0 22.5 -12t-1.5 -47q-7 -34 -16 -45.5t-27 -11.5h-213l-132 -361q-5 -15 -19 -20.5t-56 -5.5q-35 0 -43 5.5t-2 24.5l129 357h-508l-131 -361q-5 -15 -19.5 -20.5t-56.5 -5.5q-35 0 -44 5.5t-3 24.5l129 357 h-168q-18 0 -22.5 12zM416 489h506l178 484h-508z" />
<glyph unicode="$" horiz-adv-x="1366" d="M102 201l21 106q5 26 21.5 35.5t64.5 9.5q34 0 45.5 -8t7.5 -29l-33 -174q160 -41 353 -41q231 0 330.5 85t99.5 245q0 56 -12 94t-45.5 72.5t-97 58.5t-163.5 43l-76 15q-186 35 -258.5 113.5t-72.5 236.5q0 181 123.5 292.5t357.5 129.5l29 133q5 20 20 28.5t53 8.5 q37 0 51 -9t11 -28l-27 -131q133 -6 256 -47q71 -24 96 -61t13 -109l-10 -66q-5 -29 -20.5 -38t-63.5 -9q-36 0 -46.5 8t-5.5 31l23 125q-152 57 -320 57q-207 0 -307 -80t-100 -221q0 -60 10.5 -96t44 -64.5t86.5 -46t148 -36.5l82 -17q195 -39 278.5 -127.5t83.5 -243.5 q0 -77 -15.5 -140.5t-53 -120t-96 -96.5t-148.5 -66t-207 -33l-33 -154q-5 -20 -20.5 -28.5t-53.5 -8.5q-37 0 -50.5 9t-10.5 28l31 150q-149 0 -275 28q-81 19 -108.5 61t-10.5 126z" />
<glyph unicode="%" horiz-adv-x="1976" d="M143 1008q0 217 124 348t315 131q156 0 238.5 -83.5t82.5 -244.5q0 -210 -121.5 -344.5t-320.5 -134.5q-157 0 -237.5 83t-80.5 245zM262 1008q0 -238 213 -238q137 0 223 105t86 280q0 117 -54 179.5t-163 62.5q-137 0 -221 -109.5t-84 -279.5zM310.5 -0.5 q-10.5 11.5 6.5 31.5l1213 1429q24 27 96 27q34 0 44.5 -12t-5.5 -31l-1212 -1430q-23 -26 -97 -26q-35 0 -45.5 11.5zM1073 315q0 218 123.5 349t314.5 131q156 0 239 -84t83 -244q0 -210 -121.5 -344.5t-320.5 -134.5q-157 0 -237.5 82.5t-80.5 244.5zM1192 315 q0 -237 213 -237q137 0 223 105t86 280q0 117 -54 179.5t-163 62.5q-137 0 -221 -109.5t-84 -280.5z" />
<glyph unicode="&#x26;" horiz-adv-x="1683" d="M86 342q0 158 87.5 269.5t256.5 148.5l4 22q-151 63 -151 277q0 97 34 175.5t104 138.5t185 93t268 33q167 0 308 -53q71 -26 91.5 -58.5t8.5 -99.5l-25 -127q-6 -30 -18.5 -37.5t-56.5 -7.5q-36 0 -46.5 8t-7.5 29l35 184q-156 54 -321 54q-220 0 -319 -82t-99 -240 q0 -126 58 -191t155 -65q20 0 25.5 -11t1.5 -46q-3 -28 -13 -37.5t-35 -9.5q-178 0 -282.5 -95t-104.5 -260q0 -139 91 -203.5t290 -64.5q244 0 355.5 87t111.5 257q0 97 -41.5 158.5t-138.5 97.5q-26 9 -31.5 22t2.5 48q6 35 14 45t31 10h328q156 0 216.5 43t60.5 147 q0 23 11.5 30.5t51.5 12.5q43 5 58.5 -2t15.5 -30q0 -157 -102 -234.5t-326 -77.5h-121l-4 -18q115 -65 115 -236q0 -214 -161.5 -342.5t-473.5 -128.5q-254 0 -375 96t-121 271z" />
<glyph unicode="'" horiz-adv-x="538" d="M227 924l86 534q3 21 19 29t59 8q40 0 53.5 -9t10.5 -28l-119 -534q-3 -15 -16.5 -22t-47.5 -7q-28 0 -38 7t-7 22z" />
<glyph unicode="(" horiz-adv-x="729" d="M123 131q0 212 59 510l19 94q42 218 93.5 383t108 275.5t124.5 179t139.5 98t156.5 29.5h17q19 0 24 -9.5t0 -41.5q-6 -33 -15 -42.5t-30 -9.5h-16q-67 0 -129.5 -44.5t-125.5 -143t-121 -275.5t-105 -421l-15 -76q-57 -301 -57 -504q0 -375 211 -375h12q22 0 27.5 -9.5 t-0.5 -41.5t-15 -41.5t-34 -9.5h-19q-309 0 -309 475z" />
<glyph unicode=")" horiz-adv-x="743" d="M-135 -293q4 32 12.5 41.5t30.5 9.5h24q316 0 482 867l14 75q70 363 70 566q0 177 -52 254t-155 77h-15q-19 0 -23 10t3 44q6 31 14 40t27 9h20q154 0 229 -105.5t75 -324.5q0 -241 -68 -578l-18 -90q-56 -271 -121 -456t-144 -292t-165.5 -152.5t-196.5 -45.5h-19 q-19 0 -23.5 9.5t-0.5 41.5z" />
<glyph unicode="*" horiz-adv-x="950" d="M193 903q-23 47 2 62l122 67q70 41 142 53l2 17q-60 22 -107 55l-106 72q-21 14 12 59t57 29l109 -76q46 -30 82 -78l14 8q-3 71 8 132l29 151q3 17 18 23t44 6q26 0 37 -6t8 -23l-29 -151q-12 -67 -45 -129l16 -11q45 48 113 86l127 68q16 8 25.5 0t23.5 -35 q22 -45 -2 -59l-123 -68q-60 -34 -143 -53l-4 -21q54 -12 106 -49l109 -78q13 -12 10 -24t-21 -35q-19 -24 -31.5 -30.5t-29.5 3.5l-106 80q-49 36 -78 78l-17 -10q8 -56 -6 -131l-26 -148q-4 -28 -58 -28q-30 0 -41.5 5.5t-7.5 22.5l27 150q9 51 41 127l-15 10 q-51 -51 -110 -84l-129 -70q-16 -8 -26 -0.5t-23 33.5z" />
<glyph unicode="+" horiz-adv-x="1366" d="M119.5 688q-4.5 12 1.5 47q7 35 16 46.5t27 11.5h469l96 491q5 22 19 30.5t51 8.5t49.5 -9t9.5 -30l-94 -491h467q17 0 21.5 -12.5t-1.5 -47.5q-7 -34 -16 -45.5t-27 -11.5h-469l-96 -488q-3 -19 -19 -27.5t-55 -8.5q-35 0 -46.5 8t-8.5 28l94 488h-467q-17 0 -21.5 12z " />
<glyph unicode="," horiz-adv-x="555" d="M53 -248q60 114 97 240q-58 11 -58 67q0 62 34 99t91 37h12q84 0 84 -80q0 -65 -39 -174.5t-94 -196.5q-22 -37 -61 -37h-41q-48 0 -25 45z" />
<glyph unicode="-" horiz-adv-x="694" d="M113 473q-5 12 2 41q8 34 15.5 44.5t29.5 10.5h356q20 0 24.5 -12t-1.5 -43q-5 -31 -13 -42t-30 -11h-357q-21 0 -26 12z" />
<glyph unicode="." horiz-adv-x="544" d="M78 57q0 64 31.5 100t83.5 36h24q86 0 86 -80q0 -64 -23 -93.5t-71 -29.5h-64q-36 0 -51.5 15.5t-15.5 51.5z" />
<glyph unicode="/" horiz-adv-x="1284" d="M-134.5 -334q-0.5 7 3.5 15l1255 1853q17 27 90 27q25 0 39.5 -4.5t16.5 -11.5t-2 -15l-1256 -1854q-17 -26 -90 -26q-27 0 -41.5 4.5t-15 11.5z" />
<glyph unicode="0" horiz-adv-x="1402" d="M123 549q0 114 17.5 225.5t52 219t91.5 198t130 160t173.5 108.5t217.5 39q475 0 475 -571q0 -278 -81.5 -493.5t-237.5 -337.5t-365 -122q-241 0 -357 141t-116 433zM266 553q0 -245 85.5 -355t258.5 -110q226 0 376.5 230.5t150.5 599.5q0 236 -90 352t-261 116 q-150 0 -269 -109t-185 -299t-66 -425z" />
<glyph unicode="1" horiz-adv-x="1288" d="M156 11.5q-5 11.5 2 45.5t17.5 46t29.5 12h338l196 1003q22 113 70 252h-27l-456 -350q-27 -20 -60 29q-19 25 -20 39t14 26l391 301q75 60 137 60h66q53 0 70 -17.5t8 -66.5l-250 -1276h305q21 0 26.5 -12t-1.5 -46t-17 -45.5t-30 -11.5h-783q-21 0 -26 11.5z" />
<glyph unicode="2" horiz-adv-x="1380" d="M68 61l10 60q12 69 131 153l541 390q121 87 189 145t110 114.5t54.5 106t12.5 121.5q0 123 -83.5 179t-266.5 56q-65 0 -150.5 -15t-154.5 -38l-41 -207q-5 -22 -21.5 -30.5t-56.5 -8.5q-37 0 -50.5 9t-8.5 30l28 150q14 73 54 118t114 66q136 39 322 39q250 0 355.5 -79 t105.5 -261q0 -78 -18 -141.5t-65.5 -134t-130.5 -147t-212 -169.5l-381 -276q-111 -83 -232 -137l-4 -27h856q21 0 26 -12t-1 -56q-6 -34 -16 -46.5t-33 -12.5h-895q-57 0 -75.5 13.5t-12.5 47.5z" />
<glyph unicode="3" horiz-adv-x="1398" d="M96 184l21 119q3 22 20 31.5t60 9.5q39 0 53 -9t10 -32l-31 -178q122 -29 281 -29q263 0 382.5 87.5t119.5 258.5q0 128 -80.5 195.5t-267.5 67.5h-191q-18 0 -22.5 12t0.5 47q6 33 15.5 43t29.5 10h170q202 0 317 89t115 251q0 117 -76.5 170t-241.5 53q-168 0 -293 -37 l-28 -151q-4 -23 -19.5 -31t-52.5 -8q-48 0 -62 9t-8 38l17 82q16 82 52 120t103 58q134 39 338 39q203 0 311.5 -86.5t108.5 -249.5q0 -133 -82.5 -242.5t-224.5 -136.5l-6 -26q117 -32 172 -107.5t55 -197.5q0 -222 -173.5 -350t-518.5 -128q-170 0 -276 29q-68 19 -89 58 t-8 122z" />
<glyph unicode="4" horiz-adv-x="1368" d="M94 520l8 35q6 30 27.5 61t108.5 132l604 706q26 33 102 33q27 0 42.5 -6t16 -15.5t-7.5 -21.5l-589 -692q-72 -84 -170 -148l-5 -18h650l61 319q5 21 21.5 30t58.5 9q36 0 50 -10t11 -29l-63 -319h199q18 0 22.5 -11.5t-0.5 -48.5q-6 -33 -16 -44t-31 -11h-197l-69 -356 h170q21 0 26 -12t-2 -46t-17 -45.5t-30 -11.5h-565q-21 0 -26.5 11.5t1.5 45.5t17.5 46t29.5 12h256l70 356h-682q-55 0 -72 12t-10 37z" />
<glyph unicode="5" horiz-adv-x="1396" d="M88 188l21 101q6 29 24.5 39t65.5 10q40 0 52 -8t7 -31l-35 -174q126 -29 287 -29q268 0 392 94.5t124 282.5q0 150 -83.5 217.5t-274.5 67.5q-112 0 -214 -19.5t-122 -19.5q-58 0 -73.5 17.5t-6.5 64.5l115 592q9 48 30.5 65t77.5 17h780q49 0 67 -20t9 -66l-37 -191 q-3 -20 -19 -29.5t-58 -9.5q-38 0 -51.5 9.5t-10.5 29.5l33 164h-688l-99 -518q138 33 283 33q259 0 375.5 -96t116.5 -294q0 -114 -40 -205.5t-122.5 -161t-219.5 -107.5t-321 -38q-159 0 -272 29q-73 20 -100.5 64.5t-12.5 119.5z" />
<glyph unicode="6" horiz-adv-x="1390" d="M160 457q0 232 76 453t217 364q219 225 536 225q90 0 187 -20q82 -19 113 -58.5t20 -109.5l-11 -66q-5 -28 -20 -37.5t-57 -9.5q-45 0 -58 9t-10 32l21 123q-89 29 -211 29q-229 0 -395.5 -166t-231.5 -477h22q89 75 184.5 106t233.5 31q426 0 426 -385 q0 -230 -151.5 -377.5t-397.5 -147.5q-249 0 -371 118t-122 364zM307 475q0 -202 83 -294.5t265 -92.5q185 0 291.5 108t106.5 291q0 140 -77.5 207.5t-242.5 67.5q-240 0 -416 -123q-10 -71 -10 -164z" />
<glyph unicode="7" horiz-adv-x="1335" d="M186 1104l56 282q11 53 33 71t79 18h875q53 0 68 -12t12 -48l-2 -22q-5 -67 -95 -181l-643 -841q-68 -89 -92 -135t-35 -101l-20 -106q-5 -21 -22 -30t-60 -9q-36 0 -51 10t-10 29l24 114q17 78 48.5 141t94.5 146l523 684q88 116 205 227l4 21h-807l-54 -258 q-4 -21 -20 -29t-53 -8q-35 0 -48 9t-10 28z" />
<glyph unicode="8" horiz-adv-x="1400" d="M111 338q0 162 90.5 273t261.5 147l6 26q-84 22 -128 94t-44 187q0 204 140.5 319t406.5 115q446 0 446 -319q0 -150 -82.5 -258.5t-218.5 -137.5l-6 -26q234 -59 234 -314q0 -213 -153.5 -341t-436.5 -128q-255 0 -385.5 91t-130.5 272zM258 354q0 -139 86.5 -202.5 t288.5 -63.5q436 0 436 342q0 139 -82.5 208t-263.5 69q-220 0 -342.5 -96t-122.5 -257zM444 1071q0 -128 69 -193t220 -65q191 0 300.5 96.5t109.5 247.5q0 121 -74.5 175t-241.5 54q-190 0 -286.5 -80.5t-96.5 -234.5z" />
<glyph unicode="9" horiz-adv-x="1378" d="M84 170l18 88q5 27 20 37t58 10q41 0 56 -9.5t10 -31.5l-27 -141q112 -33 250 -33q228 0 385.5 168t218.5 485h-22q-85 -72 -179 -102.5t-229 -30.5q-418 0 -418 389q0 217 148 358.5t395 141.5q238 0 360.5 -119.5t122.5 -359.5q0 -281 -101 -525t-263 -372 q-188 -148 -434 -148q-145 0 -252 29q-76 22 -103 60t-14 106zM375 1010q0 -138 71.5 -209.5t241.5 -71.5q236 0 406 131q10 69 10 150q0 379 -342 379q-180 0 -283.5 -105t-103.5 -274z" />
<glyph unicode=":" horiz-adv-x="612" d="M78 57q0 64 31.5 100t83.5 36h24q86 0 86 -80q0 -64 -23 -93.5t-71 -29.5h-64q-36 0 -51.5 15.5t-15.5 51.5zM227 870q0 64 31.5 100t83.5 36h25q86 0 86 -80q0 -123 -95 -123h-63q-36 0 -52 15.5t-16 51.5z" />
<glyph unicode=";" horiz-adv-x="604" d="M53 -248q60 114 97 240q-58 11 -58 67q0 62 34 99t91 37h12q84 0 84 -80q0 -65 -39 -174.5t-94 -196.5q-22 -37 -61 -37h-41q-48 0 -25 45zM240 870q0 64 31 100t83 36h25q86 0 86 -80q0 -64 -23 -93.5t-71 -29.5h-64q-36 0 -51.5 15.5t-15.5 51.5z" />
<glyph unicode="&#x3c;" horiz-adv-x="1368" d="M205 713l10 41q9 49 68 84l893 536q21 13 35 7t32 -38q16 -30 14 -45t-22 -26l-922 -541l723 -553q14 -10 11.5 -23t-25.5 -42q-24 -30 -37 -35t-27 8l-716 539q-49 37 -37 88z" />
<glyph unicode="=" horiz-adv-x="1366" d="M66 423q-4 11 2 46q7 34 16 44.5t27 10.5h1067q18 0 22 -11t-2 -46q-7 -34 -16 -44.5t-27 -10.5h-1067q-18 0 -22 11zM168 955q-4 11 2 46q7 34 16 45t27 11h1067q18 0 22 -11.5t-2 -46.5q-7 -34 -16 -44.5t-27 -10.5h-1067q-18 0 -22 11z" />
<glyph unicode="&#x3e;" horiz-adv-x="1366" d="M164.5 178q1.5 15 23.5 27l926 543l-713 546q-13 8 -10 21.5t25 40.5q25 29 38 33.5t25 -7.5l707 -530q49 -37 37 -88l-11 -41q-6 -27 -20 -45t-47 -39l-895 -539q-25 -13 -40 -6.5t-30 35.5q-17 34 -15.5 49z" />
<glyph unicode="?" horiz-adv-x="1300" d="M195 1122l30 156q23 121 148 166q157 55 391 55q262 0 376.5 -75t114.5 -242q0 -129 -64.5 -218.5t-217.5 -172.5l-146 -78q-122 -65 -157.5 -99.5t-48.5 -103.5l-11 -53q-5 -21 -22 -29t-58 -8q-37 0 -50.5 9t-10.5 28l10 47q22 103 70 166.5t151 115.5l160 80 q147 74 196.5 138.5t49.5 175.5q0 103 -83 151.5t-284 48.5q-87 0 -188.5 -15t-179.5 -40l-37 -192q-6 -30 -23 -40t-61 -10q-37 0 -47.5 9t-7.5 30zM371 57q0 64 31 100t83 36h25q86 0 86 -80q0 -64 -23 -93.5t-71 -29.5h-64q-36 0 -51.5 15.5t-15.5 51.5z" />
<glyph unicode="@" horiz-adv-x="2109" d="M78 350q0 372 143 631.5t406.5 388.5t632.5 129q385 0 574 -166.5t189 -484.5q0 -359 -132 -556.5t-353 -197.5q-87 0 -149.5 34t-85.5 95h-29q-107 -129 -334 -129q-173 0 -265.5 93t-92.5 247q0 177 65 318.5t188.5 224t284.5 82.5q97 0 179.5 -33.5t111.5 -97.5h19 l16 73q5 24 17 33.5t42 9.5q26 0 35 -6.5t6 -23.5l-112 -584q-26 -132 4.5 -182.5t130.5 -50.5q62 0 121.5 43.5t107 122.5t76.5 203.5t29 273.5q0 559 -674 559q-506 0 -768 -270.5t-262 -761.5q0 -287 167.5 -445t499.5 -158q144 0 330 46q19 5 27 -1.5t14 -33.5 q7 -32 4.5 -42t-20.5 -16q-69 -23 -182 -39t-210 -16q-365 0 -558 180.5t-193 507.5zM715 455q0 -115 62.5 -184.5t185.5 -69.5q304 0 376 372l13 64q29 149 -37.5 232t-208.5 83q-173 0 -282 -136.5t-109 -360.5z" />
<glyph unicode="A" horiz-adv-x="1693" d="M-74 12q-2 5 -2 14q0 12 4 31q7 34 17.5 46t29.5 12h105l780 1288q29 49 53.5 66.5t61.5 17.5h31q40 0 62 -19.5t34 -68.5l301 -1284h113q21 0 26 -12q2 -5 2 -14q0 -12 -4 -32q-7 -34 -17 -45.5t-30 -11.5h-436q-21 0 -26.5 11.5t1.5 45.5t17.5 46t29.5 12h170l-80 379 h-712l-224 -379h191q21 0 26.5 -12t-1.5 -46t-17.5 -45.5t-30.5 -11.5h-448q-21 0 -27 12zM526 606h619l-107 508q-27 132 -45 264h-22q-74 -151 -142 -266z" />
<glyph unicode="B" horiz-adv-x="1419" d="M-12 12q-2 5 -2 13q0 12 4 32q7 34 17.5 46t29.5 12h98l242 1245h-98q-21 0 -26.5 11.5t1.5 45.5t17.5 46t29.5 12h539q237 0 363 -88t126 -246q0 -134 -79 -235.5t-203 -121.5l-7 -26q226 -58 226 -309q0 -221 -160 -347.5t-457 -126.5q-127 0 -212 22.5t-148 72.5h-25 q-6 -37 -27.5 -53.5t-64.5 -16.5h-158q-21 0 -26 12zM287 172q156 -84 356 -84q479 0 479 356q0 93 -35.5 149.5t-124.5 86t-243 29.5h-332zM410 815h309q239 0 353 82t114 227q0 58 -19 100.5t-63 73.5t-119.5 46.5t-185.5 15.5h-283z" />
<glyph unicode="C" horiz-adv-x="1425" d="M106 559q0 179 42 330.5t119.5 263.5t185.5 190t241 117t285 39q182 0 328 -45q65 -22 87 -54q13 -20 14 -54q0 -21 -5 -46l-29 -143q-6 -28 -22 -37.5t-62 -9.5q-34 0 -44 8t-7 29l37 196q-170 46 -326 46q-221 0 -381 -107t-239.5 -291.5t-79.5 -425.5 q0 -126 25 -213.5t83 -147.5t153 -88t234 -28q185 0 363 53q16 5 26 -5t19 -42q5 -32 1.5 -44t-19.5 -17q-193 -58 -408 -58q-325 0 -473 141.5t-148 442.5z" />
<glyph unicode="D" horiz-adv-x="1509" d="M-12 12q-2 5 -2 13q0 12 4 32q7 34 17.5 46t29.5 12h98l242 1245h-98q-21 0 -26.5 11.5t1.5 45.5t17.5 46t29.5 12h449q653 0 653 -594q0 -408 -237.5 -644.5t-643.5 -236.5h-508q-21 0 -26 12zM274 115h244q179 0 320.5 55.5t233.5 155.5t140 237.5t48 304.5 q0 252 -127.5 372t-403.5 120h-213z" />
<glyph unicode="E" horiz-adv-x="1411" d="M-12 12q-2 5 -2 13q0 12 4 32q7 34 17.5 46t29.5 12h98l242 1245h-98q-21 0 -26.5 11.5t1.5 45.5t17.5 46t29.5 12h1034q55 0 69 -16q9 -10 9 -32q0 -14 -4 -34l-45 -242q-6 -37 -74 -37q-37 0 -48.5 7.5t-8.5 29.5l37 209h-754l-106 -553h546l23 113q6 34 64 34h10 q37 -1 49.5 -8.5t9.5 -25.5l-65 -340q-6 -37 -74 -37q-37 0 -49.5 8t-8.5 29l23 118h-551l-113 -583h770l39 209q6 34 64 34h10q38 -1 50.5 -8.5t9.5 -25.5l-46 -242q-9 -49 -31 -65.5t-77 -16.5h-1049q-21 0 -26 12z" />
<glyph unicode="F" horiz-adv-x="1382" d="M-12 12q-2 5 -2 13q0 12 4 32q7 34 17.5 46t29.5 12h98l242 1245h-98q-21 0 -26.5 11.5t1.5 45.5t17.5 46t29.5 12h1047q54 0 68 -16q8 -10 9 -31q0 -15 -4 -35l-49 -252q-6 -37 -74 -37q-37 0 -48.5 7.5t-8.5 29.5l41 219h-766l-113 -592h553l23 113q6 34 64 34h10 q37 -1 49.5 -8.5t9.5 -25.5l-65 -340q-6 -37 -74 -37q-37 0 -49.5 8t-8.5 29l23 118h-557l-107 -544h156q21 0 26.5 -12t-1.5 -46t-17 -45.5t-30 -11.5h-394q-21 0 -26 12z" />
<glyph unicode="G" horiz-adv-x="1554" d="M106 555q0 279 107 491.5t315 332.5t492 120q189 0 338 -45q68 -21 92 -57q16 -24 16 -64q0 -19 -4 -43l-24 -139q-5 -26 -22 -36.5t-64 -10.5q-37 0 -50.5 8.5t-9.5 30.5l39 200q-149 46 -340 46q-224 0 -392.5 -101t-258.5 -286t-90 -429q0 -255 116.5 -367t389.5 -112 q187 0 360 66l96 499h-438q-21 0 -26.5 12.5t2.5 43.5q7 34 16.5 43.5t30.5 9.5h469q60 0 80 -20q12 -14 12 -39q0 -15 -4 -33l-129 -651q-6 -37 -72 -37q-36 0 -49 14.5t-8 50.5h-21q-141 -78 -346 -78q-314 0 -468.5 142.5t-154.5 437.5z" />
<glyph unicode="H" horiz-adv-x="1644" d="M-12 12q-2 5 -2 13q0 12 4 32q7 34 17.5 46t29.5 12h98l242 1245h-98q-21 0 -26.5 11.5t1.5 45.5t17.5 46t29.5 12h336q21 0 26.5 -12t-1.5 -46t-17.5 -45.5t-30.5 -11.5h-98l-104 -545h872l107 545h-99q-21 0 -26 11.5t2 45.5t17.5 46t29.5 12h336q21 0 26 -12 q2 -5 2 -14q0 -12 -4 -32q-7 -34 -17 -45.5t-30 -11.5h-98l-242 -1245h98q21 0 26.5 -12t-1.5 -46t-17 -45.5t-30 -11.5h-336q-21 0 -26 11.5t2 45.5t17.5 46t29.5 12h98l113 592h-871l-117 -592h99q21 0 26 -12t-2 -46t-17 -45.5t-30 -11.5h-336q-21 0 -26 12z" />
<glyph unicode="I" horiz-adv-x="630" d="M-12 12q-2 5 -2 13q0 12 4 32q7 34 17.5 46t29.5 12h98l242 1245h-98q-21 0 -26.5 11.5t1.5 45.5t17.5 46t29.5 12h336q21 0 27 -12q2 -5 2 -15q0 -12 -4 -31q-7 -34 -17.5 -45.5t-30.5 -11.5h-98l-242 -1245h99q21 0 26 -12t-2 -46t-17 -45.5t-30 -11.5h-336 q-21 0 -26 12z" />
<glyph unicode="J" horiz-adv-x="958" d="M-51 90q14 33 30 40t35 -3q98 -37 193 -37q271 0 334 322l180 948h-162q-21 0 -26 11.5t2 45.5t17.5 46t29.5 12h403q21 0 27 -12q2 -5 2 -15q0 -12 -4 -31q-7 -34 -17 -45.5t-30 -11.5h-103l-178 -932q-45 -239 -161.5 -346t-323.5 -107q-64 0 -132.5 13t-105.5 32 q-19 8 -19 31q0 16 9 39z" />
<glyph unicode="K" horiz-adv-x="1454" d="M-12 12q-2 5 -2 13q0 12 4 32q7 34 17.5 46t29.5 12h98l242 1245h-98q-21 0 -26.5 11.5t1.5 45.5t17.5 46t29.5 12h336q21 0 26.5 -12t-1.5 -46t-17.5 -45.5t-30.5 -11.5h-98l-110 -565h290l504 565h-156q-21 0 -26 11.5t2 45.5t17.5 46t29.5 12h438q21 0 27 -12 q2 -5 2 -15q0 -12 -4 -31q-7 -34 -17 -45.5t-30 -11.5h-117l-532 -596l307 -649h108q21 0 26.5 -12t-1.5 -46t-17 -45.5t-30 -11.5h-105q-51 0 -80 20t-51 68l-274 598h-332l-111 -571h99q21 0 26 -12t-2 -46t-17 -45.5t-30 -11.5h-336q-21 0 -26 12z" />
<glyph unicode="L" horiz-adv-x="1290" d="M-12 12q-2 5 -2 13q0 12 4 32q7 34 17.5 46t29.5 12h98l242 1245h-98q-21 0 -26.5 11.5t1.5 45.5t17.5 46t29.5 12h383q21 0 26.5 -12t-1.5 -46t-17 -45.5t-30 -11.5h-146l-242 -1245h711l47 245q7 35 65 35h9q38 -1 50 -9q10 -6 10 -19q0 -3 -1 -7l-53 -278 q-9 -49 -31 -65.5t-77 -16.5h-990q-21 0 -26 12z" />
<glyph unicode="M" horiz-adv-x="1951" d="M-32 12q-2 5 -3 14q0 12 4 31q7 34 17.5 46t29.5 12h99l334 1245h-101q-21 0 -26 11.5t2 45.5t17.5 46t29.5 12h211q53 0 75.5 -13.5t28.5 -46.5l170 -895q28 -153 31 -303h24q53 168 129 305l500 893q18 32 47 46t86 14h228q21 0 26 -12q2 -5 2 -14q0 -12 -4 -32 q-7 -34 -17 -45.5t-30 -11.5h-100l-146 -1245h107q21 0 26 -12t-2 -46t-17 -45.5t-30 -11.5h-430q-21 0 -26 11.5t2 45.5t17.5 46t29.5 12h176l155 1251h-24q-47 -158 -133 -311l-490 -875q-23 -40 -41.5 -53.5t-48.5 -13.5h-31q-39 0 -58.5 15.5t-25.5 51.5l-163 869 q-18 94 -18 216q0 49 3 101h-24l-324 -1251h184q21 0 26.5 -12t-1.5 -46t-17 -45.5t-30 -11.5h-430q-20 0 -26 12z" />
<glyph unicode="N" horiz-adv-x="1601" d="M-12 12q-2 5 -2 13q0 12 4 32q7 34 17.5 46t29.5 12h98l242 1245h-98q-21 0 -26.5 11.5t1.5 45.5t17.5 46t29.5 12h238q80 0 98 -50l362 -948q81 -214 123 -362h23l241 1245h-165q-21 0 -26.5 11.5t1.5 45.5t17.5 46t29.5 12h393q20 0 26 -12q2 -5 3 -15q0 -12 -4 -31 q-7 -34 -17 -45.5t-30 -11.5h-98l-256 -1323q-4 -26 -20.5 -36.5t-47.5 -10.5h-84q-48 0 -69 11t-33 44l-373 997q-53 140 -103 324h-22l-244 -1251h166q21 0 26.5 -12t-1.5 -46t-17 -45.5t-30 -11.5h-394q-21 0 -26 12z" />
<glyph unicode="O" horiz-adv-x="1570" d="M106 549q0 199 55.5 372.5t157 302t253.5 202t335 73.5q557 0 557 -571q0 -215 -58.5 -393.5t-163 -301t-253 -190.5t-325.5 -68q-284 0 -421 141t-137 433zM250 553q0 -238 103.5 -351.5t320.5 -113.5q194 0 343 113t226.5 300.5t77.5 416.5q0 468 -430 468 q-191 0 -339 -113.5t-225 -302t-77 -417.5z" />
<glyph unicode="P" horiz-adv-x="1361" d="M-12 12q-2 5 -2 13q0 12 4 32q7 34 17.5 46t29.5 12h98l242 1245h-98q-21 0 -26.5 11.5t1.5 45.5t17.5 46t29.5 12h449q559 0 559 -377q0 -255 -155 -398t-458 -143q-189 0 -301 61h-22l-99 -503h175q21 0 26 -12t-2 -46t-17 -45.5t-30 -11.5h-412q-21 0 -26 12zM391 709 q115 -41 291 -41q246 0 364.5 105t118.5 314q0 137 -108 205t-338 68h-203z" />
<glyph unicode="Q" horiz-adv-x="1568" d="M106 549q0 199 55.5 372.5t157 302t253.5 202t335 73.5q557 0 557 -571q0 -312 -120 -539.5t-330 -333.5l57 -100q44 -79 95.5 -110t138.5 -31q67 0 135 22q29 9 40.5 2t20.5 -41q6 -21 6 -34q0 -5 -1 -9q-3 -13 -25 -22q-90 -35 -203 -35q-112 0 -186 42t-131 136 l-78 129q-113 -29 -219 -29q-284 0 -421 141t-137 433zM250 553q0 -238 103.5 -351.5t320.5 -113.5q194 0 343 113t226.5 300.5t77.5 416.5q0 468 -430 468q-191 0 -339 -113.5t-225 -302t-77 -417.5z" />
<glyph unicode="R" horiz-adv-x="1386" d="M-12 12q-2 5 -2 13q0 12 4 32q7 34 17.5 46t29.5 12h98l242 1245h-98q-21 0 -26.5 11.5t1.5 45.5t17.5 46t29.5 12h449q563 0 563 -361q0 -202 -108 -330.5t-324 -167.5l180 -501h110q21 0 26.5 -12t-1.5 -46t-17 -45.5t-30 -11.5h-78q-75 0 -109 20.5t-51 75.5l-166 504 h-378l-93 -485h175q21 0 26 -12t-2 -46t-17 -45.5t-30 -11.5h-412q-21 0 -26 12zM389 707h295q257 0 371 102.5t114 294.5q0 256 -450 256h-203z" />
<glyph unicode="S" horiz-adv-x="1372" d="M41 195l22 106q6 28 23 37.5t64 9.5q36 0 46 -8.5t5 -30.5l-37 -176q193 -45 393 -45q262 0 377 89t115 255q0 114 -75.5 173.5t-277.5 92.5l-88 15q-199 33 -281.5 115.5t-82.5 230.5q0 204 154.5 322t465.5 118q192 0 350 -49q76 -24 103 -62q17 -24 17 -63 q0 -21 -5 -47l-14 -66q-6 -31 -20.5 -39t-61.5 -8q-37 0 -47.5 8t-5.5 31l24 127q-154 55 -358 55q-235 0 -351 -83.5t-116 -225.5q0 -74 22.5 -115.5t90 -72.5t202.5 -55l90 -17q221 -40 316.5 -130.5t95.5 -242.5q0 -230 -163 -349.5t-515 -119.5q-185 0 -352 29 q-84 15 -114 60q-18 28 -18 70q0 28 7 61z" />
<glyph unicode="T" horiz-adv-x="1411" d="M137 1151l45 242q11 50 31 66t74 16h1114q55 0 69 -16q9 -10 9 -32q0 -14 -4 -34l-50 -242q-3 -19 -19.5 -28t-53.5 -9t-49 7.5t-9 29.5l41 209h-444l-242 -1245h211q21 0 26.5 -12t-1.5 -46t-17 -45.5t-30 -11.5h-557q-21 0 -26.5 11.5t1.5 45.5t17.5 46t29.5 12h207 l242 1245h-441l-43 -209q-3 -19 -19.5 -28t-53.5 -9t-49 8q-10 7 -10 21q0 4 1 8z" />
<glyph unicode="U" horiz-adv-x="1523" d="M156 371q0 97 20 200l154 789h-90q-21 0 -26.5 11.5t1.5 45.5t17.5 46t29.5 12h371q21 0 26 -12t-2 -46t-17 -45.5t-30 -11.5h-141l-154 -793q-20 -113 -20 -188q0 -148 84 -219.5t258 -71.5q218 0 348 113.5t180 363.5l158 795h-141q-21 0 -26.5 11.5t1.5 45.5t17.5 46 t29.5 12h375q21 0 27 -12q2 -5 2 -15q0 -12 -4 -31q-7 -34 -17.5 -45.5t-30.5 -11.5h-96l-157 -789q-63 -312 -232.5 -454t-445.5 -142q-242 0 -355.5 100.5t-113.5 295.5z" />
<glyph unicode="V" horiz-adv-x="1589" d="M160 1372q-2 5 -2 13q0 12 4 32q7 34 17.5 46t29.5 12h475q21 0 26.5 -12t-1.5 -46t-17 -45.5t-30 -11.5h-220l174 -881q35 -174 48 -383h22q87 201 197 389l512 875h-246q-21 0 -26.5 11.5t1.5 45.5t17.5 46t29.5 12h506q21 0 27 -12q2 -5 2 -15q0 -12 -4 -31 q-7 -34 -17 -45.5t-30 -11.5h-111l-756 -1299q-26 -44 -48.5 -58.5t-53.5 -14.5h-47q-35 0 -53 16.5t-27 58.5l-264 1297h-109q-21 0 -26 12z" />
<glyph unicode="W" horiz-adv-x="2312" d="M160 1372q-2 5 -2 13q0 12 4 32q7 34 17.5 46t29.5 12h526q21 0 26.5 -12t-1.5 -46t-17 -45.5t-30 -11.5h-260l77 -862q18 -199 21 -402h22q70 193 177 406l403 811q22 42 46.5 59t64.5 17h49q43 0 61.5 -17.5t24.5 -71.5l80 -798q18 -174 18 -406h25q64 189 170 406 l411 858h-239q-21 0 -26.5 11.5t1.5 45.5t17.5 46t29.5 12h514q20 0 26 -12q2 -5 3 -15q0 -12 -4 -31q-7 -34 -17 -45.5t-30 -11.5h-129l-619 -1284q-27 -55 -49.5 -71.5t-62.5 -16.5h-52q-39 0 -58.5 19t-23.5 65l-92 891q-16 163 -16 307h-23q-63 -168 -135 -312 l-438 -886q-43 -84 -105 -84h-67q-38 0 -56 18.5t-22 69.5l-119 1284h-125q-21 0 -26 12z" />
<glyph unicode="X" horiz-adv-x="1611" d="M-40 12q-2 5 -3 14q0 12 4 31q7 34 17.5 46t29.5 12h103l604 643l-320 602h-100q-21 0 -26.5 11.5t1.5 45.5t17.5 46t29.5 12h402q21 0 26 -12t-2 -46t-17 -45.5t-30 -11.5h-145l274 -547h23l491 547h-145q-21 0 -26.5 11.5t1.5 45.5t17.5 46t30.5 12h405q20 0 26 -12 q2 -5 3 -15q0 -12 -4 -31q-7 -34 -17.5 -45.5t-30.5 -11.5h-98l-561 -608l350 -637h125q21 0 26.5 -12t-1.5 -46t-17 -45.5t-30 -11.5h-439q-21 0 -26 11.5t2 45.5t17.5 46t29.5 12h170l-313 577h-27l-531 -577h170q21 0 26.5 -12t-1.5 -46t-17 -45.5t-30 -11.5h-438 q-20 0 -26 12z" />
<glyph unicode="Y" horiz-adv-x="1452" d="M164 1372q-2 4 -2 13q0 12 4 32q7 34 17.5 46t29.5 12h442q21 0 26.5 -12t-1.5 -46t-17 -45.5t-30 -11.5h-191l185 -457q51 -123 75 -262h23q85 151 176 260l371 459h-221q-21 0 -26.5 11.5t1.5 45.5t17.5 46t29.5 12h471q21 0 26 -12q3 -5 3 -15q0 -12 -4 -31 q-7 -34 -17 -45.5t-30 -11.5h-101l-655 -828l-80 -417h205q21 0 26 -12t-2 -46t-17 -45.5t-30 -11.5h-542q-21 0 -26.5 11.5t1.5 45.5t17.5 46t29.5 12h199l82 426l-338 819h-101q-21 0 -26 12z" />
<glyph unicode="Z" horiz-adv-x="1251" d="M-31 55l13 62q6 33 29 67t83 97l893 921q89 89 166 144l4 20h-797l-32 -174q-3 -21 -18.5 -29t-55.5 -8q-37 0 -48.5 8t-8.5 29l36 197q9 50 33.5 68t85.5 18h846q60 0 77 -11q13 -8 13 -29q0 -7 -2 -16l-10 -57q-7 -39 -30 -72.5t-81 -93.5l-889 -920q-77 -81 -174 -147 l-4 -20h854l39 210q7 35 65 35h9q37 -1 49.5 -9t9.5 -26l-45 -237q-9 -49 -31 -65.5t-77 -16.5h-912q-57 0 -77 10q-15 8 -15 29q0 7 2 16z" />
<glyph unicode="[" horiz-adv-x="835" d="M98 -270l367 1896q8 43 32 58.5t89 15.5h291q16 0 20.5 -9.5t-0.5 -41.5q-6 -31 -14 -40.5t-27 -9.5h-274l-357 -1843h283q16 0 20.5 -9.5t-0.5 -41.5q-6 -30 -14 -39.5t-27 -9.5h-299q-63 0 -81 14.5t-9 59.5z" />
<glyph unicode="\" horiz-adv-x="1159" d="M248 1528q-5 16 7 24.5t50 8.5q37 0 52 -7t20 -22l534 -1851q5 -16 -7 -23.5t-46 -7.5q-72 0 -78 26z" />
<glyph unicode="]" horiz-adv-x="841" d="M-61.5 -334.5q-4.5 9.5 0.5 41.5q6 30 14 39.5t27 9.5h280l356 1843h-270q-16 0 -20.5 10t0.5 42q6 30 14 39.5t27 9.5h286q63 0 81 -14.5t9 -59.5l-366 -1896q-8 -43 -32 -58.5t-89 -15.5h-297q-16 0 -20.5 9.5z" />
<glyph unicode="^" horiz-adv-x="1366" d="M160 848l532 586q31 32 50.5 42.5t48.5 10.5h51q27 0 42.5 -11t33.5 -44l307 -592q16 -32 -33 -58q-53 -30 -70 0l-321 615l-545 -625q-28 -31 -74 10q-47 41 -22 66z" />
<glyph unicode="_" horiz-adv-x="1236" d="M31 -449q-4 10 2 41q6 33 13 42.5t26 9.5h987q20 0 24 -10.5t-2 -41.5q-6 -32 -13 -41.5t-26 -9.5h-987q-20 0 -24 10z" />
<glyph unicode="`" horiz-adv-x="1024" d="M436 1417q-26 33 38 40l30 1q74 0 102 -41l195 -272q5 -9 4 -17t-14.5 -13t-36.5 -5q-56 0 -84 35z" />
<glyph unicode="a" d="M90 371q0 101 25.5 196.5t75.5 177.5t119 143.5t162 96.5t198 35q113 0 197 -38.5t112 -102.5h20l25 90q6 22 17 28.5t42 6.5q30 0 39 -6q7 -5 7 -17q0 -4 -1 -8l-153 -809q-6 -33 4.5 -43t52.5 -10h45q20 0 25.5 -11t-0.5 -45t-15 -44.5t-34 -10.5h-52q-83 0 -117 26 t-36 87h-21q-122 -138 -354 -138q-192 0 -287.5 104t-95.5 292zM229 381q0 -297 273 -297q166 0 273 106t145 314l12 63q8 47 8 92q0 122 -72.5 186t-203.5 64q-126 0 -226 -70t-154.5 -190t-54.5 -268z" />
<glyph unicode="b" horiz-adv-x="1253" d="M113 23l252 1310q3 19 -3.5 25t-29.5 6h-56q-27 0 -27 26q0 9 3 21q9 36 26 50t52 14h116q40 0 54.5 -17t5.5 -61l-47 -254q-25 -141 -88 -295h20q69 89 161 130.5t218 41.5q179 0 286 -97.5t107 -273.5q0 -191 -72 -344t-207.5 -241.5t-310.5 -88.5q-118 0 -200 38 t-111 100h-20l-25 -88q-6 -22 -17 -28.5t-42 -6.5q-30 0 -39 7q-7 5 -7 17q0 4 1 9zM305 352q0 -127 73 -197.5t204 -70.5q197 0 319.5 150t122.5 395q0 139 -71.5 209.5t-207.5 70.5q-161 0 -279.5 -117.5t-146.5 -306.5l-6 -43q-8 -58 -8 -90z" />
<glyph unicode="c" horiz-adv-x="1099" d="M90 389q0 100 20.5 190t67.5 171.5t117 140.5t175.5 94t236.5 35q136 0 237 -29q62 -19 79 -47q10 -17 10 -48q0 -22 -5 -50l-14 -78q-5 -22 -19.5 -30.5t-52.5 -8.5q-37 0 -46.5 7t-6.5 28l20 125q-91 26 -215 26q-98 0 -178.5 -29.5t-134 -79.5t-90 -117t-52.5 -139.5 t-16 -150.5q0 -163 78 -239t258 -76q138 0 293 55q21 9 31 2.5t22 -39.5q7 -21 8 -31.5t-4.5 -17t-19.5 -12.5q-65 -29 -164 -47.5t-195 -18.5q-232 0 -336 99.5t-104 314.5z" />
<glyph unicode="d" horiz-adv-x="1271" d="M90 371q0 128 41.5 245t116 207t187 143.5t245.5 53.5q111 0 193 -39.5t112 -103.5h21q0 73 28 215l47 241q3 19 -3 25t-29 6h-56q-27 0 -27 26q0 9 3 21q9 36 26 50t52 14h116q41 0 55 -17q9 -10 8 -31q0 -13 -3 -30l-238 -1233q-6 -33 4.5 -43t52.5 -10h45 q20 0 25.5 -11t-0.5 -45t-15 -44.5t-34 -10.5h-51q-84 0 -118 26t-36 87h-20q-123 -138 -359 -138q-196 0 -292.5 104t-96.5 292zM229 379q0 -295 275 -295q171 0 280 107t144 307l10 57q8 50 8 86q0 127 -72.5 197.5t-203.5 70.5q-194 0 -317.5 -151t-123.5 -379z" />
<glyph unicode="e" horiz-adv-x="1114" d="M90 348q0 325 154.5 498.5t425.5 173.5q174 0 270 -75.5t96 -203.5q0 -154 -117.5 -236.5t-361.5 -82.5h-330q-2 -20 -2 -57q0 -143 79.5 -212t260.5 -69q138 0 293 55q21 9 31 2.5t22 -39.5q7 -21 8 -31.5t-4.5 -17t-19.5 -12.5q-65 -29 -163.5 -47.5t-194.5 -18.5 q-225 0 -336 96t-111 277zM238 522h342q164 0 246.5 55.5t82.5 151.5q0 88 -67 138.5t-195 50.5q-168 0 -274 -103.5t-135 -292.5z" />
<glyph unicode="f" horiz-adv-x="778" d="M63 -434l261 1323h-172q-22 0 -26.5 9.5t1.5 41.5q7 35 15.5 44t31.5 9h170l21 105q45 229 130 315t259 86q63 0 138.5 -16t119.5 -39q15 -8 15 -24t-15 -40q-16 -27 -28.5 -32t-22.5 2q-109 47 -218 47q-68 0 -109.5 -22t-75.5 -86t-60 -183l-25 -113h268q21 0 25.5 -8 t-0.5 -45q-6 -32 -14.5 -41.5t-30.5 -9.5h-266l-260 -1323q-5 -21 -20 -29t-54 -8q-37 0 -49 9q-10 6 -10 20q0 4 1 8z" />
<glyph unicode="g" d="M22 -371q0 16 13 43q21 39 45 39q8 0 16 -4q164 -84 340 -84q170 0 265.5 80t129.5 248l7 31q20 101 47 174h-21q-73 -79 -156 -113.5t-196 -34.5q-204 0 -303.5 99.5t-99.5 283.5q0 122 42 235t116 201t185 140.5t240 52.5q123 0 207.5 -36.5t114.5 -98.5h22l23 84 q6 22 17.5 28.5t45.5 6.5q29 0 38 -6q6 -5 6 -16q0 -4 -1 -9l-194 -991q-47 -243 -177 -354t-370 -111q-112 0 -211.5 22.5t-165.5 57.5q-25 13 -25 32zM248 401q0 -284 272 -284q175 0 289 108t143 303l9 56q6 49 6 78q0 121 -73.5 184t-207.5 63q-195 0 -316.5 -142.5 t-121.5 -365.5z" />
<glyph unicode="h" horiz-adv-x="1294" d="M137 25l252 1308q3 19 -3.5 25t-29.5 6h-55q-28 0 -28 27q0 9 3 20q9 36 26 50t52 14h117q40 0 54 -17t5 -61l-49 -260q-38 -209 -71 -297h24q67 93 164.5 136.5t237.5 43.5q158 0 235.5 -71t77.5 -222q0 -67 -19 -160l-77 -403q-6 -34 4 -43.5t53 -9.5h45q19 0 25 -11 q3 -5 3 -16t-3 -29q-6 -34 -15.5 -44.5t-34.5 -10.5h-69q-81 0 -114.5 25t-33.5 79q0 8 7 48l71 368q23 115 23 180q0 111 -52 162t-159 51q-162 0 -286.5 -116t-162.5 -312l-86 -460q-3 -20 -19.5 -28.5t-53.5 -8.5t-49 8q-10 7 -10 21q0 4 1 8z" />
<glyph unicode="i" horiz-adv-x="579" d="M143 104q0 8 7 48l135 700q3 19 -3.5 25t-29.5 6h-55q-28 0 -28 27q0 9 3 20q9 35 26 49t52 14h117q40 0 54 -17t5 -61l-143 -751q-6 -34 4 -43.5t53 -9.5h45q20 0 25.5 -11t-0.5 -45t-15.5 -44.5t-34.5 -10.5h-69q-81 0 -114.5 25t-33.5 79zM313 1315q0 57 25 88t70 31 h20q78 0 78 -70q0 -57 -19 -82t-61 -25h-53q-32 0 -46 13.5t-14 44.5z" />
<glyph unicode="j" horiz-adv-x="567" d="M-261 -427q0 13 13 38q14 31 26.5 36.5t35.5 -3.5q55 -19 108 -19q72 0 111.5 42t60.5 151l199 1034q3 19 -3.5 25t-29.5 6h-55q-28 0 -28 27q0 8 3 20q9 35 26 49t52 14h117q40 0 54 -17t5 -61l-207 -1085q-32 -170 -104.5 -241.5t-206.5 -71.5q-96 0 -158 32 q-19 10 -19 24zM322 1315q0 57 25 88t69 31h20q78 0 78 -70q0 -57 -19 -82t-61 -25h-53q-32 0 -45.5 13.5t-13.5 44.5z" />
<glyph unicode="k" horiz-adv-x="1126" d="M137 25l252 1308q3 19 -3.5 25t-29.5 6h-55q-28 0 -28 27q0 9 3 20q9 36 26 50t52 14h117q40 0 54 -17t5 -61l-153 -799h244l278 373q15 20 37 28.5t72 8.5q34 0 44 -10q4 -4 5 -10q0 -7 -8 -17l-347 -453l175 -330q25 -48 46.5 -62.5t71.5 -14.5h6q20 0 25.5 -11 t-0.5 -45t-15 -44.5t-34 -10.5h-14q-80 0 -121.5 27t-77.5 98l-189 373h-217l-90 -473q-3 -20 -19.5 -28.5t-53.5 -8.5t-49 8q-10 7 -10 21q0 4 1 8z" />
<glyph unicode="l" horiz-adv-x="595" d="M143 104q0 8 7 48l227 1181q3 19 -3.5 25t-29.5 6h-55q-28 0 -28 27q0 9 3 20q9 36 26 50t52 14h117q40 0 54 -17q9 -10 9 -31q0 -13 -4 -30l-235 -1233q-6 -34 4 -43.5t53 -9.5h45q20 0 25.5 -11t-0.5 -45t-15.5 -44.5t-34.5 -10.5h-69q-81 0 -114.5 25t-33.5 79z" />
<glyph unicode="m" horiz-adv-x="2019" d="M141 25l160 827q3 19 -3.5 25t-29.5 6h-55q-28 0 -28 27q0 9 3 20q9 35 26 49t52 14h96q44 0 58 -17q10 -12 10 -38q0 -11 -2 -25l-10 -71h22q132 178 383 178q259 0 314 -197h22q137 197 406 197q159 0 236 -69.5t77 -194.5q0 -61 -18 -156l-82 -436q-6 -34 4 -43.5 t53 -9.5h45q20 0 26 -11q3 -5 2 -16q0 -11 -3 -29q-6 -34 -15.5 -44.5t-34.5 -10.5h-69q-81 0 -114.5 25t-33.5 79q0 8 7 48l79 401q25 123 25 174q0 93 -51.5 139.5t-173.5 46.5q-142 0 -268 -123.5t-158 -300.5l-86 -464q-7 -37 -72 -37q-32 0 -46.5 7.5t-10.5 29.5 l100 528q23 121 23 176q0 96 -54.5 140t-173.5 44q-141 0 -261 -119.5t-155 -301.5l-90 -467q-3 -20 -19 -28.5t-54 -8.5q-37 0 -49 8q-10 7 -10 21q0 4 1 8z" />
<glyph unicode="n" horiz-adv-x="1290" d="M141 25l160 827q3 19 -3.5 25t-29.5 6h-55q-28 0 -28 27q0 9 3 20q9 35 26 49t52 14h96q44 0 58 -17q10 -12 10 -38q0 -11 -2 -25l-10 -71h24q65 93 162 135.5t234 42.5q154 0 230.5 -71t76.5 -222q0 -67 -19 -160l-77 -403q-6 -34 4 -43.5t53 -9.5h45q19 0 25 -11 q3 -5 3 -16t-3 -29q-6 -34 -15.5 -44.5t-34.5 -10.5h-69q-81 0 -114.5 25t-33.5 79q0 14 6 48l72 368q23 115 23 180q0 111 -51.5 162t-157.5 51q-162 0 -283 -117.5t-158 -310.5l-88 -460q-3 -20 -19 -28.5t-54 -8.5q-37 0 -49 8q-10 7 -10 21q0 4 1 8z" />
<glyph unicode="o" horiz-adv-x="1159" d="M90 365q0 195 64 341.5t193.5 230t311.5 83.5q196 0 303 -102t107 -293q0 -193 -65.5 -339t-195 -228.5t-308.5 -82.5q-203 0 -306.5 103t-103.5 287zM223 373q0 -143 72.5 -219t218.5 -76q193 0 307.5 142.5t114.5 391.5q0 153 -74.5 229.5t-216.5 76.5 q-198 0 -310 -145t-112 -400z" />
<glyph unicode="p" horiz-adv-x="1292" d="M63 -434l248 1286q3 19 -3 25t-29 6h-56q-27 0 -27 26q0 9 3 21q9 36 25.5 49.5t51.5 13.5h91q43 0 56.5 -18t8.5 -62l-6 -51h20q127 158 373 158q174 0 278.5 -100t104.5 -271q0 -110 -25.5 -211t-75 -185t-119 -146.5t-162.5 -97t-199 -34.5q-120 0 -205 38t-115 100 h-20q-9 -142 -35 -281l-51 -266q-5 -37 -74 -37q-37 0 -49 9q-10 6 -10 20q0 4 1 8zM344 348q0 -128 73 -196t204 -68q197 0 319.5 150t122.5 395q0 139 -71.5 209.5t-207.5 70.5q-161 0 -279.5 -116.5t-146.5 -307.5l-6 -43q-8 -55 -8 -94z" />
<glyph unicode="q" horiz-adv-x="1232" d="M90 371q0 101 25 196t75 177t119.5 143.5t164.5 97t204 35.5q114 0 199 -39.5t112 -101.5h21l24 90q6 22 18 28.5t46 6.5q29 0 38 -6q6 -5 6 -16q0 -4 -1 -9l-244 -1270q-6 -34 4 -43.5t53 -9.5h45q20 0 25.5 -11t-0.5 -45t-15 -44.5t-34 -10.5h-70q-81 0 -114 25.5 t-33 79.5q0 12 6 47l29 153q28 149 69 273h-18q-120 -142 -363 -142q-191 0 -291 101t-100 295zM229 381q0 -297 277 -297q166 0 276.5 105t149.5 315l8 49q10 64 10 102q0 124 -73 189t-207 65q-129 0 -230.5 -71t-156 -191t-54.5 -266z" />
<glyph unicode="r" horiz-adv-x="897" d="M141 25l160 827q3 19 -3.5 25t-29.5 6h-55q-28 0 -28 27q0 9 3 20q9 35 26 49t52 14h96q44 0 58 -17q10 -12 10 -38q0 -11 -2 -25l-10 -86h20q100 193 324 193q70 0 131 -21q19 -6 22 -21q1 -3 1 -6q0 -15 -11 -44q-11 -31 -23 -38.5t-34 -2.5q-65 14 -109 14 q-136 0 -242.5 -130t-152.5 -374l-72 -372q-5 -21 -20 -29t-53 -8q-37 0 -49 8q-10 7 -10 21q0 4 1 8z" />
<glyph unicode="s" horiz-adv-x="1083" d="M59 156l13 59q5 23 19.5 31t55.5 8q35 0 47 -8.5t9 -26.5l-17 -102q133 -37 289 -37q185 0 258.5 48t73.5 159q0 52 -22.5 80.5t-84.5 49.5t-190 42l-49 8q-153 25 -215 83t-62 157q0 147 117 230t332 83q137 0 252 -33q75 -21 100 -53q18 -23 18 -60q0 -13 -2 -28 l-10 -60q-3 -22 -20 -31.5t-58 -9.5q-33 0 -42.5 8t-6.5 29l19 97q-131 36 -273 36q-291 0 -291 -192q0 -42 15.5 -64.5t75 -44.5t182.5 -43l47 -8q170 -30 236.5 -91t66.5 -173q0 -164 -114.5 -244t-370.5 -80q-165 0 -295 31q-72 17 -94 49q-14 20 -14 55q0 20 5 46z" />
<glyph unicode="t" horiz-adv-x="792" d="M92 898q-2 4 -1 13q0 11 3 29q7 35 15.5 44t31.5 9h170l54 273q4 26 18 34.5t51 8.5q41 0 53 -9t7 -34l-52 -273h301q21 0 25 -8q2 -4 3 -14q0 -11 -3 -31q-6 -32 -14.5 -41.5t-30.5 -9.5h-303l-117 -596q-14 -75 -14 -105q0 -55 29.5 -76.5t99.5 -21.5q62 0 139 23 q21 8 31.5 1.5t21.5 -38.5q7 -21 8 -32.5t-4.5 -18t-19.5 -11.5q-42 -17 -104.5 -28t-114.5 -11q-118 0 -168.5 45.5t-50.5 133.5q0 36 14 118l121 617h-172q-23 -1 -27 9z" />
<glyph unicode="u" horiz-adv-x="1282" d="M135 930q9 35 26 49t52 14h117q40 0 54 -17t5 -61l-92 -475q-21 -111 -21 -157q0 -102 50 -149.5t155 -47.5q162 0 282 111.5t159 312.5l88 461q3 21 18.5 29t54.5 8q37 0 49 -8q10 -7 10 -21q0 -4 -1 -8l-156 -807q-6 -33 4.5 -43t52.5 -10h45q20 0 25.5 -11t-0.5 -45 t-15 -44.5t-34 -10.5h-70q-92 0 -124 33q-22 22 -22 62q0 18 5 40h-21q-67 -81 -162.5 -120.5t-232.5 -39.5q-291 0 -291 285q0 45 15 133l88 459q3 19 -3.5 25t-29.5 6h-55q-28 0 -28 27q0 8 3 20z" />
<glyph unicode="v" horiz-adv-x="1038" d="M48 894q-3 5 -2 15q0 11 3 29q6 34 15 44.5t34 10.5h64q74 0 108.5 -28t51.5 -109l112 -543q23 -122 23 -208v-19h22q31 117 88 225l346 660q9 20 29.5 28.5t61.5 8.5q40 0 52 -8q6 -4 6 -12q0 -7 -5 -17l-502 -932q-15 -29 -32 -40t-44 -11h-49q-36 0 -50 10t-20 39 l-180 809q-4 23 -15.5 30t-45.5 7h-45q-20 1 -26 11z" />
<glyph unicode="w" horiz-adv-x="1570" d="M48 894q-3 5 -2 15q0 11 3 29q6 34 15 44.5t34 10.5h64q82 0 115.5 -29.5t39.5 -105.5l43 -571q7 -103 7 -181h22q46 122 76 185l309 670q12 27 29.5 37t52.5 10h68q34 0 48 -9.5t15 -35.5l45 -672q6 -92 6 -185h23q36 99 78 187l309 678q10 20 29 28.5t61 8.5 q39 0 50 -9q6 -5 6 -14q0 -6 -3 -14l-448 -938q-12 -26 -30.5 -35.5t-51.5 -9.5h-68q-34 0 -49 10.5t-16 36.5l-49 672q-2 33 -2 71q0 54 4 119h-23q-37 -117 -74 -192l-311 -670q-12 -27 -29.5 -37t-50.5 -10h-76q-60 0 -63 45l-74 813q-1 23 -13.5 30t-47.5 7h-45 q-20 1 -26 11z" />
<glyph unicode="x" horiz-adv-x="1181" d="M36 10q-2 5 -2 15q0 11 3 30q6 34 15.5 45t33.5 11h35q52 0 76 30l313 396l-148 303q-15 27 -30 35t-45 8h-35q-20 0 -25.5 10.5t0.5 44.5t15 44.5t34 10.5h43q60 0 98.5 -26t69.5 -95l142 -315h24l314 414q14 20 31.5 28.5t58.5 8.5q26 0 41 -6q17 -6 17 -17 q0 -7 -5 -14l-371 -486l181 -338q12 -23 24.5 -29.5t44.5 -6.5h31q19 0 24 -10.5t0 -45.5q-6 -34 -15 -44.5t-34 -10.5h-32q-63 0 -99 23.5t-67 85.5l-174 354h-25l-274 -348q-50 -63 -100.5 -89t-117.5 -26h-45q-21 0 -25 10z" />
<glyph unicode="y" horiz-adv-x="1028" d="M-154 -428q0 13 13 39q15 30 26.5 35.5t34.5 -2.5q55 -19 121 -19q102 0 165.5 54t147.5 217l47 92q-16 3 -22.5 9t-9.5 19l-187 830q-4 23 -15.5 30t-45.5 7h-45q-20 0 -25.5 10.5t0.5 44.5t15 44.5t34 10.5h64q74 0 108 -28t52 -109l116 -545q23 -111 23 -205v-22h22 q36 125 90 233l332 654q9 20 29 28.5t61 8.5q40 0 51 -9q7 -5 7 -13q0 -7 -4 -15l-543 -1045q-41 -79 -68 -127t-63 -100.5t-68 -81.5t-74 -54.5t-91 -35.5t-111 -10q-106 0 -168 32q-19 10 -19 23z" />
<glyph unicode="z" horiz-adv-x="1163" d="M61 70l9 53q5 31 21.5 53.5t72.5 67.5l598 475q80 65 217 153v19h-631l-24 -117q-5 -20 -20.5 -27.5t-55.5 -7.5q-34 0 -44 7.5t-7 27.5l28 146q8 42 31.5 57.5t83.5 15.5h680q58 -1 74 -13q11 -9 10 -32q0 -11 -2 -24l-6 -39q-5 -33 -26 -60.5t-73 -68.5l-618 -494 q-77 -62 -197 -139v-21h660l26 144q3 19 18 26t58 7q37 0 47.5 -7t7.5 -26l-32 -172q-8 -42 -31.5 -58t-85.5 -16h-707q-58 0 -73 14q-11 10 -11 34q0 10 2 22z" />
<glyph unicode="{" horiz-adv-x="868" d="M138.5 639q-3.5 10 2.5 39q7 31 14 40t23 9h8q70 0 127 74t86 221l47 231q26 134 61.5 219.5t89 136.5t122 71t168.5 20h39q19 0 24 -9.5t0 -41.5q-6 -33 -15 -42.5t-30 -9.5h-22q-98 0 -154.5 -28.5t-96 -106.5t-69.5 -229l-37 -191q-30 -152 -83 -232t-140 -120l-4 -22 q77 -53 95 -133.5t-13 -237.5l-35 -176q-16 -79 -22 -134.5t-2.5 -97.5t16 -66.5t39.5 -40t61 -21t86 -5.5h33q20 0 25.5 -10t-0.5 -41q-6 -32 -15 -41.5t-30 -9.5h-48q-194 0 -256 106t-10 357l39 190q24 115 15 186.5t-37 103.5t-72 32h-8q-18 0 -21.5 10z" />
<glyph unicode="|" horiz-adv-x="856" d="M174 -322l387 2003q3 18 17 25.5t47 7.5q35 0 47.5 -8.5t9.5 -24.5l-387 -2003q-3 -18 -17 -25t-47 -7q-35 0 -47.5 8t-9.5 24z" />
<glyph unicode="}" horiz-adv-x="878" d="M-82.5 -336q-5.5 10 0.5 41q6 32 15 41.5t30 9.5h33q73 0 120.5 14.5t86 55.5t64.5 111t48 184l37 190q30 153 83 234t140 121l5 22q-77 53 -95 132.5t13 236.5l34 176q16 79 22 134.5t2.5 97t-16 66.5t-39.5 40t-61 20.5t-86 5.5h-24q-20 0 -25.5 10.5t0.5 41.5 q6 32 15 41.5t30 9.5h39q194 0 256 -106t10 -357l-39 -190q-24 -115 -14.5 -186t37.5 -102.5t72 -31.5h8q18 0 21.5 -10t-3.5 -39q-7 -31 -14 -40t-23 -9h-8q-69 0 -126 -74.5t-87 -222.5l-47 -232q-26 -134 -61 -219.5t-89 -136.5t-122 -70.5t-168 -19.5h-49 q-20 0 -25.5 10z" />
<glyph unicode="~" horiz-adv-x="1366" d="M126.5 678.5q-3.5 12.5 8.5 32.5q66 105 152.5 150.5t208.5 45.5q64 0 116 -19t85 -46.5t62.5 -55t66 -46.5t79.5 -19q74 0 127.5 31t100.5 104q21 34 71 4q27 -15 31.5 -26t-6.5 -31q-55 -99 -143 -152t-197 -53q-60 0 -110 19t-84.5 46t-66 54t-71.5 46t-86 19 q-80 0 -130.5 -28t-111.5 -113q-12 -17 -27.5 -15.5t-47.5 23.5q-24 17 -27.5 29.5z" />
<glyph unicode="&#xa1;" horiz-adv-x="743" d="M63 -434l218 995q6 31 61 31q53 0 49 -31l-170 -995q-4 -23 -23 -32t-63 -9q-45 0 -61 9.5t-11 31.5zM276 885q0 63 31.5 99t83.5 36h25q86 0 86 -80q0 -64 -23 -93.5t-71 -29.5h-64q-36 0 -52 16t-16 52z" />
<glyph unicode="&#xa2;" horiz-adv-x="1366" d="M188 389q0 97 19.5 184.5t63.5 167.5t110 139t165 96t222 42l31 137q6 37 73 37q36 0 50.5 -9.5t11.5 -27.5l-31 -139q112 -7 180 -25q62 -19 79 -47.5t5 -97.5l-14 -78q-5 -22 -19.5 -30.5t-52.5 -8.5q-37 0 -46.5 7t-6.5 28l21 125q-91 26 -256 26q-98 0 -178.5 -29.5 t-134 -79.5t-90 -117t-52.5 -139.5t-16 -150.5q0 -163 77.5 -239t257.5 -76q71 0 166 14.5t168 40.5q21 9 31 2.5t22 -39.5q7 -21 8 -31.5t-4.5 -17t-19.5 -12.5q-112 -49 -328 -64l-24 -124q-5 -21 -20.5 -29t-55.5 -8q-39 0 -51.5 8.5t-9.5 25.5l24 127 q-197 13 -286 112.5t-89 299.5z" />
<glyph unicode="&#xa3;" horiz-adv-x="1366" d="M17 12q-5 12 3 43q9 39 17 49.5t29 10.5q81 0 125 46t67 161l72 368h-105q-21 0 -26 9.5t2 43.5q7 36 16 47t29 11h104l25 123q61 305 202 440t396 135q89 0 178.5 -18.5t144.5 -48.5q42 -23 53 -53.5t-1 -90.5l-25 -127q-5 -28 -22 -38.5t-64 -10.5q-38 0 -51 9t-10 30 l34 184q-118 41 -256 41q-184 0 -280.5 -100.5t-143.5 -347.5l-24 -127h467q19 0 23.5 -11t0.5 -47q-4 -34 -13 -43.5t-32 -9.5h-467l-69 -354q-17 -88 -42 -131t-77 -74l-4 -16h696l41 207q5 21 20.5 29.5t57.5 8.5q41 0 56 -9t10 -29l-50 -242q-9 -49 -29.5 -64.5 t-74.5 -15.5h-975q-23 0 -28 12z" />
<glyph unicode="&#xa5;" horiz-adv-x="1366" d="M145 502.5q-4 8.5 2 42.5q6 35 14 45t29 10h369l-94 238h-232q-20 0 -24 8.5t2 42.5q6 35 14 45t29 10h170l-162 416h-76q-21 0 -26 11.5t2 45.5t17.5 46t29.5 12h414q21 0 26 -12t-2 -46t-17 -45.5t-30 -11.5h-184l170 -463q42 -119 67 -256h23q65 119 170 256l362 463 h-207q-21 0 -26 11.5t2 45.5t17.5 46t29.5 12h418q21 0 26 -12t-2 -46t-17 -45.5t-30 -11.5h-61l-324 -416h172q19 0 24 -10.5t-1 -44.5q-6 -33 -13 -42t-28 -9h-236l-186 -238h379q19 0 23.5 -10.5t-1.5 -44.5q-6 -33 -13 -42t-28 -9h-413l-74 -379h172q21 0 26.5 -12 t-1.5 -46t-17.5 -45.5t-30.5 -11.5h-479q-21 0 -26 11.5t2 45.5t17.5 46t29.5 12h168l71 379h-401q-21 0 -25 8.5z" />
<glyph unicode="&#xa8;" horiz-adv-x="1024" d="M334 1231q-1 58 24.5 89.5t71.5 31.5h8q82 0 82 -68q1 -57 -18.5 -82.5t-63.5 -25.5h-43q-32 0 -45.5 13.5t-15.5 41.5zM762 1231q-1 58 24.5 89.5t71.5 31.5h8q82 0 82 -68q1 -57 -18.5 -82.5t-63.5 -25.5h-43q-32 0 -45.5 13.5t-15.5 41.5z" />
<glyph unicode="&#xa9;" horiz-adv-x="1730" d="M102 557q0 198 59 370t168 299t273 200t363 73q663 0 663 -573q0 -158 -35 -299.5t-106.5 -261t-173.5 -206.5t-244 -135.5t-309 -48.5q-337 0 -497.5 143t-160.5 439zM258 559q0 -235 124.5 -348t391.5 -113q158 0 290 63t221 173t138.5 259.5t49.5 321.5 q0 461 -523 461q-128 0 -239.5 -43t-193.5 -119.5t-141 -179t-88.5 -224t-29.5 -251.5zM471 664q0 212 126.5 344.5t356.5 132.5q146 0 215.5 -40.5t57.5 -107.5l-17 -90q-5 -27 -19 -35t-58 -8q-46 0 -59 8.5t-9 36.5l16 90q-69 19 -147 19q-145 0 -226 -87.5t-81 -256.5 q0 -108 56 -156.5t187 -48.5q85 0 185 29q24 6 33.5 -1.5t19.5 -43.5q10 -34 6 -46.5t-27 -21.5q-109 -45 -262 -45q-181 0 -267.5 82t-86.5 246z" />
<glyph unicode="&#xab;" horiz-adv-x="1150" d="M133 518l6 27q11 55 60 106l286 297q17 18 37.5 24.5t61.5 6.5q43 0 51 -12.5t-17 -38.5l-395 -418l238 -408q16 -28 5.5 -40.5t-52.5 -12.5q-34 0 -51 7t-27 26l-186 315q-31 54 -17 121zM522 518l6 27q11 55 60 106l286 297q17 18 37.5 24.5t61.5 6.5q83 0 35 -51 l-396 -418l238 -408q16 -28 5.5 -40.5t-52.5 -12.5q-34 0 -51 7t-27 26l-186 315q-31 54 -17 121z" />
<glyph unicode="&#xad;" horiz-adv-x="694" d="M113 473q-5 12 2 41q8 34 15.5 44.5t29.5 10.5h356q20 0 24.5 -12t-1.5 -43q-5 -31 -13 -42t-30 -11h-357q-21 0 -26 12z" />
<glyph unicode="&#xae;" horiz-adv-x="1730" d="M102 557q0 198 59 370t168 299t273 200t363 73q663 0 663 -573q0 -158 -35 -299.5t-106.5 -261t-173.5 -206.5t-244 -135.5t-309 -48.5q-337 0 -497.5 143t-160.5 439zM258 559q0 -235 124.5 -348t391.5 -113q158 0 290 63t221 173t138.5 259.5t49.5 321.5 q0 461 -523 461q-128 0 -239.5 -43t-193.5 -119.5t-141 -179t-88.5 -224t-29.5 -251.5zM431.5 361q-5.5 13 0.5 51q6 35 16 46t33 11h66l102 539h-57q-21 0 -26.5 11t1.5 48q7 36 17 48.5t30 12.5h336q144 0 217.5 -57t73.5 -158q0 -80 -45 -144t-135 -99l72 -201h41 q19 0 24 -11t-2 -48q-7 -39 -16 -50.5t-31 -11.5h-70q-45 0 -65.5 20.5t-44.5 92.5l-62 182h-178l-33 -174h70q20 0 25.5 -12.5t-0.5 -50.5q-6 -35 -16.5 -46.5t-33.5 -11.5h-284q-20 0 -25.5 13zM752 760h147q90 0 139 37t49 102q0 60 -44 84.5t-160 24.5h-84z" />
<glyph unicode="&#xb4;" horiz-adv-x="1024" d="M375 1132q2 7 8 13l295 272q45 41 129 41q66 0 69 -23q1 -9 -10 -18l-331 -272q-47 -35 -105 -35t-55 22z" />
<glyph unicode="&#xb8;" horiz-adv-x="1024" d="M141.5 -370q-1.5 9 8.5 36q10 24 19.5 32t23.5 3q63 -18 108 -18q54 0 84.5 23t30.5 61q0 26 -28 41.5t-79 15.5q-28 0 -37 8t-6 27l29 143q3 18 15.5 25.5t45.5 7.5q31 0 40 -6t5 -27l-16 -86q63 -8 99.5 -43t37.5 -90q0 -93 -57.5 -143t-167.5 -50q-81 0 -141 25 q-13 6 -14.5 15z" />
<glyph unicode="&#xbb;" horiz-adv-x="1146" d="M119 100l395 418l-238 408q-16 28 -5 40.5t53 12.5q34 0 50 -7t27 -26l187 -315q30 -52 16 -121l-6 -27q-12 -56 -59 -106l-287 -297q-17 -18 -37.5 -24.5t-60.5 -6.5q-83 0 -35 51zM508 100l395 418l-237 408q-16 28 -5.5 40.5t52.5 12.5q34 0 51 -7t27 -26l186 -315 q30 -52 16 -121l-6 -27q-12 -56 -59 -106l-287 -297q-17 -18 -37.5 -24.5t-60.5 -6.5q-83 0 -35 51z" />
<glyph unicode="&#xbf;" horiz-adv-x="1300" d="M-33 -174q0 129 64.5 218.5t218.5 172.5l145 78q122 65 158 99.5t49 103.5l10 53q5 21 22 29t58 8q37 0 51 -9t11 -28l-11 -47q-23 -103 -70.5 -167t-150.5 -116l-160 -80q-147 -74 -196 -138t-49 -175q0 -103 82.5 -152t283.5 -49q86 0 188.5 15.5t180.5 40.5l37 192 q6 30 23 39.5t61 9.5q37 0 47.5 -9t7.5 -30l-31 -155q-23 -121 -147 -166q-160 -56 -391 -56q-262 0 -377 75.5t-115 242.5zM629 885q0 64 31 99.5t83 35.5h25q86 0 86 -80q0 -64 -23 -93.5t-71 -29.5h-64q-36 0 -51.5 15.5t-15.5 52.5z" />
<glyph unicode="&#xc0;" horiz-adv-x="1693" d="M-73.5 11.5q-5.5 11.5 1.5 45.5t17.5 46t29.5 12h105l780 1288q29 49 53.5 66.5t61.5 17.5h31q40 0 62 -19.5t34 -68.5l301 -1284h113q21 0 26 -12t-2 -46t-17 -45.5t-30 -11.5h-436q-21 0 -26.5 11.5t1.5 45.5t17.5 46t29.5 12h170l-80 379h-712l-224 -379h191 q21 0 26.5 -12t-1.5 -46t-17.5 -45.5t-30.5 -11.5h-448q-21 0 -26.5 11.5zM526 606h619l-107 508q-27 132 -45 264h-22q-74 -151 -142 -266zM754 1876q-23 23 5 40q20 11 56 11q45 0 71 -9t48 -32l219 -237q17 -17 4 -33.5t-53 -16.5q-55 0 -90 35z" />
<glyph unicode="&#xc1;" horiz-adv-x="1693" d="M-73.5 11.5q-5.5 11.5 1.5 45.5t17.5 46t29.5 12h105l780 1288q29 49 53.5 66.5t61.5 17.5h31q40 0 62 -19.5t34 -68.5l301 -1284h113q21 0 26 -12t-2 -46t-17 -45.5t-30 -11.5h-436q-21 0 -26.5 11.5t1.5 45.5t17.5 46t29.5 12h170l-80 379h-712l-224 -379h191 q21 0 26.5 -12t-1.5 -46t-17.5 -45.5t-30.5 -11.5h-448q-21 0 -26.5 11.5zM526 606h619l-107 508q-27 132 -45 264h-22q-74 -151 -142 -266zM820 1620q-4 12 9 22l310 244q53 41 145 41q52 0 64 -23q8 -16 -11 -28l-346 -242q-49 -35 -114 -35q-49 0 -57 21z" />
<glyph unicode="&#xc2;" horiz-adv-x="1693" d="M-73.5 11.5q-5.5 11.5 1.5 45.5t17.5 46t29.5 12h105l780 1288q29 49 53.5 66.5t61.5 17.5h31q40 0 62 -19.5t34 -68.5l301 -1284h113q21 0 26 -12t-2 -46t-17 -45.5t-30 -11.5h-436q-21 0 -26.5 11.5t1.5 45.5t17.5 46t29.5 12h170l-80 379h-712l-224 -379h191 q21 0 26.5 -12t-1.5 -46t-17.5 -45.5t-30.5 -11.5h-448q-21 0 -26.5 11.5zM526 606h619l-107 508q-27 132 -45 264h-22q-74 -151 -142 -266zM621 1624q2 10 16 21l305 243q51 39 98 39h17q36 0 57 -8.5t41 -32.5l221 -241q23 -27 -14 -39q-20 -7 -55 -7q-38 0 -60.5 8 t-40.5 29l-168 191l-229 -189q-24 -21 -50.5 -30t-70.5 -9q-70 0 -67 25z" />
<glyph unicode="&#xc3;" horiz-adv-x="1693" d="M-73.5 11.5q-5.5 11.5 1.5 45.5t17.5 46t29.5 12h105l780 1288q29 49 53.5 66.5t61.5 17.5h31q40 0 62 -19.5t34 -68.5l301 -1284h113q21 0 26 -12t-2 -46t-17 -45.5t-30 -11.5h-436q-21 0 -26.5 11.5t1.5 45.5t17.5 46t29.5 12h170l-80 379h-712l-224 -379h191 q21 0 26.5 -12t-1.5 -46t-17.5 -45.5t-30.5 -11.5h-448q-21 0 -26.5 11.5zM526 606h619l-107 508q-27 132 -45 264h-22q-74 -151 -142 -266zM614.5 1718q-4.5 13 6.5 31q87 145 253 145q57 0 107.5 -20.5t80.5 -45t68 -45t74 -20.5q75 0 117 86q11 22 24 25t50 -12 q26 -10 31 -22.5t-5 -33.5q-73 -155 -243 -155q-47 0 -86.5 13.5t-66.5 32.5t-52 37.5t-55 32t-64 13.5q-38 0 -68 -18.5t-69 -71.5q-25 -36 -74 -2q-24 17 -28.5 30z" />
<glyph unicode="&#xc4;" horiz-adv-x="1693" d="M-73.5 11.5q-5.5 11.5 1.5 45.5t17.5 46t29.5 12h105l780 1288q29 49 53.5 66.5t61.5 17.5h31q40 0 62 -19.5t34 -68.5l301 -1284h113q21 0 26 -12t-2 -46t-17 -45.5t-30 -11.5h-436q-21 0 -26.5 11.5t1.5 45.5t17.5 46t29.5 12h170l-80 379h-712l-224 -379h191 q21 0 26.5 -12t-1.5 -46t-17.5 -45.5t-30.5 -11.5h-448q-21 0 -26.5 11.5zM526 606h619l-107 508q-27 132 -45 264h-22q-74 -151 -142 -266zM653 1724q-3 62 24 95.5t77 33.5h22q44 0 64 -17t22 -54q3 -115 -86 -115h-59q-34 0 -48 13t-16 44zM1174 1724q-1 63 24.5 96 t75.5 33h22q83 0 86 -71q1 -60 -20 -87.5t-66 -27.5h-59q-33 0 -47 13t-16 44z" />
<glyph unicode="&#xc5;" horiz-adv-x="1693" d="M-73.5 11.5q-5.5 11.5 1.5 45.5t17.5 46t29.5 12h105l780 1288q29 49 53.5 66.5t61.5 17.5h31q40 0 62 -19.5t34 -68.5l301 -1284h113q21 0 26 -12t-2 -46t-17 -45.5t-30 -11.5h-436q-21 0 -26.5 11.5t1.5 45.5t17.5 46t29.5 12h170l-80 379h-712l-224 -379h191 q21 0 26.5 -12t-1.5 -46t-17.5 -45.5t-30.5 -11.5h-448q-21 0 -26.5 11.5zM526 606h619l-107 508q-27 132 -45 264h-22q-74 -151 -142 -266zM823 1724q-3 110 66 179t188 69q181 0 187 -162q2 -110 -65 -179.5t-193 -69.5q-92 0 -136 39.5t-47 123.5zM938 1739q3 -78 86 -78 q58 0 92 36.5t33 98.5q-3 76 -88 76q-56 0 -90.5 -37.5t-32.5 -95.5z" />
<glyph unicode="&#xc6;" horiz-adv-x="2338" d="M-98 11.5q-5 11.5 2 45.5t17.5 46t29.5 12h90l1192 1288q38 42 81.5 57t121.5 15h827q55 0 69 -16t5 -66l-45 -242q-6 -37 -74 -37q-37 0 -48.5 7.5t-8.5 29.5l37 209h-728l-106 -553h520l23 113q7 36 73 34q38 -1 50.5 -8.5t9.5 -25.5l-66 -340q-3 -19 -19.5 -28 t-53.5 -9t-49.5 8t-8.5 29l23 118h-525l-112 -583h743l39 209q7 37 74 34q37 -1 49.5 -8.5t9.5 -25.5l-45 -242q-9 -49 -31 -65.5t-77 -16.5h-1022q-21 0 -26.5 11.5t1.5 45.5t17.5 46t29.5 12h96l68 338h-633l-309 -338h188q21 0 26.5 -12t-1.5 -46t-17 -45.5t-30 -11.5 h-451q-21 0 -26 11.5zM623 559h553l155 803h-12q-109 -160 -266 -334z" />
<glyph unicode="&#xc7;" horiz-adv-x="1425" d="M106 559q0 179 42 330.5t119.5 263.5t185.5 190t241 117t285 39q182 0 328 -45q66 -21 87.5 -53.5t8.5 -100.5l-29 -143q-6 -28 -22 -37.5t-62 -9.5q-34 0 -44 8t-7 29l37 196q-170 46 -326 46q-221 0 -381 -107t-239.5 -291.5t-79.5 -425.5q0 -126 25 -213.5t83 -147.5 t153 -88t234 -28q185 0 363 53q16 5 27 -5t18 -42q6 -33 2 -44.5t-20 -16.5q-184 -55 -385 -58l-11 -59q64 -8 101 -43t37 -90q0 -93 -58 -143t-168 -50q-81 0 -141 25q-13 6 -14.5 15t8.5 36q10 24 19.5 32t23.5 3q63 -18 108 -18q54 0 84.5 23t30.5 61q0 27 -28 42t-78 15 q-28 0 -37 8t-6 27l22 118q-280 17 -408.5 159t-128.5 423z" />
<glyph unicode="&#xc8;" horiz-adv-x="1411" d="M-12 11.5q-5 11.5 2 45.5t17.5 46t29.5 12h98l242 1245h-98q-21 0 -26.5 11.5t1.5 45.5t17.5 46t29.5 12h1034q55 0 69 -16t5 -66l-45 -242q-6 -37 -74 -37q-37 0 -48.5 7.5t-8.5 29.5l37 209h-754l-106 -553h546l23 113q7 37 74 34q37 -1 49.5 -8.5t9.5 -25.5l-65 -340 q-6 -37 -74 -37q-37 0 -49.5 8t-8.5 29l23 118h-551l-113 -583h770l39 209q7 37 74 34q38 -1 50.5 -8.5t9.5 -25.5l-46 -242q-9 -49 -31 -65.5t-77 -16.5h-1049q-21 0 -26 11.5zM623 1876q-23 23 5 40q20 11 56 11q45 0 71 -9t48 -32l219 -237q17 -17 4 -33.5t-53 -16.5 q-55 0 -90 35z" />
<glyph unicode="&#xc9;" horiz-adv-x="1411" d="M-12 11.5q-5 11.5 2 45.5t17.5 46t29.5 12h98l242 1245h-98q-21 0 -26.5 11.5t1.5 45.5t17.5 46t29.5 12h1034q55 0 69 -16t5 -66l-45 -242q-6 -37 -74 -37q-37 0 -48.5 7.5t-8.5 29.5l37 209h-754l-106 -553h546l23 113q7 37 74 34q37 -1 49.5 -8.5t9.5 -25.5l-65 -340 q-6 -37 -74 -37q-37 0 -49.5 8t-8.5 29l23 118h-551l-113 -583h770l39 209q7 37 74 34q38 -1 50.5 -8.5t9.5 -25.5l-46 -242q-9 -49 -31 -65.5t-77 -16.5h-1049q-21 0 -26 11.5zM745 1621q-2 12 9 21l309 244q53 41 145 41q53 0 65 -24q8 -15 -11 -27l-347 -242 q-49 -35 -114 -35q-50 0 -56 22z" />
<glyph unicode="&#xca;" horiz-adv-x="1411" d="M-12 11.5q-5 11.5 2 45.5t17.5 46t29.5 12h98l242 1245h-98q-21 0 -26.5 11.5t1.5 45.5t17.5 46t29.5 12h1034q55 0 69 -16t5 -66l-45 -242q-6 -37 -74 -37q-37 0 -48.5 7.5t-8.5 29.5l37 209h-754l-106 -553h546l23 113q7 37 74 34q37 -1 49.5 -8.5t9.5 -25.5l-65 -340 q-6 -37 -74 -37q-37 0 -49.5 8t-8.5 29l23 118h-551l-113 -583h770l39 209q7 37 74 34q38 -1 50.5 -8.5t9.5 -25.5l-46 -242q-9 -49 -31 -65.5t-77 -16.5h-1049q-21 0 -26 11.5zM508 1624q2 10 16 21l305 243q51 39 99 39h16q36 0 57 -8.5t41 -32.5l222 -241q23 -26 -13 -39 q-22 -7 -57 -7q-38 0 -60 8t-40 29l-168 191l-230 -189q-24 -21 -50.5 -30t-70.5 -9q-70 0 -67 25z" />
<glyph unicode="&#xcb;" horiz-adv-x="1411" d="M-12 11.5q-5 11.5 2 45.5t17.5 46t29.5 12h98l242 1245h-98q-21 0 -26.5 11.5t1.5 45.5t17.5 46t29.5 12h1034q55 0 69 -16t5 -66l-45 -242q-6 -37 -74 -37q-37 0 -48.5 7.5t-8.5 29.5l37 209h-754l-106 -553h546l23 113q7 37 74 34q37 -1 49.5 -8.5t9.5 -25.5l-65 -340 q-6 -37 -74 -37q-37 0 -49.5 8t-8.5 29l23 118h-551l-113 -583h770l39 209q7 37 74 34q38 -1 50.5 -8.5t9.5 -25.5l-46 -242q-9 -49 -31 -65.5t-77 -16.5h-1049q-21 0 -26 11.5zM559 1724q-3 62 23.5 95.5t76.5 33.5h23q44 0 64 -17t22 -54q3 -115 -86 -115h-59 q-34 0 -48 13t-16 44zM1079 1724q-1 63 25 96t76 33h22q83 0 86 -71q1 -60 -20 -87.5t-66 -27.5h-59q-34 0 -48 13t-16 44z" />
<glyph unicode="&#xcc;" horiz-adv-x="630" d="M-12 11.5q-5 11.5 2 45.5t17.5 46t29.5 12h98l242 1245h-98q-21 0 -26.5 11.5t1.5 45.5t17.5 46t29.5 12h336q21 0 26.5 -12t-1.5 -46t-17.5 -45.5t-30.5 -11.5h-98l-242 -1245h99q21 0 26 -12t-2 -46t-17 -45.5t-30 -11.5h-336q-21 0 -26 11.5zM227 1876q-23 23 5 39 q21 12 57 12q45 0 71 -9t48 -32l219 -237q17 -17 4 -33.5t-53 -16.5q-56 0 -91 35z" />
<glyph unicode="&#xcd;" horiz-adv-x="630" d="M-12 11.5q-5 11.5 2 45.5t17.5 46t29.5 12h98l242 1245h-98q-21 0 -26.5 11.5t1.5 45.5t17.5 46t29.5 12h336q21 0 26.5 -12t-1.5 -46t-17.5 -45.5t-30.5 -11.5h-98l-242 -1245h99q21 0 26 -12t-2 -46t-17 -45.5t-30 -11.5h-336q-21 0 -26 11.5zM304 1621q-2 12 9 21 l310 244q53 41 145 41q52 0 64 -23q8 -16 -11 -28l-346 -242q-49 -35 -115 -35q-50 0 -56 22z" />
<glyph unicode="&#xce;" horiz-adv-x="630" d="M-12 11.5q-5 11.5 2 45.5t17.5 46t29.5 12h98l242 1245h-98q-21 0 -26.5 11.5t1.5 45.5t17.5 46t29.5 12h336q21 0 26.5 -12t-1.5 -46t-17.5 -45.5t-30.5 -11.5h-98l-242 -1245h99q21 0 26 -12t-2 -46t-17 -45.5t-30 -11.5h-336q-21 0 -26 11.5zM99 1624q2 10 16 21 l305 243q51 39 98 39h17q36 0 57 -8.5t41 -32.5l221 -241q23 -26 -13 -39q-21 -7 -57 -7q-38 0 -60 8t-40 29l-168 191l-229 -189q-24 -21 -50.5 -30t-70.5 -9q-70 0 -67 25z" />
<glyph unicode="&#xcf;" horiz-adv-x="630" d="M-12 11.5q-5 11.5 2 45.5t17.5 46t29.5 12h98l242 1245h-98q-21 0 -26.5 11.5t1.5 45.5t17.5 46t29.5 12h336q21 0 26.5 -12t-1.5 -46t-17.5 -45.5t-30.5 -11.5h-98l-242 -1245h99q21 0 26 -12t-2 -46t-17 -45.5t-30 -11.5h-336q-21 0 -26 11.5zM143 1724q-3 62 24 95.5 t77 33.5h22q44 0 64 -17t22 -54q3 -115 -86 -115h-59q-34 0 -48 13t-16 44zM664 1724q-1 63 24.5 96t75.5 33h22q83 0 86 -71q1 -60 -20 -87.5t-66 -27.5h-59q-33 0 -47 13t-16 44z" />
<glyph unicode="&#xd0;" horiz-adv-x="1509" d="M-12 11.5q-5 11.5 2 45.5t17.5 46t29.5 12h98l109 561h-185q-21 0 -25 9.5t3 43.5q9 37 16 46t27 9h184l113 576h-98q-21 0 -26.5 11.5t1.5 45.5t17.5 46t29.5 12h449q653 0 653 -594q0 -408 -237.5 -644.5t-643.5 -236.5h-508q-21 0 -26 11.5zM274 115h244 q179 0 320.5 55.5t233.5 155.5t140 237.5t48 304.5q0 252 -127.5 372t-403.5 120h-213l-113 -576h191q18 0 24 -10.5t0 -44.5q-6 -32 -14.5 -42.5t-30.5 -10.5h-190z" />
<glyph unicode="&#xd1;" horiz-adv-x="1601" d="M-12 11.5q-5 11.5 2 45.5t17.5 46t29.5 12h98l242 1245h-98q-21 0 -26.5 11.5t1.5 45.5t17.5 46t29.5 12h238q80 0 98 -50l362 -948q81 -214 123 -362h23l241 1245h-165q-21 0 -26.5 11.5t1.5 45.5t17.5 46t29.5 12h393q21 0 26.5 -12t-1.5 -46t-17 -45.5t-30 -11.5h-98 l-256 -1323q-4 -26 -20.5 -36.5t-47.5 -10.5h-84q-48 0 -69 11t-33 44l-373 997q-53 140 -103 324h-22l-244 -1251h166q21 0 26.5 -12t-1.5 -46t-17 -45.5t-30 -11.5h-394q-21 0 -26 11.5zM603.5 1717.5q-4.5 12.5 6.5 31.5q87 145 254 145q57 0 107.5 -20.5t80.5 -45 t68 -45t74 -20.5q75 0 117 86q7 15 14.5 20.5t20.5 4t38 -11.5q26 -10 31.5 -22t-4.5 -34q-73 -155 -244 -155q-47 0 -86.5 13.5t-66 32.5t-51.5 37.5t-55 32t-64 13.5q-38 0 -68 -18.5t-69 -71.5q-25 -36 -74 -2q-25 17 -29.5 29.5z" />
<glyph unicode="&#xd2;" horiz-adv-x="1570" d="M106 549q0 199 55.5 372.5t157 302t253.5 202t335 73.5q557 0 557 -571q0 -215 -58.5 -393.5t-163 -301t-253 -190.5t-325.5 -68q-284 0 -421 141t-137 433zM250 553q0 -238 103.5 -351.5t320.5 -113.5q194 0 343 113t226.5 300.5t77.5 416.5q0 468 -430 468 q-191 0 -339 -113.5t-225 -302t-77 -417.5zM711 1876q-23 23 5 40q20 11 56 11q45 0 71 -9t48 -32l219 -237q17 -17 4 -33.5t-53 -16.5q-55 0 -90 35z" />
<glyph unicode="&#xd3;" horiz-adv-x="1570" d="M106 549q0 199 55.5 372.5t157 302t253.5 202t335 73.5q557 0 557 -571q0 -215 -58.5 -393.5t-163 -301t-253 -190.5t-325.5 -68q-284 0 -421 141t-137 433zM250 553q0 -238 103.5 -351.5t320.5 -113.5q194 0 343 113t226.5 300.5t77.5 416.5q0 468 -430 468 q-191 0 -339 -113.5t-225 -302t-77 -417.5zM702 1621q-2 12 9 21l309 244q53 41 145 41q53 0 65 -24q8 -15 -11 -27l-347 -242q-49 -35 -114 -35q-50 0 -56 22z" />
<glyph unicode="&#xd4;" horiz-adv-x="1570" d="M106 549q0 199 55.5 372.5t157 302t253.5 202t335 73.5q557 0 557 -571q0 -215 -58.5 -393.5t-163 -301t-253 -190.5t-325.5 -68q-284 0 -421 141t-137 433zM250 553q0 -238 103.5 -351.5t320.5 -113.5q194 0 343 113t226.5 300.5t77.5 416.5q0 468 -430 468 q-191 0 -339 -113.5t-225 -302t-77 -417.5zM543 1624q2 10 16 21l305 243q51 39 99 39h16q36 0 57 -8.5t41 -32.5l221 -241q23 -27 -14 -39q-20 -7 -55 -7q-38 0 -60.5 8t-40.5 29l-167 191l-230 -189q-24 -21 -50.5 -30t-70.5 -9q-70 0 -67 25z" />
<glyph unicode="&#xd5;" horiz-adv-x="1570" d="M106 549q0 199 55.5 372.5t157 302t253.5 202t335 73.5q557 0 557 -571q0 -215 -58.5 -393.5t-163 -301t-253 -190.5t-325.5 -68q-284 0 -421 141t-137 433zM250 553q0 -238 103.5 -351.5t320.5 -113.5q194 0 343 113t226.5 300.5t77.5 416.5q0 468 -430 468 q-191 0 -339 -113.5t-225 -302t-77 -417.5zM571.5 1718q-4.5 13 6.5 31q87 145 253 145q57 0 107.5 -20.5t80.5 -45t68 -45t74 -20.5q75 0 117 86q11 22 24 25t50 -12q26 -10 31 -22.5t-5 -33.5q-73 -155 -243 -155q-47 0 -86.5 13.5t-66.5 32.5t-52 37.5t-55 32t-64 13.5 q-38 0 -68 -18.5t-69 -71.5q-25 -36 -74 -2q-24 17 -28.5 30z" />
<glyph unicode="&#xd6;" horiz-adv-x="1570" d="M106 549q0 199 55.5 372.5t157 302t253.5 202t335 73.5q557 0 557 -571q0 -215 -58.5 -393.5t-163 -301t-253 -190.5t-325.5 -68q-284 0 -421 141t-137 433zM250 553q0 -238 103.5 -351.5t320.5 -113.5q194 0 343 113t226.5 300.5t77.5 416.5q0 468 -430 468 q-191 0 -339 -113.5t-225 -302t-77 -417.5zM600 1724q-3 62 23.5 95.5t76.5 33.5h23q44 0 64 -17t22 -54q3 -115 -86 -115h-59q-34 0 -48 13t-16 44zM1120 1724q-1 63 25 96t76 33h22q83 0 86 -71q1 -60 -20 -87.5t-66 -27.5h-59q-34 0 -48 13t-16 44z" />
<glyph unicode="&#xd8;" horiz-adv-x="1570" d="M68 -193.5q1 4.5 4 9.5l190 280q-156 138 -156 453q0 199 55.5 372.5t157 302t253.5 202t335 73.5q155 0 273 -47l143 213q19 29 102 29q37 0 49 -9.5t1 -27.5l-185 -273q174 -141 174 -456q0 -215 -58.5 -393.5t-163 -301t-253 -190.5t-325.5 -68q-172 0 -295 54 l-148 -219q-19 -27 -94 -27q-18 0 -30 2t-18.5 5t-9 7.5t-1.5 9zM250 553q0 -227 92 -338l764 1131q-87 40 -215 40q-191 0 -339 -113.5t-225 -302t-77 -417.5zM440 133q89 -45 234 -45q194 0 343 113t226.5 300.5t77.5 416.5q0 231 -109 352z" />
<glyph unicode="&#xd9;" horiz-adv-x="1523" d="M156 371q0 97 20 200l154 789h-90q-21 0 -26.5 11.5t1.5 45.5t17.5 46t29.5 12h371q21 0 26 -12t-2 -46t-17 -45.5t-30 -11.5h-141l-154 -793q-20 -113 -20 -188q0 -148 84 -219.5t258 -71.5q218 0 348 113.5t180 363.5l158 795h-141q-21 0 -26.5 11.5t1.5 45.5t17.5 46 t29.5 12h375q21 0 26.5 -12t-1.5 -46t-17.5 -45.5t-30.5 -11.5h-96l-157 -789q-63 -312 -232.5 -454t-445.5 -142q-242 0 -355.5 100.5t-113.5 295.5zM651 1876q-23 23 5 39q21 12 57 12q44 0 70 -9t48 -32l220 -237q9 -12 8.5 -23t-16 -19t-42.5 -8q-55 0 -90 35z" />
<glyph unicode="&#xda;" horiz-adv-x="1523" d="M156 371q0 97 20 200l154 789h-90q-21 0 -26.5 11.5t1.5 45.5t17.5 46t29.5 12h371q21 0 26 -12t-2 -46t-17 -45.5t-30 -11.5h-141l-154 -793q-20 -113 -20 -188q0 -148 84 -219.5t258 -71.5q218 0 348 113.5t180 363.5l158 795h-141q-21 0 -26.5 11.5t1.5 45.5t17.5 46 t29.5 12h375q21 0 26.5 -12t-1.5 -46t-17.5 -45.5t-30.5 -11.5h-96l-157 -789q-63 -312 -232.5 -454t-445.5 -142q-242 0 -355.5 100.5t-113.5 295.5zM769 1621q-2 12 9 21l309 244q53 41 146 41q52 0 64 -23q8 -16 -11 -28l-346 -242q-49 -35 -115 -35q-50 0 -56 22z" />
<glyph unicode="&#xdb;" horiz-adv-x="1523" d="M156 371q0 97 20 200l154 789h-90q-21 0 -26.5 11.5t1.5 45.5t17.5 46t29.5 12h371q21 0 26 -12t-2 -46t-17 -45.5t-30 -11.5h-141l-154 -793q-20 -113 -20 -188q0 -148 84 -219.5t258 -71.5q218 0 348 113.5t180 363.5l158 795h-141q-21 0 -26.5 11.5t1.5 45.5t17.5 46 t29.5 12h375q21 0 26.5 -12t-1.5 -46t-17.5 -45.5t-30.5 -11.5h-96l-157 -789q-63 -312 -232.5 -454t-445.5 -142q-242 0 -355.5 100.5t-113.5 295.5zM539 1624q2 10 16 21l305 243q51 39 98 39h17q36 0 57 -8.5t41 -32.5l221 -241q23 -27 -14 -39q-20 -7 -55 -7 q-38 0 -60.5 8t-40.5 29l-168 191l-229 -189q-24 -21 -50.5 -30t-70.5 -9q-70 0 -67 25z" />
<glyph unicode="&#xdc;" horiz-adv-x="1523" d="M156 371q0 97 20 200l154 789h-90q-21 0 -26.5 11.5t1.5 45.5t17.5 46t29.5 12h371q21 0 26 -12t-2 -46t-17 -45.5t-30 -11.5h-141l-154 -793q-20 -113 -20 -188q0 -148 84 -219.5t258 -71.5q218 0 348 113.5t180 363.5l158 795h-141q-21 0 -26.5 11.5t1.5 45.5t17.5 46 t29.5 12h375q21 0 26.5 -12t-1.5 -46t-17.5 -45.5t-30.5 -11.5h-96l-157 -789q-63 -312 -232.5 -454t-445.5 -142q-242 0 -355.5 100.5t-113.5 295.5zM602 1724q-3 62 23.5 95.5t76.5 33.5h23q44 0 64 -17t22 -54q3 -115 -86 -115h-59q-34 0 -48 13t-16 44zM1122 1724 q-1 63 25 96t76 33h22q83 0 86 -71q1 -60 -20 -87.5t-66 -27.5h-59q-34 0 -48 13t-16 44z" />
<glyph unicode="&#xdd;" horiz-adv-x="1452" d="M164 1371.5q-5 11.5 2 45.5t17.5 46t29.5 12h442q21 0 26.5 -12t-1.5 -46t-17 -45.5t-30 -11.5h-191l185 -457q51 -123 75 -262h23q85 151 176 260l371 459h-221q-21 0 -26.5 11.5t1.5 45.5t17.5 46t29.5 12h471q21 0 26.5 -12t-1.5 -46t-17 -45.5t-30 -11.5h-101 l-655 -828l-80 -417h205q21 0 26 -12t-2 -46t-17 -45.5t-30 -11.5h-542q-21 0 -26.5 11.5t1.5 45.5t17.5 46t29.5 12h199l82 426l-338 819h-101q-21 0 -26 11.5zM710 1621q-2 12 9 21l309 244q53 41 146 41q52 0 64 -23q8 -16 -11 -28l-346 -242q-49 -35 -115 -35 q-50 0 -56 22z" />
<glyph unicode="&#xde;" horiz-adv-x="1282" d="M-12 11.5q-5 11.5 2 45.5t17.5 46t29.5 12h98l242 1245h-98q-21 0 -26.5 11.5t1.5 45.5t17.5 46t29.5 12h393q21 0 26.5 -12t-1.5 -46t-17 -45.5t-30 -11.5h-156l-33 -176h211q277 0 406 -93.5t129 -285.5q0 -220 -149.5 -351.5t-420.5 -131.5q-206 0 -309 61h-22 l-54 -268h166q21 0 26.5 -12t-1.5 -46t-17 -45.5t-30 -11.5h-404q-21 0 -26 11.5zM344 475q125 -41 289 -41q232 0 342 96.5t110 257.5q0 145 -97 214t-324 69h-203z" />
<glyph unicode="&#xdf;" horiz-adv-x="1417" d="M63 -434l261 1323h-172q-22 0 -26.5 9.5t1.5 41.5q7 35 15.5 44t31.5 9h170l8 43q43 227 174 345t348 118q177 0 272 -71.5t95 -186.5q0 -66 -22 -118t-57.5 -85.5t-78.5 -61.5t-85.5 -53.5t-78 -52.5t-57.5 -67t-22 -90q0 -55 40.5 -83.5t168.5 -60.5l41 -10 q130 -33 189.5 -99.5t59.5 -168.5q0 -155 -114.5 -235.5t-339.5 -80.5q-127 0 -258 31q-120 29 -95 148l13 59q5 22 21 30.5t57 8.5q34 0 45 -8t8 -27l-19 -100q98 -37 256 -37q148 0 219.5 48.5t71.5 158.5q0 64 -47 103t-170 69l-43 10q-133 31 -185 83.5t-52 143.5 q0 71 22.5 126.5t58 89.5t79 61.5t86.5 51.5t78.5 50t58 65.5t22.5 90.5q0 77 -57.5 121.5t-177.5 44.5q-167 0 -263.5 -87.5t-134.5 -279.5l-284 -1464q-5 -21 -20 -29t-54 -8q-37 0 -49 8.5t-9 28.5z" />
<glyph unicode="&#xe0;" d="M90 371q0 101 25.5 196.5t75.5 177.5t119 143.5t162 96.5t198 35q113 0 197 -38.5t112 -102.5h20l25 90q6 22 17 28.5t42 6.5q30 0 39 -6.5t6 -24.5l-153 -809q-6 -33 4.5 -43t52.5 -10h45q20 0 25.5 -11t-0.5 -45t-15 -44.5t-34 -10.5h-52q-83 0 -117 26t-36 87h-21 q-122 -138 -354 -138q-192 0 -287.5 104t-95.5 292zM229 381q0 -297 273 -297q166 0 273 106t145 314l12 63q8 47 8 92q0 122 -72.5 186t-203.5 64q-126 0 -226 -70t-154.5 -190t-54.5 -268zM489 1417q-26 33 38 40l30 1q74 0 102 -41l195 -272q5 -9 4 -17t-14.5 -13 t-36.5 -5q-56 0 -84 35z" />
<glyph unicode="&#xe1;" d="M90 371q0 101 25.5 196.5t75.5 177.5t119 143.5t162 96.5t198 35q113 0 197 -38.5t112 -102.5h20l25 90q6 22 17 28.5t42 6.5q30 0 39 -6.5t6 -24.5l-153 -809q-6 -33 4.5 -43t52.5 -10h45q20 0 25.5 -11t-0.5 -45t-15 -44.5t-34 -10.5h-52q-83 0 -117 26t-36 87h-21 q-122 -138 -354 -138q-192 0 -287.5 104t-95.5 292zM229 381q0 -297 273 -297q166 0 273 106t145 314l12 63q8 47 8 92q0 122 -72.5 186t-203.5 64q-126 0 -226 -70t-154.5 -190t-54.5 -268zM484 1132q2 7 8 13l294 272q45 41 129 41q67 0 70 -23q1 -9 -10 -18l-332 -272 q-47 -35 -104 -35q-58 0 -55 22z" />
<glyph unicode="&#xe2;" d="M90 371q0 101 25.5 196.5t75.5 177.5t119 143.5t162 96.5t198 35q113 0 197 -38.5t112 -102.5h20l25 90q6 22 17 28.5t42 6.5q30 0 39 -6.5t6 -24.5l-153 -809q-6 -33 4.5 -43t52.5 -10h45q20 0 25.5 -11t-0.5 -45t-15 -44.5t-34 -10.5h-52q-83 0 -117 26t-36 87h-21 q-122 -138 -354 -138q-192 0 -287.5 104t-95.5 292zM229 381q0 -297 273 -297q166 0 273 106t145 314l12 63q8 47 8 92q0 122 -72.5 186t-203.5 64q-126 0 -226 -70t-154.5 -190t-54.5 -268zM396 1129q1 9 14 22l264 274q29 33 88 33q29 0 44.5 -6.5t27.5 -26.5l163 -270 q11 -20 -1.5 -32.5t-51.5 -12.5q-34 0 -51 9t-31 34l-117 209l-184 -209q-22 -25 -46 -34t-64 -9q-29 0 -42.5 5t-12.5 14z" />
<glyph unicode="&#xe3;" d="M90 371q0 101 25.5 196.5t75.5 177.5t119 143.5t162 96.5t198 35q113 0 197 -38.5t112 -102.5h20l25 90q6 22 17 28.5t42 6.5q30 0 39 -6.5t6 -24.5l-153 -809q-6 -33 4.5 -43t52.5 -10h45q20 0 25.5 -11t-0.5 -45t-15 -44.5t-34 -10.5h-52q-83 0 -117 26t-36 87h-21 q-122 -138 -354 -138q-192 0 -287.5 104t-95.5 292zM229 381q0 -297 273 -297q166 0 273 106t145 314l12 63q8 47 8 92q0 122 -72.5 186t-203.5 64q-126 0 -226 -70t-154.5 -190t-54.5 -268zM383 1247q81 131 235 131q48 0 90 -18.5t66.5 -40.5t55.5 -40.5t59 -18.5 q41 0 66.5 17.5t48.5 61.5q9 18 23 20.5t44 -11.5q21 -10 25 -21.5t-4 -28.5q-66 -139 -222 -139q-46 0 -87 18.5t-65.5 40t-56 40t-61.5 18.5q-46 0 -78 -19t-59 -65q-17 -31 -62 2q-36 23 -18 53z" />
<glyph unicode="&#xe4;" d="M90 371q0 101 25.5 196.5t75.5 177.5t119 143.5t162 96.5t198 35q113 0 197 -38.5t112 -102.5h20l25 90q6 22 17 28.5t42 6.5q30 0 39 -6.5t6 -24.5l-153 -809q-6 -33 4.5 -43t52.5 -10h45q20 0 25.5 -11t-0.5 -45t-15 -44.5t-34 -10.5h-52q-83 0 -117 26t-36 87h-21 q-122 -138 -354 -138q-192 0 -287.5 104t-95.5 292zM229 381q0 -297 273 -297q166 0 273 106t145 314l12 63q8 47 8 92q0 122 -72.5 186t-203.5 64q-126 0 -226 -70t-154.5 -190t-54.5 -268zM406 1231q-1 58 24.5 89.5t71.5 31.5h8q82 0 82 -68q1 -57 -18.5 -82.5 t-63.5 -25.5h-43q-32 0 -45.5 13.5t-15.5 41.5zM834 1231q-1 58 24.5 89.5t71.5 31.5h8q82 0 82 -68q1 -57 -18.5 -82.5t-63.5 -25.5h-43q-32 0 -45.5 13.5t-15.5 41.5z" />
<glyph unicode="&#xe5;" d="M90 371q0 101 25.5 196.5t75.5 177.5t119 143.5t162 96.5t198 35q113 0 197 -38.5t112 -102.5h20l25 90q6 22 17 28.5t42 6.5q30 0 39 -6.5t6 -24.5l-153 -809q-6 -33 4.5 -43t52.5 -10h45q20 0 25.5 -11t-0.5 -45t-15 -44.5t-34 -10.5h-52q-83 0 -117 26t-36 87h-21 q-122 -138 -354 -138q-192 0 -287.5 104t-95.5 292zM229 381q0 -297 273 -297q166 0 273 106t145 314l12 63q8 47 8 92q0 122 -72.5 186t-203.5 64q-126 0 -226 -70t-154.5 -190t-54.5 -268zM514 1270q-3 103 61.5 170t176.5 67q86 0 129.5 -37t44.5 -118 q3 -103 -59.5 -170.5t-180.5 -67.5q-85 0 -127 37t-45 119zM616 1282q3 -82 82 -82q60 0 93.5 38t31.5 103q-3 80 -84 80q-54 0 -89.5 -40t-33.5 -99z" />
<glyph unicode="&#xe6;" horiz-adv-x="1888" d="M90 248q0 158 130 254t351 96q212 0 301 -98h21l18 102q31 166 -28 233.5t-230 67.5q-159 0 -329 -53q-20 -6 -29.5 1.5t-20.5 37.5q-7 21 -7.5 33.5t5.5 20.5t21 13q181 64 379 64q151 0 232.5 -37t117.5 -115h25q149 152 403 152q175 0 267.5 -75t92.5 -204 q0 -319 -471 -319h-329l-2 -57q-5 -138 77.5 -209.5t262.5 -71.5q129 0 284 55q21 9 31.5 2.5t22.5 -39.5q10 -31 7 -41.5t-24 -19.5q-66 -29 -160.5 -47.5t-189.5 -18.5q-303 0 -397 175h-23q-142 -175 -436 -175q-373 0 -373 273zM233 262q0 -93 58 -135.5t194 -42.5 q180 0 276.5 64.5t96.5 175.5q0 79 -73 124.5t-210 45.5q-167 0 -254.5 -61.5t-87.5 -170.5zM1020 522h342q163 0 242 55t79 152q0 89 -63 139t-190 50q-168 0 -274.5 -103.5t-135.5 -292.5z" />
<glyph unicode="&#xe7;" horiz-adv-x="1099" d="M90 389q0 100 20.5 190t67.5 171.5t117 140.5t175.5 94t236.5 35q136 0 237 -29q62 -19 79 -47.5t5 -97.5l-14 -78q-5 -22 -19.5 -30.5t-52.5 -8.5q-37 0 -46.5 7t-6.5 28l20 125q-91 26 -215 26q-98 0 -178.5 -29.5t-134 -79.5t-90 -117t-52.5 -139.5t-16 -150.5 q0 -163 78 -239t258 -76q138 0 293 55q21 9 31 2.5t22 -39.5q7 -21 8 -31.5t-4.5 -17t-19.5 -12.5q-119 -54 -301 -64l-10 -61q63 -8 99.5 -43t37.5 -90q0 -93 -58 -143t-168 -50q-81 0 -141 25q-13 6 -14.5 15t8.5 36q10 24 19.5 32t23.5 3q63 -18 109 -18q54 0 84 23 t30 61q0 27 -28 42t-78 15q-28 0 -37 8t-6 27l22 118q-205 9 -298 108.5t-93 303.5z" />
<glyph unicode="&#xe8;" horiz-adv-x="1114" d="M90 348q0 325 154.5 498.5t425.5 173.5q174 0 270 -75.5t96 -203.5q0 -154 -117.5 -236.5t-361.5 -82.5h-330q-2 -20 -2 -57q0 -143 79.5 -212t260.5 -69q138 0 293 55q21 9 31 2.5t22 -39.5q7 -21 8 -31.5t-4.5 -17t-19.5 -12.5q-65 -29 -163.5 -47.5t-194.5 -18.5 q-225 0 -336 96t-111 277zM238 522h342q164 0 246.5 55.5t82.5 151.5q0 88 -67 138.5t-195 50.5q-168 0 -274 -103.5t-135 -292.5zM461 1417q-26 34 39 40l28 1q75 0 103 -41l194 -272q5 -9 4 -17t-14.5 -13t-36.5 -5q-56 0 -84 35z" />
<glyph unicode="&#xe9;" horiz-adv-x="1114" d="M90 348q0 325 154.5 498.5t425.5 173.5q174 0 270 -75.5t96 -203.5q0 -154 -117.5 -236.5t-361.5 -82.5h-330q-2 -20 -2 -57q0 -143 79.5 -212t260.5 -69q138 0 293 55q21 9 31 2.5t22 -39.5q7 -21 8 -31.5t-4.5 -17t-19.5 -12.5q-65 -29 -163.5 -47.5t-194.5 -18.5 q-225 0 -336 96t-111 277zM238 522h342q164 0 246.5 55.5t82.5 151.5q0 88 -67 138.5t-195 50.5q-168 0 -274 -103.5t-135 -292.5zM514 1132q2 7 8 13l295 272q45 41 129 41q67 0 70 -23q1 -9 -10 -18l-332 -272q-47 -35 -105 -35t-55 22z" />
<glyph unicode="&#xea;" horiz-adv-x="1114" d="M90 348q0 325 154.5 498.5t425.5 173.5q174 0 270 -75.5t96 -203.5q0 -154 -117.5 -236.5t-361.5 -82.5h-330q-2 -20 -2 -57q0 -143 79.5 -212t260.5 -69q138 0 293 55q21 9 31 2.5t22 -39.5q7 -21 8 -31.5t-4.5 -17t-19.5 -12.5q-65 -29 -163.5 -47.5t-194.5 -18.5 q-225 0 -336 96t-111 277zM238 522h342q164 0 246.5 55.5t82.5 151.5q0 88 -67 138.5t-195 50.5q-168 0 -274 -103.5t-135 -292.5zM369 1129q1 9 14 22l264 274q29 33 88 33q29 0 44.5 -6.5t27.5 -26.5l164 -270q11 -20 -1.5 -32.5t-51.5 -12.5q-34 0 -51 9t-31 34l-117 209 l-184 -209q-22 -25 -46.5 -34t-64.5 -9q-29 0 -42.5 5t-12.5 14z" />
<glyph unicode="&#xeb;" horiz-adv-x="1114" d="M90 348q0 325 154.5 498.5t425.5 173.5q174 0 270 -75.5t96 -203.5q0 -154 -117.5 -236.5t-361.5 -82.5h-330q-2 -20 -2 -57q0 -143 79.5 -212t260.5 -69q138 0 293 55q21 9 31 2.5t22 -39.5q7 -21 8 -31.5t-4.5 -17t-19.5 -12.5q-65 -29 -163.5 -47.5t-194.5 -18.5 q-225 0 -336 96t-111 277zM238 522h342q164 0 246.5 55.5t82.5 151.5q0 88 -67 138.5t-195 50.5q-168 0 -274 -103.5t-135 -292.5zM381 1231q-1 58 24.5 89.5t71.5 31.5h8q82 0 82 -68q1 -57 -18.5 -82.5t-63.5 -25.5h-43q-32 0 -45.5 13.5t-15.5 41.5zM809 1231 q-1 58 24.5 89.5t71.5 31.5h8q82 0 82 -68q1 -57 -18.5 -82.5t-63.5 -25.5h-43q-32 0 -45.5 13.5t-15.5 41.5z" />
<glyph unicode="&#xec;" horiz-adv-x="579" d="M135 1417q-26 33 38 40l30 1q74 0 102 -41l195 -272q5 -9 4 -17t-14.5 -13t-36.5 -5q-56 0 -84 35zM143 104q0 8 7 48l135 700q3 19 -3.5 25t-29.5 6h-55q-37 0 -25 47q9 35 26 49t52 14h117q40 0 54 -17t5 -61l-143 -751q-6 -34 4 -43.5t53 -9.5h45q20 0 25.5 -11 t-0.5 -45t-15.5 -44.5t-34.5 -10.5h-69q-81 0 -114.5 25t-33.5 79z" />
<glyph unicode="&#xed;" horiz-adv-x="579" d="M143 104q0 8 7 48l135 700q3 19 -3.5 25t-29.5 6h-55q-37 0 -25 47q9 35 26 49t52 14h117q40 0 54 -17t5 -61l-143 -751q-6 -34 4 -43.5t53 -9.5h45q20 0 25.5 -11t-0.5 -45t-15.5 -44.5t-34.5 -10.5h-69q-81 0 -114.5 25t-33.5 79zM199 1132q2 7 8 13l295 272 q45 41 129 41q66 0 69 -23q1 -9 -10 -18l-332 -272q-47 -35 -104 -35q-58 0 -55 22z" />
<glyph unicode="&#xee;" horiz-adv-x="579" d="M64 1129q1 9 14 22l264 274q29 33 88 33q29 0 44.5 -6.5t27.5 -26.5l164 -270q11 -20 -2 -32.5t-52 -12.5q-34 0 -51 9t-31 34l-116 209l-185 -209q-22 -25 -46 -34t-64 -9q-29 0 -42.5 5t-12.5 14zM143 104q0 8 7 48l135 700q3 19 -3.5 25t-29.5 6h-55q-37 0 -25 47 q9 35 26 49t52 14h117q40 0 54 -17t5 -61l-143 -751q-6 -34 4 -43.5t53 -9.5h45q20 0 25.5 -11t-0.5 -45t-15.5 -44.5t-34.5 -10.5h-69q-81 0 -114.5 25t-33.5 79z" />
<glyph unicode="&#xef;" horiz-adv-x="579" d="M70 1231q-1 58 24.5 89.5t71.5 31.5h8q82 0 82 -68q1 -57 -18.5 -82.5t-63.5 -25.5h-43q-32 0 -45.5 13.5t-15.5 41.5zM143 104q0 8 7 48l135 700q3 19 -3.5 25t-29.5 6h-55q-37 0 -25 47q9 35 26 49t52 14h117q40 0 54 -17t5 -61l-143 -751q-6 -34 4 -43.5t53 -9.5h45 q20 0 25.5 -11t-0.5 -45t-15.5 -44.5t-34.5 -10.5h-69q-81 0 -114.5 25t-33.5 79zM498 1231q-1 58 24.5 89.5t71.5 31.5h8q82 0 82 -68q1 -57 -18.5 -82.5t-63.5 -25.5h-43q-32 0 -45.5 13.5t-15.5 41.5z" />
<glyph unicode="&#xf0;" horiz-adv-x="1181" d="M55 342q0 103 36.5 195.5t103.5 163.5t171.5 113t231.5 42q206 0 299 -104h23q2 16 2 49q0 177 -70 342l-387 -68q-13 -2 -17 6.5t1 34.5q9 36 15.5 46.5t20.5 13.5l322 57q-64 107 -201 213q-25 19 -1 32q17 9 54 9q59 0 91 -23q112 -84 188 -217l223 41q14 2 18.5 -8 t0.5 -35q-8 -52 -39 -57l-160 -31q61 -150 61 -346q0 -134 -28 -274q-60 -291 -187 -426.5t-356 -135.5q-201 0 -308.5 94t-107.5 273zM197 356q0 -138 68.5 -207t213.5 -69q108 0 183.5 43t134.5 152.5t96 295.5l10 52q-117 122 -309 122q-193 0 -295 -109t-102 -280z" />
<glyph unicode="&#xf1;" horiz-adv-x="1306" d="M141 25l160 827q3 19 -3.5 25t-29.5 6h-55q-37 0 -25 47q9 35 26 49t52 14h96q44 0 58 -17t8 -63l-10 -71h24q65 93 162 135.5t234 42.5q154 0 230.5 -71t76.5 -222q0 -67 -19 -160l-77 -403q-6 -34 4 -43.5t53 -9.5h45q20 0 25.5 -11t-0.5 -45t-15.5 -44.5t-34.5 -10.5 h-69q-81 0 -114.5 25t-33.5 79q0 14 6 48l72 368q23 115 23 180q0 111 -51.5 162t-157.5 51q-162 0 -283 -117.5t-158 -310.5l-88 -460q-3 -20 -19 -28.5t-54 -8.5q-37 0 -49 8.5t-9 28.5zM481 1247q81 131 236 131q48 0 89.5 -18.5t66 -40.5t55.5 -40.5t59 -18.5 q41 0 66.5 17.5t48.5 61.5q9 18 23 20.5t44 -11.5q21 -10 25 -21.5t-4 -28.5q-66 -139 -221 -139q-46 0 -87 18.5t-66 40t-56.5 40t-61.5 18.5q-46 0 -78 -19t-59 -65q-17 -31 -61 2q-37 24 -19 53z" />
<glyph unicode="&#xf2;" horiz-adv-x="1159" d="M90 365q0 195 64 341.5t193.5 230t311.5 83.5q196 0 303 -102t107 -293q0 -193 -65.5 -339t-195 -228.5t-308.5 -82.5q-203 0 -306.5 103t-103.5 287zM223 373q0 -143 72.5 -219t218.5 -76q193 0 307.5 142.5t114.5 391.5q0 153 -74.5 229.5t-216.5 76.5 q-198 0 -310 -145t-112 -400zM483 1417q-26 33 38 40l30 1q74 0 102 -41l195 -272q5 -9 4 -17t-14.5 -13t-36.5 -5q-56 0 -84 35z" />
<glyph unicode="&#xf3;" horiz-adv-x="1159" d="M90 365q0 195 64 341.5t193.5 230t311.5 83.5q196 0 303 -102t107 -293q0 -193 -65.5 -339t-195 -228.5t-308.5 -82.5q-203 0 -306.5 103t-103.5 287zM223 373q0 -143 72.5 -219t218.5 -76q193 0 307.5 142.5t114.5 391.5q0 153 -74.5 229.5t-216.5 76.5 q-198 0 -310 -145t-112 -400zM514 1132q2 7 8 13l295 272q45 41 129 41q67 0 70 -23q1 -9 -10 -18l-332 -272q-47 -35 -105 -35t-55 22z" />
<glyph unicode="&#xf4;" horiz-adv-x="1159" d="M90 365q0 195 64 341.5t193.5 230t311.5 83.5q196 0 303 -102t107 -293q0 -193 -65.5 -339t-195 -228.5t-308.5 -82.5q-203 0 -306.5 103t-103.5 287zM223 373q0 -143 72.5 -219t218.5 -76q193 0 307.5 142.5t114.5 391.5q0 153 -74.5 229.5t-216.5 76.5 q-198 0 -310 -145t-112 -400zM355 1129q1 9 14 22l264 274q29 33 88 33q29 0 44.5 -6.5t27.5 -26.5l163 -270q11 -20 -1.5 -32.5t-51.5 -12.5q-34 0 -51 9t-31 34l-116 209l-185 -209q-22 -25 -46 -34t-64 -9q-29 0 -42.5 5t-12.5 14z" />
<glyph unicode="&#xf5;" horiz-adv-x="1159" d="M90 365q0 195 64 341.5t193.5 230t311.5 83.5q196 0 303 -102t107 -293q0 -193 -65.5 -339t-195 -228.5t-308.5 -82.5q-203 0 -306.5 103t-103.5 287zM223 373q0 -143 72.5 -219t218.5 -76q193 0 307.5 142.5t114.5 391.5q0 153 -74.5 229.5t-216.5 76.5 q-198 0 -310 -145t-112 -400zM356 1247q81 131 236 131q48 0 89.5 -18.5t66 -40.5t55.5 -40.5t59 -18.5q41 0 66.5 17.5t48.5 61.5q9 18 23 20.5t44 -11.5q21 -10 25 -21.5t-4 -28.5q-66 -139 -221 -139q-46 0 -87 18.5t-66 40t-56.5 40t-61.5 18.5q-46 0 -78 -19t-59 -65 q-17 -31 -61 2q-37 24 -19 53z" />
<glyph unicode="&#xf6;" horiz-adv-x="1159" d="M90 365q0 195 64 341.5t193.5 230t311.5 83.5q196 0 303 -102t107 -293q0 -193 -65.5 -339t-195 -228.5t-308.5 -82.5q-203 0 -306.5 103t-103.5 287zM223 373q0 -143 72.5 -219t218.5 -76q193 0 307.5 142.5t114.5 391.5q0 153 -74.5 229.5t-216.5 76.5 q-198 0 -310 -145t-112 -400zM381 1231q-1 58 24.5 89.5t71.5 31.5h8q82 0 82 -68q1 -57 -18.5 -82.5t-63.5 -25.5h-43q-32 0 -45.5 13.5t-15.5 41.5zM809 1231q-1 58 24.5 89.5t71.5 31.5h8q82 0 82 -68q1 -57 -18.5 -82.5t-63.5 -25.5h-43q-32 0 -45.5 13.5t-15.5 41.5z " />
<glyph unicode="&#xf8;" horiz-adv-x="1159" d="M32.5 -192q-1.5 8 4.5 18l164 244q-111 102 -111 295q0 195 64 341.5t193.5 230t311.5 83.5q91 0 168 -25l138 201q19 29 100 29q39 0 51.5 -9.5t1.5 -27.5l-174 -256q125 -101 125 -307q0 -193 -65.5 -339t-195 -228.5t-308.5 -82.5q-103 0 -185 29l-125 -184 q-22 -29 -98 -29q-28 0 -43 4.5t-16.5 12.5zM223 373q0 -124 51 -195l490 721q-55 19 -119 19q-198 0 -310 -145t-112 -400zM379 98q56 -20 135 -20q193 0 307.5 142.5t114.5 391.5q0 135 -64 215z" />
<glyph unicode="&#xf9;" horiz-adv-x="1282" d="M135 930q9 35 26 49t52 14h117q40 0 54 -17t5 -61l-92 -475q-21 -111 -21 -157q0 -102 50 -149.5t155 -47.5q162 0 282 111.5t159 312.5l88 461q3 21 18.5 29t54.5 8q37 0 49 -8.5t9 -28.5l-156 -807q-6 -33 4.5 -43t52.5 -10h45q20 0 25.5 -11t-0.5 -45t-15 -44.5 t-34 -10.5h-70q-92 0 -124 33t-17 102h-21q-67 -81 -162.5 -120.5t-232.5 -39.5q-291 0 -291 285q0 45 15 133l88 459q3 19 -3.5 25t-29.5 6h-55q-37 0 -25 47zM410 1417q-26 34 39 40q12 1 28 1q75 0 103 -41l194 -272q5 -9 4 -17t-14.5 -13t-36.5 -5q-56 0 -84 35z" />
<glyph unicode="&#xfa;" horiz-adv-x="1282" d="M135 930q9 35 26 49t52 14h117q40 0 54 -17t5 -61l-92 -475q-21 -111 -21 -157q0 -102 50 -149.5t155 -47.5q162 0 282 111.5t159 312.5l88 461q3 21 18.5 29t54.5 8q37 0 49 -8.5t9 -28.5l-156 -807q-6 -33 4.5 -43t52.5 -10h45q20 0 25.5 -11t-0.5 -45t-15 -44.5 t-34 -10.5h-70q-92 0 -124 33t-17 102h-21q-67 -81 -162.5 -120.5t-232.5 -39.5q-291 0 -291 285q0 45 15 133l88 459q3 19 -3.5 25t-29.5 6h-55q-37 0 -25 47zM543 1132q2 7 8 13l295 272q45 41 129 41q66 0 69 -23q1 -9 -10 -18l-332 -272q-47 -35 -104 -35q-58 0 -55 22z " />
<glyph unicode="&#xfb;" horiz-adv-x="1282" d="M135 930q9 35 26 49t52 14h117q40 0 54 -17t5 -61l-92 -475q-21 -111 -21 -157q0 -102 50 -149.5t155 -47.5q162 0 282 111.5t159 312.5l88 461q3 21 18.5 29t54.5 8q37 0 49 -8.5t9 -28.5l-156 -807q-6 -33 4.5 -43t52.5 -10h45q20 0 25.5 -11t-0.5 -45t-15 -44.5 t-34 -10.5h-70q-92 0 -124 33t-17 102h-21q-67 -81 -162.5 -120.5t-232.5 -39.5q-291 0 -291 285q0 45 15 133l88 459q3 19 -3.5 25t-29.5 6h-55q-37 0 -25 47zM371 1129q1 9 14 22l264 274q29 33 88 33q29 0 44.5 -6.5t27.5 -26.5l164 -270q11 -20 -1.5 -32.5t-51.5 -12.5 q-34 0 -51 9t-31 34l-117 209l-184 -209q-22 -25 -46.5 -34t-64.5 -9q-29 0 -42.5 5t-12.5 14z" />
<glyph unicode="&#xfc;" horiz-adv-x="1282" d="M135 930q9 35 26 49t52 14h117q40 0 54 -17t5 -61l-92 -475q-21 -111 -21 -157q0 -102 50 -149.5t155 -47.5q162 0 282 111.5t159 312.5l88 461q3 21 18.5 29t54.5 8q37 0 49 -8.5t9 -28.5l-156 -807q-6 -33 4.5 -43t52.5 -10h45q20 0 25.5 -11t-0.5 -45t-15 -44.5 t-34 -10.5h-70q-92 0 -124 33t-17 102h-21q-67 -81 -162.5 -120.5t-232.5 -39.5q-291 0 -291 285q0 45 15 133l88 459q3 19 -3.5 25t-29.5 6h-55q-37 0 -25 47zM377 1231q-1 58 24.5 89.5t71.5 31.5h8q82 0 82 -68q1 -57 -18.5 -82.5t-63.5 -25.5h-43q-32 0 -45.5 13.5 t-15.5 41.5zM805 1231q-1 58 24.5 89.5t71.5 31.5h8q82 0 82 -68q1 -57 -18.5 -82.5t-63.5 -25.5h-43q-32 0 -45.5 13.5t-15.5 41.5z" />
<glyph unicode="&#xfd;" horiz-adv-x="1028" d="M-153.5 -430q-1.5 12 12.5 41q15 30 26.5 35.5t34.5 -2.5q55 -19 121 -19q102 0 165.5 54t147.5 217l47 92q-16 3 -22.5 9t-9.5 19l-187 830q-4 23 -15.5 30t-45.5 7h-45q-20 0 -25.5 10.5t0.5 44.5t15 44.5t34 10.5h64q74 0 108 -28t52 -109l116 -545q26 -124 23 -227 h22q36 125 90 233l332 654q9 20 29 28.5t61 8.5q40 0 51.5 -9t2.5 -28l-543 -1045q-41 -79 -68 -127t-63 -100.5t-68 -81.5t-74 -54.5t-91 -35.5t-111 -10q-106 0 -168 32q-17 9 -18.5 21zM500 1132q2 7 8 13l295 272q45 41 129 41q66 0 69 -23q1 -9 -10 -18l-332 -272 q-47 -35 -104 -35q-58 0 -55 22z" />
<glyph unicode="&#xfe;" horiz-adv-x="1292" d="M63 -434l340 1767q3 19 -3 25t-29 6h-56q-36 0 -24 47q9 36 26 50t52 14h116q40 0 54.5 -17t5.5 -61l-47 -254q-25 -141 -88 -295h22q133 172 383 172q175 0 281 -100.5t106 -270.5q0 -110 -25.5 -211t-75 -185t-119 -146.5t-162.5 -97t-199 -34.5q-120 0 -205 38 t-115 100h-20q-9 -142 -35 -281l-51 -266q-5 -37 -74 -37q-37 0 -49 8.5t-9 28.5zM350 428q-27 -163 47 -253.5t224 -90.5q197 0 319.5 150t122.5 395q0 139 -71.5 209.5t-207.5 70.5q-160 0 -278.5 -117t-147.5 -307z" />
<glyph unicode="&#xff;" horiz-adv-x="1028" d="M-153.5 -430q-1.5 12 12.5 41q15 30 26.5 35.5t34.5 -2.5q55 -19 121 -19q102 0 165.5 54t147.5 217l47 92q-16 3 -22.5 9t-9.5 19l-187 830q-4 23 -15.5 30t-45.5 7h-45q-20 0 -25.5 10.5t0.5 44.5t15 44.5t34 10.5h64q74 0 108 -28t52 -109l116 -545q26 -124 23 -227 h22q36 125 90 233l332 654q9 20 29 28.5t61 8.5q40 0 51.5 -9t2.5 -28l-543 -1045q-41 -79 -68 -127t-63 -100.5t-68 -81.5t-74 -54.5t-91 -35.5t-111 -10q-106 0 -168 32q-17 9 -18.5 21zM324 1231q-1 58 24.5 89.5t71.5 31.5h8q82 0 82 -68q1 -57 -18.5 -82.5t-63.5 -25.5 h-43q-32 0 -45.5 13.5t-15.5 41.5zM752 1231q-1 58 24.5 89.5t71.5 31.5h8q82 0 82 -68q1 -57 -18.5 -82.5t-63.5 -25.5h-43q-32 0 -45.5 13.5t-15.5 41.5z" />
<glyph unicode="&#x100;" horiz-adv-x="1693" d="M-73.5 11.5q-5.5 11.5 1.5 45.5t17.5 46t29.5 12h105l780 1288q29 49 53.5 66.5t61.5 17.5h31q40 0 62 -19.5t34 -68.5l301 -1284h113q21 0 26 -12t-2 -46t-17 -45.5t-30 -11.5h-436q-21 0 -26.5 11.5t1.5 45.5t17.5 46t29.5 12h170l-80 379h-712l-224 -379h191 q21 0 26.5 -12t-1.5 -46t-17.5 -45.5t-30.5 -11.5h-448q-21 0 -26.5 11.5zM526 606h619l-107 508q-27 132 -45 264h-22q-74 -151 -142 -266zM652 1721.5q-4 9.5 1 43.5q6 32 14 42t27 10h688q27 0 19 -52q-6 -31 -15 -42t-24 -11h-688q-18 0 -22 9.5z" />
<glyph unicode="&#x101;" d="M90 371q0 101 25.5 196.5t75.5 177.5t119 143.5t162 96.5t198 35q113 0 197 -38.5t112 -102.5h20l25 90q6 22 17 28.5t42 6.5q30 0 39 -6.5t6 -24.5l-153 -809q-6 -33 4.5 -43t52.5 -10h45q20 0 25.5 -11t-0.5 -45t-15 -44.5t-34 -10.5h-52q-83 0 -117 26t-36 87h-21 q-122 -138 -354 -138q-192 0 -287.5 104t-95.5 292zM229 381q0 -297 273 -297q166 0 273 106t145 314l12 63q8 47 8 92q0 122 -72.5 186t-203.5 64q-126 0 -226 -70t-154.5 -190t-54.5 -268zM443 1198.5q-5 10.5 1 38.5q8 49 43 49h564q14 0 18 -9.5t0 -39.5t-12.5 -39.5 t-26.5 -9.5h-563q-19 0 -24 10.5z" />
<glyph unicode="&#x102;" horiz-adv-x="1693" d="M-73.5 11.5q-5.5 11.5 1.5 45.5t17.5 46t29.5 12h105l780 1288q29 49 53.5 66.5t61.5 17.5h31q40 0 62 -19.5t34 -68.5l301 -1284h113q21 0 26 -12t-2 -46t-17 -45.5t-30 -11.5h-436q-21 0 -26.5 11.5t1.5 45.5t17.5 46t29.5 12h170l-80 379h-712l-224 -379h191 q21 0 26.5 -12t-1.5 -46t-17.5 -45.5t-30.5 -11.5h-448q-21 0 -26.5 11.5zM526 606h619l-107 508q-27 132 -45 264h-22q-74 -151 -142 -266zM653 1823q0 38 11 78q5 18 17.5 25t43.5 7q33 0 43.5 -8t7.5 -24q-6 -37 -6 -66q0 -58 45.5 -88.5t155.5 -30.5q127 0 189.5 44 t86.5 141q5 19 18 25.5t50 6.5q30 0 40 -9t7 -28q-24 -133 -127 -204.5t-287 -71.5q-147 0 -221 56t-74 147z" />
<glyph unicode="&#x103;" d="M90 371q0 101 25.5 196.5t75.5 177.5t119 143.5t162 96.5t198 35q113 0 197 -38.5t112 -102.5h20l25 90q6 22 17 28.5t42 6.5q30 0 39 -6.5t6 -24.5l-153 -809q-6 -33 4.5 -43t52.5 -10h45q20 0 25.5 -11t-0.5 -45t-15 -44.5t-34 -10.5h-52q-83 0 -117 26t-36 87h-21 q-122 -138 -354 -138q-192 0 -287.5 104t-95.5 292zM229 381q0 -297 273 -297q166 0 273 106t145 314l12 63q8 47 8 92q0 122 -72.5 186t-203.5 64q-126 0 -226 -70t-154.5 -190t-54.5 -268zM481 1341q0 11 4 39q9 49 20.5 61.5t43.5 12.5q36 0 46 -8t7 -25q-10 -48 -10 -75 q0 -115 160 -115q94 0 146.5 44.5t74.5 141.5q5 22 17.5 29.5t49.5 7.5q28 0 38 -7.5t7 -23.5q-54 -284 -356 -284q-248 0 -248 202z" />
<glyph unicode="&#x104;" horiz-adv-x="1693" d="M-73.5 11.5q-5.5 11.5 1.5 45.5t17.5 46t29.5 12h105l780 1288q29 49 53.5 66.5t61.5 17.5h31q40 0 62 -19.5t34 -68.5l301 -1284h113q21 0 26 -12t-2 -46q-6 -25 -12.5 -36t-18.5 -19q-7 -4 -21.5 -12.5t-21.5 -12.5q-183 -107 -180 -237q0 -57 72 -57q15 0 43 4 q23 5 30 1t13 -24q8 -25 4.5 -34.5t-23.5 -18.5q-44 -21 -96 -21q-69 0 -110.5 37t-42.5 101q-3 74 50.5 147.5t149.5 124.5h-319q-21 0 -26.5 11.5t1.5 45.5t17.5 46t29.5 12h170l-80 379h-712l-224 -379h191q21 0 26.5 -12t-1.5 -46t-17.5 -45.5t-30.5 -11.5h-448 q-21 0 -26.5 11.5zM526 602h619l-107 512q-27 132 -45 264h-22q-74 -151 -142 -266z" />
<glyph unicode="&#x105;" d="M90 371q0 101 25.5 196.5t75.5 177.5t119 143.5t162 96.5t198 35q113 0 197 -38.5t112 -102.5h20l25 90q6 22 17 28.5t42 6.5q30 0 39 -6.5t6 -24.5l-153 -809q-6 -33 4.5 -43t52.5 -10h45q20 0 25.5 -11t-0.5 -45q-4 -27 -9.5 -36t-19.5 -17q-223 -124 -223 -262 q0 -57 72 -57q15 0 43 4q23 5 30 1t13 -24q8 -25 4.5 -34.5t-23.5 -18.5q-44 -21 -96 -21q-69 0 -111 37t-43 101q-3 75 52.5 150t154.5 124v2q-53 7 -74.5 32.5t-23.5 76.5h-21q-122 -138 -354 -138q-192 0 -287.5 104t-95.5 292zM229 381q0 -297 273 -297q166 0 273 106 t145 314l12 63q30 165 -42.5 253.5t-225.5 88.5q-126 0 -226 -70t-154.5 -190t-54.5 -268z" />
<glyph unicode="&#x106;" horiz-adv-x="1425" d="M106 559q0 179 42 330.5t119.5 263.5t185.5 190t241 117t285 39q182 0 328 -45q66 -21 87.5 -53.5t8.5 -100.5l-29 -143q-6 -28 -22 -37.5t-62 -9.5q-34 0 -44 8t-7 29l37 196q-170 46 -326 46q-221 0 -381 -107t-239.5 -291.5t-79.5 -425.5q0 -126 25 -213.5t83 -147.5 t153 -88t234 -28q185 0 363 53q16 5 26 -5t19 -42q5 -32 1.5 -44t-19.5 -17q-193 -58 -408 -58q-325 0 -473 141.5t-148 442.5zM646 1621q-2 12 9 21l310 244q53 41 145 41q52 0 64 -23q8 -16 -11 -28l-346 -242q-49 -35 -115 -35q-50 0 -56 22z" />
<glyph unicode="&#x107;" horiz-adv-x="1099" d="M90 389q0 100 20.5 190t67.5 171.5t117 140.5t175.5 94t236.5 35q136 0 237 -29q62 -19 79 -47.5t5 -97.5l-14 -78q-5 -22 -19.5 -30.5t-52.5 -8.5q-37 0 -46.5 7t-6.5 28l20 125q-91 26 -215 26q-98 0 -178.5 -29.5t-134 -79.5t-90 -117t-52.5 -139.5t-16 -150.5 q0 -163 78 -239t258 -76q138 0 293 55q21 9 31 2.5t22 -39.5q7 -21 8 -31.5t-4.5 -17t-19.5 -12.5q-65 -29 -164 -47.5t-195 -18.5q-232 0 -336 99.5t-104 314.5zM391 1132q2 7 8 13l295 272q45 41 129 41q67 0 70 -23q1 -9 -10 -18l-332 -272q-47 -35 -105 -35t-55 22z" />
<glyph unicode="&#x108;" horiz-adv-x="1425" d="M106 559q0 179 42 330.5t119.5 263.5t185.5 190t241 117t285 39q182 0 328 -45q66 -21 87.5 -53.5t8.5 -100.5l-29 -143q-6 -28 -22 -37.5t-62 -9.5q-34 0 -44 8t-7 29l37 196q-170 46 -326 46q-221 0 -381 -107t-239.5 -291.5t-79.5 -425.5q0 -126 25 -213.5t83 -147.5 t153 -88t234 -28q185 0 363 53q16 5 26 -5t19 -42q5 -32 1.5 -44t-19.5 -17q-193 -58 -408 -58q-325 0 -473 141.5t-148 442.5zM580 1624q2 10 16 21l305 243q51 39 98 39h17q36 0 57 -8.5t41 -32.5l221 -241q23 -27 -14 -39q-20 -7 -55 -7q-38 0 -60.5 8t-40.5 29l-168 191 l-229 -189q-24 -21 -50.5 -30t-70.5 -9q-70 0 -67 25z" />
<glyph unicode="&#x109;" horiz-adv-x="1099" d="M90 389q0 100 20.5 190t67.5 171.5t117 140.5t175.5 94t236.5 35q136 0 237 -29q62 -19 79 -47.5t5 -97.5l-14 -78q-5 -22 -19.5 -30.5t-52.5 -8.5q-37 0 -46.5 7t-6.5 28l20 125q-91 26 -215 26q-98 0 -178.5 -29.5t-134 -79.5t-90 -117t-52.5 -139.5t-16 -150.5 q0 -163 78 -239t258 -76q138 0 293 55q21 9 31 2.5t22 -39.5q7 -21 8 -31.5t-4.5 -17t-19.5 -12.5q-65 -29 -164 -47.5t-195 -18.5q-232 0 -336 99.5t-104 314.5zM348 1129q1 9 14 22l265 274q29 33 88 33q29 0 44 -6.5t27 -26.5l164 -270q11 -20 -1.5 -32.5t-51.5 -12.5 q-34 0 -51 9t-31 34l-117 209l-184 -209q-22 -25 -46.5 -34t-64.5 -9q-29 0 -42.5 5t-12.5 14z" />
<glyph unicode="&#x10a;" horiz-adv-x="1425" d="M106 559q0 179 42 330.5t119.5 263.5t185.5 190t241 117t285 39q182 0 328 -45q66 -21 87.5 -53.5t8.5 -100.5l-29 -143q-6 -28 -22 -37.5t-62 -9.5q-34 0 -44 8t-7 29l37 196q-170 46 -326 46q-221 0 -381 -107t-239.5 -291.5t-79.5 -425.5q0 -126 25 -213.5t83 -147.5 t153 -88t234 -28q185 0 363 53q16 5 26 -5t19 -42q5 -32 1.5 -44t-19.5 -17q-193 -58 -408 -58q-325 0 -473 141.5t-148 442.5zM887 1720q0 138 112 138h23q91 0 94 -76q1 -67 -21 -96t-73 -29h-61q-38 0 -55 14.5t-19 48.5z" />
<glyph unicode="&#x10b;" horiz-adv-x="1099" d="M90 389q0 100 20.5 190t67.5 171.5t117 140.5t175.5 94t236.5 35q136 0 237 -29q62 -19 79 -47.5t5 -97.5l-14 -78q-5 -22 -19.5 -30.5t-52.5 -8.5q-37 0 -46.5 7t-6.5 28l20 125q-91 26 -215 26q-98 0 -178.5 -29.5t-134 -79.5t-90 -117t-52.5 -139.5t-16 -150.5 q0 -163 78 -239t258 -76q138 0 293 55q21 9 31 2.5t22 -39.5q7 -21 8 -31.5t-4.5 -17t-19.5 -12.5q-65 -29 -164 -47.5t-195 -18.5q-232 0 -336 99.5t-104 314.5zM621 1229q-1 67 27.5 102t82.5 35h8q89 0 92 -76q1 -65 -20.5 -93t-69.5 -28h-49q-36 0 -52.5 14.5 t-18.5 45.5z" />
<glyph unicode="&#x10c;" horiz-adv-x="1425" d="M106 559q0 179 42 330.5t119.5 263.5t185.5 190t241 117t285 39q182 0 328 -45q66 -21 87.5 -53.5t8.5 -100.5l-29 -143q-6 -28 -22 -37.5t-62 -9.5q-34 0 -44 8t-7 29l37 196q-170 46 -326 46q-221 0 -381 -107t-239.5 -291.5t-79.5 -425.5q0 -126 25 -213.5t83 -147.5 t153 -88t234 -28q185 0 363 53q16 5 26 -5t19 -42q5 -32 1.5 -44t-19.5 -17q-193 -58 -408 -58q-325 0 -473 141.5t-148 442.5zM629 1882q-27 29 25 40q20 5 46 5q41 0 62.5 -7.5t40.5 -29.5l166 -194l225 194q25 21 51.5 29t71.5 8q69 0 69 -25q0 -9 -14 -20l-307 -244 q-30 -25 -48 -32t-48 -7h-17q-37 0 -57 9t-41 32z" />
<glyph unicode="&#x10d;" horiz-adv-x="1099" d="M90 389q0 100 20.5 190t67.5 171.5t117 140.5t175.5 94t236.5 35q136 0 237 -29q62 -19 79 -47.5t5 -97.5l-14 -78q-5 -22 -19.5 -30.5t-52.5 -8.5q-37 0 -46.5 7t-6.5 28l20 125q-91 26 -215 26q-98 0 -178.5 -29.5t-134 -79.5t-90 -117t-52.5 -139.5t-16 -150.5 q0 -163 78 -239t258 -76q138 0 293 55q21 9 31 2.5t22 -39.5q7 -21 8 -31.5t-4.5 -17t-19.5 -12.5q-65 -29 -164 -47.5t-195 -18.5q-232 0 -336 99.5t-104 314.5zM416 1413q-11 20 3 32.5t52 12.5q37 0 56 -8.5t32 -34.5l109 -213l186 213q40 43 115 43t37 -41l-265 -274 q-19 -20 -37 -26.5t-47 -6.5q-60 0 -77 33z" />
<glyph unicode="&#x10e;" horiz-adv-x="1509" d="M-12 11.5q-5 11.5 2 45.5t17.5 46t29.5 12h98l242 1245h-98q-21 0 -26.5 11.5t1.5 45.5t17.5 46t29.5 12h449q653 0 653 -594q0 -408 -237.5 -644.5t-643.5 -236.5h-508q-21 0 -26 11.5zM274 115h244q179 0 320.5 55.5t233.5 155.5t140 237.5t48 304.5q0 252 -127.5 372 t-403.5 120h-213zM502 1882q-27 29 25 40q20 5 46 5q41 0 62.5 -7.5t40.5 -29.5l166 -194l225 194q25 21 51.5 29t71.5 8q69 0 69 -25q0 -9 -14 -20l-307 -244q-30 -25 -48 -32t-48 -7h-17q-37 0 -57 9t-41 32z" />
<glyph unicode="&#x10f;" horiz-adv-x="1546" d="M90 371q0 128 41.5 245t116 207t187 143.5t245.5 53.5q111 0 193 -39.5t112 -103.5h21q0 73 28 215l47 241q3 19 -3 25t-29 6h-56q-36 0 -24 47q9 36 26 50t52 14h116q40 0 54.5 -17t5.5 -61l-238 -1233q-6 -33 4.5 -43t52.5 -10h45q20 0 25.5 -11t-0.5 -45t-15 -44.5 t-34 -10.5h-51q-84 0 -118 26t-36 87h-20q-123 -138 -359 -138q-196 0 -292.5 104t-96.5 292zM229 379q0 -295 275 -295q171 0 280 107t144 307l10 57q8 50 8 86q0 127 -72.5 197.5t-203.5 70.5q-194 0 -317.5 -151t-123.5 -379zM1307 1069q56 109 82 207q-50 11 -50 57 q0 52 30 84.5t77 32.5h12q72 0 72 -68q0 -46 -36.5 -148.5t-78.5 -172.5q-18 -31 -51 -31h-37q-40 0 -20 39z" />
<glyph unicode="&#x110;" horiz-adv-x="1509" d="M-12 11.5q-5 11.5 2 45.5t17.5 46t29.5 12h98l109 561h-185q-21 0 -25 9.5t3 43.5q9 37 16 46t27 9h184l113 576h-98q-21 0 -26.5 11.5t1.5 45.5t17.5 46t29.5 12h449q653 0 653 -594q0 -408 -237.5 -644.5t-643.5 -236.5h-508q-21 0 -26 11.5zM274 115h244 q179 0 320.5 55.5t233.5 155.5t140 237.5t48 304.5q0 252 -127.5 372t-403.5 120h-213l-113 -576h191q18 0 24 -10.5t0 -44.5q-6 -32 -14.5 -42.5t-30.5 -10.5h-190z" />
<glyph unicode="&#x111;" horiz-adv-x="1271" d="M90 371q0 128 41.5 245t116 207t187 143.5t245.5 53.5q111 0 193 -39.5t112 -103.5h21q0 73 28 215l13 65h-359q-19 0 -23.5 10.5t1.5 38.5q8 49 43 49h356l16 78q3 19 -3 25t-29 6h-56q-36 0 -24 47q9 36 26 50t52 14h116q40 0 54.5 -17t5.5 -61l-29 -142h137 q14 0 18.5 -10t0.5 -39q-4 -30 -12.5 -39.5t-26.5 -9.5h-135l-191 -993q-6 -33 4.5 -43t52.5 -10h45q20 0 25.5 -11t-0.5 -45t-15 -44.5t-34 -10.5h-51q-84 0 -118 26t-36 87h-20q-123 -138 -359 -138q-196 0 -292.5 104t-96.5 292zM229 379q0 -295 275 -295 q171 0 280.5 107t143.5 307l12 69q27 164 -45 253t-225 89q-194 0 -317.5 -151t-123.5 -379z" />
<glyph unicode="&#x112;" horiz-adv-x="1411" d="M-12 11.5q-5 11.5 2 45.5t17.5 46t29.5 12h98l242 1245h-98q-21 0 -26.5 11.5t1.5 45.5t17.5 46t29.5 12h1034q55 0 69 -16t5 -66l-45 -242q-6 -37 -74 -37q-37 0 -48.5 7.5t-8.5 29.5l37 209h-754l-106 -553h546l23 113q7 37 74 34q37 -1 49.5 -8.5t9.5 -25.5l-65 -340 q-6 -37 -74 -37q-37 0 -49.5 8t-8.5 29l23 118h-551l-113 -583h770l39 209q7 37 74 34q38 -1 50.5 -8.5t9.5 -25.5l-46 -242q-9 -49 -31 -65.5t-77 -16.5h-1049q-21 0 -26 11.5zM515 1721.5q-4 9.5 1 43.5q6 32 14 42t27 10h688q27 0 19 -52q-6 -31 -15 -42t-24 -11h-688 q-18 0 -22 9.5z" />
<glyph unicode="&#x113;" horiz-adv-x="1114" d="M90 348q0 325 154.5 498.5t425.5 173.5q174 0 270 -75.5t96 -203.5q0 -154 -117.5 -236.5t-361.5 -82.5h-330q-2 -20 -2 -57q0 -143 79.5 -212t260.5 -69q138 0 293 55q21 9 31 2.5t22 -39.5q7 -21 8 -31.5t-4.5 -17t-19.5 -12.5q-65 -29 -163.5 -47.5t-194.5 -18.5 q-225 0 -336 96t-111 277zM238 522h342q164 0 246.5 55.5t82.5 151.5q0 88 -67 138.5t-195 50.5q-168 0 -274 -103.5t-135 -292.5zM396 1198.5q-5 10.5 1 38.5q8 49 43 49h564q14 0 18 -9.5t0 -39.5t-12.5 -39.5t-26.5 -9.5h-563q-19 0 -24 10.5z" />
<glyph unicode="&#x114;" horiz-adv-x="1411" d="M-12 11.5q-5 11.5 2 45.5t17.5 46t29.5 12h98l242 1245h-98q-21 0 -26.5 11.5t1.5 45.5t17.5 46t29.5 12h1034q55 0 69 -16t5 -66l-45 -242q-6 -37 -74 -37q-37 0 -48.5 7.5t-8.5 29.5l37 209h-754l-106 -553h546l23 113q7 37 74 34q37 -1 49.5 -8.5t9.5 -25.5l-65 -340 q-6 -37 -74 -37q-37 0 -49.5 8t-8.5 29l23 118h-551l-113 -583h770l39 209q7 37 74 34q38 -1 50.5 -8.5t9.5 -25.5l-46 -242q-9 -49 -31 -65.5t-77 -16.5h-1049q-21 0 -26 11.5zM575 1823q0 38 11 78q5 18 17.5 25t43.5 7q33 0 43.5 -8t7.5 -24q-6 -37 -6 -66 q0 -58 45.5 -88.5t155.5 -30.5q127 0 189.5 44t86.5 141q5 19 18 25.5t50 6.5q30 0 40 -9t7 -28q-24 -133 -127 -204.5t-287 -71.5q-147 0 -221 56t-74 147z" />
<glyph unicode="&#x115;" horiz-adv-x="1114" d="M90 348q0 325 154.5 498.5t425.5 173.5q174 0 270 -75.5t96 -203.5q0 -154 -117.5 -236.5t-361.5 -82.5h-330q-2 -20 -2 -57q0 -143 79.5 -212t260.5 -69q138 0 293 55q21 9 31 2.5t22 -39.5q7 -21 8 -31.5t-4.5 -17t-19.5 -12.5q-65 -29 -163.5 -47.5t-194.5 -18.5 q-225 0 -336 96t-111 277zM238 522h342q164 0 246.5 55.5t82.5 151.5q0 88 -67 138.5t-195 50.5q-168 0 -274 -103.5t-135 -292.5zM418 1341q0 11 4 39q9 49 20 61.5t43 12.5q36 0 46.5 -8t7.5 -25q-11 -53 -11 -75q0 -115 160 -115q94 0 146.5 44.5t74.5 141.5 q5 22 18 29.5t50 7.5q28 0 38 -7.5t7 -23.5q-54 -284 -356 -284q-248 0 -248 202z" />
<glyph unicode="&#x116;" horiz-adv-x="1411" d="M-12 11.5q-5 11.5 2 45.5t17.5 46t29.5 12h98l242 1245h-98q-21 0 -26.5 11.5t1.5 45.5t17.5 46t29.5 12h1034q55 0 69 -16t5 -66l-45 -242q-6 -37 -74 -37q-37 0 -48.5 7.5t-8.5 29.5l37 209h-754l-106 -553h546l23 113q7 37 74 34q37 -1 49.5 -8.5t9.5 -25.5l-65 -340 q-6 -37 -74 -37q-37 0 -49.5 8t-8.5 29l23 118h-551l-113 -583h770l39 209q7 37 74 34q38 -1 50.5 -8.5t9.5 -25.5l-46 -242q-9 -49 -31 -65.5t-77 -16.5h-1049q-21 0 -26 11.5zM778 1720q0 138 113 138h22q92 0 95 -76q1 -67 -21.5 -96t-73.5 -29h-61q-38 0 -55 14.5 t-19 48.5z" />
<glyph unicode="&#x117;" horiz-adv-x="1114" d="M90 348q0 325 154.5 498.5t425.5 173.5q174 0 270 -75.5t96 -203.5q0 -154 -117.5 -236.5t-361.5 -82.5h-330q-2 -20 -2 -57q0 -143 79.5 -212t260.5 -69q138 0 293 55q21 9 31 2.5t22 -39.5q7 -21 8 -31.5t-4.5 -17t-19.5 -12.5q-65 -29 -163.5 -47.5t-194.5 -18.5 q-225 0 -336 96t-111 277zM238 522h342q164 0 246.5 55.5t82.5 151.5q0 88 -67 138.5t-195 50.5q-168 0 -274 -103.5t-135 -292.5zM586 1229q-1 67 27.5 102t82.5 35h9q89 0 92 -76q1 -65 -20.5 -93t-69.5 -28h-50q-36 0 -52.5 14.5t-18.5 45.5z" />
<glyph unicode="&#x118;" horiz-adv-x="1411" d="M-12 11.5q-5 11.5 2 45.5t17.5 46t29.5 12h98l242 1245h-98q-21 0 -26.5 11.5t1.5 45.5t17.5 46t29.5 12h1034q55 0 69 -16t5 -66l-45 -242q-6 -37 -74 -37q-37 0 -48.5 7.5t-8.5 29.5l37 209h-754l-106 -553h546l23 113q7 37 74 34q37 -1 49.5 -8.5t9.5 -25.5l-65 -340 q-6 -37 -74 -37q-37 0 -49.5 8t-8.5 29l23 118h-551l-113 -583h770l39 209q7 37 74 34q38 -1 50.5 -8.5t9.5 -25.5l-46 -242q-6 -32 -16 -47.5t-35 -28.5q-231 -123 -231 -266q0 -57 72 -57q15 0 43 4q23 5 30 1t13 -24q8 -25 4.5 -34.5t-23.5 -18.5q-44 -21 -96 -21 q-69 0 -111 37t-43 101q-3 74 51 147.5t150 124.5h-965q-21 0 -26 11.5z" />
<glyph unicode="&#x119;" horiz-adv-x="1114" d="M90 348q0 325 154.5 498.5t425.5 173.5q174 0 270 -75.5t96 -203.5q0 -154 -117.5 -236.5t-361.5 -82.5h-330l-2 -57q-5 -138 77.5 -209.5t262.5 -71.5q138 0 293 55q21 9 31 2.5t22 -39.5q7 -21 8 -31.5t-4.5 -17t-19.5 -12.5q-40 -17 -74 -31q-36 -13 -78 -39 q-79 -51 -124.5 -112.5t-45.5 -118.5t72 -57q15 0 43 4q23 5 30 1t13 -24q8 -25 5 -34.5t-23 -18.5q-44 -21 -97 -21q-69 0 -110.5 37t-42.5 101q-3 66 41.5 133.5t124.5 118.5q-77 -5 -92 -5q-225 0 -336 96t-111 277zM238 522h342q164 0 246.5 55.5t82.5 151.5 q0 88 -67 138.5t-195 50.5q-168 0 -274 -103.5t-135 -292.5z" />
<glyph unicode="&#x11a;" horiz-adv-x="1411" d="M-12 11.5q-5 11.5 2 45.5t17.5 46t29.5 12h98l242 1245h-98q-21 0 -26.5 11.5t1.5 45.5t17.5 46t29.5 12h1034q55 0 69 -16t5 -66l-45 -242q-6 -37 -74 -37q-37 0 -48.5 7.5t-8.5 29.5l37 209h-754l-106 -553h546l23 113q7 37 74 34q37 -1 49.5 -8.5t9.5 -25.5l-65 -340 q-6 -37 -74 -37q-37 0 -49.5 8t-8.5 29l23 118h-551l-113 -583h770l39 209q7 37 74 34q38 -1 50.5 -8.5t9.5 -25.5l-46 -242q-9 -49 -31 -65.5t-77 -16.5h-1049q-21 0 -26 11.5zM547 1882q-27 29 25 40q20 5 46 5q41 0 62.5 -7.5t40.5 -29.5l166 -194l225 194q25 21 51.5 29 t71.5 8q69 0 69 -25q0 -9 -14 -20l-307 -244q-30 -25 -48 -32t-48 -7h-17q-37 0 -57 9t-41 32z" />
<glyph unicode="&#x11b;" horiz-adv-x="1114" d="M90 348q0 325 154.5 498.5t425.5 173.5q174 0 270 -75.5t96 -203.5q0 -154 -117.5 -236.5t-361.5 -82.5h-330q-2 -20 -2 -57q0 -143 79.5 -212t260.5 -69q138 0 293 55q21 9 31 2.5t22 -39.5q7 -21 8 -31.5t-4.5 -17t-19.5 -12.5q-65 -29 -163.5 -47.5t-194.5 -18.5 q-225 0 -336 96t-111 277zM238 522h342q164 0 246.5 55.5t82.5 151.5q0 88 -67 138.5t-195 50.5q-168 0 -274 -103.5t-135 -292.5zM426 1413q-11 20 3 32.5t52 12.5q37 0 56 -8.5t32 -34.5l109 -213l186 213q40 43 115 43t37 -41l-264 -274q-19 -20 -37 -26.5t-47 -6.5 q-61 0 -78 33z" />
<glyph unicode="&#x11c;" horiz-adv-x="1554" d="M106 555q0 279 107 491.5t315 332.5t492 120q189 0 338 -45q68 -21 92 -57t12 -107l-24 -139q-5 -26 -22 -36.5t-64 -10.5q-37 0 -50.5 8.5t-9.5 30.5l39 200q-149 46 -340 46q-224 0 -392.5 -101t-258.5 -286t-90 -429q0 -255 116.5 -367t389.5 -112q187 0 360 66 l96 499h-438q-21 0 -26.5 12.5t2.5 43.5q7 34 16.5 43.5t30.5 9.5h469q60 0 79.5 -20.5t8.5 -71.5l-129 -651q-6 -37 -72 -37q-36 0 -49 14.5t-8 50.5h-21q-141 -78 -346 -78q-314 0 -468.5 142.5t-154.5 437.5zM588 1624q2 10 16 21l305 243q51 39 99 39h16q36 0 57 -8.5 t41 -32.5l221 -241q23 -27 -14 -39q-20 -7 -55 -7q-38 0 -60 8t-40 29l-168 191l-230 -189q-24 -21 -50.5 -30t-70.5 -9q-70 0 -67 25z" />
<glyph unicode="&#x11d;" d="M22 -375q-2 16 13 47q28 52 61 35q164 -84 340 -84q170 0 265.5 80t129.5 248l7 31q20 101 47 174h-21q-73 -79 -156 -113.5t-196 -34.5q-204 0 -303.5 99.5t-99.5 283.5q0 122 42 235t116 201t185 140.5t240 52.5q123 0 207.5 -36.5t114.5 -98.5h22l23 84 q6 22 17.5 28.5t45.5 6.5q29 0 37.5 -6.5t5.5 -24.5l-194 -991q-47 -243 -177 -354t-370 -111q-112 0 -211.5 22.5t-165.5 57.5q-23 12 -25 28zM248 401q0 -284 272 -284q175 0 289 108t143 303l9 56q6 49 6 78q0 121 -73.5 184t-207.5 63q-195 0 -316.5 -142.5 t-121.5 -365.5zM441 1129q1 9 14 22l264 274q29 33 88 33q29 0 44.5 -6.5t27.5 -26.5l163 -270q11 -20 -1.5 -32.5t-51.5 -12.5q-34 0 -51 9t-31 34l-116 209l-185 -209q-22 -25 -46 -34t-64 -9q-29 0 -42.5 5t-12.5 14z" />
<glyph unicode="&#x11e;" horiz-adv-x="1554" d="M106 555q0 279 107 491.5t315 332.5t492 120q189 0 338 -45q68 -21 92 -57t12 -107l-24 -139q-5 -26 -22 -36.5t-64 -10.5q-37 0 -50.5 8.5t-9.5 30.5l39 200q-149 46 -340 46q-224 0 -392.5 -101t-258.5 -286t-90 -429q0 -255 116.5 -367t389.5 -112q187 0 360 66 l96 499h-438q-21 0 -26.5 12.5t2.5 43.5q7 34 16.5 43.5t30.5 9.5h469q60 0 79.5 -20.5t8.5 -71.5l-129 -651q-6 -37 -72 -37q-36 0 -49 14.5t-8 50.5h-21q-141 -78 -346 -78q-314 0 -468.5 142.5t-154.5 437.5zM664 1823q0 42 10 78q5 18 17.5 25t43.5 7q33 0 43.5 -8 t7.5 -24q-6 -37 -6 -66q0 -58 45.5 -88.5t155.5 -30.5q127 0 189.5 44t86.5 141q5 19 18 25.5t50 6.5q30 0 40 -9t7 -28q-24 -133 -127 -204.5t-287 -71.5q-147 0 -220.5 56t-73.5 147z" />
<glyph unicode="&#x11f;" d="M22 -375q-2 16 13 47q28 52 61 35q164 -84 340 -84q170 0 265.5 80t129.5 248l7 31q20 101 47 174h-21q-73 -79 -156 -113.5t-196 -34.5q-204 0 -303.5 99.5t-99.5 283.5q0 122 42 235t116 201t185 140.5t240 52.5q123 0 207.5 -36.5t114.5 -98.5h22l23 84 q6 22 17.5 28.5t45.5 6.5q29 0 37.5 -6.5t5.5 -24.5l-194 -991q-47 -243 -177 -354t-370 -111q-112 0 -211.5 22.5t-165.5 57.5q-23 12 -25 28zM248 401q0 -284 272 -284q175 0 289 108t143 303l9 56q6 49 6 78q0 121 -73.5 184t-207.5 63q-195 0 -316.5 -142.5 t-121.5 -365.5zM475 1341q0 11 4 39q9 49 20.5 61.5t43.5 12.5q36 0 46 -8t7 -25q-10 -48 -10 -75q0 -56 37 -85.5t122 -29.5q94 0 147 44.5t75 141.5q5 22 17.5 29.5t49.5 7.5q28 0 38 -7.5t7 -23.5q-54 -284 -356 -284q-248 0 -248 202z" />
<glyph unicode="&#x120;" horiz-adv-x="1554" d="M106 555q0 279 107 491.5t315 332.5t492 120q189 0 338 -45q68 -21 92 -57t12 -107l-24 -139q-5 -26 -22 -36.5t-64 -10.5q-37 0 -50.5 8.5t-9.5 30.5l39 200q-149 46 -340 46q-224 0 -392.5 -101t-258.5 -286t-90 -429q0 -255 116.5 -367t389.5 -112q187 0 360 66 l96 499h-438q-21 0 -26.5 12.5t2.5 43.5q7 34 16.5 43.5t30.5 9.5h469q60 0 79.5 -20.5t8.5 -71.5l-129 -651q-6 -37 -72 -37q-36 0 -49 14.5t-8 50.5h-21q-141 -78 -346 -78q-314 0 -468.5 142.5t-154.5 437.5zM913 1720q0 138 113 138h23q91 0 94 -76q1 -67 -21 -96 t-73 -29h-62q-38 0 -55 14.5t-19 48.5z" />
<glyph unicode="&#x121;" d="M22 -375q-2 16 13 47q28 52 61 35q164 -84 340 -84q170 0 265.5 80t129.5 248l7 31q20 101 47 174h-21q-73 -79 -156 -113.5t-196 -34.5q-204 0 -303.5 99.5t-99.5 283.5q0 122 42 235t116 201t185 140.5t240 52.5q123 0 207.5 -36.5t114.5 -98.5h22l23 84 q6 22 17.5 28.5t45.5 6.5q29 0 37.5 -6.5t5.5 -24.5l-194 -991q-47 -243 -177 -354t-370 -111q-112 0 -211.5 22.5t-165.5 57.5q-23 12 -25 28zM248 401q0 -284 272 -284q175 0 289 108t143 303l9 56q6 49 6 78q0 121 -73.5 184t-207.5 63q-195 0 -316.5 -142.5 t-121.5 -365.5zM627 1229q-1 67 27.5 102t82.5 35h8q90 0 93 -76q1 -65 -20.5 -93t-69.5 -28h-50q-36 0 -52.5 14.5t-18.5 45.5z" />
<glyph unicode="&#x122;" horiz-adv-x="1554" d="M106 555q0 279 107 491.5t315 332.5t492 120q189 0 338 -45q68 -21 92 -57t12 -107l-24 -139q-5 -26 -22 -36.5t-64 -10.5q-37 0 -50.5 8.5t-9.5 30.5l39 200q-149 46 -340 46q-224 0 -392.5 -101t-258.5 -286t-90 -429q0 -255 116.5 -367t389.5 -112q187 0 360 66 l96 499h-438q-21 0 -26.5 12.5t2.5 43.5q7 34 16.5 43.5t30.5 9.5h469q60 0 79.5 -20.5t8.5 -71.5l-129 -651q-6 -37 -72 -37q-36 0 -49 14.5t-8 50.5h-21q-141 -78 -346 -78q-314 0 -468.5 142.5t-154.5 437.5zM608 -528q57 110 82 206q-49 11 -49 58q0 52 30 84.5t77 32.5 h12q71 0 71 -68q0 -47 -36 -150t-78 -172q-18 -30 -51 -30h-37q-41 0 -21 39z" />
<glyph unicode="&#x123;" d="M22 -375q-2 16 13 47q28 52 61 35q164 -84 340 -84q170 0 265.5 80t129.5 248l7 31q20 101 47 174h-21q-73 -79 -156 -113.5t-196 -34.5q-204 0 -303.5 99.5t-99.5 283.5q0 122 42 235t116 201t185 140.5t240 52.5q123 0 207.5 -36.5t114.5 -98.5h22l23 84 q6 22 17.5 28.5t45.5 6.5q29 0 37.5 -6.5t5.5 -24.5l-194 -991q-47 -243 -177 -354t-370 -111q-112 0 -211.5 22.5t-165.5 57.5q-23 12 -25 28zM248 401q0 -284 272 -284q175 0 289 108t143 303l9 56q6 49 6 78q0 121 -73.5 184t-207.5 63q-195 0 -316.5 -142.5 t-121.5 -365.5zM647 1247q0 47 36.5 150t78.5 172q18 30 51 30h37q40 0 20 -38q-56 -109 -82 -207q50 -11 50 -58q0 -52 -29.5 -84t-77.5 -32h-12q-72 0 -72 67z" />
<glyph unicode="&#x124;" horiz-adv-x="1644" d="M-12 11.5q-5 11.5 2 45.5t17.5 46t29.5 12h98l242 1245h-98q-21 0 -26.5 11.5t1.5 45.5t17.5 46t29.5 12h336q21 0 26.5 -12t-1.5 -46t-17.5 -45.5t-30.5 -11.5h-98l-104 -545h872l107 545h-99q-21 0 -26 11.5t2 45.5t17.5 46t29.5 12h336q21 0 26 -12t-2 -46t-17 -45.5 t-30 -11.5h-98l-242 -1245h98q21 0 26.5 -12t-1.5 -46t-17 -45.5t-30 -11.5h-336q-21 0 -26 11.5t2 45.5t17.5 46t29.5 12h98l113 592h-871l-117 -592h99q21 0 26 -12t-2 -46t-17 -45.5t-30 -11.5h-336q-21 0 -26 11.5zM627 1624q2 10 16 21l305 243q51 39 99 39h16 q36 0 57 -8.5t41 -32.5l221 -241q23 -27 -14 -39q-20 -7 -55 -7q-38 0 -60.5 8t-40.5 29l-168 191l-229 -189q-24 -21 -50.5 -30t-70.5 -9q-70 0 -67 25z" />
<glyph unicode="&#x125;" horiz-adv-x="1294" d="M125 1610q1 9 14 22l264 275q28 32 89 32q29 0 44 -6.5t27 -25.5l164 -271q11 -20 -1.5 -32.5t-51.5 -12.5q-34 0 -51 9t-31 34l-117 209l-184 -209q-22 -25 -46.5 -34t-64.5 -9q-29 0 -42.5 5t-12.5 14zM137 25l252 1308q3 19 -3.5 25t-29.5 6h-55q-37 0 -25 47 q9 36 26 50t52 14h117q40 0 54 -17t5 -61l-49 -260q-38 -209 -71 -297h24q67 93 164.5 136.5t237.5 43.5q158 0 235.5 -71t77.5 -222q0 -67 -19 -160l-77 -403q-6 -34 4 -43.5t53 -9.5h45q20 0 25.5 -11t-0.5 -45t-15.5 -44.5t-34.5 -10.5h-69q-81 0 -114.5 25t-33.5 79 q0 8 7 48l71 368q23 115 23 180q0 111 -52 162t-159 51q-162 0 -286.5 -116t-162.5 -312l-86 -460q-3 -20 -19.5 -28.5t-53.5 -8.5t-49 8.5t-9 28.5z" />
<glyph unicode="&#x126;" horiz-adv-x="1644" d="M-12 11.5q-5 11.5 2 45.5t17.5 46t29.5 12h98l180 927h-159q-19 0 -24 11t1 39q9 51 43 51h158l43 217h-98q-21 0 -26.5 11.5t1.5 45.5t17.5 46t29.5 12h336q21 0 26.5 -12t-1.5 -46t-17.5 -45.5t-30.5 -11.5h-98l-41 -217h873l43 217h-99q-21 0 -26 11.5t2 45.5t17.5 46 t29.5 12h336q21 0 26 -12t-2 -46t-17 -45.5t-30 -11.5h-98l-43 -217h143q14 0 18.5 -10.5t0.5 -40.5t-12.5 -40t-26.5 -10h-142l-180 -927h98q21 0 26.5 -12t-1.5 -46t-17 -45.5t-30 -11.5h-336q-21 0 -26 11.5t2 45.5t17.5 46t29.5 12h98l113 592h-871l-117 -592h99 q21 0 26 -12t-2 -46t-17 -45.5t-30 -11.5h-336q-21 0 -26 11.5zM412 815h872l43 227h-872z" />
<glyph unicode="&#x127;" horiz-adv-x="1294" d="M137 25l213 1110h-143q-19 0 -24 10.5t1 38.5q8 49 43 49h142l20 100q3 19 -3.5 25t-29.5 6h-55q-37 0 -25 47q9 36 26 50t52 14h117q40 0 54 -17t5 -61l-30 -164h374q14 0 18.5 -10t0.5 -39q-4 -30 -12.5 -39.5t-26.5 -9.5h-373q-39 -207 -71 -295h24q67 93 164.5 136.5 t237.5 43.5q158 0 235.5 -71t77.5 -222q0 -67 -19 -160l-77 -403q-6 -34 4 -43.5t53 -9.5h45q20 0 25.5 -11t-0.5 -45t-15.5 -44.5t-34.5 -10.5h-69q-81 0 -114.5 25t-33.5 79q0 8 7 48l71 368q23 115 23 180q0 111 -52 162t-159 51q-162 0 -286.5 -116t-162.5 -312 l-86 -460q-3 -20 -19.5 -28.5t-53.5 -8.5t-49 8.5t-9 28.5z" />
<glyph unicode="&#x128;" horiz-adv-x="630" d="M-12 11.5q-5 11.5 2 45.5t17.5 46t29.5 12h98l242 1245h-98q-21 0 -26.5 11.5t1.5 45.5t17.5 46t29.5 12h336q21 0 26.5 -12t-1.5 -46t-17.5 -45.5t-30.5 -11.5h-98l-242 -1245h99q21 0 26 -12t-2 -46t-17 -45.5t-30 -11.5h-336q-21 0 -26 11.5zM59.5 1718 q-4.5 13 6.5 31q87 145 253 145q57 0 107.5 -20.5t80.5 -45t68 -45t74 -20.5q75 0 117 86q11 22 24 25t50 -12q26 -10 31 -22.5t-5 -33.5q-73 -155 -243 -155q-47 0 -86.5 13.5t-66.5 32.5t-52 37.5t-55 32t-64 13.5q-38 0 -68 -18.5t-69 -71.5q-25 -36 -74 -2 q-24 17 -28.5 30z" />
<glyph unicode="&#x129;" horiz-adv-x="579" d="M-23 1247q81 131 236 131q48 0 89.5 -18.5t66 -40.5t55.5 -40.5t59 -18.5q41 0 66.5 17.5t48.5 61.5q18 35 68 9q21 -10 24.5 -21.5t-4.5 -28.5q-66 -139 -221 -139q-46 0 -87 18.5t-65.5 40t-56 40t-61.5 18.5q-46 0 -78.5 -19t-59.5 -65q-17 -31 -61 2q-37 24 -19 53z M143 104q0 8 7 48l135 700q3 19 -3.5 25t-29.5 6h-55q-37 0 -25 47q9 35 26 49t52 14h117q40 0 54 -17t5 -61l-143 -751q-6 -34 4 -43.5t53 -9.5h45q20 0 25.5 -11t-0.5 -45t-15.5 -44.5t-34.5 -10.5h-69q-81 0 -114.5 25t-33.5 79z" />
<glyph unicode="&#x12a;" horiz-adv-x="630" d="M-12 11.5q-5 11.5 2 45.5t17.5 46t29.5 12h98l242 1245h-98q-21 0 -26.5 11.5t1.5 45.5t17.5 46t29.5 12h336q21 0 26.5 -12t-1.5 -46t-17.5 -45.5t-30.5 -11.5h-98l-242 -1245h99q21 0 26 -12t-2 -46t-17 -45.5t-30 -11.5h-336q-21 0 -26 11.5zM138 1721.5 q-4 9.5 1 43.5q6 32 14 42t27 10h688q27 0 19 -52q-6 -31 -15 -42t-24 -11h-688q-18 0 -22 9.5z" />
<glyph unicode="&#x12b;" horiz-adv-x="579" d="M35.5 1198.5q-4.5 10.5 1.5 38.5q8 49 43 49h563q14 0 18.5 -10t0.5 -39q-4 -30 -12.5 -39.5t-26.5 -9.5h-564q-19 0 -23.5 10.5zM143 104q0 8 7 48l135 700q3 19 -3.5 25t-29.5 6h-55q-37 0 -25 47q9 35 26 49t52 14h117q40 0 54 -17t5 -61l-143 -751q-6 -34 4 -43.5 t53 -9.5h45q20 0 25.5 -11t-0.5 -45t-15.5 -44.5t-34.5 -10.5h-69q-81 0 -114.5 25t-33.5 79z" />
<glyph unicode="&#x12c;" horiz-adv-x="630" d="M-12 11.5q-5 11.5 2 45.5t17.5 46t29.5 12h98l242 1245h-98q-21 0 -26.5 11.5t1.5 45.5t17.5 46t29.5 12h336q21 0 26.5 -12t-1.5 -46t-17.5 -45.5t-30.5 -11.5h-98l-242 -1245h99q21 0 26 -12t-2 -46t-17 -45.5t-30 -11.5h-336q-21 0 -26 11.5zM166 1823q0 42 10 78 q5 18 18 25t44 7q33 0 43.5 -8t7.5 -24q-6 -37 -6 -66q0 -58 45 -88.5t155 -30.5q127 0 190 44t87 141q5 19 17.5 25.5t49.5 6.5q30 0 40 -9t7 -28q-24 -133 -126.5 -204.5t-286.5 -71.5q-147 0 -221 56t-74 147z" />
<glyph unicode="&#x12d;" horiz-adv-x="579" d="M63 1341q0 4 5 39q9 49 20 61.5t43 12.5q36 0 46 -8t7 -25q-10 -48 -10 -75q0 -115 160 -115q94 0 146.5 44.5t74.5 141.5q5 22 18 29.5t50 7.5q28 0 38 -7.5t7 -23.5q-54 -284 -357 -284q-248 0 -248 202zM143 104q0 8 7 48l135 700q3 19 -3.5 25t-29.5 6h-55 q-37 0 -25 47q9 35 26 49t52 14h117q40 0 54 -17t5 -61l-143 -751q-6 -34 4 -43.5t53 -9.5h45q20 0 25.5 -11t-0.5 -45t-15.5 -44.5t-34.5 -10.5h-69q-81 0 -114.5 25t-33.5 79z" />
<glyph unicode="&#x12e;" horiz-adv-x="630" d="M-12 11.5q-5 11.5 2 45.5t17.5 46t29.5 12h98l242 1245h-98q-21 0 -26.5 11.5t1.5 45.5t17.5 46t29.5 12h336q21 0 26.5 -12t-1.5 -46t-17.5 -45.5t-30.5 -11.5h-98l-242 -1245h99q21 0 26 -12t-2 -46q-6 -26 -12 -36.5t-18 -18.5q-7 -4 -21.5 -12.5t-21.5 -12.5 q-92 -54 -137.5 -115.5t-43.5 -121.5q3 -57 72 -57q15 0 43 4q23 5 30 1t13 -24q8 -25 5 -34.5t-23 -18.5q-44 -21 -97 -21q-69 0 -109.5 36.5t-43.5 101.5q-3 72 49 146.5t149 123.5v2h-217q-21 0 -26 11.5z" />
<glyph unicode="&#x12f;" horiz-adv-x="579" d="M47 -272q-3 75 51.5 149.5t153.5 122.5v2q-58 4 -83.5 29.5t-25.5 72.5q0 8 7 48l135 700q3 19 -3.5 25t-29.5 6h-55q-37 0 -25 47q9 35 26 49t52 14h117q40 0 54 -17t5 -61l-143 -751q-6 -34 4 -43.5t53 -9.5h45q20 0 25.5 -11t-0.5 -45q-4 -27 -9.5 -36t-19.5 -17 q-223 -123 -223 -262q0 -57 71 -57q15 0 43 4q23 5 30 1t13 -24q8 -25 5 -34.5t-23 -18.5q-44 -21 -96 -21q-69 0 -111 37t-43 101zM313 1315q0 57 25 88t70 31h20q78 0 78 -70q0 -57 -19 -82t-61 -25h-53q-32 0 -46 13.5t-14 44.5z" />
<glyph unicode="&#x130;" horiz-adv-x="630" d="M-12 11.5q-5 11.5 2 45.5t17.5 46t29.5 12h98l242 1245h-98q-21 0 -26.5 11.5t1.5 45.5t17.5 46t29.5 12h336q21 0 26.5 -12t-1.5 -46t-17.5 -45.5t-30.5 -11.5h-98l-242 -1245h99q21 0 26 -12t-2 -46t-17 -45.5t-30 -11.5h-336q-21 0 -26 11.5zM385 1720q0 138 113 138 h22q91 0 94 -76q1 -67 -21 -96t-73 -29h-61q-38 0 -55 14.5t-19 48.5z" />
<glyph unicode="&#x131;" horiz-adv-x="579" d="M143 104q0 8 7 48l135 700q3 19 -3.5 25t-29.5 6h-55q-37 0 -25 47q9 35 26 49t52 14h117q40 0 54 -17t5 -61l-143 -751q-6 -34 4 -43.5t53 -9.5h45q20 0 25.5 -11t-0.5 -45t-15.5 -44.5t-34.5 -10.5h-69q-81 0 -114.5 25t-33.5 79z" />
<glyph unicode="&#x132;" horiz-adv-x="1568" d="M-12 11.5q-5 11.5 2 45.5t17.5 46t29.5 12h98l242 1245h-98q-21 0 -26.5 11.5t1.5 45.5t17.5 46t29.5 12h336q21 0 26.5 -12t-1.5 -46t-17.5 -45.5t-30.5 -11.5h-98l-242 -1245h99q21 0 26 -12t-2 -46t-17 -45.5t-30 -11.5h-336q-21 0 -26 11.5zM559 90q14 33 30.5 40 t35.5 -3q98 -37 192 -37q271 0 334 322l180 948h-162q-21 0 -26 11.5t2 45.5t17.5 46t29.5 12h403q21 0 26.5 -12t-1.5 -46t-17 -45.5t-30 -11.5h-103l-178 -932q-45 -239 -161.5 -346t-323.5 -107q-64 0 -132.5 13t-105.5 32q-33 14 -10 70z" />
<glyph unicode="&#x133;" horiz-adv-x="1126" d="M143 104q0 8 7 48l135 700q3 19 -3.5 25t-29.5 6h-55q-37 0 -25 47q9 35 26 49t52 14h117q40 0 54 -17t5 -61l-143 -751q-6 -34 4 -43.5t53 -9.5h45q20 0 25.5 -11t-0.5 -45t-15.5 -44.5t-34.5 -10.5h-69q-81 0 -114.5 25t-33.5 79zM298.5 -428q-0.5 13 12.5 39 q14 31 26.5 36.5t35.5 -3.5q55 -19 108 -19q72 0 111.5 42t60.5 151l199 1034q3 19 -3.5 25t-29.5 6h-55q-37 0 -25 47q9 35 26 49t52 14h117q40 0 54 -17t5 -61l-207 -1085q-32 -170 -104.5 -241.5t-206.5 -71.5q-96 0 -158 32q-18 10 -18.5 23zM313 1315q0 57 25 88t70 31 h20q78 0 78 -70q0 -57 -19 -82t-61 -25h-53q-32 0 -46 13.5t-14 44.5zM881 1315q0 57 25 88t69 31h20q78 0 78 -70q0 -57 -19 -82t-61 -25h-53q-32 0 -45.5 13.5t-13.5 44.5z" />
<glyph unicode="&#x134;" horiz-adv-x="958" d="M-51 90q14 33 30 40t35 -3q98 -37 193 -37q271 0 334 322l180 948h-162q-21 0 -26 11.5t2 45.5t17.5 46t29.5 12h403q21 0 26.5 -12t-1.5 -46t-17 -45.5t-30 -11.5h-103l-178 -932q-45 -239 -161.5 -346t-323.5 -107q-64 0 -132.5 13t-105.5 32q-33 14 -10 70zM402 1624 q2 10 16 21l305 243q51 39 98 39h17q36 0 57 -8.5t41 -32.5l221 -241q23 -26 -13 -39q-22 -7 -57 -7q-38 0 -60 8t-40 29l-168 191l-229 -189q-24 -21 -50.5 -30t-70.5 -9q-70 0 -67 25z" />
<glyph unicode="&#x135;" horiz-adv-x="567" d="M-260.5 -428q-0.5 13 12.5 39q14 31 26.5 36.5t35.5 -3.5q55 -19 108 -19q72 0 111.5 42t60.5 151l199 1034q3 19 -3.5 25t-29.5 6h-55q-37 0 -25 47q9 35 26 49t52 14h117q40 0 54 -17t5 -61l-207 -1085q-32 -170 -104.5 -241.5t-206.5 -71.5q-96 0 -158 32 q-18 10 -18.5 23zM27 1129q1 9 14 22l264 274q29 33 88 33q29 0 44.5 -6.5t27.5 -26.5l164 -270q11 -20 -2 -32.5t-52 -12.5q-34 0 -50.5 9t-30.5 34l-117 209l-184 -209q-22 -25 -46.5 -34t-64.5 -9q-29 0 -42.5 5t-12.5 14z" />
<glyph unicode="&#x136;" horiz-adv-x="1454" d="M-12 11.5q-5 11.5 2 45.5t17.5 46t29.5 12h98l242 1245h-98q-21 0 -26.5 11.5t1.5 45.5t17.5 46t29.5 12h336q21 0 26.5 -12t-1.5 -46t-17.5 -45.5t-30.5 -11.5h-98l-110 -565h290l504 565h-156q-21 0 -26 11.5t2 45.5t17.5 46t29.5 12h438q21 0 26.5 -12t-1.5 -46 t-17 -45.5t-30 -11.5h-117l-532 -596l307 -649h108q21 0 26.5 -12t-1.5 -46t-17 -45.5t-30 -11.5h-105q-51 0 -80 20t-51 68l-274 598h-332l-111 -571h99q21 0 26 -12t-2 -46t-17 -45.5t-30 -11.5h-336q-21 0 -26 11.5zM502 -528q57 110 82 206q-49 11 -49 58 q0 52 29.5 84.5t76.5 32.5h12q72 0 72 -68q0 -47 -36.5 -150t-78.5 -172q-18 -30 -51 -30h-37q-40 0 -20 39z" />
<glyph unicode="&#x137;" horiz-adv-x="1126" d="M137 25l252 1308q3 19 -3.5 25t-29.5 6h-55q-37 0 -25 47q9 36 26 50t52 14h117q40 0 54 -17t5 -61l-153 -799h244l278 373q15 20 37 28.5t72 8.5q35 0 44.5 -10t-3.5 -27l-347 -453l175 -330q25 -48 46.5 -62.5t71.5 -14.5h6q20 0 25.5 -11t-0.5 -45t-15 -44.5 t-34 -10.5h-14q-80 0 -121.5 27t-77.5 98l-189 373h-217l-90 -473q-3 -20 -19.5 -28.5t-53.5 -8.5t-49 8.5t-9 28.5zM365 -528q54 106 81 206q-49 11 -49 58q0 52 30 84.5t77 32.5h12q72 0 72 -68q0 -47 -36.5 -150t-78.5 -172q-18 -30 -51 -30h-37q-40 0 -20 39z" />
<glyph unicode="&#x138;" horiz-adv-x="1130" d="M141 25l160 827q3 19 -3.5 25t-29.5 6h-55q-37 0 -25 47q9 35 26 49t52 14h117q40 0 54 -17t5 -61l-61 -317h244l278 373q15 20 37 28.5t72 8.5q35 0 44.5 -10t-3.5 -27l-346 -453l174 -330q25 -48 46.5 -62.5t71.5 -14.5h7q19 0 24 -10.5t0 -45.5q-6 -34 -15 -44.5 t-34 -10.5h-14q-80 0 -121.5 27t-77.5 98l-188 373h-218l-90 -473q-3 -20 -19.5 -28.5t-53.5 -8.5t-49 8.5t-9 28.5z" />
<glyph unicode="&#x139;" horiz-adv-x="1290" d="M-12 11.5q-5 11.5 2 45.5t17.5 46t29.5 12h98l242 1245h-98q-21 0 -26.5 11.5t1.5 45.5t17.5 46t29.5 12h383q21 0 26.5 -12t-1.5 -46t-17 -45.5t-30 -11.5h-146l-242 -1245h711l47 245q8 38 74 35q37 -1 49.5 -9t9.5 -26l-53 -278q-9 -49 -31 -65.5t-77 -16.5h-990 q-21 0 -26 11.5zM374 1621q-2 12 9 21l309 244q53 41 146 41q52 0 64 -23q8 -16 -11 -28l-346 -242q-49 -35 -115 -35q-50 0 -56 22z" />
<glyph unicode="&#x13a;" horiz-adv-x="595" d="M143 104q0 8 7 48l227 1181q3 19 -3.5 25t-29.5 6h-55q-37 0 -25 47q9 36 26 50t52 14h117q40 0 54 -17t5 -61l-235 -1233q-6 -34 4 -43.5t53 -9.5h45q20 0 25.5 -11t-0.5 -45t-15.5 -44.5t-34.5 -10.5h-69q-81 0 -114.5 25t-33.5 79zM269 1677q2 7 7 13l248 272 q21 24 45 32.5t76 8.5q65 0 68 -24q1 -8 -8 -17l-287 -272q-38 -35 -94 -35q-60 0 -55 22z" />
<glyph unicode="&#x13b;" horiz-adv-x="1290" d="M-12 11.5q-5 11.5 2 45.5t17.5 46t29.5 12h98l242 1245h-98q-21 0 -26.5 11.5t1.5 45.5t17.5 46t29.5 12h383q21 0 26.5 -12t-1.5 -46t-17 -45.5t-30 -11.5h-146l-242 -1245h711l47 245q8 38 74 35q37 -1 49.5 -9t9.5 -26l-53 -278q-9 -49 -31 -65.5t-77 -16.5h-990 q-21 0 -26 11.5zM438 -528q57 110 82 206q-49 11 -49 58q0 52 30 84.5t77 32.5h12q72 0 72 -68q0 -47 -36.5 -150t-78.5 -172q-18 -30 -51 -30h-37q-41 0 -21 39z" />
<glyph unicode="&#x13c;" horiz-adv-x="595" d="M119 -528q57 110 82 206q-49 11 -49 58q0 52 29.5 84.5t76.5 32.5h12q72 0 72 -68q0 -47 -36.5 -150t-78.5 -172q-18 -30 -51 -30h-37q-40 0 -20 39zM143 104q0 8 7 48l227 1181q3 19 -3.5 25t-29.5 6h-55q-37 0 -25 47q9 36 26 50t52 14h117q40 0 54 -17t5 -61 l-235 -1233q-6 -34 4 -43.5t53 -9.5h45q20 0 25.5 -11t-0.5 -45t-15.5 -44.5t-34.5 -10.5h-69q-81 0 -114.5 25t-33.5 79z" />
<glyph unicode="&#x13d;" horiz-adv-x="1290" d="M-12 11.5q-5 11.5 2 45.5t17.5 46t29.5 12h98l242 1245h-98q-21 0 -26.5 11.5t1.5 45.5t17.5 46t29.5 12h383q21 0 26.5 -12t-1.5 -46t-17 -45.5t-30 -11.5h-146l-242 -1245h711l47 245q8 38 74 35q37 -1 49.5 -9t9.5 -26l-53 -278q-9 -49 -31 -65.5t-77 -16.5h-990 q-21 0 -26 11.5zM784 1069q56 109 82 207q-49 11 -49 57q0 52 30 84.5t77 32.5h12q72 0 72 -68q0 -46 -36.5 -148.5t-78.5 -172.5q-18 -31 -51 -31h-37q-41 0 -21 39z" />
<glyph unicode="&#x13e;" horiz-adv-x="841" d="M143 104q0 8 7 48l227 1181q3 19 -3.5 25t-29.5 6h-55q-37 0 -25 47q9 36 26 50t52 14h117q40 0 54 -17t5 -61l-235 -1233q-6 -34 4 -43.5t53 -9.5h45q20 0 25.5 -11t-0.5 -45t-15.5 -44.5t-34.5 -10.5h-69q-81 0 -114.5 25t-33.5 79zM602 1069q56 109 82 207 q-49 11 -49 57q0 52 29.5 84.5t76.5 32.5h13q71 0 71 -68q0 -47 -36 -149.5t-78 -171.5q-18 -31 -52 -31h-36q-41 0 -21 39z" />
<glyph unicode="&#x13f;" horiz-adv-x="1290" d="M-12 11.5q-5 11.5 2 45.5t17.5 46t29.5 12h98l242 1245h-98q-21 0 -26.5 11.5t1.5 45.5t17.5 46t29.5 12h383q21 0 26.5 -12t-1.5 -46t-17 -45.5t-30 -11.5h-146l-242 -1245h711l47 245q8 38 74 35q37 -1 49.5 -9t9.5 -26l-53 -278q-9 -49 -31 -65.5t-77 -16.5h-990 q-21 0 -26 11.5zM627 774q-1 67 27.5 102t82.5 35h8q47 0 69 -18t24 -57q1 -65 -20.5 -93t-69.5 -28h-50q-36 0 -52.5 14t-18.5 45z" />
<glyph unicode="&#x140;" horiz-adv-x="845" d="M143 104q0 8 7 48l227 1181q3 19 -3.5 25t-29.5 6h-55q-37 0 -25 47q9 36 26 50t52 14h117q40 0 54 -17t5 -61l-235 -1233q-6 -34 4 -43.5t53 -9.5h45q20 0 25.5 -11t-0.5 -45t-15.5 -44.5t-34.5 -10.5h-69q-81 0 -114.5 25t-33.5 79zM604 633q0 63 31.5 99t83.5 36h24 q86 0 86 -80q0 -64 -23 -93.5t-71 -29.5h-63q-36 0 -52 16t-16 52z" />
<glyph unicode="&#x141;" horiz-adv-x="1290" d="M-12 11.5q-5 11.5 2 45.5t17.5 46t29.5 12h98l94 483l-147 -47q-22 -6 -30 2t-11 39q-3 35 1.5 47t23.5 18l186 60l125 643h-98q-21 0 -26.5 11.5t1.5 45.5t17.5 46t29.5 12h383q21 0 26.5 -12t-1.5 -46t-17 -45.5t-30 -11.5h-146l-115 -596l265 86q18 6 26.5 -2.5 t12.5 -42.5q4 -32 -1 -45t-24 -19l-303 -96l-103 -530h711l47 245q8 38 74 35q37 -1 49.5 -9t9.5 -26l-53 -278q-9 -49 -31 -65.5t-77 -16.5h-990q-21 0 -26 11.5z" />
<glyph unicode="&#x142;" horiz-adv-x="595" d="M0 750q-3 35 1.5 47t23.5 18l268 86l84 432q3 19 -3.5 25t-29.5 6h-55q-37 0 -25 47q9 36 26 50t52 14h117q40 0 54 -17t5 -61l-88 -453l209 68q18 6 26.5 -2.5t12.5 -42.5q4 -32 -1 -45t-24 -19l-245 -78l-125 -661q-6 -34 4 -43.5t53 -9.5h45q20 0 25.5 -11t-0.5 -45 t-15.5 -44.5t-34.5 -10.5h-69q-81 0 -114.5 25t-33.5 79q0 8 7 48l120 628l-229 -71q-22 -6 -30 2t-11 39z" />
<glyph unicode="&#x143;" horiz-adv-x="1601" d="M-12 11.5q-5 11.5 2 45.5t17.5 46t29.5 12h98l242 1245h-98q-21 0 -26.5 11.5t1.5 45.5t17.5 46t29.5 12h238q80 0 98 -50l362 -948q81 -214 123 -362h23l241 1245h-165q-21 0 -26.5 11.5t1.5 45.5t17.5 46t29.5 12h393q21 0 26.5 -12t-1.5 -46t-17 -45.5t-30 -11.5h-98 l-256 -1323q-4 -26 -20.5 -36.5t-47.5 -10.5h-84q-48 0 -69 11t-33 44l-373 997q-53 140 -103 324h-22l-244 -1251h166q21 0 26.5 -12t-1.5 -46t-17 -45.5t-30 -11.5h-394q-21 0 -26 11.5zM796 1621q-2 12 9 21l309 244q53 41 146 41q52 0 64 -23q8 -16 -11 -28l-346 -242 q-49 -35 -115 -35q-50 0 -56 22z" />
<glyph unicode="&#x144;" horiz-adv-x="1290" d="M141 25l160 827q3 19 -3.5 25t-29.5 6h-55q-37 0 -25 47q9 35 26 49t52 14h96q44 0 58 -17t8 -63l-10 -71h24q65 93 162 135.5t234 42.5q154 0 230.5 -71t76.5 -222q0 -67 -19 -160l-77 -403q-6 -34 4 -43.5t53 -9.5h45q20 0 25.5 -11t-0.5 -45t-15.5 -44.5t-34.5 -10.5 h-69q-81 0 -114.5 25t-33.5 79q0 14 6 48l72 368q23 115 23 180q0 111 -51.5 162t-157.5 51q-162 0 -283 -117.5t-158 -310.5l-88 -460q-3 -20 -19 -28.5t-54 -8.5q-37 0 -49 8.5t-9 28.5zM543 1132q2 7 8 13l295 272q45 41 129 41q66 0 69 -23q1 -9 -10 -18l-332 -272 q-47 -35 -104 -35q-58 0 -55 22z" />
<glyph unicode="&#x145;" horiz-adv-x="1601" d="M-12 11.5q-5 11.5 2 45.5t17.5 46t29.5 12h98l242 1245h-98q-21 0 -26.5 11.5t1.5 45.5t17.5 46t29.5 12h238q80 0 98 -50l362 -948q81 -214 123 -362h23l241 1245h-165q-21 0 -26.5 11.5t1.5 45.5t17.5 46t29.5 12h393q21 0 26.5 -12t-1.5 -46t-17 -45.5t-30 -11.5h-98 l-256 -1323q-4 -26 -20.5 -36.5t-47.5 -10.5h-84q-48 0 -69 11t-33 44l-373 997q-53 140 -103 324h-22l-244 -1251h166q21 0 26.5 -12t-1.5 -46t-17 -45.5t-30 -11.5h-394q-21 0 -26 11.5zM569 -528q57 110 82 206q-49 11 -49 58q0 52 30 84.5t77 32.5h12q72 0 72 -68 q0 -47 -36.5 -150t-78.5 -172q-18 -30 -51 -30h-37q-41 0 -21 39z" />
<glyph unicode="&#x146;" horiz-adv-x="1290" d="M141 25l160 827q3 19 -3.5 25t-29.5 6h-55q-37 0 -25 47q9 35 26 49t52 14h96q44 0 58 -17t8 -63l-10 -71h24q65 93 162 135.5t234 42.5q154 0 230.5 -71t76.5 -222q0 -67 -19 -160l-77 -403q-6 -34 4 -43.5t53 -9.5h45q20 0 25.5 -11t-0.5 -45t-15.5 -44.5t-34.5 -10.5 h-69q-81 0 -114.5 25t-33.5 79q0 14 6 48l72 368q23 115 23 180q0 111 -51.5 162t-157.5 51q-162 0 -283 -117.5t-158 -310.5l-88 -460q-3 -20 -19 -28.5t-54 -8.5q-37 0 -49 8.5t-9 28.5zM483 -528q57 110 82 206q-49 11 -49 58q0 52 30 84.5t77 32.5h12q72 0 72 -68 q0 -47 -36.5 -150t-78.5 -172q-18 -30 -51 -30h-37q-41 0 -21 39z" />
<glyph unicode="&#x147;" horiz-adv-x="1601" d="M-12 11.5q-5 11.5 2 45.5t17.5 46t29.5 12h98l242 1245h-98q-21 0 -26.5 11.5t1.5 45.5t17.5 46t29.5 12h238q80 0 98 -50l362 -948q81 -214 123 -362h23l241 1245h-165q-21 0 -26.5 11.5t1.5 45.5t17.5 46t29.5 12h393q21 0 26.5 -12t-1.5 -46t-17 -45.5t-30 -11.5h-98 l-256 -1323q-4 -26 -20.5 -36.5t-47.5 -10.5h-84q-48 0 -69 11t-33 44l-373 997q-53 140 -103 324h-22l-244 -1251h166q21 0 26.5 -12t-1.5 -46t-17 -45.5t-30 -11.5h-394q-21 0 -26 11.5zM633 1882q-27 28 24 40q21 5 48 5q41 0 62 -7.5t40 -29.5l166 -194l225 194 q25 21 51.5 29t71.5 8q69 0 69 -25q0 -9 -14 -20l-307 -244q-30 -25 -48 -32t-48 -7h-17q-37 0 -57 9t-41 32z" />
<glyph unicode="&#x148;" horiz-adv-x="1290" d="M141 25l160 827q3 19 -3.5 25t-29.5 6h-55q-37 0 -25 47q9 35 26 49t52 14h96q44 0 58 -17t8 -63l-10 -71h24q65 93 162 135.5t234 42.5q154 0 230.5 -71t76.5 -222q0 -67 -19 -160l-77 -403q-6 -34 4 -43.5t53 -9.5h45q20 0 25.5 -11t-0.5 -45t-15.5 -44.5t-34.5 -10.5 h-69q-81 0 -114.5 25t-33.5 79q0 14 6 48l72 368q23 115 23 180q0 111 -51.5 162t-157.5 51q-162 0 -283 -117.5t-158 -310.5l-88 -460q-3 -20 -19 -28.5t-54 -8.5q-37 0 -49 8.5t-9 28.5zM545 1413q-11 20 3 32.5t52 12.5q37 0 56 -8.5t32 -34.5l109 -213l186 213 q40 43 115 43t37 -41l-265 -274q-19 -20 -37 -26.5t-47 -6.5q-60 0 -77 33z" />
<glyph unicode="&#x149;" horiz-adv-x="1273" d="M-57 1049q57 110 82 206q-50 11 -50 58q0 52 30 84.5t77 32.5h12q72 0 72 -68q0 -47 -36.5 -150t-78.5 -172q-18 -30 -51 -30h-37q-40 0 -20 39zM125 25l160 827q3 19 -3.5 25t-29.5 6h-55q-37 0 -25 47q9 35 26 49t52 14h96q44 0 58 -17t8 -63l-11 -71h25 q65 93 161.5 135.5t233.5 42.5q154 0 230.5 -71t76.5 -222q0 -71 -18 -160l-78 -403q-6 -34 4.5 -43.5t53.5 -9.5h45q19 0 24 -10.5t0 -45.5q-6 -34 -15 -44.5t-34 -10.5h-70q-81 0 -114 25t-33 79q0 14 6 48l72 368q22 110 22 180q0 111 -51.5 162t-157.5 51 q-161 0 -282 -117.5t-158 -310.5l-88 -460q-3 -20 -19.5 -28.5t-54.5 -8.5q-37 0 -48.5 8.5t-8.5 28.5z" />
<glyph unicode="&#x14a;" horiz-adv-x="1601" d="M-12 11.5q-5 11.5 2 45.5t17.5 46t29.5 12h98l242 1245h-98q-21 0 -26.5 11.5t1.5 45.5t17.5 46t29.5 12h238q80 0 98 -50l362 -948q81 -214 123 -362h23l241 1245h-165q-21 0 -26.5 11.5t1.5 45.5t17.5 46t29.5 12h393q21 0 26.5 -12t-1.5 -46t-17 -45.5t-30 -11.5h-98 l-269 -1391q-45 -240 -159.5 -346t-321.5 -106q-64 0 -132.5 13t-105.5 32q-33 14 -10 69q14 33 30.5 40t35.5 -3q98 -37 192 -37q140 0 226 82t112 240l6 37h-12q-48 0 -69 11t-33 44l-373 997q-53 140 -103 324h-22l-244 -1251h166q21 0 26.5 -12t-1.5 -46t-17 -45.5 t-30 -11.5h-394q-21 0 -26 11.5z" />
<glyph unicode="&#x14b;" horiz-adv-x="1327" d="M141 25l160 827q3 19 -3.5 25t-29.5 6h-55q-37 0 -25 47q9 35 26 49t52 14h96q44 0 58 -17t8 -63l-10 -71h24q65 93 162 135.5t234 42.5q154 0 230.5 -71t76.5 -222q0 -67 -19 -160l-141 -737q-32 -170 -104.5 -241.5t-206.5 -71.5q-96 0 -158 32q-18 10 -18.5 23 t12.5 39q14 31 26 36.5t35 -3.5q55 -19 109 -19q72 0 111.5 42t60.5 151l135 702q23 115 23 180q0 111 -51.5 162t-157.5 51q-162 0 -283 -117.5t-158 -310.5l-88 -460q-3 -20 -19 -28.5t-54 -8.5q-37 0 -49 8.5t-9 28.5z" />
<glyph unicode="&#x14c;" horiz-adv-x="1570" d="M106 549q0 199 55.5 372.5t157 302t253.5 202t335 73.5q557 0 557 -571q0 -215 -58.5 -393.5t-163 -301t-253 -190.5t-325.5 -68q-284 0 -421 141t-137 433zM250 553q0 -238 103.5 -351.5t320.5 -113.5q194 0 343 113t226.5 300.5t77.5 416.5q0 468 -430 468 q-191 0 -339 -113.5t-225 -302t-77 -417.5zM590 1721.5q-4 9.5 2 43.5q6 32 14 42t27 10h688q26 0 18 -52q-6 -31 -15 -42t-24 -11h-688q-18 0 -22 9.5z" />
<glyph unicode="&#x14d;" horiz-adv-x="1159" d="M90 365q0 195 64 341.5t193.5 230t311.5 83.5q196 0 303 -102t107 -293q0 -193 -65.5 -339t-195 -228.5t-308.5 -82.5q-203 0 -306.5 103t-103.5 287zM223 373q0 -143 72.5 -219t218.5 -76q193 0 307.5 142.5t114.5 391.5q0 153 -74.5 229.5t-216.5 76.5 q-198 0 -310 -145t-112 -400zM365.5 1198.5q-4.5 10.5 1.5 38.5q8 49 43 49h563q14 0 18 -9.5t0 -39.5t-12.5 -39.5t-26.5 -9.5h-563q-19 0 -23.5 10.5z" />
<glyph unicode="&#x14e;" horiz-adv-x="1570" d="M106 549q0 199 55.5 372.5t157 302t253.5 202t335 73.5q557 0 557 -571q0 -215 -58.5 -393.5t-163 -301t-253 -190.5t-325.5 -68q-284 0 -421 141t-137 433zM250 553q0 -238 103.5 -351.5t320.5 -113.5q194 0 343 113t226.5 300.5t77.5 416.5q0 468 -430 468 q-191 0 -339 -113.5t-225 -302t-77 -417.5zM629 1823q0 42 10 78q5 18 17.5 25t43.5 7q33 0 44 -8t8 -24q-7 -44 -7 -66q0 -58 45.5 -88.5t155.5 -30.5q127 0 190 44t87 141q5 19 17.5 25.5t49.5 6.5q30 0 40 -9t7 -28q-24 -133 -126.5 -204.5t-286.5 -71.5q-147 0 -221 56 t-74 147z" />
<glyph unicode="&#x14f;" horiz-adv-x="1159" d="M90 365q0 195 64 341.5t193.5 230t311.5 83.5q196 0 303 -102t107 -293q0 -193 -65.5 -339t-195 -228.5t-308.5 -82.5q-203 0 -306.5 103t-103.5 287zM223 373q0 -143 72.5 -219t218.5 -76q193 0 307.5 142.5t114.5 391.5q0 153 -74.5 229.5t-216.5 76.5 q-198 0 -310 -145t-112 -400zM401 1341q0 4 5 39q9 49 20 61.5t43 12.5q36 0 46 -8t7 -25q-10 -48 -10 -75q0 -115 160 -115q94 0 146.5 44.5t74.5 141.5q5 22 18 29.5t50 7.5q28 0 38 -7.5t7 -23.5q-54 -284 -357 -284q-248 0 -248 202z" />
<glyph unicode="&#x150;" horiz-adv-x="1570" d="M106 549q0 199 55.5 372.5t157 302t253.5 202t335 73.5q557 0 557 -571q0 -215 -58.5 -393.5t-163 -301t-253 -190.5t-325.5 -68q-284 0 -421 141t-137 433zM250 553q0 -238 103.5 -351.5t320.5 -113.5q194 0 343 113t226.5 300.5t77.5 416.5q0 468 -430 468 q-191 0 -339 -113.5t-225 -302t-77 -417.5zM573 1634l248 252q41 41 121 41q39 0 51.5 -12.5t-8.5 -32.5l-268 -248q-15 -15 -42.5 -25t-53.5 -10q-78 0 -48 35zM985 1621q1 6 8 13l248 252q41 41 119 41q27 0 42 -6t15 -16t-12 -23l-268 -248q-38 -35 -97 -35q-61 0 -55 22 z" />
<glyph unicode="&#x151;" horiz-adv-x="1159" d="M90 365q0 195 64 341.5t193.5 230t311.5 83.5q196 0 303 -102t107 -293q0 -193 -65.5 -339t-195 -228.5t-308.5 -82.5q-203 0 -306.5 103t-103.5 287zM223 373q0 -143 72.5 -219t218.5 -76q193 0 307.5 142.5t114.5 391.5q0 153 -74.5 229.5t-216.5 76.5 q-198 0 -310 -145t-112 -400zM354 1118q-8 8 6 27l220 272q30 41 108 41q72 0 39 -41l-244 -272q-32 -35 -88 -35q-33 0 -41 8zM715 1145l221 272q33 41 106 41q76 0 41 -41l-243 -272q-28 -35 -90 -35t-35 35z" />
<glyph unicode="&#x152;" horiz-adv-x="2361" d="M106 563q0 264 89 474.5t264.5 336t410.5 125.5q337 0 441 -201h28l19 101q8 44 35.5 60t99.5 16h793q55 0 68.5 -16t4.5 -66l-45 -242q-3 -19 -19.5 -28t-53.5 -9t-49 7.5t-9 29.5l37 209h-727l-107 -553h521l22 113q7 37 74 34q37 -1 49.5 -8.5t9.5 -25.5l-65 -340 q-6 -37 -74 -37q-37 0 -49 7.5t-8 29.5l22 118h-524l-113 -583h744l39 209q7 36 73 34q38 -1 50.5 -8.5t9.5 -25.5l-45 -242q-9 -49 -31.5 -65.5t-77.5 -16.5h-803q-76 0 -96.5 17.5t-11.5 64.5l14 68h-29q-165 -175 -452 -175q-272 0 -400.5 143t-128.5 445zM246 561 q0 -245 98.5 -359t300.5 -114q141 0 258 65.5t193.5 178t118.5 261.5t42 318q0 475 -403 475q-129 0 -241 -60.5t-193 -167t-127.5 -261.5t-46.5 -336z" />
<glyph unicode="&#x153;" horiz-adv-x="1910" d="M90 352q0 312 151.5 490t411.5 178q296 0 353 -205h24q133 205 443 205q175 0 267.5 -75t92.5 -204q0 -319 -471 -319h-330l-2 -57q-5 -138 77.5 -209.5t262.5 -71.5q130 0 285 55q21 9 31 2.5t22 -39.5q7 -21 8 -31.5t-4.5 -17t-19.5 -12.5q-66 -29 -161 -47.5 t-190 -18.5q-164 0 -266 51.5t-135 147.5h-22q-66 -96 -175 -147.5t-247 -51.5q-198 0 -302 96.5t-104 280.5zM223 360q0 -282 287 -282q196 0 305 150t109 399q0 291 -287 291q-192 0 -303 -149t-111 -409zM1042 522h342q163 0 242.5 55.5t79.5 151.5q0 89 -63.5 139 t-190.5 50q-168 0 -274.5 -103.5t-135.5 -292.5z" />
<glyph unicode="&#x154;" horiz-adv-x="1386" d="M-12 11.5q-5 11.5 2 45.5t17.5 46t29.5 12h98l242 1245h-98q-21 0 -26.5 11.5t1.5 45.5t17.5 46t29.5 12h449q563 0 563 -361q0 -202 -108 -330.5t-324 -167.5l180 -501h110q21 0 26.5 -12t-1.5 -46t-17 -45.5t-30 -11.5h-78q-75 0 -109 20.5t-51 75.5l-166 504h-378 l-93 -485h175q21 0 26 -12t-2 -46t-17 -45.5t-30 -11.5h-412q-21 0 -26 11.5zM389 707h295q257 0 371 102.5t114 294.5q0 256 -450 256h-203zM593 1621q-2 12 9 21l309 244q53 41 146 41q52 0 64 -23q8 -16 -11 -28l-346 -242q-49 -35 -115 -35q-50 0 -56 22z" />
<glyph unicode="&#x155;" horiz-adv-x="897" d="M141 25l160 827q3 19 -3.5 25t-29.5 6h-55q-37 0 -25 47q9 35 26 49t52 14h96q44 0 58 -17t8 -63l-10 -86h20q100 193 324 193q70 0 131 -21q19 -6 22 -21t-10 -50q-11 -31 -23 -38.5t-34 -2.5q-65 14 -109 14q-136 0 -242.5 -130t-152.5 -374l-72 -372q-5 -21 -20 -29 t-53 -8q-37 0 -49 8.5t-9 28.5zM342 1132q2 7 8 13l295 272q45 41 129 41q67 0 70 -23q1 -9 -10 -18l-332 -272q-47 -35 -105 -35t-55 22z" />
<glyph unicode="&#x156;" horiz-adv-x="1386" d="M-12 11.5q-5 11.5 2 45.5t17.5 46t29.5 12h98l242 1245h-98q-21 0 -26.5 11.5t1.5 45.5t17.5 46t29.5 12h449q563 0 563 -361q0 -202 -108 -330.5t-324 -167.5l180 -501h110q21 0 26.5 -12t-1.5 -46t-17 -45.5t-30 -11.5h-78q-75 0 -109 20.5t-51 75.5l-166 504h-378 l-93 -485h175q21 0 26 -12t-2 -46t-17 -45.5t-30 -11.5h-412q-21 0 -26 11.5zM389 707h295q257 0 371 102.5t114 294.5q0 256 -450 256h-203zM526 -528q57 110 82 206q-49 11 -49 58q0 52 30 84.5t77 32.5h12q72 0 72 -68q0 -47 -36.5 -150t-78.5 -172q-18 -30 -51 -30h-37 q-41 0 -21 39z" />
<glyph unicode="&#x157;" horiz-adv-x="897" d="M55 -528q57 110 82 206q-49 11 -49 58q0 52 30 84.5t77 32.5h12q72 0 72 -68q0 -47 -36.5 -150t-78.5 -172q-18 -30 -51 -30h-37q-41 0 -21 39zM141 25l160 827q3 19 -3.5 25t-29.5 6h-55q-37 0 -25 47q9 35 26 49t52 14h96q44 0 58 -17t8 -63l-10 -86h20 q100 193 324 193q70 0 131 -21q19 -6 22 -21t-10 -50q-11 -31 -23 -38.5t-34 -2.5q-65 14 -109 14q-136 0 -242.5 -130t-152.5 -374l-72 -372q-5 -21 -20 -29t-53 -8q-37 0 -49 8.5t-9 28.5z" />
<glyph unicode="&#x158;" horiz-adv-x="1386" d="M-12 11.5q-5 11.5 2 45.5t17.5 46t29.5 12h98l242 1245h-98q-21 0 -26.5 11.5t1.5 45.5t17.5 46t29.5 12h449q563 0 563 -361q0 -202 -108 -330.5t-324 -167.5l180 -501h110q21 0 26.5 -12t-1.5 -46t-17 -45.5t-30 -11.5h-78q-75 0 -109 20.5t-51 75.5l-166 504h-378 l-93 -485h175q21 0 26 -12t-2 -46t-17 -45.5t-30 -11.5h-412q-21 0 -26 11.5zM389 707h295q257 0 371 102.5t114 294.5q0 256 -450 256h-203zM481 1882q-27 28 24 40q21 5 48 5q41 0 62 -7.5t40 -29.5l166 -194l226 194q25 21 51 29t71 8q70 0 70 -25q-1 -9 -14 -20 l-307 -244q-30 -24 -48.5 -31.5t-48.5 -7.5h-16q-37 0 -57 9t-41 32z" />
<glyph unicode="&#x159;" horiz-adv-x="897" d="M141 25l160 827q3 19 -3.5 25t-29.5 6h-55q-37 0 -25 47q9 35 26 49t52 14h96q44 0 58 -17t8 -63l-10 -86h20q100 193 324 193q70 0 131 -21q19 -6 22 -21t-10 -50q-11 -31 -23 -38.5t-34 -2.5q-65 14 -109 14q-136 0 -242.5 -130t-152.5 -374l-72 -372q-5 -21 -20 -29 t-53 -8q-37 0 -49 8.5t-9 28.5zM311 1413q-11 20 3.5 32.5t52.5 12.5q37 0 56 -8.5t32 -34.5l108 -213l187 213q40 43 114 43q75 0 37 -41l-264 -274q-19 -20 -37 -26.5t-47 -6.5q-61 0 -78 33z" />
<glyph unicode="&#x15a;" horiz-adv-x="1372" d="M41 195l22 106q6 28 23 37.5t64 9.5q36 0 46 -8.5t5 -30.5l-37 -176q193 -45 393 -45q262 0 377 89t115 255q0 114 -75.5 173.5t-277.5 92.5l-88 15q-199 33 -281.5 115.5t-82.5 230.5q0 204 154.5 322t465.5 118q192 0 350 -49q76 -24 103 -62t12 -110l-14 -66 q-6 -31 -20.5 -39t-61.5 -8q-37 0 -47.5 8t-5.5 31l24 127q-154 55 -358 55q-235 0 -351 -83.5t-116 -225.5q0 -74 22.5 -115.5t90 -72.5t202.5 -55l90 -17q221 -40 316.5 -130.5t95.5 -242.5q0 -230 -163 -349.5t-515 -119.5q-185 0 -352 29q-84 15 -114 60t-11 131z M605 1620q-4 12 9 22l310 244q53 41 145 41q52 0 64 -23q8 -16 -11 -28l-346 -242q-49 -35 -114 -35q-49 0 -57 21z" />
<glyph unicode="&#x15b;" horiz-adv-x="1083" d="M59 156l13 59q5 23 19.5 31t55.5 8q35 0 47 -8.5t9 -26.5l-17 -102q133 -37 289 -37q185 0 258.5 48t73.5 159q0 52 -22.5 80.5t-84.5 49.5t-190 42l-49 8q-153 25 -215 83t-62 157q0 147 117 230t332 83q137 0 252 -33q75 -21 100 -52.5t16 -88.5l-10 -60 q-3 -22 -20 -31.5t-58 -9.5q-33 0 -42.5 8t-6.5 29l19 97q-131 36 -273 36q-291 0 -291 -192q0 -42 15.5 -64.5t75 -44.5t182.5 -43l47 -8q170 -30 236.5 -91t66.5 -173q0 -164 -114.5 -244t-370.5 -80q-165 0 -295 31q-72 17 -94 49t-9 101zM350 1132q1 6 8 13l295 272 q45 41 129 41q67 0 70 -23q1 -9 -10 -18l-332 -272q-47 -35 -104 -35q-59 0 -56 22z" />
<glyph unicode="&#x15c;" horiz-adv-x="1372" d="M41 195l22 106q6 28 23 37.5t64 9.5q36 0 46 -8.5t5 -30.5l-37 -176q193 -45 393 -45q262 0 377 89t115 255q0 114 -75.5 173.5t-277.5 92.5l-88 15q-199 33 -281.5 115.5t-82.5 230.5q0 204 154.5 322t465.5 118q192 0 350 -49q76 -24 103 -62t12 -110l-14 -66 q-6 -31 -20.5 -39t-61.5 -8q-37 0 -47.5 8t-5.5 31l24 127q-154 55 -358 55q-235 0 -351 -83.5t-116 -225.5q0 -74 22.5 -115.5t90 -72.5t202.5 -55l90 -17q221 -40 316.5 -130.5t95.5 -242.5q0 -230 -163 -349.5t-515 -119.5q-185 0 -352 29q-84 15 -114 60t-11 131z M449 1624q2 10 16 21l305 243q51 39 98 39h17q36 0 57 -8.5t41 -32.5l221 -241q23 -27 -14 -39q-20 -7 -55 -7q-38 0 -60.5 8t-40.5 29l-168 191l-229 -189q-24 -21 -50.5 -30t-70.5 -9q-70 0 -67 25z" />
<glyph unicode="&#x15d;" horiz-adv-x="1083" d="M59 156l13 59q5 23 19.5 31t55.5 8q35 0 47 -8.5t9 -26.5l-17 -102q133 -37 289 -37q185 0 258.5 48t73.5 159q0 52 -22.5 80.5t-84.5 49.5t-190 42l-49 8q-153 25 -215 83t-62 157q0 147 117 230t332 83q137 0 252 -33q75 -21 100 -52.5t16 -88.5l-10 -60 q-3 -22 -20 -31.5t-58 -9.5q-33 0 -42.5 8t-6.5 29l19 97q-131 36 -273 36q-291 0 -291 -192q0 -42 15.5 -64.5t75 -44.5t182.5 -43l47 -8q170 -30 236.5 -91t66.5 -173q0 -164 -114.5 -244t-370.5 -80q-165 0 -295 31q-72 17 -94 49t-9 101zM338 1129q1 9 14 22l264 274 q29 33 89 33q29 0 44 -6.5t27 -26.5l164 -270q11 -20 -1.5 -32.5t-51.5 -12.5q-34 0 -51 9t-31 34l-117 209l-184 -209q-22 -25 -46.5 -34t-64.5 -9q-29 0 -42.5 5t-12.5 14z" />
<glyph unicode="&#x15e;" horiz-adv-x="1372" d="M41 195l22 106q6 28 23 37.5t64 9.5q36 0 46 -8.5t5 -30.5l-37 -176q193 -45 393 -45q262 0 377 89t115 255q0 114 -75.5 173.5t-277.5 92.5l-88 15q-199 33 -281.5 115.5t-82.5 230.5q0 204 154.5 322t465.5 118q192 0 350 -49q76 -24 103 -62t12 -110l-14 -66 q-6 -31 -20.5 -39t-61.5 -8q-37 0 -47.5 8t-5.5 31l24 127q-154 55 -358 55q-235 0 -351 -83.5t-116 -225.5q0 -74 22.5 -115.5t90 -72.5t202.5 -55l90 -17q221 -40 316.5 -130.5t95.5 -242.5q0 -222 -151.5 -341t-479.5 -128l-10 -59q63 -8 99.5 -43t37.5 -90 q0 -93 -57.5 -143t-167.5 -50q-81 0 -141 25q-13 6 -15 15t8 36q10 24 19.5 32t23.5 3q63 -18 109 -18q54 0 84.5 23t30.5 61q0 57 -107 57q-28 0 -37 8t-6 27l23 116q-156 5 -293 29q-84 15 -114 60t-11 131z" />
<glyph unicode="&#x15f;" horiz-adv-x="1083" d="M59 156l13 59q5 23 19.5 31t55.5 8q35 0 47 -8.5t9 -26.5l-17 -102q133 -37 289 -37q185 0 258.5 48t73.5 159q0 52 -22.5 80.5t-84.5 49.5t-190 42l-49 8q-153 25 -215 83t-62 157q0 147 117 230t332 83q137 0 252 -33q75 -21 100 -52.5t16 -88.5l-10 -60 q-3 -22 -20 -31.5t-58 -9.5q-33 0 -42.5 8t-6.5 29l19 97q-131 36 -273 36q-291 0 -291 -192q0 -42 15.5 -64.5t75 -44.5t182.5 -43l47 -8q170 -30 236.5 -91t66.5 -173q0 -155 -103.5 -235t-332.5 -87l-10 -61q64 -8 100.5 -43t36.5 -90q0 -93 -57.5 -143t-167.5 -50 q-82 0 -142 25q-13 6 -14.5 15t8.5 36q10 24 19.5 32t23.5 3q63 -18 109 -18q54 0 84 23t30 61q0 27 -28 42t-78 15q-28 0 -37 8t-6 27l22 116q-124 5 -237 31q-72 17 -94 49t-9 101z" />
<glyph unicode="&#x160;" horiz-adv-x="1372" d="M41 195l22 106q6 28 23 37.5t64 9.5q36 0 46 -8.5t5 -30.5l-37 -176q193 -45 393 -45q262 0 377 89t115 255q0 114 -75.5 173.5t-277.5 92.5l-88 15q-199 33 -281.5 115.5t-82.5 230.5q0 204 154.5 322t465.5 118q192 0 350 -49q76 -24 103 -62t12 -110l-14 -66 q-6 -31 -20.5 -39t-61.5 -8q-37 0 -47.5 8t-5.5 31l24 127q-154 55 -358 55q-235 0 -351 -83.5t-116 -225.5q0 -74 22.5 -115.5t90 -72.5t202.5 -55l90 -17q221 -40 316.5 -130.5t95.5 -242.5q0 -230 -163 -349.5t-515 -119.5q-185 0 -352 29q-84 15 -114 60t-11 131z M537 1882q-27 29 25 40q20 5 46 5q41 0 62.5 -7.5t40.5 -29.5l166 -194l225 194q25 21 51.5 29t71.5 8q69 0 69 -25q0 -9 -14 -20l-307 -244q-30 -25 -48 -32t-48 -7h-17q-37 0 -57 9t-41 32z" />
<glyph unicode="&#x161;" horiz-adv-x="1083" d="M59 156l13 59q5 23 19.5 31t55.5 8q35 0 47 -8.5t9 -26.5l-17 -102q133 -37 289 -37q185 0 258.5 48t73.5 159q0 52 -22.5 80.5t-84.5 49.5t-190 42l-49 8q-153 25 -215 83t-62 157q0 147 117 230t332 83q137 0 252 -33q75 -21 100 -52.5t16 -88.5l-10 -60 q-3 -22 -20 -31.5t-58 -9.5q-33 0 -42.5 8t-6.5 29l19 97q-131 36 -273 36q-291 0 -291 -192q0 -42 15.5 -64.5t75 -44.5t182.5 -43l47 -8q170 -30 236.5 -91t66.5 -173q0 -164 -114.5 -244t-370.5 -80q-165 0 -295 31q-72 17 -94 49t-9 101zM399 1413q-11 20 3.5 32.5 t52.5 12.5q37 0 56 -8.5t32 -34.5l108 -213l187 213q40 43 114 43q75 0 37 -41l-264 -274q-19 -20 -37 -26.5t-47 -6.5q-61 0 -78 33z" />
<glyph unicode="&#x162;" horiz-adv-x="1411" d="M137 1151l45 242q11 50 31 66t74 16h1114q55 0 69 -16t5 -66l-50 -242q-3 -19 -19.5 -28t-53.5 -9t-49 7.5t-9 29.5l41 209h-444l-242 -1245h211q21 0 26.5 -12t-1.5 -46t-17 -45.5t-30 -11.5h-557q-21 0 -26.5 11.5t1.5 45.5t17.5 46t29.5 12h207l242 1245h-441 l-43 -209q-3 -19 -19.5 -28t-53.5 -9t-49 8.5t-9 28.5zM395 -528q57 110 82 206q-49 11 -49 58q0 52 30 84.5t77 32.5h12q71 0 71 -68q0 -47 -36 -150t-78 -172q-18 -30 -51 -30h-37q-41 0 -21 39z" />
<glyph unicode="&#x163;" horiz-adv-x="792" d="M92.5 898.5q-4.5 9.5 1.5 41.5q7 35 15.5 44t31.5 9h170l54 273q4 26 18 34.5t51 8.5q41 0 53 -9t7 -34l-52 -273h301q21 0 25.5 -8t-0.5 -45q-6 -32 -14.5 -41.5t-30.5 -9.5h-303l-117 -596q-14 -75 -14 -105q0 -55 29.5 -76.5t99.5 -21.5q62 0 139 23q21 8 31.5 1.5 t21.5 -38.5q7 -21 8 -32.5t-4.5 -18t-19.5 -11.5q-42 -17 -104.5 -28t-114.5 -11q-118 0 -168.5 45.5t-50.5 133.5q0 36 14 118l121 617h-172q-22 0 -26.5 9.5zM154 -528q57 110 82 206q-50 11 -50 58q0 52 30 84.5t77 32.5h12q72 0 72 -68q0 -47 -36.5 -150t-78.5 -172 q-18 -30 -51 -30h-37q-40 0 -20 39z" />
<glyph unicode="&#x164;" horiz-adv-x="1411" d="M137 1151l45 242q11 50 31 66t74 16h1114q55 0 69 -16t5 -66l-50 -242q-3 -19 -19.5 -28t-53.5 -9t-49 7.5t-9 29.5l41 209h-444l-242 -1245h211q21 0 26.5 -12t-1.5 -46t-17 -45.5t-30 -11.5h-557q-21 0 -26.5 11.5t1.5 45.5t17.5 46t29.5 12h207l242 1245h-441 l-43 -209q-3 -19 -19.5 -28t-53.5 -9t-49 8.5t-9 28.5zM518 1882q-27 28 24 40q21 5 48 5q41 0 62 -7.5t40 -29.5l166 -194l225 194q25 21 51.5 29t71.5 8q70 0 70 -25q-1 -9 -14 -20l-308 -244q-30 -25 -48 -32t-48 -7h-16q-37 0 -57.5 9t-41.5 32z" />
<glyph unicode="&#x165;" horiz-adv-x="792" d="M92.5 898.5q-4.5 9.5 1.5 41.5q7 35 15.5 44t31.5 9h170l54 273q4 26 18 34.5t51 8.5q41 0 53 -9t7 -34l-52 -273h301q21 0 25.5 -8t-0.5 -45q-6 -32 -14.5 -41.5t-30.5 -9.5h-303l-117 -596q-14 -75 -14 -105q0 -55 29.5 -76.5t99.5 -21.5q62 0 139 23q21 8 31.5 1.5 t21.5 -38.5q7 -21 8 -32.5t-4.5 -18t-19.5 -11.5q-42 -17 -104.5 -28t-114.5 -11q-118 0 -168.5 45.5t-50.5 133.5q0 36 14 118l121 617h-172q-22 0 -26.5 9.5zM598 1139q56 109 82 207q-49 11 -49 57q0 52 29.5 84.5t76.5 32.5h13q71 0 71 -68q0 -47 -36 -150t-78 -172 q-18 -30 -52 -30h-37q-40 0 -20 39z" />
<glyph unicode="&#x166;" horiz-adv-x="1411" d="M137 1151l45 242q9 49 30 65.5t75 16.5h1114q55 0 69 -16t5 -66l-50 -242q-3 -19 -19.5 -28t-53.5 -9t-49.5 8t-8.5 29l41 209h-444l-107 -549h242q14 0 18 -10.5t0 -40.5t-12 -39.5t-26 -9.5h-242l-115 -596h211q21 0 26.5 -12t-1.5 -46t-17 -45.5t-30 -11.5h-557 q-21 0 -26.5 11.5t1.5 45.5t17.5 46t29.5 12h207l115 596h-238q-19 0 -23.5 10.5t1.5 38.5q9 51 43 51h237l107 549h-441l-43 -209q-3 -19 -19.5 -28t-53.5 -9t-49 8.5t-9 28.5z" />
<glyph unicode="&#x167;" horiz-adv-x="792" d="M48 534.5q-5 10.5 1 38.5q5 27 14.5 38.5t28.5 11.5h146l53 266h-172q-22 0 -26.5 9.5t1.5 41.5q7 35 15.5 44t31.5 9h170l54 273q4 26 18 34.5t51 8.5q41 0 53 -9t7 -34l-52 -273h301q21 0 25.5 -8t-0.5 -45q-6 -32 -14.5 -41.5t-30.5 -9.5h-303l-53 -266h280 q14 0 18.5 -10.5t0.5 -39.5q-4 -30 -12.5 -39.5t-26.5 -9.5h-279l-45 -231q-24 -125 -1.5 -164t116.5 -39q62 0 139 23q21 8 31.5 1.5t21.5 -38.5q7 -21 8 -32.5t-4.5 -18t-19.5 -11.5q-42 -17 -104.5 -28t-114.5 -11q-119 0 -169 44.5t-50 134.5q0 53 14 118l49 252h-147 q-19 0 -24 10.5z" />
<glyph unicode="&#x168;" horiz-adv-x="1523" d="M156 371q0 97 20 200l154 789h-90q-21 0 -26.5 11.5t1.5 45.5t17.5 46t29.5 12h371q21 0 26 -12t-2 -46t-17 -45.5t-30 -11.5h-141l-154 -793q-20 -113 -20 -188q0 -148 84 -219.5t258 -71.5q218 0 348 113.5t180 363.5l158 795h-141q-21 0 -26.5 11.5t1.5 45.5t17.5 46 t29.5 12h375q21 0 26.5 -12t-1.5 -46t-17.5 -45.5t-30.5 -11.5h-96l-157 -789q-63 -312 -232.5 -454t-445.5 -142q-242 0 -355.5 100.5t-113.5 295.5zM519.5 1717.5q-4.5 12.5 6.5 31.5q87 145 254 145q57 0 107.5 -20.5t80.5 -45t68 -45t74 -20.5q75 0 117 86 q7 15 14.5 20.5t20.5 4t38 -11.5q26 -10 31.5 -22t-4.5 -34q-73 -155 -244 -155q-47 0 -86.5 13.5t-66 32.5t-51.5 37.5t-55 32t-64 13.5q-38 0 -68 -18.5t-69 -71.5q-25 -36 -74 -2q-25 17 -29.5 29.5z" />
<glyph unicode="&#x169;" horiz-adv-x="1282" d="M135 930q9 35 26 49t52 14h117q40 0 54 -17t5 -61l-92 -475q-21 -111 -21 -157q0 -102 50 -149.5t155 -47.5q162 0 282 111.5t159 312.5l88 461q3 21 18.5 29t54.5 8q37 0 49 -8.5t9 -28.5l-156 -807q-6 -33 4.5 -43t52.5 -10h45q20 0 25.5 -11t-0.5 -45t-15 -44.5 t-34 -10.5h-70q-92 0 -124 33t-17 102h-21q-67 -81 -162.5 -120.5t-232.5 -39.5q-291 0 -291 285q0 45 15 133l88 459q3 19 -3.5 25t-29.5 6h-55q-37 0 -25 47zM397 1247q81 131 236 131q48 0 89.5 -18.5t66 -40.5t55.5 -40.5t59 -18.5q41 0 66.5 17.5t48.5 61.5 q9 18 23 20.5t44 -11.5q21 -10 25 -21.5t-4 -28.5q-66 -139 -221 -139q-46 0 -87 18.5t-66 40t-56.5 40t-61.5 18.5q-46 0 -78 -19t-59 -65q-17 -31 -61 2q-37 24 -19 53z" />
<glyph unicode="&#x16a;" horiz-adv-x="1523" d="M156 371q0 97 20 200l154 789h-90q-21 0 -26.5 11.5t1.5 45.5t17.5 46t29.5 12h371q21 0 26 -12t-2 -46t-17 -45.5t-30 -11.5h-141l-154 -793q-20 -113 -20 -188q0 -148 84 -219.5t258 -71.5q218 0 348 113.5t180 363.5l158 795h-141q-21 0 -26.5 11.5t1.5 45.5t17.5 46 t29.5 12h375q21 0 26.5 -12t-1.5 -46t-17.5 -45.5t-30.5 -11.5h-96l-157 -789q-63 -312 -232.5 -454t-445.5 -142q-242 0 -355.5 100.5t-113.5 295.5zM553 1721.5q-4 9.5 2 43.5q6 32 14 42t27 10h688q27 0 19 -52q-6 -31 -15 -42t-24 -11h-689q-18 0 -22 9.5z" />
<glyph unicode="&#x16b;" horiz-adv-x="1282" d="M135 930q9 35 26 49t52 14h117q40 0 54 -17t5 -61l-92 -475q-21 -111 -21 -157q0 -102 50 -149.5t155 -47.5q162 0 282 111.5t159 312.5l88 461q3 21 18.5 29t54.5 8q37 0 49 -8.5t9 -28.5l-156 -807q-6 -33 4.5 -43t52.5 -10h45q20 0 25.5 -11t-0.5 -45t-15 -44.5 t-34 -10.5h-70q-92 0 -124 33t-17 102h-21q-67 -81 -162.5 -120.5t-232.5 -39.5q-291 0 -291 285q0 45 15 133l88 459q3 19 -3.5 25t-29.5 6h-55q-37 0 -25 47zM431 1198.5q-5 10.5 1 38.5q8 49 43 49h563q14 0 18.5 -10t0.5 -39q-4 -30 -12.5 -39.5t-26.5 -9.5h-563 q-19 0 -24 10.5z" />
<glyph unicode="&#x16c;" horiz-adv-x="1523" d="M156 371q0 97 20 200l154 789h-90q-21 0 -26.5 11.5t1.5 45.5t17.5 46t29.5 12h371q21 0 26 -12t-2 -46t-17 -45.5t-30 -11.5h-141l-154 -793q-20 -113 -20 -188q0 -148 84 -219.5t258 -71.5q218 0 348 113.5t180 363.5l158 795h-141q-21 0 -26.5 11.5t1.5 45.5t17.5 46 t29.5 12h375q21 0 26.5 -12t-1.5 -46t-17.5 -45.5t-30.5 -11.5h-96l-157 -789q-63 -312 -232.5 -454t-445.5 -142q-242 0 -355.5 100.5t-113.5 295.5zM586 1823q0 42 10 78q5 18 17.5 25t43.5 7q33 0 44 -8t8 -24q-7 -44 -7 -66q0 -58 45.5 -88.5t155.5 -30.5q127 0 190 44 t87 141q5 19 17.5 25.5t49.5 6.5q30 0 40 -9t7 -28q-24 -133 -126.5 -204.5t-286.5 -71.5q-147 0 -221 56t-74 147z" />
<glyph unicode="&#x16d;" horiz-adv-x="1282" d="M135 930q9 35 26 49t52 14h117q40 0 54 -17t5 -61l-92 -475q-21 -111 -21 -157q0 -102 50 -149.5t155 -47.5q162 0 282 111.5t159 312.5l88 461q3 21 18.5 29t54.5 8q37 0 49 -8.5t9 -28.5l-156 -807q-6 -33 4.5 -43t52.5 -10h45q20 0 25.5 -11t-0.5 -45t-15 -44.5 t-34 -10.5h-70q-92 0 -124 33t-17 102h-21q-67 -81 -162.5 -120.5t-232.5 -39.5q-291 0 -291 285q0 45 15 133l88 459q3 19 -3.5 25t-29.5 6h-55q-37 0 -25 47zM485 1341q0 11 4 39q9 49 20.5 61.5t43.5 12.5q36 0 46 -8t7 -25q-10 -48 -10 -75q0 -115 160 -115 q94 0 146.5 44.5t74.5 141.5q5 22 17.5 29.5t49.5 7.5q28 0 38.5 -7.5t7.5 -23.5q-54 -284 -357 -284q-248 0 -248 202z" />
<glyph unicode="&#x16e;" horiz-adv-x="1523" d="M156 371q0 97 20 200l154 789h-90q-21 0 -26.5 11.5t1.5 45.5t17.5 46t29.5 12h371q21 0 26 -12t-2 -46t-17 -45.5t-30 -11.5h-141l-154 -793q-20 -113 -20 -188q0 -148 84 -219.5t258 -71.5q218 0 348 113.5t180 363.5l158 795h-141q-21 0 -26.5 11.5t1.5 45.5t17.5 46 t29.5 12h375q21 0 26.5 -12t-1.5 -46t-17.5 -45.5t-30.5 -11.5h-96l-157 -789q-63 -312 -232.5 -454t-445.5 -142q-242 0 -355.5 100.5t-113.5 295.5zM727 1724q-3 110 66 179t188 69q180 0 186 -162q2 -110 -65 -179.5t-193 -69.5q-92 0 -135.5 39.5t-46.5 123.5zM842 1739 q3 -78 86 -78q58 0 92 36.5t33 98.5q-3 76 -88 76q-56 0 -90.5 -37.5t-32.5 -95.5z" />
<glyph unicode="&#x16f;" horiz-adv-x="1282" d="M135 930q9 35 26 49t52 14h117q40 0 54 -17t5 -61l-92 -475q-21 -111 -21 -157q0 -102 50 -149.5t155 -47.5q162 0 282 111.5t159 312.5l88 461q3 21 18.5 29t54.5 8q37 0 49 -8.5t9 -28.5l-156 -807q-6 -33 4.5 -43t52.5 -10h45q20 0 25.5 -11t-0.5 -45t-15 -44.5 t-34 -10.5h-70q-92 0 -124 33t-17 102h-21q-67 -81 -162.5 -120.5t-232.5 -39.5q-291 0 -291 285q0 45 15 133l88 459q3 19 -3.5 25t-29.5 6h-55q-37 0 -25 47zM575 1270q-3 103 61.5 170t176.5 67q86 0 129.5 -37t44.5 -118q3 -103 -59 -170.5t-180 -67.5q-85 0 -127.5 37 t-45.5 119zM678 1282q3 -82 82 -82q60 0 93.5 38t31.5 103q-3 80 -84 80q-54 0 -89.5 -40t-33.5 -99z" />
<glyph unicode="&#x170;" horiz-adv-x="1523" d="M156 371q0 97 20 200l154 789h-90q-21 0 -26.5 11.5t1.5 45.5t17.5 46t29.5 12h371q21 0 26 -12t-2 -46t-17 -45.5t-30 -11.5h-141l-154 -793q-20 -113 -20 -188q0 -148 84 -219.5t258 -71.5q218 0 348 113.5t180 363.5l158 795h-141q-21 0 -26.5 11.5t1.5 45.5t17.5 46 t29.5 12h375q21 0 26.5 -12t-1.5 -46t-17.5 -45.5t-30.5 -11.5h-96l-157 -789q-63 -312 -232.5 -454t-445.5 -142q-242 0 -355.5 100.5t-113.5 295.5zM592 1620q1 6 8 14l248 252q41 41 121 41q39 0 51.5 -12.5t-8.5 -32.5l-269 -248q-15 -15 -42.5 -25t-53.5 -10 q-60 0 -55 21zM1012 1621q1 6 8 13l248 252q41 41 118 41q27 0 42 -6t15.5 -16t-11.5 -23l-269 -248q-38 -35 -96 -35q-61 0 -55 22z" />
<glyph unicode="&#x171;" horiz-adv-x="1282" d="M135 930q9 35 26 49t52 14h117q40 0 54 -17t5 -61l-92 -475q-21 -111 -21 -157q0 -102 50 -149.5t155 -47.5q162 0 282 111.5t159 312.5l88 461q3 21 18.5 29t54.5 8q37 0 49 -8.5t9 -28.5l-156 -807q-6 -33 4.5 -43t52.5 -10h45q20 0 25.5 -11t-0.5 -45t-15 -44.5 t-34 -10.5h-70q-92 0 -124 33t-17 102h-21q-67 -81 -162.5 -120.5t-232.5 -39.5q-291 0 -291 285q0 45 15 133l88 459q3 19 -3.5 25t-29.5 6h-55q-37 0 -25 47zM436 1118q-8 8 6 27l220 272q30 41 108 41q72 0 39 -41l-244 -272q-32 -35 -88 -35q-33 0 -41 8zM797 1145 l221 272q33 41 106 41q76 0 41 -41l-243 -272q-28 -35 -91 -35q-61 0 -34 35z" />
<glyph unicode="&#x172;" horiz-adv-x="1523" d="M156 371q0 97 20 200l154 789h-90q-21 0 -26.5 11.5t1.5 45.5t17.5 46t29.5 12h371q21 0 26 -12t-2 -46t-17 -45.5t-30 -11.5h-141l-154 -793q-20 -113 -20 -188q0 -148 84 -219.5t258 -71.5q218 0 348 113.5t180 363.5l158 795h-141q-21 0 -26.5 11.5t1.5 45.5t17.5 46 t29.5 12h375q21 0 26.5 -12t-1.5 -46t-17.5 -45.5t-30.5 -11.5h-96l-157 -789q-98 -480 -465 -571q-110 -60 -165 -127t-55 -133q0 -57 72 -57q15 0 43 4q23 5 30 1t13 -24q8 -25 5 -34.5t-23 -18.5q-44 -21 -96 -21q-69 0 -110 36.5t-44 101.5q-2 65 41 131.5t119 117.5 q-14 -2 -43 -2q-242 0 -355.5 100.5t-113.5 295.5z" />
<glyph unicode="&#x173;" horiz-adv-x="1282" d="M135 930q9 35 26 49t52 14h117q40 0 54 -17t5 -61l-92 -475q-21 -111 -21 -157q0 -102 50 -149.5t155 -47.5q162 0 282 111.5t159 312.5l88 461q3 21 18.5 29t54.5 8q37 0 49 -8.5t9 -28.5l-156 -807q-6 -33 4.5 -43t52.5 -10h45q20 0 25.5 -11t-0.5 -45q-4 -27 -9.5 -36 t-19.5 -17q-223 -123 -223 -262q0 -57 72 -57q15 0 43 4q23 5 30 1t13 -24q8 -25 4.5 -34.5t-23.5 -18.5q-44 -21 -96 -21q-69 0 -109.5 36.5t-43.5 101.5q-3 71 52 147.5t152 124.5v2q-68 6 -92 38.5t-10 94.5h-21q-67 -81 -162.5 -120.5t-232.5 -39.5q-291 0 -291 285 q0 45 15 133l88 459q3 19 -3.5 25t-29.5 6h-55q-37 0 -25 47z" />
<glyph unicode="&#x174;" horiz-adv-x="2312" d="M160 1371.5q-5 11.5 2 45.5t17.5 46t29.5 12h526q21 0 26.5 -12t-1.5 -46t-17 -45.5t-30 -11.5h-260l77 -862q18 -199 21 -402h22q70 193 177 406l403 811q22 42 46.5 59t64.5 17h49q43 0 61.5 -17.5t24.5 -71.5l80 -798q18 -174 18 -406h25q64 189 170 406l411 858h-239 q-21 0 -26.5 11.5t1.5 45.5t17.5 46t29.5 12h514q21 0 26.5 -12t-1.5 -46t-17 -45.5t-30 -11.5h-129l-619 -1284q-27 -55 -49.5 -71.5t-62.5 -16.5h-52q-39 0 -58.5 19t-23.5 65l-92 891q-16 163 -16 307h-23q-63 -168 -135 -312l-438 -886q-43 -84 -105 -84h-67 q-38 0 -56 18.5t-22 69.5l-119 1284h-125q-21 0 -26 11.5zM920 1624q2 10 16 21l305 243q51 39 98 39h17q36 0 57 -8.5t41 -32.5l221 -241q23 -27 -14 -39q-20 -7 -55 -7q-38 0 -60.5 8t-40.5 29l-168 191l-229 -189q-24 -21 -50.5 -30t-70.5 -9q-70 0 -67 25z" />
<glyph unicode="&#x175;" horiz-adv-x="1570" d="M48.5 893.5q-5.5 10.5 0.5 44.5t15 44.5t34 10.5h64q82 0 115.5 -29.5t39.5 -105.5l43 -571q7 -103 7 -181h22q46 122 76 185l309 670q12 27 29.5 37t52.5 10h68q34 0 48 -9.5t15 -35.5l45 -672q6 -92 6 -185h23q36 99 78 187l309 678q10 20 29 28.5t61 8.5q39 0 50 -9 t3 -28l-448 -938q-12 -26 -30.5 -35.5t-51.5 -9.5h-68q-34 0 -49 10.5t-16 36.5l-49 672q-5 79 2 190h-23q-37 -117 -74 -192l-311 -670q-12 -27 -29.5 -37t-50.5 -10h-76q-60 0 -63 45l-74 813q-1 23 -13.5 30t-47.5 7h-45q-20 0 -25.5 10.5zM580 1129q1 9 14 22l264 274 q29 33 88 33q29 0 44.5 -6.5t27.5 -26.5l164 -270q11 -20 -2 -32.5t-52 -12.5q-34 0 -50.5 9t-30.5 34l-117 209l-185 -209q-22 -25 -46 -34t-64 -9q-29 0 -42.5 5t-12.5 14z" />
<glyph unicode="&#x176;" horiz-adv-x="1452" d="M164 1371.5q-5 11.5 2 45.5t17.5 46t29.5 12h442q21 0 26.5 -12t-1.5 -46t-17 -45.5t-30 -11.5h-191l185 -457q51 -123 75 -262h23q85 151 176 260l371 459h-221q-21 0 -26.5 11.5t1.5 45.5t17.5 46t29.5 12h471q21 0 26.5 -12t-1.5 -46t-17 -45.5t-30 -11.5h-101 l-655 -828l-80 -417h205q21 0 26 -12t-2 -46t-17 -45.5t-30 -11.5h-542q-21 0 -26.5 11.5t1.5 45.5t17.5 46t29.5 12h199l82 426l-338 819h-101q-21 0 -26 11.5zM345 1623q0 10 15 22l306 243q51 39 98 39h16q37 0 58 -9t41 -32l221 -241q23 -26 -13 -39q-22 -7 -57 -7 q-38 0 -60 8t-40 29l-168 191l-230 -189q-24 -21 -50 -30t-70 -9q-69 0 -67 24z" />
<glyph unicode="&#x177;" horiz-adv-x="1028" d="M-153.5 -430q-1.5 12 12.5 41q15 30 26.5 35.5t34.5 -2.5q55 -19 121 -19q102 0 165.5 54t147.5 217l47 92q-16 3 -22.5 9t-9.5 19l-187 830q-4 23 -15.5 30t-45.5 7h-45q-20 0 -25.5 10.5t0.5 44.5t15 44.5t34 10.5h64q74 0 108 -28t52 -109l116 -545q26 -124 23 -227 h22q36 125 90 233l332 654q9 20 29 28.5t61 8.5q40 0 51.5 -9t2.5 -28l-543 -1045q-41 -79 -68 -127t-63 -100.5t-68 -81.5t-74 -54.5t-91 -35.5t-111 -10q-106 0 -168 32q-17 9 -18.5 21zM293 1129q1 9 14 22l264 274q29 33 88 33q29 0 44.5 -6.5t27.5 -26.5l164 -270 q11 -20 -1.5 -32.5t-51.5 -12.5q-34 0 -51 9t-31 34l-117 209l-184 -209q-22 -25 -46.5 -34t-64.5 -9q-29 0 -42.5 5t-12.5 14z" />
<glyph unicode="&#x178;" horiz-adv-x="1452" d="M164 1371.5q-5 11.5 2 45.5t17.5 46t29.5 12h442q21 0 26.5 -12t-1.5 -46t-17 -45.5t-30 -11.5h-191l185 -457q51 -123 75 -262h23q85 151 176 260l371 459h-221q-21 0 -26.5 11.5t1.5 45.5t17.5 46t29.5 12h471q21 0 26.5 -12t-1.5 -46t-17 -45.5t-30 -11.5h-101 l-655 -828l-80 -417h205q21 0 26 -12t-2 -46t-17 -45.5t-30 -11.5h-542q-21 0 -26.5 11.5t1.5 45.5t17.5 46t29.5 12h199l82 426l-338 819h-101q-21 0 -26 11.5zM559 1724q-3 62 23.5 95.5t76.5 33.5h23q44 0 64 -17t22 -54q3 -115 -86 -115h-59q-34 0 -48 13t-16 44z M1079 1724q-1 63 25 96t76 33h22q83 0 86 -71q1 -60 -20 -87.5t-66 -27.5h-59q-34 0 -48 13t-16 44z" />
<glyph unicode="&#x179;" horiz-adv-x="1251" d="M-31 55l13 62q6 33 29 67t83 97l893 921q89 89 166 144l4 20h-797l-32 -174q-3 -21 -18.5 -29t-55.5 -8q-37 0 -48.5 8t-8.5 29l36 197q9 50 33.5 68t85.5 18h846q60 0 77 -11t11 -45l-10 -57q-7 -39 -30 -72.5t-81 -93.5l-889 -920q-77 -81 -174 -147l-4 -20h854l39 210 q8 38 74 35q37 -1 49.5 -9t9.5 -26l-45 -237q-9 -49 -31 -65.5t-77 -16.5h-912q-56 0 -76.5 10.5t-13.5 44.5zM591 1621q-2 12 9 21l309 244q53 41 146 41q52 0 64 -23q8 -16 -11 -28l-346 -242q-49 -35 -115 -35q-50 0 -56 22z" />
<glyph unicode="&#x17a;" horiz-adv-x="1163" d="M61 70l9 53q5 31 21.5 53.5t72.5 67.5l598 475q80 65 217 153v19h-631l-24 -117q-5 -20 -20.5 -27.5t-55.5 -7.5q-34 0 -44 7.5t-7 27.5l28 146q8 42 31.5 57.5t83.5 15.5h680q58 0 73.5 -12.5t8.5 -56.5l-6 -39q-5 -33 -26 -60.5t-73 -68.5l-618 -494q-77 -62 -197 -139 v-21h660l26 144q3 19 18 26t58 7q37 0 47.5 -7t7.5 -26l-32 -172q-8 -42 -31.5 -58t-85.5 -16h-707q-58 0 -73 13.5t-9 56.5zM514 1132q2 7 8 13l295 272q45 41 129 41q67 0 70 -23q1 -9 -10 -18l-332 -272q-47 -35 -105 -35t-55 22z" />
<glyph unicode="&#x17b;" horiz-adv-x="1251" d="M-31 55l13 62q6 33 29 67t83 97l893 921q89 89 166 144l4 20h-797l-32 -174q-3 -21 -18.5 -29t-55.5 -8q-37 0 -48.5 8t-8.5 29l36 197q9 50 33.5 68t85.5 18h846q60 0 77 -11t11 -45l-10 -57q-7 -39 -30 -72.5t-81 -93.5l-889 -920q-77 -81 -174 -147l-4 -20h854l39 210 q8 38 74 35q37 -1 49.5 -9t9.5 -26l-45 -237q-9 -49 -31 -65.5t-77 -16.5h-912q-56 0 -76.5 10.5t-13.5 44.5zM696 1720q0 138 113 138h22q92 0 95 -76q1 -67 -21.5 -96t-73.5 -29h-61q-38 0 -55 14.5t-19 48.5z" />
<glyph unicode="&#x17c;" horiz-adv-x="1163" d="M61 70l9 53q5 31 21.5 53.5t72.5 67.5l598 475q80 65 217 153v19h-631l-24 -117q-5 -20 -20.5 -27.5t-55.5 -7.5q-34 0 -44 7.5t-7 27.5l28 146q8 42 31.5 57.5t83.5 15.5h680q58 0 73.5 -12.5t8.5 -56.5l-6 -39q-5 -33 -26 -60.5t-73 -68.5l-618 -494q-77 -62 -197 -139 v-21h660l26 144q3 19 18 26t58 7q37 0 47.5 -7t7.5 -26l-32 -172q-8 -42 -31.5 -58t-85.5 -16h-707q-58 0 -73 13.5t-9 56.5zM590 1229q-1 67 27.5 102t82.5 35h9q89 0 92 -76q1 -65 -20.5 -93t-69.5 -28h-49q-36 0 -53 14.5t-19 45.5z" />
<glyph unicode="&#x17d;" horiz-adv-x="1251" d="M-31 55l13 62q6 33 29 67t83 97l893 921q89 89 166 144l4 20h-797l-32 -174q-3 -21 -18.5 -29t-55.5 -8q-37 0 -48.5 8t-8.5 29l36 197q9 50 33.5 68t85.5 18h846q60 0 77 -11t11 -45l-10 -57q-7 -39 -30 -72.5t-81 -93.5l-889 -920q-77 -81 -174 -147l-4 -20h854l39 210 q8 38 74 35q37 -1 49.5 -9t9.5 -26l-45 -237q-9 -49 -31 -65.5t-77 -16.5h-912q-56 0 -76.5 10.5t-13.5 44.5zM487 1882q-27 28 24 40q21 5 48 5q41 0 62.5 -7.5t40.5 -29.5l165 -194l226 194q25 21 51.5 29t71.5 8q69 0 69 -25q0 -9 -14 -20l-307 -244q-30 -24 -48.5 -31.5 t-48.5 -7.5h-16q-37 0 -57 9t-41 32z" />
<glyph unicode="&#x17e;" horiz-adv-x="1163" d="M61 70l9 53q5 31 21.5 53.5t72.5 67.5l598 475q80 65 217 153v19h-631l-24 -117q-5 -20 -20.5 -27.5t-55.5 -7.5q-34 0 -44 7.5t-7 27.5l28 146q8 42 31.5 57.5t83.5 15.5h680q58 0 73.5 -12.5t8.5 -56.5l-6 -39q-5 -33 -26 -60.5t-73 -68.5l-618 -494q-77 -62 -197 -139 v-21h660l26 144q3 19 18 26t58 7q37 0 47.5 -7t7.5 -26l-32 -172q-8 -42 -31.5 -58t-85.5 -16h-707q-58 0 -73 13.5t-9 56.5zM457 1413q-11 20 3 32.5t52 12.5q37 0 56 -8.5t32 -34.5l109 -213l186 213q40 43 115 43t37 -41l-265 -274q-19 -20 -37 -26.5t-47 -6.5 q-60 0 -77 33z" />
<glyph unicode="&#x17f;" horiz-adv-x="712" d="M63 -434l261 1323h-172q-22 0 -26.5 9.5t1.5 41.5q7 35 15.5 44t31.5 9h170l21 105q45 229 130 315t259 86q63 0 138.5 -16t119.5 -39q30 -15 0 -64q-16 -27 -28.5 -32t-22.5 2q-109 47 -218 47q-51 0 -86 -11.5t-66 -42.5t-53.5 -89t-39.5 -148l-303 -1540 q-5 -21 -20 -29t-54 -8q-37 0 -49 8.5t-9 28.5z" />
<glyph unicode="&#x192;" horiz-adv-x="1366" d="M-136 -337.5q-1 12.5 15 42.5q17 28 27.5 33.5t27.5 -2.5q85 -39 170 -39q97 0 164 64.5t111 222.5l192 688h-282q-22 0 -27.5 12t0.5 43q6 33 15.5 44t29.5 11h295l88 318q60 216 160.5 307.5t273.5 91.5q53 0 110.5 -13.5t96.5 -33.5q16 -8 17 -20.5t-15 -42.5 q-17 -28 -27.5 -33.5t-27.5 2.5q-85 39 -178 39q-98 0 -157 -64t-103 -223l-92 -328h307q19 0 24 -10.5t0 -44.5q-6 -35 -14.5 -45t-30.5 -10h-317l-189 -676q-60 -213 -164.5 -307.5t-275.5 -94.5q-53 0 -110.5 14t-96.5 34q-16 8 -17 20.5z" />
<glyph unicode="&#x1fa;" horiz-adv-x="1693" d="M-73.5 11.5q-5.5 11.5 1.5 45.5t17.5 46t29.5 12h105l780 1288q29 49 53.5 66.5t61.5 17.5h31q40 0 62 -19.5t34 -68.5l301 -1284h113q21 0 26 -12t-2 -46t-17 -45.5t-30 -11.5h-436q-21 0 -26.5 11.5t1.5 45.5t17.5 46t29.5 12h170l-80 379h-712l-224 -379h191 q21 0 26.5 -12t-1.5 -46t-17.5 -45.5t-30.5 -11.5h-448q-21 0 -26.5 11.5zM526 606h619l-107 508q-27 132 -45 264h-22q-74 -151 -142 -266zM778 2113q1 6 8 13l295 272q45 41 129 41q67 0 70 -23q1 -9 -10 -18l-332 -272q-47 -35 -104 -35q-59 0 -56 22zM782 1724 q-3 110 66 179t188 69q181 0 187 -162q2 -110 -65 -179.5t-193 -69.5q-92 0 -136 39.5t-47 123.5zM897 1739q3 -78 86 -78q58 0 92 36.5t33 98.5q-3 76 -88 76q-56 0 -90.5 -37.5t-32.5 -95.5z" />
<glyph unicode="&#x1fb;" d="M90 371q0 101 25.5 196.5t75.5 177.5t119 143.5t162 96.5t198 35q113 0 197 -38.5t112 -102.5h20l25 90q6 22 17 28.5t42 6.5q30 0 39 -6.5t6 -24.5l-153 -809q-6 -33 4.5 -43t52.5 -10h45q20 0 25.5 -11t-0.5 -45t-15 -44.5t-34 -10.5h-52q-83 0 -117 26t-36 87h-21 q-122 -138 -354 -138q-192 0 -287.5 104t-95.5 292zM229 381q0 -297 273 -297q166 0 273 106t145 314l12 63q8 47 8 92q0 122 -72.5 186t-203.5 64q-126 0 -226 -70t-154.5 -190t-54.5 -268zM520 1564q2 7 8 13l295 272q45 41 129 41q67 0 70 -23q1 -9 -10 -18l-332 -272 q-47 -35 -105 -35t-55 22zM524 1270q-3 103 61.5 170t176.5 67q86 0 129.5 -37t44.5 -118q3 -103 -59.5 -170.5t-180.5 -67.5q-85 0 -127 37t-45 119zM627 1282q3 -82 82 -82q60 0 93.5 38t31.5 103q-3 80 -84 80q-54 0 -89.5 -40t-33.5 -99z" />
<glyph unicode="&#x1fc;" horiz-adv-x="2338" d="M-98 11.5q-5 11.5 2 45.5t17.5 46t29.5 12h90l1192 1288q38 42 81.5 57t121.5 15h827q55 0 69 -16t5 -66l-45 -242q-6 -37 -74 -37q-37 0 -48.5 7.5t-8.5 29.5l37 209h-728l-106 -553h520l23 113q7 36 73 34q38 -1 50.5 -8.5t9.5 -25.5l-66 -340q-3 -19 -19.5 -28 t-53.5 -9t-49.5 8t-8.5 29l23 118h-525l-112 -583h743l39 209q7 37 74 34q37 -1 49.5 -8.5t9.5 -25.5l-45 -242q-9 -49 -31 -65.5t-77 -16.5h-1022q-21 0 -26.5 11.5t1.5 45.5t17.5 46t29.5 12h96l68 338h-633l-309 -338h188q21 0 26.5 -12t-1.5 -46t-17 -45.5t-30 -11.5 h-451q-21 0 -26 11.5zM623 559h553l155 803h-12q-109 -160 -266 -334zM1464 1621q-2 12 9 21l309 244q53 41 145 41q52 0 64 -23q8 -16 -11 -28l-346 -242q-49 -35 -114 -35q-50 0 -56 22z" />
<glyph unicode="&#x1fd;" horiz-adv-x="1888" d="M90 248q0 158 130 254t351 96q212 0 301 -98h21l18 102q31 166 -28 233.5t-230 67.5q-159 0 -329 -53q-20 -6 -29.5 1.5t-20.5 37.5q-7 21 -7.5 33.5t5.5 20.5t21 13q181 64 379 64q151 0 232.5 -37t117.5 -115h25q149 152 403 152q175 0 267.5 -75t92.5 -204 q0 -319 -471 -319h-329l-2 -57q-5 -138 77.5 -209.5t262.5 -71.5q129 0 284 55q21 9 31.5 2.5t22.5 -39.5q10 -31 7 -41.5t-24 -19.5q-66 -29 -160.5 -47.5t-189.5 -18.5q-303 0 -397 175h-23q-142 -175 -436 -175q-373 0 -373 273zM233 262q0 -93 58 -135.5t194 -42.5 q180 0 276.5 64.5t96.5 175.5q0 79 -73 124.5t-210 45.5q-167 0 -254.5 -61.5t-87.5 -170.5zM918 1132q2 7 8 13l295 272q45 41 129 41q66 0 69 -23q1 -9 -10 -18l-332 -272q-47 -35 -104 -35q-58 0 -55 22zM1020 522h342q163 0 242 55t79 152q0 89 -63 139t-190 50 q-168 0 -274.5 -103.5t-135.5 -292.5z" />
<glyph unicode="&#x1fe;" horiz-adv-x="1570" d="M68 -193.5q1 4.5 4 9.5l190 280q-156 138 -156 453q0 199 55.5 372.5t157 302t253.5 202t335 73.5q155 0 273 -47l143 213q19 29 102 29q37 0 49 -9.5t1 -27.5l-185 -273q174 -141 174 -456q0 -215 -58.5 -393.5t-163 -301t-253 -190.5t-325.5 -68q-172 0 -295 54 l-148 -219q-19 -27 -94 -27q-18 0 -30 2t-18.5 5t-9 7.5t-1.5 9zM250 553q0 -227 92 -338l764 1131q-87 40 -215 40q-191 0 -339 -113.5t-225 -302t-77 -417.5zM440 133q89 -45 234 -45q194 0 343 113t226.5 300.5t77.5 416.5q0 231 -109 352zM650 1620q-4 12 9 22l310 244 q53 41 145 41q52 0 64 -23q8 -16 -11 -28l-346 -242q-49 -35 -114 -35q-49 0 -57 21z" />
<glyph unicode="&#x1ff;" horiz-adv-x="1159" d="M32.5 -192q-1.5 8 4.5 18l164 244q-111 102 -111 295q0 195 64 341.5t193.5 230t311.5 83.5q91 0 168 -25l138 201q19 29 100 29q39 0 51.5 -9.5t1.5 -27.5l-174 -256q125 -101 125 -307q0 -193 -65.5 -339t-195 -228.5t-308.5 -82.5q-103 0 -185 29l-125 -184 q-22 -29 -98 -29q-28 0 -43 4.5t-16.5 12.5zM223 373q0 -124 51 -195l490 721q-55 19 -119 19q-198 0 -310 -145t-112 -400zM379 98q56 -20 135 -20q193 0 307.5 142.5t114.5 391.5q0 135 -64 215zM391 1132q2 7 8 13l295 272q45 41 129 41q67 0 70 -23q1 -9 -10 -18 l-332 -272q-47 -35 -105 -35t-55 22z" />
<glyph unicode="&#x218;" horiz-adv-x="1372" d="M41 195l22 106q6 28 23 37.5t64 9.5q36 0 46 -8.5t5 -30.5l-37 -176q193 -45 393 -45q262 0 377 89t115 255q0 114 -75.5 173.5t-277.5 92.5l-88 15q-199 33 -281.5 115.5t-82.5 230.5q0 204 154.5 322t465.5 118q192 0 350 -49q76 -24 103 -62t12 -110l-14 -66 q-6 -31 -20.5 -39t-61.5 -8q-37 0 -47.5 8t-5.5 31l24 127q-154 55 -358 55q-235 0 -351 -83.5t-116 -225.5q0 -74 22.5 -115.5t90 -72.5t202.5 -55l90 -17q221 -40 316.5 -130.5t95.5 -242.5q0 -230 -163 -349.5t-515 -119.5q-185 0 -352 29q-84 15 -114 60t-11 131z M428 -528q57 110 82 206q-49 11 -49 58q0 52 29.5 84.5t76.5 32.5h13q71 0 71 -68q0 -47 -36 -150t-78 -172q-18 -30 -52 -30h-36q-41 0 -21 39z" />
<glyph unicode="&#x219;" horiz-adv-x="1083" d="M59 156l13 59q5 23 19.5 31t55.5 8q35 0 47 -8.5t9 -26.5l-17 -102q133 -37 289 -37q185 0 258.5 48t73.5 159q0 52 -22.5 80.5t-84.5 49.5t-190 42l-49 8q-153 25 -215 83t-62 157q0 147 117 230t332 83q137 0 252 -33q75 -21 100 -52.5t16 -88.5l-10 -60 q-3 -22 -20 -31.5t-58 -9.5q-33 0 -42.5 8t-6.5 29l19 97q-131 36 -273 36q-291 0 -291 -192q0 -42 15.5 -64.5t75 -44.5t182.5 -43l47 -8q170 -30 236.5 -91t66.5 -173q0 -164 -114.5 -244t-370.5 -80q-165 0 -295 31q-72 17 -94 49t-9 101zM356 -528q57 110 82 206 q-49 11 -49 58q0 52 30 84.5t77 32.5h12q72 0 72 -68q0 -47 -36.5 -150t-78.5 -172q-18 -30 -51 -30h-37q-41 0 -21 39z" />
<glyph unicode="&#x21a;" horiz-adv-x="1411" d="M137 1151l45 242q11 50 31 66t74 16h1114q55 0 69 -16t5 -66l-50 -242q-3 -19 -19.5 -28t-53.5 -9t-49 7.5t-9 29.5l41 209h-444l-242 -1245h211q21 0 26.5 -12t-1.5 -46t-17 -45.5t-30 -11.5h-557q-21 0 -26.5 11.5t1.5 45.5t17.5 46t29.5 12h207l242 1245h-441 l-43 -209q-3 -19 -19.5 -28t-53.5 -9t-49 8.5t-9 28.5zM395 -528q57 110 82 206q-49 11 -49 58q0 52 30 84.5t77 32.5h12q71 0 71 -68q0 -47 -36 -150t-78 -172q-18 -30 -51 -30h-37q-41 0 -21 39z" />
<glyph unicode="&#x21b;" horiz-adv-x="792" d="M92.5 898.5q-4.5 9.5 1.5 41.5q7 35 15.5 44t31.5 9h170l54 273q4 26 18 34.5t51 8.5q41 0 53 -9t7 -34l-52 -273h301q21 0 25.5 -8t-0.5 -45q-6 -32 -14.5 -41.5t-30.5 -9.5h-303l-117 -596q-14 -75 -14 -105q0 -55 29.5 -76.5t99.5 -21.5q62 0 139 23q21 8 31.5 1.5 t21.5 -38.5q7 -21 8 -32.5t-4.5 -18t-19.5 -11.5q-42 -17 -104.5 -28t-114.5 -11q-118 0 -168.5 45.5t-50.5 133.5q0 36 14 118l121 617h-172q-22 0 -26.5 9.5zM154 -528q57 110 82 206q-50 11 -50 58q0 52 30 84.5t77 32.5h12q72 0 72 -68q0 -47 -36.5 -150t-78.5 -172 q-18 -30 -51 -30h-37q-40 0 -20 39z" />
<glyph unicode="&#x2c6;" horiz-adv-x="1024" d="M316 1129q1 9 14 22l264 274q29 33 88 33q29 0 44.5 -6.5t27.5 -26.5l164 -270q11 -20 -2 -32.5t-52 -12.5q-34 0 -51 9t-31 34l-116 209l-185 -209q-22 -25 -46 -34t-64 -9q-29 0 -42.5 5t-12.5 14z" />
<glyph unicode="&#x2da;" horiz-adv-x="1024" d="M410 1270q-3 104 61 170.5t176 66.5q86 0 129.5 -37t44.5 -118q3 -103 -59 -170.5t-180 -67.5q-85 0 -127 37t-45 119zM512 1282q3 -82 82 -82q60 0 93.5 38t31.5 103q-3 80 -84 80q-54 0 -89.5 -40t-33.5 -99z" />
<glyph unicode="&#x2dc;" horiz-adv-x="1024" d="M272 1247q81 131 236 131q48 0 89.5 -18.5t66 -40.5t55.5 -40.5t59 -18.5q41 0 66.5 17.5t48.5 61.5q18 35 68 9q21 -10 24.5 -21.5t-4.5 -28.5q-66 -139 -221 -139q-46 0 -87 18.5t-66 40t-56.5 40t-61.5 18.5q-46 0 -78 -19t-59 -65q-17 -31 -61 2q-37 24 -19 53z" />
<glyph unicode="&#x394;" horiz-adv-x="1437" d="M2 55l6 45q3 23 21 60.5t71 130.5l652 1122q25 42 48.5 58t61.5 16h23q78 0 92 -72l244 -1163q17 -91 8 -152l-8 -45q-6 -32 -24 -43.5t-64 -11.5h-1065q-44 0 -57.5 11.5t-8.5 43.5zM158 121h938l-162 809q-43 217 -52.5 292.5t-4.5 155.5h-27q-44 -127 -137 -288z" />
<glyph unicode="&#x3a9;" horiz-adv-x="1605" d="M66 11.5q-5 11.5 2 45.5t17.5 46t29.5 12h319l4 18q-258 143 -258 512q0 181 52 336.5t148 270.5t241.5 181t322.5 66q260 0 397.5 -145t137.5 -398q0 -179 -59 -340.5t-175.5 -288.5t-275.5 -194l-2 -18h352q21 0 26 -12t-2 -46t-17 -45.5t-30 -11.5h-376 q-62 0 -79 14.5t-10 46.5l9 43q7 40 22 62.5t62 48.5q199 112 304 310t105 427q0 216 -103 325t-302 109q-272 0 -436 -196t-164 -549q0 -160 41 -253.5t143 -174.5q32 -26 39.5 -50.5t1.5 -60.5l-8 -41q-7 -36 -30.5 -48.5t-80.5 -12.5h-342q-21 0 -26 11.5z" />
<glyph unicode="&#x3bc;" horiz-adv-x="1382" d="M80 -430l248 1282q3 19 -3.5 25t-29.5 6h-55q-37 0 -25 47q9 35 26 49t52 14h117q40 0 54 -17t5 -61l-92 -473q-21 -110 -21 -163q0 -98 56.5 -145.5t181.5 -47.5q158 0 266.5 118t151.5 353l78 414q3 21 18.5 29t54.5 8q37 0 49 -8.5t9 -28.5l-154 -807q-6 -32 4 -42.5 t45 -10.5h29q19 0 24 -10.5t0 -45.5q-6 -34 -15 -44.5t-34 -10.5h-41q-93 0 -124.5 33.5t-18.5 99.5h-18q-131 -158 -359 -158q-224 0 -266 105h-21q12 -114 -20 -283l-43 -227q-3 -20 -19.5 -27.5t-52.5 -7.5q-38 0 -49 7.5t-8 27.5z" />
<glyph unicode="&#x3c0;" horiz-adv-x="1247" d="M113 25l168 858h-140q-18 0 -22 12.5t2 46.5q7 32 16 41.5t25 9.5h1075q18 0 23 -8.5t0 -42.5q-6 -35 -15.5 -47t-27.5 -12h-185l-137 -707q-7 -41 3.5 -53t51.5 -12h45q20 0 25.5 -11t-0.5 -45t-15 -44.5t-34 -10.5h-70q-79 0 -112 30.5t-33 86.5q0 13 6 47l141 719 h-493l-168 -858q-5 -37 -72 -37q-32 0 -46.5 7.5t-10.5 29.5z" />
<glyph unicode="&#x1e80;" horiz-adv-x="2312" d="M160 1371.5q-5 11.5 2 45.5t17.5 46t29.5 12h526q21 0 26.5 -12t-1.5 -46t-17 -45.5t-30 -11.5h-260l77 -862q18 -199 21 -402h22q70 193 177 406l403 811q22 42 46.5 59t64.5 17h49q43 0 61.5 -17.5t24.5 -71.5l80 -798q18 -174 18 -406h25q64 189 170 406l411 858h-239 q-21 0 -26.5 11.5t1.5 45.5t17.5 46t29.5 12h514q21 0 26.5 -12t-1.5 -46t-17 -45.5t-30 -11.5h-129l-619 -1284q-27 -55 -49.5 -71.5t-62.5 -16.5h-52q-39 0 -58.5 19t-23.5 65l-92 891q-16 163 -16 307h-23q-63 -168 -135 -312l-438 -886q-43 -84 -105 -84h-67 q-38 0 -56 18.5t-22 69.5l-119 1284h-125q-21 0 -26 11.5zM1042 1876q-23 23 5 39q21 12 57 12q45 0 71 -9t48 -32l219 -237q17 -17 4 -33.5t-53 -16.5q-55 0 -90 35z" />
<glyph unicode="&#x1e81;" horiz-adv-x="1570" d="M48.5 893.5q-5.5 10.5 0.5 44.5t15 44.5t34 10.5h64q82 0 115.5 -29.5t39.5 -105.5l43 -571q7 -103 7 -181h22q46 122 76 185l309 670q12 27 29.5 37t52.5 10h68q34 0 48 -9.5t15 -35.5l45 -672q6 -92 6 -185h23q36 99 78 187l309 678q10 20 29 28.5t61 8.5q39 0 50 -9 t3 -28l-448 -938q-12 -26 -30.5 -35.5t-51.5 -9.5h-68q-34 0 -49 10.5t-16 36.5l-49 672q-5 79 2 190h-23q-37 -117 -74 -192l-311 -670q-12 -27 -29.5 -37t-50.5 -10h-76q-60 0 -63 45l-74 813q-1 23 -13.5 30t-47.5 7h-45q-20 0 -25.5 10.5zM774 1417q-26 33 38 40l30 1 q74 0 102 -41l195 -272q5 -9 4 -17t-14.5 -13t-36.5 -5q-56 0 -84 35z" />
<glyph unicode="&#x1e82;" horiz-adv-x="2312" d="M160 1371.5q-5 11.5 2 45.5t17.5 46t29.5 12h526q21 0 26.5 -12t-1.5 -46t-17 -45.5t-30 -11.5h-260l77 -862q18 -199 21 -402h22q70 193 177 406l403 811q22 42 46.5 59t64.5 17h49q43 0 61.5 -17.5t24.5 -71.5l80 -798q18 -174 18 -406h25q64 189 170 406l411 858h-239 q-21 0 -26.5 11.5t1.5 45.5t17.5 46t29.5 12h514q21 0 26.5 -12t-1.5 -46t-17 -45.5t-30 -11.5h-129l-619 -1284q-27 -55 -49.5 -71.5t-62.5 -16.5h-52q-39 0 -58.5 19t-23.5 65l-92 891q-16 163 -16 307h-23q-63 -168 -135 -312l-438 -886q-43 -84 -105 -84h-67 q-38 0 -56 18.5t-22 69.5l-119 1284h-125q-21 0 -26 11.5zM1103 1621q-2 12 9 21l309 244q53 41 146 41q52 0 64 -23q8 -16 -11 -28l-346 -242q-49 -35 -115 -35q-50 0 -56 22z" />
<glyph unicode="&#x1e83;" horiz-adv-x="1570" d="M48.5 893.5q-5.5 10.5 0.5 44.5t15 44.5t34 10.5h64q82 0 115.5 -29.5t39.5 -105.5l43 -571q7 -103 7 -181h22q46 122 76 185l309 670q12 27 29.5 37t52.5 10h68q34 0 48 -9.5t15 -35.5l45 -672q6 -92 6 -185h23q36 99 78 187l309 678q10 20 29 28.5t61 8.5q39 0 50 -9 t3 -28l-448 -938q-12 -26 -30.5 -35.5t-51.5 -9.5h-68q-34 0 -49 10.5t-16 36.5l-49 672q-5 79 2 190h-23q-37 -117 -74 -192l-311 -670q-12 -27 -29.5 -37t-50.5 -10h-76q-60 0 -63 45l-74 813q-1 23 -13.5 30t-47.5 7h-45q-20 0 -25.5 10.5zM658 1132q2 7 8 13l295 272 q45 41 129 41q66 0 69 -23q1 -9 -10 -18l-332 -272q-47 -35 -104 -35q-58 0 -55 22z" />
<glyph unicode="&#x1e84;" horiz-adv-x="2312" d="M160 1371.5q-5 11.5 2 45.5t17.5 46t29.5 12h526q21 0 26.5 -12t-1.5 -46t-17 -45.5t-30 -11.5h-260l77 -862q18 -199 21 -402h22q70 193 177 406l403 811q22 42 46.5 59t64.5 17h49q43 0 61.5 -17.5t24.5 -71.5l80 -798q18 -174 18 -406h25q64 189 170 406l411 858h-239 q-21 0 -26.5 11.5t1.5 45.5t17.5 46t29.5 12h514q21 0 26.5 -12t-1.5 -46t-17 -45.5t-30 -11.5h-129l-619 -1284q-27 -55 -49.5 -71.5t-62.5 -16.5h-52q-39 0 -58.5 19t-23.5 65l-92 891q-16 163 -16 307h-23q-63 -168 -135 -312l-438 -886q-43 -84 -105 -84h-67 q-38 0 -56 18.5t-22 69.5l-119 1284h-125q-21 0 -26 11.5zM985 1724q-3 62 23.5 95.5t76.5 33.5h23q44 0 64 -17t22 -54q3 -115 -86 -115h-59q-34 0 -48 13t-16 44zM1505 1724q-1 63 25 96t76 33h22q83 0 86 -71q1 -60 -20 -87.5t-66 -27.5h-59q-34 0 -48 13t-16 44z" />
<glyph unicode="&#x1e85;" horiz-adv-x="1570" d="M48.5 893.5q-5.5 10.5 0.5 44.5t15 44.5t34 10.5h64q82 0 115.5 -29.5t39.5 -105.5l43 -571q7 -103 7 -181h22q46 122 76 185l309 670q12 27 29.5 37t52.5 10h68q34 0 48 -9.5t15 -35.5l45 -672q6 -92 6 -185h23q36 99 78 187l309 678q10 20 29 28.5t61 8.5q39 0 50 -9 t3 -28l-448 -938q-12 -26 -30.5 -35.5t-51.5 -9.5h-68q-34 0 -49 10.5t-16 36.5l-49 672q-5 79 2 190h-23q-37 -117 -74 -192l-311 -670q-12 -27 -29.5 -37t-50.5 -10h-76q-60 0 -63 45l-74 813q-1 23 -13.5 30t-47.5 7h-45q-20 0 -25.5 10.5zM610 1231q-1 58 25 89.5 t72 31.5h8q82 0 82 -68q1 -57 -18.5 -82.5t-63.5 -25.5h-43q-32 0 -46 13.5t-16 41.5zM1038 1231q-1 58 25 89.5t72 31.5h8q82 0 82 -68q1 -57 -18.5 -82.5t-63.5 -25.5h-43q-32 0 -46 13.5t-16 41.5z" />
<glyph unicode="&#x1ef2;" horiz-adv-x="1452" d="M164 1371.5q-5 11.5 2 45.5t17.5 46t29.5 12h442q21 0 26.5 -12t-1.5 -46t-17 -45.5t-30 -11.5h-191l185 -457q51 -123 75 -262h23q85 151 176 260l371 459h-221q-21 0 -26.5 11.5t1.5 45.5t17.5 46t29.5 12h471q21 0 26.5 -12t-1.5 -46t-17 -45.5t-30 -11.5h-101 l-655 -828l-80 -417h205q21 0 26 -12t-2 -46t-17 -45.5t-30 -11.5h-542q-21 0 -26.5 11.5t1.5 45.5t17.5 46t29.5 12h199l82 426l-338 819h-101q-21 0 -26 11.5zM643 1876q-23 23 5 39q21 12 57 12q44 0 70 -9t48 -32l219 -237q17 -17 4 -33.5t-53 -16.5q-55 0 -90 35z" />
<glyph unicode="&#x1ef3;" horiz-adv-x="1028" d="M-153.5 -430q-1.5 12 12.5 41q15 30 26.5 35.5t34.5 -2.5q55 -19 121 -19q102 0 165.5 54t147.5 217l47 92q-16 3 -22.5 9t-9.5 19l-187 830q-4 23 -15.5 30t-45.5 7h-45q-20 0 -25.5 10.5t0.5 44.5t15 44.5t34 10.5h64q74 0 108 -28t52 -109l116 -545q26 -124 23 -227 h22q36 125 90 233l332 654q9 20 29 28.5t61 8.5q40 0 51.5 -9t2.5 -28l-543 -1045q-41 -79 -68 -127t-63 -100.5t-68 -81.5t-74 -54.5t-91 -35.5t-111 -10q-106 0 -168 32q-17 9 -18.5 21zM356 1417q-26 33 38 40l30 1q74 0 102 -41l195 -272q5 -9 4 -17t-14.5 -13t-36.5 -5 q-56 0 -84 35z" />
<glyph unicode="&#x2000;" horiz-adv-x="1219" />
<glyph unicode="&#x2001;" horiz-adv-x="2439" />
<glyph unicode="&#x2002;" horiz-adv-x="1219" />
<glyph unicode="&#x2003;" horiz-adv-x="2439" />
<glyph unicode="&#x2004;" horiz-adv-x="813" />
<glyph unicode="&#x2005;" horiz-adv-x="609" />
<glyph unicode="&#x2006;" horiz-adv-x="406" />
<glyph unicode="&#x2007;" horiz-adv-x="406" />
<glyph unicode="&#x2008;" horiz-adv-x="304" />
<glyph unicode="&#x2009;" horiz-adv-x="487" />
<glyph unicode="&#x200a;" horiz-adv-x="135" />
<glyph unicode="&#x2010;" horiz-adv-x="694" d="M113 473q-5 12 2 41q8 34 15.5 44.5t29.5 10.5h356q20 0 24.5 -12t-1.5 -43q-5 -31 -13 -42t-30 -11h-357q-21 0 -26 12z" />
<glyph unicode="&#x2011;" horiz-adv-x="694" d="M113 473q-5 12 2 41q8 34 15.5 44.5t29.5 10.5h356q20 0 24.5 -12t-1.5 -43q-5 -31 -13 -42t-30 -11h-357q-21 0 -26 12z" />
<glyph unicode="&#x2012;" horiz-adv-x="694" d="M113 473q-5 12 2 41q8 34 15.5 44.5t29.5 10.5h356q20 0 24.5 -12t-1.5 -43q-5 -31 -13 -42t-30 -11h-357q-21 0 -26 12z" />
<glyph unicode="&#x2013;" horiz-adv-x="958" d="M51.5 577q-4.5 10 1.5 41q6 33 13 42.5t26 9.5h791q20 0 24 -10.5t-2 -41.5q-6 -32 -13 -41.5t-26 -9.5h-790q-20 0 -24.5 10z" />
<glyph unicode="&#x2014;" horiz-adv-x="1941" d="M51.5 577q-4.5 10 1.5 41q6 33 13 42.5t26 9.5h1774q20 0 24 -10.5t-2 -41.5q-6 -32 -13 -41.5t-26 -9.5h-1773q-20 0 -24.5 10z" />
<glyph unicode="&#x2018;" horiz-adv-x="542" d="M242 1120q0 63 37.5 161.5t89.5 174.5q20 33 59 33h39q42 0 22 -41q-64 -126 -88 -215q54 -15 54 -76q0 -123 -119 -123h-12q-44 0 -63 19.5t-19 66.5z" />
<glyph unicode="&#x2019;" horiz-adv-x="542" d="M250 1073q64 126 88 215q-53 15 -53 76q0 123 118 123h13q44 0 63 -19.5t19 -66.5q0 -63 -37.5 -161.5t-89.5 -174.5q-20 -33 -60 -33h-39q-42 0 -22 41z" />
<glyph unicode="&#x201a;" horiz-adv-x="542" d="M53 -223q64 126 88 215q-53 15 -53 76q0 122 119 122h12q44 0 63 -19.5t19 -66.5q0 -63 -37.5 -161t-89.5 -174q-20 -33 -59 -33h-39q-43 0 -23 41z" />
<glyph unicode="&#x201c;" horiz-adv-x="917" d="M242 1120q0 63 37.5 161.5t89.5 174.5q20 33 59 33h39q42 0 22 -41q-64 -126 -88 -215q54 -15 54 -76q0 -123 -119 -123h-12q-44 0 -63 19.5t-19 66.5zM616 1120q0 63 37.5 161.5t89.5 174.5q20 33 60 33h39q42 0 22 -41q-64 -126 -88 -215q53 -15 53 -76 q0 -123 -118 -123h-13q-44 0 -63 19.5t-19 66.5z" />
<glyph unicode="&#x201d;" horiz-adv-x="917" d="M250 1073q64 126 88 215q-53 15 -53 76q0 123 118 123h13q44 0 63 -19.5t19 -66.5q0 -63 -37.5 -161.5t-89.5 -174.5q-20 -33 -60 -33h-39q-42 0 -22 41zM625 1073q64 126 88 215q-54 15 -54 76q0 123 119 123h13q44 0 62.5 -19.5t18.5 -66.5q0 -63 -37.5 -161.5 t-89.5 -174.5q-20 -33 -59 -33h-39q-42 0 -22 41z" />
<glyph unicode="&#x201e;" horiz-adv-x="917" d="M53 -223q64 126 88 215q-53 15 -53 76q0 122 119 122h12q44 0 63 -19.5t19 -66.5q0 -63 -37.5 -161t-89.5 -174q-20 -33 -59 -33h-39q-43 0 -23 41zM428 -223q64 126 88 215q-53 15 -53 76q0 122 119 122h12q44 0 63 -19.5t19 -66.5q0 -63 -37.5 -161t-89.5 -174 q-20 -33 -60 -33h-38q-43 0 -23 41z" />
<glyph unicode="&#x2022;" horiz-adv-x="776" d="M147 610q0 116 56.5 180t152.5 64h45q82 0 120 -35t38 -108q0 -116 -42 -170t-128 -54h-117q-65 0 -95 29t-30 94z" />
<glyph unicode="&#x2026;" horiz-adv-x="1484" d="M78 57q0 64 31.5 100t83.5 36h24q86 0 86 -80q0 -64 -23 -93.5t-71 -29.5h-64q-36 0 -51.5 15.5t-15.5 51.5zM547 57q0 64 31.5 100t83.5 36h24q86 0 86 -80q0 -64 -23 -93.5t-71 -29.5h-64q-36 0 -51.5 15.5t-15.5 51.5zM1018 57q0 64 31.5 100t83.5 36h24q86 0 86 -80 q0 -64 -23 -93.5t-71 -29.5h-64q-36 0 -51.5 15.5t-15.5 51.5z" />
<glyph unicode="&#x202f;" horiz-adv-x="487" />
<glyph unicode="&#x2039;" horiz-adv-x="753" d="M129 518l6 27q11 55 60 106l286 297q17 18 37.5 24.5t61.5 6.5q43 0 51 -12.5t-17 -38.5l-395 -418l238 -408q16 -28 5.5 -40.5t-52.5 -12.5q-34 0 -51 7t-27 26l-187 315q-30 52 -16 121z" />
<glyph unicode="&#x203a;" horiz-adv-x="757" d="M119 102l395 418l-238 408q-16 28 -5 40.5t53 12.5q34 0 50 -7t27 -26l187 -315q30 -52 16 -121l-6 -27q-12 -56 -59 -106l-287 -297q-17 -18 -37.5 -24.5t-60.5 -6.5q-83 0 -35 51z" />
<glyph unicode="&#x205f;" horiz-adv-x="609" />
<glyph unicode="&#x20ac;" horiz-adv-x="1366" d="M47 502.5q-4 8.5 2 42.5q6 35 14 45t29 10h119q3 137 22 236h-86q-20 0 -24 8.5t2 42.5q6 35 14 45t29 10h94q78 261 267 409t466 148q168 0 301 -43q68 -22 90 -54t9 -99l-31 -152q-6 -29 -23 -39t-61 -10q-33 0 -44 8t-7 31l39 205q-141 43 -293 43q-203 0 -350 -115 t-217 -332h585q19 0 24 -10.5t-1 -44.5q-6 -33 -13 -42t-28 -9h-594q-27 -117 -27 -236h566q19 0 23.5 -10.5t-1.5 -44.5q-6 -33 -13 -42t-28 -9h-545q15 -213 117 -308.5t318 -95.5q149 0 307 47q16 5 27 -5t18 -40q7 -31 4 -42t-21 -17q-169 -58 -356 -58 q-275 0 -408.5 124.5t-148.5 394.5h-141q-21 0 -25 8.5z" />
<glyph unicode="&#x2122;" horiz-adv-x="2144" d="M186 1266l29 143q8 39 24.5 52.5t59.5 13.5h662q42 0 52.5 -12t2.5 -54l-25 -143q-4 -25 -18 -31t-53 -6q-36 0 -47 6t-7 31l19 106h-209l-111 -575h97q16 0 20.5 -10t-0.5 -44q-6 -32 -13.5 -41.5t-25.5 -9.5h-330q-16 0 -20.5 9.5t0.5 43.5q6 32 13.5 42t25.5 10h98 l113 575h-211l-21 -106q-4 -25 -18 -31t-53 -6q-36 0 -47 6t-7 31zM908.5 702.5q-5.5 10.5 0.5 42.5t13.5 42t25.5 10h64l182 575h-53q-21 0 -25.5 11t2.5 42q5 21 8 29.5t9.5 14.5t17.5 6h217q49 0 65 -14t19 -50l31 -391q5 -53 0 -154h22q23 83 74 199l152 346 q16 37 36.5 50.5t69.5 13.5h232q18 0 21.5 -11t-3.5 -39q-6 -32 -13.5 -42.5t-25.5 -10.5h-59l-43 -575h61q16 0 21.5 -11t-0.5 -43t-13.5 -41.5t-25.5 -9.5h-273q-16 0 -20.5 9.5t0.5 43.5q6 32 13.5 42t25.5 10h67l58 583h-29q-38 -129 -107 -280l-118 -258 q-20 -44 -41 -57t-68 -13h-39q-46 0 -62 13.5t-20 58.5l-24 278q-16 181 -13 258h-22l-174 -583h61q16 0 21.5 -11t-0.5 -43t-13.5 -41.5t-25.5 -9.5h-258q-16 0 -21.5 10.5z" />
<glyph unicode="&#x25fc;" horiz-adv-x="1003" d="M0 0v1004h1004v-1004h-1004z" />
<glyph unicode="&#xfb06;" horiz-adv-x="1869" d="M59 156l13 59q5 23 19.5 31t55.5 8q35 0 47 -8.5t9 -26.5l-17 -102q133 -37 289 -37q185 0 258.5 48t73.5 159q0 52 -22.5 80.5t-84.5 49.5t-190 42l-49 8q-153 25 -215 83t-62 157q0 147 117 230t332 83q81 0 151 -12q-51 54 -51 147q0 143 122 243.5t306 100.5 q195 0 299 -113q80 -86 80 -229q0 -71 -22 -164h303q21 0 25 -8t-1 -45q-6 -32 -14.5 -41.5t-30.5 -9.5h-303l-117 -596q-14 -75 -14 -105q0 -55 29.5 -76.5t99.5 -21.5q62 0 139 23q21 8 32 1.5t22 -38.5q7 -21 7.5 -32.5t-5 -18t-19.5 -11.5q-42 -17 -104.5 -28 t-114.5 -11q-118 0 -168.5 45.5t-50.5 133.5q0 36 14 118l121 617h-172q-22 0 -26.5 9.5t1.5 41.5q7 35 15.5 44t32.5 9h170q20 103 20 160q0 115 -68 174q-68 62 -188 62q-132 0 -215.5 -70.5t-83.5 -171.5q0 -60 24 -104t78 -82q34 -25 44 -46t4 -59l-13 -70 q-3 -22 -20 -31.5t-58 -9.5q-33 0 -42.5 8t-6.5 29l19 97q-131 36 -273 36q-291 0 -291 -192q0 -42 15.5 -64.5t75 -44.5t182.5 -43l47 -8q170 -30 236.5 -91t66.5 -173q0 -164 -114.5 -244t-370.5 -80q-165 0 -295 31q-72 17 -94 49t-9 101z" />
</font>
</defs>
</svg>
